<svg width="512" height="512" viewBox="0 0 512 512" version="1.1" xmlns="http://www.w3.org/2000/svg" xmlns:xlink="http://www.w3.org/1999/xlink">
<title>assessment-group-template</title>
<desc>Created using Figma</desc>
<g id="Canvas" transform="matrix(36.5714 0 0 36.5714 -15798.9 0)">
<rect x="432" y="0" width="14" height="14" fill="#E5E5E5"/>
<g id="assessment-group-template">
<mask id="mask0_outline" mask-type="alpha">
<g id="Mask">
<use xlink:href="#path0_fill" transform="translate(432 0)" fill="#FFFFFF"/>
</g>
</mask>
<g id="Mask" mask="url(#mask0_outline)">
<use xlink:href="#path0_fill" transform="translate(432 0)"/>
</g>
<g id="&#226;&#134;&#170;&#240;&#159;&#142;&#168;Color" mask="url(#mask0_outline)">
<g id="Rectangle 3">
<use xlink:href="#path1_fill" transform="translate(432 0)" fill="#333333"/>
</g>
</g>
</g>
</g>
<defs>
<path id="path0_fill" fill-rule="evenodd" d="M 14 14L 14 3.79297L 10.207 0L 3 0L 3 3L 4 3L 4 1L 9.79297 1L 13 4.20703L 13 13L 11 13L 11 14L 14 14ZM 1 13L 9 13L 9 5L 10 5L 10 14L 0 14L 0 5L 1 5L 1 13ZM 4 11L 3 11L 3 12L 4 12L 4 11ZM 6 12L 5 12L 5 11L 6 11L 6 12ZM 6 9L 5 9L 5 10L 6 10L 6 9ZM 8 12L 7 12L 7 11L 8 11L 8 12ZM 7 10L 8 10L 8 9L 7 9L 7 10ZM 7 7L 8 7L 8 8L 7 8L 7 7Z"/>
<path id="path1_fill" fill-rule="evenodd" d="M 0 0L 14 0L 14 14L 0 14L 0 0Z"/>
</defs>
</svg>
