<svg width="512" height="512" viewBox="0 0 512 512" version="1.1" xmlns="http://www.w3.org/2000/svg" xmlns:xlink="http://www.w3.org/1999/xlink">
<title>assessment-group</title>
<desc>Created using Figma</desc>
<g id="Canvas" transform="matrix(36.5714 0 0 36.5714 -14921.1 0)">
<rect x="408" y="0" width="14" height="14" fill="#E5E5E5"/>
<g id="assessment-group">
<mask id="mask0_outline" mask-type="alpha">
<g id="Mask">
<use xlink:href="#path0_fill" transform="translate(408 1)" fill="#FFFFFF"/>
</g>
</mask>
<g id="Mask" mask="url(#mask0_outline)">
<use xlink:href="#path0_fill" transform="translate(408 1)"/>
</g>
<g id="&#226;&#134;&#170;&#240;&#159;&#142;&#168;Color" mask="url(#mask0_outline)">
<g id="Rectangle 3">
<use xlink:href="#path1_fill" transform="translate(408 0)" fill="#333333"/>
</g>
</g>
</g>
</g>
<defs>
<path id="path0_fill" fill-rule="evenodd" d="M 14 12L 0 12L 0 0L 1 0L 1 11L 13 11L 13 0L 14 0L 14 12ZM 4 8L 2 8L 2 10L 4 10L 4 8ZM 6 8L 8 8L 8 10L 6 10L 6 8ZM 8 4L 6 4L 6 6L 8 6L 8 4ZM 10 8L 12 8L 12 10L 10 10L 10 8ZM 12 4L 10 4L 10 6L 12 6L 12 4ZM 10 0L 12 0L 12 2L 10 2L 10 0Z"/>
<path id="path1_fill" fill-rule="evenodd" d="M 0 0L 14 0L 14 14L 0 14L 0 0Z"/>
</defs>
</svg>
