<svg width="512" height="512" viewBox="0 0 512 512" version="1.1" xmlns="http://www.w3.org/2000/svg" xmlns:xlink="http://www.w3.org/1999/xlink">
<title>auto-fill-template</title>
<desc>Created using Figma</desc>
<g id="Canvas" transform="matrix(36.5714 0 0 36.5714 -17554.3 0)">
<rect x="480" y="0" width="14" height="14" fill="#E5E5E5"/>
<g id="auto-fill-template">
<mask id="mask0_outline" mask-type="alpha">
<g id="Mask">
<use xlink:href="#path0_fill" transform="translate(480 2)" fill="#FFFFFF"/>
</g>
</mask>
<g id="Mask" mask="url(#mask0_outline)">
<use xlink:href="#path0_fill" transform="translate(480 2)"/>
</g>
<g id="&#226;&#134;&#170;&#240;&#159;&#142;&#168;Color" mask="url(#mask0_outline)">
<g id="Rectangle 3">
<use xlink:href="#path1_fill" transform="translate(480 0)" fill="#333333"/>
</g>
</g>
</g>
</g>
<defs>
<path id="path0_fill" fill-rule="evenodd" d="M 14 5L 0 5L 0 0L 14 0L 14 5ZM 0 11L 14 11L 14 6L 0 6L 0 11ZM 13 10L 1 10L 1 7L 13 7L 13 10ZM 13 4L 1 4L 1 1L 13 1L 13 4ZM 9 2L 2 2L 2 3L 9 3L 9 2ZM 2 8L 5 8L 5 9L 2 9L 2 8Z"/>
<path id="path1_fill" fill-rule="evenodd" d="M 0 0L 14 0L 14 14L 0 14L 0 0Z"/>
</defs>
</svg>
