<svg width="512" height="512" viewBox="0 0 512 512" version="1.1" xmlns="http://www.w3.org/2000/svg" xmlns:xlink="http://www.w3.org/1999/xlink">
<title>blender</title>
<desc>Created using Figma</desc>
<g id="Canvas" transform="matrix(36.5714 0 0 36.5714 -39497.1 0)">
<g id="blender">
<clipPath id="clip-0" clip-rule="evenodd">
<path d="M 1080 0L 1094 0L 1094 14L 1080 14L 1080 0Z" fill="#FFFFFF"/>
</clipPath>
<g id="BrandVisualStudioBlend2017RTW_40x" clip-path="url(#clip-0)">
<g id="blender">
<use xlink:href="#path0_fill" transform="translate(1080 0)" fill="#333333"/>
</g>
</g>
</g>
</g>
<defs>
<path id="path0_fill" d="M 14 1.456L 14 12.544L 10.5 14L 0 10.7642L 0 10.5L 10.5 11.3767L 10.5 0L 14 1.456ZM 1.76575 8.5554L 0.875 8.3125L 0.875 7.4627L 1.76575 7.52815L 1.76575 4.9L 2.45 3.85L 5.6 3.28125L 5.6 1.953L 7.35 1.75L 7.35 2.9064L 8.75 2.625L 8.75 4.7145L 7.35 4.76385L 7.35 7.9457L 5.6875 9.625L 2.8 8.7899L 2.8 9.625L 1.76575 9.3947L 1.76575 8.5554ZM 2.8 7.5915L 5.6 7.8169L 5.6 4.8293L 2.8 4.9441L 2.8 7.5915Z"/>
</defs>
</svg>
