<svg width="512" height="512" viewBox="0 0 512 512" version="1.1" xmlns="http://www.w3.org/2000/svg" xmlns:xlink="http://www.w3.org/1999/xlink">
<title>blur</title>
<desc>Created using Figma</desc>
<g id="Canvas" transform="matrix(36.5714 0 0 36.5714 -21942.9 0)">
<rect x="600" y="0" width="14" height="14" fill="#E5E5E5"/>
<g id="blur">
<mask id="mask0_outline" mask-type="alpha">
<g id="Mask">
<use xlink:href="#path0_fill" transform="translate(601 1)" fill="#FFFFFF"/>
</g>
</mask>
<g id="Mask" mask="url(#mask0_outline)">
<use xlink:href="#path0_fill" transform="translate(601 1)"/>
</g>
<g id="&#226;&#134;&#170;&#240;&#159;&#142;&#168;Color" mask="url(#mask0_outline)">
<g id="Rectangle 3">
<use xlink:href="#path1_fill" transform="translate(600 0)" fill="#333333"/>
</g>
</g>
</g>
</g>
<defs>
<path id="path0_fill" fill-rule="evenodd" d="M 1 1L 1 0L 0 0L 0 13L 13 13L 13 12L 12 12L 12 11L 13 11L 13 10L 12 10L 12 11L 11 11L 11 10L 10 10L 10 9L 11 9L 11 8L 10 8L 10 9L 9 9L 9 8L 8 8L 8 7L 9 7L 9 6L 8 6L 8 7L 7 7L 7 6L 6 6L 6 5L 7 5L 7 4L 6 4L 6 5L 5 5L 5 4L 4 4L 4 3L 5 3L 5 2L 4 2L 4 3L 3 3L 3 2L 2 2L 2 1L 3 1L 3 0L 2 0L 2 1L 1 1ZM 11 12L 11 11L 10 11L 10 10L 9 10L 9 9L 8 9L 8 8L 7 8L 7 7L 6 7L 6 6L 5 6L 5 5L 4 5L 4 4L 3 4L 3 3L 2 3L 2 2L 1 2L 1 12L 11 12ZM 5 0L 4 0L 4 1L 5 1L 5 0ZM 6 0L 7 0L 7 1L 6 1L 6 0ZM 9 0L 9 1L 10 1L 10 0L 9 0ZM 13 0L 13 1L 12 1L 12 0L 13 0ZM 9 2L 9 3L 8 3L 8 2L 9 2ZM 11 3L 11 2L 10 2L 10 3L 11 3ZM 10 4L 11 4L 11 5L 10 5L 10 4ZM 6 3L 7 3L 7 2L 6 2L 6 3ZM 9 4L 9 5L 8 5L 8 4L 9 4ZM 10 7L 11 7L 11 6L 10 6L 10 7ZM 13 9L 13 8L 12 8L 12 9L 13 9ZM 13 6L 13 7L 12 7L 12 6L 13 6ZM 13 4L 12 4L 12 3L 13 3L 13 4Z"/>
<path id="path1_fill" fill-rule="evenodd" d="M 0 0L 14 0L 14 14L 0 14L 0 0Z"/>
</defs>
</svg>
