<svg width="512" height="512" viewBox="0 0 512 512" version="1.1" xmlns="http://www.w3.org/2000/svg" xmlns:xlink="http://www.w3.org/1999/xlink">
<title>bowtie-work-item-move</title>
<desc>Created using Figma</desc>
<g id="Canvas" transform="matrix(36.5714 0 0 36.5714 -21942.9 -7899.43)">
<rect x="600" y="216" width="14" height="14" fill="#E5E5E5"/>
<g id="bowtie-work-item-move">
<mask id="mask0_outline" mask-type="alpha">
<g id="Mask">
<use xlink:href="#path0_fill" transform="translate(600 216)" fill="#FFFFFF"/>
</g>
</mask>
<g id="Mask" mask="url(#mask0_outline)">
<use xlink:href="#path0_fill" transform="translate(600 216)"/>
</g>
<g id="&#226;&#134;&#170;&#240;&#159;&#142;&#168;Color" mask="url(#mask0_outline)">
<g id="Rectangle 3">
<use xlink:href="#path1_fill" transform="translate(600 216)" fill="#333333"/>
</g>
</g>
</g>
</g>
<defs>
<path id="path0_fill" fill-rule="evenodd" d="M 1.02136 3L 2.04272 3L 2.04272 5L 8.17096 5L 8.17096 3L 10.2137 3L 10.2137 2L 7.1496 2C 7.1496 0.898438 6.23199 0 5.10687 0C 3.98175 0 3.06415 0.898438 3.06415 2L 0 2L 0 14L 10.2137 14L 10.2137 13L 1.02136 13L 1.02136 3ZM 4.08551 3L 4.08551 2C 4.08551 1.44922 4.54431 1 5.10687 1C 5.66943 1 6.1283 1.44922 6.1283 2L 6.1283 3L 7.14966 3L 7.14966 4L 3.06415 4L 3.06415 3L 4.08551 3ZM 10.5768 11.8555L 14 8.5L 10.5768 5.14453L 9.85065 5.85547L 12.045 8L 5.10687 8L 5.10687 9L 12.045 9L 9.85065 11.1445L 10.5768 11.8555Z"/>
<path id="path1_fill" fill-rule="evenodd" d="M 0 0L 14 0L 14 14L 0 14L 0 0Z"/>
</defs>
</svg>
