<svg width="512" height="512" viewBox="0 0 512 512" version="1.1" xmlns="http://www.w3.org/2000/svg" xmlns:xlink="http://www.w3.org/1999/xlink">
<title>brand-svn</title>
<desc>Created using Figma</desc>
<g id="Canvas" transform="matrix(36.5714 0 0 36.5714 -29842.3 0)">
<rect x="816" y="0" width="14" height="14" fill="#E5E5E5"/>
<g id="brand-svn">
<mask id="mask0_outline" mask-type="alpha">
<g id="Mask">
<use xlink:href="#path0_fill" transform="translate(816 2)" fill="#FFFFFF"/>
</g>
</mask>
<g id="Mask" mask="url(#mask0_outline)">
<use xlink:href="#path0_fill" transform="translate(816 2)"/>
</g>
<g id="&#226;&#134;&#170;&#240;&#159;&#142;&#168;Color" mask="url(#mask0_outline)">
<g id="Rectangle 3">
<use xlink:href="#path1_fill" transform="translate(816 0)" fill="#333333"/>
</g>
</g>
</g>
</g>
<defs>
<path id="path0_fill" fill-rule="evenodd" d="M 0 0L 14 0C 14 0 10.4141 0.875 7.61328 1.57422C 4.46094 2.40625 1.92578 3.19531 0 3.98047L 0 0ZM 9.01172 2.05469C 7.39453 2.44922 6.03906 2.88672 5.03125 3.32422C 4.02344 3.76172 3.54297 4.11328 3.58594 4.375C 3.63281 4.59375 4.07031 4.72656 4.85547 4.67969C 5.25 4.67969 5.90625 4.63672 6.82422 4.55078C 8.00781 4.46094 9.1875 4.33203 10.3672 4.19922C 10.795 4.16106 11.1996 4.12255 11.5823 4.08614C 12.4921 3.99955 13.2778 3.92478 13.957 3.89453L 13.957 1.09375C 12.1172 1.35547 10.457 1.70703 9.01172 2.05469ZM 5.90625 8.44531C 4.15625 8.88281 2.1875 9.27344 0 9.58203L 0 6.60547C 0.240234 6.58398 0.469727 6.57324 0.699219 6.5625C 0.928711 6.55176 1.1582 6.54102 1.39844 6.51953C 2.49219 6.42969 3.89453 6.30078 5.55469 6.125C 5.99237 6.08202 6.44171 6.03805 6.89111 5.99409L 6.93512 5.98979C 7.36951 5.9473 7.80353 5.90483 8.22656 5.86328C 8.39923 5.85267 8.56378 5.84182 8.72034 5.8315L 8.7226 5.83135C 9.19891 5.79994 9.60077 5.77344 9.92969 5.77344C 10.7188 5.77344 11.1562 5.90625 11.2422 6.16797C 11.332 6.42969 10.8945 6.78125 9.92969 7.21875C 8.96875 7.61328 7.65625 8.00781 5.90625 8.44531ZM 0.699219 8.39844C 0.742188 8.39844 0.742188 8.44531 0.742188 8.48828C 0.742188 8.48828 0.742188 8.53125 0.699219 8.57422C 0.699219 8.61719 0.613281 8.61719 0.570312 8.61719C 0.523438 8.57422 0.480469 8.53125 0.480469 8.48828C 0.480469 8.47048 0.480469 8.46006 0.483521 8.45062C 0.487854 8.43727 0.498291 8.4259 0.523438 8.39844C 0.570312 8.35547 0.65625 8.35547 0.699219 8.39844ZM 0.742188 7.57031C 0.742188 7.52344 0.742188 7.48047 0.699219 7.48047C 0.677734 7.48047 0.666992 7.46973 0.65625 7.45898C 0.645508 7.44824 0.634766 7.4375 0.613281 7.4375C 0.570312 7.4375 0.523438 7.4375 0.523438 7.48047C 0.499512 7.50438 0.488953 7.51498 0.484192 7.52776C 0.480469 7.53795 0.480469 7.54952 0.480469 7.57031C 0.480469 7.61328 0.480469 7.65625 0.523438 7.65625C 0.550903 7.68142 0.562256 7.69185 0.575623 7.69617C 0.585083 7.69922 0.595459 7.69922 0.613281 7.69922C 0.65625 7.69922 0.699219 7.69922 0.699219 7.65625C 0.742188 7.65625 0.742188 7.61328 0.742188 7.57031ZM 1.17969 8.39844C 1.22656 8.39844 1.22656 8.44531 1.22656 8.48828C 1.22656 8.53125 1.17969 8.57422 1.09375 8.57422C 1.00781 8.57422 0.960938 8.53125 0.960938 8.44531C 0.960938 8.35547 1.00781 8.3125 1.09375 8.3125L 1.17969 8.39844ZM 1.22656 7.57031C 1.22656 7.52344 1.22656 7.48047 1.17969 7.48047C 1.13672 7.48047 1.09375 7.4375 1.09375 7.4375C 1.05078 7.4375 1.00781 7.4375 1.00781 7.48047C 0.981323 7.50476 0.969788 7.51532 0.964783 7.52837C 0.960938 7.53842 0.960938 7.54993 0.960938 7.57031C 0.960938 7.61328 0.960938 7.65625 1.00781 7.65625C 1.03253 7.68096 1.04303 7.69146 1.05566 7.69592C 1.065 7.69922 1.0755 7.69922 1.09375 7.69922C 1.13672 7.69922 1.22656 7.65625 1.22656 7.57031ZM 14 10.5L 0 10.457C 1.92578 10.1953 4.19922 9.71094 6.86719 9.01172C 9.71094 8.3125 12.0742 7.57031 14 6.82422L 14 10.5Z"/>
<path id="path1_fill" fill-rule="evenodd" d="M 0 0L 14 0L 14 14L 0 14L 0 0Z"/>
</defs>
</svg>
