<svg width="512" height="512" viewBox="0 0 512 512" version="1.1" xmlns="http://www.w3.org/2000/svg" xmlns:xlink="http://www.w3.org/1999/xlink">
<title>build-queue-new</title>
<desc>Created using Figma</desc>
<g id="Canvas" transform="matrix(36.5714 0 0 36.5714 -25453.7 -7899.43)">
<rect x="696" y="216" width="14" height="14" fill="#E5E5E5"/>
<g id="build-queue-new">
<mask id="mask0_outline" mask-type="alpha">
<g id="Mask">
<use xlink:href="#path0_fill" transform="translate(697 216)" fill="#FFFFFF"/>
</g>
</mask>
<g id="Mask" mask="url(#mask0_outline)">
<use xlink:href="#path0_fill" transform="translate(697 216)"/>
</g>
<g id="&#226;&#134;&#170;&#240;&#159;&#142;&#168;Color" mask="url(#mask0_outline)">
<g id="Rectangle 3">
<use xlink:href="#path1_fill" transform="translate(696 216)" fill="#333333"/>
</g>
</g>
</g>
</g>
<defs>
<path id="path0_fill" fill-rule="evenodd" d="M 3 3L 5 3L 5 2L 3 2L 3 0L 2 0L 2 2L 0 2L 0 3L 2 3L 2 5L 3 5L 3 3ZM 7 2L 7 5L 4 5L 4 8L 1 8L 1 14L 7 14L 7 11L 10 11L 10 8L 13 8L 13 2L 7 2ZM 2 13L 2 9L 6 9L 6 13L 2 13ZM 5 6L 5 8L 7 8L 7 10L 9 10L 9 6L 5 6ZM 12 7L 10 7L 10 5L 8 5L 8 3L 12 3L 12 7Z"/>
<path id="path1_fill" fill-rule="evenodd" d="M 0 0L 14 0L 14 14L 0 14L 0 0Z"/>
</defs>
</svg>
