<svg width="512" height="512" viewBox="0 0 512 512" version="1.1" xmlns="http://www.w3.org/2000/svg" xmlns:xlink="http://www.w3.org/1999/xlink">
<title>calendar</title>
<desc>Created using Figma</desc>
<g id="Canvas" transform="matrix(36.5714 0 0 36.5714 -41252.6 0)">
<rect x="1128" y="0" width="14" height="14" fill="#E5E5E5"/>
<g id="calendar">
<mask id="mask0_outline" mask-type="alpha">
<g id="Mask">
<use xlink:href="#path0_fill" transform="translate(1128 0)" fill="#FFFFFF"/>
</g>
</mask>
<g id="Mask" mask="url(#mask0_outline)">
<use xlink:href="#path0_fill" transform="translate(1128 0)"/>
</g>
<g id="&#226;&#134;&#170;&#240;&#159;&#142;&#168;Color" mask="url(#mask0_outline)">
<g id="Rectangle 3">
<use xlink:href="#path1_fill" transform="translate(1128 0)" fill="#333333"/>
</g>
</g>
</g>
</g>
<defs>
<path id="path0_fill" fill-rule="evenodd" d="M 12 1L 12 0L 11 0L 11 1L 3 1L 3 0L 2 0L 2 1L 0 1L 0 13L 14 13L 14 1L 12 1ZM 13 12L 1 12L 1 5L 13 5L 13 12ZM 1 2L 1 4L 13 4L 13 2L 12 2L 12 3L 11 3L 11 2L 3 2L 3 3L 2 3L 2 2L 1 2ZM 4 10.7578L 4 9.83203C 4.32812 10.0664 4.71094 10.1836 5.14844 10.1836C 5.42188 10.1836 5.64062 10.125 5.79297 10.0078C 5.94531 9.89062 6.02344 9.73047 6.02344 9.51953C 6.02344 9.30469 5.92578 9.13672 5.73828 9.01953C 5.54688 8.90234 5.28516 8.84375 4.95312 8.84375L 4.49609 8.84375L 4.49609 8.03125L 4.91797 8.03125C 5.55469 8.03125 5.875 7.82031 5.875 7.40234C 5.875 7.00781 5.62891 6.8125 5.14062 6.8125C 4.8125 6.8125 4.49219 6.91797 4.18359 7.125L 4.18359 6.25781C 4.52734 6.08594 4.92969 6 5.38672 6C 5.88672 6 6.27734 6.11328 6.55859 6.33203C 6.83594 6.55469 6.97656 6.84375 6.97656 7.19922C 6.97656 7.83203 6.65234 8.22656 6 8.38672L 6 8.40234C 6.34766 8.44531 6.62109 8.57031 6.82031 8.77734C 7.02344 8.98438 7.12109 9.23438 7.12109 9.53516C 7.12109 9.98438 6.95703 10.3438 6.62109 10.6055C 6.28516 10.8672 5.82422 11 5.23438 11C 4.72656 11 4.31641 10.918 4 10.7578ZM 10 11L 10 6L 9.38281 6C 9.19531 6.15234 8.98438 6.29297 8.75 6.41797C 8.51562 6.54688 8.26562 6.65234 8 6.73438L 8 7.64062C 8.08984 7.62891 8.17969 7.60938 8.27344 7.58594C 8.36719 7.55859 8.45312 7.52734 8.54297 7.48828C 8.62891 7.44922 8.70703 7.41016 8.78516 7.36328C 8.86328 7.31641 8.94531 7.26562 9 7.21484L 9 11L 10 11Z"/>
<path id="path1_fill" fill-rule="evenodd" d="M 0 0L 14 0L 14 14L 0 14L 0 0Z"/>
</defs>
</svg>
