<svg width="512" height="512" viewBox="0 0 512 512" version="1.1" xmlns="http://www.w3.org/2000/svg" xmlns:xlink="http://www.w3.org/1999/xlink">
<title>calendar-month</title>
<desc>Created using Figma</desc>
<g id="Canvas" transform="matrix(36.5714 0 0 36.5714 -42130.3 0)">
<rect x="1152" y="0" width="14" height="14" fill="#E5E5E5"/>
<g id="calendar-month">
<mask id="mask0_outline" mask-type="alpha">
<g id="Mask">
<use xlink:href="#path0_fill" transform="translate(1152 0)" fill="#FFFFFF"/>
</g>
</mask>
<g id="Mask" mask="url(#mask0_outline)">
<use xlink:href="#path0_fill" transform="translate(1152 0)"/>
</g>
<g id="&#226;&#134;&#170;&#240;&#159;&#142;&#168;Color" mask="url(#mask0_outline)">
<g id="Rectangle 3">
<use xlink:href="#path1_fill" transform="translate(1152 0)" fill="#333333"/>
</g>
</g>
</g>
</g>
<defs>
<path id="path0_fill" fill-rule="evenodd" d="M 11.8462 0L 11.8462 1.07692L 14 1.07692L 14 14L 0 14L 0 1.07692L 2.15381 1.07692L 2.15381 0L 3.23071 0L 3.23071 1.07692L 10.7693 1.07692L 10.7693 0L 11.8462 0ZM 1.0769 12.9231L 12.9231 12.9231L 12.9231 5.38462L 1.0769 5.38462L 1.0769 12.9231ZM 1.0769 4.30769L 1.0769 2.15385L 2.15381 2.15385L 2.15381 3.23077L 3.23071 3.23077L 3.23071 2.15385L 10.7692 2.15385L 10.7692 3.23077L 11.8462 3.23077L 11.8462 2.15385L 12.9231 2.15385L 12.9231 4.30769L 1.0769 4.30769ZM 2.15381 7.53846L 3.23071 7.53846L 3.23071 6.46154L 2.15381 6.46154L 2.15381 7.53846ZM 5.38464 7.53846L 4.30774 7.53846L 4.30774 6.46154L 5.38464 6.46154L 5.38464 7.53846ZM 6.46155 7.53846L 7.53845 7.53846L 7.53845 6.46154L 6.46155 6.46154L 6.46155 7.53846ZM 9.69226 7.53846L 8.61536 7.53846L 8.61536 6.46154L 9.69226 6.46154L 9.69226 7.53846ZM 10.7693 7.53846L 11.8462 7.53846L 11.8462 6.46154L 10.7693 6.46154L 10.7693 7.53846ZM 3.23071 9.69231L 2.15381 9.69231L 2.15381 8.61539L 3.23071 8.61539L 3.23071 9.69231ZM 4.30774 9.69231L 5.38464 9.69231L 5.38464 8.61539L 4.30774 8.61539L 4.30774 9.69231ZM 7.53845 9.69231L 6.46155 9.69231L 6.46155 8.61539L 7.53845 8.61539L 7.53845 9.69231ZM 8.61536 9.69231L 9.69226 9.69231L 9.69226 8.61539L 8.61536 8.61539L 8.61536 9.69231ZM 11.8462 9.69231L 10.7693 9.69231L 10.7693 8.61539L 11.8462 8.61539L 11.8462 9.69231ZM 2.15381 11.8462L 3.23071 11.8462L 3.23071 10.7692L 2.15381 10.7692L 2.15381 11.8462ZM 5.38464 11.8462L 4.30774 11.8462L 4.30774 10.7692L 5.38464 10.7692L 5.38464 11.8462ZM 6.46155 11.8462L 7.53845 11.8462L 7.53845 10.7692L 6.46155 10.7692L 6.46155 11.8462Z"/>
<path id="path1_fill" fill-rule="evenodd" d="M 0 0L 14 0L 14 14L 0 14L 0 0Z"/>
</defs>
</svg>
