<svg width="512" height="512" viewBox="0 0 512 512" version="1.1" xmlns="http://www.w3.org/2000/svg" xmlns:xlink="http://www.w3.org/1999/xlink">
<title>calendar-check</title>
<desc>Created using Figma</desc>
<g id="Canvas" transform="matrix(36.5714 0 0 36.5714 -40374.9 0)">
<g id="calendar-check">
<use xlink:href="#path0_fill" transform="translate(1104 0)"/>
</g>
</g>
<defs>
<path id="path0_fill" d="M 14 0.875L 14 7.875L 13.125 7.875L 13.125 4.375L 0.875 4.375L 0.875 12.25L 7 12.25L 7 13.125L 0 13.125L 0 0.875L 2.625 0.875L 2.625 0L 3.5 0L 3.5 0.875L 10.5 0.875L 10.5 0L 11.375 0L 11.375 0.875L 14 0.875ZM 13.125 3.5L 13.125 1.75L 11.375 1.75L 11.375 2.625L 10.5 2.625L 10.5 1.75L 3.5 1.75L 3.5 2.625L 2.625 2.625L 2.625 1.75L 0.875 1.75L 0.875 3.5L 13.125 3.5ZM 13.2549 9.31738L 13.8701 9.93262L 10.0625 13.7471L 8.22363 11.9014L 8.83887 11.2861L 10.0625 12.5029L 13.2549 9.31738Z"/>
</defs>
</svg>
