<svg width="512" height="512" viewBox="0 0 512 512" version="1.1" xmlns="http://www.w3.org/2000/svg" xmlns:xlink="http://www.w3.org/1999/xlink">
<title>chart-stacked-line</title>
<desc>Created using Figma</desc>
<g id="Canvas" transform="matrix(36.5714 0 0 36.5714 -6144 -877.714)">
<rect x="168" y="24" width="14" height="14" fill="#E5E5E5"/>
<g id="chart-stacked-line">
<mask id="mask0_outline" mask-type="alpha">
<g id="Mask">
<use xlink:href="#path0_fill" transform="translate(168 24)" fill="#FFFFFF"/>
</g>
</mask>
<g id="Mask" mask="url(#mask0_outline)">
<use xlink:href="#path0_fill" transform="translate(168 24)"/>
</g>
<g id="&#226;&#134;&#170;&#240;&#159;&#142;&#168;Color" mask="url(#mask0_outline)">
<g id="Rectangle 3">
<use xlink:href="#path1_fill" transform="translate(168 24)" fill="#333333"/>
</g>
</g>
</g>
</g>
<defs>
<path id="path0_fill" fill-rule="evenodd" d="M 0 0L 14 0L 14 14L 0 14L 0 0ZM 6.25781 5.27734L 5.53906 4.58594L 6.48828 3.60156L 7.20703 4.29297L 6.25781 5.27734ZM 11.8789 10.5859L 12.5859 9.87891L 11.5234 8.81641L 10.8164 9.52344L 11.8789 10.5859ZM 4.90625 5.24219L 5.625 5.9375L 4.67578 6.92188L 3.95703 6.22656L 4.90625 5.24219ZM 1 1L 13 1L 13 4.83594L 11.9336 5.80859L 9 2.875L 9 2L 7 2L 7 4L 8.71094 4L 11.8984 7.19141L 13 6.19141L 13 10.8789L 12.5859 11.293L 13 11.707L 13 13L 1 13L 1 9.71094L 1.51172 10.2031L 2.46094 9.21875L 1.74219 8.52734L 1 9.29688L 1 5.95703L 2.63672 7.59375L 2.375 7.86719L 3.09375 8.5625L 3.34375 8.30078L 7 11.957L 9.95703 9L 11 9L 11 7L 9 7L 9 8.54297L 7 10.543L 4.03906 7.58203L 4.04297 7.57812L 3.78125 7.32422L 1 4.54297L 1 1Z"/>
<path id="path1_fill" fill-rule="evenodd" d="M 0 0L 14 0L 14 14L 0 14L 0 0Z"/>
</defs>
</svg>
