<svg width="512" height="512" viewBox="0 0 512 512" version="1.1" xmlns="http://www.w3.org/2000/svg" xmlns:xlink="http://www.w3.org/1999/xlink">
<title>chart-pie</title>
<desc>Created using Figma</desc>
<g id="Canvas" transform="matrix(36.5714 0 0 36.5714 -2633.14 -877.714)">
<rect x="72" y="24" width="14" height="14" fill="#E5E5E5"/>
<g id="chart-pie">
<mask id="mask0_outline" mask-type="alpha">
<g id="Mask">
<use xlink:href="#path0_fill" transform="translate(72 24)" fill="#FFFFFF"/>
</g>
</mask>
<g id="Mask" mask="url(#mask0_outline)">
<use xlink:href="#path0_fill" transform="translate(72 24)"/>
</g>
<g id="&#226;&#134;&#170;&#240;&#159;&#142;&#168;Color" mask="url(#mask0_outline)">
<g id="Rectangle 3">
<use xlink:href="#path1_fill" transform="translate(72 24)" fill="#333333"/>
</g>
</g>
</g>
</g>
<defs>
<path id="path0_fill" fill-rule="evenodd" d="M 13.9961 6.83594C 14 6.89062 14 6.94531 14 7C 14 7.05469 14 7.10938 13.9961 7.16406C 13.957 8.97266 13.2344 10.668 11.9492 11.9492C 10.6289 13.2734 8.87109 14 7 14C 5.12891 14 3.37109 13.2734 2.05078 11.9492C 0.726562 10.6289 0 8.87109 0 7C 0 5.12891 0.726562 3.37109 2.05078 2.05078C 3.37109 0.726562 5.12891 0 7 0C 8.87109 0 10.6289 0.726562 11.9492 2.05078C 13.2344 3.33203 13.957 5.02734 13.9961 6.83594ZM 1 7C 1 10.3086 3.69141 13 7 13C 8.65234 13 10.1523 12.3281 11.2422 11.2422L 7 7L 11.2422 2.75781C 10.1523 1.67188 8.65234 1 7 1C 3.69141 1 1 3.69141 1 7Z"/>
<path id="path1_fill" fill-rule="evenodd" d="M 0 0L 14 0L 14 14L 0 14L 0 0Z"/>
</defs>
</svg>
