<svg width="512" height="512" viewBox="0 0 512 512" version="1.1" xmlns="http://www.w3.org/2000/svg" xmlns:xlink="http://www.w3.org/1999/xlink">
<title>checkbox</title>
<desc>Created using Figma</desc>
<g id="Canvas" transform="matrix(36.5714 0 0 36.5714 -8777.14 -877.714)">
<rect x="240" y="24" width="14" height="14" fill="#E5E5E5"/>
<g id="checkbox">
<mask id="mask0_outline" mask-type="alpha">
<g id="Mask">
<use xlink:href="#path0_fill" transform="translate(240 24)" fill="#FFFFFF"/>
</g>
</mask>
<g id="Mask" mask="url(#mask0_outline)">
<use xlink:href="#path0_fill" transform="translate(240 24)"/>
</g>
<g id="&#226;&#134;&#170;&#240;&#159;&#142;&#168;Color" mask="url(#mask0_outline)">
<g id="Rectangle 3">
<use xlink:href="#path1_fill" transform="translate(240 24)" fill="#333333"/>
</g>
</g>
</g>
</g>
<defs>
<path id="path0_fill" fill-rule="evenodd" d="M 14 0L 0 0L 0 14L 14 14L 14 0ZM 5.38461 10.7776L 2.74278 8.13582L 3.5042 7.3744L 5.38461 9.25481L 10.2812 4.35817L 11.0427 5.11959L 5.38461 10.7776ZM 12.9231 1.07692L 1.07692 1.07692L 1.07692 12.9231L 12.9231 12.9231L 12.9231 1.07692Z"/>
<path id="path1_fill" fill-rule="evenodd" d="M 0 0L 14 0L 14 14L 0 14L 0 0Z"/>
</defs>
</svg>
