<svg width="512" height="512" viewBox="0 0 512 512" version="1.1" xmlns="http://www.w3.org/2000/svg" xmlns:xlink="http://www.w3.org/1999/xlink">
<title>cloud-fill</title>
<desc>Created using Figma</desc>
<g id="Canvas" transform="matrix(36.5714 0 0 36.5714 -27209.1 -877.714)">
<rect x="744" y="24" width="14" height="14" fill="#E5E5E5"/>
<g id="cloud-fill">
<mask id="mask0_outline" mask-type="alpha">
<g id="Mask">
<use xlink:href="#path0_fill" transform="translate(744 27)" fill="#FFFFFF"/>
</g>
</mask>
<g id="Mask" mask="url(#mask0_outline)">
<use xlink:href="#path0_fill" transform="translate(744 27)"/>
</g>
<g id="&#226;&#134;&#170;&#240;&#159;&#142;&#168;Color" mask="url(#mask0_outline)">
<g id="Rectangle 3">
<use xlink:href="#path1_fill" transform="translate(744 24)" fill="#333333"/>
</g>
</g>
</g>
</g>
<defs>
<path id="path0_fill" d="M 14 6C 14 7.10547 13.1055 8 12 8L 3 8C 1.34375 8 0 6.65625 0 5C 0 3.34375 1.34375 2 3 2C 3.44141 2 3.85547 2.10156 4.23438 2.27344C 4.73047 0.945312 6 0 7.5 0C 9.43359 0 11 1.56641 11 3.5L 11 4L 12 4C 13.1055 4 14 4.89453 14 6Z"/>
<path id="path1_fill" fill-rule="evenodd" d="M 0 0L 14 0L 14 14L 0 14L 0 0Z"/>
</defs>
</svg>
