<svg width="512" height="512" viewBox="0 0 512 512" version="1.1" xmlns="http://www.w3.org/2000/svg" xmlns:xlink="http://www.w3.org/1999/xlink">
<title>comment-lines</title>
<desc>Created using Figma</desc>
<g id="Canvas" transform="matrix(36.5714 0 0 36.5714 -31597.7 -877.714)">
<rect x="864" y="24" width="14" height="14" fill="#E5E5E5"/>
<g id="comment-lines">
<mask id="mask0_outline" mask-type="alpha">
<g id="Mask">
<use xlink:href="#path0_fill" transform="translate(864 24)" fill="#FFFFFF"/>
</g>
</mask>
<g id="Mask" mask="url(#mask0_outline)">
<use xlink:href="#path0_fill" transform="translate(864 24)"/>
</g>
<g id="&#226;&#134;&#170;&#240;&#159;&#142;&#168;Color" mask="url(#mask0_outline)">
<g id="Rectangle 3">
<use xlink:href="#path1_fill" transform="translate(864 24)" fill="#333333"/>
</g>
</g>
</g>
</g>
<defs>
<path id="path0_fill" fill-rule="evenodd" d="M 2.15387 10.8738L 2.15387 14L 5.59076 10.8738L 14 10.8738L 14 0L 0 0L 0 10.8738L 2.15387 10.8738ZM 3.23077 9.78641L 1.0769 9.78641L 1.0769 1.08738L 12.923 1.08738L 12.923 9.78641L 5.17847 9.78641L 3.23077 11.5576L 3.23077 9.78641ZM 10.7692 3.26214L 3.23077 3.26214L 3.23077 4.34952L 10.7692 4.34952L 10.7692 3.26214ZM 3.23077 5.43689L 8.61542 5.43689L 8.61542 6.52427L 3.23077 6.52427L 3.23077 5.43689Z"/>
<path id="path1_fill" fill-rule="evenodd" d="M 0 0L 14 0L 14 14L 0 14L 0 0Z"/>
</defs>
</svg>
