<svg width="512" height="512" viewBox="0 0 512 512" version="1.1" xmlns="http://www.w3.org/2000/svg" xmlns:xlink="http://www.w3.org/1999/xlink">
<title>connected-fill</title>
<desc>Created using Figma</desc>
<g id="Canvas" transform="matrix(36.5714 0 0 36.5714 -28086.9 -4388.57)">
<rect x="768" y="120" width="14" height="14" fill="#E5E5E5"/>
<g id="connected-fill">
<mask id="mask0_outline" mask-type="alpha">
<g id="Mask">
<use xlink:href="#path0_fill" transform="translate(768 120)" fill="#FFFFFF"/>
</g>
</mask>
<g id="Mask" mask="url(#mask0_outline)">
<use xlink:href="#path0_fill" transform="translate(768 120)"/>
</g>
<g id="&#226;&#134;&#170;&#240;&#159;&#142;&#168;Color" mask="url(#mask0_outline)">
<g id="Rectangle 3">
<use xlink:href="#path1_fill" transform="translate(768 120)" fill="#333333"/>
</g>
</g>
</g>
</g>
<defs>
<path id="path0_fill" fill-rule="evenodd" d="M 13.2679 0L 14 0.731949L 11.7631 2.96822C 12.6247 4.17735 12.5236 5.86771 11.4354 6.95552L 9.60303 8.7874L 5.21008 4.39168L 7.04248 2.56384C 8.09424 1.51646 9.83362 1.41132 11.0309 2.23628L 13.2679 0ZM 2.23291 11.0318C 1.37128 9.82265 1.47644 8.12825 2.56055 7.04448L 4.39294 5.21259L 8.78589 9.60832L 6.95349 11.4362C 6.36694 12.0225 5.58624 12.346 4.75702 12.346C 4.10168 12.346 3.48279 12.1398 2.961 11.7678L 0.732178 14L 0 13.2681L 2.23291 11.0318Z"/>
<path id="path1_fill" fill-rule="evenodd" d="M 0 0L 14 0L 14 14L 0 14L 0 0Z"/>
</defs>
</svg>
