<svg width="512" height="512" viewBox="0 0 512 512" version="1.1" xmlns="http://www.w3.org/2000/svg" xmlns:xlink="http://www.w3.org/1999/xlink">
<title>ellipsis</title>
<desc>Created using Figma</desc>
<g id="Canvas" transform="matrix(36.5714 0 0 36.5714 -18432 -1755.43)">
<rect x="504" y="48" width="14" height="14" fill="#E5E5E5"/>
<g id="ellipsis">
<mask id="mask0_outline" mask-type="alpha">
<g id="Mask">
<use xlink:href="#path0_fill" transform="translate(504 53)" fill="#FFFFFF"/>
</g>
</mask>
<g id="Mask" mask="url(#mask0_outline)">
<use xlink:href="#path0_fill" transform="translate(504 53)"/>
</g>
<g id="&#226;&#134;&#170;&#240;&#159;&#142;&#168;Color" mask="url(#mask0_outline)">
<g id="Rectangle 3">
<use xlink:href="#path1_fill" transform="translate(504 48)" fill="#333333"/>
</g>
</g>
</g>
</g>
<defs>
<path id="path0_fill" fill-rule="evenodd" d="M 3.23077 1.61538C 3.23077 2.50721 2.5072 3.23077 1.61539 3.23077C 0.723572 3.23077 0 2.50721 0 1.61538C 0 0.723557 0.723572 0 1.61539 0C 2.5072 0 3.23077 0.723557 3.23077 1.61538ZM 7 0C 6.10818 0 5.38461 0.723557 5.38461 1.61538C 5.38461 2.50721 6.10818 3.23077 7 3.23077C 7.89182 3.23077 8.61536 2.50721 8.61536 1.61538C 8.61536 0.723557 7.89182 0 7 0ZM 10.7692 1.61538C 10.7692 0.723557 11.4928 0 12.3846 0C 13.2764 0 14 0.723557 14 1.61538C 14 2.50721 13.2764 3.23077 12.3846 3.23077C 11.4928 3.23077 10.7692 2.50721 10.7692 1.61538Z"/>
<path id="path1_fill" fill-rule="evenodd" d="M 0 0L 14 0L 14 14L 0 14L 0 0Z"/>
</defs>
</svg>
