<svg width="512" height="512" viewBox="0 0 512 512" version="1.1" xmlns="http://www.w3.org/2000/svg" xmlns:xlink="http://www.w3.org/1999/xlink">
<title>feed</title>
<desc>Created using Figma</desc>
<g id="Canvas" transform="matrix(36.5714 0 0 36.5714 -27209.1 -1755.43)">
<rect x="744" y="48" width="14" height="14" fill="#E5E5E5"/>
<g id="feed">
<mask id="mask0_outline" mask-type="alpha">
<g id="Mask">
<use xlink:href="#path0_fill" transform="translate(744 48)" fill="#FFFFFF"/>
</g>
</mask>
<g id="Mask" mask="url(#mask0_outline)">
<use xlink:href="#path0_fill" transform="translate(744 48)"/>
</g>
<g id="&#226;&#134;&#170;&#240;&#159;&#142;&#168;Color" mask="url(#mask0_outline)">
<g id="Rectangle 3">
<use xlink:href="#path1_fill" transform="translate(744 48)" fill="#333333"/>
</g>
</g>
</g>
</g>
<defs>
<path id="path0_fill" fill-rule="evenodd" d="M 0 0C 3.74176 0 7.25903 1.45641 9.90131 4.09869C 12.5436 6.74096 14 10.2582 14 14L 12.5263 14C 12.5263 7.09211 6.9079 1.47368 0 1.47368L 0 0ZM 6.77551 7.22451C 4.96796 5.41694 2.56171 4.42105 0 4.42105L 0 5.89473C 4.4671 5.89473 8.10529 9.53289 8.10529 14L 9.57892 14C 9.57892 11.4383 8.58307 9.03207 6.77551 7.22451ZM 4.42108 11.7895C 4.42108 13.0099 3.43091 14 2.21051 14C 0.990112 14 0 13.0099 0 11.7895C 0 10.5691 0.990112 9.57895 2.21051 9.57895C 3.43091 9.57895 4.42108 10.5691 4.42108 11.7895Z"/>
<path id="path1_fill" fill-rule="evenodd" d="M 0 0L 14 0L 14 14L 0 14L 0 0Z"/>
</defs>
</svg>
