<svg width="512" height="512" viewBox="0 0 512 512" version="1.1" xmlns="http://www.w3.org/2000/svg" xmlns:xlink="http://www.w3.org/1999/xlink">
<title>file-type-fsproj</title>
<desc>Created using Figma</desc>
<g id="Canvas" transform="matrix(36.5714 0 0 36.5714 -2633.14 -2633.14)">
<rect x="72" y="72" width="14" height="14" fill="#E5E5E5"/>
<g id="file-type-fsproj">
<mask id="mask0_outline" mask-type="alpha">
<g id="Mask">
<use xlink:href="#path0_fill" transform="translate(72 74)" fill="#FFFFFF"/>
</g>
</mask>
<g id="Mask" mask="url(#mask0_outline)">
<use xlink:href="#path0_fill" transform="translate(72 74)"/>
</g>
<g id="&#226;&#134;&#170;&#240;&#159;&#142;&#168;Color" mask="url(#mask0_outline)">
<g id="Rectangle 3">
<use xlink:href="#path1_fill" transform="translate(72 72)" fill="#333333"/>
</g>
</g>
</g>
</g>
<defs>
<path id="path0_fill" fill-rule="evenodd" d="M 0 11L 0 0L 14 0L 14 11L 0 11ZM 6.32422 3.57031L 3.97656 3.57031L 3.97656 5.20312L 6.13281 5.20312L 6.13281 6.41406L 3.97656 6.41406L 3.97656 9L 2.47656 9L 2.47656 2.34766L 6.32422 2.34766L 6.32422 3.57031ZM 12.1133 4.04297L 11.9336 4.875L 11.0742 4.875L 10.8203 6.02734L 11.7773 6.02734L 11.5703 6.86328L 10.6484 6.86328L 10.2852 8.46875L 9.35547 8.46875L 9.69531 6.86328L 8.63281 6.86328L 8.28906 8.46875L 7.36328 8.46875L 7.69141 6.86328L 6.82812 6.86328L 7 6.02734L 7.87109 6.02734L 8.11719 4.875L 7.17969 4.875L 7.33984 4.04297L 8.28906 4.04297L 8.63281 2.39062L 9.58203 2.39062L 9.24219 4.04297L 10.3047 4.04297L 10.6562 2.39062L 11.5977 2.39062L 11.2539 4.04297L 12.1133 4.04297ZM 9.05859 4.875L 10.1367 4.875L 9.875 6.02734L 8.80469 6.02734L 9.05859 4.875ZM 13 10L 1 10L 1 1L 13 1L 13 10Z"/>
<path id="path1_fill" fill-rule="evenodd" d="M 0 0L 14 0L 14 14L 0 14L 0 0Z"/>
</defs>
</svg>
