<svg width="512" height="512" viewBox="0 0 512 512" version="1.1" xmlns="http://www.w3.org/2000/svg" xmlns:xlink="http://www.w3.org/1999/xlink">
<title>file-type-md</title>
<desc>Created using Figma</desc>
<g id="Canvas" transform="matrix(36.5714 0 0 36.5714 -8777.14 -2633.14)">
<rect x="240" y="72" width="14" height="14" fill="#E5E5E5"/>
<g id="file-type-md">
<mask id="mask0_outline" mask-type="alpha">
<g id="Mask">
<use xlink:href="#path0_fill" transform="translate(240 76)" fill="#FFFFFF"/>
</g>
</mask>
<g id="Mask" mask="url(#mask0_outline)">
<use xlink:href="#path0_fill" transform="translate(240 76)"/>
</g>
<g id="&#226;&#134;&#170;&#240;&#159;&#142;&#168;Color" mask="url(#mask0_outline)">
<g id="Rectangle 3">
<use xlink:href="#path1_fill" transform="translate(240 72)" fill="#333333"/>
</g>
</g>
</g>
</g>
<defs>
<path id="path0_fill" fill-rule="evenodd" d="M 5.50391 6L 6.83594 6L 6.83594 0L 4.90625 0L 3.68359 3.54688C 3.59766 3.79297 3.51953 4.08203 3.44531 4.41406L 3.41797 4.41406C 3.375 4.125 3.30078 3.83984 3.20312 3.55469L 1.98047 0L 0 0L 0 6L 1.21875 6L 1.21875 2.68359C 1.21875 2.23438 1.19922 1.71484 1.16406 1.125L 1.19922 1.125C 1.28906 1.57422 1.35156 1.85547 1.39062 1.96094L 2.82031 6L 3.92578 6L 5.33203 1.92188C 5.38672 1.75781 5.44922 1.49219 5.51953 1.125L 5.55078 1.125C 5.51953 1.59375 5.50391 2.02344 5.50391 2.41016L 5.50391 6ZM 11 6L 14 3L 12 3L 12 0L 10 0L 10 3L 8 3L 11 6Z"/>
<path id="path1_fill" fill-rule="evenodd" d="M 0 0L 14 0L 14 14L 0 14L 0 0Z"/>
</defs>
</svg>
