<svg width="512" height="512" viewBox="0 0 512 512" version="1.1" xmlns="http://www.w3.org/2000/svg" xmlns:xlink="http://www.w3.org/1999/xlink">
<title>file-type-json</title>
<desc>Created using Figma</desc>
<g id="Canvas" transform="matrix(36.5714 0 0 36.5714 -6144 -2633.14)">
<rect x="168" y="72" width="14" height="14" fill="#E5E5E5"/>
<g id="file-type-json">
<mask id="mask0_outline" mask-type="alpha">
<g id="Mask">
<use xlink:href="#path0_fill" transform="translate(168 72)" fill="#FFFFFF"/>
</g>
</mask>
<g id="Mask" mask="url(#mask0_outline)">
<use xlink:href="#path0_fill" transform="translate(168 72)"/>
</g>
<g id="&#226;&#134;&#170;&#240;&#159;&#142;&#168;Color" mask="url(#mask0_outline)">
<g id="Rectangle 3">
<use xlink:href="#path1_fill" transform="translate(168 72)" fill="#333333"/>
</g>
</g>
</g>
</g>
<defs>
<path id="path0_fill" fill-rule="evenodd" d="M 1.16418 11.5818C 1.16418 13.1727 2.04974 13.9788 3.82089 14L 3.82089 12.775C 3.38309 12.7644 3.07463 12.6371 2.9005 12.3985C 2.72139 12.1545 2.63681 11.7515 2.63681 11.1841L 2.63681 8.96742C 2.63681 7.89091 2.1393 7.23333 1.14926 7L 1.14926 6.97879C 2.1393 6.72955 2.63681 6.06667 2.63681 4.99545L 2.63681 2.75227C 2.63681 1.7606 3.02985 1.25682 3.82089 1.2356L 3.82089 0C 2.04974 0.0212097 1.16418 0.837883 1.16418 2.45L 1.16418 4.7356C 1.16418 5.80682 0.776123 6.36894 0 6.42197L 0 7.58334C 0.776123 7.63636 1.16418 8.18788 1.16418 9.23788L 1.16418 11.5818ZM 12.8408 9.23788C 12.8408 8.18788 13.2289 7.63636 14 7.58334L 14 6.42197C 13.2289 6.36364 12.8408 5.80682 12.8408 4.7356L 12.8408 2.45C 12.8408 0.837883 11.9602 0.0212097 10.199 0L 10.199 1.2356C 10.995 1.25682 11.393 1.7606 11.393 2.75227L 11.393 4.99545C 11.393 6.06667 11.8856 6.72955 12.8657 6.97349L 12.8657 7C 11.8856 7.23333 11.393 7.89091 11.393 8.96742L 11.393 11.1841C 11.393 11.7462 11.3035 12.1492 11.1194 12.3932C 10.9403 12.6371 10.6318 12.7644 10.199 12.775L 10.199 14C 11.9602 13.9788 12.8408 13.1727 12.8408 11.5818L 12.8408 9.23788Z"/>
<path id="path1_fill" fill-rule="evenodd" d="M 0 0L 14 0L 14 14L 0 14L 0 0Z"/>
</defs>
</svg>
