<svg width="512" height="586" viewBox="0 0 512 586" version="1.1" xmlns="http://www.w3.org/2000/svg" xmlns:xlink="http://www.w3.org/1999/xlink">
<title>file-type-settings</title>
<desc>Created using Figma</desc>
<g id="Canvas" transform="matrix(36.5714 0 0 36.5714 -14043.4 -2596.57)">
<rect x="384" y="71" width="14" height="16" fill="#E5E5E5"/>
<g id="file-type-settings">
<mask id="mask0_outline" mask-type="alpha">
<g id="Mask">
<use xlink:href="#path0_fill" transform="translate(384 71)" fill="#FFFFFF"/>
</g>
</mask>
<g id="Mask" mask="url(#mask0_outline)">
<use xlink:href="#path0_fill" transform="translate(384 71)"/>
</g>
<g id="&#226;&#134;&#170;&#240;&#159;&#142;&#168;Color" mask="url(#mask0_outline)">
<g id="Rectangle 3">
<use xlink:href="#path1_fill" transform="translate(384 72)" fill="#333333"/>
</g>
</g>
</g>
</g>
<defs>
<path id="path0_fill" fill-rule="evenodd" d="M 9.91525 0L 2.15384 0L 2.15384 5.71429L 3.23077 5.71429L 3.23077 1.14286L 8.61539 1.14286L 8.61539 5.71429L 12.9231 5.71429L 12.9231 14.8571L 8.6911 14.8571L 8.61539 14.9375L 8.61539 16L 14 16L 14 4.33482L 9.91525 0ZM 7.28751 12.5008C 7.27097 12.5717 7.25458 12.6419 7.22717 12.7098C 7.20444 12.7688 7.17563 12.8213 7.14716 12.8732L 7.14703 12.8734L 7.14679 12.8738L 7.14621 12.8749L 7.1452 12.8767C 7.12692 12.9101 7.10876 12.9432 7.09256 12.9777L 7.86237 14.1205L 6.84436 15.2009L 5.76743 14.3839C 5.59915 14.4777 5.4267 14.5536 5.24158 14.6161L 5.02704 16L 3.58835 16L 3.37381 14.6116C 3.34894 14.6044 3.32404 14.5978 3.29926 14.5913L 3.29825 14.5911L 3.29727 14.5908C 3.2305 14.5733 3.16434 14.5559 3.10037 14.5268C 3.04456 14.5025 2.99484 14.4718 2.94574 14.4415C 2.91342 14.4215 2.88135 14.4016 2.84796 14.3839L 1.77103 15.2009L 0.752991 14.1205L 1.52283 12.9777C 1.43451 12.7991 1.36298 12.6161 1.30408 12.4196L 0 12.192L 0 10.6652L 1.30829 10.4375C 1.315 10.4114 1.32114 10.3852 1.32721 10.3592L 1.32788 10.3563C 1.34442 10.2855 1.36081 10.2152 1.38821 10.1473C 1.41104 10.0881 1.43997 10.0354 1.4686 9.9833L 1.46899 9.98256C 1.4877 9.94849 1.50626 9.91467 1.52283 9.87946L 0.752991 8.7366L 1.77103 7.65625L 2.84796 8.47321C 3.01624 8.37946 3.18869 8.30357 3.37381 8.24107L 3.58835 6.85714L 5.02704 6.85714L 5.24158 8.24553C 5.26712 8.25292 5.29263 8.25963 5.31808 8.26632C 5.38489 8.28387 5.45105 8.30126 5.51501 8.33035C 5.57086 8.35459 5.62054 8.38532 5.66968 8.4157L 5.67023 8.41605L 5.67053 8.41624C 5.70258 8.43604 5.73434 8.45565 5.76743 8.47321L 6.84436 7.65625L 7.86237 8.7366L 7.09256 9.87946C 7.18088 10.058 7.25241 10.2411 7.31131 10.4375L 8.61539 10.6652L 8.61539 12.192L 7.3071 12.4196C 7.30035 12.4458 7.29422 12.4721 7.28812 12.4982L 7.28751 12.5008ZM 4.00482 13.3616C 5.01022 13.5402 5.96094 12.817 6.12921 11.75C 6.29749 10.683 5.616 9.6741 4.6106 9.49554C 3.60516 9.31696 2.65445 10.0402 2.48618 11.1071C 2.31793 12.1741 2.99942 13.183 4.00482 13.3616ZM 9.69232 1.37946L 9.69232 4.57143L 12.7001 4.57143L 9.69232 1.37946Z"/>
<path id="path1_fill" fill-rule="evenodd" d="M 0 0L 14 0L 14 14L 0 14L 0 0Z"/>
</defs>
</svg>
