<svg width="512" height="512" viewBox="0 0 512 512" version="1.1" xmlns="http://www.w3.org/2000/svg" xmlns:xlink="http://www.w3.org/1999/xlink">
<title>file-type-cpp</title>
<desc>Created using Figma</desc>
<g id="Canvas" transform="matrix(36.5714 0 0 36.5714 -42130.3 -1755.43)">
<rect x="1152" y="48" width="14" height="14" fill="#E5E5E5"/>
<g id="file-type-cpp">
<mask id="mask0_outline" mask-type="alpha">
<g id="Mask">
<use xlink:href="#path0_fill" transform="translate(1152 50)" fill="#FFFFFF"/>
</g>
</mask>
<g id="Mask" mask="url(#mask0_outline)">
<use xlink:href="#path0_fill" transform="translate(1152 50)"/>
</g>
<g id="&#226;&#134;&#170;&#240;&#159;&#142;&#168;Color" mask="url(#mask0_outline)">
<g id="Rectangle 3">
<use xlink:href="#path1_fill" transform="translate(1152 48)" fill="#333333"/>
</g>
</g>
</g>
</g>
<defs>
<path id="path0_fill" fill-rule="evenodd" d="M 4.66663 2.5L 7 2.5L 7 5L 4.66663 5L 4.66663 7.5L 2.33337 7.5L 2.33337 5L 0 5L 0 2.5L 2.33337 2.5L 2.33337 0L 4.66663 0L 4.66663 2.5ZM 7 5L 7 7.5L 9.33337 7.5L 9.33337 10L 11.6666 10L 11.6666 7.5L 14 7.5L 14 5L 11.6666 5L 11.6666 2.5L 9.33337 2.5L 9.33337 5L 7 5Z"/>
<path id="path1_fill" fill-rule="evenodd" d="M 0 0L 14 0L 14 14L 0 14L 0 0Z"/>
</defs>
</svg>
