<svg width="512" height="512" viewBox="0 0 512 512" version="1.1" xmlns="http://www.w3.org/2000/svg" xmlns:xlink="http://www.w3.org/1999/xlink">
<title>format-indent-decrease</title>
<desc>Created using Figma</desc>
<g id="Canvas" transform="matrix(36.5714 0 0 36.5714 -31597.7 -2633.14)">
<rect x="864" y="72" width="14" height="14" fill="#E5E5E5"/>
<g id="format-indent-decrease">
<mask id="mask0_outline" mask-type="alpha">
<g id="Mask">
<use xlink:href="#path0_fill" transform="translate(864 73)" fill="#FFFFFF"/>
</g>
</mask>
<g id="Mask" mask="url(#mask0_outline)">
<use xlink:href="#path0_fill" transform="translate(864 73)"/>
</g>
<g id="&#226;&#134;&#170;&#240;&#159;&#142;&#168;Color" mask="url(#mask0_outline)">
<g id="Rectangle 3">
<use xlink:href="#path1_fill" transform="translate(864 72)" fill="#333333"/>
</g>
</g>
</g>
</g>
<defs>
<path id="path0_fill" fill-rule="evenodd" d="M 14 0L 14 1L 6 1L 6 0L 14 0ZM 6 13L 14 13L 14 12L 6 12L 6 13ZM 5 5L 2 5L 2 4L 5 4L 5 5ZM 0 9L 5 9L 5 8L 0 8L 0 9ZM 9.89453 3.64453L 10.6055 4.35547L 8.95703 6L 14 6L 14 7L 8.95703 7L 10.6055 8.64453L 9.89453 9.35547L 7.04297 6.5L 9.89453 3.64453Z"/>
<path id="path1_fill" fill-rule="evenodd" d="M 0 0L 14 0L 14 14L 0 14L 0 0Z"/>
</defs>
</svg>
