<svg width="512" height="512" viewBox="0 0 512 512" version="1.1" xmlns="http://www.w3.org/2000/svg" xmlns:xlink="http://www.w3.org/1999/xlink">
<title>git-graph</title>
<desc>Created using Figma</desc>
<g id="Canvas" transform="matrix(36.5714 0 0 36.5714 -39497.1 -2633.14)">
<rect x="1080" y="72" width="14" height="14" fill="#E5E5E5"/>
<g id="git-graph">
<mask id="mask0_outline" mask-type="alpha">
<g id="Mask">
<use xlink:href="#path0_fill" transform="translate(1080 72)" fill="#FFFFFF"/>
</g>
</mask>
<g id="Mask" mask="url(#mask0_outline)">
<use xlink:href="#path0_fill" transform="translate(1080 72)"/>
</g>
<g id="&#226;&#134;&#170;&#240;&#159;&#142;&#168;Color" mask="url(#mask0_outline)">
<g id="Rectangle 3">
<use xlink:href="#path1_fill" transform="translate(1080 72)" fill="#333333"/>
</g>
</g>
</g>
</g>
<defs>
<path id="path0_fill" fill-rule="evenodd" d="M 9.92188 7.57422C 10.3516 7.22266 10.8984 7 11.5 7C 12.8789 7 14 8.12109 14 9.5C 14 10.8789 12.8789 12 11.5 12C 10.1211 12 9 10.8789 9 9.5C 9 9.08594 9.10938 8.69922 9.28906 8.35156L 4.44141 4.05859C 4.08203 4.50391 3.58203 4.83203 3 4.94922L 3 9.05078C 4.14062 9.28125 5 10.2891 5 11.5C 5 12.8789 3.87891 14 2.5 14C 1.12109 14 0 12.8789 0 11.5C 0 10.2891 0.859375 9.28125 2 9.05078L 2 4.94922C 0.859375 4.71875 0 3.71094 0 2.5C 0 1.12109 1.12109 0 2.5 0C 3.87891 0 5 1.12109 5 2.5C 5 2.72266 4.96094 2.93359 4.90625 3.13672L 9.92188 7.57422ZM 10 9.5C 10 10.3281 10.6719 11 11.5 11C 12.3281 11 13 10.3281 13 9.5C 13 8.67188 12.3281 8 11.5 8C 10.6719 8 10 8.67188 10 9.5Z"/>
<path id="path1_fill" fill-rule="evenodd" d="M 0 0L 14 0L 14 14L 0 14L 0 0Z"/>
</defs>
</svg>
