<svg width="512" height="512" viewBox="0 0 512 512" version="1.1" xmlns="http://www.w3.org/2000/svg" xmlns:xlink="http://www.w3.org/1999/xlink">
<title>globe</title>
<desc>Created using Figma</desc>
<g id="Canvas" transform="matrix(36.5714 0 0 36.5714 -40374.9 -2633.14)">
<rect x="1104" y="72" width="14" height="14" fill="#E5E5E5"/>
<g id="globe">
<mask id="mask0_outline" mask-type="alpha">
<g id="Mask">
<use xlink:href="#path0_fill" transform="translate(1104 72)" fill="#FFFFFF"/>
</g>
</mask>
<g id="Mask" mask="url(#mask0_outline)">
<use xlink:href="#path0_fill" transform="translate(1104 72)"/>
</g>
<g id="&#226;&#134;&#170;&#240;&#159;&#142;&#168;Color" mask="url(#mask0_outline)">
<g id="Rectangle 3">
<use xlink:href="#path1_fill" transform="translate(1104 72)" fill="#333333"/>
</g>
</g>
</g>
</g>
<defs>
<path id="path0_fill" fill-rule="evenodd" d="M 0 7C 0 3.14238 3.14233 0 7 0C 10.8616 0 14 3.13847 14 7C 14 10.8615 10.8577 14 7 14C 3.14233 14 0 10.8576 0 7ZM 4.81909 10.0017C 5.2959 11.8582 6.1792 13.0073 7 13.0073C 7.8208 13.0073 8.7041 11.8582 9.18091 10.0017L 4.81909 10.0017ZM 4.61584 9.00112C 4.51807 8.38359 4.45947 7.71525 4.45947 7C 4.45947 6.28476 4.51807 5.61642 4.61584 4.99889L 9.38416 4.99889C 9.48181 5.61642 9.54041 6.28476 9.54041 7C 9.54041 7.71525 9.48181 8.38359 9.38416 9.00112L 4.61584 9.00112ZM 9.18091 3.99833C 8.7041 2.14182 7.8208 0.992744 7 0.992744C 6.1792 0.992744 5.2959 2.14182 4.81909 3.99833L 9.18091 3.99833ZM 10.3885 4.99889L 12.6593 4.99889C 12.8821 5.62424 13.0072 6.29649 13.0072 7C 13.0072 7.70352 12.8821 8.37577 12.6593 9.00112L 10.3885 9.00112C 10.4784 8.36796 10.5293 7.69962 10.5293 7C 10.5293 6.30039 10.4784 5.63205 10.3885 4.99889ZM 10.1971 3.99832L 12.1982 3.99832C 11.5065 2.81016 10.4277 1.88386 9.12622 1.38749C 9.5835 2.06364 9.95093 2.95868 10.1971 3.99832ZM 4.87378 1.38749C 4.4165 2.06364 4.04907 2.95868 3.80286 3.99832L 1.80176 3.99832C 2.49353 2.81016 3.57617 1.88386 4.87378 1.38749ZM 3.61145 4.99889L 1.3407 4.99889C 1.11792 5.62424 0.992798 6.29649 0.992798 7C 0.992798 7.70352 1.11792 8.37577 1.3407 9.00112L 3.61145 9.00112C 3.52161 8.36796 3.4707 7.69962 3.4707 7C 3.4707 6.30039 3.52161 5.63205 3.61145 4.99889ZM 1.80176 10.0017L 3.80286 10.0017C 4.04907 11.0413 4.4165 11.9364 4.87378 12.6125C 3.57227 12.1161 2.49353 11.1898 1.80176 10.0017ZM 10.1971 10.0017C 9.95093 11.0413 9.5835 11.9364 9.12622 12.6125C 10.4277 12.12 11.5065 11.1898 12.1982 10.0017L 10.1971 10.0017Z"/>
<path id="path1_fill" fill-rule="evenodd" d="M 0 0L 14 0L 14 14L 0 14L 0 0Z"/>
</defs>
</svg>
