<svg width="512" height="512" viewBox="0 0 512 512" version="1.1" xmlns="http://www.w3.org/2000/svg" xmlns:xlink="http://www.w3.org/1999/xlink">
<title>link</title>
<desc>Created using Figma</desc>
<g id="Canvas" transform="matrix(36.5714 0 0 36.5714 -6144 -3510.86)">
<rect x="168" y="96" width="14" height="14" fill="#E5E5E5"/>
<g id="link">
<mask id="mask0_outline" mask-type="alpha">
<g id="Mask">
<use xlink:href="#path0_fill" transform="translate(168 96)" fill="#FFFFFF"/>
</g>
</mask>
<g id="Mask" mask="url(#mask0_outline)">
<use xlink:href="#path0_fill" transform="translate(168 96)"/>
</g>
<g id="&#226;&#134;&#170;&#240;&#159;&#142;&#168;Color" mask="url(#mask0_outline)">
<g id="Rectangle 3">
<use xlink:href="#path1_fill" transform="translate(168 96)" fill="#333333"/>
</g>
</g>
</g>
</g>
<defs>
<path id="path0_fill" fill-rule="evenodd" d="M 5.88284 8.11716C 6.14064 8.37106 6.44923 8.57027 6.78515 8.70308L 5.99222 9.49213C 5.67972 9.32417 5.39457 9.10932 5.14067 8.85933C 3.91023 7.62889 3.73445 5.80081 4.75396 4.78521L 8.87495 0.660316C 9.89055 -0.355286 11.7186 -0.179512 12.9491 1.05093C 14.1795 2.28136 14.3553 4.10944 13.3397 5.12505L 11.285 7.17577C 11.289 6.73829 11.2265 6.3008 11.0936 5.88284L 12.5936 4.38287C 13.1991 3.77352 13.0272 2.61339 12.2069 1.7931C 11.3866 0.972808 10.2265 0.800933 9.61712 1.40639L 5.49614 5.52738C 4.89067 6.13283 5.06254 7.29687 5.88284 8.11716ZM 8.85933 5.14067C 8.60542 4.89068 8.32028 4.67583 8.00387 4.50787L 7.21484 5.29692C 7.55076 5.42973 7.85936 5.62894 8.11716 5.88284C 8.93745 6.70313 9.10933 7.86716 8.50387 8.47262L 4.38287 12.5936C 3.77351 13.1991 2.61339 13.0272 1.79309 12.2069C 0.972807 11.3866 0.800932 10.2265 1.40639 9.61713L 2.90635 8.11716C 2.77354 7.6992 2.71104 7.26171 2.71495 6.82423L 0.660307 8.87495C -0.355288 9.89056 -0.179507 11.7186 1.05093 12.9491C 2.28137 14.1795 4.10945 14.3553 5.12504 13.3397L 9.24603 9.21479C 10.2616 8.19919 10.0898 6.37111 8.85933 5.14067Z"/>
<path id="path1_fill" fill-rule="evenodd" d="M 0 0L 14 0L 14 14L 0 14L 0 0Z"/>
</defs>
</svg>
