<svg width="512" height="512" viewBox="0 0 512 512" version="1.1" xmlns="http://www.w3.org/2000/svg" xmlns:xlink="http://www.w3.org/1999/xlink">
<title>map-pin</title>
<desc>Created using Figma</desc>
<g id="Canvas" transform="matrix(36.5714 0 0 36.5714 -17554.3 -3510.86)">
<rect x="480" y="96" width="14" height="14" fill="#E5E5E5"/>
<g id="map-pin">
<mask id="mask0_outline" mask-type="alpha">
<g id="Mask">
<use xlink:href="#path0_fill" transform="translate(483 96)" fill="#FFFFFF"/>
</g>
</mask>
<g id="Mask" mask="url(#mask0_outline)">
<use xlink:href="#path0_fill" transform="translate(483 96)"/>
</g>
<g id="&#226;&#134;&#170;&#240;&#159;&#142;&#168;Color" mask="url(#mask0_outline)">
<g id="Rectangle 3">
<use xlink:href="#path1_fill" transform="translate(480 96)" fill="#333333"/>
</g>
</g>
</g>
</g>
<defs>
<path id="path0_fill" fill-rule="evenodd" d="M 0 4.51638C 0 2.02689 2.01953 0 4.5 0C 6.98047 0 9 2.02689 9 4.51638C 9 5.26519 8.8125 6.00616 8.46094 6.66088L 4.5 14L 0.550781 6.68048C 0.191406 6.02184 0 5.27303 0 4.51638ZM 4.5 11.8947L 7.58203 6.18258C 7.85547 5.67684 8 5.10053 8 4.51638C 8 2.57967 6.42969 1.00364 4.5 1.00364C 2.57031 1.00364 1 2.57967 1 4.51638C 1 5.10445 1.14844 5.6886 1.42578 6.19827L 4.5 11.8947ZM 4.5 2.00728C 3.12109 2.00728 2 3.13245 2 4.51638C 2 5.90031 3.12109 7.02548 4.5 7.02548C 5.87891 7.02548 7 5.90031 7 4.51638C 7 3.13245 5.87891 2.00728 4.5 2.00728ZM 3 4.51638C 3 5.34752 3.67188 6.02184 4.5 6.02184C 5.32812 6.02184 6 5.34752 6 4.51638C 6 3.68524 5.32812 3.01092 4.5 3.01092C 3.67188 3.01092 3 3.68524 3 4.51638Z"/>
<path id="path1_fill" fill-rule="evenodd" d="M 0 0L 14 0L 14 14L 0 14L 0 0Z"/>
</defs>
</svg>
