<svg width="512" height="512" viewBox="0 0 512 512" version="1.1" xmlns="http://www.w3.org/2000/svg" xmlns:xlink="http://www.w3.org/1999/xlink">
<title>navigate-refresh</title>
<desc>Created using Figma</desc>
<g id="Canvas" transform="matrix(36.5714 0 0 36.5714 -877.714 -4388.57)">
<rect x="24" y="120" width="14" height="14" fill="#E5E5E5"/>
<g id="navigate-refresh">
<mask id="mask0_outline" mask-type="alpha">
<g id="Mask">
<use xlink:href="#path0_fill" transform="translate(24 120)" fill="#FFFFFF"/>
</g>
</mask>
<g id="Mask" mask="url(#mask0_outline)">
<use xlink:href="#path0_fill" transform="translate(24 120)"/>
</g>
<g id="&#226;&#134;&#170;&#240;&#159;&#142;&#168;Color" mask="url(#mask0_outline)">
<g id="Rectangle 3">
<use xlink:href="#path1_fill" transform="translate(24 120)" fill="#333333"/>
</g>
</g>
</g>
</g>
<defs>
<path id="path0_fill" d="M 14 7.12727C 14 8.96477 13.2708 10.6909 11.9502 11.9875C 10.6296 13.2841 8.87153 14 7 14C 5.12847 14 3.37037 13.2841 2.04977 11.9875C 0.729167 10.6909 0 8.96477 0 7.12727C 0 5.61193 0.494213 4.17216 1.42593 2.96704C 2.05787 2.15568 2.87211 1.4875 3.79572 1.01818L 0.518519 1.01818L 0.518519 0L 5.7037 0L 5.7037 5.09091L 4.66667 5.09091L 4.66667 1.73807C 2.49942 2.64489 1.03704 4.77273 1.03704 7.12727C 1.03704 10.3568 3.71065 12.9818 7 12.9818C 10.2894 12.9818 12.963 10.3568 12.963 7.12727C 12.963 5.26989 12.092 3.55966 10.577 2.44205L 11.2008 1.63068C 12.0515 2.25511 12.7564 3.07841 13.2384 4.00511C 13.7448 4.97955 14 6.02955 14 7.12727Z"/>
<path id="path1_fill" fill-rule="evenodd" d="M 0 0L 14 0L 14 14L 0 14L 0 0Z"/>
</defs>
</svg>
