<svg width="512" height="512" viewBox="0 0 512 512" version="1.1" xmlns="http://www.w3.org/2000/svg" xmlns:xlink="http://www.w3.org/1999/xlink">
<title>navigate-external</title>
<desc>Created using Figma</desc>
<g id="Canvas" transform="matrix(36.5714 0 0 36.5714 -41252.6 -3510.86)">
<rect x="1128" y="96" width="14" height="14" fill="#E5E5E5"/>
<g id="navigate-external">
<mask id="mask0_outline" mask-type="alpha">
<g id="Mask">
<use xlink:href="#path0_fill" transform="translate(1128 96)" fill="#FFFFFF"/>
</g>
</mask>
<g id="Mask" mask="url(#mask0_outline)">
<use xlink:href="#path0_fill" transform="translate(1128 96)"/>
</g>
<g id="&#226;&#134;&#170;&#240;&#159;&#142;&#168;Color" mask="url(#mask0_outline)">
<g id="Rectangle 3">
<use xlink:href="#path1_fill" transform="translate(1128 96)" fill="#333333"/>
</g>
</g>
</g>
</g>
<defs>
<path id="path0_fill" fill-rule="evenodd" d="M 0 0L 0 14L 14 14L 14 10.5L 12.25 10.5L 12.25 12.25L 1.75 12.25L 1.75 1.75L 3.5 1.75L 3.5 0L 0 0ZM 7 1.75L 7 0L 14 0L 14 7L 12.25 7L 12.25 2.9873L 7.62207 7.62207L 6.37793 6.37793L 11.0127 1.75L 7 1.75Z"/>
<path id="path1_fill" fill-rule="evenodd" d="M 0 0L 14 0L 14 14L 0 14L 0 0Z"/>
</defs>
</svg>
