<svg width="512" height="549" viewBox="0 0 512 549" version="1.1" xmlns="http://www.w3.org/2000/svg" xmlns:xlink="http://www.w3.org/1999/xlink">
<title>package</title>
<desc>Created using Figma</desc>
<g id="Canvas" transform="matrix(36.5714 0 0 36.5714 -7899.43 -4388.57)">
<rect x="216" y="120" width="14" height="15" fill="#E5E5E5"/>
<g id="package">
<mask id="mask0_outline" mask-type="alpha">
<g id="Mask">
<use xlink:href="#path0_fill" transform="translate(216 120)" fill="#FFFFFF"/>
</g>
</mask>
<g id="Mask" mask="url(#mask0_outline)">
<use xlink:href="#path0_fill" transform="translate(216 120)"/>
</g>
<g id="&#226;&#134;&#170;&#240;&#159;&#142;&#168;Color" mask="url(#mask0_outline)">
<g id="Rectangle 3">
<use xlink:href="#path1_fill" transform="translate(216 120)" fill="#333333"/>
</g>
</g>
</g>
</g>
<defs>
<path id="path0_fill" fill-rule="evenodd" d="M 10.9249 3.01977C 11.619 1.94768 11.2151 1.0968 10.9501 0.730932C 10.6809 0.35655 10.2266 0.101286 9.70071 0.0247097C 9.11598 -0.0561237 8.51863 0.0927792 8.07272 0.441633C 7.67728 0.752203 7.29446 1.45843 7 2.11359C 6.70554 1.45843 6.32272 0.752203 5.92728 0.441633C 5.46454 0.0842724 4.82933 -0.0688877 4.22356 0.0289669C 3.71034 0.11405 3.27704 0.377821 3.03305 0.752203C 2.84375 1.04575 2.41887 1.93065 3.09195 3.01977L 0 3.01977L 0 15L 14 15L 14 3.01977L 10.9249 3.01977ZM 8.73317 1.30527C 8.95192 1.13509 9.24219 1.06277 9.54929 1.10531C 9.78065 1.13509 9.98679 1.24145 10.0793 1.36908C 10.4117 1.8328 10.2182 2.38587 9.50722 3.01977L 7.78246 3.01977C 8.10217 2.24122 8.48918 1.49671 8.73317 1.30527ZM 4.40024 1.10106C 4.1899 1.13935 4.01321 1.23294 3.9375 1.35206C 3.54626 1.94768 3.99219 2.56881 4.49699 3.01977L 6.21754 3.01977C 5.89783 2.24122 5.51082 1.49671 5.26682 1.30527C 5.03966 1.12659 4.71994 1.05001 4.40024 1.10106ZM 6.46153 13.9109L 1.07692 13.9109L 1.07692 9.55444L 6.46153 9.55444L 6.46153 13.9109ZM 1.07692 8.46533L 6.46153 8.46533L 6.46153 4.10888L 1.07692 4.10888L 1.07692 8.46533ZM 12.9231 13.9109L 7.53847 13.9109L 7.53847 9.55444L 12.9231 9.55444L 12.9231 13.9109ZM 7.53847 8.46533L 12.9231 8.46533L 12.9231 4.10888L 7.53847 4.10888L 7.53847 8.46533Z"/>
<path id="path1_fill" fill-rule="evenodd" d="M 0 0L 14 0L 14 14L 0 14L 0 0Z"/>
</defs>
</svg>
