<svg width="512" height="512" viewBox="0 0 512 512" version="1.1" xmlns="http://www.w3.org/2000/svg" xmlns:xlink="http://www.w3.org/1999/xlink">
<title>parameter</title>
<desc>Created using Figma</desc>
<g id="Canvas" transform="matrix(36.5714 0 0 36.5714 -13165.7 -4388.57)">
<rect x="360" y="120" width="14" height="14" fill="#E5E5E5"/>
<g id="parameter">
<mask id="mask0_outline" mask-type="alpha">
<g id="Mask">
<use xlink:href="#path0_fill" transform="translate(360 122)" fill="#FFFFFF"/>
</g>
</mask>
<g id="Mask" mask="url(#mask0_outline)">
<use xlink:href="#path0_fill" transform="translate(360 122)"/>
</g>
<g id="&#226;&#134;&#170;&#240;&#159;&#142;&#168;Color" mask="url(#mask0_outline)">
<g id="Rectangle 3">
<use xlink:href="#path1_fill" transform="translate(360 120)" fill="#333333"/>
</g>
</g>
</g>
</g>
<defs>
<path id="path0_fill" fill-rule="evenodd" d="M 2 9L 1 9L 1 1L 2 1L 2 0L 0 0L 0 10L 2 10L 2 9ZM 7.79688 6.14844L 7.82031 6.14844C 7.82422 6.84766 8.19922 7.19922 8.94922 7.19922C 9.52734 7.19922 10.0195 6.94922 10.4219 6.45312C 10.8242 5.95703 11.0234 5.32031 11.0234 4.54688C 11.0234 3.48828 10.6523 2.62891 9.91406 1.97266C 9.17188 1.31641 8.23828 0.988281 7.10938 0.988281C 5.90234 0.988281 4.91406 1.37891 4.14062 2.16406C 3.36328 2.94922 2.97656 3.9375 2.97656 5.12891C 2.97656 6.28516 3.34375 7.22266 4.07422 7.94141C 4.80859 8.65625 5.77344 9.01562 6.97266 9.01562C 7.82422 9.01562 8.53516 8.89453 9.10547 8.65234L 9.10547 7.90234C 8.54688 8.16797 7.87891 8.30078 7.09766 8.30078C 6.10547 8.30078 5.31641 8.00781 4.73047 7.41797C 4.14453 6.82812 3.85156 6.05469 3.85156 5.09375C 3.85156 4.12109 4.15625 3.30859 4.76562 2.66016C 5.37109 2.01562 6.14062 1.69141 7.07031 1.69141C 8.03516 1.69141 8.79297 1.95703 9.33594 2.49219C 9.88281 3.02734 10.1562 3.71875 10.1562 4.56641C 10.1562 5.14062 10.0547 5.60547 9.85156 5.96484C 9.64844 6.32422 9.39453 6.50391 9.08984 6.50391C 8.75391 6.50391 8.58594 6.18359 8.58594 5.53906C 8.58594 5.50907 8.64276 4.8681 8.754 3.61372L 8.75531 3.59907L 8.81641 2.91016L 8.00391 2.91016C 7.96484 3.19531 7.94141 3.38281 7.93359 3.47266L 7.91797 3.47266C 7.86719 3.29688 7.75 3.14453 7.57031 3.01953C 7.39062 2.89453 7.1875 2.83203 6.96094 2.83203C 6.36328 2.83203 5.87891 3.07422 5.51172 3.55859C 5.14844 4.04688 4.96484 4.65234 4.96484 5.38672C 4.96484 5.9375 5.09766 6.37891 5.36328 6.70703C 5.63281 7.03516 5.98438 7.19922 6.41797 7.19922C 7.10156 7.19922 7.5625 6.84766 7.79688 6.14844ZM 6.17578 4.05469C 6.39844 3.70312 6.6875 3.52734 7.04297 3.52734C 7.56641 3.52734 7.82422 3.84375 7.82422 4.48047C 7.82422 5.08984 7.72266 5.57812 7.51172 5.94922C 7.30469 6.32031 7.01953 6.50391 6.66406 6.50391C 6.41406 6.50391 6.21875 6.40234 6.07031 6.19922C 5.92188 5.99609 5.84766 5.71875 5.84766 5.36719C 5.84766 4.84375 5.95703 4.40625 6.17578 4.05469ZM 12 0L 14 0L 14 10L 12 10L 12 9L 13 9L 13 1L 12 1L 12 0Z"/>
<path id="path1_fill" fill-rule="evenodd" d="M 0 0L 14 0L 14 14L 0 14L 0 0Z"/>
</defs>
</svg>
