<svg width="512" height="512" viewBox="0 0 512 512" version="1.1" xmlns="http://www.w3.org/2000/svg" xmlns:xlink="http://www.w3.org/1999/xlink">
<title>placeholder</title>
<desc>Created using Figma</desc>
<g id="Canvas" transform="matrix(36.5714 0 0 36.5714 0 0)">
<rect x="0" y="0" width="14" height="14" fill="#E5E5E5"/>
<g id="placeholder">
<g id="Rectangle 4">
<mask id="mask0_outline_ins">
<use xlink:href="#path0_fill" fill="white"/>
</mask>
<g mask="url(#mask0_outline_ins)">
<use xlink:href="#path1_stroke_2x" fill="#979797"/>
</g>
</g>
</g>
</g>
<defs>
<path id="path0_fill" fill-rule="evenodd" d="M 0 0L 14 0L 14 14L 0 14L 0 0Z"/>
<path id="path1_stroke_2x" d="M 0 0L 0 -1L -1 -1L -1 0L 0 0ZM 14 0L 15 0L 15 -1L 14 -1L 14 0ZM 14 14L 14 15L 15 15L 15 14L 14 14ZM 0 14L -1 14L -1 15L 0 15L 0 14ZM -1 0L -1 3L 1 3L 1 0L -1 0ZM -1 4L -1 10L 1 10L 1 4L -1 4ZM -1 11L -1 14L 1 14L 1 11L -1 11ZM 0 15L 3 15L 3 13L 0 13L 0 15ZM 4 15L 10 15L 10 13L 4 13L 4 15ZM 11 15L 14 15L 14 13L 11 13L 11 15ZM 15 14L 15 11L 13 11L 13 14L 15 14ZM 15 10L 15 4L 13 4L 13 10L 15 10ZM 15 3L 15 0L 13 0L 13 3L 15 3ZM 14 -1L 11 -1L 11 1L 14 1L 14 -1ZM 10 -1L 4 -1L 4 1L 10 1L 10 -1ZM 3 -1L 0 -1L 0 1L 3 1L 3 -1ZM 0 0L 0 -2L -2 -2L -2 0L 0 0ZM 14 0L 16 0L 16 -2L 14 -2L 14 0ZM 14 14L 14 16L 16 16L 16 14L 14 14ZM 0 14L -2 14L -2 16L 0 16L 0 14ZM -2 0L -2 3L 2 3L 2 0L -2 0ZM -2 4L -2 10L 2 10L 2 4L -2 4ZM -2 11L -2 14L 2 14L 2 11L -2 11ZM 0 16L 3 16L 3 12L 0 12L 0 16ZM 4 16L 10 16L 10 12L 4 12L 4 16ZM 11 16L 14 16L 14 12L 11 12L 11 16ZM 16 14L 16 11L 12 11L 12 14L 16 14ZM 16 10L 16 4L 12 4L 12 10L 16 10ZM 16 3L 16 0L 12 0L 12 3L 16 3ZM 14 -2L 11 -2L 11 2L 14 2L 14 -2ZM 10 -2L 4 -2L 4 2L 10 2L 10 -2ZM 3 -2L 0 -2L 0 2L 3 2L 3 -2Z"/>
</defs>
</svg>
