<svg width="512" height="512" viewBox="0 0 512 512" version="1.1" xmlns="http://www.w3.org/2000/svg" xmlns:xlink="http://www.w3.org/1999/xlink">
<title>process</title>
<desc>Created using Figma</desc>
<g id="Canvas" transform="matrix(36.5714 0 0 36.5714 -35108.6 -4388.57)">
<rect x="960" y="120" width="14" height="14" fill="#E5E5E5"/>
<g id="process">
<mask id="mask0_outline" mask-type="alpha">
<g id="Mask">
<use xlink:href="#path0_fill" transform="translate(960 120)" fill="#FFFFFF"/>
</g>
</mask>
<g id="Mask" mask="url(#mask0_outline)">
<use xlink:href="#path0_fill" transform="translate(960 120)"/>
</g>
<g id="&#226;&#134;&#170;&#240;&#159;&#142;&#168;Color" mask="url(#mask0_outline)">
<g id="Rectangle 3">
<use xlink:href="#path1_fill" transform="translate(960 120)" fill="#333333"/>
</g>
</g>
</g>
</g>
<defs>
<path id="path0_fill" fill-rule="evenodd" d="M 6.5069 5.58395L 5.70532 5.23338C 5.50098 5.55891 5.23376 5.8427 4.92731 6.05971L 5.25739 6.91107L 4.33008 7.32006L 3.99609 6.4687C 3.81927 6.51043 3.63458 6.5313 3.44598 6.5313C 3.25739 6.5313 3.07269 6.51043 2.89587 6.4687L 2.56189 7.32006L 1.63458 6.91107L 1.96466 6.05971C 1.65814 5.8427 1.39099 5.55891 1.18665 5.23338L 0.385071 5.58395L 0 4.59904L 0.801575 4.2443C 0.762268 4.0565 0.742615 3.86035 0.742615 3.66003C 0.742615 3.46388 0.762268 3.26774 0.801575 3.07576L 0 2.72102L 0.385071 1.73611L 1.18665 2.08668C 1.39099 1.76115 1.65814 1.47736 1.96466 1.26035L 1.63458 0.408989L 2.56189 0L 2.89587 0.851364C 3.07269 0.809631 3.25739 0.788765 3.44598 0.788765C 3.63458 0.788765 3.81927 0.809631 3.99609 0.851364L 4.33008 0L 5.25739 0.408989L 4.92731 1.26035C 5.23376 1.47736 5.50098 1.76115 5.70532 2.08668L 6.5069 1.73611L 6.89197 2.72102L 6.09039 3.07576C 6.12964 3.26357 6.14929 3.45971 6.14929 3.66003C 6.14929 3.85618 6.12964 4.05233 6.09039 4.2443L 6.89197 4.59904L 6.5069 5.58395ZM 1.74854 3.66003C 1.74854 4.65329 2.5108 5.46292 3.44598 5.46292C 4.38116 5.46292 5.14343 4.65329 5.14343 3.66003C 5.14343 2.66677 4.38116 1.85714 3.44598 1.85714C 2.5108 1.85714 1.74854 2.66677 1.74854 3.66003ZM 13.1906 8.80161C 13.1906 8.53868 13.1552 8.2841 13.1002 8.03789L 14 7.64141L 13.6149 6.65233L 12.7112 7.0488C 12.4558 6.61477 12.1061 6.24334 11.6935 5.97207L 12.0707 5.0122L 11.1395 4.60321L 10.7662 5.55891C 10.5344 5.50048 10.2947 5.46292 10.0471 5.46292C 9.79962 5.46292 9.55994 5.50048 9.32806 5.55891L 8.95483 4.60321L 8.02356 5.0122L 8.40076 5.97207C 7.98822 6.24334 7.63849 6.61477 7.38312 7.05297L 6.47937 6.65233L 6.0943 7.64141L 6.99408 8.03789C 6.93909 8.2841 6.90375 8.53868 6.90375 8.80161C 6.90375 9.06453 6.93909 9.31911 6.99408 9.56532L 6.0943 9.96179L 6.47937 10.9509L 7.38312 10.5502C 7.63849 10.9884 7.98822 11.3599 8.39685 11.6311L 8.02356 12.591L 8.95483 13L 9.32806 12.0443C 9.55994 12.1027 9.79962 12.1403 10.0471 12.1403C 10.2947 12.1403 10.5344 12.1027 10.7662 12.0443L 11.1395 13L 12.0707 12.591L 11.6974 11.6311C 12.1061 11.3599 12.4558 10.9884 12.7112 10.5544L 13.6149 10.9509L 14 9.96179L 13.1002 9.56532C 13.1552 9.31911 13.1906 9.06453 13.1906 8.80161ZM 7.90961 8.80161C 7.90961 10.0536 8.86835 11.0719 10.0471 11.0719C 11.2259 11.0719 12.1846 10.0536 12.1846 8.80161C 12.1846 7.54959 11.2259 6.5313 10.0471 6.5313C 8.86835 6.5313 7.90961 7.54959 7.90961 8.80161Z"/>
<path id="path1_fill" fill-rule="evenodd" d="M 0 0L 14 0L 14 14L 0 14L 0 0Z"/>
</defs>
</svg>
