<svg width="512" height="512" viewBox="0 0 512 512" version="1.1" xmlns="http://www.w3.org/2000/svg" xmlns:xlink="http://www.w3.org/1999/xlink">
<title>query-list</title>
<desc>Created using Figma</desc>
<g id="Canvas" transform="matrix(36.5714 0 0 36.5714 -37741.7 -4388.57)">
<rect x="1032" y="120" width="14" height="14" fill="#E5E5E5"/>
<g id="query-list">
<mask id="mask0_outline" mask-type="alpha">
<g id="Mask">
<use xlink:href="#path0_fill" transform="translate(1032 122)" fill="#FFFFFF"/>
</g>
</mask>
<g id="Mask" mask="url(#mask0_outline)">
<use xlink:href="#path0_fill" transform="translate(1032 122)"/>
</g>
<g id="&#226;&#134;&#170;&#240;&#159;&#142;&#168;Color" mask="url(#mask0_outline)">
<g id="Rectangle 3">
<use xlink:href="#path1_fill" transform="translate(1032 120)" fill="#333333"/>
</g>
</g>
</g>
</g>
<defs>
<path id="path0_fill" fill-rule="evenodd" d="M 6.46155 5.18001L 9.69226 1.88129L 9.69226 0L 0 0.00429535L 0 1.88129L 3.23071 5.18001L 3.23071 11L 6.46155 11L 6.46155 5.18001ZM 14 2.20344L 10.7693 2.20344L 10.7693 0.00429535L 14 0.00429535L 14 2.20344ZM 7.53845 5.6353L 7.53845 6.60172L 14 6.60172L 14 4.40258L 8.75 4.40258L 7.53845 5.6353ZM 7.53845 11L 7.53845 8.80086L 14 8.80086L 14 11L 7.53845 11ZM 1.0769 1.42601L 4.30762 4.72472L 4.30762 9.90044L 5.38464 9.90044L 5.38464 4.72472L 8.61536 1.42601L 8.61536 1.10387L 1.0769 1.10387L 1.0769 1.42601Z"/>
<path id="path1_fill" fill-rule="evenodd" d="M 0 0L 14 0L 14 14L 0 14L 0 0Z"/>
</defs>
</svg>
