<svg width="512" height="512" viewBox="0 0 512 512" version="1.1" xmlns="http://www.w3.org/2000/svg" xmlns:xlink="http://www.w3.org/1999/xlink">
<title>radio-button</title>
<desc>Created using Figma</desc>
<g id="Canvas" transform="matrix(36.5714 0 0 36.5714 -38619.4 -4388.57)">
<rect x="1056" y="120" width="14" height="14" fill="#E5E5E5"/>
<g id="radio-button">
<mask id="mask0_outline" mask-type="alpha">
<g id="Mask">
<use xlink:href="#path0_fill" transform="translate(1056 120)" fill="#FFFFFF"/>
</g>
</mask>
<g id="Mask" mask="url(#mask0_outline)">
<use xlink:href="#path0_fill" transform="translate(1056 120)"/>
</g>
<g id="&#226;&#134;&#170;&#240;&#159;&#142;&#168;Color" mask="url(#mask0_outline)">
<g id="Rectangle 3">
<use xlink:href="#path1_fill" transform="translate(1056 120)" fill="#333333"/>
</g>
</g>
</g>
</g>
<defs>
<path id="path0_fill" fill-rule="evenodd" d="M 11.9492 2.05078C 10.6289 0.726562 8.86719 0 7 0C 5.13281 0 3.37109 0.726562 2.05078 2.05078C 0.726562 3.37109 0 5.13281 0 7C 0 8.86719 0.726562 10.6289 2.05078 11.9492C 3.37109 13.2734 5.13281 14 7 14C 8.86719 14 10.6289 13.2734 11.9492 11.9492C 13.2734 10.6289 14 8.86719 14 7C 14 5.13281 13.2734 3.37109 11.9492 2.05078ZM 7 13C 3.69141 13 1 10.3086 1 7C 1 3.69141 3.69141 1 7 1C 10.3086 1 13 3.69141 13 7C 13 10.3086 10.3086 13 7 13ZM 10 7C 10 5.34375 8.65625 4 7 4C 5.34375 4 4 5.34375 4 7C 4 8.65625 5.34375 10 7 10C 8.65625 10 10 8.65625 10 7Z"/>
<path id="path1_fill" fill-rule="evenodd" d="M 0 0L 14 0L 14 14L 0 14L 0 0Z"/>
</defs>
</svg>
