<svg width="512" height="512" viewBox="0 0 512 512" version="1.1" xmlns="http://www.w3.org/2000/svg" xmlns:xlink="http://www.w3.org/1999/xlink">
<title>repo-git</title>
<desc>Created using Figma</desc>
<g id="Canvas" transform="matrix(36.5714 0 0 36.5714 -3510.86 -5266.29)">
<rect x="96" y="144" width="14" height="14" fill="#E5E5E5"/>
<g id="repo-git">
<mask id="mask0_outline" mask-type="alpha">
<g id="Mask">
<use xlink:href="#path0_fill" transform="translate(96 145)" fill="#FFFFFF"/>
</g>
</mask>
<g id="Mask" mask="url(#mask0_outline)">
<use xlink:href="#path0_fill" transform="translate(96 145)"/>
</g>
<g id="&#226;&#134;&#170;&#240;&#159;&#142;&#168;Color" mask="url(#mask0_outline)">
<g id="Rectangle 3">
<use xlink:href="#path1_fill" transform="translate(96 144)" fill="#333333"/>
</g>
</g>
</g>
</g>
<defs>
<path id="path0_fill" fill-rule="evenodd" d="M 0 3L 0 0L 14 0L 14 3L 7 3L 5.70703 1.70703C 5.31641 1.31641 4.68359 1.31641 4.29297 1.70703L 3 3L 0 3ZM 9.8125 8.46484L 5.46484 12.8125C 5.21484 13.0625 4.80469 13.0625 4.55469 12.8125L 0.1875 8.44531C -0.0625 8.19531 -0.0625 7.78516 0.1875 7.53516L 3.18359 4.53906L 4.31641 5.67578C 4.19922 5.95312 4.25391 6.28516 4.48047 6.51172C 4.53081 6.56206 4.53802 6.56387 4.56548 6.57082C 4.57851 6.5741 4.59609 6.57854 4.625 6.58984L 4.625 9.35938C 4.55901 9.38451 4.5183 9.42734 4.47237 9.47566L 4.47203 9.47603L 4.47127 9.47684L 4.47083 9.47729C 4.46014 9.48851 4.44916 9.50005 4.4375 9.51172C 4.27344 9.66016 4.16797 9.87109 4.16797 10.1094C 4.16797 10.5508 4.52344 10.9062 4.96484 10.9062C 5.02344 10.9062 5.07812 10.9023 5.13281 10.8906C 5.28906 10.8672 5.44141 10.7969 5.5625 10.6758C 5.83203 10.4102 5.85938 9.99609 5.64844 9.69531C 5.57812 9.58203 5.48047 9.48438 5.36328 9.41797L 5.36328 6.72656L 6.39453 7.76172C 6.28125 8.03906 6.33594 8.37109 6.5625 8.59375C 6.85938 8.89453 7.34766 8.89453 7.64844 8.59375C 7.94531 8.29688 7.94531 7.80859 7.64844 7.51172C 7.42969 7.29688 7.12109 7.23828 6.85547 7.32812L 5.74609 6.22266C 5.83984 5.95312 5.77734 5.64453 5.5625 5.42969C 5.35156 5.21484 5.04688 5.15625 4.77734 5.24609L 3.62891 4.09375L 4.53516 3.1875C 4.78516 2.9375 5.19531 2.9375 5.44531 3.1875L 9.8125 7.55469C 10.0625 7.80469 10.0625 8.21484 9.8125 8.46484ZM 8 4L 11.293 7.29297C 11.6836 7.68359 11.6836 8.31641 11.293 8.70703L 7 13L 13 13L 13 4L 8 4ZM 1 4L 2 4L 1 5L 1 4ZM 1 11L 1 13L 3 13L 1 11Z"/>
<path id="path1_fill" fill-rule="evenodd" d="M 0 0L 14 0L 14 14L 0 14L 0 0Z"/>
</defs>
</svg>
