<svg width="512" height="512" viewBox="0 0 512 512" version="1.1" xmlns="http://www.w3.org/2000/svg" xmlns:xlink="http://www.w3.org/1999/xlink">
<title>save-as</title>
<desc>Created using Figma</desc>
<g id="Canvas" transform="matrix(36.5714 0 0 36.5714 -10532.6 -5266.29)">
<rect x="288" y="144" width="14" height="14" fill="#E5E5E5"/>
<g id="save-as">
<mask id="mask0_outline" mask-type="alpha">
<g id="Mask">
<use xlink:href="#path0_fill" transform="translate(288 144)" fill="#FFFFFF"/>
</g>
</mask>
<g id="Mask" mask="url(#mask0_outline)">
<use xlink:href="#path0_fill" transform="translate(288 144)"/>
</g>
<g id="&#226;&#134;&#170;&#240;&#159;&#142;&#168;Color" mask="url(#mask0_outline)">
<g id="Rectangle 3">
<use xlink:href="#path1_fill" transform="translate(288 144)" fill="#333333"/>
</g>
</g>
</g>
</g>
<defs>
<path id="path0_fill" fill-rule="evenodd" d="M 8.05469 2.32715L 7.69141 2.69043L 5.75391 0.75293L 6.11719 0.389648C 6.63281 -0.129883 7.53906 -0.129883 8.05859 0.389648C 8.31641 0.647461 8.45703 0.991211 8.45703 1.3584C 8.45703 1.72559 8.31641 2.06934 8.05469 2.32715ZM 2.69141 7.69043L 2.67188 7.70996L 0 8.35449L 0.742188 5.76074L 0.753906 5.75293L 2.69141 7.69043ZM 6 11.999L 8 11.999L 8 13.999L 6 13.999L 6 11.999ZM 4.75391 1.75293L 1.75391 4.75293L 3.69141 6.69043L 6.69141 3.69043L 4.75391 1.75293ZM 9 2.99902L 10 1.99902L 14 1.99902L 14 13.999L 11 13.999L 11 9.99902L 5 9.99902L 5 13.999L 3.5 13.999L 2 12.499L 2 9.74902L 6 5.99902L 12 5.99902L 12 2.99902L 9 2.99902Z"/>
<path id="path1_fill" fill-rule="evenodd" d="M 0 0L 14 0L 14 14L 0 14L 0 0Z"/>
</defs>
</svg>
