<svg width="512" height="512" viewBox="0 0 512 512" version="1.1" xmlns="http://www.w3.org/2000/svg" xmlns:xlink="http://www.w3.org/1999/xlink">
<title>scope-template</title>
<desc>Created using Figma</desc>
<g id="Canvas" transform="matrix(36.5714 0 0 36.5714 -12288 -5266.29)">
<rect x="336" y="144" width="14" height="14" fill="#E5E5E5"/>
<g id="scope-template">
<mask id="mask0_outline" mask-type="alpha">
<g id="Mask">
<use xlink:href="#path0_fill" transform="translate(336 144)" fill="#FFFFFF"/>
</g>
</mask>
<g id="Mask" mask="url(#mask0_outline)">
<use xlink:href="#path0_fill" transform="translate(336 144)"/>
</g>
<g id="&#226;&#134;&#170;&#240;&#159;&#142;&#168;Color" mask="url(#mask0_outline)">
<g id="Rectangle 3">
<use xlink:href="#path1_fill" transform="translate(336 144)" fill="#333333"/>
</g>
</g>
</g>
</g>
<defs>
<path id="path0_fill" fill-rule="evenodd" d="M 14 3.79297L 14 14L 11 14L 11 13L 13 13L 13 4.20703L 9.79297 1L 4 1L 4 3L 3 3L 3 0L 10.207 0L 14 3.79297ZM 0 7L 1 7L 1 5L 3 5L 3 4L 0 4L 0 7ZM 9 5L 7 5L 7 4L 10 4L 10 7L 9 7L 9 5ZM 9 13L 7 13L 7 14L 10 14L 10 11L 9 11L 9 13ZM 0 11L 1 11L 1 13L 3 13L 3 14L 0 14L 0 11Z"/>
<path id="path1_fill" fill-rule="evenodd" d="M 0 0L 14 0L 14 14L 0 14L 0 0Z"/>
</defs>
</svg>
