<svg width="512" height="512" viewBox="0 0 512 512" version="1.1" xmlns="http://www.w3.org/2000/svg" xmlns:xlink="http://www.w3.org/1999/xlink">
<title>search-in-branch</title>
<desc>Created using Figma</desc>
<g id="Canvas" transform="matrix(36.5714 0 0 36.5714 -16676.6 -5266.29)">
<rect x="456" y="144" width="14" height="14" fill="#E5E5E5"/>
<g id="search-in-branch">
<mask id="mask0_outline" mask-type="alpha">
<g id="Mask">
<use xlink:href="#path0_fill" transform="translate(457 144)" fill="#FFFFFF"/>
</g>
</mask>
<g id="Mask" mask="url(#mask0_outline)">
<use xlink:href="#path0_fill" transform="translate(457 144)"/>
</g>
<g id="&#226;&#134;&#170;&#240;&#159;&#142;&#168;Color" mask="url(#mask0_outline)">
<g id="Rectangle 3">
<use xlink:href="#path1_fill" transform="translate(456 144)" fill="#333333"/>
</g>
</g>
</g>
</g>
<defs>
<path id="path0_fill" fill-rule="evenodd" d="M 4.59222 7.89091C 4.48468 8.21307 4.41696 8.55113 4.409 8.90909L 2.80392 8.90909L 2.80392 9.47784C 3.82352 9.71249 4.58823 10.6233 4.58823 11.7091C 4.58823 12.9699 3.55667 14 2.29413 14C 1.03156 14 0 12.9739 0 11.7091C 0 10.6233 0.764709 9.71249 1.7843 9.48181L 1.7843 4.52216C 0.764709 4.28751 0 3.37671 0 2.29091C 0 1.03012 1.03156 0 2.29413 0C 3.55667 0 4.58823 1.02614 4.58823 2.29091C 4.58823 3.37671 3.82352 4.28751 2.80392 4.52216L 2.80392 7.89091L 4.59222 7.89091ZM 7.90195 4.52216L 7.90195 5.42102C 7.91388 5.42102 7.92584 5.41904 7.93781 5.41705C 7.94977 5.41505 7.96173 5.41307 7.97366 5.41307C 8.30423 5.41307 8.61887 5.4767 8.92157 5.56023L 8.92157 4.51819C 9.94116 4.28751 10.7059 3.37671 10.7059 2.29091C 10.7059 1.02614 9.67831 0 8.41177 0C 7.1492 0 6.11765 1.02614 6.11765 2.29091C 6.11765 3.37671 6.88235 4.28751 7.90195 4.52216ZM 8.41177 1.01819C 9.11673 1.01819 9.68628 1.59091 9.68628 2.29091C 9.68628 2.99092 9.11276 3.56364 8.41177 3.56364C 7.71078 3.56364 7.13727 2.99092 7.13727 2.29091C 7.13727 1.59091 7.71078 1.01819 8.41177 1.01819ZM 3.56863 11.7091C 3.56863 12.4131 2.99512 12.9818 2.29413 12.9818C 1.59314 12.9818 1.01962 12.4091 1.01962 11.7091C 1.01962 11.0091 1.59314 10.4364 2.29413 10.4364C 2.99512 10.4364 3.56863 11.0091 3.56863 11.7091ZM 1.01962 2.29091C 1.01962 2.99092 1.58917 3.56364 2.29413 3.56364C 2.99908 3.56364 3.56863 2.99092 3.56863 2.29091C 3.56863 1.59091 2.99512 1.01819 2.29413 1.01819C 1.59314 1.01819 1.01962 1.59091 1.01962 2.29091ZM 10.0965 10.3807C 10.3634 9.97897 10.5187 9.49773 10.5187 8.9767C 10.5187 7.57671 9.37561 6.43124 7.96967 6.43124C 6.56772 6.43124 5.42065 7.57671 5.42065 8.9767C 5.42065 10.3807 6.56772 11.5222 7.96967 11.5222C 8.49142 11.5222 8.97336 11.367 9.37561 11.1006L 12.2791 14L 13 13.2801L 10.0965 10.3807ZM 9.33975 9.64886C 9.43933 9.44603 9.50305 9.21931 9.50305 8.9767L 9.49908 8.9767C 9.49908 8.1375 8.81403 7.44943 7.96967 7.44943C 7.12927 7.44943 6.44025 8.1375 6.44025 8.9767C 6.44025 9.81989 7.12927 10.504 7.96967 10.504C 8.21262 10.504 8.43964 10.4443 8.64276 10.3449C 8.94547 10.1938 9.18842 9.95114 9.33975 9.64886Z"/>
<path id="path1_fill" fill-rule="evenodd" d="M 0 0L 14 0L 14 14L 0 14L 0 0Z"/>
</defs>
</svg>
