<svg width="512" height="512" viewBox="0 0 512 512" version="1.1" xmlns="http://www.w3.org/2000/svg" xmlns:xlink="http://www.w3.org/1999/xlink">
<title>server</title>
<desc>Created using Figma</desc>
<g id="Canvas" transform="matrix(36.5714 0 0 36.5714 -24576 -5266.29)">
<rect x="672" y="144" width="14" height="14" fill="#E5E5E5"/>
<g id="server">
<mask id="mask0_outline" mask-type="alpha">
<g id="Mask">
<use xlink:href="#path0_fill" transform="translate(675 144)" fill="#FFFFFF"/>
</g>
</mask>
<g id="Mask" mask="url(#mask0_outline)">
<use xlink:href="#path0_fill" transform="translate(675 144)"/>
</g>
<g id="&#226;&#134;&#170;&#240;&#159;&#142;&#168;Color" mask="url(#mask0_outline)">
<g id="Rectangle 3">
<use xlink:href="#path1_fill" transform="translate(672 144)" fill="#333333"/>
</g>
</g>
</g>
</g>
<defs>
<path id="path0_fill" fill-rule="evenodd" d="M 8 14L 0 14L 0 1C 0 0.449219 0.449219 0 1 0L 7 0C 7.55078 0 8 0.449219 8 1L 8 14ZM 1 13L 7 13L 7 1L 1 1L 1 13ZM 2 2L 6 2L 6 3L 2 3L 2 2ZM 6 9L 2 9L 2 10L 6 10L 6 9ZM 2 11L 6 11L 6 12L 2 12L 2 11Z"/>
<path id="path1_fill" fill-rule="evenodd" d="M 0 0L 14 0L 14 14L 0 14L 0 0Z"/>
</defs>
</svg>
