<svg width="512" height="512" viewBox="0 0 512 512" version="1.1" xmlns="http://www.w3.org/2000/svg" xmlns:xlink="http://www.w3.org/1999/xlink">
<title>settings-wrench</title>
<desc>Created using Figma</desc>
<g id="Canvas" transform="matrix(36.5714 0 0 36.5714 -28964.6 -5266.29)">
<rect x="792" y="144" width="14" height="14" fill="#E5E5E5"/>
<g id="settings-wrench">
<mask id="mask0_outline" mask-type="alpha">
<g id="Mask">
<use xlink:href="#path0_fill" transform="translate(792 144)" fill="#FFFFFF"/>
</g>
</mask>
<g id="Mask" mask="url(#mask0_outline)">
<use xlink:href="#path0_fill" transform="translate(792 144)"/>
</g>
<g id="&#226;&#134;&#170;&#240;&#159;&#142;&#168;Color" mask="url(#mask0_outline)">
<g id="Rectangle 3">
<use xlink:href="#path1_fill" transform="translate(792 144)" fill="#333333"/>
</g>
</g>
</g>
</g>
<defs>
<path id="path0_fill" d="M 13.5001 1.89817C 13.8086 2.44497 14 3.06207 14 3.73385C 14 5.79607 12.3284 7.4638 10.2661 7.4638C 9.98103 7.4638 9.70372 7.42475 9.43423 7.36616L 3.38039 13.42C 2.60706 14.1933 1.35333 14.1933 0.579997 13.42C -0.193332 12.6467 -0.193332 11.3929 0.579997 10.6196L 6.63384 4.56577C 6.57525 4.29628 6.5362 4.01897 6.5362 3.73385C 6.5362 1.67164 8.20393 0 10.2661 0C 10.9379 0 11.555 0.191379 12.1018 0.49993L 9.33268 3.26517L 10.0357 3.96429L 10.7348 4.66732L 13.5001 1.89817Z"/>
<path id="path1_fill" fill-rule="evenodd" d="M 0 0L 14 0L 14 14L 0 14L 0 0Z"/>
</defs>
</svg>
