<svg width="512" height="512" viewBox="0 0 512 512" version="1.1" xmlns="http://www.w3.org/2000/svg" xmlns:xlink="http://www.w3.org/1999/xlink">
<title>shield-outline</title>
<desc>Created using Figma</desc>
<g id="Canvas" transform="matrix(36.5714 0 0 36.5714 -30720 -5266.29)">
<rect x="840" y="144" width="14" height="14" fill="#E5E5E5"/>
<g id="shield-outline">
<mask id="mask0_outline" mask-type="alpha">
<g id="Mask">
<use xlink:href="#path0_fill" transform="translate(841 144)" fill="#FFFFFF"/>
</g>
</mask>
<g id="Mask" mask="url(#mask0_outline)">
<use xlink:href="#path0_fill" transform="translate(841 144)"/>
</g>
<g id="&#226;&#134;&#170;&#240;&#159;&#142;&#168;Color" mask="url(#mask0_outline)">
<g id="Rectangle 3">
<use xlink:href="#path1_fill" transform="translate(840 144)" fill="#333333"/>
</g>
</g>
</g>
</g>
<defs>
<path id="path0_fill" fill-rule="evenodd" d="M 6.22919 13.845L 6.5 14L 6.77081 13.845C 10.7868 11.553 13 8.50266 13 5.25956L 13 1.69802L 12.4583 1.69802C 11.1211 1.69802 9.86847 1.35025 8.9502 0.725925C 7.62988 -0.246166 5.35321 -0.233593 4.06671 0.713352C 3.13153 1.35025 1.87891 1.69802 0.541687 1.69802L 0 1.69802L 0 5.25956C 0 8.50686 2.2132 11.553 6.22919 13.845ZM 1.08331 5.25956L 1.08331 2.75391C 2.4375 2.67011 3.69855 2.26368 4.69299 1.58489C 5.64514 0.885151 7.33789 0.876759 8.31964 1.59745C 9.30139 2.26786 10.5625 2.67011 11.9166 2.75391L 11.9166 5.25956C 11.9166 8.03336 9.99542 10.6899 6.5 12.7597C 3.00452 10.6899 1.08331 8.03336 1.08331 5.25956Z"/>
<path id="path1_fill" fill-rule="evenodd" d="M 0 0L 14 0L 14 14L 0 14L 0 0Z"/>
</defs>
</svg>
