<svg width="512" height="512" viewBox="0 0 512 512" version="1.1" xmlns="http://www.w3.org/2000/svg" xmlns:xlink="http://www.w3.org/1999/xlink">
<title>sort-asc</title>
<desc>Created using Figma</desc>
<g id="Canvas" transform="matrix(36.5714 0 0 36.5714 -36864 -5266.29)">
<rect x="1008" y="144" width="14" height="14" fill="#E5E5E5"/>
<g id="sort-asc">
<mask id="mask0_outline" mask-type="alpha">
<g id="Mask">
<use xlink:href="#path0_fill" transform="translate(1008 144)" fill="#FFFFFF"/>
</g>
</mask>
<g id="Mask" mask="url(#mask0_outline)">
<use xlink:href="#path0_fill" transform="translate(1008 144)"/>
</g>
<g id="&#226;&#134;&#170;&#240;&#159;&#142;&#168;Color" mask="url(#mask0_outline)">
<g id="Rectangle 3">
<use xlink:href="#path1_fill" transform="translate(1008 144)" fill="#333333"/>
</g>
</g>
</g>
</g>
<defs>
<path id="path0_fill" fill-rule="evenodd" d="M 0 6.30078L 2.36267 0L 3.54401 0L 5.88715 6.30078L 4.74097 6.30078L 4.17377 4.69922L 1.68988 4.69922L 1.14612 6.30078L 0 6.30078ZM 2.82819 1.33203L 1.96368 3.84375L 3.89606 3.84375L 3.01984 1.33203C 2.99249 1.25 2.96509 1.11719 2.93378 0.9375L 2.91815 0.9375C 2.89075 1.10156 2.8634 1.23438 2.82819 1.33203ZM 0.751038 7.69922L 5.40601 7.69922L 5.40601 8.15625L 1.94806 13.1172L 5.36298 13.1172L 5.36298 14L 0.48114 14L 0.48114 13.5195L 3.95471 8.58594L 0.751038 8.58594L 0.751038 7.69922ZM 10.5147 13.7695L 14 10.293L 13.292 9.58203L 11.0154 11.8555L 11.0154 1L 10.014 1L 10.014 11.8555L 7.74127 9.58594L 7.03326 10.293L 10.5147 13.7695Z"/>
<path id="path1_fill" fill-rule="evenodd" d="M 0 0L 14 0L 14 14L 0 14L 0 0Z"/>
</defs>
</svg>
