<svg width="512" height="512" viewBox="0 0 512 512" version="1.1" xmlns="http://www.w3.org/2000/svg" xmlns:xlink="http://www.w3.org/1999/xlink">
<title>star-half</title>
<desc>Created using Figma</desc>
<g id="Canvas" transform="matrix(36.5714 0 0 36.5714 -43008 -5266.29)">
<rect x="1176" y="144" width="14" height="14" fill="#E5E5E5"/>
<g id="star-half">
<mask id="mask0_outline" mask-type="alpha">
<g id="Mask">
<use xlink:href="#path0_fill" transform="translate(1176 144)" fill="#FFFFFF"/>
</g>
</mask>
<g id="Mask" mask="url(#mask0_outline)">
<use xlink:href="#path0_fill" transform="translate(1176 144)"/>
</g>
<g id="&#226;&#134;&#170;&#240;&#159;&#142;&#168;Color" mask="url(#mask0_outline)">
<g id="Rectangle 3">
<use xlink:href="#path1_fill" transform="translate(1176 144)" fill="#333333"/>
</g>
</g>
</g>
</g>
<defs>
<path id="path0_fill" fill-rule="evenodd" d="M 9.16406 4.38281L 14 5.08594L 10.5 8.49609L 11.3281 13.3125L 7 11.0391L 2.67188 13.3125L 3.5 8.49609L 0 5.08594L 4.83594 4.38281L 7 0L 9.16406 4.38281ZM 7 2.25781L 7 9.91016L 10 11.4844L 9.42578 8.14844L 11.8516 5.78125L 8.5 5.29688L 7 2.25781Z"/>
<path id="path1_fill" fill-rule="evenodd" d="M 0 0L 14 0L 14 14L 0 14L 0 0Z"/>
</defs>
</svg>
