<svg width="512" height="512" viewBox="0 0 512 512" version="1.1" xmlns="http://www.w3.org/2000/svg" xmlns:xlink="http://www.w3.org/1999/xlink">
<title>status-pause-outline</title>
<desc>Created using Figma</desc>
<g id="Canvas" transform="matrix(36.5714 0 0 36.5714 -9654.86 -6144)">
<rect x="264" y="168" width="14" height="14" fill="#E5E5E5"/>
<g id="status-pause-outline">
<mask id="mask0_outline" mask-type="alpha">
<g id="Mask">
<use xlink:href="#path0_fill" transform="translate(264 168)" fill="#FFFFFF"/>
</g>
</mask>
<g id="Mask" mask="url(#mask0_outline)">
<use xlink:href="#path0_fill" transform="translate(264 168)"/>
</g>
<g id="&#226;&#134;&#170;&#240;&#159;&#142;&#168;Color" mask="url(#mask0_outline)">
<g id="Rectangle 3">
<use xlink:href="#path1_fill" transform="translate(264 168)" fill="#333333"/>
</g>
</g>
</g>
</g>
<defs>
<path id="path0_fill" fill-rule="evenodd" d="M 0 7C 0 10.8594 3.14062 14 7 14C 10.8594 14 14 10.8594 14 7C 14 3.14062 10.8594 0 7 0C 3.14062 0 0 3.14062 0 7ZM 1 7C 1 3.69141 3.69141 1 7 1C 10.3086 1 13 3.69141 13 7C 13 10.3086 10.3086 13 7 13C 3.69141 13 1 10.3086 1 7ZM 5.75 4.5L 4.25 4.5L 4.25 9.5L 5.75 9.5L 5.75 4.5ZM 8.25 4.5L 9.75 4.5L 9.75 9.5L 8.25 9.5L 8.25 4.5Z"/>
<path id="path1_fill" fill-rule="evenodd" d="M 0 0L 14 0L 14 14L 0 14L 0 0Z"/>
</defs>
</svg>
