<svg width="512" height="512" viewBox="0 0 512 512" version="1.1" xmlns="http://www.w3.org/2000/svg" xmlns:xlink="http://www.w3.org/1999/xlink">
<title>status-error-outline</title>
<desc>Created using Figma</desc>
<g id="Canvas" transform="matrix(36.5714 0 0 36.5714 -877.714 -6144)">
<rect x="24" y="168" width="14" height="14" fill="#E5E5E5"/>
<g id="status-error-outline">
<mask id="mask0_outline" mask-type="alpha">
<g id="Mask">
<use xlink:href="#path0_fill" transform="translate(24 168)" fill="#FFFFFF"/>
</g>
</mask>
<g id="Mask" mask="url(#mask0_outline)">
<use xlink:href="#path0_fill" transform="translate(24 168)"/>
</g>
<g id="&#226;&#134;&#170;&#240;&#159;&#142;&#168;Color" mask="url(#mask0_outline)">
<g id="Rectangle 3">
<use xlink:href="#path1_fill" transform="translate(24 168)" fill="#333333"/>
</g>
</g>
</g>
</g>
<defs>
<path id="path0_fill" fill-rule="evenodd" d="M 0 7C 0 10.8618 3.14243 14 7 14C 10.8618 14 14 10.8576 14 7C 14 3.14243 10.8576 0 7 0C 3.14243 0 0 3.13821 0 7ZM 1.07692 7C 1.07692 3.73558 3.73558 1.07692 7 1.07692C 10.2644 1.07692 12.9231 3.73558 12.9231 7C 12.9231 10.2644 10.2644 12.9231 7 12.9231C 3.73558 12.9231 1.07692 10.2644 1.07692 7ZM 6.46154 3.23077L 6.46154 8.61539L 7.53846 8.61539L 7.53846 3.23077L 6.46154 3.23077ZM 6.46154 10.7692L 6.46154 9.69231L 7.53846 9.69231L 7.53846 10.7692L 6.46154 10.7692Z"/>
<path id="path1_fill" fill-rule="evenodd" d="M 0 0L 14 0L 14 14L 0 14L 0 0Z"/>
</defs>
</svg>
