<svg width="512" height="512" viewBox="0 0 512 512" version="1.1" xmlns="http://www.w3.org/2000/svg" xmlns:xlink="http://www.w3.org/1999/xlink">
<title>status-failure-outline</title>
<desc>Created using Figma</desc>
<g id="Canvas" transform="matrix(36.5714 0 0 36.5714 -2633.14 -6144)">
<rect x="72" y="168" width="14" height="14" fill="#E5E5E5"/>
<g id="status-failure-outline">
<mask id="mask0_outline" mask-type="alpha">
<g id="Mask">
<use xlink:href="#path0_fill" transform="translate(72 168)" fill="#FFFFFF"/>
</g>
</mask>
<g id="Mask" mask="url(#mask0_outline)">
<use xlink:href="#path0_fill" transform="translate(72 168)"/>
</g>
<g id="&#226;&#134;&#170;&#240;&#159;&#142;&#168;Color" mask="url(#mask0_outline)">
<g id="Rectangle 3">
<use xlink:href="#path1_fill" transform="translate(72 168)" fill="#333333"/>
</g>
</g>
</g>
</g>
<defs>
<path id="path0_fill" fill-rule="evenodd" d="M 7 0C 3.14243 0 0 3.14243 0 7C 0 10.8576 3.14243 14 7 14C 10.8576 14 14 10.8576 14 7C 14 3.14243 10.8618 0 7 0ZM 7 12.9231C 3.73557 12.9231 1.07692 10.2644 1.07692 7C 1.07692 3.73558 3.73557 1.07692 7 1.07692C 10.2644 1.07692 12.9231 3.73558 12.9231 7C 12.9231 10.2644 10.2644 12.9231 7 12.9231ZM 7.76142 7L 10.6136 4.15204L 9.85217 3.38641L 7 6.23857L 4.14784 3.38641L 3.38642 4.14783L 6.23859 7L 3.38642 9.85216L 4.14784 10.6136L 7 7.76141L 9.85217 10.6136L 10.6136 9.85216L 7.76142 7Z"/>
<path id="path1_fill" fill-rule="evenodd" d="M 0 0L 14 0L 14 14L 0 14L 0 0Z"/>
</defs>
</svg>
