<svg width="512" height="512" viewBox="0 0 512 512" version="1.1" xmlns="http://www.w3.org/2000/svg" xmlns:xlink="http://www.w3.org/1999/xlink">
<title>status-no</title>
<desc>Created using Figma</desc>
<g id="Canvas" transform="matrix(36.5714 0 0 36.5714 -7021.71 -6144)">
<rect x="192" y="168" width="14" height="14" fill="#E5E5E5"/>
<g id="status-no">
<mask id="mask0_outline" mask-type="alpha">
<g id="Mask">
<use xlink:href="#path0_fill" transform="translate(192 168)" fill="#FFFFFF"/>
</g>
</mask>
<g id="Mask" mask="url(#mask0_outline)">
<use xlink:href="#path0_fill" transform="translate(192 168)"/>
</g>
<g id="&#226;&#134;&#170;&#240;&#159;&#142;&#168;Color" mask="url(#mask0_outline)">
<g id="Rectangle 3">
<use xlink:href="#path1_fill" transform="translate(192 168)" fill="#333333"/>
</g>
</g>
</g>
</g>
<defs>
<path id="path0_fill" fill-rule="evenodd" d="M 7 0C 3.13821 0 0 3.13821 0 7C 0 10.8618 3.13821 14 7 14C 10.8618 14 14 10.8618 14 7C 14 3.13821 10.8618 0 7 0ZM 1.07692 7C 1.07692 5.56129 1.59435 4.24039 2.45251 3.21394L 10.7861 11.5475C 9.75961 12.4057 8.43871 12.9231 7 12.9231C 3.73558 12.9231 1.07692 10.2644 1.07692 7ZM 3.21394 2.45251L 11.5475 10.7861C 12.4057 9.75961 12.9231 8.43871 12.9231 7C 12.9231 3.73558 10.2644 1.07692 7 1.07692C 5.56129 1.07692 4.24039 1.59435 3.21394 2.45251Z"/>
<path id="path1_fill" fill-rule="evenodd" d="M 0 0L 14 0L 14 14L 0 14L 0 0Z"/>
</defs>
</svg>
