<svg width="512" height="512" viewBox="0 0 512 512" version="1.1" xmlns="http://www.w3.org/2000/svg" xmlns:xlink="http://www.w3.org/1999/xlink">
<title>status-waiting-fill</title>
<desc>Created using Figma</desc>
<g id="Canvas" transform="matrix(36.5714 0 0 36.5714 -18432 -6144)">
<rect x="504" y="168" width="14" height="14" fill="#E5E5E5"/>
<g id="status-waiting-fill">
<mask id="mask0_outline" mask-type="alpha">
<g id="Mask">
<use xlink:href="#path0_fill" transform="translate(504 168)" fill="#FFFFFF"/>
</g>
</mask>
<g id="Mask" mask="url(#mask0_outline)">
<use xlink:href="#path0_fill" transform="translate(504 168)"/>
</g>
<g id="&#226;&#134;&#170;&#240;&#159;&#142;&#168;Color" mask="url(#mask0_outline)">
<g id="Rectangle 3">
<use xlink:href="#path1_fill" transform="translate(504 168)" fill="#333333"/>
</g>
</g>
</g>
</g>
<defs>
<path id="path0_fill" fill-rule="evenodd" d="M 0 7C 0 3.14243 3.14243 0 7 0C 10.8618 0 14 3.14243 14 7C 14 10.8576 10.8575 14 7 14C 3.14243 14 0 10.8576 0 7ZM 5.65384 8.34615L 10.7692 8.34615L 10.7692 6.73076L 7.26923 6.73076L 7.26923 2.15384L 5.65384 2.15384L 5.65384 8.34615Z"/>
<path id="path1_fill" fill-rule="evenodd" d="M 0 0L 14 0L 14 14L 0 14L 0 0Z"/>
</defs>
</svg>
