<svg width="512" height="512" viewBox="0 0 512 512" version="1.1" xmlns="http://www.w3.org/2000/svg" xmlns:xlink="http://www.w3.org/1999/xlink">
<title>step-shared-insert</title>
<desc>Created using Figma</desc>
<g id="Canvas" transform="matrix(36.5714 0 0 36.5714 -24576 -6144)">
<rect x="672" y="168" width="14" height="14" fill="#E5E5E5"/>
<g id="step-shared-insert">
<mask id="mask0_outline" mask-type="alpha">
<g id="Mask">
<use xlink:href="#path0_fill" transform="translate(672 168)" fill="#FFFFFF"/>
</g>
</mask>
<g id="Mask" mask="url(#mask0_outline)">
<use xlink:href="#path0_fill" transform="translate(672 168)"/>
</g>
<g id="&#226;&#134;&#170;&#240;&#159;&#142;&#168;Color" mask="url(#mask0_outline)">
<g id="Rectangle 3">
<use xlink:href="#path1_fill" transform="translate(672 168)" fill="#333333"/>
</g>
</g>
</g>
</g>
<defs>
<path id="path0_fill" fill-rule="evenodd" d="M 5.01953 3.32812L 0 3.32812L 0 2.32812L 5.01953 2.32812L 3.39453 0.707031L 4.10156 0L 6.93359 2.82812L 4.10156 5.65625L 3.39453 4.94922L 5.01953 3.32812ZM 14 6.32812L 14 13.3281L 2 13.3281L 2 9.32812L 5 9.32812L 5 6.32812L 8 6.32812L 8 3.32812L 13 3.32812L 13 6.32812L 14 6.32812ZM 12 4.32812L 12 6.32812L 10 6.32812L 10 9.32812L 7 9.32812L 7 12.3281L 3 12.3281L 3 10.3281L 6 10.3281L 6 7.32812L 9 7.32812L 9 4.32812L 12 4.32812Z"/>
<path id="path1_fill" fill-rule="evenodd" d="M 0 0L 14 0L 14 14L 0 14L 0 0Z"/>
</defs>
</svg>
