<svg width="512" height="512" viewBox="0 0 512 512" version="1.1" xmlns="http://www.w3.org/2000/svg" xmlns:xlink="http://www.w3.org/1999/xlink">
<title>switch</title>
<desc>Created using Figma</desc>
<g id="Canvas" transform="matrix(36.5714 0 0 36.5714 -28086.9 -6144)">
<rect x="768" y="168" width="14" height="14" fill="#E5E5E5"/>
<g id="switch">
<mask id="mask0_outline" mask-type="alpha">
<g id="Mask">
<use xlink:href="#path0_fill" transform="translate(768 168)" fill="#FFFFFF"/>
</g>
</mask>
<g id="Mask" mask="url(#mask0_outline)">
<use xlink:href="#path0_fill" transform="translate(768 168)"/>
</g>
<g id="&#226;&#134;&#170;&#240;&#159;&#142;&#168;Color" mask="url(#mask0_outline)">
<g id="Rectangle 3">
<use xlink:href="#path1_fill" transform="translate(768 168)" fill="#333333"/>
</g>
</g>
</g>
</g>
<defs>
<path id="path0_fill" fill-rule="evenodd" d="M 10.3592 7.61488L 14 3.80745L 10.3592 0L 9.63104 0.76149L 12.0287 3.26894L 4.94025 3.26894L 4.94025 4.34595L 12.0287 4.34595L 9.63104 6.85339L 10.3592 7.61488ZM 3.64081 5.38512L 4.36896 6.14661L 1.97125 8.65405L 9.05975 8.65405L 9.05975 9.73106L 1.97125 9.73106L 4.36896 12.2385L 3.64081 13L 0 9.19257L 3.64081 5.38512Z"/>
<path id="path1_fill" fill-rule="evenodd" d="M 0 0L 14 0L 14 14L 0 14L 0 0Z"/>
</defs>
</svg>
