<svg width="512" height="512" viewBox="0 0 512 512" version="1.1" xmlns="http://www.w3.org/2000/svg" xmlns:xlink="http://www.w3.org/1999/xlink">
<title>symbol-bug</title>
<desc>Created using Figma</desc>
<g id="Canvas" transform="matrix(36.5714 0 0 36.5714 -30720 -6144)">
<rect x="840" y="168" width="14" height="14" fill="#E5E5E5"/>
<g id="symbol-bug">
<mask id="mask0_outline" mask-type="alpha">
<g id="Mask">
<use xlink:href="#path0_fill" transform="translate(841 168)" fill="#FFFFFF"/>
</g>
</mask>
<g id="Mask" mask="url(#mask0_outline)">
<use xlink:href="#path0_fill" transform="translate(841 168)"/>
</g>
<g id="&#226;&#134;&#170;&#240;&#159;&#142;&#168;Color" mask="url(#mask0_outline)">
<g id="Rectangle 3">
<use xlink:href="#path1_fill" transform="translate(840 168)" fill="#333333"/>
</g>
</g>
</g>
</g>
<defs>
<path id="path0_fill" fill-rule="evenodd" d="M 13 8.14352L 13 9.09102L 11.9167 9.09102L 11.9167 8.14352C 11.9167 7.55951 11.3327 7.06943 10.7191 6.90198C 10.7868 7.19196 10.8333 7.48599 10.8333 7.78821L 10.8333 9.32381C 11.5443 9.74037 12.0225 10.3938 12.1706 11.2188C 12.3525 12.2316 12.014 13.3221 11.3115 14L 10.5456 13.2608C 11.0026 12.8238 11.2269 12.0764 11.1042 11.3985C 11.0534 11.1289 10.9265 10.8063 10.6599 10.5204C 10.4567 11.2392 10.0716 11.9049 9.49609 12.4358C 8.67938 13.1873 7.62567 13.5957 6.50421 13.5957C 6.43652 13.5957 6.37305 13.5957 6.30536 13.5916C 4.46454 13.514 2.91571 12.1989 2.38251 10.4714C 2.08624 10.7655 1.94659 11.1126 1.89581 11.3985C 1.77313 12.0723 1.99738 12.8238 2.45441 13.2608L 1.68848 14C 0.986023 13.3221 0.647461 12.2316 0.829407 11.2188C 0.977539 10.3897 1.46417 9.73221 2.17938 9.31564C 2.17938 9.2906 2.17609 9.26663 2.17285 9.24318C 2.16974 9.22073 2.16669 9.19876 2.16669 9.17677L 2.16669 7.78821C 2.16669 7.47374 2.21747 7.16745 2.28937 6.86523C 1.61652 6.94283 1.08331 7.47374 1.08331 8.14352L 1.08331 9.09102L 0 9.09102L 0 8.14352C 0 6.8448 1.0918 5.79114 2.4375 5.79114L 2.70831 5.79114L 2.70831 5.7993C 2.89453 5.46849 3.12305 5.15811 3.39813 4.88857L 3.18231 4.88857C 1.99738 4.7252 1.08331 3.74504 1.08331 2.55659L 1.08331 1.77246L 2.16669 1.77246L 2.16669 2.55659C 2.16669 3.27538 2.77179 3.86348 3.52081 3.86348L 4.32062 3.86348C 4.15558 3.54083 4.0625 3.18553 4.0625 2.81796C 4.0625 2.43407 4.16827 2.07877 4.33331 1.76021L 3.27539 0.739212L 4.04132 0L 5.03156 0.955658C 5.44208 0.653442 5.94562 0.465576 6.5 0.465576C 7.05438 0.465576 7.55792 0.653442 7.96844 0.955658L 8.96289 0L 9.72882 0.735123L 8.66669 1.76021C 8.83173 2.07877 8.9375 2.43407 8.9375 2.81796C 8.9375 3.18553 8.84442 3.54083 8.67938 3.86348L 9.47919 3.86348C 10.2239 3.86348 10.8333 3.27946 10.8333 2.55659L 10.8333 1.77246L 11.9167 1.77246L 11.9167 2.55659C 11.9167 3.74095 11.0026 4.7252 9.81769 4.88448L 9.81769 4.90898L 9.62726 4.90898C 9.88965 5.17444 10.1097 5.47667 10.2917 5.7993L 10.2917 5.79114L 10.5625 5.80746C 11.7643 5.93407 13 6.88972 13 8.14352ZM 7.85413 2.81796C 7.85413 2.09918 7.24902 1.51108 6.5 1.51108C 5.75519 1.51108 5.14581 2.09918 5.14581 2.81796C 5.14581 3.1651 5.29395 3.48775 5.54358 3.73279C 6.18683 3.57759 6.81311 3.57759 7.45636 3.73279C 7.70605 3.48775 7.85413 3.1651 7.85413 2.81796Z"/>
<path id="path1_fill" fill-rule="evenodd" d="M 0 0L 14 0L 14 14L 0 14L 0 0Z"/>
</defs>
</svg>
