<svg width="512" height="512" viewBox="0 0 512 512" version="1.1" xmlns="http://www.w3.org/2000/svg" xmlns:xlink="http://www.w3.org/1999/xlink">
<title>symbol-crown</title>
<desc>Created using Figma</desc>
<g id="Canvas" transform="matrix(36.5714 0 0 36.5714 -31597.7 -6144)">
<rect x="864" y="168" width="14" height="14" fill="#E5E5E5"/>
<g id="symbol-crown">
<mask id="mask0_outline" mask-type="alpha">
<g id="Mask">
<use xlink:href="#path0_fill" transform="translate(864 169)" fill="#FFFFFF"/>
</g>
</mask>
<g id="Mask" mask="url(#mask0_outline)">
<use xlink:href="#path0_fill" transform="translate(864 169)"/>
</g>
<g id="&#226;&#134;&#170;&#240;&#159;&#142;&#168;Color" mask="url(#mask0_outline)">
<g id="Rectangle 3">
<use xlink:href="#path1_fill" transform="translate(864 168)" fill="#333333"/>
</g>
</g>
</g>
</g>
<defs>
<path id="path0_fill" d="M 14 2C 14 2.55078 13.5508 3 13 3L 13 12L 1 12L 1 3C 0.449219 3 0 2.55078 0 2C 0 1.44922 0.449219 1 1 1C 1.55078 1 2 1.44922 2 2C 2 2.35156 1.80859 2.64453 1.53906 2.82031L 4.27344 7L 6.77344 1.95312C 6.33594 1.85156 6 1.47266 6 1C 6 0.449219 6.44922 0 7 0C 7.55078 0 8 0.449219 8 1C 8 1.47266 7.66406 1.85156 7.22656 1.95312L 9.72656 7L 12.4609 2.82031C 12.1914 2.64453 12 2.35156 12 2C 12 1.44922 12.4492 1 13 1C 13.5508 1 14 1.44922 14 2Z"/>
<path id="path1_fill" fill-rule="evenodd" d="M 0 0L 14 0L 14 14L 0 14L 0 0Z"/>
</defs>
</svg>
