<svg width="512" height="512" viewBox="0 0 512 512" version="1.1" xmlns="http://www.w3.org/2000/svg" xmlns:xlink="http://www.w3.org/1999/xlink">
<title>symbol-ask</title>
<desc>Created using Figma</desc>
<g id="Canvas" transform="matrix(36.5714 0 0 36.5714 -28964.6 -6144)">
<rect x="792" y="168" width="14" height="14" fill="#E5E5E5"/>
<g id="symbol-ask">
<mask id="mask0_outline" mask-type="alpha">
<g id="Mask">
<use xlink:href="#path0_fill" transform="translate(792 168)" fill="#FFFFFF"/>
</g>
</mask>
<g id="Mask" mask="url(#mask0_outline)">
<use xlink:href="#path0_fill" transform="translate(792 168)"/>
</g>
<g id="&#226;&#134;&#170;&#240;&#159;&#142;&#168;Color" mask="url(#mask0_outline)">
<g id="Rectangle 3">
<use xlink:href="#path1_fill" transform="translate(792 168)" fill="#333333"/>
</g>
</g>
</g>
</g>
<defs>
<path id="path0_fill" fill-rule="evenodd" d="M 9.49609 2.05859C 9.41016 2.14453 9.30469 2.1875 9.1875 2.1875C 9.07031 2.1875 8.96484 2.14453 8.87891 2.05859C 8.79297 1.97266 8.75 1.86719 8.75 1.75L 8.75 0.4375C 8.75 0.320312 8.79297 0.214844 8.87891 0.128906C 8.96484 0.0429688 9.07031 0 9.1875 0C 9.30469 0 9.41016 0.0429688 9.49609 0.128906C 9.58203 0.214844 9.625 0.320312 9.625 0.4375L 9.625 1.75C 9.625 1.86719 9.58203 1.97266 9.49609 2.05859ZM 13.8711 5.12109C 13.957 5.03516 14 4.92969 14 4.8125C 14 4.69531 13.957 4.58984 13.8711 4.50391C 13.7852 4.41797 13.6797 4.375 13.5625 4.375L 12.25 4.375C 12.1328 4.375 12.0273 4.41797 11.9414 4.50391C 11.8555 4.58984 11.8125 4.69531 11.8125 4.8125C 11.8125 4.92969 11.8555 5.03516 11.9414 5.12109C 12.0273 5.20703 12.1328 5.25 12.25 5.25L 13.5625 5.25C 13.6797 5.25 13.7852 5.20703 13.8711 5.12109ZM 11.375 3.0625C 11.4922 3.0625 11.5977 3.01953 11.6836 2.93359L 13.4336 1.18359C 13.5195 1.09766 13.5625 0.992188 13.5625 0.875C 13.5625 0.757812 13.5195 0.652344 13.4336 0.566406C 13.3477 0.480469 13.2422 0.4375 13.125 0.4375C 13.0078 0.4375 12.9023 0.480469 12.8164 0.566406L 11.0664 2.31641C 10.9805 2.40234 10.9375 2.50781 10.9375 2.625C 10.9375 2.74219 10.9805 2.84766 11.0664 2.93359C 11.1523 3.01953 11.2578 3.0625 11.375 3.0625ZM 6.57031 1.75C 6.62891 1.75 6.67969 1.77344 6.72656 1.82031L 12.1797 7.27344C 12.2266 7.32031 12.25 7.37109 12.25 7.42969C 12.25 7.51172 12.2148 7.57812 12.1484 7.62109L 5.07031 12.1523C 5.19531 12.3164 5.35156 12.4492 5.53516 12.543C 5.72266 12.6406 5.91797 12.6875 6.125 12.6875C 6.30859 12.6875 6.47656 12.6523 6.63672 12.5859C 6.79688 12.5156 6.9375 12.4219 7.05469 12.3047C 7.17188 12.1875 7.26562 12.0469 7.33594 11.8867C 7.40234 11.7266 7.4375 11.5586 7.4375 11.375L 8.3125 11.375C 8.3125 11.6758 8.25391 11.9609 8.14062 12.2266C 8.02734 12.4922 7.87109 12.7266 7.67188 12.9219C 7.47656 13.1211 7.24219 13.2773 6.97656 13.3906C 6.71094 13.5039 6.42578 13.5625 6.125 13.5625C 5.76953 13.5625 5.43359 13.4805 5.11719 13.3164C 4.80078 13.1523 4.53906 12.9258 4.33594 12.6328L 2.3125 13.9297C 2.24609 13.9766 2.16406 14 2.06641 14C 1.94141 14 1.83594 13.957 1.75 13.8711L 0.128906 12.25C 0.0429688 12.1641 0 12.0586 0 11.9375C 0 11.8359 0.0234375 11.7539 0.0703125 11.6914L 6.37891 1.85156C 6.42188 1.78516 6.48828 1.75 6.57031 1.75Z"/>
<path id="path1_fill" fill-rule="evenodd" d="M 0 0L 14 0L 14 14L 0 14L 0 0Z"/>
</defs>
</svg>
