<svg width="512" height="512" viewBox="0 0 512 512" version="1.1" xmlns="http://www.w3.org/2000/svg" xmlns:xlink="http://www.w3.org/1999/xlink">
<title>symbol-review</title>
<desc>Created using Figma</desc>
<g id="Canvas" transform="matrix(36.5714 0 0 36.5714 -35986.3 -6144)">
<rect x="984" y="168" width="14" height="14" fill="#E5E5E5"/>
<g id="symbol-review">
<mask id="mask0_outline" mask-type="alpha">
<g id="Mask">
<use xlink:href="#path0_fill" transform="translate(984 168)" fill="#FFFFFF"/>
</g>
</mask>
<g id="Mask" mask="url(#mask0_outline)">
<use xlink:href="#path0_fill" transform="translate(984 168)"/>
</g>
<g id="&#226;&#134;&#170;&#240;&#159;&#142;&#168;Color" mask="url(#mask0_outline)">
<g id="Rectangle 3">
<use xlink:href="#path1_fill" transform="translate(984 168)" fill="#333333"/>
</g>
</g>
</g>
</g>
<defs>
<path id="path0_fill" fill-rule="evenodd" d="M 14 7.4375C 14 8.10938 13.8672 8.74609 13.6055 9.35547C 13.3398 9.96484 12.9648 10.4961 12.4766 10.9492L 14 14L 10.2617 12.125C 9.91016 12.207 9.55469 12.25 9.1875 12.25C 8.73828 12.25 8.29688 12.1875 7.87109 12.0664C 7.44531 11.9414 7.04688 11.7695 6.67578 11.543C 6.30469 11.3164 5.96875 11.043 5.66406 10.7188C 5.35938 10.3945 5.10547 10.0312 4.90234 9.625C 4.70703 9.625 4.51172 9.61719 4.32031 9.59766C 4.12891 9.57812 3.9375 9.54688 3.74609 9.5L 0 11.375L 1.52344 8.32031C 1.03906 7.86328 0.660156 7.33203 0.398438 6.72656C 0.132812 6.12109 0 5.48438 0 4.8125C 0 4.37109 0.0585938 3.94531 0.171875 3.53516C 0.285156 3.125 0.449219 2.74219 0.65625 2.38281C 0.863281 2.02734 1.11719 1.69922 1.40625 1.41016C 1.69922 1.11719 2.02344 0.867188 2.38281 0.65625C 2.74219 0.445312 3.125 0.285156 3.53516 0.171875C 3.94531 0.0585938 4.37109 0 4.8125 0C 5.26562 0 5.70312 0.0625 6.12891 0.183594C 6.55469 0.308594 6.95312 0.480469 7.32422 0.707031C 7.69531 0.933594 8.03125 1.20703 8.33594 1.53516C 8.64062 1.85938 8.89453 2.22266 9.09766 2.625C 9.55078 2.625 9.98438 2.67969 10.4023 2.79297C 10.8164 2.90625 11.207 3.0625 11.5703 3.26953C 11.9336 3.47266 12.2617 3.71875 12.5625 4.00781C 12.8594 4.29297 13.1172 4.61719 13.3281 4.97266C 13.543 5.33203 13.7109 5.71875 13.8242 6.13281C 13.9414 6.54688 14 6.98047 14 7.4375ZM 5.4375 4.41797C 5.77344 4.00391 6.17188 3.64844 6.63672 3.35547C 7.09766 3.06641 7.60547 2.85938 8.15625 2.73438C 7.97656 2.44922 7.76172 2.19141 7.51562 1.95703C 7.27344 1.73047 7.00781 1.53125 6.71875 1.37109C 6.43359 1.21094 6.12891 1.08594 5.80859 1C 5.48828 0.917969 5.15625 0.875 4.8125 0.875C 4.26953 0.875 3.75781 0.976562 3.28125 1.1875C 2.80469 1.39453 2.38672 1.67578 2.03125 2.03125C 1.67578 2.38672 1.39453 2.80078 1.1875 3.28125C 0.980469 3.75781 0.875 4.26953 0.875 4.8125C 0.875 5.36719 0.984375 5.89062 1.19531 6.37891C 1.41016 6.86719 1.71875 7.30078 2.125 7.68359L 2.60547 8.12891C 2.5 8.34766 2.39062 8.5625 2.28125 8.77344C 2.17188 8.98438 2.0625 9.19922 1.95312 9.41797L 3.63672 8.57812L 3.71875 8.59766C 3.84412 8.62988 3.97272 8.65555 4.09863 8.68068L 4.13281 8.6875C 4.27344 8.71484 4.41406 8.73438 4.55469 8.74219C 4.43359 8.30859 4.375 7.875 4.375 7.4375C 4.375 6.87109 4.46875 6.33203 4.65625 5.81641C 4.84375 5.30078 5.10547 4.83594 5.4375 4.41797Z"/>
<path id="path1_fill" fill-rule="evenodd" d="M 0 0L 14 0L 14 14L 0 14L 0 0Z"/>
</defs>
</svg>
