<svg width="512" height="512" viewBox="0 0 512 512" version="1.1" xmlns="http://www.w3.org/2000/svg" xmlns:xlink="http://www.w3.org/1999/xlink">
<title>tfvc-change-list</title>
<desc>Created using Figma</desc>
<g id="Canvas" transform="matrix(36.5714 0 0 36.5714 -14043.4 -7021.71)">
<rect x="384" y="192" width="14" height="14" fill="#E5E5E5"/>
<g id="tfvc-change-list">
<mask id="mask0_outline" mask-type="alpha">
<g id="Mask">
<use xlink:href="#path0_fill" transform="translate(384 193)" fill="#FFFFFF"/>
</g>
</mask>
<g id="Mask" mask="url(#mask0_outline)">
<use xlink:href="#path0_fill" transform="translate(384 193)"/>
</g>
<g id="&#226;&#134;&#170;&#240;&#159;&#142;&#168;Color" mask="url(#mask0_outline)">
<g id="Rectangle 3">
<use xlink:href="#path1_fill" transform="translate(384 192)" fill="#333333"/>
</g>
</g>
</g>
</g>
<defs>
<path id="path0_fill" fill-rule="evenodd" d="M 0 12L 6 12L 6 4L 14 4L 14 2L 8.1875 2L 6.20703 0L 0 0L 0 12ZM 8 6L 7 6L 7 5L 8 5L 8 6ZM 9 6L 14 6L 14 5L 9 5L 9 6ZM 7 7L 8 7L 8 8L 7 8L 7 7ZM 9 8L 14 8L 14 7L 9 7L 9 8ZM 7 9L 8 9L 8 10L 7 10L 7 9ZM 9 10L 14 10L 14 9L 9 9L 9 10ZM 7 11L 8 11L 8 12L 7 12L 7 11ZM 9 12L 14 12L 14 11L 9 11L 9 12Z"/>
<path id="path1_fill" fill-rule="evenodd" d="M 0 0L 14 0L 14 14L 0 14L 0 0Z"/>
</defs>
</svg>
