<svg width="512" height="512" viewBox="0 0 512 512" version="1.1" xmlns="http://www.w3.org/2000/svg" xmlns:xlink="http://www.w3.org/1999/xlink">
<title>toggle-expand</title>
<desc>Created using Figma</desc>
<g id="Canvas" transform="matrix(36.5714 0 0 36.5714 -27209.1 -7021.71)">
<rect x="744" y="192" width="14" height="14" fill="#E5E5E5"/>
<g id="toggle-expand">
<mask id="mask0_outline" mask-type="alpha">
<g id="Mask">
<use xlink:href="#path0_fill" transform="translate(744 192)" fill="#FFFFFF"/>
</g>
</mask>
<g id="Mask" mask="url(#mask0_outline)">
<use xlink:href="#path0_fill" transform="translate(744 192)"/>
</g>
<g id="&#226;&#134;&#170;&#240;&#159;&#142;&#168;Color" mask="url(#mask0_outline)">
<g id="Rectangle 3">
<use xlink:href="#path1_fill" transform="translate(744 192)" fill="#333333"/>
</g>
</g>
</g>
</g>
<defs>
<path id="path0_fill" fill-rule="evenodd" d="M 14 0L 0 0L 0 14L 14 14L 14 0ZM 10.7692 7.53847L 7.53845 7.53847L 7.53845 10.7692L 6.46155 10.7692L 6.46155 7.53847L 3.23077 7.53847L 3.23077 6.46155L 6.46155 6.46155L 6.46155 3.23077L 7.53845 3.23077L 7.53845 6.46155L 10.7692 6.46155L 10.7692 7.53847ZM 12.923 1.07692L 1.0769 1.07692L 1.0769 12.9231L 12.923 12.9231L 12.923 1.07692Z"/>
<path id="path1_fill" fill-rule="evenodd" d="M 0 0L 14 0L 14 14L 0 14L 0 0Z"/>
</defs>
</svg>
