<svg width="512" height="512" viewBox="0 0 512 512" version="1.1" xmlns="http://www.w3.org/2000/svg" xmlns:xlink="http://www.w3.org/1999/xlink">
<title>users</title>
<desc>Created using Figma</desc>
<g id="Canvas" transform="matrix(36.5714 0 0 36.5714 -1755.43 -7899.43)">
<rect x="48" y="216" width="14" height="14" fill="#E5E5E5"/>
<g id="users">
<mask id="mask0_outline" mask-type="alpha">
<g id="Mask">
<use xlink:href="#path0_fill" transform="translate(48 216)" fill="#FFFFFF"/>
</g>
</mask>
<g id="Mask" mask="url(#mask0_outline)">
<use xlink:href="#path0_fill" transform="translate(48 216)"/>
</g>
<g id="&#226;&#134;&#170;&#240;&#159;&#142;&#168;Color" mask="url(#mask0_outline)">
<g id="Rectangle 3">
<use xlink:href="#path1_fill" transform="translate(48 216)" fill="#333333"/>
</g>
</g>
</g>
</g>
<defs>
<path id="path0_fill" fill-rule="evenodd" d="M 11.8301 5.08296C 12.5478 4.5659 13.0064 3.75056 13.0064 2.83977C 13.0064 1.2767 11.6476 0 9.97877 0C 8.30998 0 6.95541 1.27272 6.95541 2.8358C 6.95541 3.7466 7.41401 4.5659 8.12739 5.08296C 7.39703 5.4409 6.7983 6.00171 6.41614 6.68579C 5.85987 6.01364 4.99363 5.58409 4.02123 5.58409C 2.35244 5.58409 0.993629 6.85284 0.993629 8.41591C 0.993629 9.32671 1.45223 10.1381 2.16985 10.6591C 0.878983 11.2875 0 12.5483 0 14L 1.08705 14C 1.08705 12.4847 2.4034 11.2517 4.02123 11.2517C 5.63906 11.2517 6.95541 12.4847 6.95541 14L 8.04247 14C 8.04247 12.5483 7.15924 11.2875 5.87261 10.6591C 6.58174 10.142 7.04034 9.33466 7.04883 8.43182C 7.04883 6.90454 8.36518 5.68352 9.97877 5.68352C 11.5966 5.68352 12.913 6.90454 12.913 8.43182L 14 8.43182C 14 6.96819 13.121 5.71136 11.8301 5.08296ZM 4.02123 10.2335C 2.95117 10.2335 2.08068 9.41818 2.08068 8.41591C 2.08068 7.41762 2.95117 6.60228 4.02123 6.60228C 5.0913 6.60228 5.96178 7.41762 5.96178 8.41591C 5.96178 9.41818 5.0913 10.2335 4.02123 10.2335ZM 8.03822 2.8358C 8.03822 3.83807 8.9087 4.65341 9.97877 4.65341C 11.0488 4.65341 11.9193 3.83807 11.9193 2.8358C 11.9193 1.83353 11.0488 1.01819 9.97877 1.01819C 8.91295 1.01819 8.03822 1.83353 8.03822 2.8358Z"/>
<path id="path1_fill" fill-rule="evenodd" d="M 0 0L 14 0L 14 14L 0 14L 0 0Z"/>
</defs>
</svg>
