<svg width="512" height="512" viewBox="0 0 512 512" version="1.1" xmlns="http://www.w3.org/2000/svg" xmlns:xlink="http://www.w3.org/1999/xlink">
<title>vsCode</title>
<desc>Created using Figma</desc>
<g id="Canvas" transform="matrix(36.5714 0 0 36.5714 -36864 0)">
<g id="vsCode">
<clipPath id="clip-0" clip-rule="evenodd">
<path d="M 1008 0L 1022 0L 1022 14L 1008 14L 1008 0Z" fill="#FFFFFF"/>
</clipPath>
<g id="BrandVisualStudioCode2017RTW_40x" clip-path="url(#clip-0)">
<g id="Vector">
<use xlink:href="#path0_fill" transform="translate(1008 0)" fill="#333333"/>
</g>
</g>
</g>
</g>
<defs>
<path id="path0_fill" d="M 14 1.456L 14 12.544L 10.5 14L 0 10.4647L 10.5 12.0243L 10.5 0L 14 1.456ZM 0.875 7.9296L 2.8448 5.98255L 0.875 4.03585L 1.673 3.7695L 3.6092 5.2276L 6.825 2.0489L 8.75 2.86685L 8.75 9.0986L 6.82465 9.9169L 3.60885 6.73855L 1.673 8.1963L 0.875 7.9296ZM 4.6123 5.98255L 6.82465 7.64855L 6.82465 4.31655L 4.6123 5.98255Z"/>
</defs>
</svg>
