<svg width="512" height="512" viewBox="0 0 512 512" version="1.1" xmlns="http://www.w3.org/2000/svg" xmlns:xlink="http://www.w3.org/1999/xlink">
<title>watch-eye-fill</title>
<desc>Created using Figma</desc>
<g id="Canvas" transform="matrix(36.5714 0 0 36.5714 -16676.6 -7899.43)">
<rect x="456" y="216" width="14" height="14" fill="#E5E5E5"/>
<g id="watch-eye-fill">
<mask id="mask0_outline" mask-type="alpha">
<g id="Mask">
<use xlink:href="#path0_fill" transform="translate(456 218)" fill="#FFFFFF"/>
</g>
</mask>
<g id="Mask" mask="url(#mask0_outline)">
<use xlink:href="#path0_fill" transform="translate(456 218)"/>
</g>
<g id="&#226;&#134;&#170;&#240;&#159;&#142;&#168;Color" mask="url(#mask0_outline)">
<g id="Rectangle 3">
<use xlink:href="#path1_fill" transform="translate(456 216)" fill="#333333"/>
</g>
</g>
</g>
</g>
<defs>
<path id="path0_fill" fill-rule="evenodd" d="M 0 6.37944C 0 2.86215 3.14172 0 7 0C 10.8622 0 14 2.86215 14 6.37944L 12.9921 6.37944C 12.9921 3.43948 10.3032 1.04823 7 1.04823C 3.69684 1.04823 1.00787 3.43948 1.00787 6.37944L 0 6.37944ZM 7 3.75887C 5.61023 3.75887 4.48032 4.93402 4.48032 6.37943C 4.48032 7.82483 5.61023 9 7 9C 8.38977 9 9.51968 7.82483 9.51968 6.37943C 9.51968 4.93402 8.38977 3.75887 7 3.75887ZM 0.0708618 5.47862L 0.0747986 5.49091L 0.0708618 5.51138L 0.0708618 5.47862Z"/>
<path id="path1_fill" fill-rule="evenodd" d="M 0 0L 14 0L 14 14L 0 14L 0 0Z"/>
</defs>
</svg>
