<svg xmlns="http://www.w3.org/2000/svg" viewBox="0 0 2048 2048"><path d="M2048 1310l-1024 598L0 1310 1024 140l1024 1170m-526 60q30 0 57-11.5t46.5-31q19.5-19.5 31-46.5t11.5-57q0-30-11.5-56.5t-31.5-46q-20-19.5-46.5-31T1522 1079q-32 0-62 14l-314-359q23-35 23-79 0-30-11.5-56.5t-31-46q-19.5-19.5-46-31T1024 510q-30 0-56.5 11.5t-46.5 31q-20 19.5-31.5 46T878 655q0 21 6.5 41.5T902 734l-314 359q-30-14-62-14-30 0-56.5 11.5t-46.5 31q-20 19.5-31.5 46T380 1224q0 30 11.5 57t31 46.5q19.5 19.5 46.5 31t57 11.5q28 0 54-10.5t46-30.5l257 150q-5 20-5 36 0 30 11.5 56.5T921 1618q20 20 46.5 31.5t56.5 11.5q30 0 56.5-11.5t46.5-31.5q20-20 31.5-46.5t11.5-56.5q0-16-5-36l256-150q20 20 46 30.5t55 10.5M962 787q5 2 10.5 4t11.5 4v580q-35 11-61 35l-257-150q5-20 5-36 0-44-23-79l314-358m438 358q-23 35-23 79 0 20 4 36l-256 150q-26-24-61-35V795q6-2 11.5-4t10.5-4l314 358z"/></svg>