<svg xmlns="http://www.w3.org/2000/svg" viewBox="0 0 2048 2048"><path d="M1408 320q54 0 108 4t108 12q24 4 60 11.5t76 19.5q40 12 80 29t72 39q32 22 52 49t20 60v960q0 33-20 60t-52 49q-32 22-72 39t-80 29q-40 12-76 19.5t-60 11.5q-54 8-108 12t-108 4q-48 0-96-3.5t-96-9.5v282L64 1731V317L1216 51v282q48-6 96-9.5t96-3.5M721 1381l167 10q-55-189-111-375.5T668 640l-164 10-199 705 146 9 38-153 190 6 42 164m1199 123v-208q-46 35-111 56.5t-135.5 34q-70.5 12.5-140.5 17t-125 4.5q-48 0-96-3t-96-8v258q48 7 96 9.5t96 2.5q51 0 100-3t99-10q17-2 46.5-7.5t64.5-14q35-8.5 71-21t65-28q29-15.5 47.5-35.5t18.5-44m0-320V976q-46 35-111 56.5t-135.5 34q-70.5 12.5-140.5 17t-125 4.5q-48 0-96-3t-96-8v261q48 7 96 9.5t96 2.5q51 0 100-3t99-11q17-2 47-7.5t64.5-14.5q34.5-9 70.5-21t65-28.5q29-16.5 47.5-36.5t18.5-44m0-320V656q-46 35-111 56.5t-135.5 34q-70.5 12.5-140.5 17t-125 4.5q-48 0-96-3t-96-8v258q48 7 96 9.5t96 2.5q51 0 100-3t99-10q17-2 46.5-7.5t64.5-14q35-8.5 71-21t65-28q29-15.5 47.5-35.5t18.5-44m-512-157q51 0 100-3t99-10q17-2 46.5-7.5t64.5-14q35-8.5 71-21t65-28q29-15.5 47.5-35.5t18.5-44q0-24-18.5-44t-47.5-35.5q-29-15.5-65-28t-71-21q-35-8.5-64.5-14T1607 394q-50-7-99-10t-100-3q-48 0-96 2.5t-96 9.5v302q48 7 96 9.5t96 2.5m-764 369l-124-2 58-229q2-10 4-15 0 1 4 18.5t10.5 43Q603 917 611 947t14.5 57q6.5 27 12 47t6.5 25z"/></svg>