<svg xmlns="http://www.w3.org/2000/svg" viewBox="0 0 2048 2048"><path d="M1408 352q56 0 111 4t109 13q19 3 50 10t67 17.5q36 10.5 73 25t66.5 33q29.5 18.5 48.5 41t19 48.5v960q0 26-19 48.5t-48.5 41q-29.5 18.5-66.5 33t-73 25q-36 10.5-67 17.5t-50 10q-54 9-109 13t-111 4q-56 0-111-4t-109-13q-19-3-50-10t-67-17.5q-36-10.5-73-25t-66.5-33q-29.5-18.5-48.5-41t-19-48.5v-82l-168-11-42-163-140-4-39 154-211-13 215-765 212-13 173 589V544q0-26 19-48.5t48.5-41q29.5-18.5 66.5-33t73-25q36-10.5 67-17.5t50-10q54-9 109-13t111-4z"/></svg>