<svg xmlns="http://www.w3.org/2000/svg" viewBox="0 0 2048 2048"><path d="M1148 1152q-83-62-179.5-95T768 1024q-88 0-170 23t-153 64.5q-71 41.5-129.5 100t-100 129.5q-41.5 71-64.5 153t-23 170H0q0-120 35.5-231T136 1228q65-94 156.5-167T496 946q-56-35-100.5-82.5T320 760q-31-56-47.5-119T256 512q0-106 40.5-199t110-162.5Q476 81 569 40.5T768 0q106 0 199 40.5t162.5 110q69.5 69.5 110 162.5t40.5 199q0 66-16.5 129T1216 760q-31 56-76 103.5T1039 946q60 23 113 54v152h-4M384 512q0 80 30 149.5t82.5 122Q549 836 618.5 866T768 896q79 0 149-30t122.5-82.5q52.5-52.5 82.5-122t30-149.5q0-79-30-149t-82.5-122.5Q987 188 917 158t-149-30q-80 0-149.5 30t-122 82.5Q444 293 414 363t-30 149m1664 768v768H1024v-768h256v-256h512v256h256m-640 0h256v-128h-256v128m512 384h-128v128h-128v-128h-256v128h-128v-128h-128v256h768v-256m0-256h-768v128h768v-128z"/></svg>