<svg xmlns="http://www.w3.org/2000/svg" viewBox="0 0 2048 2048"><path d="M2048 1664v128h-256v256h-128v-256h-256v-128h256v-256h128v256h256M1040 946q95 36 176.5 95t144.5 135.5q63 76.5 105 168t59 191.5h-130q-23-112-81-206t-141.5-162q-83.5-68-187-106T768 1024q-88 0-170 23t-153 64.5q-71 41.5-129.5 100t-100 129.5q-41.5 71-64.5 153t-23 170H0q0-120 35.5-231T136 1228q65-94 156.5-167T496 946q-113-74-176.5-186T256 512q0-106 40-199.5t109.5-163Q475 80 568.5 40T768 0q106 0 199.5 40t163 109.5q69.5 69.5 109.5 163t40 199.5q0 66-16.5 129T1216 760q-31 56-75.5 103.5T1040 946M384 512q0 80 30 149.5t82.5 122Q549 836 618.5 866T768 896q79 0 149-30t122.5-82.5q52.5-52.5 82.5-122t30-149.5q0-79-30-149t-82.5-122.5Q987 188 917 158t-149-30q-80 0-149.5 30t-122 82.5Q444 293 414 363t-30 149z"/></svg>