<svg xmlns="http://www.w3.org/2000/svg" viewBox="0 0 2048 2048"><path d="M1250 1333q68 34 123 85.5t93 117.5h-157q-54-61-128.5-94.5T1024 1408q-80 0-149.5 30t-122 82.5Q700 1573 670 1643t-30 149H512q0-73 20-141.5t57.5-128.5q37.5-60 90.5-108t118-81q-75-54-116.5-135.5T640 1024q0-53-20-99.5T565 843q-35-35-81.5-55T384 768q-53 0-99.5 20T203 843q-35 35-55 81.5t-20 99.5H0q0-52 14-102t39.5-93.5Q79 785 116 749t83-61q-34-35-52.5-81T128 512q0-53 20-99.5t55-81.5q35-35 81.5-55t99.5-20q53 0 99.5 20t81.5 55q35 35 55 81.5t20 99.5q0 49-18.5 95T569 688q42 23 75.5 55t59.5 70q27-40 62-72t76-54.5q41-22.5 87.5-34.5t94.5-12q48 0 94 12t87.5 34.5Q1247 709 1282 741t62 72q26-38 59.5-70t75.5-55q-34-35-52.5-81t-18.5-95q0-53 20-99.5t55-81.5q35-35 81.5-55t99.5-20q53 0 99.5 20t81.5 55q35 35 55 81.5t20 99.5q0 49-18.5 95t-52.5 81q46 25 83 61t62.5 79.5Q2020 872 2034 922t14 102h-128q0-53-20-99.5t-55-81.5q-35-35-81.5-55t-99.5-20q-53 0-99.5 20t-81.5 55q-35 35-55 81.5t-20 99.5q0 92-41.5 173.5T1250 1333m414-949q-27 0-50 10t-40.5 27.5Q1556 439 1546 462t-10 50q0 27 10 50t27.5 40.5Q1591 620 1614 630t50 10q27 0 50-10t40.5-27.5Q1772 585 1782 562t10-50q0-27-10-50t-27.5-40.5Q1737 404 1714 394t-50-10M384 640q27 0 50-10t40.5-27.5Q492 585 502 562t10-50q0-27-10-50t-27.5-40.5Q457 404 434 394t-50-10q-27 0-50 10t-40.5 27.5Q276 439 266 462t-10 50q0 27 10 50t27.5 40.5Q311 620 334 630t50 10m640 640q53 0 99.5-20t81.5-55q35-35 55-81.5t20-99.5q0-53-20-99.5t-55-81.5q-35-35-81.5-55t-99.5-20q-53 0-99.5 20T843 843q-35 35-55 81.5t-20 99.5q0 53 20 99.5t55 81.5q35 35 81.5 55t99.5 20m768 384h256v128h-256v256h-128v-256h-256v-128h256v-256h128v256z"/></svg>