<svg xmlns="http://www.w3.org/2000/svg" viewBox="0 0 2048 2048"><path d="M1024 0q141 0 272 36.5t245 103q114 66.5 207.5 160t160 207.5q66.5 114 103 245t36.5 272q0 99-19 195.5t-56 188.5h-309v-128h218q38-126 38-256 0-133-37-256h-363q8 64 12 127.5t4 128.5h-128q0-65-4.5-128.5T1391 768H657q-8 64-12.5 127.5T640 1024q0 65 4.5 128.5T657 1280h623v128H679q8 39 23 92.5t37 110q22 56.5 50.5 112T854 1822q36 44 78.5 71t91.5 27q30 0 57-11.5t51-30q24-18.5 44.5-41t36.5-45.5h67v222q-63 17-127 25.5t-129 8.5q-141 0-272-36.5t-245-103q-114-66.5-207.5-160t-160-207.5q-66.5-114-103-244.5T0 1024q0-141 36.5-272t103-245q66.5-114 160-207.5t207.5-160Q621 73 751.5 36.5T1024 0M731 177q-85 29-161.5 75T427 357q-66 59-119.5 130.5T215 640h333q11-59 27.5-120.5t39-121Q637 339 666 282.5T731 177m0 1694q-36-49-65-105.5t-51.5-116q-22.5-59.5-39-121T548 1408H215q39 81 92.5 152.5t119.5 131q66 59.5 142.5 105T731 1871m-203-591q-8-64-12-127.5t-4-128.5q0-65 4-128.5T528 768H165q-37 123-37 256t37 256h363m841-640q-8-39-23-92t-37-110q-22-57-50.5-112.5T1194 226q-36-44-78.5-71t-91.5-27q-49 0-91.5 27T854 226q-36 44-64.5 99.5T739 438q-22 57-37 110t-23 92h690m464 0q-39-81-92.5-152.5T1621 357q-66-59-142.5-105T1317 177q36 49 65 105.5t51.5 116q22.5 59.5 39 121T1500 640h333m-297 896h384v128h-384v384h-128v-384h-384v-128h384v-384h128v384z"/></svg>