<svg xmlns="http://www.w3.org/2000/svg" viewBox="0 0 2048 2048"><path d="M2048 640v1152H0V640h440q1 0 33.5-10.5T560 601q54-18 126.5-42t154-51.5q81.5-27.5 169-57T1181 393q84-28 161.5-54t139-46.5q61.5-20.5 103-34.5t55.5-19l134 401h274m-1206 0h797l-79-239-718 239m1078 128H128v896h1792V768m-256 128v128h-128V896h128m0 256v128h-128v-128h128m0 384h-128v-128h128v128m128-384h-128v-128h128v128m0 256h-128v-128h128v128M469 1280l-85-256h128l64 128h277l-85-256h128l128 256h256q26 0 45 19t19 45q0 26-19 45t-45 19h-256l-128 256H768l85-256H469z"/></svg>