<svg xmlns="http://www.w3.org/2000/svg" viewBox="0 0 2048 2048"><path d="M1408 1152v128H896V640h128v512h384m240-1024q83 0 156 31.5t127 85.5q54 54 85.5 127t31.5 156q0 50-12 97.5t-35 90.5q-23 43-56 80t-74 64q25 71 37 144t12 148q0 162-56.5 313.5T1701 1739l200 200-90 90-200-200q-122 106-273.5 162.5T1024 2048q-162 0-313.5-56.5T437 1829l-200 200-90-90 200-200q-106-122-162.5-273.5T128 1152q0-75 12-148t37-144q-41-27-74-64t-56-80q-23-43-35-90.5T0 528q0-83 31.5-156T117 245q54-54 127-85.5T400 128q49 0 97 12t91 35q43 23 80 56t64 74q71-25 144-37t148-12q75 0 148 12t144 37q27-41 64-74t80-56q43-23 90.5-35t97.5-12M400 256q-56 0-105.5 21.5T208 336q-37 37-58.5 86.5T128 528q0 62 26.5 117.5T229 739q64-124 161-221t221-161q-38-48-93.5-74.5T400 256m624 1664q159 0 298.5-60.5t244-165q104.5-104.5 165-244T1792 1152q0-159-60.5-298.5t-165-244q-104.5-104.5-244-165T1024 384q-159 0-298.5 60.5t-244 165Q377 714 316.5 853.5T256 1152q0 159 60.5 298.5t165 244q104.5 104.5 244 165T1024 1920m795-1181q48-38 74.5-93.5T1920 528q0-56-21.5-105.5T1840 336q-37-37-86.5-58.5T1648 256q-62 0-117.5 26.5T1437 357q124 64 221 161t161 221z"/></svg>