<svg xmlns="http://www.w3.org/2000/svg" viewBox="0 0 2048 2048"><path d="M959 1026q-48-2-99-12t-94-31q-17-8-27-23.5T729 925q0-26 19-45t45-19q13 0 27 6 66 29 138 30V678q-37-13-71.5-32t-61-45.5Q799 574 783 540t-16-77q0-41 16.5-74t43-57.5q26.5-24.5 61-41T958 266q0-29 16-50.5t48-21.5q27 0 45.5 18.5T1086 258q35 2 66.5 9.5T1217 284l-44 120q-21-8-43-12t-44-6v200q34 12 68.5 32t62 47q27.5 27 44.5 61t17 74q0 44-15 80t-40.5 63q-25.5 27-61 45.5T1086 1016q0 28-17.5 48t-46.5 20q-25 0-43-17t-20-41m127-143q28-11 46-30.5t18-51.5q0-12-6.5-23t-16-20.5q-9.5-9.5-20.5-17t-21-13.5v156M895 463q0 28 20.5 46.5T958 539V400q-3 1-13 5.5t-12 6.5q-14 5-26 20t-12 31m745 351q92 36 167 96t128.5 137.5q53.5 77.5 83 169T2048 1407q0 88-23 170t-64.5 153q-41.5 71-100 129.5T1731 1960q-71 42-153 65t-170 23q-104 0-202-33t-181-96q-84 63-182 96t-203 33q-89 0-170.5-23T317 1960.5q-71-41.5-129.5-100t-100-130Q46 1659 23 1577.5T0 1407q0-99 29.5-190.5t83-169Q166 970 241 910t167-96q-24-84-24-173 0-88 23-170t64.5-153q41.5-71 100-129.5T701 88q71-42 153-65t170-23q88 0 170 23t153 65q71 42 129.5 100.5t100 129.5q41.5 71 64.5 153t23 170q0 89-24 173m-616-686q-106 0-199.5 40.5T661.5 279Q592 349 552 442t-40 199q0 106 40 199.5t109.5 163q69.5 69.5 163 110T1024 1154q106 0 199.5-40.5t163-110q69.5-69.5 109.5-163t40-199.5q0-106-40-199t-109.5-163q-69.5-70-163-110.5T1024 128M640 1920q106 0 199.5-40.5t163-110q69.5-69.5 109.5-163t40-199.5q0-68-20-134-54 9-108 9-105 0-203.5-33T638 1152q-7 4-13 5-88 26-133.5 91.5T446 1405v2h126q26 0 45 19t19 45q0 31-17 44.5t-41 18q-24 4.5-51 3t-46-1.5q35 59 93.5 92.5T702 1661q29 0 54.5-6t51.5-17q13-5 26-5 26 0 45 18.5t19 44.5q0 29-22.5 47t-54 28.5q-31.5 10.5-64.5 14t-55 3.5q-61 0-117.5-18.5t-104-51.5q-47.5-33-83.5-80t-57-104q-16 0-31-3t-26.5-10q-11.5-7-18.5-19.5t-7-31.5q0-26 17.5-44t43.5-20q0-56 14-109.5t41-100q27-46.5 67.5-83.5t93.5-60q-23-29-43.5-60T453 930q-74 29-133.5 77.5t-102.5 111q-43 62.5-66 136T128 1407q0 106 40 199.5t109.5 163q69.5 69.5 163 110T640 1920m768 0q106 0 199.5-40.5t163-110q69.5-69.5 109.5-163t40-199.5q0-79-23-152.5t-66-135.5q-43-62-103-110.5T1595 931q-38 74-93 136t-124 108l93 126 140-187q19-26 51-26 27 0 46 19t19 46q0 20-13 38l-180 239v105q19 0 41.5-.5t42 4.5q19.5 5 33 18.5t13.5 41.5q0 28-13.5 41.5t-33 18.5q-19.5 5-42 4.5t-41.5-.5q0 19 .5 41.5t-4.5 42q-5 19.5-18.5 33T1470 1793q-28 0-41.5-13.5t-18.5-33q-5-19.5-4.5-42t.5-41.5q-19 0-41 .5t-41.5-4.5q-19.5-5-32.5-18.5t-13-41.5q0-28 13-41.5t32.5-18.5q19.5-5 42-4.5t40.5.5v-105l-142-194-6 2q12 41 17 84t5 85q0 118-40.5 226.5T1121 1830q64 44 136.5 67t150.5 23z"/></svg>