<svg xmlns="http://www.w3.org/2000/svg" viewBox="0 0 2048 2048"><path d="M128 1024q0 149 46.5 285.5t131 249.5Q390 1672 508 1756t260 126v132q-169-44-310-138.5T215 1650q-102-131-158.5-291T0 1024q0-141 36.5-272T140 507.5q67-113.5 160.5-207t207-160.5Q621 73 752 36.5T1024 0q135 0 260.5 33.5t236 95Q1631 190 1723.5 277t161 193.5Q1953 577 1994.5 700t50.5 257l-154-154q-38-148-120.5-272.5T1573 317q-115-89-255.5-139T1024 128q-124 0-238 32t-213.5 90.5Q473 309 391 391T250.5 572.5Q192 672 160 786.5T128 1024m896-512q-106 0-199 40.5t-162.5 110Q593 732 552.5 825T512 1024q0 103 38.5 196T662 1386l-91 91q-91-91-139-208t-48-245q0-88 23-170t64.5-153q41.5-71 100-129.5t129.5-100Q772 430 854 407t170-23q75 0 147 17.5t137.5 50.5q65.5 33 122.5 80.5T1533 640h-174q-70-62-155.5-95T1024 512m603 256l421 421v859H896V768h731m37 219v165h165l-165-165m256 933v-640h-384V896h-512v1024h896m-128-512v384h-128v-384h128m-640 384v-512h128v512h-128m256 0v-256h128v256h-128z"/></svg>