<svg xmlns="http://www.w3.org/2000/svg" viewBox="0 0 2048 2048"><path d="M2048 1024q0 142-36.5 272.5t-103 244.5q-66.5 114-160 207.5t-207.5 160q-114 66.5-245 103t-272 36.5q-142 0-272.5-36.5t-244.5-103q-114-66.5-207.5-160t-160-207.5q-66.5-114-103-245T0 1024q0-26 19-45t45-19q26 0 45 19t19 45q0 124 32 238t90.5 213.5Q309 1575 391 1657t181.5 140.5q99.5 58.5 214 90.5t237.5 32q123 0 237.5-32t214-90.5Q1575 1739 1657 1657t140.5-181.5q58.5-99.5 90.5-214t32-237.5q0-123-32-237.5t-90.5-214Q1739 473 1657 391t-181.5-140.5q-99.5-58.5-214-90.5T1024 128q-26 0-45-19t-19-45q0-26 19-45t45-19q141 0 272 36.5t245 103q114 66.5 207.5 160t160 207.5q66.5 114 103 245t36.5 272m-1024 640q-26 0-45-19t-19-45q0-26 19-45t45-19q106 0 199-40.5t162.5-110q69.5-69.5 110-162.5t40.5-199q0-106-40.5-199t-110-162.5Q1316 593 1223 552.5T1024 512q-26 0-45-19t-19-45q0-26 19-45t45-19q133 0 249.5 50T1477 571q87 87 137 203.5t50 249.5q0 133-50 249.5T1477 1477q-87 87-203.5 137t-249.5 50m-64-832q0-26 19-45t45-19q53 0 99.5 20t81.5 55q35 35 55 81.5t20 99.5q0 26-19 45t-45 19q-26 0-45-19t-19-45q0-27-10-50t-27.5-40.5Q1097 916 1074 906t-50-10q-26 0-45-19t-19-45z"/></svg>