<svg xmlns="http://www.w3.org/2000/svg" viewBox="0 0 2048 2048"><path d="M1115 1024h677l-128 128H987l-314 313q45 36 70 88.5t25 110.5q0 53-20.5 99.5t-55 81q-34.5 34.5-81.5 55t-99 20.5q-53 0-99.5-20.5t-81-55q-34.5-34.5-55-81T256 1664q0-52 20.5-99t55-81.5q34.5-34.5 81-55T512 1408l35 2 258-258H478q-35 59-94 93.5T256 1280q-53 0-99.5-20.5t-81-55q-34.5-34.5-55-81T0 1024q0-52 20.5-99t55-81.5q34.5-34.5 81-55T256 768q52 0 99 20.5t81.5 55q34.5 34.5 55 81.5t20.5 99h421l512-512h182l-512 512m-859 128q27 0 50-10t40.5-27.5Q364 1097 374 1074t10-50q0-27-10-50t-27.5-40.5Q329 916 306 906t-50-10q-27 0-50 10t-40.5 27.5Q148 951 138 974t-10 50q0 27 10 50t27.5 40.5Q183 1132 206 1142t50 10m256 640q27 0 50-10t40.5-27.5Q620 1737 630 1714t10-50q0-27-10-50t-27.5-40.5Q585 1556 562 1546t-50-10q-27 0-50 10t-40.5 27.5Q404 1591 394 1614t-10 50q0 27 10 50t27.5 40.5Q439 1772 462 1782t50 10M1920 256h128v128h-128V256M2048 0v128h-128V0h128m-384 0h128v128h-128V0m-128 128h-128V0h128v128m-256 0h-128V0h128v128m-256 0H896V0h128v128m-256 0H640V0h128v128m-256 0H384V0h128v128m0 256H384V256h128v128m0 256H384V512h128v128m1408-128h128v128h-128V512m0 256h128v128h-128V768m0 256h128v128h-128v-128m0 256h128v128h-128v-128m0 256h128v128h-128v-128m-256 0h128v128h-128v-128m-256 0h128v128h-128v-128m-256 0h128v128h-128v-128m-256 0h128v128H896v-128z"/></svg>