<svg xmlns="http://www.w3.org/2000/svg" viewBox="0 0 2048 2048"><path d="M0 256h128v128H0V256m0 256h128v128H0V512m0 256h128v128H0V768m0 256h128v128H0v-128m0 512h128v128H0v-128M256 256h128v128H256V256m0 1280h128v128H256v-128m1664 0h128v128h-128v-128M0 1280h128v128H0v-128m1920 0h128v128h-128v-128m0-256h128v128h-128v-128m0-256h128v128h-128V768m0-256h128v128h-128V512m128-256v128h-128V256h128m-384 1280h128v128h-128v-128m0-1280h128v128h-128V256m-1152 0h1024v1408H512V256m128 1280h768V384H640v1152z"/></svg>