<svg xmlns="http://www.w3.org/2000/svg" viewBox="0 0 2048 2048"><path d="M608 128q45 0 77.5 9.5t58 23.5q25.5 14 45.5 31t40.5 31q20.5 14 44 23.5T928 256h992q27 0 50 10t40.5 27.5Q2028 311 2038 334t10 50v640h-128V384H928q-31 0-54.5 9.5t-44 23.5Q809 431 789 448t-45.5 31q-25.5 14-58 23.5T608 512H128v1152h768v128H0V256q0-27 10-50t27.5-40.5Q55 148 78 138t50-10h480m0 256q24 0 42-4.5t33-13q15-8.5 29.5-20T744 320q-17-15-31.5-26.5t-29.5-20q-15-8.5-33-13t-42-4.5H128v128h480m416 768h1024v896H1024v-896m128 128v128h128v128h-128v128h128v128h-128v128h768v-128h-128v-128h128v-128h-128v-128h128v-128h-768m-123-295q-17-41-53-65t-80-24v448q0 44-19.5 79.5T825 1484q-32 25-72 38.5t-81 13.5q-41 0-81-13.5t-72-38.5q-32-25-51.5-60.5T448 1344q0-44 19.5-79.5T519 1204q32-25 72-38.5t81-13.5q51 0 96 18V768h128q41 0 79.5 12t71.5 34q33 22 58.5 53t41.5 69l-118 49m-357 423q13 0 29.5-4t31.5-12q15-8 25-20t10-28q0-16-10-28t-25-20q-15-8-31.5-12t-29.5-4q-13 0-29.5 4t-31.5 12q-15 8-25 20t-10 28q0 16 10 28t25 20q15 8 31.5 12t29.5 4z"/></svg>