<svg xmlns="http://www.w3.org/2000/svg" viewBox="0 0 2048 2048"><path d="M960 0q53 0 98.5 6.5t88.5 20q43 13.5 84.5 33.5t85.5 48q74 46 145.5 75t144.5 45q73 16 150 22t163 6v352q0 157-30.5 308.5t-89 291.5q-58.5 140-142.5 266t-190.5 233.5Q1361 1815 1233 1901.5T960 2048q-145-60-273-146.5t-234.5-194Q346 1600 262 1474t-142.5-266q-58.5-140-89-291T0 608V256q87 0 164-6t149.5-22q72.5-16 144-45T604 107q43-27 85-47t84.5-33.5Q816 13 862 6.5T960 0m832 382q-152-7-286-48.5T1243 212q-68-43-134.5-63.5T960 128q-82 0-149 21t-135 64q-128 80-262.5 121T128 382v226q0 210 58.5 406.5t166.5 366Q461 1550 615 1685t345 223q191-88 345-223t262-304.5q108-169.5 166.5-366T1792 608V382M960 256q62 0 110.5 14.5T1171 318q115 73 236 117.5t257 63.5v109q0 182-49.5 354.5t-141 323Q1382 1436 1252 1559t-292 207q-162-84-292.5-207t-222-273.5Q354 1135 305 962.5T256 608V499q136-19 256-62.5T747 319q51-32 101-47.5T960 256m96 640l128-256H960l-224 448h192l-192 384 576-576h-256z"/></svg>