<svg xmlns="http://www.w3.org/2000/svg" viewBox="0 0 2048 2048"><path d="M1939 1235l90 90-685 686-365-366 90-90 275 274 595-594M0 1984q0-26 19-45L1235 723q19-19 45-19t45 19q19 19 19 45t-19 45L109 2029q-19 19-45 19t-45-19q-19-19-19-45M1408 0h128v256h-128V0m-207 395l-182-181 91-91 181 182-90 90m-49 245H896V512h256v128m256 256h128v256h-128V896m335-139l182 181-91 91-181-182 90-90m305-245v128h-256V512h256m-305-117l-90-90 181-182 91 91-182 181m-271 117q26 0 45 19t19 45q0 26-19 45t-45 19q-26 0-45-19t-19-45q0-26 19-45t45-19z"/></svg>