<svg xmlns="http://www.w3.org/2000/svg" viewBox="0 0 2048 2048"><path d="M896 821q-70-17-129-55.5t-101.5-92Q623 620 599.5 554T576 416q0-86 33-161.5t89.5-132Q755 66 830.5 33T992 0q86 0 161.5 33t132 89.5q56.5 56.5 89.5 132t33 161.5q0 72-23.5 138t-66 119.5q-42.5 53.5-101.5 92T1088 821v843H896v-256H640v-192h256V821m96-629q-46 0-87 17.5t-71.5 48Q803 288 785.5 329T768 416q0 46 17.5 87t48 71.5q30.5 30.5 71.5 48t87 17.5q46 0 87-17.5t71.5-48q30.5-30.5 48-71.5t17.5-87q0-46-17.5-87t-48-71.5q-30.5-30.5-71.5-48T992 192m536 315q77 62 138 138.5t103 163q42 86.5 64.5 181.5t22.5 194q0 119-31 229.5t-87.5 206.5q-56.5 96-135 174.5t-174.5 135q-96 56.5-206.5 87.5T992 2048q-119 0-229.5-31T556 1930q-96-56-175-135t-135-175q-56-96-87-206.5T128 1184q0-99 22.5-194T215 808.5q42-86.5 103-163T456 507q18 104 72 192-100 96-154 221.5T320 1184q0 93 24 178.5t68 160.5q44 75 105 136t136 105q75 44 160.5 68t178.5 24q93 0 178.5-24t160.5-68q75-44 136-105t105-136q44-75 68-160.5t24-178.5q0-138-54-263.5T1456 699q54-88 72-192z"/></svg>