<svg xmlns="http://www.w3.org/2000/svg" viewBox="0 0 2048 2048"><path d="M2048 256v1792H256v-640l128 128v384h1536V384h-768V256h896M704 1562L102 960l538-539V192q0-40 15-75t41-61q26-26 61-41t75-15q40 0 75 15t61 41q26 26 41 61t15 75v576H896V192q0-26-19-45t-45-19q-26 0-45 19t-19 45v283L347 896h842l65-64-83-83 90-90 173 173-730 730m357-538H347l357 358 357-358m417 786q-67 0-129.5-23t-110.5-64.5q-48-41.5-77-99.5t-29-129q0-43 12-84t35-77l293-461 286 450q23 38 36 79.5t13 86.5q0 67-26.5 126t-71.5 102.5q-45 43.5-105 68.5t-126 25m-161-389q-22 33-22 71 0 36 15.5 64.5t41 48.5q25.5 20 57 30.5t64.5 10.5q33 0 64-11.5t54.5-32.5q23.5-21 38-50t14.5-64q0-41-24-79l-148-233-155 245z"/></svg>