<svg xmlns="http://www.w3.org/2000/svg" viewBox="0 0 2048 2048"><path d="M256 384h512v384H256V384m128 256h256V512H384v128M256 896h512v384H256V896m128 256h256v-128H384v128m512-768h512v384H896V384m128 256h256V512h-256v128m512-256h512v384h-512V384m128 256h256V512h-256v128M896 896h512v384H896V896m128 256h256v-128h-256v128m512-256h512v384h-512V896m128 256h256v-128h-256v128M256 1408h512v384H256v-384m128 256h256v-128H384v128m1152-256h512v384h-512v-384m128 256h256v-128h-256v128m384-1536v128H128v1664H0V128h2048z"/></svg>