<svg xmlns="http://www.w3.org/2000/svg" viewBox="0 0 2048 2048"><path d="M1024 0q141 0 271.5 36.5T1540 140q114 67 207.5 160.5T1908 508q67 114 103.5 244.5T2048 1024q0 141-36.5 271.5T1908 1540q-67 114-160.5 207.5T1540 1908q-114 67-244.5 103.5T1024 2048q-141 0-271.5-36.5T508 1908q-114-67-207.5-160.5T140 1540q-67-114-103.5-244.5T0 1024q0-141 36.5-271.5T140 508q67-114 160.5-207.5T508 140Q622 73 752.5 36.5T1024 0m0 1920q164 0 313.5-56t273.5-163L347 437Q240 561 184 710.5T128 1024q0 124 32 238.5t90.5 214q58.5 99.5 140 181t181 140q99.5 58.5 214 90.5t238.5 32m677-309q107-124 163-273.5t56-313.5q0-124-32-238.5t-90.5-214q-58.5-99.5-140-181t-181-140q-99.5-58.5-214-90.5T1024 128q-164 0-313.5 56T437 347l1264 1264z"/></svg>