<svg xmlns="http://www.w3.org/2000/svg" viewBox="0 0 2048 2048"><path d="M1301 1110q-27 17-52.5 35.5T1200 1187q-89-80-200.5-121.5T768 1024q-134 0-251 49.5t-203.5 136Q227 1296 177.5 1413T128 1664H0q0-120 35-232t100-206.5q65-94.5 156.5-166.5T497 945q-55-35-99.5-82.5t-76-103.5Q290 703 273 640.5T256 512q0-106 40.5-199t110-162.5Q476 81 569 40.5T768 0q106 0 199 40.5t162.5 110q69.5 69.5 110 162.5t40.5 199q0 66-17 128.5T1214.5 759q-31.5 56-76 103.5T1039 945q74 26 139.5 68.5T1301 1110M384 512q0 79 30.5 149T497 783q52 52 122 82.5T768 896q79 0 149-30.5t122-82.5q52-52 82.5-122t30.5-149q0-79-30.5-149T1039 241q-52-52-122-82.5T768 128q-79 0-149 30.5T497 241q-52 52-82.5 122T384 512m1216 640q93 0 174.5 35.5t142 96q60.5 60.5 96 142T2048 1600q0 93-35.5 174.5t-96 142q-60.5 60.5-142 96T1600 2048q-93 0-174.5-35.5t-142-96q-60.5-60.5-96-142T1152 1600q0-93 35.5-174.5t96-142q60.5-60.5 142-96T1600 1152m0 768q47 0 92-13.5t84-39.5l-443-443q-26 39-39.5 84t-13.5 92q0 66 25.5 124t69 101.5q43.5 43.5 101.5 69t124 25.5m267-144q26-39 39.5-84t13.5-92q0-66-25.5-124t-69-101.5q-43.5-43.5-101.5-69t-124-25.5q-47 0-92 13.5t-84 39.5l443 443z"/></svg>