<svg xmlns="http://www.w3.org/2000/svg" viewBox="0 0 2048 2048"><path d="M1314 674l-68-68-286 286-286-286-68 68 286 286-286 286 68 68 286-286 284 284 68-68-284-284 286-286M960 2045q-119-70-236.5-149.5t-224-171Q393 1633 301.5 1529T143 1306q-67-119-105-253T0 768V256q83 0 161-6t152-22q74-16 146-45t144-75q85-55 170-81.5T960 0q51 0 97 6.5t89.5 20q43.5 13.5 85.5 34t85 47.5q72 46 144 75t146 45q74 16 152 22t161 6v512q0 151-38 285t-105 253q-67 119-158.5 223t-198 195.5q-106.5 91.5-224 171T960 2045M128 382v386q0 127 33.5 244t91.5 222.5q58 105.5 138 200t172 178q92 83.5 193.5 154.5T960 1897q102-59 203.5-130t193.5-154.5q92-83.5 172-178t138-200q58-105.5 91.5-222.5t33.5-244V382q-149-8-285.5-48T1244 213q-68-44-135.5-64.5T960 128q-81 0-148.5 20.5T676 213q-126 81-262.5 121T128 382z"/></svg>