<svg xmlns="http://www.w3.org/2000/svg" viewBox="0 0 2048 2048"><path d="M1536 640q0 80-30 149.5t-82.5 122Q1371 964 1301 994t-149 30H0V896h1152q53 0 99.5-20t81.5-55q35-35 55-81.5t20-99.5q0-53-20-99.5t-55-81.5q-35-35-81.5-55t-99.5-20q-53 0-99.5 20T971 459q-35 35-55 81.5T896 640H768q0-79 30-149t82.5-122.5q52.5-52.5 122-82.5t149.5-30q79 0 149 30t122.5 82.5Q1476 421 1506 491t30 149m256 256q53 0 99.5 20t81.5 55q35 35 55 81.5t20 99.5q0 53-20 99.5t-55 81.5q-35 35-81.5 55t-99.5 20h-162q34 58 34 128 0 53-20 99.5t-55 81.5q-35 35-81.5 55t-99.5 20q-53 0-99.5-20t-81.5-55q-35-35-55-81.5t-20-99.5h128q0 26 10 49.5t27.5 41q17.5 17.5 41 27.5t49.5 10q26 0 49.5-10t41-27.5q17.5-17.5 27.5-41t10-49.5q0-27-10-50t-27.5-40.5Q1481 1428 1458 1418t-50-10H0v-128h1792q26 0 49.5-10t41-27.5q17.5-17.5 27.5-41t10-49.5q0-27-10-50t-27.5-40.5Q1865 1044 1842 1034t-50-10q-27 0-50 10t-40.5 27.5Q1684 1079 1674 1102t-10 50h-128q0-53 20-99.5t55-81.5q35-35 81.5-55t99.5-20m-890 937q32 19 32 55 0 27-19 45.5t-45 18.5q-12 0-26-5.5t-27.5-13.5q-13.5-8-26-16t-22.5-14q0 19 1 44t-3.5 47.5q-4.5 22.5-18 38T704 2048q-30 0-44-15.5t-18.5-38q-4.5-22.5-3-47.5t1.5-44q-10 6-22.5 14t-26 16q-13.5 8-27.5 13.5t-26 5.5q-26 0-45-18.5t-19-45.5q0-36 32-55l70-41-70-41q-32-19-32-55 0-27 18.5-45.5T538 1632q13 0 26.5 5.5t27 13q13.5 7.5 26 16T640 1681q0-19-1.5-44t3-47.5q4.5-22.5 18.5-38t44-15.5q30 0 43.5 15.5t18 38q4.5 22.5 3.5 47.5t-1 44q10-6 22.5-14.5t26-16q13.5-7.5 27-13t26.5-5.5q27 0 45.5 18.5T934 1696q0 36-32 55l-70 41 70 41M154 544q-26 0-45-18.5T90 480q0-36 32-55l70-41-70-41q-32-19-32-55 0-27 18.5-45.5T154 224q13 0 26.5 5.5t27 13q13.5 7.5 26 16T256 273q0-19-1.5-44t3-47.5q4.5-22.5 18.5-38t44-15.5q30 0 43.5 15.5t18 38Q386 204 385 229t-1 44q10-6 22.5-14.5t26-16q13.5-7.5 27-13T486 224q26 0 45.5 18.5T551 288q0 18-9 32t-24 23l-70 41 70 41q15 9 24 23t9 32q0 26-19.5 45T486 544q-12 0-26-5.5T432.5 525q-13.5-8-26-16T384 495q0 19 1 44t-3.5 47.5q-4.5 22.5-18 38T320 640q-30 0-44-15.5t-18.5-38q-4.5-22.5-3-47.5t1.5-44q-10 6-22.5 14t-26 16q-13.5 8-27.5 13.5t-26 5.5z"/></svg>