<svg xmlns="http://www.w3.org/2000/svg" viewBox="0 0 2048 2048"><path d="M384 128H256V0h128v128m256 0H512V0h128v128m256 0H768V0h128v128m256 256h-128V256h128v128m256 256h-128V512h128v128m256 256h-128V768h128v128m-512-768h-128V0h128v128m384 256h-128V256h128v128m0 128V384h128v128h-128m256 256h128v128h-128V768M640 384H512V256h128v128m256 0H768V256h128v128m256 256h-128V512h128v128m256 256h-128V768h128v128M896 640H768V512h128v128m256 256h-128V768h128v128m256 256h-128v-128h128v128M256 384V256h128v128H256m128 128V384h128v128H384m128 128V512h128v128H512m128 128V640h128v128H640m128 128V768h128v128H768m128 128V896h128v128H896m128 128v-128h128v128h-128m128 128v-128h128v128h-128m128 128v-128h128v128h-128m128 128v-128h128v128h-128m128 128v-128h128v128h-128m128 0h128v128h128v128H0V0h128v128h128v128H128v1536h1536v-128m128-128h128v128h-128v-128m0-256h128v128h-128v-128m0-256h128v128h-128v-128m-128 384h-128v-128h128v128m-128-384h128v128h-128v-128m0-896h-128V0h128v128m256 256h128v128h-128V384M1920 0v128h-128V0h128z"/></svg>