<svg xmlns="http://www.w3.org/2000/svg" viewBox="0 0 2048 2048"><path d="M1184 960q99 0 186.5 37.5t153 103q65.5 65.5 103 153T1664 1440q0 99-37.5 186.5t-103 153q-65.5 65.5-153 103T1184 1920H384V128h800q86 0 162 32.5t132.5 89q56.5 56.5 89 132.5t32.5 162q0 86-32.5 162t-89 132.5q-56.5 56.5-132.5 89T1184 960m-416-64h192q52 0 99-20.5t81.5-55q34.5-34.5 55-81T1216 640q0-52-20.5-99t-55-81.5q-34.5-34.5-81.5-55T960 384H768v512m256 768q52 0 99-20.5t81.5-55q34.5-34.5 55-81t20.5-99.5q0-52-20.5-99t-55-81.5q-34.5-34.5-81.5-55t-99-20.5H768v512h256z"/></svg>