<svg xmlns="http://www.w3.org/2000/svg" viewBox="0 0 2048 2048"><path d="M1057 644q79 0 148.5 30t121.5 82q52 52 82 121.5t30 148.5q0 79-30 148.5t-82 121.5q-52 52-121.5 82t-148.5 30q-53 0-103-14t-93.5-40.5q-43.5-26.5-79.5-64t-61-84.5q-25 47-61 84.5t-80 64q-44 26.5-94 40.5t-103 14q-77 0-146.5-29.5t-122-80.5q-52.5-51-83-119.5T0 1032V398q0-31 23-53t53-22q30 0 53.5 22t23.5 53v322q50-37 108.5-56.5T382 644q53 0 103 14t94 40.5q44 26.5 80 64t61 84.5q25-47 61-84.5t79.5-64Q904 672 954 658t103-14m-675 611q47 0 89-18t73-49q31-31 49-73t18-89q0-48-18-89.5T544 864q-31-31-72.5-49T382 797q-48 0-89.5 18T220 864q-31 31-49 72.5t-18 89.5q0 47 18 89t49 73q31 31 73 49t89 18m675 0q47 0 89-18t73-49q31-31 49-73t18-89q0-48-18-89.5t-49-72.5q-31-31-72.5-49t-89.5-18q-47 0-89 18t-73 49q-31 31-49 73t-18 89q0 47 18 89t49 73q31 31 73 49t89 18m975 25q16 19 16 45 0 34-25.5 55t-58.5 21q-18 0-35.5-7.5T1899 1372l-178-219-179 219q-12 14-29.5 21.5t-35.5 7.5q-33 0-58.5-21t-25.5-55q0-24 16-45l207-255-207-255q-16-21-16-45 0-17 7-31t18.5-24q11.5-10 26.5-15.5t31-5.5q18 0 36.5 7.5T1542 678l179 220 178-220q11-14 30-21.5t37-7.5q16 0 30.5 5.5t26 16Q2034 681 2041 695t7 30q0 24-16 45l-208 255 208 255z"/></svg>