<svg xmlns="http://www.w3.org/2000/svg" viewBox="0 0 2048 2048"><path d="M1792 320q0 57-19.5 109.5t-54 94q-34.5 41.5-82 70.5T1533 634q-10 101-53 190t-110.5 157q-67.5 68-156 112t-189.5 56v265q56 12 103 41t81 70.5q34 41.5 53 93.5t19 109q0 66-25.5 124.5t-69 102Q1142 1998 1084 2023t-124 25q-66 0-124.5-25t-102-68.5q-43.5-43.5-68.5-102T640 1728q0-57 19-109t53-93.5q34-41.5 81-70.5t103-41v-265q-101-12-189.5-56t-156-112Q483 913 440 824t-53-190q-56-11-103.5-40t-82-70.5q-34.5-41.5-54-94T128 320q0-66 25-124t68.5-101.5q43.5-43.5 102-69T448 0q66 0 124 25.5t101.5 69Q717 138 742.5 196T768 320q0 56-18.5 107.5t-52 93q-33.5 41.5-80 71T516 633q10 84 49.5 155.5t99 124Q724 965 800 994.5t160 29.5q84 0 160-29.5t135.5-82q59.5-52.5 98.5-124t50-155.5q-55-12-101.5-41.5t-80-71q-33.5-41.5-52-93T1152 320q0-66 25-124t68.5-101.5q43.5-43.5 102-69T1472 0q66 0 124 25.5t101.5 69q43.5 43.5 69 101.5t25.5 124m-1536 0q0 40 15 75t41 61q26 26 61 41t75 15q40 0 75-15t61-41q26-26 41-61t15-75q0-40-15-75t-41-61q-26-26-61-41t-75-15q-40 0-75 15t-61 41q-26 26-41 61t-15 75m896 1408q0-40-15-75t-41-61q-26-26-61-41t-75-15q-40 0-75 15t-61 41q-26 26-41 61t-15 75q0 40 15 75t41 61q26 26 61 41t75 15q40 0 75-15t61-41q26-26 41-61t15-75m320-1216q40 0 75-15t61-41q26-26 41-61t15-75q0-40-15-75t-41-61q-26-26-61-41t-75-15q-40 0-75 15t-61 41q-26 26-41 61t-15 75q0 40 15 75t41 61q26 26 61 41t75 15z"/></svg>