<svg xmlns="http://www.w3.org/2000/svg" viewBox="0 0 2048 2048"><path d="M1408 960q0 83-29 158.5t-80 135q-51 59.5-121.5 99T1024 1403v517H896v-517q-83-11-153.5-50.5t-121.5-99q-51-59.5-80-135T512 960q0-83 29-158.5t80-135q51-59.5 121.5-99T896 517V0h128v517q83 11 153.5 50.5t121.5 99q51 59.5 80 135t29 158.5m-448 320q66 0 124-25t101.5-68.5q43.5-43.5 69-102T1280 960q0-66-25.5-124t-69-101.5q-43.5-43.5-101.5-69T960 640q-66 0-124.5 25.5t-102 69Q690 778 665 836t-25 124q0 66 25 124.5t68.5 102q43.5 43.5 102 68.5t124.5 25z"/></svg>