<svg xmlns="http://www.w3.org/2000/svg" viewBox="0 0 2048 2048"><path d="M1664 1414q56 12 103 41t81 70.5q34 41.5 53 93.5t19 109q0 66-25.5 124.5t-69 102Q1782 1998 1724 2023t-124 25q-66 0-124.5-25t-102-68.5q-43.5-43.5-68.5-102t-25-124.5q0-57 19-109t53-93.5q34-41.5 81-70.5t103-41V576q0-40-15-75t-41-61q-26-26-61-41t-75-15h-166l163 163-90 90-318-317L1251 3l90 90-163 163h166q66 0 124 25.5t101.5 69q43.5 43.5 69 101.5t25.5 124v838m-64 506q40 0 75-15t61-41q26-26 41-61t15-75q0-40-15-75t-41-61q-26-26-61-41t-75-15q-40 0-75 15t-61 41q-26 26-41 61t-15 75q0 40 15 75t41 61q26 26 61 41t75 15m-803-509l318 317-318 317-90-90 163-163H704q-66 0-124.5-25t-102-68.5q-43.5-43.5-68.5-102T384 1472V634q-56-12-103-41t-81-70.5Q166 481 147 429t-19-109q0-66 25-124t68.5-101.5q43.5-43.5 102-69T448 0q66 0 124 25.5t101.5 69Q717 138 742.5 196T768 320q0 57-19 109t-53 93.5Q662 564 615 593t-103 41v838q0 40 15 75t41 61q26 26 61 41t75 15h166l-163-163 90-90M256 320q0 40 15 75t41 61q26 26 61 41t75 15q40 0 75-15t61-41q26-26 41-61t15-75q0-40-15-75t-41-61q-26-26-61-41t-75-15q-40 0-75 15t-61 41q-26 26-41 61t-15 75z"/></svg>