<svg xmlns="http://www.w3.org/2000/svg" viewBox="0 0 2048 2048"><path d="M1690 960l-858 858-730-730 666-667V192q0-40 15-75t41-61q26-26 61-41t75-15q40 0 75 15t61 41q26 26 41 61t15 75v640h-128V192q0-26-19-45t-45-19q-26 0-45 19t-19 45v283l-549 549h1098l65-64-211-211 90-90 301 301m-858 678l485-486H347l485 486m1147-48q20 35 30 74t10 80q0 61-22 116t-61 97q-39 42-92.5 66.5T1728 2048q-62 0-116-24t-94-64.5q-40-40.5-63.5-95T1431 1749q0-79 40-148l257-450 251 439m-251 330q36 0 66.5-14.5t52-39q21.5-24.5 33.5-56.5t12-67q0-49-24-90l-140-244-146 256q-23 40-23 84 0 35 13.5 66t36.5 54q23 23 53.5 37t65.5 14z"/></svg>