<svg xmlns="http://www.w3.org/2000/svg" viewBox="0 0 2048 2048"><path d="M1024 1728q-97 0-187-25t-168.5-71Q590 1586 526 1522t-110-142.5q-46-78.5-71-168.5t-25-187q0-97 25-187t71-168.5Q462 590 526 526t142.5-110Q747 370 837 345t187-25q97 0 187 25t168.5 71q78.5 46 142.5 110t110 142.5q46 78.5 71 168.5t25 187q0 97-25 187t-71 168.5q-46 78.5-110 142.5t-142.5 110q-78.5 46-168.5 71t-187 25m0-1280q-119 0-224 45.5T617 617q-78 78-123.5 183T448 1024q0 119 45.5 224T617 1431q78 78 183 123.5t224 45.5q119 0 224-45.5t183-123.5q78-78 123.5-183t45.5-224q0-119-45.5-224T1431 617q-78-78-183-123.5T1024 448m256 704H896V640h128v384h256v128m468 596q-72 72-156 128t-176.5 94.5q-92.5 38.5-191 58T1024 2048q-102 0-200.5-19.5t-191-58Q540 1932 456 1876t-156-128l90-90q128 127 291 194.5t343 67.5q180 0 343-67.5t291-194.5l90 90z"/></svg>