<svg xmlns="http://www.w3.org/2000/svg" viewBox="0 0 2048 2048"><path d="M704 448q0-72 30-135L595 173l90-90 126 126q45-39 99-60t114-21q60 0 114 21t99 60l126-126 90 90-139 140q30 63 30 135 0 13-1.5 25.5T1339 498q-75-32-154.5-49T1024 432q-81 0-160.5 17T709 498q-2-12-3.5-24.5T704 448m896 448q66 0 124 25.5t101.5 69q43.5 43.5 69 101.5t25.5 124v192h-128v-192q0-34-11.5-65.5t-32.5-57q-21-25.5-49.5-43T1636 1027q19 62 24 125.5t5 127.5q0 36-.5 72t-.5 72l3 4q61 66 93 138t32 163q0 85-32.5 162.5T1667 2029l-90-90q42-42 64.5-97t22.5-114q0-67-29-128-32 100-92 182.5T1403 1924q-80 59-177 91.5t-202 32.5q-105 0-202-32.5T645 1924q-80-59-140.5-141.5T413 1600q-29 61-29 128 0 59 22.5 114t64.5 97l-90 90q-60-60-92.5-137.5T256 1729q0-91 32-163t93-138l3-4q0-36-.5-72t-.5-72q0-64 5-127.5t24-125.5q-34 6-62.5 23.5t-49.5 43q-21 25.5-32.5 57T256 1216v192H128v-192q0-66 25-124t68.5-101.5q43.5-43.5 102-69T448 896h22q40-69 97-128-65-2-121.5-28T347 671q-42-43-66.5-100.5T256 448V256h128v192q0 40 15 75t41 61q26 26 61 41t75 15h169q133-64 279-64t279 64h169q40 0 75-15t61-41q26-26 41-61t15-75V256h128v192q0 65-24.5 122.5T1701 671q-42 43-98.5 69T1481 768q57 59 97 128h22z"/></svg>