<svg xmlns="http://www.w3.org/2000/svg" viewBox="0 0 2048 2048"><path d="M1920 640v256h-128v1024q0 27-10 50t-27.5 40.5Q1737 2028 1714 2038t-50 10h-128q-27 0-50-10t-40.5-27.5Q1428 1993 1418 1970t-10-50H512q0 27-10 50t-27.5 40.5Q457 2028 434 2038t-50 10H256q-27 0-50-10t-40.5-27.5Q148 1993 138 1970t-10-50V896H0V640h128V320q0-40 15-75t41-61q26-26 61-41t75-15h1280q40 0 75 15t61 41q26 26 41 61t15 75v320h128M256 1152h640V640H256v512m256 320q0-26-19-45t-45-19q-26 0-45 19t-19 45v64h128v-64m1152 192H256v128h1408v-128m-128-128v-64q0-26-19-45t-45-19q-26 0-45 19t-19 45v64h128m128-896h-640v512h640V640z"/></svg>