<svg xmlns="http://www.w3.org/2000/svg" viewBox="0 0 2048 2048"><path d="M1920 640v256h-128v960q0 34-3.5 68.5t-16 62q-12.5 27.5-38 44.5t-70.5 17q-25 0-53.5 1t-57-1q-28.5-2-55-8.5T1452 2019q-20-14-32-38t-12-61H512q0 27-10 50t-27.5 40.5Q457 2028 434 2038t-50 10q-69 0-118-1t-79.5-17.5q-30.5-16.5-44.5-56T128 1856V896H0V640h128V320q0-40 15-75t41-61q26-26 61-41t75-15h1280q40 0 75 15t61 41q26 26 41 61t15 75v320h128m-256 640H256v256h128q0-18-.5-40.5t4.5-42q5-19.5 18.5-32.5t41.5-13q28 0 41.5 13t18.5 32.5q5 19.5 4.5 42t-.5 40.5h896q0-18-.5-40.5t4.5-42q5-19.5 18.5-32.5t41.5-13q28 0 41.5 13t18.5 32.5q5 19.5 4.5 42t-.5 40.5h128v-256m-768-128V640H256v512h640m768-512h-640v512h640V640M320 256q-26 0-45 19t-19 45v192h1408V320q0-26-19-45t-45-19H320m1344 1536v-128H256v128h1408z"/></svg>