<svg xmlns="http://www.w3.org/2000/svg" viewBox="0 0 2048 2048"><path d="M1671 896q25 0 47 9.5t38.5 26q16.5 16.5 26 38.5t9.5 47v782q0 25-9.5 47t-26 38.5q-16.5 16.5-38.5 26t-47 9.5H249q-25 0-47-9.5t-38.5-26q-16.5-16.5-26-38.5t-9.5-47v-782q0-25 9.5-47t26-38.5q16.5-16.5 38.5-26t47-9.5h44l447-446q-18-29-27-62t-9-68q0-53 20-99.5t55-81.5q35-35 81.5-55T960 64q53 0 99.5 20t81.5 55q35 35 55 81.5t20 99.5q0 35-9 68t-27 62l447 446h44M960 192q-27 0-50 10t-40.5 27.5Q852 247 842 270t-10 50q0 27 10 50t27.5 40.5Q887 428 910 438t50 10q27 0 50-10t40.5-27.5Q1068 393 1078 370t10-50q0-27-10-50t-27.5-40.5Q1033 212 1010 202t-50-10M475 896h970l-355-356q-59 36-130 36-35 0-68-9t-62-27L475 896m1189 128H256v768h1408v-768m-256 384H512v-128h896v128z"/></svg>