<svg xmlns="http://www.w3.org/2000/svg" viewBox="0 0 2048 2048"><path d="M1920 128v1792H128V128h1792m-119 119H247v1554h1554V247M873 1664q-83 0-149-27.5T612 1560q-46-49-70.5-117T517 1294q0-86 27.5-159t78-126Q673 956 744 926t159-30q45 0 91 6t88 25v122q-38-23-80-34t-86-11q-64 0-114 21.5t-84.5 59q-34.5 37.5-53 90T646 1288q0 58 17 107t49.5 85q32.5 36 79.5 56t107 20q49 0 95-11.5t88-37.5v113q-48 25-101.5 34.5T873 1664m405-309h-112l13-68h114l27-135h-119l14-68h119l39-188h78l-38 188h118l40-188h77l-39 188h111l-15 68h-111l-28 135h121l-17 68h-118l-40 181h-78l39-181h-118l-38 181h-78l39-181m91-68h119l29-135h-119l-29 135z"/></svg>