<svg xmlns="http://www.w3.org/2000/svg" viewBox="0 0 2048 2048"><path d="M1663 512q79 0 149 30t122.5 82.5Q1987 677 2017 747t30 149q0 80-30 149.5t-82.5 122Q1882 1220 1812 1250t-149 30h-103q-44 77-105 142t-135 114h279q26 0 45 19t19 45q0 26-19 45t-45 19H191q-26 0-45-19t-19-45q0-26 19-45t45-19h279q-81-54-144.5-124T218 1259.5q-44-82.5-67.5-174.5T127 896V512h1536M895 1536q88 0 170-23t153-64.5q71-41.5 129.5-100t100-129.5q41.5-71 64.5-153t23-170V640H255v256q0 88 23 170t64.5 153q41.5 71 100 129.5t129.5 100q71 41.5 153 64.5t170 23m768-384q53 0 99.5-20t81.5-55q35-35 55-81.5t20-99.5q0-53-20-99.5t-55-81.5q-35-35-81.5-55t-99.5-20q0 65 1.5 130t-1.5 129q-3 64-12.5 127.5T1619 1152h44z"/></svg>