<svg xmlns="http://www.w3.org/2000/svg" viewBox="0 0 2048 2048"><path d="M1216 256q-26 0-45-19t-19-45q0-12 8-31t18.5-40q10.5-21 21-40t16.5-30q6 11 16.5 30t21 40q10.5 21 18.5 40t8 31q0 26-19 45t-45 19m832 640v1152H0V896l1152-384V352q0-9 7.5-15.5t18-10q10.5-3.5 21-5t17.5-1.5q7 0 17.5 1.5t21 5q10.5 3.5 18 10t7.5 15.5v117l256-85 512 512m-832-128q-7 0-17.5-1.5t-21-5q-10.5-3.5-18-10T1152 736v-89L405 896h1462l-366-366-221 74v132q0 9-7.5 15.5t-18 10q-10.5 3.5-21 5T1216 768M128 1024v384h1792v-384H128m1792 896v-384H128v384h1792z"/></svg>