<svg xmlns="http://www.w3.org/2000/svg" viewBox="0 0 2048 2048"><path d="M896 896H768V768h128v128m384 0h-128V768h128v128m-384 256H768v-128h128v128m-384 0H384v-128h128v128m640-128h128v128h-128v-128m512-128h-128V768h128v128m-128 128h128v128h-128v-128m-384 256h128v128h-128v-128m-256 128H768v-128h128v128m-384 0H384v-128h128v128m256 128h128v128H768v-128m-384 0h128v128H384v-128M2048 128v1380q-28-26-60.5-44.5T1920 1432V640H128v1152h1120l128 128H0V128h384V0h128v128h1024V0h128v128h384m-128 384V256h-256v128h-128V256H512v128H384V256H128v256h1792m-421 1024q50 0 110.5-2.5t121.5.5q61 3 118 14.5t101.5 40q44.5 28.5 71 77.5t26.5 126q0 53-20.5 99.5t-55 81q-34.5 34.5-81.5 55t-99 20.5v-128q27 0 50-10t40.5-27.5q17.5-17.5 27.5-40.5t10-50q0-27-10-50t-27.5-40.5Q1865 1684 1842 1674t-50-10h-293l162 163-90 90-317-317 317-317 90 90-162 163z"/></svg>