<svg xmlns="http://www.w3.org/2000/svg" viewBox="0 0 2048 2048"><path d="M384 1280q0 88 23 170t64.5 153q41.5 71 100 129.5t129.5 100q71 41.5 153 64.5t170 23q66 0 131-13.5t125-40.5v137q-123 45-256 45-106 0-204-27.5T636.5 1943Q551 1893 481 1823t-120-155.5q-50-85.5-77.5-183.5T256 1280q0-84 18-165t52-155q34-74 84-140.5T523 698q6 37 18.5 78t29 81q16.5 40 38 77t45.5 65q22 25 52 25 27 0 45.5-19t18.5-46q0-11-3.5-20t-9.5-18q-56-82-86.5-163T640 576q0-119 45.5-224T809 169q78-78 183-123.5T1216 0h64v64q0 177 66 330t190 278 190 278q66 153 66 330h-128q0-152-56-281t-162-236q-130-132-204-288.5T1154 132q-83 11-153.5 50.5t-122.5 99q-52 59.5-81 135T768 576q0 79 23.5 141T859 843q19 28 29.5 54.5T899 959q0 40-15.5 75t-41.5 61.5q-26 26.5-61 41.5t-75 15q-46 0-81-17.5t-62.5-46Q535 1060 514 1024t-39-72q-45 75-68 158t-23 170m1664 384v128h-256v256h-128v-256h-256v-128h256v-256h128v256h256z"/></svg>