<svg xmlns="http://www.w3.org/2000/svg" viewBox="0 0 2048 2048"><path d="M2048 256v1536H0V256h549l128-128h694l128 128h549m-128 128h-475l-128-128H731L603 384H128v1280h1792V384m-896 128q106 0 199.5 40t163 109.5q69.5 69.5 109.5 163t40 199.5q0 106-40 199.5t-109.5 163q-69.5 69.5-163 109.5t-199.5 40q-106 0-199.5-40t-163-109.5Q592 1317 552 1223.5T512 1024q0-106 40-199.5t109.5-163Q731 592 824.5 552t199.5-40m0 896q79 0 149-30.5t122-82.5q52-52 82.5-122t30.5-149q0-79-30.5-149T1295 753q-52-52-122-82.5T1024 640q-79 0-149 30.5T753 753q-52 52-82.5 122T640 1024q0 79 30.5 149t82.5 122q52 52 122 82.5t149 30.5M320 512q26 0 45 19t19 45q0 26-19 45t-45 19q-26 0-45-19t-19-45q0-26 19-45t45-19z"/></svg>