<svg xmlns="http://www.w3.org/2000/svg" viewBox="0 0 2048 2048"><path d="M384 1152q27 0 50 10t40.5 27.5Q492 1207 502 1230t10 50q0 27-10 50t-27.5 40.5Q457 1388 434 1398t-50 10q-27 0-50-10t-40.5-27.5Q276 1353 266 1330t-10-50q0-27 10-50t27.5-40.5Q311 1172 334 1162t50-10m1280 0q27 0 50 10t40.5 27.5q17.5 17.5 27.5 40.5t10 50q0 27-10 50t-27.5 40.5Q1737 1388 1714 1398t-50 10q-27 0-50-10t-40.5-27.5Q1556 1353 1546 1330t-10-50q0-27 10-50t27.5-40.5q17.5-17.5 40.5-27.5t50-10m347-256l-66 65q2 5 10 30t19.5 59q11.5 34 24.5 73t24 71.5q11 32.5 18 54l7 21.5v650q0 27-10 50t-27.5 40.5Q1993 2028 1970 2038t-50 10h-128q-27 0-50-10t-40.5-27.5Q1684 1993 1674 1970t-10-50H384q0 27-10 50t-27.5 40.5Q329 2028 306 2038t-50 10H128q-27 0-50-10t-40.5-27.5Q20 1993 10 1970t-10-50v-650l7-21.5q7-21.5 18-54t24-71.5q13-39 24.5-73T93 991q8-25 10-30l-66-65H0V768h91l57 58 74-223q16-49 46.5-89.5t70.5-69q40-28.5 87.5-44.5t99.5-16h996q52 0 99.5 16t87.5 44.5q40 28.5 70 69t47 89.5l74 223 57-58h91v128h-37M526 512q-63 0-112.5 36T344 643l-85 253h1530l-85-253q-20-59-69.5-95T1522 512H526m882 1231l-104-207H744l-104 207v49h768v-49m512 49v-502l-6-18.5q-6-18.5-15.5-46.5t-20.5-61.5q-11-33.5-21-63t-17.5-50.5q-7.5-21-8.5-26H217q-2 5-9 26t-17 50.5q-10 29.5-21 63t-20.5 61.5q-9.5 28-15.5 46.5l-6 18.5v502h384v-79l152-305h720l152 305v79h384z"/></svg>