<svg xmlns="http://www.w3.org/2000/svg" viewBox="0 0 2048 2048"><path d="M2048 576q0 40-15 75t-41 61q-26 26-61 41t-75 15h-64v640q0 66 11 131.5t34 128.5q46 8 84.5 31t66.5 56.5q28 33.5 44 76t16 88.5q0 18 .5 40.5t-4.5 42q-5 19.5-18.5 32.5t-41.5 13H512q-106 0-199-40.5t-162.5-110Q81 1828 40.5 1735T0 1536q0-79 30-149t82.5-122.5q52.5-52.5 122-82.5t149.5-30q26 0 49.5-10t41-27.5q17.5-17.5 27.5-41t10-49.5q0-27-10-50t-27.5-40.5Q457 916 434 906t-50-10V768q53 0 99.5 20t81.5 55q35 35 55 81.5t20 99.5q0 53-20 99.5t-55 81.5q-35 35-81.5 55t-99.5 20-99.5 20q-46.5 20-81.5 55t-55 81.5q-20 46.5-20 99.5 0 80 30 149.5t82.5 122q52.5 52.5 122 82.5t149.5 30q26 0 49.5-10t41-27.5q17.5-17.5 27.5-41t10-49.5q0-198 69.5-369.5T914 1108q117-124 177.5-274.5T1152 512V384q0-79 30-149t82.5-122.5Q1317 60 1386.5 30T1536 0h128v113q0 17 9.5 33t25.5 24q61 30 121.5 60t121.5 61q49 25 77.5 71t28.5 101v113m-128 1344q0-26-10-49.5t-27.5-41q-17.5-17.5-41-27.5t-49.5-10q-21 0-35.5-10.5T1733 1753q-18-34-31-78t-21.5-90.5q-8.5-46.5-12.5-92.5t-4-84V768q0-27 10-50t27.5-40.5Q1719 660 1742 650t50-10q18 0 40.5.5t42-4.5q19.5-5 32.5-18.5t13-41.5V463q0-17-9.5-33t-25.5-24q-61-30-121.5-60T1642 285q-45-23-72.5-64.5T1538 128q-53 0-100 20t-82 54.5q-35 34.5-55.5 81T1280 384v128q0 197-69.5 369T1006 1196q-117 124-177.5 274.5T768 1792q0 34-9.5 66.5T732 1920h804q0-26-10-49.5t-27.5-41q-17.5-17.5-41-27.5t-49.5-10h-256v-128h256q8 0 15.5 1t15.5 2l-93-371 124-32 119 475q36 36 55.5 83t19.5 98h256M1600 384q26 0 45 19t19 45q0 26-19 45t-45 19q-26 0-45-19t-19-45q0-26 19-45t45-19z"/></svg>