<svg xmlns="http://www.w3.org/2000/svg" viewBox="0 0 2048 2048"><path d="M1762 1590q66 32 118.5 80.5t90 108q37.5 59.5 57.5 128t20 141.5h-128q0-79-30.5-149t-82.5-122q-52-52-122-82.5t-149-30.5q-79 0-149 30.5t-122 82.5q-52 52-82.5 122t-30.5 149h-128q0-73 20-141.5t57.5-128q37.5-59.5 90-108T1310 1590q-75-54-116.5-135.5T1152 1280q0-79 30-149t82.5-122.5q52.5-52.5 122-82.5t149.5-30q79 0 149 30t122.5 82.5Q1860 1061 1890 1131t30 149q0 93-41.5 174.5T1762 1590m-226-54q53 0 99.5-20t81.5-55q35-35 55-81.5t20-99.5q0-53-20-99.5t-55-81.5q-35-35-81.5-55t-99.5-20q-53 0-99.5 20t-81.5 55q-35 35-55 81.5t-20 99.5q0 53 20 99.5t55 81.5q35 35 81.5 55t99.5 20m512-1408v1024q0-48-9-84t-25.5-67q-16.5-31-40-60t-53.5-63V256H128v1152h256v267l267-267h390q8 34 21.5 66t30.5 62H704l-448 448v-448H0V128h2048z"/></svg>