<svg xmlns="http://www.w3.org/2000/svg" viewBox="0 0 2048 2048"><path d="M939 171q129 0 249 33.5t224.5 94.5q104.5 61 190 146.5t146.5 190q61 104.5 94.5 224.5t33.5 249q0 129-33.5 249t-94.5 224.5q-61 104.5-146.5 190.5t-190 147q-104.5 61-224.5 94.5T939 2048q-130 0-250-33.5T465 1920q-104-61-190-147t-147-190q-61-104-94.5-224T0 1109q0-129 33.5-249t95-224.5q61.5-104.5 147-190t190-146.5q104.5-61 224-94.5T939 171m0 1740q111 0 213.5-28.5t191.5-81q89-52.5 162-125.5t125.5-162q52.5-89 81-191.5T1741 1109q0-110-28.5-212.5t-81-191.5q-52.5-89-126-162.5t-162.5-126q-89-52.5-191.5-81T939 307q-111 0-213.5 28.5t-191.5 81Q445 469 372 542T246.5 704q-52.5 89-81 191.5T137 1109q0 111 28.5 213.5T246 1514q52 89 125.5 162.5T534 1802q89 52 191.5 80.5T939 1911m256-1058h170v683H683v-171h391L537 828l121-120 537 537V853z"/></svg>