<svg xmlns="http://www.w3.org/2000/svg" viewBox="0 0 2048 2048"><path d="M1024 0q141 0 272 36.5T1540.5 140q113.5 67 207 160.5t160.5 207Q1975 621 2011.5 752t36.5 272q0 141-36.5 272T1908 1540.5q-67 113.5-160.5 207t-207 160.5q-113.5 67-244.5 103.5t-272 36.5q-141 0-272-36.5t-245-103q-114-66.5-207.5-160t-160-207.5q-66.5-114-103-244.5T0 1024q0-141 36.5-272T140 507.5q67-113.5 160.5-207t207-160.5Q621 73 752 36.5T1024 0m0 1920q124 0 238.5-32t214-90.5q99.5-58.5 181-140t140-181q58.5-99.5 90.5-214t32-238.5q0-124-32-238.5t-90.5-214q-58.5-99.5-140-181t-181-140q-99.5-58.5-214-90.5T1024 128q-124 0-238.5 32t-214 90.5q-99.5 58.5-181 140t-140 181Q192 671 160 785.5T128 1024q0 124 32 238.5t90 214q58 99.5 140 181.5t181.5 140q99.5 58 214 90t238.5 32m64-961h448v128h-448v449H960v-449H512V959h448V512h128v447z"/></svg>