<svg xmlns="http://www.w3.org/2000/svg" viewBox="0 0 2048 2048"><path d="M960 0q16 0 39 10t46 24q23 14 44 29t33 25q68 53 140 123t139 151q67 81 126.5 170.5t104 183q44.5 93.5 70.5 188t26 184.5q0 160-51 287t-143.5 216.5q-92.5 89.5-222.5 140t-287 57.5v259H896v-259q-158-7-287.5-57.5t-222-140Q294 1502 243 1375t-51-287q0-90 26-184.5t70.5-188q44.5-93.5 104-183T519 362q67-81 138.5-151T798 88q12-10 33-25t44-29q23-14 45.5-24T960 0m-64 192q-63 45-130 107T635 433.5Q571 506 514 587T413.5 752.5Q370 837 345 922t-25 166q0 133 41 236.5t116 176q75 72.5 181.5 113T896 1661V192m128 524q48-3 96.5-17.5T1214 661q45-23 85-54t73-66q-74-97-161-187t-187-162v524m0 380q72 0 147-14.5t145-43.5q70-29 131-73.5T1551 860q-26-66-60-127.5T1417 613q-37 39-82.5 73.5T1238 747q-51 26-105.5 42T1024 809v287m0 565q131-7 237.5-47.5T1443 1501q75-72 116-175.5t41-237.5q0-35-7.5-62.5T1574 966q-50 57-114.5 97.5t-137 67q-72.5 26.5-149 39.5t-149.5 14v477z"/></svg>