<svg xmlns="http://www.w3.org/2000/svg" viewBox="0 0 2048 2048"><path d="M1024 2048q-124 0-238.5-32t-214-90.5q-99.5-58.5-181-140t-140-181q-58.5-99.5-90.5-214T128 1152q0-124 32-238.5t90.5-214q58.5-99.5 140-181t181-140Q671 320 785.5 288t238.5-32q124 0 238.5 32t214 90.5q99.5 58.5 181 140t140 181q58.5 99.5 90.5 214t32 238.5q0 124-32 238.5t-90.5 214q-58.5 99.5-140 181t-181 140q-99.5 58.5-214 90.5t-238.5 32m0-1664q-159 0-298.5 60.5t-244 165Q377 714 316.5 853.5T256 1152q0 159 60.5 298.5t165 244q104.5 104.5 244 165T1024 1920q159 0 298.5-60.5t244-165q104.5-104.5 165-244T1792 1152q0-159-60.5-298.5t-165-244q-104.5-104.5-244-165T1024 384m0 768V640H896v640h512v-128h-384z"/></svg>