<svg xmlns="http://www.w3.org/2000/svg" viewBox="0 0 2048 2048"><path d="M1920 128v1408h-768v512l-384-512H0V128h1920M960 1341q30 0 80.5-1t110.5-4.5q60-3.5 124-9t120.5-15.5q56.5-10 100.5-24.5t64-34.5q17-17 30-48t22.5-69.5q9.5-38.5 16.5-82t11-84.5q4-41 6-76.5t2-59.5q0-23-2-59t-6-77.5q-4-41.5-11-85t-17-83q-10-39.5-23-70.5t-29-48q-19-19-62.5-32.5t-100.5-23q-57-9.5-122-15.5t-125-9.5q-60-3.5-110.5-4.5t-79.5-1q-29 0-79.5 1T770 328.5q-60 3.5-125 9.5t-122 15.5q-57 9.5-100.5 23T360 409q-17 17-30 48t-22.5 70q-9.5 39-16.5 82.5t-11 85q-4 41.5-6 77t-2 59.5q0 24 2 59.5t6 77q4 41.5 10.5 84.5t16.5 82q10 39 23 70t30 48q15 15 43.5 26.5T464 1298q32 8 63.5 13t51.5 8q95 12 190 17t191 5z"/></svg>