<svg xmlns="http://www.w3.org/2000/svg" viewBox="0 0 2048 2048"><path d="M1171 1555l90 90-301 301-301-301 90-90 147 146v-677h128v677l147-146m462-903q63 17 115.5 52.5t91 84.5q38.5 49 59.5 109t21 126q0 80-30 149.5t-82.5 122Q1755 1348 1685 1378t-149 30h-384v-128h384q53 0 99.5-20t81.5-55q35-35 55-81.5t20-99.5q0-55-20.5-102t-56.5-81q-36-34-84-53.5T1529 768q-12-82-51-152.5t-97.5-122Q1322 442 1247 413t-159-29q-77 0-146.5 25T815 478q-57 44-98.5 106T656 719q-44-38-97-58.5T448 640q-66 0-124.5 25t-102 68.5Q178 777 153 835.5T128 960q0 66 25 124.5t68.5 102q43.5 43.5 102 68.5t124.5 25h320v128H448q-93 0-174.5-35.5t-142-96q-60.5-60.5-96-142T0 960q0-93 35.5-174.5t96-142q60.5-60.5 142-96T448 512q74 0 147 25 39-65 92.5-117t117-88.5Q868 295 940 275.5t148-19.5q93 0 178.5 29t157.5 81.5q72 52.5 126 125t83 160.5z"/></svg>