<svg xmlns="http://www.w3.org/2000/svg" viewBox="0 0 2048 2048"><path d="M1661 896q80 0 150.5 30t123 81.5q52.5 51.5 83 121.5t30.5 151q0 80-30 149.5t-82.5 122Q1883 1604 1813 1634t-149 30H512q-106 0-199.5-40t-163-109.5Q80 1445 40 1351.5T0 1152q0-106 40-199.5t109.5-163Q219 720 312.5 680T512 640q46 0 93 9 40-62 92.5-111.5T812 454q62-34 132-52t144-18q111 0 209.5 39T1472 530.5q76 68.5 125.5 162.5t63.5 203m3 640q53 0 99.5-20t81.5-55q35-35 55-81.5t20-99.5q0-53-20-99.5t-55-81.5q-35-35-81.5-55t-99.5-20h-128v-64q0-93-35-174.5T1405 643q-61-61-142.5-96T1088 512q-70 0-135 21t-119.5 59Q779 630 737 683.5T670 803q-75-35-158-35-80 0-149.5 30t-122 82.5Q188 933 158 1003t-30 149q0 80 30 149.5t82.5 122q52.5 52.5 122 82.5t149.5 30h1152z"/></svg>