<svg xmlns="http://www.w3.org/2000/svg" viewBox="0 0 2048 2048"><path d="M1633 780q63 17 115.5 52.5t91 84.5q38.5 49 59.5 109t21 126q0 80-30 149.5t-82.5 122Q1755 1476 1685 1506t-149 30h-128v-128h128q53 0 99.5-20t81.5-55q35-35 55-81.5t20-99.5q0-55-20.5-102t-56.5-81q-36-34-84-53.5T1529 896q-12-82-51-152.5t-97.5-122Q1322 570 1247 541t-159-29q-77 0-146.5 25T815 606q-57 44-98.5 106T656 847q-44-38-97-58.5T448 768q-66 0-124.5 25t-102 68.5Q178 905 153 963.5T128 1088q0 66 25 124.5t68.5 102q43.5 43.5 102 68.5t124.5 25h64v128h-64q-93 0-174.5-35.5t-142-96q-60.5-60.5-96-142T0 1088q0-93 35.5-174.5t96-142q60.5-60.5 142-96T448 640q74 0 147 25 39-65 92.5-117t117-88.5Q868 423 940 403.5t148-19.5q93 0 178.5 29t157.5 81.5q72 52.5 126 125t83 160.5m-609 628h256v128h-256v256H896v-256H640v-128h256v-256h128v256z"/></svg>