<svg xmlns="http://www.w3.org/2000/svg" viewBox="0 0 2048 2048"><path d="M576 544q-26 0-45-19t-19-45q0-23-14.5-41T465 409q-35-24-71.5-48T326 308.5Q295 280 275.5 244T256 160q0-26 19-45t45-19q26 0 45 19t19 45q0 23 14.5 41t32.5 30q34 24 71 48t68 52.5q31 28.5 50.5 64.5t19.5 84q0 26-19 45t-45 19m448 0q-26 0-45-19t-19-45q0-23-14.5-41T913 409q-35-24-71.5-48T774 308.5Q743 280 723.5 244T704 160q0-26 19-45t45-19q26 0 45 19t19 45q0 23 14.5 41t32.5 30q34 24 71 48t68 52.5q31 28.5 50.5 64.5t19.5 84q0 26-19 45t-45 19m448 0q-26 0-45-19t-19-45q0-23-14.5-41t-32.5-30q-35-24-71.5-48t-67.5-52.5q-31-28.5-50.5-64.5t-19.5-84q0-26 19-45t45-19q26 0 45 19t19 45q0 23 14.5 41t32.5 30q34 24 71 48t68 52.5q31 28.5 50.5 64.5t19.5 84q0 26-19 45t-45 19m133 736q-33 75-82 138.5T1413 1536h443v128q0 45-14 90.5t-40.5 82q-26.5 36.5-65 60T1648 1920H208q-50 0-88.5-23.5t-65-60Q28 1800 14 1754.5T0 1664v-128h379q-118-103-184.5-239T128 1003V640h1605q66 0 123.5 25.5t100 69q42.5 43.5 67 102T2048 960q0 65-24.5 123.5t-67 102q-42.5 43.5-100 69T1733 1280h-128m59-512q0 42 1 84t1 85q0 55-3.5 109t-15.5 106h86q39 0 73.5-15.5t59.5-41.5q25-26 39.5-61t14.5-74q0-39-14.5-74t-39.5-61q-25-26-59.5-41.5T1733 768h-69M256 1003q0 88 26.5 169t74.5 150q48 69 114 123.5t145 90.5h560q79-36 145-90.5t114-123.5q48-69 74.5-150t26.5-169V768H256v235m1392 789q21 0 36-14t25-33.5q10-19.5 14.5-41.5t4.5-39H128q0 17 4.5 39t14.5 41.5q10 19.5 25 33.5t36 14h1440z"/></svg>