<svg xmlns="http://www.w3.org/2000/svg" viewBox="0 0 2048 2048"><path d="M1024 0q141 0 272 36.5T1540.5 140q113.5 67 207 160.5t160.5 207Q1975 621 2011.5 752t36.5 272q0 141-36.5 272T1908 1540.5q-67 113.5-160.5 207t-207 160.5q-113.5 67-244.5 103.5t-272 36.5q-53 0-99.5-20t-81.5-55q-35-35-55-81.5t-20-99.5q0-53 13.5-103.5T823 1593q6-11 11-17t12-16q25-39 37.5-71.5T896 1408q0-53-20-99.5t-55-81.5q-35-35-81.5-55t-99.5-20q-48 0-80.5 12.5T488 1202q-10 7-16 12t-17 11q-45 28-95.5 41.5T256 1280q-53 0-99.5-20T75 1205q-35-35-55-81.5T0 1024q0-141 36.5-272T140 507.5q67-113.5 160.5-207t207-160.5Q621 73 752 36.5T1024 0m384 480q-33 0-62 12.5t-51 34.5q-22 22-34.5 51t-12.5 62q0 33 12.5 62t34.5 51q22 22 51 34.5t62 12.5q33 0 62-12.5t51-34.5q22-22 34.5-51t12.5-62q0-33-12.5-62t-34.5-51q-22-22-51-34.5t-62-12.5M512 928q33 0 62-12.5t51-34.5q22-22 34.5-51t12.5-62q0-33-12.5-62T625 655q-22-22-51-34.5T512 608q-33 0-62 12.5T399 655q-22 22-34.5 51T352 768q0 33 12.5 62t34.5 51q22 22 51 34.5t62 12.5m384-256q33 0 62-12.5t51-34.5q22-22 34.5-51t12.5-62q0-33-12.5-62t-34.5-51q-22-22-51-34.5T896 352q-33 0-62 12.5T783 399q-22 22-34.5 51T736 512q0 33 12.5 62t34.5 51q22 22 51 34.5t62 12.5m384 1024q33 0 62-12.5t51-34.5q22-22 34.5-51t12.5-62q0-33-12.5-62t-34.5-51q-22-22-51-34.5t-62-12.5q-33 0-62 12.5t-51 34.5q-22 22-34.5 51t-12.5 62q0 33 12.5 62t34.5 51q22 22 51 34.5t62 12.5m256-384q33 0 62-12.5t51-34.5q22-22 34.5-51t12.5-62q0-33-12.5-62t-34.5-51q-22-22-51-34.5t-62-12.5q-33 0-62 12.5t-51 34.5q-22 22-34.5 51t-12.5 62q0 33 12.5 62t34.5 51q22 22 51 34.5t62 12.5z"/></svg>