<svg xmlns="http://www.w3.org/2000/svg" viewBox="0 0 2048 2048"><path d="M1024 0q141 0 272 36.5t245 103q114 66.5 207.5 160t160 207.5q66.5 114 103 245t36.5 272q0 141-36.5 272t-103 245q-66.5 114-160 207.5t-207.5 160q-114 66.5-245 103t-272 36.5q-53 0-99.5-20.5t-81-55q-34.5-34.5-55-81T768 1792q0-49 9.5-85.5T801 1640q14-30 31-56t31-52.5q14-26.5 23.5-56t9.5-67.5q0-52-20.5-99t-55-81.5q-34.5-34.5-81.5-55t-99-20.5q-38 0-67.5 9.5t-56 23.5q-26.5 14-52.5 31t-56 31q-30 14-67 23.5t-85 9.5q-53 0-99.5-20.5t-81-55q-34.5-34.5-55-81T0 1024q0-141 36.5-272t103-245q66.5-114 160-207.5t207.5-160Q621 73 751.5 36.5T1024 0m0 1920q123 0 237.5-32t214-90.5Q1575 1739 1657 1657t140.5-181.5q58.5-99.5 90.5-214t32-237.5q0-123-32-237.5t-90.5-214Q1739 473 1657 391t-181.5-140.5q-99.5-58.5-214-90.5T1024 128q-123 0-237.5 32t-214 90.5Q473 309 391 391T250.5 572.5Q192 672 160 786.5T128 1024q0 27 10 50t27.5 40.5Q183 1132 206 1142t50 10q38 0 67.5-9.5t56-23.5q26.5-14 52-31t55-31q29.5-14 66.5-23.5t87-9.5q80 0 150 30t122 82q52 52 82 122t30 150q0 49-9.5 86.5t-23.5 67q-14 29.5-31 55t-31 52q-14 26.5-23.5 56T896 1792q0 27 10 50t27.5 40.5Q951 1900 974 1910t50 10M512 640q27 0 50 10t40.5 27.5Q620 695 630 718t10 50q0 27-10 50t-27.5 40.5Q585 876 562 886t-50 10q-27 0-50-10t-40.5-27.5Q404 841 394 818t-10-50q0-27 10-50t27.5-40.5Q439 660 462 650t50-10m384-256q27 0 50 10t40.5 27.5Q1004 439 1014 462t10 50q0 27-10 50t-27.5 40.5Q969 620 946 630t-50 10q-27 0-50-10t-40.5-27.5Q788 585 778 562t-10-50q0-27 10-50t27.5-40.5Q823 404 846 394t50-10m512 384q-27 0-50-10t-40.5-27.5Q1300 713 1290 690t-10-50q0-27 10-50t27.5-40.5Q1335 532 1358 522t50-10q27 0 50 10t40.5 27.5Q1516 567 1526 590t10 50q0 27-10 50t-27.5 40.5Q1481 748 1458 758t-50 10m128 256q27 0 50 10t40.5 27.5q17.5 17.5 27.5 40.5t10 50q0 27-10 50t-27.5 40.5Q1609 1260 1586 1270t-50 10q-27 0-50-10t-40.5-27.5Q1428 1225 1418 1202t-10-50q0-27 10-50t27.5-40.5q17.5-17.5 40.5-27.5t50-10m-256 384q27 0 50 10t40.5 27.5q17.5 17.5 27.5 40.5t10 50q0 27-10 50t-27.5 40.5Q1353 1644 1330 1654t-50 10q-27 0-50-10t-40.5-27.5Q1172 1609 1162 1586t-10-50q0-27 10-50t27.5-40.5q17.5-17.5 40.5-27.5t50-10z"/></svg>