<svg xmlns="http://www.w3.org/2000/svg" viewBox="0 0 2048 2048"><path d="M2048 128v1024h-128V640h-512v384h-128V640H768v1024h256v128H0V128h2048M640 640H128v1024h512V640m1280-128V256H128v256h1792m118 976l-124 51q6 30 6 61t-6 61l124 51-49 119-124-52q-35 51-86 86l52 124-119 49-51-124q-30 6-61 6t-61-6l-51 124-119-49 52-124q-51-35-86-86l-124 52-49-119 124-51q-6-30-6-61t6-61l-124-51 49-119 124 52q35-51 86-86l-52-124 119-49 51 124q30-6 61-6t61 6l51-124 119 49-52 124q51 35 86 86l124-52 49 119m-437 304q40 0 74.5-15t60.5-41.5q26-26.5 41-61.5t15-75q0-39-15-74t-41.5-61q-26.5-26-61.5-41t-74-15q-40 0-75 15.5t-61 41.5q-26 26-41 61t-15 75q0 40 15 74.5t41.5 60.5q26.5 26 61.5 41t75 15z"/></svg>