<svg xmlns="http://www.w3.org/2000/svg" viewBox="0 0 2048 2048"><path d="M1024 896q52 0 99 20.5t81.5 55q34.5 34.5 55 81.5t20.5 99q0 53-20.5 99.5t-55 81q-34.5 34.5-81.5 55t-99 20.5q-53 0-99.5-20.5t-81-55q-34.5-34.5-55-81T768 1152q0-52 20.5-99t55-81.5q34.5-34.5 81-55T1024 896m0 384q27 0 50-10t40.5-27.5q17.5-17.5 27.5-40.5t10-50q0-27-10-50t-27.5-40.5Q1097 1044 1074 1034t-50-10q-27 0-50 10t-40.5 27.5Q916 1079 906 1102t-10 50q0 27 10 50t27.5 40.5Q951 1260 974 1270t50 10m0-1152q141 0 271.5 36.5T1540 268q114 67 207.5 160.5T1908 636q67 114 103.5 244.5T2048 1152q0 102-20 200.5t-58 191q-38 92.5-94 176.5t-128 156l-90-90q63-63 111.5-136.5t82-154.5q33.5-81 51-167.5T1920 1152q0-124-32-238.5t-90.5-214q-58.5-99.5-140-181t-181-140q-99.5-58.5-214-90.5T1024 256q-124 0-238.5 32t-214 90.5q-99.5 58.5-181 140t-140 181Q192 799 160 913.5T128 1152q0 89 17.5 175.5t51 167.5q33.5 81 82 154.5T390 1786l-90 90q-72-72-128-156t-94-176.5q-38-92.5-58-191T0 1152q0-141 36.5-271.5T140 636q67-114 160.5-207.5T508 268q114-67 244.5-103.5T1024 128m0 384q133 0 249.5 50T1477 699q87 87 137 203.5t50 249.5q0 128-48.5 245T1477 1605l-91-91q72-72 111-166t39-196q0-106-40.5-199t-110-162.5Q1316 721 1223 680.5T1024 640q-106 0-199 40.5t-162.5 110Q593 860 552.5 953T512 1152q0 102 39 196t111 166l-91 91q-90-91-138.5-208T384 1152q0-133 50-249.5T571 699q87-87 203.5-137t249.5-50z"/></svg>