<svg xmlns="http://www.w3.org/2000/svg" viewBox="0 0 2048 2048"><path d="M960 0q133 0 255.5 34t229.5 96.5q107 62.5 194.5 150t150 194.5q62.5 107 96.5 229.5t34 255.5q0 133-34 255.5t-96.5 229.5q-62.5 107-150 194.5t-194.5 150q-107 62.5-229.5 96.5T960 1920q-133 0-255.5-34T475 1789.5q-107-62.5-194.5-150t-150-194.5Q68 1338 34 1215.5T0 960q0-133 34-255.5T130.5 475q62.5-107 150-194.5t194.5-150Q582 68 704.5 34T960 0m64 1790q102-8 196-39.5t176.5-82.5q82.5-51 151.5-120t120-151.5q51-82.5 82.5-176.5t39.5-196h-126V896h126q-8-102-39.5-196T1668 523.5Q1617 441 1548 372t-151.5-120q-82.5-51-176.5-82.5T1024 130v126H896V130q-102 8-196 39.5T523.5 252Q441 303 372 372T252 523.5Q201 606 169.5 700T130 896h126v128H130q8 102 39.5 196t82.5 176.5q51 82.5 120 151.5t151.5 120q82.5 51 176.5 82.5t196 39.5v-126h128v126m85-979l299 597-597-299-299-597 597 299m63 361l-141-283-283-141 141 283 283 141z"/></svg>