<svg xmlns="http://www.w3.org/2000/svg" viewBox="0 0 2048 2048"><path d="M1920 0v2048H256v-254H128v-128h128v-257H128v-128h128V769H128V641h128V385H128V257h128V0h1664m-128 128H384v1792h1408V128m-128 384h-640V384h640v128m0 256h-640V640h640v128m-960 892q-39 0-73.5-14.5t-60-40q-25.5-25.5-40-60T516 1472q0-39 14.5-73t40-59.5q25.5-25.5 60-40.5t73.5-15q39 0 73 15t59.5 40.5Q862 1365 877 1399t15 73q0 39-15 73.5t-40.5 60q-25.5 25.5-59.5 40t-73 14.5m0-256q-29 0-48.5 19.5T636 1472q0 29 19.5 48.5T704 1540q29 0 48.5-19.5T772 1472q0-29-19.5-48.5T704 1404m0-640q-39 0-73.5-14.5t-60-40q-25.5-25.5-40-60T516 576q0-39 14.5-73t40-59.5q25.5-25.5 60-40.5t73.5-15q39 0 73 15t59.5 40.5Q862 469 877 503t15 73q0 39-15 73.5t-40.5 60Q811 735 777 749.5T704 764m0-256q-29 0-48.5 19.5T636 576q0 29 19.5 48.5T704 644q29 0 48.5-19.5T772 576q0-29-19.5-48.5T704 508m960 900h-640v-128h640v128m0 256h-640v-128h640v128z"/></svg>