<svg xmlns="http://www.w3.org/2000/svg" viewBox="0 0 2048 2048"><path d="M1755 512h-475V37l475 475m-795 520q38 0 71.5 14.5t58.5 40q25 25.5 39.5 59t14.5 70.5q0 38-14.5 71.5t-40 58.5q-25.5 25-59 39.5T960 1400q-38 0-71.5-14.5t-58.5-40q-25-25.5-39.5-58.5t-14.5-71q0-38 14.5-71.5t40-58.5q25.5-25 58.5-39.5t71-14.5m832-392v1408H128V0h1024v640h640m-509 632q2-14 3-28t1-28q0-14-1-28t-3-28l185-76-55-134-185 77q-33-46-79-79l77-185-134-55-76 185q-14-2-28-3t-28-1q-14 0-28 1t-28 3l-76-185-134 55 77 185q-46 33-79 79l-185-77-55 134 185 76q-2 14-3.5 28t-1.5 28q0 14 1.5 28t3.5 28l-185 76 55 134 185-77q33 46 79 79l-77 185 134 55 76-185q14 2 28 3.5t28 1.5q14 0 28-1.5t28-3.5l76 185 134-55-77-185q46-33 79-79l185 77 55-134-185-76z"/></svg>