<svg xmlns="http://www.w3.org/2000/svg" viewBox="0 0 2048 2048"><path d="M1632 1462q66 33 119 81t90.5 107q37.5 59 58 128t20.5 142h-128q0-79-30-149t-82.5-122.5Q1627 1596 1557 1566t-149-30q-80 0-149.5 30t-122 82.5Q1084 1701 1054 1771t-30 149H896q0-73 20.5-142t58-128q37.5-59 90.5-107t119-81q-75-54-117.5-135t-42.5-175q0-79-30-149t-82.5-122.5Q859 828 789 798t-149-30q-80 0-149.5 30t-122 82.5Q316 933 286 1003t-30 149H128q0-73 20.5-142t58-128Q244 823 297 775t119-81q-75-54-117.5-135T256 384q0-79 30-149t82.5-122.5Q421 60 490.5 30T640 0q79 0 149 30t122.5 82.5Q964 165 994 235t30 149q0 94-42.5 175T864 694q76 38 136 98t98 136q54-75 135-117.5t175-42.5q79 0 149 30t122.5 82.5Q1732 933 1762 1003t30 149q0 94-42.5 175T1632 1462M640 640q53 0 99.5-20t81.5-55q35-35 55-81.5t20-99.5q0-53-20-99.5T821 203q-35-35-81.5-55T640 128q-53 0-99.5 20T459 203q-35 35-55 81.5T384 384q0 53 20 99.5t55 81.5q35 35 81.5 55t99.5 20m768 768q53 0 99.5-20t81.5-55q35-35 55-81.5t20-99.5q0-53-20-99.5t-55-81.5q-35-35-81.5-55t-99.5-20q-53 0-99.5 20t-81.5 55q-35 35-55 81.5t-20 99.5q0 53 20 99.5t55 81.5q35 35 81.5 55t99.5 20m128-1152h-384V128h512v512h-128V256z"/></svg>