<svg xmlns="http://www.w3.org/2000/svg" viewBox="0 0 2048 2048"><path d="M1792 896h-640V768h640v128m256-640v987q-28-35-59.5-66t-68.5-56V384H128v1280h903q3 33 10 65t18 63H0V256h2048M256 1408q0-52 14-101.5t40-93q26-43.5 63-79.5t83-61q-34-35-53-81t-19-96q0-53 20-99.5t55-81.5q35-35 81.5-55t99.5-20q53 0 99.5 20t81.5 55q35 35 55 81.5t20 99.5q0 50-19 96t-53 81q46 25 83 61t63 79.5q26 43.5 40 93t14 101.5H896q0-53-20-99.5t-55-81.5q-35-35-81.5-55t-99.5-20q-53 0-99.5 20t-81.5 55q-35 35-55 81.5t-20 99.5H256m384-640q-27 0-50 10t-40.5 27.5Q532 823 522 846t-10 50q0 27 10 50t27.5 40.5Q567 1004 590 1014t50 10q27 0 50-10t40.5-27.5Q748 969 758 946t10-50q0-27-10-50t-27.5-40.5Q713 788 690 778t-50-10m1398 720l-124 51q6 30 6 61t-6 61l124 51-49 119-124-52q-35 51-86 86l52 124-119 49-51-124q-30 6-61 6t-61-6l-51 124-119-49 52-124q-51-35-86-86l-124 52-49-119 124-51q-6-30-6-61t6-61l-124-51 49-119 124 52q35-51 86-86l-52-124 119-49 51 124q30-6 61-6t61 6l51-124 119 49-52 124q51 35 86 86l124-52 49 119m-438 304q40 0 75-15t61-41q26-26 41-61t15-75q0-40-15-75t-41-61q-26-26-61-41t-75-15q-40 0-75 15t-61 41q-26 26-41 61t-15 75q0 40 15 75t41 61q26 26 61 41t75 15z"/></svg>