<svg xmlns="http://www.w3.org/2000/svg" viewBox="0 0 2048 2048"><path d="M740 1077q65 33 117.5 81.5t89.5 108q37 59.5 57 128t20 141.5H896q0-79-30.5-149T783 1265q-52-52-122-82.5T512 1152q-79 0-149 30.5T241 1265q-52 52-82.5 122T128 1536H0q0-73 20-141.5t57-128q37-59.5 89.5-108T284 1077q-73-54-114.5-136T128 768q0-79 30.5-149T241 497q52-52 122-82.5T512 384q79 0 149 30.5T783 497q52 52 82.5 122T896 768q0 91-41.5 173T740 1077M256 768q0 53 20.5 99.5t55 81q34.5 34.5 81 55T512 1024q52 0 99-20.5t81.5-55q34.5-34.5 55-81T768 768q0-52-20.5-99t-55-81.5Q658 553 611 532.5T512 512q-53 0-99.5 20.5t-81 55Q297 622 276.5 669T256 768m1792-384v128h-896V384h896m-896 512h896v128h-896V896m0 512h896v128h-896v-128z"/></svg>