<svg xmlns="http://www.w3.org/2000/svg" viewBox="0 0 2048 2048"><path d="M1330 1203q136 47 245.5 131.5t186 195.5q76.5 111 117.5 243t41 275h-128q0-164-58.5-304.5T1572 1500q-103-103-243.5-161.5T1024 1280q-107 0-206 27t-184.5 76.5q-85.5 49.5-155 119t-119 155Q310 1743 283 1842t-27 206H128q0-144 42-275.5T289 1531q77-110 186.5-194T720 1204q-78-42-140-102T474.5 968.5q-43.5-73.5-67-157T384 640q0-133 50-249.5T571 187q87-87 203.5-137T1024 0q133 0 249.5 50T1477 187q87 87 137 203.5t50 249.5q0 88-23.5 171t-67 156q-43.5 73-105 133.5T1330 1203M512 640q0 106 40.5 199t110 162.5q69.5 69.5 162.5 110t199 40.5q106 0 199-40.5t162.5-110q69.5-69.5 110-162.5t40.5-199q0-106-40.5-199t-110-162.5Q1316 209 1223 168.5T1024 128q-106 0-199 40.5t-162.5 110Q593 348 552.5 441T512 640z"/></svg>