<svg xmlns="http://www.w3.org/2000/svg" viewBox="0 0 2048 2048"><path d="M1792 640h-640V512h640v128m-640 128h512v128h-512V768m636 646q56 11 104 39.5t82.5 70.5q34.5 42 54 94.5T2048 1728q0 66-25.5 124.5t-69 102Q1910 1998 1852 2023t-124 25h-256q-66 0-124.5-25t-102-68.5q-43.5-43.5-68.5-102t-25-124.5q0-57 19-109t53-93.5q34-41.5 81-70.5t103-41v133q-29 10-52.5 28t-40.5 42q-17 24-26 52.5t-9 58.5q0 40 15 75t41 61q26 26 61 41t75 15h256q40 0 75-15t61-41q26-26 41-61t15-75q0-31-9.5-60t-27.5-53q-18-24-42.5-42t-54.5-28q6-36 6-73 0-14-1-29t-3-29m-700-134q-40 0-75 15t-61 41q-26 26-41 61t-15 75q0 32 9.5 60.5T933 1585q18 24 42.5 42t54.5 28q-6 36-6 73 0 14 1 29t3 29q-56-10-104-39t-82.5-71q-34.5-42-54-94.5T768 1472q0-66 25-124t68.5-101.5q43.5-43.5 102-69T1088 1152h256q66 0 124 25.5t101.5 69q43.5 43.5 69 101.5t25.5 124q0 54-20.5 105.5T1588 1671q-35 42-81.5 72.5T1408 1786v-133q43-9 68-23.5t38.5-36.5q13.5-22 17.5-52t4-69q0-40-15-75t-41-61q-26-26-61-41t-75-15h-256M2048 0v1371q-57-51-128-81V128H128v1280h487q-2 16-4.5 31.5T608 1472q0 16 2 32l4 32H0V0h2048M256 1152q0-52 14-101.5t40-93q26-43.5 63-79.5t83-61q-34-35-53-81t-19-96q0-53 20-99.5t55-81.5q35-35 81.5-55t99.5-20q53 0 99.5 20t81.5 55q35 35 55 81.5t20 99.5q0 50-19 96t-53 81q63 35 109.5 90.5T1004 1031q-64 10-124 36-14-38-38-69.5t-55.5-54q-31.5-22.5-69-35T640 896q-53 0-99.5 20T459 971q-35 35-55 81.5t-20 99.5H256m384-640q-27 0-50 10t-40.5 27.5Q532 567 522 590t-10 50q0 27 10 50t27.5 40.5Q567 748 590 758t50 10q27 0 50-10t40.5-27.5Q748 713 758 690t10-50q0-27-10-50t-27.5-40.5Q713 532 690 522t-50-10z"/></svg>