<svg xmlns="http://www.w3.org/2000/svg" viewBox="0 0 2048 2048"><path d="M1024 0q141 0 272 36.5t245 103q114 66.5 207.5 160t160 207.5q66.5 114 103 245t36.5 272q0 141-36.5 272t-103 245q-66.5 114-160 207.5t-207.5 160q-114 66.5-245 103t-272 36.5q-141 0-272-36.5t-245-103q-114-66.5-207.5-160t-160-207.5q-66.5-114-103-244.5T0 1024q0-141 36.5-272t103-245q66.5-114 160-207.5t207.5-160Q621 73 751.5 36.5T1024 0m0 1920q123 0 237.5-32t214-90.5Q1575 1739 1657 1657t140.5-181.5q58.5-99.5 90.5-214t32-237.5q0-123-32-237.5t-90.5-214Q1739 473 1657 391t-181.5-140.5q-99.5-58.5-214-90.5T1024 128q-65 0-128 9v1774q63 9 128 9z"/></svg>