<svg xmlns="http://www.w3.org/2000/svg" viewBox="0 0 2048 2048"><path d="M1504 393q91 18 167 64t131.5 112.5q55.5 66.5 86.5 150t31 176.5q0 101-37.5 191.5t-102.5 160q-65 69.5-153 112t-189 47.5q-71 106-178.5 173t-235.5 81v387H896v-387q-128-14-235.5-81T482 1407q-101-5-189-47.5t-153-112q-65-69.5-102.5-160T0 896q0-93 31-176.5t86.5-150Q173 503 249 457t167-64q29-88 83-160t125.5-124q71.5-52 157-80.5T960 0q93 0 178.5 28.5t157 80.5q71.5 52 125.5 124t83 160m-96 887q79 0 149-30t122.5-82.5q52.5-52.5 82.5-122t30-149.5q0-79-30-149t-82.5-122.5Q1627 572 1557 542t-149-30q-2 0-3 .5t-3 .5q-12-82-51-152.5T1253 238q-59-52-134-81t-159-29q-84 0-159 29t-134 81q-59 52-98 122.5T518 513q-2 0-3-.5t-3-.5q-80 1-150 31t-122 81.5Q188 676 158 746t-30 150q0 80 30 149.5t82.5 122q52.5 52.5 122 82.5t149.5 30h45q24 51 59 93.5t79 75q44 32.5 94.5 53.5t106.5 29v-129q-56-12-103-41t-81-70.5q-34-41.5-53-93.5t-19-109h128q0 30 9 58.5t26 52.5q17 24 40.5 42t52.5 28V896h128v373q29-10 52.5-28t40.5-42q17-24 26-52.5t9-58.5h128q0 57-19 109t-53 93.5q-34 41.5-81 70.5t-103 41v129q55-8 106-29t95-53.5q44-32.5 79-75t59-93.5h45z"/></svg>