<svg xmlns="http://www.w3.org/2000/svg" viewBox="0 0 2048 2048"><path d="M1280 1408q53 0 99.5 20t81.5 55q35 35 55 81.5t20 99.5q0 53-20 99.5t-55 81.5q-35 35-81.5 55t-99.5 20q-53 0-99.5-20t-81.5-55q-35-35-55-81.5t-20-99.5q0-53 20-99.5t55-81.5q35-35 81.5-55t99.5-20m0 384q27 0 50-10t40.5-27.5q17.5-17.5 27.5-40.5t10-50q0-27-10-50t-27.5-40.5Q1353 1556 1330 1546t-50-10q-27 0-50 10t-40.5 27.5Q1172 1591 1162 1614t-10 50q0 27 10 50t27.5 40.5q17.5 17.5 40.5 27.5t50 10M1984 0q26 0 45 19t19 45q0 26-19 45l-546 547q26 39 39.5 84t13.5 92v27L347 2048 0 1701 1189 512q58 0 105.5 10.5T1392 565l547-546q19-19 45-19m-578 807q-4-32-18.5-60.5t-36-50q-21.5-21.5-50-36T1241 642L181 1701l166 166L1406 807z"/></svg>