<svg xmlns="http://www.w3.org/2000/svg" viewBox="0 0 2048 2048"><path d="M1793 321q40 0 75 15t61 41q26 26 41 61t15 75q0 40-15.5 75t-41.5 61q-26 26-61 41t-75 15v1216H256V705q-40 0-74.5-15T121 648.5Q95 622 80 587t-15-74q0-40 15-75t41-61q26-26 61-41t75-15q40 0 75 15t61 41q26 26 41 61t15 75q0 55-29.5 102.5T340 686l361 479 260-471q-29-10-52.5-28T868 624q-17-24-26-52.5t-9-58.5q0-40 15-75t41-61q26-26 61-41t75-15q40 0 75 15t61 41q26 26 41 61t15 75q0 61-34.5 110t-91.5 70l263 473 354-481q-49-24-78-70.5T1601 513q0-40 15-75t41-61q26-26 61-41t75-15M961 513q0 27 19.5 45.5T1026 577v-1l1 1q26-1 44-19.5t18-44.5q0-26-19-45t-45-19q-26 0-45 19t-19 45m-768 0q0 26 18.5 45t44.5 19v-1l1 1q26 0 45-19t19-45q0-26-19-45t-45-19q-26 0-45 19t-19 45m1470 451l-324 441-312-563-309 559-333-441v832h1278V964m129-387q26 0 45.5-18.5T1857 513q0-26-19-45t-45-19q-26 0-45 19t-19 45q0 25 17 43.5t42 20.5l4-5v5z"/></svg>