<svg xmlns="http://www.w3.org/2000/svg" viewBox="0 0 2048 2048"><path d="M1792 1064l128-128v856H0V128h1631q-40 26-73 60.5t-66 67.5H128v256h1108l-128 128H128v1024h1664v-600m56-808q42 0 78 15.5t63 42q27 26.5 42.5 62.5t15.5 78q0 33-8 57.5t-21.5 45.5q-13.5 21-32 40.5T1946 638l-128 128-541 542q-6 48-28 89.5t-56 71.5q-34 30-77.5 47.5T1024 1534H384v-126h256q27 0 50-10.5t40.5-28.5q17.5-18 27.5-41.5t10-49.5q0-48 17.5-91.5T833 1109q30-34 71.5-56t89.5-28l387-387 326-325q28-28 64.5-42.5T1848 256m-824 1150q26 0 49.5-10t41-27.5q17.5-17.5 27.5-41t10-49.5q0-26-10-49.5t-27.5-41q-17.5-17.5-41-27.5t-49.5-10q-26 0-49.5 10t-41 27.5q-17.5 17.5-27.5 41t-10 49.5q0 69-35 128h163m338-365q-21-29-46.5-55t-54.5-46l-115 115q66 35 101 101l115-115m537-536q21-21 21-51 0-29-21-50t-51-21q-31 0-51 20l-445 445q58 43 102 101l445-444z"/></svg>