<svg xmlns="http://www.w3.org/2000/svg" viewBox="0 0 2048 2048"><path d="M384 1152q79 0 149 30t122.5 82.5Q708 1317 738 1387t30 149q0 80-30 149.5t-82.5 122Q603 1860 533 1890t-149 30q-80 0-149.5-30t-122-82.5Q60 1755 30 1685.5T0 1536q0-79 30-149t82.5-122.5q52.5-52.5 122-82.5t149.5-30m0 640q53 0 99.5-20t81.5-55q35-35 55-81.5t20-99.5q0-53-20-99.5t-55-81.5q-35-35-81.5-55t-99.5-20q-53 0-99.5 20t-81.5 55q-35 35-55 81.5t-20 99.5q0 53 20 99.5t55 81.5q35 35 81.5 55t99.5 20m1280-640q79 0 149 30t122.5 82.5Q1988 1317 2018 1387t30 149q0 80-30 149.5t-82.5 122Q1883 1860 1813 1890t-149 30q-80 0-149.5-30t-122-82.5q-52.5-52.5-82.5-122t-30-149.5q0-79 30-149t82.5-122.5q52.5-52.5 122-82.5t149.5-30m0 640q53 0 99.5-20t81.5-55q35-35 55-81.5t20-99.5q0-53-20-99.5t-55-81.5q-35-35-81.5-55t-99.5-20q-53 0-99.5 20t-81.5 55q-35 35-55 81.5t-20 99.5q0 53 20 99.5t55 81.5q35 35 81.5 55t99.5 20m-256-704q-26 0-45-19l-115-114-102 101q9 9 21.5 20t23 23q10.5 12 18 25t7.5 28v448q0 40-15 75t-41 61q-26 26-61 41t-75 15q-40 0-75-15t-61-41q-26-26-41-61t-15-75v-294q-27-27-54-54.5t-55-54.5q-39-38-61-76.5t-22-95.5q0-30 6-54t17-45q11-21 27.5-40t36.5-39l429-429q-2-8-3-17t-1-17q0-53 20-99.5t55-81.5q35-35 81.5-55t99.5-20q53 0 99.5 20t81.5 55q35 35 55 81.5t20 99.5q0 42-13 80.5t-36.5 70.5q-23.5 32-56.5 55.5t-73 36.5l77 77h166q40 0 75 15t61 41q26 26 41 61t15 75q0 40-15 75t-41 61q-26 26-61 41t-75 15h-320m0-832q-27 0-50 10t-40.5 27.5Q1300 311 1290 334t-10 50q0 27 10 50t27.5 40.5Q1335 492 1358 502t50 10q27 0 50-10t40.5-27.5Q1516 457 1526 434t10-50q0-27-10-50t-27.5-40.5Q1481 276 1458 266t-50-10m-416 800q0-26 19-45l192-192q19-19 45-19t45 19l141 141h294q26 0 45-19t19-45q0-26-19-45t-45-19h-192q-26 0-45-19l-275-275-403 403q-18 18-31.5 36.5T768 1024q0 26 12 44t29 35l132 132q19 19 19 45v320q0 26 19 45t45 19q26 0 45-19t19-45v-422l-77-77q-19-19-19-45z"/></svg>