<svg xmlns="http://www.w3.org/2000/svg" viewBox="0 0 2048 2048"><path d="M1196 436q-115-52-239-52-79 0-152 20.5T668 463q-64 38-116 90.5T462.5 670q-37.5 64-58 137.5T384 960q0 115 44 220.5T553 1367l-91 91q-100-100-153-228.5T256 960q0-97 25-187t71-168q46-78 110-142t142-109.5Q682 308 772 283t188-25q75 0 147.5 15.5T1248 320l-52 116m241 844q48-71 73-152.5t25-166.5q0-62-13-121.5T1484 724l116-52q31 68 46.5 140.5T1662 960q0 84-19 164.5t-57 155.5h-149M128 960q0 115 30 221t84 198.5q54 92.5 130 168.5t168.5 130q92.5 54 198.5 84t221 30q166 0 320-64v136q-154 56-320 56-132 0-254.5-34.5t-229.5-97q-107-62.5-194.5-150t-150-194.5q-62.5-107-97-229.5T0 960q0-132 34.5-254.5t97-229.5q62.5-107 150-194.5t194.5-150q107-62.5 229.5-97T960 0q132 0 254.5 34.5t229.5 97q107 62.5 194.5 150t150 194.5q62.5 107 97 229.5T1920 960q0 166-56 320h-136q64-154 64-320 0-115-30-221t-84-198.5Q1624 448 1548 372t-168.5-130q-92.5-54-198.5-84t-221-30q-115 0-221 30t-198.5 84Q448 296 372 372T242 540.5Q188 633 158 739t-30 221m1004-84q20 40 20 84 0 40-15 75t-41 61q-26 26-61 41t-75 15q-40 0-75-15t-61-41q-26-26-41-61t-15-75q0-40 15-75t41-61q26-26 61-41t75-15q43 0 83 19l368-368 90 90-369 367m-172 148q26 0 45-19t19-45q0-26-19-45t-45-19q-26 0-45 19t-19 45q0 26 19 45t45 19m1088 640v128h-256v256h-128v-256h-256v-128h256v-256h128v256h256z"/></svg>