<svg xmlns="http://www.w3.org/2000/svg" viewBox="0 0 2048 2048"><path d="M960 128q72 0 159.5 8t175 27.5Q1382 183 1461 217t133 85q31 29 50.5 66t19.5 80v1152q0 45-19.5 80.5T1594 1746q-52 51-131.5 84.5t-168 53.5q-88.5 20-176.5 28t-158 8q-72 0-159.5-8t-175-27.5Q538 1865 459 1831t-133-85q-31-29-50.5-66t-19.5-80V448q0-45 19.5-80.5T326 302q52-51 131.5-84.5t168-53.5Q714 144 802 136t158-8m0 128q-51 0-106.5 3.5t-111.5 12q-56 8.5-109.5 22T531 326q-15 6-40 18.5T442 373q-24 16-41 35.5T384 448q0 8 3 15t8 14q21 32 60.5 56t89 42Q594 593 650 605.5t111.5 20q55.5 7.5 107 11T960 640q40 0 91.5-3.5t107-11q55.5-7.5 111.5-20t105.5-30.5q49.5-18 88.5-42t61-56q5-7 8-14t3-15q0-20-17-39.5t-41-35.5q-24-16-49-28.5t-40-18.5q-48-19-101.5-32.5t-109.5-22q-56-8.5-111.5-12T960 256m0 1536q51 0 106.5-3.5t111.5-12q56-8.5 109.5-21.5t101.5-33q15-6 40-18.5t49-28.5q24-16 41-35.5t17-39.5V638q-57 37-129 62t-149.5 40q-77.5 15-154.5 21.5T960 768q-66 0-143.5-6.5T662 740q-77-15-149-40t-129-62v962q0 20 17 39.5t41 35.5q24 16 49 28.5t40 18.5q48 20 101.5 33t109.5 21.5q56 8.5 111.5 12T960 1792z"/></svg>