<svg xmlns="http://www.w3.org/2000/svg" viewBox="0 0 2048 2048"><path d="M490 1343q-25 0-48.5-10t-41.5-28L37 942Q0 905 0 852q0-27 10-50t27.5-40Q55 745 78 735t50-10q26 0 49.5 9.5T219 762l362 362q18 18 27.5 41.5t9.5 49.5q0 26-10 49.5t-27.5 41Q563 1323 540 1333t-50 10m724-724q-25 0-48.5-10t-41.5-28L762 219q-38-38-38-91 0-27 10-50t27.5-40.5Q779 20 802 10t50-10q53 0 90 37l363 363q18 18 27.5 41.5t9.5 49.5q0 26-10 49.5t-27.5 41Q1287 599 1264 609t-50 10m-520 391L332 648l316-316 362 362-316 316m1244 838q19 19 19 45t-19 45q-19 19-45 19t-45-19L897 988l91-91 950 951M0 1920h1024v128H0v-128m128-256h768v128H128v-128z"/></svg>