<svg xmlns="http://www.w3.org/2000/svg" viewBox="0 0 2048 2048"><path d="M465 265q90 0 155 32t110 85.5q45 53.5 72.5 124t42.5 147q15 76.5 20 154t5 146.5q0 71-7 150.5t-25 157q-18 77.5-48.5 149t-79 125.5q-48.5 54-116 86.5T436 1655q-86 0-150-31t-109.5-82.5q-45.5-51.5-75-119.5t-46-142.5Q39 1205 32.5 1130T26 988q0-73 6-155t23-162.5q17-80.5 47.5-154T182 387q49-56 118.5-89T465 265m-16 1285q67 0 115.5-29.5t81.5-78q33-48.5 53-110.5t30.5-127q10.5-65 13.5-126.5t3-110.5q0-48-2.5-110.5t-12-129q-9.5-66.5-28-131t-50.5-115Q621 432 573 401t-116-31q-71 0-121 31t-84 81.5Q218 533 197.5 598t-31 132.5Q156 798 153 862.5T150 978q0 50 3 111.5t13.5 125q10.5 63.5 30 124t53 107.5q33.5 47 82 75.5T449 1550m574-116q44 0 73.5 29.5t29.5 73.5q0 21-8 39.5t-22.5 32q-14.5 13.5-33 21.5t-39.5 8q-44 0-72.5-28.5T922 1537q0-44 28-73.5t73-29.5m594-1169q90 0 155 32t110 85.5q45 53.5 72.5 124t42.5 147q15 76.5 20 154t5 146.5q0 71-7 150.5t-25 157q-18 77.5-48.5 149t-79 125.5q-48.5 54-116 86.5T1588 1655q-86 0-150-31t-109.5-82.5q-45.5-51.5-75-119.5t-46-142.5q-16.5-74.5-23-149.5t-6.5-142q0-73 6-155t23-162.5q17-80.5 47.5-154T1334 387q49-56 118.5-89t164.5-33m-16 1285q67 0 115.5-29.5t81.5-78q33-48.5 53-110.5t30.5-127q10.5-65 13.5-126.5t3-110.5q0-48-2.5-110.5t-12-129q-9.5-66.5-28-131t-50.5-115q-32-50.5-80-81.5t-116-31q-71 0-121 31t-84 81.5q-34 50.5-54.5 115.5t-31 132.5q-10.5 67.5-13.5 132t-3 115.5q0 50 3 111.5t13.5 125q10.5 63.5 30 124t53 107.5q33.5 47 82 75.5T1601 1550z"/></svg>