<svg xmlns="http://www.w3.org/2000/svg" viewBox="0 0 2048 2048"><path d="M2048 1536h-524q-10 29-28 52.5t-41.5 40q-23.5 16.5-52 26t-58.5 9.5q-30 0-58.5-9.5t-52-26q-23.5-16.5-41.5-40t-28-52.5H628q-10 29-28 52.5t-41.5 40q-23.5 16.5-52 26T448 1664q-30 0-58.5-9.5t-52-26q-23.5-16.5-41.5-40t-28-52.5H0V384h1408v128h360l280 561v463M128 1408h140q10-28 28-52t41.5-40.5q23.5-16.5 52-26t58.5-9.5q30 0 58.5 9.5t52 26Q582 1332 600 1356t28 52h536q14-41 44.5-71.5t71.5-44.5V512H128v896m320 128q26 0 45-19t19-45q0-26-19-45t-45-19q-26 0-45 19t-19 45q0 26 19 45t45 19m896 0q26 0 45-19t19-45q0-26-19-45t-45-19q-26 0-45 19t-19 45q0 26 19 45t45 19m576-433l-232-463h-280v652q41 14 71.5 44.5t44.5 71.5h396v-305z"/></svg>