<svg xmlns="http://www.w3.org/2000/svg" viewBox="0 0 2048 2048"><path d="M1664 1152h-128v704q0 40-15 75t-41 61q-26 26-61 41t-75 15q-40 0-75-15t-61-41q-26-26-41-61t-15-75v-704h-128v-128h256V475l-128-128V0h384v347l-128 128v549h256v128m-384-859l64 65 64-65V128h-128v165m128 859h-128v704q0 26 19 45t45 19q26 0 45-19t19-45v-704M704 0q66 0 124 25.5t101.5 69Q973 138 998.5 196t25.5 124q0 75-34 142.5T896 575v1281q0 40-15 75t-41 61q-26 26-61 41t-75 15q-40 0-75-15t-61-41q-26-26-41-61t-15-75V575q-60-45-94-112.5T384 320q0-66 25-124t68.5-101.5q43.5-43.5 102-69T704 0m64 504q28-16 51.5-34t40.5-39.5q17-21.5 26.5-48.5t9.5-62q0-30-9.5-58t-26-52Q844 186 820 168t-52-28v180l-64 64-64-64V140q-29 10-52.5 28t-40 42q-16.5 24-26 52t-9.5 58q0 35 9.5 62t26.5 48.5q17 21.5 40.5 39.5t51.5 34v1352q0 26 19 45t45 19q26 0 45-19t19-45V504z"/></svg>