<svg xmlns="http://www.w3.org/2000/svg" viewBox="0 0 2048 2048"><path d="M2048 1664h-256v256H896v-256H640v-640q0-27 10-50t27.5-40.5Q695 916 718 906t50-10h128V512h640V256H384v640h162q-34 60-34 128H347l-211 211q-8 8-8 19t7.5 18.5q7.5 7.5 18.5 7.5h358v128H154q-32 0-60-12t-49-33q-21-21-33-49t-12-60q0-31 11.5-59.5T45 1144l211-211V128h1408v384h128v384h128q27 0 50 10t40.5 27.5Q2028 951 2038 974t10 50v640M1024 896h640V640h-640v256m640 640h-640v256h640v-256m256-512H768v512h128v-128h896v128h128v-512m-960 256q-26 0-45-19t-19-45q0-26 19-45t45-19q26 0 45 19t19 45q0 26-19 45t-45 19z"/></svg>