<svg xmlns="http://www.w3.org/2000/svg" width="2048" height="1326" viewBox="0 0 2048 1326">
  <g fill="none" fill-rule="evenodd">
    <path fill="#000" fill-rule="nonzero" d="M1064.48568,418.824866 L1273.4792,418.824866 L1273.4792,632.464069 L1379.14625,632.464069 C1427.94362,632.464069 1478.13292,623.766719 1524.3459,608.109714 C1547.05565,600.414199 1572.5404,589.695446 1594.94428,576.223861 C1565.43889,537.70639 1550.38033,489.068606 1545.943,441.126788 C1539.92312,375.918823 1553.07553,291.050944 1597.20506,240.014961 L1619.17451,214.605576 L1645.35079,235.648554 C1711.25472,288.603983 1766.68814,362.597957 1776.46268,446.942753 C1855.81603,423.5991 1948.9956,429.122494 2018.94677,469.497351 L2047.6498,486.049801 L2032.54248,515.537455 C1973.38542,630.996779 1849.70306,666.756987 1728.78241,660.435671 C1547.84471,1111.09763 1153.92388,1324.45756 676.287723,1324.45756 C429.525887,1324.45756 203.128797,1232.2089 74.2067532,1013.28125 L53.3056277,971.487861 C9.73021645,875.121039 -4.74320346,769.551515 5.075671,664.061784 L8.01911688,632.468502 L186.731498,632.468502 L186.731498,418.829299 L395.711723,418.829299 L395.711723,209.840208 L813.698771,209.840208 L813.698771,0.846683983 L1064.48568,0.846683983 L1064.48568,418.824866 Z"/>
    <path fill="#394D54" fill-rule="nonzero" d="M261.953385,1090.00589 C288.652745,1090.00589 314.097593,1089.30992 338.283498,1087.94902 C340.393558,1087.83377 342.414961,1087.66975 344.498424,1087.54119 C344.520589,1087.53233 344.533887,1087.53233 344.551619,1087.53233 C406.044814,1083.7422 459.257351,1075.52803 503.70161,1062.84107 C503.710476,1062.83221 503.719342,1062.83221 503.728208,1062.83221 C511.809385,1060.52267 519.633455,1058.089 527.142788,1055.49132 C535.538701,1052.57891 539.980468,1043.41167 537.076918,1035.02019 C534.168935,1026.61984 525.010563,1022.16921 516.605784,1025.09049 C460.157229,1044.64845 385.680069,1055.4204 294.406649,1057.4418 C294.397784,1057.4418 294.388918,1057.4418 294.384485,1057.4418 C247.940987,1058.47023 197.170978,1057.24675 142.105489,1053.70487 C142.105489,1053.70487 142.105489,1053.70487 142.101056,1053.70487 C139.286165,1053.53642 136.520035,1053.3724 133.678545,1053.18178 C124.834909,1052.61437 117.139394,1059.27259 116.527654,1068.14282 C115.924779,1077.00419 122.627325,1084.67754 131.488693,1085.28042 C142.734961,1086.04731 153.786182,1086.70338 164.691117,1087.28852 C166.428814,1087.38161 168.10445,1087.43924 169.824416,1087.5279 C201.989541,1089.15034 232.745004,1090.00589 261.953385,1090.00589 Z"/>
    <g fill="#FFF" transform="translate(217.212 35.463)">
      <path d="M156.077991 433.28942L170.382961 433.28942 170.382961 584.238545 156.077991 584.238545 156.077991 433.28942zM128.642771 433.28942L143.510719 433.28942 143.510719 584.238545 128.642771 584.238545 128.642771 433.28942zM101.194251 433.28942L116.062199 433.28942 116.062199 584.238545 101.194251 584.238545 101.194251 433.28942zM73.7457316 433.28942L88.6136797 433.28942 88.6136797 584.238545 73.7457316 584.238545 73.7457316 433.28942zM46.3060779 433.28942L61.174026 433.28942 61.174026 584.238545 46.3060779 584.238545 46.3060779 433.28942zM19.4338355 433.28942L33.7255065 433.28942 33.7255065 584.238545 19.4338355 584.238545 19.4338355 433.28942zM4.34867532 418.190961L185.468121 418.190961 185.468121 599.319273 4.34867532 599.319273 4.34867532 418.190961zM365.067082 224.295896L379.380918 224.295896 379.380918 375.240589 365.067082 375.240589 365.067082 224.295896zM337.631861 224.295896L352.49981 224.295896 352.49981 375.240589 337.631861 375.240589 337.631861 224.295896zM310.183342 224.295896L325.05129 224.295896 325.05129 375.240589 310.183342 375.240589 310.183342 224.295896zM282.734823 224.295896L297.602771 224.295896 297.602771 375.240589 282.734823 375.240589 282.734823 224.295896zM255.304035 224.295896L270.163117 224.295896 270.163117 375.240589 255.304035 375.240589 255.304035 224.295896zM228.431792 224.295896L242.714597 224.295896 242.714597 375.240589 228.431792 375.240589 228.431792 224.295896zM213.3289 209.20187L394.470511 209.20187 394.470511 390.325749 213.3289 390.325749 213.3289 209.20187zM365.067082 433.28942L379.380918 433.28942 379.380918 584.238545 365.067082 584.238545 365.067082 433.28942zM337.631861 433.28942L352.49981 433.28942 352.49981 584.238545 337.631861 584.238545 337.631861 433.28942zM310.183342 433.28942L325.05129 433.28942 325.05129 584.238545 310.183342 584.238545 310.183342 433.28942zM282.734823 433.28942L297.602771 433.28942 297.602771 584.238545 282.734823 584.238545 282.734823 433.28942zM255.304035 433.28942L270.163117 433.28942 270.163117 584.238545 255.304035 584.238545 255.304035 433.28942zM228.431792 433.28942L242.714597 433.28942 242.714597 584.238545 228.431792 584.238545 228.431792 433.28942zM213.3289 418.190961L394.470511 418.190961 394.470511 599.319273 213.3289 599.319273 213.3289 418.190961zM574.065039 433.28942L588.361143 433.28942 588.361143 584.238545 574.065039 584.238545 574.065039 433.28942zM546.620952 433.28942L561.493333 433.28942 561.493333 584.238545 546.620952 584.238545 546.620952 433.28942zM519.181299 433.28942L534.049247 433.28942 534.049247 584.238545 519.181299 584.238545 519.181299 433.28942zM491.732779 433.28942L506.600727 433.28942 506.600727 584.238545 491.732779 584.238545 491.732779 433.28942zM464.28426 433.28942L479.152208 433.28942 479.152208 584.238545 464.28426 584.238545 464.28426 433.28942zM437.420883 433.28942L451.703688 433.28942 451.703688 584.238545 437.420883 584.238545 437.420883 433.28942zM422.326857 418.190961L603.459602 418.190961 603.459602 599.319273 422.326857 599.319273 422.326857 418.190961zM574.065039 224.295896L588.361143 224.295896 588.361143 375.240589 574.065039 375.240589 574.065039 224.295896zM546.620952 224.295896L561.493333 224.295896 561.493333 375.240589 546.620952 375.240589 546.620952 224.295896zM519.181299 224.295896L534.049247 224.295896 534.049247 375.240589 519.181299 375.240589 519.181299 224.295896zM491.732779 224.295896L506.600727 224.295896 506.600727 375.240589 491.732779 375.240589 491.732779 224.295896zM464.28426 224.295896L479.152208 224.295896 479.152208 375.240589 464.28426 375.240589 464.28426 224.295896zM437.420883 224.295896L451.703688 224.295896 451.703688 375.240589 437.420883 375.240589 437.420883 224.295896zM422.326857 209.20187L603.459602 209.20187 603.459602 390.325749 422.326857 390.325749 422.326857 209.20187zM783.058563 433.28942L797.3591 433.28942 797.3591 584.238545 783.058563 584.238545 783.058563 433.28942zM755.618909 433.28942L770.486857 433.28942 770.486857 584.238545 755.618909 584.238545 755.618909 433.28942zM728.17039 433.28942L743.038338 433.28942 743.038338 584.238545 728.17039 584.238545 728.17039 433.28942zM700.72187 433.28942L715.589818 433.28942 715.589818 584.238545 700.72187 584.238545 700.72187 433.28942zM673.286649 433.28942L688.154597 433.28942 688.154597 584.238545 673.286649 584.238545 673.286649 433.28942zM646.409974 433.28942L660.701645 433.28942 660.701645 584.238545 646.409974 584.238545 646.409974 433.28942zM631.315948 418.190961L812.448693 418.190961 812.448693 599.319273 631.315948 599.319273 631.315948 418.190961zM783.058563 224.295896L797.3591 224.295896 797.3591 375.240589 783.058563 375.240589 783.058563 224.295896zM755.618909 224.295896L770.486857 224.295896 770.486857 375.240589 755.618909 375.240589 755.618909 224.295896zM728.17039 224.295896L743.038338 224.295896 743.038338 375.240589 728.17039 375.240589 728.17039 224.295896zM700.72187 224.295896L715.589818 224.295896 715.589818 375.240589 700.72187 375.240589 700.72187 224.295896zM673.286649 224.295896L688.154597 224.295896 688.154597 375.240589 673.286649 375.240589 673.286649 224.295896zM646.409974 224.295896L660.701645 224.295896 660.701645 375.240589 646.409974 375.240589 646.409974 224.295896zM631.315948 209.20187L812.448693 209.20187 812.448693 390.325749 631.315948 390.325749 631.315948 209.20187zM783.058563 15.2979394L797.3591 15.2979394 797.3591 166.251498 783.058563 166.251498 783.058563 15.2979394zM755.618909 15.2979394L770.486857 15.2979394 770.486857 166.251498 755.618909 166.251498 755.618909 15.2979394zM728.17039 15.2979394L743.038338 15.2979394 743.038338 166.251498 728.17039 166.251498 728.17039 15.2979394zM700.72187 15.2979394L715.589818 15.2979394 715.589818 166.251498 700.72187 166.251498 700.72187 15.2979394zM673.286649 15.2979394L688.154597 15.2979394 688.154597 166.251498 673.286649 166.251498 673.286649 15.2979394zM646.409974 15.2979394L660.701645 15.2979394 660.701645 166.251498 646.409974 166.251498 646.409974 15.2979394zM631.315948.212779221L812.448693.212779221 812.448693 181.341091 631.315948 181.341091 631.315948.212779221zM992.047654 433.28942L1006.33932 433.28942 1006.33932 584.238545 992.047654 584.238545 992.047654 433.28942zM964.608 433.28942L979.467082 433.28942 979.467082 584.238545 964.608 584.238545 964.608 433.28942zM937.150615 433.28942L952.018563 433.28942 952.018563 584.238545 937.150615 584.238545 937.150615 433.28942zM909.710961 433.28942L924.578909 433.28942 924.578909 584.238545 909.710961 584.238545 909.710961 433.28942zM882.262442 433.28942L897.13039 433.28942 897.13039 584.238545 882.262442 584.238545 882.262442 433.28942zM855.390199 433.28942L869.695169 433.28942 869.695169 584.238545 855.390199 584.238545 855.390199 433.28942zM840.305039 418.190961L1021.43335 418.190961 1021.43335 599.319273 840.305039 599.319273 840.305039 418.190961z"/>
    </g>
    <path fill="#FFF" d="M600.33884,928.448831 C627.933645,928.448831 650.302061,950.830545 650.302061,978.416485 C650.302061,1006.01129 627.933645,1028.37971 600.33884,1028.37971 C572.739602,1028.37971 550.371186,1006.01129 550.371186,978.416485 C550.371186,950.830545 572.739602,928.448831 600.33884,928.448831"/>
    <path fill="#000" fill-rule="nonzero" d="M600.33884,942.62968 C604.90916,942.62968 609.271134,943.489662 613.296208,945.050043 C608.934234,947.572364 605.981922,952.297835 605.981922,957.701541 C605.981922,965.76942 612.524883,972.299082 620.592762,972.299082 C626.120589,972.299082 630.916987,969.227082 633.403844,964.696658 C635.15484,968.921212 636.130078,973.558026 636.130078,978.425351 C636.130078,998.187221 620.105143,1014.21216 600.343273,1014.21216 C580.581403,1014.21216 564.552035,998.187221 564.552035,978.425351 C564.547602,958.650182 580.581403,942.62968 600.33884,942.62968"/>
    <path fill="#FFF" fill-rule="nonzero" d="M733.175134,1288.5422 C609.426286,1229.81957 541.500952,1149.98746 503.706043,1062.84107 C457.736866,1075.96689 402.480762,1084.34951 338.283498,1087.94902 C314.09316,1089.30992 288.652745,1090.00589 261.953385,1090.00589 C231.18019,1090.00589 198.740225,1089.09714 164.69555,1087.28852 C278.177801,1200.70428 417.787567,1288.02355 676.287723,1289.62826 C695.371359,1289.62383 714.317576,1289.25146 733.175134,1288.5422 Z"/>
  </g>
</svg>
