<svg xmlns="http://www.w3.org/2000/svg" viewBox="0 0 2048 2048"><path d="M761 999q0 44-9 91.5t-30 86.5q-21 39-57 64.5t-90 25.5q-18 0-36-1l-36-2V754q20-1 39.5-2t39.5-1q51 0 85.5 22.5T723 832q21 36 29.5 80t8.5 87M64 273L1216 68v1912L64 1781V273m312 1129q57 4 114 9.5t114 5.5q86 0 145.5-38.5T846 1279q37-61 53.5-136T916 995q0-76-13-147.5t-46.5-127q-33.5-55.5-91-89T620 598q-61 0-122.5 7.5T376 618v784m1508-358h-483v483h-121V924h443v-81h-443V723h443v-81h-443V521h443v-80h-443V320h563q17 0 29 11.5t12 28.5v684m120 81v603h-523v-603h523m-281 80q-42 0-78.5 15.5t-64 43q-27.5 27.5-43.5 64t-16 78.5h202v-201m40 443q42 0 78.5-16t63.5-43q27-27 43-63.5t16-78.5q0-42-16-78.5t-43-63.5q-27-27-63.5-43t-78.5-16v201h-201q0 42 16 78.5t43 63.5q27 27 63.5 43t78.5 16z"/></svg>