<svg xmlns="http://www.w3.org/2000/svg" viewBox="0 0 2048 2048"><path d="M1664 896q79 0 149 30t122 82.5q52 52.5 82 122.5t30 149q0 80-30 149.5t-82 122q-52 52.5-122 82.5t-149 30q-60 0-117-18t-105-53l-437 436q-19 19-45 19t-45-19q-19-19-19-45t19-45l436-437q-35-48-53-105t-18-117q0-79 30-149t82.5-122.5q52.5-52.5 122-82.5t149.5-30m0 640q53 0 99.5-20t81.5-55q35-35 55-81.5t20-99.5q0-53-20-99.5t-55-81.5q-35-35-81.5-55t-99.5-20q-53 0-99.5 20t-81.5 55q-35 35-55 81.5t-20 99.5q0 53 20 99.5t55 81.5q35 35 81.5 55t99.5 20m-656 128l-128 128H256V0h859l549 549v219h-128V640h-512V128H384v1536h624m144-1152h293l-293-293v293z"/></svg>