<svg xmlns="http://www.w3.org/2000/svg" viewBox="0 0 2048 2048"><path d="M1983 1216H674q0 74 23 134t63 106.5q40 46.5 94 80t115 55.5q61 22 126.5 32.5T1225 1635q81 0 153-13t140.5-35.5Q1587 1564 1654 1533t137-68v434q-78 38-154.5 65.5T1482 2011q-78 19-159 28t-168 9q-115 0-222-26.5t-201-76Q638 1896 560 1825t-134-160q-56-89-87-194t-31-223q0-126 34.5-240.5T442 797q65-96 158.5-170.5T811 505q-64 64-99.5 151.5T666 832h729q0-110-22.5-192.5t-72.5-137q-50-54.5-129-82T980 393q-132 0-264 39.5T465 542q-119 70-219 165.5T78 915q15-130 55.5-248.5t104-220Q301 345 386 262.5t188.5-141Q678 63 798 31.5T1053 0q78 0 156.5 14T1362 53q148 51 264 141.5t195 209q79 118.5 120.5 261T1983 961v255z"/></svg>