<svg xmlns="http://www.w3.org/2000/svg" viewBox="0 0 2048 2048"><path d="M2048 335q0 66-25 128t-73 110L633 1890 0 2048l158-633L1475 98q48-48 110-73t128-25q69 0 130 26.5t106.5 72q45.5 45.5 72 106.5t26.5 130M326 1428q106 35 182.5 111.5T620 1722L1701 640l-293-293L326 1428m-150 444l329-82q-10-46-32.5-87t-54.5-73q-32-32-73-54.5t-87-32.5l-82 329M1792 549q25-25 48-47t41-46.5q18-24.5 28.5-53T1920 336q0-43-16.5-80.5t-45-66q-28.5-28.5-66-45T1712 128q-38 0-66.5 10.5t-53 28.5q-24.5 18-46.5 41t-47 48l293 293z"/></svg>