<svg xmlns="http://www.w3.org/2000/svg" viewBox="0 0 2048 2048"><path d="M1582 1065q41 72 61.5 150.5T1664 1376v103l-640 321-640-321q0-60 1.5-112t9-101.5q7.5-49.5 24-98T466 1065L256 960v587q29 10 52.5 28t40.5 42q17 24 26 52.5t9 58.5v320H0v-320q0-30 9-58.5t26-52.5q17-24 40.5-42t52.5-28V896L0 832l1024-512 1024 512-466 233M256 1728q0-26-19-45t-45-19q-26 0-45 19t-19 45v192h128v-192m30-896l738 369 738-369-738-369-738 369m1250 568q0-77-15-143.5t-53-134.5l-444 222-444-222q-33 58-50.5 122.5T512 1376v24l512 256 512-256z"/></svg>