<svg xmlns="http://www.w3.org/2000/svg" viewBox="0 0 2048 2048"><path d="M1024 0q141 0 272 36.5t245 103q114 66.5 207.5 160t160 207.5q66.5 114 103 245t36.5 272q0 141-36.5 272t-103 245q-66.5 114-160 207.5t-207.5 160q-114 66.5-245 103t-272 36.5q-141 0-272-36.5t-245-103q-114-66.5-207.5-160t-160-207.5q-66.5-114-103-244.5T0 1024q0-141 36.5-272t103-245q66.5-114 160-207.5t207.5-160Q621 73 751.5 36.5T1024 0m0 1920q123 0 237.5-32t214-90.5Q1575 1739 1657 1657t140.5-181.5q58.5-99.5 90.5-214t32-237.5q0-123-32-237.5t-90.5-214Q1739 473 1657 391t-181.5-140.5q-99.5-58.5-214-90.5T1024 128q-123 0-237.5 32t-214 90.5Q473 309 391 391T250.5 572.5Q192 672 160 786.5T128 1024q0 123 32 237.5t90.5 214Q309 1575 391 1657t181.5 140.5q99.5 58.5 214 90.5t237.5 32M640 512q27 0 50 10t40.5 27.5Q748 567 758 590t10 50H512q0-27 10-50t27.5-40.5Q567 532 590 522t50-10m768 0q27 0 50 10t40.5 27.5Q1516 567 1526 590t10 50h-256q0-27 10-50t27.5-40.5Q1335 532 1358 522t50-10m64 256q40 0 75 15t61 41q26 26 41 61t15 75v64q0 133-50 249.5T1477 1477q-87 87-203.5 137t-249.5 50q-133 0-249.5-50T571 1477q-87-87-137-203.5T384 1024q0-48 8-94t29-82q21-36 58.5-58t96.5-22q74 0 129 20t104.5 44q49.5 24 100 44t114.5 20q64 0 114.5-20t100-44q49.5-24 104.5-44t129-20m64 192q0-26-19-45t-45-19q-43 0-79 9.5t-69.5 23.5q-33.5 14-66 31t-68 31q-35.5 14-76 23.5t-89.5 9.5q-49 0-89.5-9.5t-76-23.5q-35.5-14-68-31t-66-31Q691 915 655 905.5t-79-9.5q-26 0-45 19t-19 45v64q0 106 40.5 199t110 162.5q69.5 69.5 162.5 110t199 40.5q106 0 199-40.5t162.5-110q69.5-69.5 110-162.5t40.5-199v-64z"/></svg>