<svg xmlns="http://www.w3.org/2000/svg" viewBox="0 0 2048 2048"><path d="M640 1408h768v128H640v-128M1024 0q141 0 272 36.5T1540.5 140q113.5 67 207 160.5t160.5 207Q1975 621 2011.5 752t36.5 272q0 141-36.5 272t-103 245q-66.5 114-160 207.5t-207.5 160q-114 66.5-245 103t-272 36.5q-141 0-272-36.5t-245-103q-114-66.5-207.5-160t-160-207.5q-66.5-114-103-244.5T0 1024q0-141 36.5-272t103-245q66.5-114 160-207.5t207.5-160Q621 73 751.5 36.5T1024 0m0 1920q123 0 237.5-32t214-90.5Q1575 1739 1657 1657t140.5-181.5Q1856 1376 1888 1262t32-238q0-123-32-237.5t-90.5-214Q1739 473 1657 391t-181.5-140.5q-99.5-58.5-214-90.5T1024 128q-123 0-237.5 32t-214 90.5Q473 309 391 391T250.5 572.5Q192 672 160 786.5T128 1024q0 123 32 237.5t90.5 214Q309 1575 391 1657t181.5 140.5Q672 1856 786 1888t238 32M768 896q0 27-10 50t-27.5 40.5Q713 1004 690 1014t-50 10q-27 0-50-10t-40.5-27.5Q532 969 522 946t-10-50q0-27 10-50t27.5-40.5Q567 788 590 778t50-10q27 0 50 10t40.5 27.5Q748 823 758 846t10 50m640-128q27 0 50 10t40.5 27.5Q1516 823 1526 846t10 50q0 27-10 50t-27.5 40.5Q1481 1004 1458 1014t-50 10q-27 0-50-10t-40.5-27.5Q1300 969 1290 946t-10-50q0-27 10-50t27.5-40.5Q1335 788 1358 778t50-10z"/></svg>