<svg xmlns="http://www.w3.org/2000/svg" viewBox="0 0 2048 2048"><path d="M782 1589q-32 0-48-29-6-11-21-38t-31.5-56.5q-16.5-29.5-29-55T640 1376q0-16 7.5-34t18-36q10.5-18 21-34.5L704 1244l-64-51h197l47 194-77-61-55 111h183v152H782m231-644l-84 165-127-64 60-119q14-30 48-30l221-1q32 0 48 30l54 101 58-44-30 207-218-20 62-46-92-179m122 719l-124-166 124-152v103h163l-67-123 122-72q4 9 13.5 25.5t18.5 34.5q9 18 16 35t7 27q0 12-6 24l-85 168q-7 14-20 21.5t-28 7.5h-134v67m599-1024h132l-271 1211q-130 97-268.5 147t-301.5 50q-162 0-301-50.5T456 1851L137 441l-6-28q-3-14-3-29 0-58 29.5-105.5T235 194q48-37 109-65.5T467.5 80q62.5-20 121-33T691 27Q856 0 1024 0q51 0 101.5 2.5T1227 10q-66 20-127.5 49.5T982 129q-48 1-106 5t-120.5 12q-62.5 8-126 21t-123 32q-59.5 19-111 44.5T306 301q-18 16-34 37t-16 46q0 15 6 28.5t16 26q10 12.5 21.5 23T322 480q42 32 96.5 56T534 577.5Q595 595 660 607t129 19.5q64 7.5 124 10.5t111 3q11 0 22-.5t22-.5l1 1h632q-74 35-158.5 59.5t-173 39.5q-88.5 15-176.5 22t-169 7q-84 0-178-7.5T657.5 736q-94.5-17-184-45T310 622l260 1154q100 70 217 105.5t239 35.5q121 0 237.5-35.5T1480 1776l254-1136M2048 0v512h-512V384h292q-76-60-167-91t-188-31q-114 0-218.5 43T1069 429l-90-90q99-99 226.5-152t267.5-53q122 0 237 41t210 119V0h128z"/></svg>