<svg xmlns="http://www.w3.org/2000/svg" viewBox="0 0 2048 2048"><path d="M453 512q110-123 258-189.5t313-66.5q32 0 64 3t64 8v130q-32-6-64-9.5t-64-3.5q-104 0-200.5 33T644 512H453m1198 640q6-32 9.5-64t3.5-64q0-32-3.5-64t-9.5-64h130q5 32 8 64t3 64q0 32-3 64t-8 64h-130M515 1408q45 60 102 107.5t122.5 80.5q65.5 33 137.5 50.5t147 17.5q32 0 64-3.5t64-9.5v130q-32 5-64 8t-64 3q-103 0-200-26.5T641 1689q-86-50-158-121t-123-160h155M2048 128v640h-768V128h768m-128 128h-512v384h512V256m-640 1024h768v640h-768v-640m128 512h512v-384h-512v384m-640-512H0V640h768v640M640 768H128v384h512V768z"/></svg>