<svg xmlns="http://www.w3.org/2000/svg" viewBox="0 0 2048 2048"><path d="M777 1920q15 35 36.5 67t47.5 61H0V0h1536v911q-32-9-64-17t-64-13V128H128v1792h649m503-1408H256V384h1024v128M256 768h1024v128H256V768m960 640q66 0 124 25.5t101.5 69q43.5 43.5 69 101.5t25.5 124q0 66-25.5 124.5t-69 102Q1398 1998 1340 2023t-124 25q-66 0-124.5-25t-102-68.5q-43.5-43.5-68.5-102T896 1728q0-66 25-124t68.5-101.5q43.5-43.5 102-69T1216 1408m0 512q40 0 75-15t61-41q26-26 41-61t15-75q0-40-15-75t-41-61q-26-26-61-41t-75-15q-40 0-75 15t-61 41q-26 26-41 61t-15 75q0 40 15 75t41 61q26 26 61 41t75 15m0-896q100 0 200.5 21.5t193 63.5q92.5 42 172.5 103t139 139q59 78 93 173t34 204h-128q0-91-29.5-169t-80.5-142q-51-64-119.5-113.5t-146.5-83q-78-33.5-162-51t-166-17.5q-82 0-166 17.5t-162 51q-78 33.5-146.5 83T622 1417q-51 64-80.5 142T512 1728H384q0-109 34-204t93-173q59-78 139-139t172.5-103q92.5-42 193-63.5T1216 1024z"/></svg>