<svg xmlns="http://www.w3.org/2000/svg" viewBox="0 0 2048 2048"><path d="M2048 128v896h-128V640H128v1152h1408v128H0V128h384V0h128v128h1024V0h128v128h384m-128 384V256h-256v128h-128V256H512v128H384V256H128v256h1792m-256 1408h128v128h-128v-128m64-768q53 0 99.5 20t81.5 55q35 35 55 81.5t20 99.5q0 46-14 81t-35.5 63q-21.5 28-46.5 50.5t-46.5 44.5q-21.5 22-35.5 45t-14 52v48h-128v-48q0-47 14-81.5t35.5-62.5q21.5-28 46.5-50.5t46.5-44.5q21.5-22 35.5-45t14-52q0-27-10-50t-27.5-40.5Q1801 1300 1778 1290t-50-10q-27 0-50 10t-40.5 27.5Q1620 1335 1610 1358t-10 50h-128q0-53 20-99.5t55-81.5q35-35 81.5-55t99.5-20z"/></svg>