<svg xmlns="http://www.w3.org/2000/svg" viewBox="0 0 2048 2048"><path d="M2048 128v1792H0V128h384V0h128v128h1024V0h128v128h384M128 256v256h1792V256h-256v128h-128V256H512v128H384V256H128m1792 1536V640H128v1152h1792m-512-896v640h-128v-486q-27 14-62 26t-66 12V960q12 0 31-6t39-15.5q20-9.5 36-20.5t22-21v-1h128m-384 192q0 39-11.5 70.5t-30.5 58q-19 26.5-44 50.5t-51 46.5q-26 22.5-51.5 45.5t-46.5 49h235v128H640q0-17-.5-36t0-38.5q.5-19.5 3.5-38t10-35.5q11-27 33.5-53.5T736 1282q27-26 55-51t51.5-49q23.5-24 38.5-47.5t15-46.5q0-27-19-45.5t-45-18.5q-23 0-40.5 14t-22.5 37l-125-26q6-33 23.5-61t43.5-48.5q26-20.5 57-32t64-11.5q40 0 75 15t61 41q26 26 41 61t15 75z"/></svg>