<svg xmlns="http://www.w3.org/2000/svg" viewBox="0 0 2048 2048"><path d="M1152 1280v-128h256v128h-256m640-128v128h-256v-128h256m-640-128V896h256v128h-256m640-128v128h-256V896h256m-640 640v-128h256v128h-256m640-128v128h-256v-128h256m-640 384v-128h256v128h-256m640-128v128h-256v-128h256M1459 0l589 589v1459H384v-336L0 1651V512l384-55V0h1075M448 1175h2l122 233h168l-194-323 189-317H577L455 998h-2L346 768H173l184 320-201 320h169l123-233m1472 745V768h-768V640h128V512h-128V384h128V128H512v311l384-55v1408l-384-60v188h1408M1408 640h512l-512-512v512z"/></svg>