<svg xmlns="http://www.w3.org/2000/svg" viewBox="0 0 2048 2048"><path d="M128 640q42 0 67 20t43.5 44q18.5 24 36.5 44t45 20q48 0 85-19t68.5-47.5q31.5-28.5 61-61.5t63.5-61.5q34-28.5 74.5-47.5t95.5-19q36 0 70 11.5t63 31.5l1 2q17 12 32.5 24.5T967 606q12-12 25.5-21t31.5-9q27 0 45.5 19.5T1088 641q0 20-13 38 32 20 64 38.5t64 36.5q16-17 34-33.5t43-16.5q26 0 45 19t19 45q0 16-6.5 26t-14.5 22q34 17 68.5 33t69.5 31q16-16 33.5-32t41.5-16q26 0 45 19t19 45q0 21-12 37 63 26 127.5 48t128.5 46q34 13 70.5 33.5t66 48.5q29.5 28 48.5 63t19 76v32q0 56-27.5 101t-69.5 80.5q-42 35.5-92.5 61.5t-95.5 43q-145 55-300.5 76.5T1152 1664h-128q-42 0-75.5-10t-62.5-22q-29-12-57-22t-61-10q-27 0-50.5 6.5T670 1625q-38 19-76.5 29t-81.5 10H192q-40 0-75-15t-61-41q-26-26-41-61t-15-75V768q0-27 10-50t27.5-40.5Q55 660 78 650t50-10m1792 608q0-16-13.5-31.5t-32.5-29q-19-13.5-39.5-24T1801 1148q-78-30-155.5-57t-154.5-59l-102 101q-19 19-45 19t-45-19q-19-19-19-45 0-15 9.5-30.5t22.5-30q13-14.5 27.5-27.5t24.5-23q-35-16-69-32.5t-68-33.5l-94 94q-19 19-45 19t-45-19q-19-19-19-45t19-45l66-67q-32-18-63.5-37T983 772L877 877q-19 19-45 19t-45-19q-19-19-19-45t19-45l89-89q-24-19-49.5-38.5T768 640q-28 0-53 12t-44 32h-1q-40 40-76.5 78t-76 68q-39.5 30-87 48T320 896q-32 0-58-9t-47.5-25Q193 846 174 825t-36-45q-6-8-10-11v511h1792v-32M512 1536q33 0 60.5-10t56.5-22q29-12 62-22t77-10q44 0 81.5 10t76.5 29q35 17 67.5 22t70.5 5q87 0 184.5-4.5t195-18q97.5-13.5 189.5-39t169-68.5H128v64q0 26 19 45t45 19h320z"/></svg>