<svg xmlns="http://www.w3.org/2000/svg" viewBox="0 0 2048 2048"><path d="M1342 640q38 0 65 27l614 614q27 27 27 65 0 37-27 64l-611 612q-13 13-30 19.5t-35 6.5q-17 0-34-6.5t-30-19.5l-614-615q-27-27-27-64 0-38 27-65l421-421 160 160q-9 20-9 42 0 21 8.5 41t23.5 35q7 7 9.5 7t10.5 3v390q-8 4-14 10l-12 12q-19 19-28.5 38t-9.5 46q0 23 9 43.5t24 35.5q15 15 35.5 24t43.5 9q24 0 45-7.5t36.5-22q15.5-14.5 25-34.5t9.5-44q0-29-17.5-58t-42.5-43v-379l146 145q-9 20-9 42t8.5 41.5q8.5 19.5 23.5 34.5t34.5 23.5q19.5 8.5 41.5 8.5t42-8.5q20-8.5 34.5-23t23-34q8.5-19.5 8.5-42.5t-8.5-42.5q-8.5-19.5-23-34t-34.5-23q-20-8.5-42-8.5-9 0-18 1t-17 4l-156-156q6-16 6-35 0-22-8.5-42t-23.5-34q-15-14-34.5-22.5T1347 951q-20 0-34 5l-162-162 127-127q27-27 64-27M256 1792h512v128H128V128h1792v640h-128V256H256v1536z"/></svg>