<svg xmlns="http://www.w3.org/2000/svg" viewBox="0 0 2048 2048"><path d="M256 1792h384v128H128V128h1792v512h-128V256H256v1536m1600-640q-60 0-109-34t-71-90l-147 49q7 35 7 75 0 66-21.5 128t-63.5 113l255 291q42-20 86-20 40 0 75 15t61 41q26 26 41 61t15 75q0 40-15 75t-41 61q-26 26-61 41t-75 15q-40 0-75-15t-61-41q-26-26-41-61t-15-75q0-29 8-57t25-51l-251-288q-50 37-108.5 56.5T1152 1536q-8 0-17-.5t-17-.5l-54 160q41 26 64.5 69t23.5 92q0 40-15 75t-41 61q-26 26-61 41t-75 15q-40 0-75-15t-61-41q-26-26-41-61t-15-75q0-44 16.5-79.5t44-60.5q27.5-25 65-38.5T973 1664l50-150q-57-20-104-56.5t-80.5-84q-33.5-47.5-52-104T768 1152q0-79 30-149t82.5-122.5q52.5-52.5 122-82.5t149.5-30q55 0 107 15.5t97 44q45 28.5 81.5 68.5t60.5 90l168-56q6-35 23-64.5t42-51.5q25-22 57-34t68-12q40 0 75 15t61 41q26 26 41 61t15 75q0 40-15 75t-41 61q-26 26-61 41t-75 15m-704 192q40 0 75-15t61-41q26-26 41-61t15-75q0-40-15-75t-41-61q-26-26-61-41t-75-15q-40 0-75 15t-61 41q-26 26-41 61t-15 75q0 40 15 75t41 61q26 26 61 41t75 15z"/></svg>