<svg xmlns="http://www.w3.org/2000/svg" viewBox="0 0 2048 2048"><path d="M2048 128v896h-128V768h-859L805 512H128v1024h896v128H0V384h805l256-256h987m-128 128h-805L922 448l193 192h805V256m0 896h128v384h-384v-128h190q-45-60-112-94t-142-34q-47 0-92 13.5t-84 39.5l443 443q36-56 47-123l127 22q-18 106-82 193l89 89-91 91-89-89q-58 44-127 66.5t-141 22.5q-91 0-174-35.5T1280 1911v137h-128v-384h384v128h-190q45 60 112 94t142 34q47 0 92-13.5t84-39.5l-443-443q-36 56-47 123l-127-22q18-106 82-193l-89-89 91-91 89 89q58-44 127-66.5t141-22.5q91 0 174 35.5t146 101.5v-137z"/></svg>