<svg xmlns="http://www.w3.org/2000/svg" viewBox="0 0 2048 2048"><path d="M2048 128v896h-128V768h-859L805 512H128v1024h896v128H0V384h805l256-256h987m-128 128h-805L922 448l193 192h805V256m0 896h128v384h-384v-128h190q-45-60-112-94t-142-34q-59 0-111.5 20t-94.5 55.5q-42 35.5-70 84.5t-38 107l-127-22q14-81 54-149.5t98.5-118Q1370 1208 1444 1180t156-28q91 0 174 35.5t146 101.5v-137m-320 768q59 0 111.5-20t94.5-55.5q42-35.5 70-84.5t38-107l127 22q-14 81-54 149.5t-98.5 118Q1830 1992 1756 2020t-156 28q-91 0-174-35.5T1280 1911v137h-128v-384h384v128h-190q45 60 112 94t142 34z"/></svg>