<svg xmlns="http://www.w3.org/2000/svg" viewBox="0 0 2048 2048"><path d="M2048 1152v896H1024v-896h1024m-128 128h-768v128h128v128h-128v128h128v128h-128v128h768v-128h-128v-128h128v-128h-128v-128h128v-128M768 768q41 0 79.5 12t71.5 34q33 22 58.5 53t41.5 69l-118 49q-17-41-53-65t-80-24v320q0 44-20 79.5t-51.5 60.5q-31.5 25-72 38.5T544 1408q-41 0-81-13.5t-72-38.5q-32-25-51.5-60.5T320 1216q0-44 19.5-79.5T391 1076q32-25 72-38.5t81-13.5q52 0 96 19V768h128m-224 512q13 0 29.5-4t31.5-12q15-8 25-20t10-28q0-16-10-28t-25-20q-15-8-31.5-12t-29.5-4q-13 0-29.5 4t-31.5 12q-15 8-25 20t-10 28q0 16 10 28t25 20q15 8 31.5 12t29.5 4M2048 128v896h-128V768h-859L805 512H128v1024h768v128H0V384h805l256-256h987m-128 128h-805L922 448l193 192h805V256z"/></svg>