<svg xmlns="http://www.w3.org/2000/svg" viewBox="0 0 2048 2048"><path d="M1790 1717q98 48 162.5 135.5T2033 2048h-110q-11-57-41-106t-73-84.5q-43-35.5-97-55.5t-112-20q-59 0-112.5 20t-96.5 55.5q-43 35.5-73 84.5t-41 106h-110q16-108 80.5-195.5T1410 1717q-57-45-88.5-109t-31.5-136q0-45 12.5-87.5t36-79q23.5-36.5 56.5-66t74-48.5q-27-39-62-69.5t-76-52.5q-41-22-86.5-33.5T1152 1024q-80 0-153 31.5T872 1146q24 65 24 134 0 92-41 173t-115 136q65 33 117.5 81.5t89.5 108q37 59.5 57 128t20 141.5H896q0-79-30-149t-82.5-122.5Q731 1724 661 1694t-149-30q-80 0-149.5 30t-122 82.5Q188 1829 158 1899t-30 149H0q0-73 20-141.5t57-128q37-59.5 89.5-108T284 1589q-74-55-115-136t-41-173q0-79 30-149t82.5-122.5Q293 956 362.5 926T512 896q85 0 161.5 36T805 1032q26-25 56.5-45.5T924 949q-74-55-115-136t-41-173q0-79 30-149t82.5-122.5q52.5-52.5 122-82.5t149.5-30q79 0 149 30t122.5 82.5Q1476 421 1506 491t30 149q0 92-41 173t-115 136q70 37 126.5 90t94.5 123q64 0 120.5 24.5t98.5 66.5q42 42 66 98.5t24 120.5q0 72-31.5 136t-88.5 109M512 1536q53 0 99.5-20t81.5-55q35-35 55-81.5t20-99.5q0-53-20-99.5t-55-81.5q-35-35-81.5-55t-99.5-20q-53 0-99.5 20t-81.5 55q-35 35-55 81.5t-20 99.5q0 53 20 99.5t55 81.5q35 35 81.5 55t99.5 20m384-896q0 53 20 99.5t55 81.5q35 35 81.5 55t99.5 20q53 0 99.5-20t81.5-55q35-35 55-81.5t20-99.5q0-53-20-99.5t-55-81.5q-35-35-81.5-55t-99.5-20q-53 0-99.5 20T971 459q-35 35-55 81.5T896 640m704 630q-42 0-78.5 16t-64 43.5q-27.5 27.5-43.5 64t-16 78.5q0 42 16 78.5t43.5 64q27.5 27.5 64 43.5t78.5 16q42 0 78.5-16t64-43.5q27.5-27.5 43.5-64t16-78.5q0-42-16-78.5t-43.5-64q-27.5-27.5-64-43.5t-78.5-16z"/></svg>