<svg xmlns="http://www.w3.org/2000/svg" viewBox="0 0 2048 2048"><path d="M2048 128v1408H704l-448 448v-448H0V128h2048M1024 1280H896v128h128v-128m8-169q0-37 7-70t36-62q39-39 77-74.5t68.5-74.5q30.5-39 49-85t18.5-105q0-68-26-127.5t-70.5-104q-44.5-44.5-104-70.5T960 312q-68 0-127.5 26t-104 70.5Q684 453 658 512.5T632 640h144q0-38 14.5-71.5T830 510q25-25 58.5-39.5T960 456q38 0 71.5 14.5T1090 510q25 25 39.5 58.5T1144 640q0 41-19 73t-47.5 61.5Q1049 804 1016 834t-61.5 66Q926 936 907 981.5T888 1088v64h144v-41z"/></svg>