<svg xmlns="http://www.w3.org/2000/svg" viewBox="0 0 2048 2048"><path d="M256 1920h128v128H128V0h1115l549 549v859h-128V640h-512V128H256v1792M1280 512h293l-293-293v293M512 384H384V256h128v128M384 512h128v128H384V512m128 384H384V768h128v128m0 512h97v630h-97v-630m430 128q56 0 95.5 19t65 52q25.5 33 37.5 77.5t12 95.5v42H819q2 71 43 106t109 35q77 0 143-46v89q-39 25-85 33.5t-91 8.5q-59 0-102.5-19t-72-52.5q-28.5-33.5-42.5-80T707 1794q0-52 16-98.5t46.5-82q30.5-35.5 74-56.5t98.5-21m103 208q0-25-5.5-48t-18-40q-12.5-17-32.5-27.5t-48-10.5q-27 0-48 10.5t-36.5 28q-15.5 17.5-25 40.5t-12.5 47h226m293-68q0 23 17.5 37.5t44 25.5q26.5 11 57 22t57 28.5q26.5 17.5 44 44t17.5 67.5q0 41-20 69.5t-50.5 45.5q-30.5 17-67.5 24.5t-71 7.5q-36 0-71-6t-68-21v-102q30 23 64.5 35t72.5 12q15 0 32.5-2t33-8q15.5-6 25.5-17.5t10-31.5q0-24-17.5-38.5t-44-25.5q-26.5-11-57-21.5t-57-27.5q-26.5-17-44-43.5T1228 1681q0-39 18.5-66.5t48-45q29.5-17.5 64.5-25.5t68-8q31 0 62 4.5t60 15.5v98q-53-36-118-36-13 0-29 2.5t-30.5 9.5q-14.5 7-24 18t-9.5 28m422 0q0 24 17.5 38t43.5 25q26 11 57 22t57 28.5q26 17.5 43.5 43.5t17.5 68q0 42-19.5 70t-50 45q-30.5 17-67.5 24.5t-71 7.5q-35 0-71-6t-68-21v-102q30 23 64.5 35t72.5 12q15 0 32.5-2t33-8q15.5-6 25.5-17.5t10-31.5q0-24-17.5-38.5t-44-25.5q-26.5-11-57-21.5t-57-27.5q-26.5-17-44-43.5T1650 1681q0-39 18.5-66.5t48-45q29.5-17.5 64.5-25.5t68-8q31 0 62 4.5t60 15.5v98q-53-36-119-36-13 0-29 2.5t-30 9.5q-14 7-23.5 18t-9.5 28z"/></svg>