<svg xmlns="http://www.w3.org/2000/svg" viewBox="0 0 2048 2048"><path d="M256 1280H128V0h1115l549 549v731h-128V640h-512V128H256v1152m1024-768h293l-293-293v293M104 1957q34 0 54.5-15t31.5-39q11-24 15-52.5t4-55.5v-387h104v404q0 48-11.5 91t-36.5 75q-25 32-63 51t-91 19q-18 0-36-1.5t-35-8.5v-98q14 9 30.5 13t33.5 4m621-549l234 630H844l-56-161H540l-54 161H372l235-630h118m35 384l-87-251q-3-10-5.5-19.5T663 1502q-3 22-9 39l-86 251h192m728-384l-226 630h-116l-223-630h115l155 478q5 13 7.5 26t5.5 27q2-14 5-27t8-27l159-477h110m552 630h-115l-56-161h-248l-54 161h-115l236-630h118l234 630m-199-246l-88-251q-3-9-5-19t-5-18q-2 9-3.5 19t-4.5 18l-87 251h193z"/></svg>