<svg xmlns="http://www.w3.org/2000/svg" viewBox="0 0 2048 2048"><path d="M1600 0q40 0 75 15t61 41q26 26 41 61t15 75v64h-34q-17 0-33.5 2t-30 8.5q-13.5 6.5-22 19T1664 320v832q0 27-10 50t-27.5 40.5Q1609 1260 1586 1270t-50 10h-256v512q0 53-20 99.5t-55 81.5q-35 35-81.5 55t-99.5 20q-53 0-99.5-20t-81.5-55q-35-35-55-81.5t-20-99.5v-512H512q-27 0-50-10t-40.5-27.5Q404 1225 394 1202t-10-50V256q0-53 20-99.5T459 75q35-35 81.5-55T640 0h960m-64 1152v-128H512v128h384v640q0 27 10 50t27.5 40.5Q951 1900 974 1910t50 10q27 0 50-10t40.5-27.5q17.5-17.5 27.5-40.5t10-50v-640h384m0-832q0-55 29.5-102t79.5-71q-8-10-20-14.5t-25-4.5H640q-27 0-50 10t-40.5 27.5Q532 183 522 206t-10 50v640h1024V320z"/></svg>