<svg xmlns="http://www.w3.org/2000/svg" viewBox="0 0 2048 2048"><path d="M1024 1216q0 119-45.5 224T855 1623q-78 78-183 123.5T448 1792q-26 0-45-19t-19-45q0-26 19-45t45-19q93 0 174.5-35.5t142-96q60.5-60.5 96-142T896 1216q0-26 19-45t45-19q26 0 45 19t19 45m-64-960q-131 0-248 31.5T478 376q-16 8-30 8-26 0-45-19t-19-45q0-37 34-56 58-34 125-59.5T680.5 162q70.5-17 142-25.5T960 128q67 0 138 8.5t141.5 25.5q70.5 17 137 42.5T1502 264q34 19 34 55 0 27-18.5 46t-45.5 19q-10 0-16-1.5t-14-6.5q-115-59-233.5-89.5T960 256m0 128q112 0 219 29t203 86q43 26 86.5 59t82.5 72q39 39 72.5 82t57.5 88q8 16 8 31 0 27-19 46t-45 19q-19 0-32-8.5t-23-23.5q-20-31-40-60t-45-56q-50-56-110-100t-127.5-74q-67.5-30-140-46T960 512q-121 0-234 40.5T519 668q-23 18-43 38.5T435 747q-11 11-21.5 16t-25.5 5q-27 0-45.5-19T324 704q0-13 4-23t12-20q24-31 57-60t69.5-55q36.5-26 74.5-48t74-39q81-38 168-56.5T960 384m0 256q119 0 224 45.5T1367 809q78 78 123.5 183t45.5 224q0 94-15.5 186.5T1473 1583q-13 36-32.5 79t-42.5 85.5q-23 42.5-49 81.5t-51 67q-11 11-22.5 17.5t-27.5 6.5q-26 0-45-18.5t-19-45.5q0-21 14-40 19-26 37-51t35-53q69-113 103.5-238.5T1408 1216q0-93-35.5-174.5t-96-142q-60.5-60.5-142-96T960 768q-93 0-174.5 35.5t-142 96q-60.5 60.5-96 142T512 1216q0 26-19 45t-45 19q-26 0-45-19t-19-45q0-119 45.5-224T553 809q78-78 183-123.5T960 640m0 256q66 0 124 25.5t101.5 69q43.5 43.5 69 101.5t25.5 124q0 103-25.5 203t-73.5 190q-48 90-117 167t-156 133q-8 5-16 8t-19 3q-27 0-45.5-19t-18.5-45q0-18 7-30t21-23q27-22 53.5-41.5T942 1717q101-100 155.5-229.5T1152 1216q0-40-15-75t-41-61q-26-26-61-41t-75-15q-40 0-75 15t-61 41q-26 26-41 61t-15 75q0 66-25 124.5t-68.5 102q-43.5 43.5-102 68.5T448 1536q-26 0-45-19t-19-45q0-26 19-45t45-19q40 0 75-15t61-41q26-26 41-61t15-75q0-66 25-124t68.5-101.5q43.5-43.5 102-69T960 896z"/></svg>