<svg xmlns="http://www.w3.org/2000/svg" viewBox="0 0 2048 2048"><path d="M1344 768q-26 0-45-19t-19-45q0-26 19-45t45-19q26 0 45 19t19 45q0 26-19 45t-45 19m595 1133l-263-262q-43 42-87 79t-95 69l151 152-90 90-182-179q-167 70-349 70-105 0-205.5-23.5T627 1828q-91-45-170.5-110.5T313 1569l-204 204-90-90 222-223q-57-99-85-210.5T128 1024q0-124 32-238.5t90.5-214q58.5-99.5 140-181t181-140Q671 192 785.5 160t238.5-32q124 0 238.5 32t214 90.5q99.5 58.5 181 140t140 181q58.5 99.5 90.5 214t32 238.5q0 139-41 270.5T1757 1539l272 272-90 90M256 1024q0 89 20.5 175t59.5 166l368-367 384 384 256-256 321 321q62-95 94.5-202.5T1792 1024q0-106-27.5-204T1687 636.5Q1637 551 1567 481t-155.5-120q-85.5-50-183.5-77.5T1024 256q-106 0-204 27.5T636.5 361Q551 411 481 481T361 636.5Q311 722 283.5 820T256 1024m768 768q129 0 251-42l-571-572-299 300q54 74 123 132t148.5 98.5q79.5 40.5 167.5 62t180 21.5m376-99q52-29 98-65.5t87-79.5l-241-242-166 166 222 221z"/></svg>