<svg xmlns="http://www.w3.org/2000/svg" viewBox="0 0 2048 2048"><path d="M1761 1036q63 17 115.5 52.5t91 85Q2006 1223 2027 1283t21 125q0 33-6.5 65t-17.5 63h-139q17-29 26-61.5t9-66.5q0-55-20.5-101.5t-56.5-81q-36-34.5-83.5-54T1658 1152q-12-82-51-152.5t-98-122q-59-51.5-134-80.5t-159-29q-77 0-146.5 25T943 862q-57 44-98.5 106T784 1103q-44-38-97-58.5T576 1024q-66 0-124.5 25t-102 68.5q-43.5 43.5-68.5 102T256 1344q0 52 17 101t49 91H173q-22-45-33.5-93.5T128 1344q0-93 35.5-174.5t96-142q60.5-60.5 142-96T576 896q74 0 147 25 39-65 92.5-117t117-88.5q63.5-36.5 135.5-56t148-19.5q93 0 178.5 29t157.5 81.5q72 52.5 126 125t83 160.5M704 1536q-26 0-45-19t-19-45q0-26 19-45t45-19h896q26 0 45 19t19 45q0 26-19 45t-45 19H704m1152 128q26 0 45 19t19 45q0 26-19 45t-45 19H320q-26 0-45-19t-19-45q0-26 19-45t45-19h1536m-384 256q26 0 45 19t19 45q0 26-19 45t-45 19H576q-26 0-45-19t-19-45q0-26 19-45t45-19h896z"/></svg>