<svg xmlns="http://www.w3.org/2000/svg" viewBox="0 0 2048 2048"><path d="M608 128q45 0 77.5 9.5t58 23.5q25.5 14 45.5 31t40.5 31q20.5 14 44 23.5T928 256h992q27 0 50 10t40.5 27.5Q2028 311 2038 334t10 50v603q-58-52-128-83V384H928q-31 0-54.5 9.5t-44 23.5Q809 431 789 448t-45.5 31q-25.5 14-58 23.5T608 512H128v1152h963l-128 128H0V256q0-27 10-50t27.5-40.5Q55 148 78 138t50-10h480m0 256q24 0 42-4.5t33-13q15-8.5 29.5-20T744 320q-17-15-31.5-26.5t-29.5-20q-15-8.5-33-13t-42-4.5H128v128h480m1120 640q66 0 124 25.5t101.5 69q43.5 43.5 69 101.5t25.5 124q0 66-25.5 124.5t-69 102Q1910 1614 1852 1639t-124 25q-47 0-92-13.5t-84-39.5l-419 418q-19 19-45 19t-45-19q-19-19-19-45t19-45l418-419q-26-39-39.5-84t-13.5-92q0-66 25-124t68.5-101.5q43.5-43.5 102-69T1728 1024m0 512q40 0 75-15t61-41q26-26 41-61t15-75q0-40-15-75t-41-61q-26-26-61-41t-75-15q-40 0-75 15t-61 41q-26 26-41 61t-15 75q0 40 15 75t41 61q26 26 61 41t75 15z"/></svg>