<svg xmlns="http://www.w3.org/2000/svg" viewBox="0 0 2048 2048"><path d="M2042 1600l-365 365-90-90 211-211h-646v-128h646l-211-211 90-90 365 365m-691-198q-39-86-99.5-155.5t-136.5-119q-76-49.5-164.5-76.5T768 1024q-88 0-170 23t-153 64.5q-71 41.5-129.5 100t-100 129.5q-41.5 71-64.5 153t-23 170H0q0-117 35.5-229t101-207.5q65.5-95.5 157-169T496 946q-56-36-100.5-83T320 760q-31-56-47.5-118.5T256 512q0-106 40-199.5t109.5-163Q475 80 568.5 40T768 0q106 0 199.5 40t163 109.5q69.5 69.5 109.5 163t40 199.5q0 137-63.5 248.5T1040 946q72 27 136 67.5t118.5 92q54.5 51.5 98 113.5t75.5 131l-117 52M384 512q0 80 30 149.5t82.5 122Q549 836 618.5 866T768 896q79 0 149-30t122.5-82.5q52.5-52.5 82.5-122t30-149.5q0-79-30-149t-82.5-122.5Q987 188 917 158t-149-30q-80 0-149.5 30t-122 82.5Q444 293 414 363t-30 149z"/></svg>