<svg xmlns="http://www.w3.org/2000/svg" viewBox="0 0 2048 2048"><path d="M1536 0q106 0 199.5 40t163 109.5q69.5 69.5 109.5 163t40 199.5q0 212-55 408t-155 367q-100 171-240 311t-311 240q-171 100-367 155t-408 55q-106 0-199.5-40t-163-109.5Q80 1829 40 1735.5T0 1536q0-212 55-408t155-367q100-171 240-311t311-240q171-100 367-155t408-55m384 512q0-79-30-149t-82.5-122.5Q1755 188 1685 158t-149-30q-68 0-135 6.5T1268 154l626 626q13-66 19.5-133t6.5-135M128 1536q0 80 30 149.5t82.5 122q52.5 52.5 122 82.5t149.5 30q68 0 135-6.5t133-19.5l-626-626q-13 66-19.5 133t-6.5 135m797 322q167-51 314.5-140.5t268-210q120.5-120.5 210-268T1858 925l-735-735q-167 51-314.5 140.5t-268 210Q420 661 330.5 808.5T190 1123l735 735m310-1135l90 90-512 512-90-90 512-512z"/></svg>