<svg xmlns="http://www.w3.org/2000/svg" viewBox="0 0 2048 2048"><path d="M1792 1288q61 63 94.5 143.5T1920 1600q0 93-35 174.5t-96 142.5q-61 61-142.5 96t-174.5 35q-93 0-174.5-35t-142.5-96q-61-61-96-142.5t-35-174.5q0-88 33.5-168.5T1152 1288V320q0-66 25-124t68.5-101.5q43.5-43.5 102-69T1472 0q66 0 124 25.5t101.5 69q43.5 43.5 69 101.5t25.5 124v968m-320 632q66 0 124-25t101.5-68.5q43.5-43.5 69-102T1792 1600q0-83-34-143t-94-113V320q0-40-15-75t-41-61q-26-26-61-41t-75-15q-40 0-75 15t-61 41q-26 26-41 61t-15 75v1024q-60 53-94 113t-34 143q0 66 25 124.5t68.5 102q43.5 43.5 102 68.5t124.5 25m64-501q29 10 52.5 28t40.5 42q17 24 26 52.5t9 58.5q0 40-15 75t-41 61q-26 26-61 41t-75 15q-40 0-75-15t-61-41q-26-26-41-61t-15-75q0-30 9-58.5t26-52.5q17-24 40.5-42t52.5-28v-395h128v395M1024 384l-128 768-86-516-138 644-142-664-82 408-93-466-99 594-128-768h896z"/></svg>