<svg xmlns="http://www.w3.org/2000/svg" viewBox="0 0 2048 2048"><path d="M1024 1419q29 10 52.5 28t40.5 42q17 24 26 52.5t9 58.5q0 40-15 75t-41 61q-26 26-61 41t-75 15q-40 0-75-15t-61-41q-26-26-41-61t-15-75q0-30 9-58.5t26-52.5q17-24 40.5-42t52.5-28v-395h128v395m256-100q57 63 88.5 141t31.5 163q0 90-35.5 167.5t-96 134.5q-60.5 57-140.5 90t-168 33q-88 0-168-33t-140.5-90q-60.5-57-96-134.5T520 1623q0-85 31.5-163t88.5-141V320q0-66 25-124t68.5-101.5q43.5-43.5 102-69T960 0q66 0 124 25.5t101.5 69q43.5 43.5 69 101.5t25.5 124v999m-320 601q62 0 118.5-23t99.5-63q43-40 68.5-95t25.5-118q0-75-33-137.5t-87-112.5V320q0-40-15-75t-41-61q-26-26-61-41t-75-15q-40 0-75 15t-61 41q-26 26-41 61t-15 75v1051q-54 50-87 112.5T648 1621q0 63 25.5 118t68.5 95q43 40 99.5 63t118.5 23v64-64z"/></svg>