<svg xmlns="http://www.w3.org/2000/svg" viewBox="0 0 2048 2048"><path d="M896 512h128v512H896V512M512 768H0V256h128v274q67-123 163-221t212.5-166.5Q620 74 752 37t272-37q141 0 272 36.5t245 103q114 66.5 207.5 160t160 207.5q66.5 114 103 245t36.5 272h-128q0-123-32-237.5t-90.5-214Q1739 473 1657 391t-181.5-140.5q-99.5-58.5-214-90.5T1024 128q-129 0-251 36T545.5 267Q440 334 355 428.5T215 640h297v128m512 384h1024v128H1024v-128m0 384h1024v128H1024v-128m0 384h1024v128H1024v-128m-863-657q36 129 105.5 239T432 1696.5q96 84.5 214 139.5t250 74v130q-154-21-292-83t-250-158.5q-112-96.5-193.5-224T38 1297l123-34z"/></svg>