<svg xmlns="http://www.w3.org/2000/svg" viewBox="0 0 2048 2048"><path d="M1152 512H896V256h128v128h128v128m512 1032q42 11 77 35t60.5 57q25.5 33 40 73t14.5 83q0 53-20 99.5t-55 81.5q-35 35-81.5 55t-99.5 20q-53 0-99.5-20t-81.5-55q-35-35-55-81.5t-20-99.5q0-43 14-83t39.5-73q25.5-33 61-57t77.5-35v-264h-512v264q42 11 77 35t60.5 57q25.5 33 40 73t14.5 83q0 53-20 99.5t-55 81.5q-35 35-81.5 55t-99.5 20q-53 0-99.5-20t-81.5-55q-35-35-55-81.5t-20-99.5q0-43 14-83t39.5-73q25.5-33 61-57t77.5-35v-264H384v264q42 11 77 35t60.5 57q25.5 33 40 73t14.5 83q0 53-20 99.5t-55 81.5q-35 35-81.5 55t-99.5 20q-53 0-99.5-20t-81.5-55q-35-35-55-81.5T64 1792q0-43 14-83t39.5-73q25.5-33 61-57t77.5-35v-392h640V891q-83-11-153.5-50.5t-121.5-99q-51-59.5-80-135T512 448q0-93 35-174.5T643 131q61-61 142.5-96T960 0q93 0 174.5 35t142.5 96q61 61 96 142.5t35 174.5q0 83-29 158.5t-80 135q-51 59.5-121.5 99T1024 891v261h640v392M640 448q0 66 25 124.5t68.5 102Q777 718 835.5 743T960 768q66 0 124-25t101.5-68.5q43.5-43.5 69-102T1280 448q0-66-25.5-124t-69-101.5q-43.5-43.5-101.5-69T960 128q-66 0-124.5 25.5t-102 69Q690 266 665 324t-25 124M448 1792q0-27-10-50t-27.5-40.5Q393 1684 370 1674t-50-10q-27 0-50 10t-40.5 27.5Q212 1719 202 1742t-10 50q0 27 10 50t27.5 40.5Q247 1900 270 1910t50 10q27 0 50-10t40.5-27.5Q428 1865 438 1842t10-50m640 0q0-27-10-50t-27.5-40.5Q1033 1684 1010 1674t-50-10q-27 0-50 10t-40.5 27.5Q852 1719 842 1742t-10 50q0 27 10 50t27.5 40.5Q887 1900 910 1910t50 10q27 0 50-10t40.5-27.5q17.5-17.5 27.5-40.5t10-50m512 128q27 0 50-10t40.5-27.5q17.5-17.5 27.5-40.5t10-50q0-27-10-50t-27.5-40.5Q1673 1684 1650 1674t-50-10q-27 0-50 10t-40.5 27.5Q1492 1719 1482 1742t-10 50q0 27 10 50t27.5 40.5q17.5 17.5 40.5 27.5t50 10z"/></svg>