<svg xmlns="http://www.w3.org/2000/svg" viewBox="0 0 2048 2048"><path d="M1792 768v1280h-768V768h256q27 0 50-10t40.5-27.5Q1388 713 1398 690t10-50q0-27-10-50t-27.5-40.5Q1353 532 1330 522t-50-10q-53 0-99.5 20t-81.5 55q-35 35-55 81.5t-20 99.5H896q0-53-20-99.5T821 587q-35-35-81.5-55T640 512q-27 0-50 10t-40.5 27.5Q532 567 522 590t-10 50q0 27 10 50t27.5 40.5Q567 748 590 758t50 10h256v1280H128V768h292q-35-59-35-128 0-53 20-99.5t54.5-81.5q34.5-35 81-55t99.5-20q97 0 181.5 45.5T960 556q54-81 138.5-126.5T1280 384q53 0 99.5 20t81.5 55q35 35 55 81.5t20 99.5q0 34-9.5 66.5T1500 768h292z"/></svg>