<svg xmlns="http://www.w3.org/2000/svg" viewBox="0 0 2048 2048"><path d="M1024 25q141 0 272 36.5T1540.5 165q113.5 67 207 160.5t160.5 207Q1975 646 2011.5 777t36.5 272q0 165-50.5 318T1855 1648q-92 128-221 224.5T1348 2021q-3 1-9 1.5t-9 .5q-24 0-38-14t-14-37q0-71 .5-140.5t.5-140.5q0-51-15-103t-54-87q116-13 203.5-47.5t146-95.5q58.5-61 88-150.5T1677 996q0-78-26-147.5T1572 721q11-28 16-58t5-60q0-39-8.5-77.5T1562 450q-5-2-11-2h-11q-32 0-67 10.5t-69.5 26Q1369 500 1337 519t-57 36q-125-35-256-35t-256 35q-25-17-57-36t-66.5-34.5q-34.5-15.5-70-26T508 448h-11q-6 0-11 2-14 37-22.5 75.5T455 603q0 30 5 60t16 58q-53 58-79 127.5T371 996q0 122 29.5 211t88 150.5Q547 1419 634 1454t203 48q-29 26-44.5 62.5T772 1639q-27 13-57 20t-60 7q-64 0-106-30t-75-82q-12-19-29-38t-37-34q-20-15-43-24.5t-48-9.5q-4 0-12 .5t-15.5 2.5q-7.5 2-13.5 6t-6 10q0 12 14 23.5t23 17.5l3 2q22 17 38.5 32.5t29.5 33q13 17.5 23.5 38T424 1660q34 78 95.5 113.5T666 1809q26 0 52-3.5t52-8.5v174q0 24-14.5 38t-38.5 14q-3 0-8.5-.5t-8.5-1.5q-157-51-286-147.5t-221-225Q101 1520 50.5 1367T0 1049q0-141 36.5-272T140 532.5q67-113.5 160.5-207t207-160.5Q621 98 752 61.5T1024 25z"/></svg>