<svg xmlns="http://www.w3.org/2000/svg" viewBox="0 0 2048 2048"><path d="M1024 0q25 0 49.5 11t41.5 28l894 894q20 20 29.5 45t9.5 52q0 26-11 49t-28 40l-890 890q-39 39-95 39-25 0-49.5-11t-41.5-28L39 1115q-17-17-28-41.5T0 1024q0-26 10-51t29-44l613-613 232 232q-12 29-12 61 0 64 46 110 6 6 8.5 8t5 3q2.5 1 5.5 1.5t10 3.5v567q-12 5-20.5 14t-17.5 18q-26 26-41 55t-15 67q0 34 13 63.5t35.5 51.5q22.5 22 52 35t63.5 13q34 0 65-11t53.5-31.5q22.5-20.5 36-49.5t13.5-65q0-22-6.5-44t-18-41.5Q1149 1357 1133 1341t-35-27V763l212 212q-12 29-12 60 0 33 12.5 61.5t33.5 49.5q21 21 49.5 33.5t61.5 12.5q33 0 61.5-12.5t49.5-33.5q21-21 33.5-49.5t12.5-61.5q0-32-12.5-60.5t-33.5-50q-21-21.5-49.5-34T1456 878q-27 0-52 9l-227-227q9-25 9-52 0-33-12.5-61.5T1140 497q-21-21-49.5-33t-61.5-12q-24 0-50 8L743 224 929 39q39-39 95-39z"/></svg>