<svg xmlns="http://www.w3.org/2000/svg" viewBox="0 0 2048 2048"><path d="M1280 512q16 0 29 7l739 369v136q-26 0-45 19t-19 45v128q0 93-35.5 174.5t-96 142q-60.5 60.5-142 96T1536 1664q-93 0-174.5-35.5t-142-96q-60.5-60.5-96-142T1088 1216q0-26-19-45t-45-19q-26 0-45 19t-19 45q0 93-35.5 174.5t-96 142q-60.5 60.5-142 96T512 1664q-93 0-174.5-35.5t-142-96q-60.5-60.5-96-142T64 1216v-128q0-26-19-45t-45-19V888l739-369q13-7 29-7 26 0 45 19 10 10 24.5 22.5T865 580q13 14 22 29t9 31q0 26-19 45t-45 19q-25 0-42.5-16.5T755 654L271 896h497q38 0 65.5 9.5t49 23.5q21.5 14 38.5 31t32.5 31q15.5 14 32.5 23.5t38 9.5q21 0 38-9.5t32.5-23.5q15.5-14 32.5-31t38.5-31q21.5-14 49-23.5t65.5-9.5h497l-484-242q-17 17-34.5 33.5T1216 704q-26 0-45-19t-19-45q0-16 9-31t22-29q13-14 27.5-26.5T1235 531q19-19 45-19m-448 640q0-26-10-49.5t-27.5-41q-17.5-17.5-41-27.5t-49.5-10H256q-26 0-45 19t-19 45v128q0 66 25 124.5t68.5 102q43.5 43.5 102 68.5t124.5 25q66 0 124-25t101.5-68.5q43.5-43.5 69-102T832 1216v-64m704 384q66 0 124-25t101.5-68.5q43.5-43.5 69-102T1856 1216q0-22-1-47t-1-50q0-25 2.5-49.5t10.5-45.5h-523q-26 0-49.5 10t-41 27.5q-17.5 17.5-27.5 41t-10 49.5v64q0 66 25 124.5t68.5 102q43.5 43.5 102 68.5t124.5 25z"/></svg>