<svg xmlns="http://www.w3.org/2000/svg" viewBox="0 0 2048 2048"><path d="M1024 0q141 0 272 36.5t245 103q114 66.5 207.5 160t160 207.5q66.5 114 103 245t36.5 272q0 141-36.5 272t-103 245q-66.5 114-160 207.5t-207.5 160q-114 66.5-245 103t-272 36.5q-141 0-272-36.5t-245-103q-114-66.5-207.5-160t-160-207.5q-66.5-114-103-244.5T0 1024q0-141 36.5-272t103-245q66.5-114 160-207.5t207.5-160Q621 73 751.5 36.5T1024 0m809 640q-38-81-92-152.5T1621 357q-66-59-143-105t-161-75q36 50 65 106t51.5 115.5Q1456 458 1472 519t28 121h333m87 384q0-133-37-256h-363q8 64 12 127.5t4 128.5q0 65-4 128.5t-12 127.5h363q37-123 37-256m-896 896q49 0 91.5-27t78.5-71q36-44 64.5-99.5T1309 1610q22-57 37-110t23-92H679q8 39 23 92t37 110q22 57 50.5 112.5T854 1822q36 44 78.5 71t91.5 27m367-640q8-64 12.5-127.5t4.5-128.5q0-65-4.5-128.5T1391 768H657q-8 64-12.5 127.5T640 1024q0 65 4.5 128.5T657 1280h734M128 1024q0 133 37 256h363q-8-64-12-127.5t-4-128.5q0-65 4-128.5T528 768H165q-37 123-37 256m896-896q-49 0-91.5 27T854 226q-36 44-64.5 99.5T739 438q-22 57-37 110t-23 92h690q-8-39-23-92t-37-110q-22-57-50.5-112.5T1194 226q-36-44-78.5-71t-91.5-27m-293 49q-84 29-161 75T427 357q-66 59-120 130.5T215 640h333q12-60 28-121t38.5-120.5Q637 339 666 283t65-106M215 1408q38 81 92 152.5T427 1691q66 59 143 105t161 75q-36-50-65-106t-51.5-115.5Q592 1590 576 1529t-28-121H215m1102 463q84-29 161-75t143-105q66-59 120-130.5t92-152.5h-333q-12 60-28 121t-38.5 120.5Q1411 1709 1382 1765t-65 106z"/></svg>