<svg xmlns="http://www.w3.org/2000/svg" viewBox="0 0 2048 2048"><path d="M1897 1572q0 26-19 45t-45 19q-15 0-31-10t-31-23.5q-15-13.5-28-28.5t-23-25q-106 94-232.5 151t-266.5 77v143h187v128H896v-128h197v-134q-134 0-257-34t-230.5-96Q498 1594 410 1506.5t-150.5-194Q197 1206 162.5 1083T128 826q0-177 61-337.5T365 194q-9-8-18.5-17t-18-19q-8.5-10-14-21.5T309 112q0-26 19-45t45-19q27 0 46 19l222 221q95-78 209.5-119t237.5-41q97 0 187 25t168.5 71q78.5 46 142.5 110t110 142.5q46 78.5 71 168.5t25 187q0 123-41 237.5T1632 1279l246 247q19 19 19 46M512 832q0 81 23 161l129-130q-37-55-66-113.5T549 628q-37 100-37 204m244-431q-51 0-75 24.5T657 501q0 33 9 69t23.5 71.5q14.5 35.5 32 68.5t35.5 61l270-270q-28-18-61.5-36T897 433q-35-14-71-23t-70-9m663 492l-270 270q28 18 61 35.5t68.5 32q35.5 14.5 71.5 23.5t69 9q52 0 76-24t24-76q0-33-9-69t-23.5-71.5q-14.5-35.5-32-68.5t-35.5-61m-376 195l301-301q-95-116-211-211L832 877q95 116 211 211M741 967l-152 153q38 66 91.5 119.5T800 1331l153-152q-117-95-212-212m316 289l-130 129q80 23 161 23 104 0 204-37-63-20-121.5-49t-113.5-66m570-220q37-100 37-204 0-81-23-161l-129 130q37 55 66 113.5t49 121.5m-40-492q-38-66-91.5-119.5T1376 333l-153 152q117 95 212 212l152-153m-338-265q-80-23-161-23-104 0-204 37 63 20 121.5 49t113.5 66l130-129m-161 1379q149 0 288-51.5t253-148.5l-87-87q-97 80-212 122.5t-242 42.5q-97 0-187-25t-168.5-71Q654 1394 590 1330t-110-142.5q-46-78.5-71-168.5t-25-187q0-127 42.5-242T549 378l-93-93q-97 114-148.5 253T256 827q0 115 29.5 221t84 198.5q54.5 92.5 130 168t168 130q92.5 54.5 199 84T1088 1658z"/></svg>