<svg xmlns="http://www.w3.org/2000/svg" viewBox="0 0 2048 2048"><path d="M960 0q97 0 187 25t168 71q78 46 142.5 110.5T1568 349q46 78 71 168t25 187q0 97-25 187t-71 168q-46 78-110.5 142.5T1315 1312q-78 46-168 71t-187 25q-97 0-187-25t-168-71q-78-46-142.5-110.5T352 1059q-46-78-71-168t-25-187q0-97 25-187t71-168q46-78 110.5-142.5T605 96q78-46 168-71T960 0m0 1280q119 0 224-45.5t183-123.5q78-78 123.5-183t45.5-224q0-119-45.5-224T1367 297q-78-78-183-123.5T960 128q-119 0-224 45.5T553 297q-78 78-123.5 183T384 704q0 119 45.5 224T553 1111q78 78 183 123.5t224 45.5m128-256q26 0 45 19t19 45q0 26-19 45t-45 19q-26 0-45-19t-19-45q0-26 19-45t45-19m128-128q26 0 45 19t19 45q0 26-19 45t-45 19q-26 0-45-19t-19-45q0-26 19-45t45-19m128-128q26 0 45 19t19 45q0 26-19 45t-45 19q-26 0-45-19t-19-45q0-26 19-45t45-19M832 896q-26 0-45-19t-19-45q0-26 19-45t45-19q26 0 45 19t19 45q0 26-19 45t-45 19m128-128q-26 0-45-19t-19-45q0-26 19-45t45-19q26 0 45 19t19 45q0 26-19 45t-45 19m128-128q-26 0-45-19t-19-45q0-26 19-45t45-19q26 0 45 19t19 45q0 26-19 45t-45 19m256 0q-26 0-45-19t-19-45q0-26 19-45t45-19q26 0 45 19t19 45q0 26-19 45t-45 19M960 896q26 0 45 19t19 45q0 26-19 45t-45 19q-26 0-45-19t-19-45q0-26 19-45t45-19m-128 128q26 0 45 19t19 45q0 26-19 45t-45 19q-26 0-45-19t-19-45q0-26 19-45t45-19m256-256q26 0 45 19t19 45q0 26-19 45t-45 19q-26 0-45-19t-19-45q0-26 19-45t45-19m128 0q-26 0-45-19t-19-45q0-26 19-45t45-19q26 0 45 19t19 45q0 26-19 45t-45 19m93 825l-285 142v313H896v-313l-285-142 58-114 291 145 291-145 58 114z"/></svg>