<svg xmlns="http://www.w3.org/2000/svg" viewBox="0 0 2048 2048"><path d="M2048 576q0 64-15.5 129.5t-40 129.5q-24.5 64-56 124.5T1873 1074q-31 52-63.5 96t-63.5 85.5q-31 41.5-59 83.5t-49 88.5q-21 46.5-33.5 101T1592 1650q0 36 3.5 71.5t10.5 70.5h-245q-29-37-70.5-80.5t-89.5-80q-48-36.5-99.5-61T1001 1546q-49 0-86 23.5t-64 59.5q-27 36-45.5 79.5T775 1792H587q-4-30-14.5-66.5t-29.5-68q-19-31.5-46.5-53T432 1583q-38 0-66.5 21.5t-49.5 53q-21 31.5-34 68t-20 66.5H17q-10-55-13.5-111.5T0 1568q0-71 7-145t24-145q17-71 45-137t70-122.5Q188 962 245 918t132-71q22 51 47.5 100t55.5 95q25 39 64 63.5t87 24.5q44 0 84-20t75.5-50q35.5-30 65-66.5T907 924q-23 25-54.5 53t-68 51.5q-36.5 23.5-74.5 39t-72 15.5q-39 0-65.5-18t-46.5-50q-9-15-24-38.5t-31.5-52q-16.5-28.5-33-59t-29.5-58q-13-27.5-21.5-51T378 719q0-34 28.5-61t73-47.5q44.5-20.5 99.5-35T687 552q53-9 98-13.5t70-4.5q139 0 258 41t233 119q51 35 106 57.5t118 22.5q54 0 107.5-22t96-59.5q42.5-37.5 69-88T1869 497q0-36-14-67t-38-54.5q-24-23.5-55.5-37T1695 325q-23 0-41.5 5.5t-34 12q-15.5 6.5-28.5 12t-23 5.5q-16 0-25-13-3-4-9.5-15.5t-13-25q-6.5-13.5-11.5-26t-5-17.5q0-24 22-41t51.5-28q29.5-11 60-16t47.5-5q85 0 152.5 32.5t114.5 88q47 55.5 71.5 128.5t24.5 154m-783 378q0 29 11 52.5t29.5 40.5q18.5 17 43.5 26t54 9q19 0 41-7t41.5-19.5q19.5-12.5 34-29.5t18.5-37q-17-6-35-12t-35-11q1 5 2 8t1 8q0 29-20.5 47.5T1402 1048q-27 0-47-18t-20-46q0-16 7.5-29.5T1363 932l-90-29q-5 12-6.5 25.5T1265 954z"/></svg>