<svg xmlns="http://www.w3.org/2000/svg" viewBox="0 0 2048 2048"><path d="M1024 0q132 0 248.5 50.5T1476 188q87 87 137.5 203.5T1664 640v768q0 132-50.5 248.5T1476 1860q-87 87-203.5 137.5T1024 2048q-132 0-248.5-50.5T572 1860q-87-87-137.5-203.5T384 1408V640q0-132 50.5-248.5T572 188q87-87 203.5-137.5T1024 0m0 1024q79 0 149-30.5t122-82.5q52-52 82.5-122t30.5-149q0-79-30.5-149T1295 369q-52-52-122-82.5T1024 256q-79 0-149 30.5T753 369q-52 52-82.5 122T640 640q0 79 30.5 149T753 911q52 52 122 82.5t149 30.5m0-651q55 0 103.5 21t85 57.5q36.5 36.5 57.5 85t21 103.5q0 55-21 103.5t-57.5 85q-36.5 36.5-85 57.5T1024 907q-55 0-103.5-21t-85-57.5Q799 792 778 743.5T757 640q0-55 21-103.5t57.5-85q36.5-36.5 85-57.5t103.5-21z"/></svg>