<svg xmlns="http://www.w3.org/2000/svg" viewBox="0 0 2048 2048"><path d="M1850 688q45 25 82 61.5t62.5 80q25.5 43.5 39.5 93t14 101.5h-128q0-52-20.5-99t-55-81.5q-34.5-34.5-81.5-55t-99-20.5q-53 0-99.5 20.5t-81 55q-34.5 34.5-55 81.5t-20.5 99q0 91-41.5 173T1252 1333q65 33 117.5 81.5t89.5 108q37 59.5 57 128t20 141.5h-128q0-79-30.5-149t-82.5-122q-52-52-122-82.5t-149-30.5q-79 0-149 30.5T753 1521q-52 52-82.5 122T640 1792H512q0-73 20-141.5t57-128q37-59.5 89.5-108T796 1333q-73-54-114.5-136T640 1024q0-52-20.5-99t-55-81.5Q530 809 483 788.5T384 768q-53 0-99.5 20.5t-81 55Q169 878 148.5 925t-20.5 99H0q0-52 14-101.5t39.5-93Q79 786 116 749.5t82-61.5q-33-35-51.5-81T128 512q0-52 20.5-99t55-81.5q34.5-34.5 81-55T384 256q52 0 99 20.5t81.5 55q34.5 34.5 55 81.5t20.5 99q0 49-18.5 95T570 688q82 45 134 124 54-80 138.5-126t181.5-46q97 0 181.5 46T1344 812q52-79 134-124-33-35-51.5-81t-18.5-95q0-52 20.5-99t55-81.5q34.5-34.5 81-55T1664 256q52 0 99 20.5t81.5 55q34.5 34.5 55 81.5t20.5 99q0 49-18.5 95t-51.5 81M256 512q0 27 10 50t27.5 40.5Q311 620 334 630t50 10q27 0 50-10t40.5-27.5Q492 585 502 562t10-50q0-27-10-50t-27.5-40.5Q457 404 434 394t-50-10q-27 0-50 10t-40.5 27.5Q276 439 266 462t-10 50m768 768q52 0 99-20.5t81.5-55q34.5-34.5 55-81t20.5-99.5q0-52-20.5-99t-55-81.5q-34.5-34.5-81.5-55t-99-20.5q-53 0-99.5 20.5t-81 55Q809 878 788.5 925t-20.5 99q0 53 20.5 99.5t55 81q34.5 34.5 81 55t99.5 20.5m512-768q0 27 10 50t27.5 40.5Q1591 620 1614 630t50 10q27 0 50-10t40.5-27.5Q1772 585 1782 562t10-50q0-27-10-50t-27.5-40.5Q1737 404 1714 394t-50-10q-27 0-50 10t-40.5 27.5Q1556 439 1546 462t-10 50z"/></svg>