<svg xmlns="http://www.w3.org/2000/svg" viewBox="0 0 2048 2048"><path d="M1280 1296q23 0 43.5 9t35.5 24q15 15 24 35.5t9 43.5q0 23-9 43.5t-24 35.5q-15 15-35.5 24t-43.5 9q-23 0-43.5-9t-35.5-24q-15-15-24-35.5t-9-43.5q0-23 9-43.5t24-35.5q15-15 35.5-24t43.5-9m0 384q23 0 43.5 9t35.5 24q15 15 24 35.5t9 43.5q0 23-9 43.5t-24 35.5q-15 15-35.5 24t-43.5 9q-23 0-43.5-9t-35.5-24q-15-15-24-35.5t-9-43.5q0-23 9-43.5t24-35.5q15-15 35.5-24t43.5-9m-384-256q23 0 43.5 9t35.5 24q15 15 24 35.5t9 43.5q0 23-9 43.5t-24 35.5q-15 15-35.5 24t-43.5 9q-23 0-43.5-9t-35.5-24q-15-15-24-35.5t-9-43.5q0-23 9-43.5t24-35.5q15-15 35.5-24t43.5-9m0 384q23 0 43.5 9t35.5 24q15 15 24 35.5t9 43.5q0 23-9 43.5t-24 35.5q-15 15-35.5 24t-43.5 9q-23 0-43.5-9t-35.5-24q-15-15-24-35.5t-9-43.5q0-23 9-43.5t24-35.5q15-15 35.5-24t43.5-9m865-772q63 17 115.5 52.5t91 84.5q38.5 49 59.5 109t21 126q0 80-30 149.5t-82.5 122Q1883 1732 1813 1762t-149 30h-128v-128h128q53 0 99.5-20t81.5-55q35-35 55-81.5t20-99.5q0-55-20.5-102t-56.5-81q-36-34-84-53.5t-102-19.5q-12-82-51-152.5t-98-122q-59-51.5-134-80.5t-158-29q-76 0-146 25t-127 69q-57 44-98.5 106T784 1103q-44-38-97-58.5T576 1024q-66 0-124.5 25t-102 68.5q-43.5 43.5-68.5 102T256 1344q0 66 25 124.5t68.5 102q43.5 43.5 102 68.5t124.5 25h64v128h-64q-93 0-174.5-35.5t-142-96q-60.5-60.5-96-142T128 1344q0-77 25.5-149t73.5-132q-81-54-136.5-134T14 754q58 14 114 14 106 0 199.5-40t163-109.5Q560 549 600 455.5T640 256q0-29-4-57.5T626 142q87 20 160 67t126 113q53 66 82.5 147.5T1024 640v17q0 9-1 17 92-34 193-34 93 0 178.5 29t157.5 81.5q72 52.5 126 125t83 160.5M324 974q56-38 120-58t132-20q74 0 147 25 61-102 157-172 8-26 12-53.5t4-55.5q0-85-35-161T761 348q-15 105-62 197T580.5 708.5Q509 780 417 827t-197 62q22 26 48.5 47t55.5 38z"/></svg>