<svg xmlns="http://www.w3.org/2000/svg" viewBox="0 0 2048 2048"><path d="M1562 384q26 0 62.5-3t76-3.5q39.5-.5 79 3.5t70.5 18.5q31 14.5 50.5 41.5t19.5 71v896q0 27-10 50t-27.5 40.5Q1865 1516 1842 1526t-50 10H128q-27 0-50-10t-40.5-27.5Q20 1481 10 1458t-10-50V512q0-27 10-50t27.5-40.5Q55 404 78 394t50-10h870l325-325q28-28 64.5-43.5T1464 0q41 0 77 16t63 43q27 27 43 63.5t16 77.5q0 33-7.5 57.5t-21 45.5q-13.5 21-32 40.5T1562 384m-98-256q-29 0-50 21L594 969l-34 135 135-34 681-680q-2-2 .5-5t4.5-1q12-12 38-34t52-47.5q26-25.5 45.5-52.5t19.5-50q0-30-21.5-51t-50.5-21m328 384h-358l-673 674-377 94 94-377 392-391H128v896h1664V512z"/></svg>