<svg xmlns="http://www.w3.org/2000/svg" viewBox="0 0 2048 2048"><path d="M1600 256q40 0 75 15t61 41q26 26 41 61t15 75v896q0 119-45.5 224T1623 1751q-78 78-183 123.5t-224 45.5q-144 0-268.5-55T722 1709l-472-472q-28-28-43-65t-15-76q0-42 16-78.5t43-63.5q27-27 63.5-42.5T392 896q40 0 76 15.5t65 43.5l107 106V320q0-40 15-75t41-61q26-26 61-41t75-15q37 0 71 14 8-31 26-57t42.5-45Q996 21 1026 10.5T1088 0q32 0 62 10.5t54.5 29.5q24.5 19 42.5 45t26 57q34-14 71-14 32 0 62 10.5t54.5 29.5q24.5 19 42.5 45t26 57q34-14 71-14m64 192q0-26-19-45t-45-19q-26 0-45 19t-19 45v448q0 26-19 45t-45 19q-26 0-45-19t-19-45V320q0-26-19-45t-45-19q-26 0-45 19t-19 45v512q0 26-19 45t-45 19q-26 0-45-19t-19-45V192q0-26-19-45t-45-19q-26 0-45 19t-19 45v640q0 26-19 45t-45 19q-26 0-45-19t-19-45V320q0-26-19-45t-45-19q-26 0-45 19t-19 45v787q0 23-8.5 42.5t-23 34.5q-14.5 15-34.5 23.5t-42 8.5q-22 0-42.5-8t-36.5-24l-139-139q-21-21-50-21t-50.5 21q-21.5 21-21.5 51 0 29 21 50l472 473q84 84 184 128.5t219 44.5q93 0 174.5-35.5t142-96q60.5-60.5 96-142T1664 1344V448z"/></svg>