<svg xmlns="http://www.w3.org/2000/svg" viewBox="0 0 2048 2048"><path d="M1024 0q106 0 204 27.5t183.5 77.5q85.5 50 155.5 120t120 155.5q50 85.5 77.5 183.5t27.5 204v448q0 40-15 75t-41 61q-26 26-61 41t-75 15h-192V768h192q17 0 33 3.5t31 8.5q0-135-49-253.5t-134.5-207q-85.5-88.5-203-140T1024 128q-88 0-170 23t-153 64.5q-71 41.5-129.5 100T471.5 445Q430 516 407 598t-23 170v12q15-5 31-8.5t33-3.5h192v640H512v128q0 53 20 99.5t55 81.5q35 35 81.5 55t99.5 20q0-27 10-50t27.5-40.5Q823 1684 846 1674t50-10h256q27 0 50 10t40.5 27.5q17.5 17.5 27.5 40.5t10 50v128q0 27-10 50t-27.5 40.5Q1225 2028 1202 2038t-50 10H896q-27 0-50-10t-40.5-27.5Q788 1993 778 1970t-10-50q-80 0-149.5-30t-122-82.5q-52.5-52.5-82.5-122T384 1536v-140q-29-10-52.5-28t-40-41.5q-16.5-23.5-26-52T256 1216V768q0-106 27.5-204T361 380.5Q411 295 481 225t155.5-120Q722 55 820 27.5T1024 0M896 1920h256v-128H896v128M448 896q-26 0-45 19t-19 45v256q0 26 19 45t45 19h64V896h-64m1216 64q0-26-19-45t-45-19h-64v384h64q26 0 45-19t19-45V960z"/></svg>