<svg xmlns="http://www.w3.org/2000/svg" viewBox="0 0 2048 2048"><path d="M768 384h128v1408H768v-640H128v640H0V384h128v640h640V384m851 674q67 7 125.5 32.5t102 67q43.5 41.5 68.5 98.5t25 127q0 103-39.5 179.5t-106 127.5q-66.5 51-153 76.5T1461 1792q-80 0-160-15t-149-59v-167q138 108 315 108 61 0 118-15.5t100.5-47.5q43.5-32 69.5-81.5t26-117.5q0-69-22.5-116t-60.5-76.5q-38-29.5-88.5-45t-105-22q-54.5-6.5-110.5-7t-106-.5V998q47 0 98.5-.5t101-6.5q49.5-6 93.5-20.5t77.5-42.5q33.5-28 53-71.5T1731 748q0-62-18-106t-51-72q-33-28-80.5-41T1475 516q-76 0-143.5 25.5T1204 613V462q71-42 150-60t160-18q74 0 142.5 20.5t120.5 61q52 40.5 83 101.5t31 142q0 139-70.5 223.5T1619 1054v4z"/></svg>