<svg xmlns="http://www.w3.org/2000/svg" viewBox="0 0 2048 2048"><path d="M768 384h128v1408H768v-640H128v640H0V384h128v640h640V384m1186 373q0 82-19 147t-52.5 119q-33.5 54-78.5 99t-97.5 86q-52.5 41-109 81t-112.5 84q-22 17-45 37t-44 42q-21 22-38 47t-26 52q-8 25-11.5 56t-3.5 57h603v128h-768q0-57 1.5-113t17.5-112q19-65 55.5-117.5t83.5-97.5q47-45 101-84.5t108-79.5q54-40 103-82t87-92q38-50 60.5-109.5T1792 770q0-59-18-105.5t-51-79q-33-32.5-80.5-50T1537 518q-48 0-94 13.5t-88 36.5q-42 23-80 54t-69 65V517q39-37 78.5-62.5t82.5-41q43-15.5 90-22.5t100-7q85 0 157.5 25t126 73q53.5 48 83.5 117.5t30 157.5z"/></svg>