<svg xmlns="http://www.w3.org/2000/svg" viewBox="0 0 2048 2048"><path d="M1024 0q106 0 204 27.5t183.5 77.5q85.5 50 155.5 120t120 155.5q50 85.5 77.5 183.5t27.5 204v544q0 40-28 68t-68 28h-288V768h256q0-88-23-170t-64.5-153q-41.5-71-100-129.5t-129.5-100q-71-41.5-153-64.5t-170-23q-88 0-170 23t-153 64.5q-71 41.5-129.5 100T471.5 445Q430 516 407 598t-23 170h256v640H512v128q0 53 20 99.5t55 81.5q35 35 81.5 55t99.5 20v-48q0-33 23.5-56.5T848 1664h352q33 0 56.5 23.5t23.5 56.5v224q0 33-23.5 56.5T1200 2048H848q-33 0-56.5-23.5T768 1968v-48q-80 0-150-30t-122-82q-52-52-82-122t-30-150v-128h-32q-40 0-68-28t-28-68V768q0-106 27.5-204T361 380.5Q411 295 481 225t155.5-120Q722 55 820 27.5T1024 0z"/></svg>