<svg xmlns="http://www.w3.org/2000/svg" viewBox="0 0 2048 2048"><path d="M1024 1920H896v128h128v-128M960 0q-79 0-152.5 20.5T670 78.5Q606 116 553 169t-90.5 117q-37.5 64-58 137.5T384 576q0 84 22 152t58 124.5Q500 909 546 957t94 93q48 45 94 89.5t82 94.5q36 50 58 108t22 130v192h128v-192q0-84-22-152t-58-124.5q-36-56.5-82-104T768 999q-48-45-94-90t-82-95q-36-50-58-108t-22-130q0-93 35.5-174.5t96-142q60.5-60.5 142-96T960 128q93 0 174.5 35.5t142 96q60.5 60.5 96 142T1408 576h128q0-79-20.5-152.5t-58-137.5q-37.5-64-90.5-117t-117-90.5q-64-37.5-137.5-58T960 0z"/></svg>