<svg xmlns="http://www.w3.org/2000/svg" viewBox="0 0 2048 2048"><path d="M896 1920h128v128H896v-128M960 0q79 0 152.5 20.5t137.5 58q64 37.5 117 90.5t90.5 117q37.5 64 58 137.5T1536 576q0 84-22 152t-58 124.5q-36 56.5-82 104.5t-94 93q-48 45-94 89.5t-82 94.5q-36 50-58 108t-22 130v192H896v-192q0-84 22-152t58-124.5q36-56.5 82-104t94-92.5q48-45 94-90t82-95q36-50 58-108t22-130q0-93-35.5-174.5t-96-142q-60.5-60.5-142-96T960 128q-93 0-174.5 35.5t-142 96q-60.5 60.5-96 142T512 576H384q0-79 20.5-152.5t58-137.5Q500 222 553 169t117-90.5q64-37.5 137.5-58T960 0z"/></svg>