<svg xmlns="http://www.w3.org/2000/svg" viewBox="0 0 2048 2048"><path d="M1600 1152q93 0 174.5 35t142.5 96q61 61 96 142.5t35 174.5q0 93-35 174.5t-96 142.5q-61 61-142.5 96t-174.5 35q-93 0-174.5-35t-142.5-96q-61-61-96-142.5t-35-174.5q0-93 35-174.5t96-142.5q61-61 142.5-96t174.5-35m-320 448q0 66 25 124.5t68.5 102q43.5 43.5 102 68.5t124.5 25q47 0 92-13.5t84-39.5l-443-443q-26 39-39.5 84t-13.5 92m587 176q26-39 39.5-84t13.5-92q0-66-25.5-124t-69-101.5q-43.5-43.5-101.5-69t-124-25.5q-47 0-92 13.5t-84 39.5l443 443M1 1026l-1 3v-5l1 2m1910 15q-18-104-63-193t-111-162q-66-73-148-129t-175-94.5q-93-38.5-192-58.5t-198-20q-109 0-217.5 24t-208 70Q499 524 413 591T263.5 743Q200 828 164 931t-36 221H0q0-136 40.5-255T153 678.5q72-99.5 169.5-178t211-133Q647 313 772 284.5t252-28.5q125 0 249.5 28.5t237.5 82q113 53.5 210.5 131t169.5 176q72 98.5 113.5 216.5t43.5 253q-61-59-137-102m-887-145q-53 0-99.5 20T843 971q-35 35-55 81.5t-20 99.5q0 48 17 91.5t46.5 77.5q29.5 34 70 56.5T990 1406q-20 64-26 125-70-11-129-45t-102.5-84.5q-43.5-50.5-68-114.5T640 1152q0-79 30-149t82.5-122.5Q805 828 874.5 798t149.5-30q57 0 111 16.5t100 47q46 30.5 82.5 73.5t59.5 95q-62 23-115 57-15-36-39-66t-55-51q-31-21-68-32.5t-76-11.5z"/></svg>