<svg xmlns="http://www.w3.org/2000/svg" viewBox="0 0 2048 2048"><path d="M2048 0v512q-87 0-149 19.5T1793.5 586q-43.5 35-70 82.5T1683 773q-14 57-19 120t-5 129q0 66 2.5 131t2.5 127h-256v384l-768 384v-768H384q0-62 2.5-127t2.5-131q0-66-5-129t-19-120q-14-57-40.5-104.5t-70-82.5q-43.5-35-106-54.5T0 512V0h128v384h1792V0h128m-768 1280H768v561l512-256v-305m256-128q0-45-1-88t-1-86q0-64 5-126t20.5-120.5q15.5-58.5 46-113.5t81.5-106H361q51 51 81.5 106.5t46 114Q504 791 509 852.5t5 125.5q0 43-1 86t-1 88h1024z"/></svg>