<svg xmlns="http://www.w3.org/2000/svg" viewBox="0 0 2048 2048"><path d="M1324 0q78 0 149.5 23t127.5 79l345 345q56 56 79 127.5t23 149.5q0 104-34 216t-95 224.5q-61 112.5-144 222T1594 1594q-98 98-207.5 181t-222 144q-112.5 61-224.5 95t-216 34q-77 0-149-23t-128-79l-345-345q-56-56-79-127.5T0 1324q0-104 34-216t94.5-225q60.5-113 144-222T454 454q98-98 207-181.5t222-144Q996 68 1108 34t216-34M128 1327q0 121 65.5 184t185.5 63q90 0 189.5-31.5T769 1455q101-56 200-132t188.5-165.5Q1247 1068 1323 969t132-200q56-101 87.5-200.5T1574 379q0-121-64-186t-185-65q-91 0-190.5 31.5t-201 87.5Q832 303 733 379.5t-188.5 166Q455 635 379 734.5T247 935q-56 101-87.5 201T128 1327m593 593q91 0 191-31.5t201.5-87.5q101.5-56 201-132t189-165.5q89.5-89.5 165.5-189t132-201q56-101.5 87.5-201.5t31.5-191q0-51-14.5-98.5T1855 538l-152-153q-2 103-36.5 214.5t-95 223Q1511 934 1428 1042t-180.5 205.5Q1150 1345 1042 1428t-219.5 143.5Q711 1632 599.5 1667T385 1703l153 152q37 36 84.5 50.5T721 1920z"/></svg>