<svg xmlns="http://www.w3.org/2000/svg" viewBox="0 0 2048 2048"><path d="M896 768v256H640v256h256v256h256v-256h256v-256h-256V768H896m384 128h256v512h-256v256H768v-256H512V896h256V640h512v256m576-512q40 0 75 15t61 41q26 26 41 61t15 75v1152q0 40-15 75t-41 61q-26 26-61 41t-75 15H192q-40 0-75-15t-61-41q-26-26-41-61t-15-75V576q0-40 15-75t41-61q26-26 61-41t75-15h320q0-37-1-82t9.5-83.5q10.5-38.5 37-64.5t82.5-26h768q37 0 61 12t38 32q14 20 20.5 46.5t8.5 55q2 28.5 1 57t-1 53.5h320m-1216 0h768V256H640v128m1280 192q0-26-19-45t-45-19H192q-26 0-45 19t-19 45v1152q0 26 19 45t45 19h1664q26 0 45-19t19-45V576z"/></svg>