<svg xmlns="http://www.w3.org/2000/svg" viewBox="0 0 2048 2048"><path d="M1664 256q0 106-30.5 206.5T1543 651q-31 45-65 82t-72.5 67.5Q1367 831 1324 857t-92 49q-37 17-58.5 46.5T1152 1024q0 42 21.5 71.5t58.5 46.5q49 23 92 49t81.5 56.5q38.5 30.5 72.5 67.5t65 82q60 88 90.5 188.5T1664 1792h128v128H128v-128h128q0-106 30.5-206.5T377 1397q32-47 66-83.5t71.5-66.5q37.5-30 80.5-55t93-49q36-17 58-47t22-72q0-42-21.5-71.5T688 906q-49-23-92-49t-81.5-56.5Q476 770 442 733t-65-82q-60-88-90.5-188.5T256 256H128V128h1664v128h-128m-640 768q0-82 43-142t115-95q29-14 56-27.5t53-32.5q58-40 103.5-92.5t77-113q31.5-60.5 48-128T1536 256H384q0 70 16.5 137.5t48 128q31.5 60.5 77 113T629 727q26 19 53 32.5t56 27.5q72 35 115 95t43 142q0 82-43 142t-115 95q-29 14-56 27.5t-53 32.5q-58 40-103.5 92.5t-77 113q-31.5 60.5-48 128T384 1792h1152q0-70-16.5-137.5t-48-128q-31.5-60.5-77-113T1291 1321q-26-19-53-32.5t-56-27.5q-72-35-115-95t-43-142z"/></svg>