<svg xmlns="http://www.w3.org/2000/svg" viewBox="0 0 2048 2048"><path d="M2048 388v1524H268v-384h116v268h1548V504h-780V388h896M374 1272H0v-44q19-3 38-5.5t37-7.5q14-4 30.5-26t31.5-49q15-27 27.5-53.5T183 1046l388-918h82l382 928q9 22 21.5 50t29 53.5q16.5 25.5 38 44t48.5 21.5q28 3 56 3v44H782v-44q17 0 37 .5t37.5-4q17.5-4.5 29.5-16t12-36.5q0-22-11-60.5t-26-79.5q-15-41-30.5-79.5T805 891H359q-9 23-26.5 61.5t-34 79.5q-16.5 41-29 79t-12.5 60q0 24 12 35.5t30 15.5q18 4 38.5 4.5t36.5 1.5v44m28-509h344L570 385 402 763z"/></svg>