<svg xmlns="http://www.w3.org/2000/svg" viewBox="0 0 2048 2048"><path d="M457 1477q0-1 3.5-15t8.5-35.5q5-21.5 10.5-46t11-47q5.5-22.5 9.5-38.5l5-20 110 64q-7 7-21 20t-30.5 28.5q-16.5 15.5-34.5 32t-32.5 30.5q-14.5 14-24.5 22.5t-11 8.5q-4 0-4-4m1039-264q4 0 6 1 25 9 43.5 27.5t30.5 42.5q12 24 18 50.5t6 51.5q0 5-2 22.5t-6 37q-4 19.5-9 34.5t-11 15q-4 0-5-3-7-13-12-25.5t-15-23.5q-17-21-39.5-33.5T1458 1383q-20-14-34-33.5t-14-54.5q0-10 2-25t11-20l61-34q4-3 12-3m3-28l-110 62-74-131q26-17 54-32t55-30l75 131m-498-509q0 6-8 21.5T974.5 731Q964 749 954 765t-14 22l-115-68 58-99q7-10 18-10 5 0 18 6.5t27 15q14 8.5 27 16.5t18 11q10 7 10 17m-415 416H403V967h256l-73 125m621-125l71 125H785l73-125h349m191 0h261v125h-190l-71-125m-347-549q11 0 16 9l348 610-110 63q-5-10-23-41t-44-75.5q-26-44.5-56.5-98t-62-108.5q-31.5-55-61-107t-52.5-93q-23-41-37-67t-14-28q0-11 9-17 4-3 17-10.5t28-15.5q15-8 27-14.5t15-6.5M931 803l-303 521-116-68 304-520 115 67m93-803q141 0 272 36.5T1540.5 140q113.5 67 207 160.5t160.5 207Q1975 621 2011.5 752t36.5 272q0 141-36.5 272T1908 1540.5q-67 113.5-160.5 207t-207 160.5q-113.5 67-244.5 103.5t-272 36.5q-141 0-272-36.5T507.5 1908q-113.5-67-207-160.5t-160.5-207Q73 1427 36.5 1296T0 1024q0-141 36.5-272T140 507.5q67-113.5 160.5-207t207-160.5Q621 73 752 36.5T1024 0m0 1951q128 0 246.5-33t221.5-93.5q103-60.5 187.5-145t145-187.5q60.5-103 93.5-221.5t33-246.5q0-128-33-246.5T1824.5 556q-60.5-103-145-187.5t-187.5-145Q1389 163 1270.5 130T1024 97q-128 0-246.5 33T556 223.5q-103 60.5-187.5 145T223.5 556Q163 659 130 777.5T97 1024q0 128 33 246.5t93.5 221.5q60.5 103 145 187.5t187.5 145q103 60.5 221.5 93.5t246.5 33z"/></svg>