<svg xmlns="http://www.w3.org/2000/svg" viewBox="0 0 2048 2048"><path d="M128 960q0 115 30 221t84 198.5q54 92.5 130 168.5t168.5 130q92.5 54 198.5 84t221 30h320v71q-78 27-158 42t-162 15q-133 0-255-34.5t-228.5-97Q370 1726 283 1638.5T133.5 1444Q71 1337 37 1214.5T3 960q0-132 34-254.5T133.5 476Q196 369 283 281.5t193.5-150Q583 69 705 34.5T960 0q132 0 255 34.5t229.5 97q106.5 62.5 194 150t150 194q62.5 106.5 97 229.5t34.5 255q0 130-35 256l-107-107q14-76 14-149 0-115-30-221t-84-198.5Q1624 448 1548 372t-168.5-130q-92.5-54-198.5-84t-221-30q-115 0-221 30t-198.5 84Q448 296 372 372T242 540.5Q188 633 158 739t-30 221m256-64h1152v128H384V896m1658 704l-317 317-90-90 163-163h-518v-128h518l-163-163 90-90 317 317z"/></svg>