<svg xmlns="http://www.w3.org/2000/svg" viewBox="0 0 2048 2048"><path d="M960 1792q114 0 227-32l101 101q-79 29-161 44t-167 15q-132 0-255-34.5t-229.5-97q-106.5-62.5-194-150t-150-194q-62.5-106.5-97-229T0 960q0-132 34.5-255t97-229.5q62.5-106.5 150-194t194-150q106.5-62.5 229-97T960 0q132 0 255 34.5t229.5 97q106.5 62.5 194 150t150 194q62.5 106.5 97 229.5t34.5 255q0 96-19 189.5t-56 181.5l-99-100q46-133 46-271 0-115-30-221t-84-198.5Q1624 448 1548 372t-168.5-130q-92.5-54-198.5-84t-221-30q-115 0-221 30t-198.5 84Q448 296 372 372T242 540.5Q188 633 158 739t-30 221q0 115 30 221t84 198.5q54 92.5 130 168.5t168.5 130q92.5 54 198.5 84t221 30M384 896h1152v128H384V896m1408 640q53 0 99.5 20t81.5 55q35 35 55 81.5t20 99.5q0 53-20 99.5t-55 81.5q-35 35-81.5 55t-99.5 20v-128q27 0 50-10t40.5-27.5q17.5-17.5 27.5-40.5t10-50q0-27-10-50t-27.5-40.5Q1865 1684 1842 1674t-50-10h-293l162 163-90 90-317-317 317-317 90 90-162 163h293z"/></svg>