<svg xmlns="http://www.w3.org/2000/svg" width="1514" height="2048" viewBox="0 0 1514 2048">
  <g>
    <path d="M488.216774 1581.80473C488.216774 1581.80473 410.161548 1627.19656 543.766022 1642.55656 705.624086 1661.02159 788.347871 1658.37351 966.716559 1624.61454 966.716559 1624.61454 1013.61135 1654.01875 1079.10331 1679.48662 679.247828 1850.86899 174.129548 1669.52189 488.211269 1581.76619M439.362065 1358.17634C439.362065 1358.17634 351.81557 1422.98013 485.51914 1436.80963 658.420989 1454.64705 794.965333 1456.10598 1031.23957 1410.60955 1031.23957 1410.60955 1063.91948 1443.7409 1115.30667 1461.8591 631.824516 1603.29222 93.3436559 1473.03501 439.356559 1358.19286M851.24129 978.855914C949.765505 1092.28869 825.355011 1194.36387 825.355011 1194.36387 825.355011 1194.36387 1075.52482 1065.21875 960.633118 903.498323 853.327828 752.684043 771.038968 677.750366 1216.51751 419.388559 1216.51751 419.388559 517.279656 594.041118 851.235785 978.844903"/>
    <path d="M1380.08774 1747.24129C1380.08774 1747.24129 1437.85015 1794.83527 1316.47312 1831.65523 1085.67123 1901.57351 355.84 1922.68662 153.132043 1834.44095 80.251871 1802.73548 216.922839 1758.73652 259.914323 1749.504 304.750108 1739.78151 330.372129 1741.59277 330.372129 1741.59277 249.321978 1684.49652-193.502968 1853.70426 105.438968 1902.16258 920.730151 2034.34667 1591.61531 1842.64946 1380.09875 1747.24129M525.763441 1126.51011C525.763441 1126.51011 154.530409 1214.68422 394.300559 1246.70348 495.538925 1260.25772 697.355011 1257.19123 885.341591 1241.44034 1038.97462 1228.48069 1193.24077 1200.92628 1193.24077 1200.92628 1193.24077 1200.92628 1139.06787 1224.12594 1099.8751 1250.88757 722.894452 1350.03389-5.38425806 1303.90985 204.315527 1202.49531 381.605161 1116.83166 525.774452 1126.57617 525.774452 1126.57617M1191.69376 1498.7286C1574.912 1299.59363 1397.72697 1108.22675 1274.05419 1134.00843 1243.74159 1140.31759 1230.22589 1145.78443 1230.22589 1145.78443 1230.22589 1145.78443 1241.47888 1128.15622 1262.97187 1120.52576 1507.6363 1034.50976 1695.79905 1374.21901 1183.99174 1508.76533 1183.99174 1508.81996 1189.93755 1503.47974 1191.69927 1498.74512M960.688172 2.19664516C960.688172 2.19664516 1172.92043 214.500473 759.395097 540.963785 427.789763 802.843527 683.778753 952.160344 759.257462 1122.77196 565.693935 948.130409 423.644215 794.392774 518.94228 651.308043 658.723785 441.283441 1046.24723 339.450495 960.638624 2.22417204"/>
    <path d="M563.420215,2038.36559 C931.261935,2061.91209 1496.14108,2025.30133 1509.51914,1851.24886 C1509.51914,1851.24886 1483.80353,1917.2308 1205.51776,1969.63097 C891.557161,2028.71467 504.353032,2021.81643 274.668731,1983.95045 C274.652215,1983.95045 321.662624,2022.87346 563.42572,2038.39862"/>
  </g>
</svg>
