<svg xmlns="http://www.w3.org/2000/svg" viewBox="0 0 2048 2048"><path d="M1715 605q20 43 39.5 86t46.5 82q-6 14-19.5 25t-30.5 18.5q-17 7.5-34.5 12T1685 833q-26 0-41.5-14t-15.5-42q13-6 29-7l32-2q16-1 31-3t27-9q-7-18-13.5-34.5t-12-32.5q-5.5-16-9-33t-3.5-37v-14h6M371 950q4-29 20-50.5t48-21.5q24 0 43 11t32.5 28.5q13.5 17.5 21 39.5t7.5 43q0 17-3 32-10-6-17-20t-14-29q-7-15-15-26t-19-11q-14 0-21.5 8.5t-11 21.5q-3.5 13-4.5 27.5t-1 26.5v59q-17-16-22.5-43.5T409 997q0-18 3-36t11-34q-6-3-13-3-14 0-21.5 9.5T371 950m1345 504q0 12 16.5 30t41.5 39.5q25 21.5 54.5 45.5t56 48q26.5 24 45 47t22.5 42q1 5 1 14 0 13-5.5 38t-14 56q-8.5 31-19 65.5T1894 1946q-10 32-19 59t-14 43H162q-8-21-19-50t-21.5-59.5q-10.5-30.5-18-59T96 1830q0-25 12-40.5t30-27q18-11.5 38.5-20.5t37.5-20q55-38 111-71t113-67q9-5 25.5-14t34-19.5q17.5-10.5 32-20.5t18.5-17q4-7 4-17 0-12-5-24t-12.5-24q-7.5-12-15.5-23.5t-13-22.5q-14-29-22.5-59.5T473 1280q-57-9-98.5-41t-69.5-78q-28-46-41.5-99.5T250 956q0-26 5-58t16-55q4-7 8.5-12.5t8.5-11q4-5.5 6.5-12T297 791q0-24-6.5-50t-6.5-58q0-37 4.5-79.5T306 522q13-39 37-71t63-49q15-58 48-100.5t76.5-75q43.5-32.5 92.5-59t97-53.5q98-56 212.5-85T1159 0q51 0 105 6t106.5 19q52.5 13 102 34.5T1564 112q28 21 61 51t65 64.5q32 34.5 59 69.5t42 66q23 47 38.5 100.5t25 109q9.5 55.5 13.5 111t4 107.5q0 61-6 134t-18.5 147q-12.5 74-32 144.5T1770 1342q-5 11-14 25.5t-18 30q-9 15.5-15.5 30.5t-6.5 26m-431 442q0-11 .5-21.5t.5-21.5q-22-11-45.5-16.5t-48.5-7.5q21-10 44.5-13t43.5-15v-17q-15-1-26-5t-20.5-9q-9.5-5-19-11t-21.5-13q-15-8-40-19.5t-53-22q-28-10.5-54-17.5t-42-7q-20 0-30.5 13t-16 31.5Q952 1743 951 1763t-1 33q0 14 .5 28t1.5 28q2 40 16.5 75.5T995 2000q4 11 7 22.5t15 16.5q2 1 7 1 11 0 28.5-4.5t36-11q18.5-6.5 35.5-13.5t27-13q38-20 68.5-49t65.5-53m-67-207q30 24 58.5 34t67.5 10h14q7 0 14-1 23-17 44-35t45-33q-23 2-45 7t-44 10.5q-22 5.5-44 9.5t-45 4q-15 0-30-2.5t-29-9.5l-6 6m105 177q11 4 25 4 23 0 35.5-14t12.5-36q0-19-11.5-34.5T1353 1770q-11 0-21.5 4.5T1312 1785q0 3-.5 6.5t-.5 6.5q0 17 4.5 34t7.5 34m318 41q11-15 14.5-36.5t3.5-39.5q0-13-2-38t-6.5-50.5q-4.5-25.5-12-47T1619 1667q-11-7-26-7-25 0-47 11t-43 25.5q-21 14.5-41 29.5t-42 23q4 11 8 20.5t5 20.5q12-3 25-3 27 0 52 11-16 2-36 3.5t-33 11.5q-3 9-3 20 0 8 .5 15.5t.5 15.5q0 10-1 15 50 14 101 20t102 8m-377-271q38 0 78.5-8.5t80.5-23.5q40-15 76.5-34.5t67.5-42.5q32-23 55-57t45-66q42-62 72-131t49-142.5q19-73.5 28-149t9-149.5q0-30-1-72.5t-4.5-86.5q-3.5-44-11.5-85t-21-67q-9-19-25-35.5t-35.5-29Q1707 444 1685 437t-43-7q-37 0-65 25-1-4-1.5-7.5t-.5-8.5q0-18 8-31.5t21-22.5q13-9 29-13.5t32-4.5q11 0 22 2t22 5q-21-27-42-56t-44.5-56q-23.5-27-50-50.5T1516 171q-38-21-82-39t-90.5-31Q1297 88 1250 81t-90-7q-42 0-83.5 7.5T997 108q-44 22-94 51t-96.5 64.5Q760 259 722 301t-59 88q19 45 19 97 0 33-6 65t-13 64.5-13 64.5q-6 32-6 65 0 24 4.5 47t10.5 46q6 23 11.5 46t6.5 47q-7 10-18 16t-24 9q-13 3-26 4t-24 1h-16q-5-24-12.5-49t-20-45.5q-12.5-20.5-32-33T455 821q-30 0-57 12.5T351.5 867q-19.5 21-31 48T309 972q0 33 12 73t34 74.5q22 34.5 53.5 57.5t69.5 23q16 0 28.5-7t24.5-15q12-8 24.5-15.5t28.5-7.5q2 5 4 10.5t2 11.5q0 12-8 22.5t-17 19.5q-9 9-17 17.5t-8 17.5q0 14 2.5 28.5t5.5 28.5q0 1 .5 2t.5 2q6 26 17 59.5t25.5 68q14.5 34.5 31 65.5t32.5 53q22 31 55 49.5t70.5 28Q818 1648 857 1652t74 6q11-23 35.5-30t47.5-7q30 0 62 8-46-19-86-56.5t-73-73.5q-18-20-37-42t-34.5-46q-15.5-24-25.5-50.5t-11-55.5q39 54 75.5 101.5t77.5 88q41 40.5 91 72.5t116 54q45 15 95 15m262-324q-1-12-1.5-24.5t-.5-24.5v-15q0-7 2-14 33-3 60.5-12t52.5-21q25-12 50-26t54-27q-18 34-38.5 63.5T1658 1263q-26 22-58 35t-74 14m-165-119q-15-13-22.5-32t-7.5-39q0-30 17-53 9 15 11.5 30.5t6.5 27.5q4 12 15.5 19.5t38.5 7.5q28 0 55-8t52.5-19.5q25.5-11.5 51-24t51.5-22.5q6-10 10-21t4-23q0-15-15-36.5t-37.5-48Q1569 925 1543 893t-48.5-68.5Q1472 788 1457 748t-15-84v-6q0-1 1-1 6-4 10-4 6 0 10 5.5t6 12.5q2 7 3 14.5t3 11.5q11 27 33.5 62.5t49.5 71q27 35.5 54.5 67.5t48.5 54q4 4 11 9.5t14 11.5q7 6 12.5 12.5t7.5 10.5q1 4 1 12 0 21-9.5 40t-9.5 39v4q-34 22-67 41t-67 33q-34 14-71 22t-79 8h-21.5q-10.5 0-21.5-2m-72-395q0 20-10.5 33.5T1252 853q-16 8-34.5 11t-34.5 3q-11 0-28-1.5t-33-7q-16-5.5-28-15t-12-24.5q0-13 9-27 25 1 49 7t50 6q14 0 26.5-3.5T1239 788q-10-16-21-35.5t-20.5-40Q1188 692 1182 671t-6-40q0-14 4-25 9 17 16 35t15 35q8 17 17.5 33.5T1252 740q14 13 25.5 25t11.5 33m-130 474q16 41 47.5 64t69.5 34q38 11 80 14t79 3q27 0 54.5-.5t54.5-1.5q-10 23-30.5 36t-45 19.5q-24.5 6.5-51 8t-48.5 1.5q-29 0-59-4t-56-18q-17-9-29.5-21t-23-26q-10.5-14-20.5-28.5t-21-28.5q-3-4-8.5-9t-11-10.5q-5.5-5.5-9.5-11t-4-9.5q0-4 4-6.5t9.5-4q5.5-1.5 11-1.5h7.5m-103-878q10 0 22.5 3.5t22.5 9.5q10 6 17 15.5t7 21.5q0 11-7 23-24-6-49-6-33 0-58.5 11.5t-46 30.5Q944 522 928 547t-28 52q-12-3-16.5-11.5T879 568q0-30 17-60.5t43-56q26-25.5 57-41.5t60-16m118 804q26 14 60.5 22t71 12.5q36.5 4.5 72.5 6t65 1.5q13 0 25-.5t24-.5q3 14 4 28.5t1 29.5v20q-8 0-15.5.5t-15.5.5q-34 0-78.5-5t-87.5-18q-43-13-78-36.5t-48-60.5z"/></svg>