<svg xmlns="http://www.w3.org/2000/svg" viewBox="0 0 2048 2048"><path d="M1920 128v1792H128V128h1792m-119 119H247v1554h1554V247m-308 1214q0-36-25.5-60.5T1403 1355q-39-21-83.5-41.5T1236 1265q-39-28-64.5-67.5T1146 1100q0-55 25-94t65-63.5q40-24.5 88.5-35.5t95.5-11q19 0 41.5 1t45 3.5q22.5 2.5 44 7.5t39.5 14v122q-35-26-77-35.5t-85-9.5q-23 0-49.5 4t-49.5 15q-23 11-38 30t-15 48q0 26 10 44t30 33q26 20 56.5 33t59.5 27q34 16 68 38t61.5 49.5q27.5 27.5 44.5 62t17 76.5q0 60-25 99.5t-65 63q-40 23.5-90 33t-100 9.5q-18 0-45.5-3t-56-8.5q-28.5-5.5-54.5-13t-40-17.5v-127q17 15 40.5 27.5t49.5 21.5q26 9 52.5 13.5t49.5 4.5q25 0 52.5-3.5t50-14.5q22.5-11 37-31t14.5-52m-726 203q-41 0-79.5-12.5t-70.5-36q-32-23.5-56.5-56T524 1488l103-32q16 43 51.5 71.5T762 1556q38 0 61.5-18.5t36-47q12.5-28.5 17-61.5t4.5-63V908h123v477q0 56-14 107t-43 89q-29 38-73.5 60.5T767 1664z"/></svg>