<svg xmlns="http://www.w3.org/2000/svg" width="2050" height="1989" viewBox="0 0 2050 1989">
  <g fill="none" transform="translate(1 1)">
    <path fill="#000" stroke="#FFF" d="M1016.67732,0.175085064 C998.576314,1.08692353 980.841166,5.57487542 964.512317,13.3756541 L252.683014,353.495142 C215.3618,371.318664 188.254168,405.02729 179.032943,445.079779 L3.41985644,1209.07409 C-4.77290405,1244.637 1.89335429,1281.97462 21.900653,1312.58476 C24.3018909,1316.28863 26.8843996,1319.87376 29.6389176,1323.32729 L522.338775,1935.92473 C548.173172,1968.03524 587.34304,1986.73223 628.762673,1986.72416 L1418.88501,1986.54208 C1460.28915,1986.57226 1499.45625,1967.91009 1525.3089,1935.83369 L2017.82668,1323.14521 C2043.6749,1291.01861 2053.35941,1248.96305 2044.13678,1208.89201 L1868.25058,444.897702 C1859.02936,404.845213 1831.92172,371.136588 1794.60051,353.313065 L1082.68017,13.3756541 C1062.14094,3.56289329 1039.44569,-0.976155422 1016.67732,0.175085064 Z"/>
    <path fill="#FFF" d="M1023.73072,260.172385 L1023.73086,260.172385 C1047.2609,260.169996 1066.33404,281.368777 1066.33684,307.512356 C1066.35053,311.218683 1066.55533,316.192672 1066.42773,319.620465 C1065.86658,334.699338 1062.57965,346.240066 1060.60127,360.132556 C1057.01719,389.866894 1053.92293,414.51485 1055.77624,437.424163 C1057.45959,448.889584 1064.15917,453.420267 1069.70511,458.72715 C1069.83126,461.815406 1070.32764,472.07711 1070.70654,477.754177 C1206.17573,489.78826 1331.98604,551.737755 1424.39016,648.633412 L1440.595,637.071535 C1446.0867,637.394991 1458.18811,639.05926 1466.45005,634.249344 C1485.51621,621.413715 1502.88365,603.608584 1523.89529,582.266414 C1533.52293,572.057411 1540.58736,562.337626 1552.02616,552.496855 C1554.63778,550.250085 1558.58512,547.244594 1561.49415,544.940667 C1581.93156,528.637276 1610.36552,530.369919 1625.03896,548.76428 C1639.7124,567.158641 1635.00695,595.27739 1614.56954,611.580781 C1611.68588,613.900177 1607.93758,617.11006 1605.19259,619.136969 C1593.054,628.100304 1581.87341,632.687067 1569.77865,639.802687 C1544.29748,655.540737 1523.17088,668.587021 1506.41591,684.320468 C1498.50184,692.785496 1499.09544,700.800838 1498.40453,708.445646 C1496.041,710.616992 1487.70585,717.998007 1483.29216,722.010368 C1520.01597,776.671022 1547.55176,838.711526 1563.13284,906.545219 C1578.57019,973.75315 1580.97567,1040.92324 1572.05461,1105.46414 L1589.26086,1110.47125 C1592.35332,1114.84841 1598.71222,1125.48449 1607.65077,1128.95205 C1629.57354,1135.85585 1654.24551,1138.39417 1684.03199,1141.51535 C1698.01645,1142.67743 1710.08246,1141.98502 1724.90824,1144.79273 C1728.45582,1145.46458 1733.63647,1146.87531 1737.28946,1147.70596 C1762.40353,1153.7669 1778.52837,1176.85439 1773.34067,1199.59785 C1768.15174,1222.34664 1743.61804,1236.17184 1718.35347,1230.73299 C1718.1711,1230.69133 1717.90644,1230.68463 1717.7162,1230.64209 C1717.43085,1230.57713 1717.18002,1230.43846 1716.89686,1230.36912 C1713.37514,1229.59624 1708.96192,1228.82683 1705.88121,1228.00212 C1691.30516,1224.10023 1680.74922,1218.27357 1667.64508,1213.2539 C1639.45341,1203.14421 1616.10516,1194.6948 1593.35774,1191.40469 C1581.80515,1190.49497 1575.91344,1196.00919 1569.50568,1200.23541 C1566.39301,1199.61084 1556.81099,1197.91552 1551.29799,1197.04907 C1510.47218,1325.3512 1423.53804,1436.44174 1305.67637,1506.03342 C1307.71182,1510.94559 1311.16408,1521.39045 1312.77737,1523.23968 C1310.08345,1530.42737 1306.04166,1537.306 1309.49999,1548.36628 C1317.77085,1569.8107 1331.14976,1590.77366 1347.28092,1616.00781 C1355.09144,1627.66589 1363.08312,1636.62325 1370.13156,1649.96514 C1371.81818,1653.15763 1374.05673,1658.06205 1375.68491,1661.43598 C1386.64153,1684.86227 1378.60032,1711.8446 1357.56826,1721.97652 C1336.36977,1732.18861 1310.01292,1721.40433 1298.66642,1697.85134 C1297.0452,1694.51529 1294.76222,1690.0787 1293.38619,1686.92673 C1287.34887,1673.09787 1285.25065,1661.24621 1281.00496,1647.87126 C1271.33202,1619.52673 1263.39199,1596.06015 1251.78164,1576.22403 C1245.29006,1566.62462 1237.32281,1565.39827 1230.02346,1563.02346 C1228.6721,1560.69492 1223.63177,1551.44725 1220.91962,1546.63655 C1197.38274,1555.53078 1173.03551,1562.94169 1147.81578,1568.66784 C1037.26357,1593.76884 926.594602,1583.58518 827.724737,1545.63513 L818.074666,1563.1145 C810.891779,1565.03764 803.963742,1566.98738 799.714273,1572.05706 C784.195764,1590.57087 778.002093,1620.28257 766.729004,1648.59956 C762.484022,1661.97475 760.475409,1673.82588 754.438819,1687.65504 C753.072602,1690.78496 750.778143,1695.1601 749.158592,1698.48861 C749.146939,1698.51396 749.170245,1698.55329 749.158592,1698.5795 C749.142569,1698.61271 749.085178,1698.63719 749.067699,1698.6704 C737.697279,1722.14712 711.423682,1732.89466 690.256888,1722.70454 C669.222238,1712.57801 661.189883,1685.59323 672.140245,1662.164 C673.768216,1658.78995 675.916081,1653.88573 677.60255,1650.69316 C684.650291,1637.35089 692.64326,1628.3033 700.45319,1616.64479 C716.58301,1591.40979 730.747975,1568.77467 739.0177,1547.32981 C741.095386,1540.20807 738.019045,1530.45085 735.229861,1523.23939 L742.968126,1504.66755 C629.557314,1437.4667 539.99306,1330.36999 497.255466,1197.86812 L478.683631,1201.05447 C473.704514,1198.2677 463.694863,1191.66172 454.194299,1192.40582 C431.44702,1195.69712 408.098102,1204.14389 379.906959,1214.25503 C366.80308,1219.27537 356.246704,1225.00957 341.670828,1228.91222 C338.590147,1229.7371 334.176838,1230.5972 330.655181,1231.37025 C330.372132,1231.43959 330.121041,1231.57797 329.835836,1231.64322 C329.645747,1231.68547 329.380935,1231.69246 329.198567,1231.73412 C303.935452,1237.17973 279.406122,1223.34644 274.211369,1200.59898 C269.017839,1177.85686 285.150136,1154.77473 310.262578,1148.70709 C310.449578,1148.66456 310.705243,1148.57017 310.899847,1148.52501 C311.02395,1148.49705 311.139897,1148.46034 311.264001,1148.43412 C314.83425,1147.59663 319.380752,1146.41214 322.643801,1145.79401 C337.469428,1142.98551 349.535644,1143.67944 363.520046,1142.51662 C393.306385,1139.3939 417.978842,1136.85829 439.901269,1129.95332 C446.851913,1127.10124 453.497309,1117.54547 458.200135,1111.47253 L476.043663,1106.28334 C456.049706,967.823273 489.882316,831.933433 562.985195,721.919184 L549.329434,709.720038 C548.458612,704.404618 547.314995,692.114433 540.771824,685.139668 C524.016009,669.407095 502.891107,656.358597 477.409093,640.621887 C465.313949,633.506908 454.225238,628.918863 442.086191,619.956169 C439.504225,618.049839 436.064459,615.132211 433.255466,612.855173 C433.0465,612.693576 432.825619,612.565161 432.618197,612.399981 C412.176448,596.102067 407.48006,567.981628 422.14878,549.58348 C430.399948,539.234525 443.008549,534.113681 456.106106,534.562143 C466.293085,534.910944 476.841363,538.629535 485.784626,545.759867 C488.690339,548.058987 492.654836,551.081404 495.252621,553.316055 C506.691939,563.156185 513.664286,572.877106 523.29245,583.085614 C544.305221,604.426677 561.670863,622.142897 580.737685,634.977506 C590.751298,640.809907 598.439426,638.462806 606.046362,637.435543 C608.494261,639.24425 616.726492,645.149977 621.431998,648.360152 C693.949319,571.419792 789.19871,514.43444 899.827446,489.316055 C925.537129,483.478643 951.277052,479.599475 976.845938,477.481062 L977.847361,459.455457 C983.519767,453.963759 989.882813,446.063052 991.685199,437.424163 C993.538508,414.51485 990.535289,389.866894 986.951202,360.132556 C984.972828,346.240066 981.68589,334.699338 981.124744,319.620465 C981.00938,316.527664 981.180969,312.248131 981.215636,308.695856 C981.206897,308.297006 981.124773,307.913595 981.124744,307.512356 C981.121947,281.368777 1000.20068,260.174774 1023.73072,260.172385 Z M970.382212,590.641802 C955.27977,592.472475 940.120288,595.027581 924.954047,598.471105 C841.928214,617.322202 769.886216,658.250855 713.562866,713.634689 L896.823179,843.546496 L897.187333,843.364419 C903.39487,847.898743 911.033735,850.556453 919.309665,850.556453 C939.513025,850.556453 955.968749,834.590793 956.817489,814.596282 L957.727873,814.14109 L970.382212,590.641802 Z M1077.17026,590.641802 L1089.8246,813.777228 L1090.00668,813.868121 C1090.33232,821.548441 1093.03987,829.156135 1098.20013,835.6263 C1110.79714,851.420051 1133.56688,854.34872 1149.72787,842.545219 L1150.36514,842.818189 L1332.44196,713.725728 C1263.74804,646.455832 1174.1035,602.563667 1077.17026,590.641802 Z M647.104829,797.116908 C597.444616,878.017599 573.917874,975.0528 584.834559,1074.87509 L799.321045,1012.96897 L799.503122,1012.24066 C806.918513,1010.21448 813.82543,1005.87468 818.985341,999.404248 C831.581794,983.608546 829.354601,960.824269 814.251344,947.694433 L814.433421,946.784049 L647.104829,797.116908 Z M1399.17311,797.207801 L1399.17325,797.207801 L1232.75505,946.146635 L1232.84594,946.601827 C1227.04416,951.644947 1222.76116,958.4707 1220.91991,966.539238 C1216.42573,986.23523 1228.28965,1005.87208 1247.59416,1011.14806 L1247.77624,1012.05844 L1463.35518,1074.14663 C1467.92164,1027.63903 1465.14263,979.516304 1454.06927,931.307374 C1442.86149,882.513381 1424.0349,837.505216 1399.17311,797.207801 Z M989.409239,958.345781 L946.712226,1011.51221 L962.006678,1077.97025 L1023.73072,1107.64877 L1085.27268,1078.06129 L1100.56713,1011.60325 L1057.96116,958.345781 L989.409239,958.345781 Z M1209.17595,1140.60467 L1209.17581,1140.60467 C1204.32059,1140.85008 1199.45189,1142.09287 1194.79174,1144.33725 C1176.58988,1153.10371 1168.67286,1174.66035 1176.58406,1193.04279 L1176.31109,1193.40695 L1262.43342,1401.42971 C1345.44862,1348.5442 1407.57996,1269.5168 1440.04935,1178.29457 L1218.18875,1140.78675 L1217.8246,1141.24194 C1214.98953,1140.72004 1212.08909,1140.45755 1209.17595,1140.60467 Z M836.555754,1141.51506 L836.555754,1141.5152 C834.137045,1141.48126 831.641894,1141.69973 829.181643,1142.15247 L828.817489,1141.69728 L608.868698,1179.02302 C642.813584,1272.94093 706.269859,1349.48727 785.938399,1400.61036 L871.150348,1194.68149 L870.513079,1193.86214 C873.552305,1186.8012 874.448677,1178.80681 872.606963,1170.73838 C868.672996,1153.50372 853.486683,1141.75248 836.555754,1141.51506 Z M1022.36514,1231.73426 C1009.39026,1232.21095 997.082451,1239.44876 990.592738,1251.58064 L990.410661,1251.58064 L882.257034,1447.13113 C957.105549,1472.63549 1039.76577,1478.34026 1122.68947,1459.51236 C1137.48549,1456.15291 1151.95201,1452.12144 1166.02375,1447.40425 L1057.59701,1251.4896 L1056.77766,1251.4896 C1053.15209,1244.71107 1047.39199,1239.05748 1039.93555,1235.46684 C1034.24718,1232.72762 1028.26283,1231.51752 1022.36514,1231.73426 Z"/>
  </g>
</svg>
