<svg xmlns="http://www.w3.org/2000/svg" viewBox="0 0 2048 2048"><path d="M1783 384q30 0 55 12t43 31.5q18 19.5 28.5 46T1920 528v864q0 29-10.5 55t-28.5 45.5q-18 19.5-43 31.5t-55 12H137q-30 0-55-12t-43-31.5Q21 1473 10.5 1447T0 1392V528q0-28 10.5-54.5t28.5-46Q57 408 82 396t55-12h1646m9 144q0-11-9-16H137q-9 5-9 16v864q0 11 9 16h1646q9-5 9-16V528M384 768H256V640h128v128M256 896h256v128H256V896m1152 0h256v128h-256V896m0 256h256v128h-256v-128m-1152 0h256v128H256v-128m384 0h640v128H640v-128m0-384H512V640h128v128m0 128h128v128H640V896m256 0h128v128H896V896m256 0h128v128h-128V896M896 768H768V640h128v128m256 0h-128V640h128v128m256 0h-128V640h128v128m128-128h128v128h-128V640z"/></svg>