<svg xmlns="http://www.w3.org/2000/svg" viewBox="0 0 2048 2048"><path d="M1024 576q102 0 196 26.5t175.5 74q81.5 47.5 149 115t115 149q47.5 81.5 74 175.5t26.5 196q0 112-32.5 216t-92 193q-59.5 89-144 159T1304 1992l-44-132q-55 29-114.5 44.5T1024 1920q-62 0-121.5-15.5T788 1860l-44 132q-104-42-188-112t-143.5-159q-59.5-89-92-193T288 1312q0-102 26.5-196t74-175.5q47.5-81.5 115-149t149-115Q734 629 828 602.5t196-26.5m-384 960q27 0 50-10t40.5-27.5Q748 1481 758 1458t10-50q0-27-10-50t-27.5-40.5Q713 1300 690 1290t-50-10q-27 0-50 10t-40.5 27.5Q532 1335 522 1358t-10 50q0 27 10 50t27.5 40.5Q567 1516 590 1526t50 10m128-384q27 0 50-10t40.5-27.5Q876 1097 886 1074t10-50q0-27-10-50t-27.5-40.5Q841 916 818 906t-50-10q-27 0-50 10t-40.5 27.5Q660 951 650 974t-10 50q0 27 10 50t27.5 40.5Q695 1132 718 1142t50 10m256 640q52 0 101-14.5t94-40.5l-195-585-195 585q45 26 94 40.5t101 14.5m128-768q0 27 10 50t27.5 40.5q17.5 17.5 40.5 27.5t50 10q27 0 50-10t40.5-27.5q17.5-17.5 27.5-40.5t10-50q0-27-10-50t-27.5-40.5Q1353 916 1330 906t-50-10q-27 0-50 10t-40.5 27.5Q1172 951 1162 974t-10 50m256 512q27 0 50-10t40.5-27.5q17.5-17.5 27.5-40.5t10-50q0-27-10-50t-27.5-40.5Q1481 1300 1458 1290t-50-10q-27 0-50 10t-40.5 27.5Q1300 1335 1290 1358t-10 50q0 27 10 50t27.5 40.5q17.5 17.5 40.5 27.5t50 10M704 448q0-72 30-135L595 173l90-90 126 126q45-39 99-60t114-21q60 0 114 21t99 60l126-126 90 90-139 140q30 63 30 135 0 13-1.5 25.5T1339 498q-75-32-154.5-49T1024 432q-81 0-160.5 17T709 498q-2-12-3.5-24.5T704 448z"/></svg>