<svg xmlns="http://www.w3.org/2000/svg" viewBox="0 0 2048 2048"><path d="M1664 1024q53 0 99.5 20t81.5 55q35 35 55 81.5t20 99.5v128h128v640h-768v-640h128v-128q0-53 20-99.5t55-81.5q35-35 81.5-55t99.5-20m-128 384h256v-128q0-27-10-50t-27.5-40.5Q1737 1172 1714 1162t-50-10q-27 0-50 10t-40.5 27.5Q1556 1207 1546 1230t-10 50v128m384 128h-512v384h512v-384M512 1024q0 106 40.5 199t110 162.5q69.5 69.5 162.5 110t199 40.5q32 0 64-4t64-12v131q-32 6-64 9.5t-64 3.5q-52 0-102.5-8t-99.5-25l-81 243q69 23 140 34.5t143 11.5q65 0 128-9v129q-32 4-64 6t-64 2q-141 0-272-36.5T507.5 1908q-113.5-67-207-160.5t-160.5-207Q73 1427 36.5 1296T0 1024q0-141 36.5-272T140 507.5q67-113.5 160.5-207t207-160.5Q621 73 752 36.5T1024 0q141 0 272 36.5T1540.5 140q113.5 67 207 160.5t160.5 207Q1975 621 2011.5 752t36.5 272q0 80-12 159-15-55-44.5-103t-72.5-86q-3-130-45-253-61 20-121.5 40.5T1631 822q6 18 11 36.5t9 37.5h-131q-22-85-69.5-155.5t-113-121.5q-65.5-51-146-79T1024 512q-106 0-199 40.5t-162.5 110Q593 732 552.5 825T512 1024m512-896q-72 0-143 11.5T741 174q20 61 40.5 121.5T822 417q49-17 99.5-25t102.5-8q52 0 102.5 8t99.5 25l81-243q-69-23-140-34.5T1024 128M417 1226q-17-49-25-99.5t-8-102.5q0-52 8-102.5t25-99.5l-243-81q-23 69-34.5 140T128 1024q0 72 11.5 143t34.5 140q61-20 121.5-40.5T417 1226z"/></svg>