<svg xmlns="http://www.w3.org/2000/svg" viewBox="0 0 2048 2048"><path d="M1024 0q141 0 272 36.5t245 103q114 66.5 207.5 160t160 207.5q66.5 114 103 245t36.5 272q0 141-36.5 272t-103 245q-66.5 114-160 207.5t-207.5 160q-114 66.5-245 103t-272 36.5q-141 0-272-36.5t-245-103q-114-66.5-207.5-160t-160-207.5q-66.5-114-103-244.5T0 1024q0-141 36.5-272t103-245q66.5-114 160-207.5t207.5-160Q621 73 751.5 36.5T1024 0m896 1024q0-72-11.5-143T1874 741q-61 20-121.5 40T1631 821q33 98 33 203 0 106-33 203l243 80q23-69 34.5-140t11.5-143m-1792 0q0 72 11.5 143t34.5 140q61-20 121.5-40t121.5-40q-33-97-33-203 0-105 33-203l-243-80q-23 69-34.5 140T128 1024m384 0q0 106 40.5 199t110 162.5q69.5 69.5 162.5 110t199 40.5q106 0 199-40.5t162.5-110q69.5-69.5 110-162.5t40.5-199q0-106-40.5-199t-110-162.5Q1316 593 1223 552.5T1024 512q-106 0-199 40.5t-162.5 110Q593 732 552.5 825T512 1024m795-850q-69-23-140-34.5T1024 128q-72 0-143 11.5T741 174q20 61 40 121.5T821 417q97-33 203-33 105 0 203 33l80-243M741 1874q69 23 140 34.5t143 11.5q72 0 143-11.5t140-34.5q-20-61-40-121.5t-40-121.5q-98 33-203 33-106 0-203-33l-80 243z"/></svg>