<svg xmlns="http://www.w3.org/2000/svg" viewBox="0 0 2048 2048"><path d="M960 512q93 0 174.5 35.5t142 96q60.5 60.5 96 142T1408 960q0 93-35.5 174.5t-96 142q-60.5 60.5-142 96T960 1408q-93 0-174.5-35.5t-142-96q-60.5-60.5-96-142T512 960q0-93 35.5-174.5t96-142q60.5-60.5 142-96T960 512m0 768q66 0 124-25.5t101.5-69q43.5-43.5 69-101.5t25.5-124q0-66-25.5-124t-69-101.5q-43.5-43.5-101.5-69T960 640q-35 0-64 7v626q29 7 64 7m64-896H896V0h128v384M896 1536h128v384H896v-384m1024-640v128h-384V896h384M384 1024H0V896h384v128m123-426L236 326l90-90 272 271-91 91m906 724l271 272-90 90-272-271 91-91m0-724l-91-91 272-271 90 90-271 272m-906 724l91 91-272 271-90-90 271-272z"/></svg>