<svg xmlns="http://www.w3.org/2000/svg" viewBox="0 0 2048 2048"><path d="M1896 0q31 0 58.5 11.5T2003 43q21 20 33 47t12 58v1752q0 31-12 58t-33 47q-21 20-48.5 31.5T1896 2048H151q-31 0-58.5-11.5t-48-31.5Q24 1985 12 1958t-12-58V148q0-31 12-58t32.5-47q20.5-20 48-31.5T151 0h1745M607 1728V768H303v960h304M455 634q36 0 68.5-13.5T580 583q24-24 38-56t14-69q0-37-14-69t-38-56q-24-24-56.5-37.5T455 282q-36 0-68 14t-56 38q-24 24-38 56t-14 68q0 36 14 68t38 56q24 24 56 38t68 14m1290 1094v-519q0-99-14-184t-53.5-147.5q-39.5-62.5-110.5-98T1381 744q-43 0-85.5 10t-80.5 30q-38 20-69.5 49t-52.5 68h-4V768H798v960h303v-466q0-48 6.5-93.5t26-80.5q19.5-35 55-56t94.5-21q58 0 90 24t47 61.5q15 37.5 18 83.5t3 90v458h304z"/></svg>