<svg xmlns="http://www.w3.org/2000/svg" viewBox="0 0 2048 2048"><path d="M1700 1428q32 14 48 38.5t23 57.5q4 20 9 37t12 32q7 15 16.5 29.5t23.5 30.5q13 14 23 36.5t10 41.5q0 23-12.5 39t-29.5 28q-23 16-48 28.5t-50 24.5q-41 20-71 42t-60 56q-16 18-36.5 35.5t-44 31.5q-23.5 14-48.5 22.5t-50 8.5q-58 0-96.5-20.5T1253 1954q-8-15-16.5-19.5t-25.5-6.5q-51-4-101.5-8t-101.5-4q-42 0-86.5 7t-86.5 17q-9 2-18 15.5t-25 29q-16 15.5-43 28t-71 12.5q-33 0-71.5-7.5T539 1995q-62-31-122-42.5T290 1933q-23-3-44-8.5t-37-16.5q-16-11-25.5-28.5T174 1835q0-31 8.5-60t8.5-61q0-22-3.5-43.5T184 1626q0-51 24-75t70-38q22-7 38.5-19t30-26.5q13.5-14.5 25.5-31t27-33.5q3-4 3-9 0-12-1.5-23.5T399 1347q0-68 21.5-137t55-135q33.5-66 75.5-127t83-113q58-74 87.5-154T751 507q0-40-4-79.5t-4-79.5q0-80 18-144.5T817.5 94q38.5-45 99-69.5T1062 0q101 0 161.5 40.5t92 105q31.5 64.5 41 145T1366 452v17q0 41 1 73.5t8 63q7 30.5 21.5 61.5t41.5 67q48 63 98 127t91 132q41 68 67.5 142.5T1721 1295q0 69-21 133M861 386q14 0 23 7.5t14 18.5q5 11 7 24t2 25q0 10-3.5 16t-9 11q-5.5 5-12 10T871 510q-7 11-19 18t-23.5 15q-11.5 8-20 17.5T800 585q0 9 9 15 24 16 34.5 39.5t22 45Q877 706 896 721t59 15h6q40-2 76.5-21.5T1109 675q5-3 13-6t13-7l73-57q2-7 3.5-13.5t1.5-13.5q0-11-5-18t-12.5-12q-7.5-5-16.5-7.5t-18-4.5q-24-5-45-18.5t-44-19.5q-4-1-6.5-6.5t-3.5-12q-1-6.5-1.5-13t-.5-9.5q0-12 2.5-25.5t8.5-24.5q6-11 16.5-18t25.5-7q31 0 45.5 23t14.5 50q0 13-5 23.5t-5 21.5q0 8 5.5 11.5t12.5 3.5q23 0 30.5-11.5t7.5-32.5q0-23-4.5-51t-16-52q-11.5-24-31-40t-48.5-16q-52 0-75.5 26.5T1020 416q0 15 2 30t2 30q0 5-1 5t-6-2q-5-2-12-5t-15.5-5q-8.5-2-15.5-2-2 0-10 1t-16 1q-14 0-14-5 0-15-2.5-38.5T922 380q-7-22-20.5-38T866 326q-17 0-29.5 11T816 363.5q-8 15.5-11.5 33.5t-3.5 32q0 6 2.5 21t7 31q4.5 16 10.5 28t14 12q5 0 13-7.5t8-12.5q0-3-3.5-4t-5.5-1q-7 0-12-7t-8.5-16.5q-3.5-9.5-5.5-19t-2-14.5q0-20 9.5-36.5T861 386M643 1943q24 0 47.5-4.5t42.5-16q19-11.5 30.5-30.5t11.5-48q0-18-6.5-35t-16.5-32q-12-19-26-36t-26-36q-19-28-37-55.5t-36-56.5q-16-26-30-52.5t-34-50.5q-12-15-28.5-27t-36.5-12q-22 0-38 14.5t-33 33.5q-17 19-38 39t-54 30q-26 8-40 22t-14 43q0 20 3.5 40t3.5 40q0 27-8 51t-8 47q0 27 19.5 38t42.5 15q30 5 57 8.5t53 8.5q26 5 52 13t55 22q6 3 18.5 7.5t27 9q14.5 4.5 27.5 7.5t19 3m366-120q28 0 60.5-6t64-17q31.5-11 60.5-26t52-33q2-2 4-6.5t3-7.5v-1q6-22 10-48t7.5-53q3.5-27 6.5-53.5t7-50.5q4-27 10-52t16-47q10-22 27-39.5t44-31.5q0-2-.5-2.5t-.5-2.5q0-9 6-19.5t15-20.5q9-10 19.5-17t20.5-10q-6-24-13-48t-12-48q-6-36-12-61t-14.5-46q-8.5-21-22.5-41.5t-37-47.5q-11-13-15-20.5t-6-24.5q-1-7-6-26.5t-13-44q-8-24.5-18.5-51.5t-21.5-49.5q-11-22.5-22-37t-21-14.5q-24 0-57.5 19t-70 42.5q-36.5 23.5-72 42.5T945 842q-30 0-55.5-19.5t-46-43.5Q823 755 809 735.5T788 716q-8 0-9 12.5t-1 26.5v17q0 6-2 8-11 23-24.5 45T726 870q-12 23-20 47t-8 50q0 15 2.5 30t9.5 29l-2 4q-8 11-17 20.5t-17 20.5q-37 55-52.5 119.5T606 1320q0 17 2 34t2 34q0 5-1 11t-1 11q17 1 40.5 14t49.5 33.5q26 20.5 51.5 46t45.5 51q20 25.5 32.5 49.5t12.5 41q0 26-16.5 42.5T784 1713q17 30 42 51t54.5 34q29.5 13 62.5 19t66 6m401 142q21 0 41-6 31-9 57.5-26.5t47.5-41.5q27-31 57-54.5t68-41.5q17-8 33.5-15t32.5-17q11-7 21-17t10-24q0-8-3.5-15.5t-8.5-14.5q-15-21-26-39.5t-19.5-37.5q-8.5-19-15.5-40t-14-45q-1-5-7-13-21-30-59-30-18 0-34.5 9t-34 19.5q-17.5 10.5-35.5 19t-38 8.5q-20 0-33-10.5t-22-26.5q-9-16-15-33.5t-12-32.5q-8 13-18 24.5t-16 25.5q-13 30-16 67-5 58-13.5 113t-26.5 110q-5 16-8.5 35.5t-3.5 36.5q0 49 30.5 81t80.5 32z"/></svg>