<svg xmlns="http://www.w3.org/2000/svg" viewBox="0 0 2048 2048"><path d="M0 384v1082q29-23 61-39.5t67-28.5V583l896 449 896-449v953h-704v128h832V384H0m1024 504L271 512h1506l-753 376m-91 712l-226 227 90 90 318-317-318-317-90 90 226 227m-384-64q-50 0-110.5-2.5t-121.5.5q-61 3-118 14.5t-101.5 40Q53 1617 26.5 1666T0 1792q0 53 20.5 99.5t55 81q34.5 34.5 81.5 55t99 20.5v-128q-27 0-50-10t-40.5-27.5Q148 1865 138 1842t-10-50q0-27 10-50t27.5-40.5Q183 1684 206 1674t50-10h293l-162 163 90 90 317-317-317-317-90 90 162 163z"/></svg>