<svg xmlns="http://www.w3.org/2000/svg" viewBox="0 0 2048 2048"><path d="M2048 384v1082q-29-23-61-39.5t-67-28.5V583l-896 449-896-449v953h704v128H0V384h2048M1024 888l753-376H271l753 376m91 712l226 227-90 90-318-317 318-317 90 90-226 227m384-64q50 0 110.5-2.5t121.5.5q61 3 118 14.5t101.5 40q44.5 28.5 71 77.5t26.5 126q0 53-20.5 99.5t-55 81q-34.5 34.5-81.5 55t-99 20.5v-128q27 0 50-10t40.5-27.5q17.5-17.5 27.5-40.5t10-50q0-27-10-50t-27.5-40.5Q1865 1684 1842 1674t-50-10h-293l162 163-90 90-317-317 317-317 90 90-162 163z"/></svg>