<svg xmlns="http://www.w3.org/2000/svg" viewBox="0 0 2048 2048"><path d="M2048 1792h-227q48 53 73.5 118.5T1920 2048h-128q0-53-20-99.5t-55-81.5q-35-35-81.5-55t-99.5-20q-53 0-99.5 20t-81.5 55q-35 35-55 81.5t-20 99.5h-128q0-53-20-99.5t-55-81.5q-35-35-81.5-55t-99.5-20q-53 0-99.5 20t-81.5 55q-35 35-55 81.5t-20 99.5H512q0-52 14-102t39.5-93.5Q591 1809 628 1773t83-61q-34-35-52.5-81t-18.5-95q0-69 34.5-127.5T768 1316v-292q0-30 13.5-57t37.5-45q-55-73-135.5-113.5T512 768q-80 0-149.5 30t-122 82.5Q188 933 158 1003t-30 149H0q0-73 20-141.5T77.5 882Q115 822 168 774t118-81q-75-54-116.5-135.5T128 384q0-79 30-149t82.5-122.5Q293 60 362.5 30T512 0q79 0 149 30t122.5 82.5Q836 165 866 235t30 149q0 93-41.5 174.5T738 694q68 34 123.5 85T955 896h357q31 0 54-9.5t43.5-23.5q20.5-14 41-31t46-31q25.5-14 58-23.5t77.5-9.5h288q27 0 50 10t40.5 27.5Q2028 823 2038 846t10 50v896M512 640q53 0 99.5-20t81.5-55q35-35 55-81.5t20-99.5q0-53-20-99.5T693 203q-35-35-81.5-55T512 128q-53 0-99.5 20T331 203q-35 35-55 81.5T256 384q0 53 20 99.5t55 81.5q35 35 81.5 55t99.5 20m384 1024q27 0 50-10t40.5-27.5q17.5-17.5 27.5-40.5t10-50q0-27-10-50t-27.5-40.5Q969 1428 946 1418t-50-10q-27 0-50 10t-40.5 27.5Q788 1463 778 1486t-10 50q0 27 10 50t27.5 40.5Q823 1644 846 1654t50 10m640 0q27 0 50-10t40.5-27.5q17.5-17.5 27.5-40.5t10-50q0-27-10-50t-27.5-40.5Q1609 1428 1586 1418t-50-10q-27 0-50 10t-40.5 27.5Q1428 1463 1418 1486t-10 50q0 27 10 50t27.5 40.5q17.5 17.5 40.5 27.5t50 10m384-512h-288q-45 0-78-9.5t-58-23.5q-25-14-45.5-31t-41-31q-20.5-14-43.5-23.5t-54-9.5H896v256q53 0 99.5 20t81.5 55q35 35 55 81.5t20 99.5q0 49-18.5 95t-52.5 81q83 46 135 124 52-78 135-124-34-35-52.5-81t-18.5-95q0-53 20-99.5t55-81.5q35-35 81.5-55t99.5-20q53 0 99.5 20t81.5 55q35 35 55 81.5t20 99.5q0 34-9.5 66.5T1756 1664h164v-512m0-256h-288q-23 0-41 5t-34 13.5q-16 8.5-31.5 20T1494 960q16 14 31.5 25.5t31.5 20q16 8.5 34 13.5t41 5h288V896z"/></svg>