<svg xmlns="http://www.w3.org/2000/svg" viewBox="0 0 2048 2048"><path d="M2048 1317v219h-128v-165l-109-110 3-3q-40 22-89 22-44 0-81-18l-108 109v165h-128v-219l145-144-3-7-251-562-408 421q2 16 3.5 31.5t1.5 31.5v832h128v128H0v-128h128v-832q0-76 28-143.5t76.5-119Q281 774 346.5 742T488 705l608-627q36-38 84-58t100-20q35 0 70.5 10.5t67 30q31.5 19.5 56.5 46t40 59.5l384 858q9 20 13 41t4 42q0 24-5.5 47.5T1893 1179l8-8 147 146M768 1920v-832q0-53-20-99.5T693 907q-35-35-81.5-55T512 832q-53 0-99.5 20T331 907q-35 35-55 81.5t-20 99.5v832h512M644 727q62 23 113 65t85 99l530-546q36-38 36-89 0-27-10-50t-27.5-40.5Q1353 148 1330 138t-50-10q-55 0-92 39L644 727m845-324q-18 29-44.5 53.5T1395 505l197 441 117-50-220-493m236 749q29 0 46-19t17-46q0-20-9.5-38.5T1761 1013l-117 50q6 15 12 31t15 29q9 13 21.5 21t32.5 8M512 1024q27 0 50 10t40.5 27.5Q620 1079 630 1102t10 50q0 27-10 50t-27.5 40.5Q585 1260 562 1270t-50 10q-27 0-50-10t-40.5-27.5Q404 1225 394 1202t-10-50q0-27 10-50t27.5-40.5Q439 1044 462 1034t50-10z"/></svg>