<svg xmlns="http://www.w3.org/2000/svg" viewBox="0 0 2048 2048"><path d="M2048 256q0 67-20 120.5T1972 485l-516 775q39 62 59.5 132.5T1536 1536q0 106-40 199.5t-109.5 163q-69.5 69.5-163 109.5t-199.5 40q-106 0-199.5-40t-163-109.5Q592 1829 552 1735.5T512 1536q0-73 20.5-143.5T592 1260L76 485q-36-55-56-108.5T0 256q0-53 20-99.5T75 75q35-35 81.5-55T256 0h1536q53 0 99.5 20t81.5 55q35 35 55 81.5t20 99.5m-472-128H472l170 256h764l170-256M728 512l296 445 296-445H728M128 256q0 46 14 82t39 74l498 746q51-47 112.5-78.5T922 1034L318 128h-62q-27 0-50 10t-40.5 27.5Q148 183 138 206t-10 50m896 1664q79 0 149-30t122.5-82.5q52.5-52.5 82.5-122t30-149.5q0-79-30-149t-82.5-122.5Q1243 1212 1173 1182t-149-30q-80 0-149.5 30t-122 82.5Q700 1317 670 1387t-30 149q0 80 30 149.5t82.5 122q52.5 52.5 122 82.5t149.5 30m844-1510q25-34 38.5-73t13.5-81q0-27-10-50t-27.5-40.5Q1865 148 1842 138t-50-10h-62l-604 906q69 14 130.5 45.5T1369 1158l499-747v-1z"/></svg>