<svg xmlns="http://www.w3.org/2000/svg" viewBox="0 0 2048 2048"><path d="M1728 640q66 0 124 25.5t101.5 69q43.5 43.5 69 101.5t25.5 124q0 57-19 109t-53 93.5q-34 41.5-81 70.5t-103 41v102q0 89-22 173.5t-62.5 159.5q-40.5 75-98 137t-129 107q-71.5 45-154.5 70t-174 25q-91 0-174-25t-154.5-70q-71.5-45-129-107t-98-137q-40.5-75-62.5-159.5T512 1376v-229q-123-11-218.5-59T133 962q-65-78-99-181T0 558V0h320q26 0 45 19t19 45q0 26-19 45t-45 19H128v430q0 106 29.5 192T244 897q57 61 140.5 94t191.5 33q101 0 184-31t141.5-89Q960 846 992 763.5t32-184.5V128H832q-26 0-45-19t-19-45q0-26 19-45t45-19h320v558q0 120-34 223t-99 181q-65 78-160.5 126T640 1147v229q0 107 38.5 205.5t107 173.5q68.5 75 162 120t204.5 45q111 0 204.5-45t162-120q68.5-75 107-173.5T1664 1376v-102q-56-12-103-41t-81-70.5q-34-41.5-53-93.5t-19-109q0-66 25-124t68.5-101.5q43.5-43.5 102-69T1728 640m0 512q40 0 75-15t61-41q26-26 41-61t15-75q0-40-15-75t-41-61q-26-26-61-41t-75-15q-40 0-75 15t-61 41q-26 26-41 61t-15 75q0 40 15 75t41 61q26 26 61 41t75 15z"/></svg>