<svg xmlns="http://www.w3.org/2000/svg" viewBox="0 0 2048 2048"><path d="M256 384h128v128H256V384m0 256h128v128H256V640m896-256h128v128h-128V384m731 896h-310l155-154 155 154m-475-320q0-26 19-45t45-19q26 0 45 19t19 45q0 26-19 45t-45 19q-26 0-45-19t-19-45m640-320v896h-128V768H640v549l320-319 448 447 128-128v182l-37 37h-182l-357-358-320 321v165h640v128H512v-640H0V0h1536v640h512m-640 0V128h-128v128h-128V128H384v128H256V128H128v896h128V896h128v128h128V640h896m384 1024h256v128h-256v256h-128v-256h-256v-128h256v-256h128v256z"/></svg>