<svg xmlns="http://www.w3.org/2000/svg" viewBox="0 0 2048 2048"><path d="M1600 512q93 0 174.5 35.5t142 96q60.5 60.5 96 142T2048 960q0 93-35.5 174.5t-96 142q-60.5 60.5-142 96T1600 1408H448q-93 0-174.5-35.5t-142-96q-60.5-60.5-96-142T0 960q0-93 35.5-174.5t96-142q60.5-60.5 142-96T448 512q93 0 174.5 35.5t142 96q60.5 60.5 96 142T896 960q0 21-4.5 50.5t-12.5 61q-8 31.5-20 64t-27 61q-15 28.5-33 50.5t-38 33h526q-20-11-38-33t-33-50.5q-15-28.5-27-61t-20-64q-8-31.5-12.5-60.5t-4.5-51q0-93 35.5-174.5t96-142q60.5-60.5 142-96T1600 512M128 960q0 66 25.5 124t69 101.5q43.5 43.5 101.5 69t124 25.5q66 0 124-25.5t101.5-69q43.5-43.5 69-101.5T768 960q0-66-25.5-124t-69-101.5Q630 691 572 665.5T448 640q-66 0-124 25.5t-101.5 69Q179 778 153.5 836T128 960m1472 320q66 0 124-25.5t101.5-69q43.5-43.5 69-101.5t25.5-124q0-66-25.5-124t-69-101.5q-43.5-43.5-101.5-69T1600 640q-66 0-124 25.5t-101.5 69q-43.5 43.5-69 101.5T1280 960q0 66 25.5 124t69 101.5q43.5 43.5 101.5 69t124 25.5z"/></svg>