<svg xmlns="http://www.w3.org/2000/svg" viewBox="0 0 2048 2048"><path d="M1024 640q0 95 27 185t77 167q50 77 120.5 138.5T1406 1231q15 7 37 15t46 15.5q24 7.5 47 13t39 5.5q18 1 36 1h36q36 0 72.5-.5t72.5-.5v768h-768v-768h216q-92-62-163.5-147T960 946q-45 102-116.5 187T680 1280h216v768H128v-768q36 0 72.5.5t72.5.5h36q18 0 36-1 16 0 39-5.5t47-13q24-7.5 46-15.5t37-15q87-39 157.5-100.5T792 992q50-77 77-167t27-185V347L605 637l-90-90 445-445 445 445-90 90-291-290v293m-768 768v512h512v-512H256m1408 0h-512v512h512v-512z"/></svg>