<svg xmlns="http://www.w3.org/2000/svg" viewBox="0 0 2048 2048"><path d="M704 1536q-40 0-75-15t-61-41q-26-26-41-61t-15-75V192q0-40 15-75t41-61q26-26 61-41t75-15h512q40 0 75 15t61 41q26 26 41 61t15 75v1152q0 40-15 75t-41 61q-26 26-61 41t-75 15H704m-64-192q0 26 19 45t45 19h512q26 0 45-19t19-45V192q0-26-19-45t-45-19H704q-26 0-45 19t-19 45v1152m1024-320v362q0 84-32 158t-87 129q-55 55-129 87t-158 32h-234v128h256v128H640v-128h256v-128H662q-84 0-158-32t-129-87q-55-55-87-129t-32-158v-362h128v362q0 57 22 108t59.5 88.5Q503 1620 554 1642t108 22h596q57 0 108-22t88.5-59.5q37.5-37.5 59.5-88.5t22-108v-362h128z"/></svg>