<svg xmlns="http://www.w3.org/2000/svg" viewBox="0 0 2048 2048"><path d="M1728 1408q66 0 124 25.5t101.5 69q43.5 43.5 69 101.5t25.5 124q0 66-25.5 124.5t-69 102Q1910 1998 1852 2023t-124 25h-256q-57 0-109-19t-93.5-53q-41.5-34-70.5-81t-41-103H890q-12 56-41 103t-70.5 81q-41.5 34-93.5 53t-109 19H320q-66 0-124.5-25t-102-68.5Q50 1911 25 1852.5T0 1728q0-66 25-124t68.5-101.5q43.5-43.5 102-69T320 1408h256q57 0 109 19t93.5 53q41.5 34 70.5 81t41 103h268q12-56 41-103t70.5-81q41.5-34 93.5-53t109-19h256M576 1920q30 0 58.5-9t52.5-26q24-17 42-40.5t28-52.5H576q-26 0-45-19t-19-45q0-26 19-45t45-19h181q-10-29-28-52.5t-42-40.5q-24-17-52.5-26t-58.5-9H320q-40 0-75 15t-61 41q-26 26-41 61t-15 75q0 40 15 75t41 61q26 26 61 41t75 15h256m1152 0q40 0 75-15t61-41q26-26 41-61t15-75q0-40-15-75t-41-61q-26-26-61-41t-75-15h-256q-30 0-58.5 9t-52.5 26q-24 17-42 40.5t-28 52.5h181q26 0 45 19t19 45q0 26-19 45t-45 19h-181q10 29 28 52.5t42 40.5q24 17 52.5 26t58.5 9h256z"/></svg>