<svg xmlns="http://www.w3.org/2000/svg" viewBox="0 0 2048 2048"><path d="M2048 384v1280H128v-256H0V256h1792v128h256m-512 0q0 27 10 50t27.5 40.5Q1591 492 1614 502t50 10V384h-128M128 512q27 0 50-10t40.5-27.5Q236 457 246 434t10-50H128v128m0 512q53 0 99.5 20t81.5 55q35 35 55 81.5t20 99.5h1024q0-53 20-99.5t55-81.5q35-35 81.5-55t99.5-20V640q-53 0-99.5-20t-81.5-55q-35-35-55-81.5t-20-99.5H384q0 53-20 99.5T309 565q-35 35-81.5 55T128 640v384m1536 128q-27 0-50 10t-40.5 27.5Q1556 1207 1546 1230t-10 50h128v-128M128 1280h128q0-27-10-50t-27.5-40.5Q201 1172 178 1162t-50-10v128m1792-768h-128v896H256v128h1664V512M448 896q-26 0-45-19t-19-45q0-26 19-45t45-19q26 0 45 19t19 45q0 26-19 45t-45 19m896 0q-26 0-45-19t-19-45q0-26 19-45t45-19q26 0 45 19t19 45q0 26-19 45t-45 19m-448 256q-53 0-99.5-20t-81.5-55q-35-35-55-81.5T640 896V768q0-53 20-99.5t55-81.5q35-35 81.5-55t99.5-20q53 0 99.5 20t81.5 55q35 35 55 81.5t20 99.5v128q0 53-20 99.5t-55 81.5q-35 35-81.5 55t-99.5 20M768 896q0 27 10 50t27.5 40.5Q823 1004 846 1014t50 10q27 0 50-10t40.5-27.5Q1004 969 1014 946t10-50V768q0-27-10-50t-27.5-40.5Q969 660 946 650t-50-10q-27 0-50 10t-40.5 27.5Q788 695 778 718t-10 50v128z"/></svg>