<svg xmlns="http://www.w3.org/2000/svg" viewBox="0 0 2048 2048"><path d="M256 896q27 0 50 10t40.5 27.5Q364 951 374 974t10 50q0 27-10 50t-27.5 40.5Q329 1132 306 1142t-50 10q-27 0-50-10t-40.5-27.5Q148 1097 138 1074t-10-50q0-27 10-50t27.5-40.5Q183 916 206 906t50-10m768 0q27 0 50 10t40.5 27.5Q1132 951 1142 974t10 50q0 27-10 50t-27.5 40.5Q1097 1132 1074 1142t-50 10q-27 0-50-10t-40.5-27.5Q916 1097 906 1074t-10-50q0-27 10-50t27.5-40.5Q951 916 974 906t50-10m768 0q27 0 50 10t40.5 27.5Q1900 951 1910 974t10 50q0 27-10 50t-27.5 40.5Q1865 1132 1842 1142t-50 10q-27 0-50-10t-40.5-27.5Q1684 1097 1674 1074t-10-50q0-27 10-50t27.5-40.5Q1719 916 1742 906t50-10z"/></svg>