<svg xmlns="http://www.w3.org/2000/svg" viewBox="0 0 2048 2048"><path d="M1024 1664q27 0 50 10t40.5 27.5q17.5 17.5 27.5 40.5t10 50q0 27-10 50t-27.5 40.5Q1097 1900 1074 1910t-50 10q-27 0-50-10t-40.5-27.5Q916 1865 906 1842t-10-50q0-27 10-50t27.5-40.5Q951 1684 974 1674t50-10m0-768q27 0 50 10t40.5 27.5Q1132 951 1142 974t10 50q0 27-10 50t-27.5 40.5Q1097 1132 1074 1142t-50 10q-27 0-50-10t-40.5-27.5Q916 1097 906 1074t-10-50q0-27 10-50t27.5-40.5Q951 916 974 906t50-10m0-512q-27 0-50-10t-40.5-27.5Q916 329 906 306t-10-50q0-27 10-50t27.5-40.5Q951 148 974 138t50-10q27 0 50 10t40.5 27.5Q1132 183 1142 206t10 50q0 27-10 50t-27.5 40.5Q1097 364 1074 374t-50 10z"/></svg>