<svg xmlns="http://www.w3.org/2000/svg" viewBox="0 0 2048 2048"><path d="M621 1171l256 256-90 90-256-256 90-90M1216 0q115 0 221.5 29.5t199 84q92.5 54.5 168 130t130 168q54.5 92.5 84 199T2048 832q0 146-48 279t-134.5 241q-86.5 108-205.5 184t-261 108q9 74 9 148 0 53-20 99.5t-55 81.5q-35 35-81.5 55t-99.5 20q-159 0-306.5-41T570 1891q-128-75-233-180t-180-233q-75-128-116-275.5T0 896q0-53 20-99.5T75 715q35-35 81.5-55t99.5-20q74 0 148 9 32-142 108-261t184-205.5Q804 96 937 48t279-48m354 569q48 35 105 53t117 18q50 0 98-12-20-68-54-130t-79-116l-187 187m96-278q-54-45-116-79t-130-54q-12 48-12 98 0 60 18 117t53 105l187-187m-371-158q-20-3-39.5-4t-39.5-1q-124 0-239.5 42.5T766 292l450 450 172-172q-53-67-80.5-147.5T1280 256q0-63 15-123M675 382q-53 63-90 136.5T530 673q137 32 263 99t231 161l102-101-451-450m477 1538q27 0 50-10t40.5-27.5q17.5-17.5 27.5-40.5t10-50q0-141-36.5-272T1140 1275.5q-67-113.5-160.5-207T772.5 908Q659 841 528 804.5T256 768q-27 0-50 10t-40.5 27.5Q148 823 138 846t-10 50q0 141 36.5 272T268 1412.5q67 113.5 160.5 207t207 160.5Q749 1847 880 1883.5t272 36.5m-37-896q94 105 161 231t99 263q81-18 154.5-55t136.5-90l-450-451-101 102m641 258q79-95 121.5-210.5T1920 832q0-20-1-39.5t-4-39.5q-60 15-123 15-86 0-166.5-27.5T1478 660l-172 172 450 450z"/></svg>