<svg xmlns="http://www.w3.org/2000/svg" viewBox="0 0 2048 2048"><path d="M1260 698q0 149-23.5 293.5T1166 1279q-23 71-44.5 140t-46 134.5Q1051 1619 1021 1680t-70 116q-40 55-93 104.5T734 1991q-45 26-94 41.5T539 2048q-56 0-97-18.5t-68-51.5q-27-33-40.5-77.5T320 1803q0-67 26-139t68-139q42-67 96-123t110-91q7-4 13-6.5t14-2.5q5 0 22 6.5t39.5 17q22.5 10.5 48.5 23t49.5 24q23.5 11.5 42.5 21t28 13.5q14 6 27.5 9.5t27.5 8.5l4-8-52-40q-26-20-51-42-136-117-222-257T489 762q-13-65-22.5-130T457 501q0-14 .5-27.5T459 446q3-47 14-98.5t30-101q19-49.5 46.5-94T614 74q37-34 83-54T799 0q45 0 88 13.5T969 50q72 42 125.5 110t89.5 148.5q36 80.5 54.5 167.5t20.5 166q1 14 1 28v28m503-112q22 0 36 10t21.5 25q7.5 15 10.5 34t3 37q0 81-32 168.5t-80.5 172.5q-48.5 85-105 162T1512 1333q-35 44-76 78.5t-95 52.5l3 7h90q-10 68-22.5 128.5t-33.5 117q-21 56.5-53.5 109T1243 1929q-9 9-22 20t-27.5 20.5q-14.5 9.5-30 16t-28.5 6.5q-22 0-36-12.5t-21.5-31q-7.5-18.5-10.5-39.5t-3-38q0-35 14.5-92t37.5-125.5q23-68.5 51.5-142t56.5-142q28-68.5 52.5-126.5t39.5-94q45-106 97-208.5T1539 750q29-34 62.5-65.5T1669 624q17-14 44.5-26t49.5-12z"/></svg>