<svg xmlns="http://www.w3.org/2000/svg" viewBox="0 0 2048 2048"><path d="M1152 0q0 104 46 186.5T1321 335q99 86 157 193t58 240h-128q0-104-46-186.5T1239 433q-24-20-45.5-42t-41.5-46v1415q0 9-3 21.5t-7 25.5q-4 13-9.5 25t-9.5 20q-25 48-64 85t-86 61.5q-47 24.5-100 37T768 2048q-68 0-136.5-22T508 1963q-55-41-89.5-100.5T384 1728q0-75 34.5-134.5T508 1493q55-41 123.5-63t136.5-22q69 0 135 20.5t121 62.5V0h128M768 1920q41 0 86-12t83-36q38-24 62.5-60t24.5-84q0-48-24.5-84t-62.5-60q-38-24-83-36t-86-12q-41 0-86 12t-83 36q-38 24-62.5 60t-24.5 84q0 48 24.5 84t62.5 60q38 24 83 36t86 12z"/></svg>