<svg xmlns="http://www.w3.org/2000/svg" viewBox="0 0 2048 2048"><path d="M1792 1408q0 62-29.5 109.5t-76 80Q1640 1630 1583 1647t-111 17q-54 0-111-17t-103.5-49.5q-46.5-32.5-76-80T1152 1408q0-61 29.5-109t76-80.5Q1304 1186 1361 1169t111-17q51 0 100 12.5t92 38.5V226L768 450v1214q0 62-29.5 109.5t-76 80Q616 1886 559 1903t-111 17q-54 0-111-17t-103.5-49.5q-46.5-32.5-76-80T128 1664q0-61 29.5-109t76-80.5Q280 1442 337 1425t111-17q51 0 100 12.5t92 38.5V350L1792 62v1346M448 1792q27 0 60-8t62.5-23.5Q600 1745 620 1721t20-57q0-33-20-57t-49.5-39.5Q541 1552 508 1544t-60-8q-27 0-60 8t-62.5 23.5Q296 1583 276 1607t-20 57q0 33 20 57t49.5 39.5Q355 1776 388 1784t60 8m1024-256q27 0 60-8t62.5-23.5q29.5-15.5 49.5-39.5t20-57q0-33-20-57t-49.5-39.5Q1565 1296 1532 1288t-60-8q-27 0-60 8t-62.5 23.5Q1320 1327 1300 1351t-20 57q0 33 20 57t49.5 39.5q29.5 15.5 62.5 23.5t60 8z"/></svg>