<svg xmlns="http://www.w3.org/2000/svg" viewBox="0 0 2048 2048"><path d="M608 256q45 0 77.5 9.5t58 23.5q25.5 14 45.5 31t40.5 31q20.5 14 44 23.5T928 384h992q27 0 50 10t40.5 27.5Q2028 439 2038 462t10 50v896h-128V512H928q-31 0-54.5 9.5t-44 23.5Q809 559 789 576t-45.5 31q-25.5 14-58 23.5T608 640H128v1024h1024v128H0V384q0-27 10-50t27.5-40.5Q55 276 78 266t50-10h480m0 256q24 0 42-4.5t33-13q15-8.5 29.5-20T744 448q-17-15-31.5-26.5t-29.5-20q-15-8.5-33-13t-42-4.5H128v128h480m1184 1152h256v128h-256v256h-128v-256h-256v-128h256v-256h128v256m-339-723l-429 430-429-430 90-90 339 338 339-338 90 90z"/></svg>