<svg xmlns="http://www.w3.org/2000/svg" viewBox="0 0 2048 2048"><path d="M1792 0q27 0 50 10t40.5 27.5Q1900 55 1910 78t10 50v992q0 31 9.5 54.5t23.5 44q14 20.5 31 40.5t31 45.5q14 25.5 23.5 58t9.5 77.5v480q0 27-10 50t-27.5 40.5Q1993 2028 1970 2038t-50 10H768v-128h896v-480q0-45 9.5-77.5t23.5-58q14-25.5 31-45.5t31-40.5q14-20.5 23.5-44t9.5-54.5V128H512v768H384V0h1408m128 1440q0-24-4.5-42t-13-33q-8.5-15-20-29.5T1856 1304q-15 17-26.5 31.5t-20 29.5q-8.5 15-13 33t-4.5 42v480h128v-480M896 1664H512v384H384v-384H0v-128h384v-384h128v384h384v128z"/></svg>