<svg xmlns="http://www.w3.org/2000/svg" viewBox="0 0 2048 2048"><path d="M2048 512v896q0 53-20.5 99.5t-55 81q-34.5 34.5-81.5 55t-99 20.5H249q-51 0-96.5-20t-79-53.5Q40 1557 20 1511.5T0 1415V256h1792v256h256m-128 128h-128v704q0 26-19 45t-45 19q-26 0-45-19t-19-45V384H128v1031q0 25 9.5 47t26 38.5q16.5 16.5 38.5 26t47 9.5h1543q27 0 50-10t40.5-27.5q17.5-17.5 27.5-40.5t10-50V640m-384 0H256V512h1280v128m0 768h-512v-128h512v128m0-256h-512v-128h512v128m0-256h-512V768h512v128m-640 512H256V765h640v643m-512-128h384V893H384v387z"/></svg>