<svg xmlns="http://www.w3.org/2000/svg" viewBox="0 0 2048 2048"><path d="M1600 992q-102 0-192.5 32t-166.5 88l-189-124-660 1001q-20 29-54 29-18 0-35-11-28-19-28-53 0-19 10-35L946 917 619 702l-20 31q-19 28-47.5 42.5T491 790q-38 0-69-21-28-19-43-47.5T364 661q0-37 21-69L738 57q19-28 47-42.5T845 0q37 0 70 21 28 19 43 47.5t15 60.5q0 38-21 69l-21 31 748 493 20-30q19-28 47.5-43t60.5-15q37 0 70 21 28 19 42.5 47.5T1934 763q0 37-21 70l-126 191q-45-14-91.5-23t-95.5-9m317 291q63 64 97 145t34 172q0 91-34 172t-97 144q-64 64-145 98t-172 34q-91 0-172-34t-144-97q-64-64-98-145t-34-172q0-91 34-172t97-144q64-64 145-98t172-34q91 0 172 34t145 97m-637 317q0 66 25 124.5t68.5 102q43.5 43.5 102 68.5t124.5 25q49 0 93.5-14t82.5-39l-443-443q-25 38-39 82.5t-14 93.5m587 176q25-38 39-82.5t14-93.5q0-66-25.5-124t-69-101.5q-43.5-43.5-101.5-69t-124-25.5q-49 0-93.5 14t-82.5 39l443 443z"/></svg>