<svg xmlns="http://www.w3.org/2000/svg" viewBox="0 0 2048 2048"><path d="M640 1674l388-271q-15 44-23.5 89t-10.5 91l-482 337V128l1278 897q-46-15-93.5-24t-96.5-9q-17 0-33.5 2.5T1533 999L640 374v1300m960-522q93 0 174.5 35t142.5 96q61 61 96 142.5t35 174.5q0 93-35 174.5t-96 142.5q-61 61-142.5 96t-174.5 35q-93 0-174.5-35t-142.5-96q-61-61-96-142.5t-35-174.5q0-93 35-174.5t96-142.5q61-61 142.5-96t174.5-35m-320 448q0 66 25 124.5t68.5 102q43.5 43.5 102 68.5t124.5 25q47 0 92-13.5t84-39.5l-443-443q-26 39-39.5 84t-13.5 92m587 176q26-39 39.5-84t13.5-92q0-66-25.5-124t-69-101.5q-43.5-43.5-101.5-69t-124-25.5q-47 0-92 13.5t-84 39.5l443 443z"/></svg>