<svg xmlns="http://www.w3.org/2000/svg" viewBox="0 0 2048 2048"><path d="M2048 384v128H512V384h1536M512 896h1536v128H512V896m0 512h1536v128H512v-128M135 349q-14 11-37.5 21.5T55 381v-69q31-11 59-24t54-33h49v385h-82V349m-1 420q25 0 47.5 6.5t39 20q16.5 13.5 26 33.5t9.5 47q0 31-12 54.5t-29.5 42q-17.5 18.5-38.5 33t-38.5 27q-17.5 12.5-29.5 25T96 1083h160v69H5q0-23 .5-41t9.5-39q15-34 41-57.5t51.5-43.5q25.5-20 44.5-40t19-47q0-27-15-38t-40-11q-26 0-49.5 11T23 874v-73q50-32 111-32m36 699q36 5 61 27t25 61q0 31-12.5 53t-32.5 35.5q-20 13.5-46.5 20T111 1671q-24 0-48.5-4T16 1652v-73q19 14 41.5 21t46.5 7q26 0 46.5-11t20.5-41q0-22-13-32.5t-31.5-15Q108 1503 88 1503H54v-64h32q18 0 34.5-3.5t28-13.5q11.5-10 11.5-31 0-26-16.5-36t-39.5-10q-39 0-74 24v-68q22-11 45.5-15.5t47.5-4.5q22 0 44 5t39 16.5q17 11.5 28 29.5t11 43q0 38-19.5 60.5T170 1467v1z"/></svg>