<svg xmlns="http://www.w3.org/2000/svg" viewBox="0 0 2048 2048"><path d="M1024 1280H640v-75q0-38 14-73 11-28 33.5-54.5T737 1025q27-26 55-50.5t51.5-48.5q23.5-24 38-47.5T896 832q0-26-19-45t-45-19q-23 0-40.5 14T769 819l-125-26q6-33 23.5-61t43.5-48.5q26-20.5 57-32t64-11.5q40 0 75 15t61 41q26 26 41 61t15 75q0 39-11.5 70.5t-30.5 58q-19 26.5-44 50.5t-51 46.5q-26 22.5-51.5 45.5t-46.5 49h235v128M2048 256v1408H0V256h2048m-128 128H128v1152h1792V384M397 787q-29 17-68 31t-73 14V704q11 0 31-6t40-15.5q20-9.5 36.5-20.5t21.5-22h127v640H397V787m923 493q-42 0-81.5-14t-74.5-37v-127q20 15 35.5 26t31.5 18q16 7 34.5 10t44.5 3q22 0 42-4.5t35.5-15q15.5-10.5 24.5-27.5t9-42q0-31-24-44.5t-56-17.5q-32-4-65.5-2.5t-52.5 1.5v-97h58q31 0 58-7.5t45-26q18-18.5 18-56.5 0-42-25.5-56t-63.5-14q-40 0-69 18t-58 43V681q34-23 76-32t82-9q36 0 70 10t60.5 29.5q26.5 19.5 42.5 49t16 68.5q0 48-19.5 85.5T1452 943q44 15 72 53t28 85q0 47-20 84t-52.5 62.5q-32.5 25.5-74.5 39t-85 13.5z"/></svg>