<svg xmlns="http://www.w3.org/2000/svg" viewBox="0 0 2048 2048"><path d="M64 263L1216 56v1936L64 1791V263m425 393H331l220 759h164l190-774H747q-29 140-57 279t-59 279q-35-138-70.5-274T489 651v5m1015 688q-66 0-124-29t-100-80V877q42-51 100-80t124-29q60 0 112.5 22.5T1708 852q39 39 61.5 91.5T1792 1056q0 60-22.5 112.5T1708 1260q-39 39-91.5 61.5T1504 1344m-96-141l240-147-240-147v294m512-691q27 0 50 10t40.5 27.5Q2028 567 2038 590t10 50v832q0 27-10 50t-27.5 40.5Q1993 1580 1970 1590t-50 10h-640v-128h640V640h-640V512h640z"/></svg>