<svg xmlns="http://www.w3.org/2000/svg" viewBox="0 0 2048 2048"><path d="M960 768q-69 0-137.5-6T686 743q-34-7-79.5-18.5t-93-29.5q-47.5-18-94-42T337 598.5q-36-30.5-58.5-68T256 448q0-45 22.5-82.5t58.5-68q36-30.5 82.5-54.5t94-42q47.5-18 93-29.5T686 153q68-13 136.5-19t137.5-6q69 0 137.5 6t136.5 19q34 7 79.5 18.5t93 29.5q47.5 18 94 42t82.5 54.5q36 30.5 58.5 68T1664 448q0 45-22.5 82.5t-58.5 68q-36 30.5-82.5 54.5t-94 42q-47.5 18-93 30t-79.5 18q-68 13-136.5 19T960 768m0 128q45 0 100.5-3t115-10q59.5-7 120-18.5t117-28.5q56.5-17 105.5-40t86-53q13-11 21.5-21.5T1645 699q2-2 9-6.5t10-6.5v146q0 46-23 83.5t-60.5 68.5q-37.5 31-85 55t-96 42q-48.5 18-95 30t-80.5 18q-66 12-132 17.5t-132 5.5q-66 0-132-5.5T696 1129q-34-6-80.5-18t-95-30q-48.5-18-96-42t-85-55Q302 953 279 915.5T256 832V686q3 2 10 6.5t9 6.5q11 12 19.5 22.5T316 743q36 30 85.5 53t106 40q56.5 17 117 28.5t120 18.5q59.5 7 114.5 10t101 3m0 384q45 0 100.5-3t115-10q59.5-7 120-18.5t117-28.5q56.5-17 105.5-40t86-53q13-11 21.5-21.5t19.5-22.5q2-2 9-6.5t10-6.5v146q0 46-23 83.5t-60.5 68.5q-37.5 31-85 55t-96 42q-48.5 18-95 30t-80.5 18q-66 12-132 17.5t-132 5.5q-66 0-132-5.5T696 1513q-34-7-80.5-18.5t-95-29.5q-48.5-18-96-42t-85-55q-37.5-31-60.5-68.5t-23-83.5v-146q3 2 10 6.5t9 6.5q11 12 19.5 22.5T316 1127q36 30 85.5 53t106 40q56.5 17 117 28.5t120 18.5q59.5 7 114.5 10t101 3m0 384q45 0 100.5-3t115-10q59.5-7 120-18.5t117-28.5q56.5-17 105.5-40t86-53q13-11 21.5-21.5t19.5-22.5q2-2 9-6.5t10-6.5v146q0 46-23 83.5t-60.5 68.5q-37.5 31-85 55t-96 42q-48.5 18-95 30t-80.5 18q-66 12-132 17.5t-132 5.5q-66 0-132-5.5T696 1897q-34-6-80.5-18t-95-30q-48.5-18-96-42t-85-55q-37.5-31-60.5-68.5t-23-83.5v-146q3 2 10 6.5t9 6.5q11 12 19.5 22.5T316 1511q36 30 85.5 53t106 40q56.5 17 117 28.5t120 18.5q59.5 7 114.5 10t101 3z"/></svg>