<svg xmlns="http://www.w3.org/2000/svg" viewBox="0 0 2048 2048"><path d="M1894 832q13 0 19.5 12.5t6.5 23.5v248q0 11-6.5 23.5T1894 1152h-38V832h38m0 384q13 0 19.5 12.5t6.5 23.5v248q0 11-6.5 23.5T1894 1536h-38v-320h38M128 307l1024-173v1780L128 1741V307m285 1035l102 5V896q0-6 2-11t2-10q1 4 5 5.5t6 5.5q5 11 10.5 22t11.5 22l234 432 136 8V660l-127 8v451q0 7 1 14.5t3 14.5h-2q-60-119-125-233.5T543 683l-130 5v654m1507-595q0 13-3 17t-17 4h-108v909q0 7-2.5 16t-7 16.5q-4.5 7.5-11 13t-14.5 5.5h-541v-192h384v-64h-384v-128h384v-64h-384v-128h384v-64h-384V960h384v-64h-384V768h384v-64h-384V576h384v-64h-384V320h541q20 0 27.5 17t7.5 34v77h108q14 0 17 3.5t3 17.5v278z"/></svg>