<svg xmlns="http://www.w3.org/2000/svg" viewBox="0 0 2048 2048"><path d="M1984 384v384q0 16-8 32 8 16 8 32v384q0 16-8 32 8 16 8 32v384q0 28-13 41.5t-32.5 18.5q-19.5 5-42 4.5t-40.5-.5q0 26-19 45t-45 19h-576v200L64 1791V263L1216 56v200h576q26 0 45 19t19 45q18 0 40.5-.5t42 4.5q19.5 5 32.5 18.5t13 41.5M897 1397V631l-144 8q0 129-.5 257t.5 257L467 655l-146 5v706l115 6V854l307 534 154 9m1023 267v-384h-64v384h64m0-448V832h-64v384h64m0-448V384h-128v-64h-576v192h384v64h-384v128h384v64h-384v128h384v64h-384v128h384v64h-384v128h384v64h-384v128h384v64h-384v192h576V768h128z"/></svg>