<svg xmlns="http://www.w3.org/2000/svg" viewBox="0 0 2048 2048"><path d="M1792 704q0 58-19.5 110t-54.5 94q-35 42-83 71t-105 39q-11 57-39.5 105t-70.5 83q-42 35-94 54.5t-110 19.5H832q-32 0-61 10t-53 28q-24 18-42 43.5t-27 55.5q54 13 99.5 42.5t78 70.5q32.5 41 51 92t18.5 106q0 66-25.5 124.5t-69 102Q758 1998 700 2023t-124 25q-66 0-124.5-25t-102-68.5q-43.5-43.5-68.5-102T256 1728q0-57 19-109t53-93.5q34-41.5 81-70.5t103-40V633q-56-11-103-40t-81-70.5Q294 481 275 429t-19-109q0-66 25-124t68.5-101.5q43.5-43.5 102-69T576 0q66 0 124 25.5t101.5 69Q845 138 870.5 196T896 320q0 57-19 109t-53 93.5Q790 564 743 593t-103 40v585q42-32 91-49t101-17h384q32 0 61-10t53-28q24-18 42-43.5t27-55.5q-54-13-99.5-42t-78-70.5q-32.5-41.5-51-92T1152 704q0-66 25-124t68.5-101.5q43.5-43.5 102-69T1472 384q66 0 124 25.5t101.5 69q43.5 43.5 69 101.5t25.5 124M384 320q0 40 15 75t41 61q26 26 61 41t75 15q40 0 75-15t61-41q26-26 41-61t15-75q0-40-15-75t-41-61q-26-26-61-41t-75-15q-40 0-75 15t-61 41q-26 26-41 61t-15 75m384 1408q0-40-15-75t-41-61q-26-26-61-41t-75-15q-40 0-75 15t-61 41q-26 26-41 61t-15 75q0 40 15 75t41 61q26 26 61 41t75 15q40 0 75-15t61-41q26-26 41-61t15-75m704-832q40 0 75-15t61-41q26-26 41-61t15-75q0-40-15-75t-41-61q-26-26-61-41t-75-15q-40 0-75 15t-61 41q-26 26-41 61t-15 75q0 40 15 75t41 61q26 26 61 41t75 15z"/></svg>