<svg xmlns="http://www.w3.org/2000/svg" viewBox="0 0 2048 2048"><path d="M1029 128q123 0 236.5 32t212.5 90q99 58 180.5 139.5T1798 570q58 99 90 212.5t32 236.5q0 123-32 236.5t-90 212.5q-58 99-139.5 180.5T1478 1788q-99 58-212.5 90t-236.5 32q-123 0-236.5-32T580 1788q-99-58-180.5-139.5T260 1468q-58-99-90-212.5T138 1019q0-123 32-236.5T260 570q58-99 139.5-180.5T580 250q99-58 212.5-90t236.5-32m0 1654q105 0 202.5-27.5t182.5-77q85-49.5 154.5-119t119-154.5q49.5-85 77-182.5T1792 1019q0-105-27.5-202.5t-77-182Q1638 550 1568 480t-154.5-119.5q-84.5-49.5-182-77T1029 256q-105 0-202.5 27.5t-182.5 77q-85 49.5-154.5 119T370.5 634q-49.5 85-77 182.5T266 1019q0 105 27.5 202.5t77 182.5q49.5 85 119 154.5t154.5 119q85 49.5 182.5 77T1029 1782m200-1129l-370 371 370 371-90 90-462-461 462-461 90 90z"/></svg>