<svg xmlns="http://www.w3.org/2000/svg" viewBox="0 0 2048 2048"><path d="M1027 448q121 0 227 37t185 107q79 70 124.5 170t45.5 226q0 66-17.5 137.5t-54 130q-36.5 58.5-93 96.5t-134.5 38q-86 0-124-47t-39-129h-4q-23 79-74.5 127.5T931 1390q-59 0-101.5-23.5t-70-62q-27.5-38.5-40.5-88T706 1114q0-70 18.5-140T781 849q38-55 96.5-89.5T1016 725q23 0 46.5 6t44.5 18q21 12 37 30t24 42v-5q2-20 3.5-40t3.5-40h93l-24 286q-3 32-7 65t-4 65q0 22 2.5 48.5t11.5 50q9 23.5 26.5 39t47.5 15.5q36 0 64-15.5t48.5-40.5q20.5-25 34.5-57.5t23-67q9-34.5 12.5-68.5t3.5-62q0-110-36-196t-100.5-145q-64.5-59-154-90T1021 532q-115 0-208.5 43t-160 116.5Q586 765 550 863t-36 209q0 115 35.5 208.5T651 1440q66 66 159.5 102t208.5 36q81 0 160.5-13t152.5-48v92q-75 32-157 43.5t-163 11.5q-133 0-243-41.5t-189.5-118Q500 1428 456 1319t-44-243q0-135 45-250t126-199q81-84 194-131.5t250-47.5m-78 855q61 0 100-34.5t61-85.5q22-51 30.5-109t8.5-105q0-34-7-63t-22.5-50q-15.5-21-41.5-33t-63-12q-58 0-97 30t-63 75q-24 45-34.5 98.5T810 1115q0 33 7 66.5t23 60.5q16 27 43 44t66 17M0 256h384v128H128v1280h256v128H0V256m2048 0v1536h-384v-128h256V384h-256V256h384z"/></svg>