<svg xmlns="http://www.w3.org/2000/svg" viewBox="0 0 2048 2048"><path d="M1920 832q0 29-10.5 53.5T1882 931q-17 21-39 38t-45 30q-11 7-20.5 9.5T1758 1021l-478 478v453q0 40-28 68t-68 28H736q-40 0-68-28t-28-68v-453l-478-478q-10-10-19.5-12.5T122 999q-23-13-45-30t-39-38q-17-21-27.5-45.5T0 832q0-127 38.5-238t106-203.5Q212 298 304 225.5T502.5 103q106.5-50 223-76.5T960 0q117 0 234 26.5t223.5 76.5Q1524 153 1616 225.5t159.5 165q67.5 92.5 106 203.5t38.5 238M960 128q-99 0-199.5 22t-193 64Q475 256 395 316.5t-139.5 139Q196 534 162 628.5T128 832q0 8 5 15t12.5 14q7.5 7 15 12t12.5 8q46 29 107.5 51T412 970q70 16 144.5 26t147 16.5q72.5 6.5 138 9T960 1024q52 0 118-2.5t138.5-9q72.5-6.5 147-16.5t144.5-26q70-16 131.5-38t107.5-51q5-3 12.5-8t15-12q7.5-7 12.5-14t5-15q0-109-34-203.5t-93.5-173Q1605 377 1525 316.5T1352.5 214q-92.5-42-193-64T960 128m-64 1023q-118-2-236-13.5T426 1103l305 305h165v-257m256 385H768v384h384v-384m342-433q-116 23-234 34.5t-236 13.5v257h165l305-305z"/></svg>