<svg xmlns="http://www.w3.org/2000/svg" viewBox="0 0 2048 2048"><path d="M1339 0q94 14 169.5 55t129 103.5Q1691 221 1720 302t29 176q0 115-38.5 227T1605 916.5q-67 99.5-158 184t-195.5 146q-104.5 61.5-218 96T807 1377l-158 671-296-920q-21-65-38-132t-17-136q0-45 9-86t22-83v-1h1q1-10 9-31.5t18-45q10-23.5 20-44.5t16-32q-8 31-12 62.5t-4 63.5q0 89 30.5 160.5T492 945q54 50 128 77t161 27q89 0 179.5-27.5T1134 945q83-49 155-116.5T1414.5 682q53.5-79 84-167.5T1529 334q0-106-47.5-194.5T1339 0M785 685q-49 0-90.5-15t-72-43q-30.5-28-48-68.5T557 468q0-77 37.5-149.5t98-128.5q60.5-56 136-90T979 66q49 0 91 15t72.5 43.5q30.5 28.5 47.5 69t17 90.5q0 51-17.5 101t-47.5 94.5q-30 44.5-70.5 82t-87.5 65q-47 27.5-98 43T785 685z"/></svg>