<svg xmlns="http://www.w3.org/2000/svg" viewBox="0 0 2048 2048"><path d="M960 0q95 0 188 16t183 48q123 44 230 119t187 174q80 99 126 219.5t46 255.5q0 50-30 88t-69 65q-5 3-14.5 8.5T1787 1004q-10 5-18.5 10t-10.5 7l-478 478v453q0 40-28 68t-68 28H736q-40 0-68-28t-28-68v-453l-478-478q-2-2-10.5-7t-18.5-10q-10-5-19.5-10.5T99 985q-39-27-69-65T0 832q0-135 46-255.5T172 357q80-99 187-174T589 64q90-32 183-48T960 0m-64 1151q-119-2-236.5-13.5T425 1103l306 305h165v-257m293 257l306-305q-117 23-234.5 34.5T1024 1151v257h165z"/></svg>