<svg xmlns="http://www.w3.org/2000/svg" viewBox="0 0 2048 2048"><path d="M2019 1459q29 64 29 133v72q0 76-41 139t-110 94q-31 69-94 110t-139 41q-69 0-128-34t-94-94H734q-35 60-94 94t-128 34q-69 0-128-34t-94-94H128q-27 0-50-10t-40.5-27.5Q20 1865 10 1842t-10-50v-256q0-80 30-150t82-122q52-52 122-82t150-30h37l328-328q27-27 62.5-41.5T885 768h907v128h-29l256 563m-739-563v256h459l-99-219q-8-17-24.5-27t-34.5-10h-301m-395 0q-26 0-45 19l-237 237h549V896H885M512 1920q27 0 50-10t40.5-27.5Q620 1865 630 1842t10-50q0-27-10-50t-27.5-40.5Q585 1684 562 1674t-50-10q-27 0-50 10t-40.5 27.5Q404 1719 394 1742t-10 50q0 27 10 50t27.5 40.5Q439 1900 462 1910t50 10m0-384q53 0 99.5 20t81.5 55q35 35 55 81.5t20 99.5h384v-512H384q-53 0-99.5 20t-81.5 55q-35 35-55 81.5t-20 99.5v256h128q0-53 20-99.5t55-81.5q35-35 81.5-55t99.5-20m1152 384q27 0 50-10t40.5-27.5q17.5-17.5 27.5-40.5t10-50q0-27-10-50t-27.5-40.5Q1737 1684 1714 1674t-50-10q-27 0-50 10t-40.5 27.5Q1556 1719 1546 1742t-10 50q0 27 10 50t27.5 40.5q17.5 17.5 40.5 27.5t50 10m256-328q0-41-17-80l-106-232h-517v512h128q0-53 20-99.5t55-81.5q35-35 81.5-55t99.5-20q42 0 81 13t71 37q32 24 56 57.5t37 73.5q11-27 11-53v-72z"/></svg>