<svg xmlns="http://www.w3.org/2000/svg" viewBox="0 0 2048 2048"><path d="M29 1459q-29 64-29 133v72q0 76 41 139t110 94q31 69 94 110t139 41q69 0 128-34t94-94h708q35 60 94 94t128 34q69 0 128-34t94-94h162q27 0 50-10t40.5-27.5q17.5-17.5 27.5-40.5t10-50v-256q0-80-30-150t-82-122q-52-52-122-82t-150-30h-37l-328-328q-27-27-62.5-41.5T1163 768H256v128h29L29 1459m739-563v256H309l99-219q8-17 24.5-27t34.5-10h301m395 0q26 0 45 19l237 237H896V896h267m373 1024q-27 0-50-10t-40.5-27.5Q1428 1865 1418 1842t-10-50q0-27 10-50t27.5-40.5q17.5-17.5 40.5-27.5t50-10q27 0 50 10t40.5 27.5q17.5 17.5 27.5 40.5t10 50q0 27-10 50t-27.5 40.5Q1609 1900 1586 1910t-50 10m0-384q-53 0-99.5 20t-81.5 55q-35 35-55 81.5t-20 99.5H896v-512h768q53 0 99.5 20t81.5 55q35 35 55 81.5t20 99.5v256h-128q0-53-20-99.5t-55-81.5q-35-35-81.5-55t-99.5-20M384 1920q-27 0-50-10t-40.5-27.5Q276 1865 266 1842t-10-50q0-27 10-50t27.5-40.5Q311 1684 334 1674t50-10q27 0 50 10t40.5 27.5Q492 1719 502 1742t10 50q0 27-10 50t-27.5 40.5Q457 1900 434 1910t-50 10m-256-328q0-41 17-80l106-232h517v512H640q0-53-20-99.5t-55-81.5q-35-35-81.5-55t-99.5-20q-42 0-81 13t-71 37q-32 24-56 57.5t-37 73.5q-11-27-11-53v-72z"/></svg>