<svg xmlns="http://www.w3.org/2000/svg" viewBox="0 0 2048 2048"><path d="M2019 1075q29 64 29 133v72q0 38-10.5 73t-30 65q-19.5 30-47.5 54.5t-62 39.5q-15 35-39.5 63t-55 47.5q-30.5 19.5-66 30.5t-73.5 11q-69 0-128-34t-94-94H734q-35 60-94 94t-128 34q-69 0-128-34t-94-94H128q-27 0-50-10t-40.5-27.5Q20 1481 10 1458t-10-50v-256q0-79 30-149t82.5-122.5Q165 828 234.5 798T384 768h37l328-328q27-27 62.5-41.5T885 384h907v128h-29l256 563M512 1536q27 0 50-10t40.5-27.5Q620 1481 630 1458t10-50q0-27-10-50t-27.5-40.5Q585 1300 562 1290t-50-10q-27 0-50 10t-40.5 27.5Q404 1335 394 1358t-10 50q0 27 10 50t27.5 40.5Q439 1516 462 1526t50 10m640-1024H885q-26 0-45 19L603 768h549V512m128 256h459l-99-219q-8-17-24-27t-35-10h-301v256m384 768q27 0 50-10t40.5-27.5q17.5-17.5 27.5-40.5t10-50q0-27-10-50t-27.5-40.5Q1737 1300 1714 1290t-50-10q-27 0-50 10t-40.5 27.5Q1556 1335 1546 1358t-10 50q0 27 10 50t27.5 40.5q17.5 17.5 40.5 27.5t50 10z"/></svg>