<svg xmlns="http://www.w3.org/2000/svg" viewBox="0 0 2048 2048"><path d="M1761 1036q64 18 116.5 53.5t90.5 84q38 48.5 59 108.5t21 126q0 80-30 149.5t-82.5 122Q1883 1732 1813 1762t-149 30H576q-93 0-174.5-35T259 1661q-61-61-96-142.5T128 1344q0-66 19-128.5t54-116.5q35-54 84.5-96.5T396 934q-12-49-12-102 0-93 35-174.5T515 515q61-61 142.5-96T832 384q64 0 125 18t113.5 51.5q52.5 33.5 95 81T1235 640q90 3 173 33t152.5 82q69.5 52 121.5 124t79 157M832 512q-66 0-124.5 25.5t-102 69Q562 650 537 708t-25 124q0 17 1.5 33.5T520 899q28-3 56-3 38 0 75 6t72 19q29-51 69.5-94.5t88.5-78q48-34.5 102.5-59T1095 653q-44-66-114-103.5T832 512m832 1152q53 0 99.5-20t81.5-55q35-35 55-81.5t20-99.5q0-55-20.5-102t-56.5-81q-36-34-84-53.5t-102-19.5q-12-82-51-152.5t-97.5-122Q1450 826 1375 797t-159-29q-77 0-146.5 25T943 862q-57 44-98.5 106T784 1103q-44-38-97-58.5T576 1024q-66 0-124.5 25t-102 68.5q-43.5 43.5-68.5 102T256 1344q0 66 25 124.5t68.5 102q43.5 43.5 102 68.5t124.5 25h1088M256 896H0V768h256v128m123-426L198 289l91-91 181 181-91 91m517-214H768V0h128v256m389 214l-91-91 181-181 91 91-181 181z"/></svg>