<svg xmlns="http://www.w3.org/2000/svg" viewBox="0 0 2048 2048"><path d="M1761 1036q63 18 116 53.5t91 84q38 48.5 59 108.5t21 126q0 79-30.5 149t-82.5 122q-52 52-122 82.5t-149 30.5H576q-93 0-174.5-35T259 1661q-61-61-96-142.5T128 1344q0-78 25-149.5t74-131.5q-81-54-136.5-134T14 754q58 14 114 14 106 0 199.5-40t163-109.5Q560 549 600 455.5T640 256q0-56-14-114 87 20 160 67t126 113q53 66 82.5 147.5T1024 640q0 8-1 17t-2 17l4-1q48-15 94-24t97-9q93 0 179 28.5t157.5 81Q1624 802 1678 875t83 161M761 348q-15 105-62 197T580.5 708.5Q509 780 417 827t-197 62q43 52 104 84 57-38 120-57.5T576 896q38 0 75 6t72 19q29-52 69.5-93.5T879 749q17-54 17-109 0-85-35-161T761 348m903 1316q53 0 99.5-20t81.5-55q35-35 55-81.5t20-99.5q0-55-20.5-102t-56.5-81.5q-36-34.5-84-53.5t-102-19q-12-82-51-152.5t-98-122q-59-51.5-134-80.5t-158-29q-77 0-146.5 24.5t-126.5 69q-57 44.5-98.5 106T784 1103q-44-38-97-58.5T576 1024q-66 0-124.5 25t-102 68.5q-43.5 43.5-68.5 102T256 1344q0 66 25 124.5t68.5 102q43.5 43.5 102 68.5t124.5 25h1088z"/></svg>