<svg xmlns="http://www.w3.org/2000/svg" viewBox="0 0 2048 2048"><path d="M1280 512q0 66-16.5 129T1216 760.5q-31 56.5-76 104T1039 946q119 47 218 129l-82 98q-88-72-190.5-110.5T768 1024q-88 0-170 23t-153 64.5q-71 41.5-129.5 100t-100 129.5q-41.5 71-64.5 153t-23 170H0q0-117 35.5-229t101-207.5q65.5-95.5 157-169T496 946q-56-36-100.5-83T320 760q-31-56-47.5-118.5T256 512q0-106 40-199.5t109.5-163Q475 80 568.5 40T768 0q106 0 199.5 40t163 109.5q69.5 69.5 109.5 163t40 199.5M768 896q79 0 149-30t122.5-82.5q52.5-52.5 82.5-122t30-149.5q0-79-30-149t-82.5-122.5Q987 188 917 158t-149-30q-80 0-149.5 30t-122 82.5Q444 293 414 363t-30 149q0 80 30 149.5t82.5 122Q549 836 618.5 866T768 896m1216 448q0 52-16.5 101t-47.5 91v512l-256-128-256 128v-512q-31-42-47.5-91t-16.5-101q0-66 25-124t68.5-101.5q43.5-43.5 102-69T1664 1024q66 0 124 25.5t101.5 69q43.5 43.5 69 101.5t25.5 124m-320-192q-40 0-75 15t-61 41q-26 26-41 61t-15 75q0 40 15 75t41 61q26 26 61 41t75 15q40 0 75-15t61-41q26-26 41-61t15-75q0-40-15-75t-41-61q-26-26-61-41t-75-15m0 625q32 17 64 32.5t64 31.5v-204q-60 27-128 27t-128-27v204q32-16 64-31.5t64-32.5z"/></svg>