<svg xmlns="http://www.w3.org/2000/svg" viewBox="0 0 2048 2048"><path d="M1344 1510l339-339 90 90-429 429-237-237 90-90 147 147m704-742v1280H768v-781q-61 13-128 13-133 0-249.5-50T187 1093q-87-87-137-203.5T0 640q0-133 50-249.5T187 187q87-87 203.5-137T640 0q133 0 249.5 50T1093 187q87 87 137 203.5t50 249.5q0 67-13 128h781M128 640q0 106 40.5 199t110 162.5q69.5 69.5 162.5 110t199 40.5q106 0 199-40.5t162.5-110q69.5-69.5 110-162.5t40.5-199q0-106-40.5-199t-110-162.5Q932 209 839 168.5T640 128q-106 0-199 40.5t-162.5 110Q209 348 168.5 441T128 640m1792 256h-693q-51 113-134.5 196.5T896 1227v693h1024V896m-915-403L576 922 339 685l90-90 147 147 339-339 90 90z"/></svg>