<svg xmlns="http://www.w3.org/2000/svg" viewBox="0 0 2048 2048"><path d="M2048 336q0 66-25 127.5T1950 573L633 1890 0 2048l158-633L1475 98q48-48 109.5-73T1712 0q70 0 131 26.5t106.5 72q45.5 45.5 72 106.5t26.5 131m-128 0q0-43-16.5-81t-44.5-66q-28-28-66-44.5t-81-16.5q-38 0-66.5 10.5t-53 28.5q-24.5 18-46.5 41t-47 48l293 293q25-25 48-47t41-46.5q18-24.5 28.5-53T1920 336M326 1428q107 35 183 111t111 183L1701 640l-293-293L326 1428m-150 444l329-82q-10-46-32.5-87t-54.5-73q-32-32-73-54.5t-87-32.5l-82 329m1616-336q53 0 99.5 20t81.5 55q35 35 55 81.5t20 99.5q0 53-20 99.5t-55 81.5q-35 35-81.5 55t-99.5 20v-128q27 0 50-10t40.5-27.5q17.5-17.5 27.5-40.5t10-50q0-27-10-50t-27.5-40.5Q1865 1684 1842 1674t-50-10h-293l162 163-90 90-318-317 318-317 90 90-162 163h293z"/></svg>