<svg xmlns="http://www.w3.org/2000/svg" viewBox="0 0 2048 2048"><path d="M2048 1152v384h-384v-128h153q-41-62-108.5-95t-140.5-33q-54 0-106 18.5t-92.5 52q-40.5 33.5-65 80.5t-24.5 105h-128q0-85 34.5-155.5T1279 1259q58-51 133-79t156-28q52 0 102 11.5t96 34.5q46 23 85 56.5t69 76.5v-179h128m-416 768q54 0 105.5-18.5t92-52q40.5-33.5 65.5-80.5t25-105h128q0 85-34.5 155.5T1921 1941q-58 51-133 79t-156 28q-52 0-102-11.5t-96-34.5q-46-23-85-56t-69-77v179h-128v-384h384v128h-153q41 62 108.5 95t140.5 33M1408 768q-79 0-149 30t-122 82q-52 52-82.5 122t-30.5 149q0 93-41.5 174.5T866 1462q45 23 85 54t73 69l-102 79q-54-61-127.5-94.5T640 1536q-80 0-149.5 30t-122 82.5Q316 1701 286 1771t-30 149H128q0-73 20-141.5t57-128.5q37-60 90-108t118-81q-74-54-115.5-135.5T256 1152q0-79 30-149t82.5-122.5Q421 828 490.5 798T640 768q92 0 173.5 41.5T949 925q38-75 97.5-134.5T1181 693q-74-54-115.5-135.5T1024 384q0-79 30-149t82.5-122.5Q1189 60 1258.5 30T1408 0q79 0 149 30t122.5 82.5Q1732 165 1762 235t30 149q0 92-41 173.5T1635 693q100 50 169.5 136.5T1902 1024h-134q-20-57-56-104.5t-83-81q-47-33.5-103.5-52T1408 768m0-640q-53 0-99.5 20t-81.5 55q-35 35-55 81.5t-20 99.5q0 53 20 99.5t55 81.5q35 35 81.5 55t99.5 20q53 0 99.5-20t81.5-55q35-35 55-81.5t20-99.5q0-53-20-99.5t-55-81.5q-35-35-81.5-55t-99.5-20M640 1408q53 0 99.5-20t81.5-55q35-35 55-81.5t20-99.5q0-53-20-100t-54.5-81.5Q787 936 740 916t-100-20q-53 0-99.5 20T459 971q-35 35-55 81.5t-20 99.5q0 53 20 99.5t55 81.5q35 35 81.5 55t99.5 20z"/></svg>