<svg xmlns="http://www.w3.org/2000/svg" viewBox="0 0 2048 2048"><path d="M1280 896q-80 0-149.5 30t-122 82.5Q956 1061 926 1131t-30 149q0 92-41 173t-115 136q65 33 117.5 81.5t89.5 108q37 59.5 57 128t20 141.5H896q0-79-30-149t-82.5-122.5Q731 1724 661 1694t-149-30q-80 0-149.5 30t-122 82.5Q188 1829 158 1899t-30 149H0q0-73 20-141.5t57-128q37-59.5 89.5-108T284 1589q-74-55-115-136t-41-173q0-79 30-149t82.5-122.5Q293 956 362.5 926T512 896q92 0 173 41t136 115q38-75 97-134t134-97q-74-55-115-136t-41-173q0-79 30-149t82.5-122.5q52.5-52.5 122-82.5t149.5-30q79 0 149 30t122.5 82.5Q1604 293 1634 363t30 149q0 92-41 173t-115 136q65 33 117.5 81.5t89.5 108q37 59.5 57 128t20 141.5h-128q0-79-30-149t-82.5-122.5Q1499 956 1429 926t-149-30m-256-384q0 53 20 99.5t55 81.5q35 35 81.5 55t99.5 20q53 0 99.5-20t81.5-55q35-35 55-81.5t20-99.5q0-53-20-99.5t-55-81.5q-35-35-81.5-55t-99.5-20q-53 0-99.5 20t-81.5 55q-35 35-55 81.5t-20 99.5M512 1536q53 0 99.5-20t81.5-55q35-35 55-81.5t20-99.5q0-53-20-99.5t-55-81.5q-35-35-81.5-55t-99.5-20q-53 0-99.5 20t-81.5 55q-35 35-55 81.5t-20 99.5q0 53 20 99.5t55 81.5q35 35 81.5 55t99.5 20m1536 256h-256v256h-128v-256h-256v-128h256v-256h128v256h256v128z"/></svg>