<svg xmlns="http://www.w3.org/2000/svg" viewBox="0 0 2048 2048"><path d="M1636 693q65 33 117.5 81.5t89.5 108q37 59.5 57 128t20 141.5h-128q0-79-30.5-149T1679 881q-52-52-122-82.5T1408 768q-79 0-149 30.5T1137 881q-52 52-82.5 122t-30.5 149q0 91-41.5 173T868 1461q65 33 117.5 81.5t89.5 108q37 59.5 57 128t20 141.5h-128q0-79-30.5-149T911 1649q-52-52-122-82.5T640 1536q-79 0-149 30.5T369 1649q-52 52-82.5 122T256 1920H128q0-73 20-141.5t57-128q37-59.5 89.5-108T412 1461q-73-54-114.5-136T256 1152q0-79 30.5-149T369 881q52-52 122-82.5T640 768q91 0 173 41.5T949 924q38-75 97-134t134-97q-73-54-114.5-136T1024 384q0-79 30.5-149t82.5-122q52-52 122-82.5T1408 0q79 0 149 30.5t122 82.5q52 52 82.5 122t30.5 149q0 91-41.5 173T1636 693m-996 715q52 0 99-20.5t81.5-55q34.5-34.5 55-81T896 1152q0-52-20.5-99t-55-81.5Q786 937 739 916.5T640 896q-53 0-99.5 20.5t-81 55q-34.5 34.5-55 81.5t-20.5 99q0 53 20.5 99.5t55 81q34.5 34.5 81 55T640 1408m512-1024q0 53 20.5 99.5t55 81q34.5 34.5 81 55T1408 640q52 0 99-20.5t81.5-55q34.5-34.5 55-81T1664 384q0-52-20.5-99t-55-81.5q-34.5-34.5-81.5-55t-99-20.5q-53 0-99.5 20.5t-81 55q-34.5 34.5-55 81.5t-20.5 99z"/></svg>