<svg xmlns="http://www.w3.org/2000/svg" viewBox="0 0 2048 2048"><path d="M1472 896q119 0 224 45.5t183 123.5q78 78 123.5 183t45.5 224q0 119-45.5 224T1879 1879q-78 78-183 123.5t-224 45.5q-119 0-224-45.5T1065 1879q-78-78-123.5-183T896 1472q0-119 45.5-224t123.5-183q78-78 183-123.5t224-45.5m0 1024q93 0 174.5-35.5t142-96q60.5-60.5 96-142T1920 1472q0-93-35.5-174.5t-96-142q-60.5-60.5-142-96T1472 1024q-93 0-174.5 35.5t-142 96q-60.5 60.5-96 142T1024 1472q0 93 35.5 174.5t96 142q60.5 60.5 142 96T1472 1920m-64-384v-384h128v384h-128m0 256v-128h128v128h-128m-494-748q-66 84-102.5 184.5T770 1435q-54 48-120 74.5T512 1536q-80 0-149.5 30t-122 82.5Q188 1701 158 1771t-30 149H0q0-73 20-141.5T77 1650q37-60 90-108t118-81q-74-54-115.5-135.5T128 1152q0-79 30-149t82.5-122.5Q293 828 362.5 798T512 768q93 0 174.5 41.5T822 926q37-75 96-135t134-98q-74-55-115-136t-41-173q0-79 30-149t82.5-122.5Q1061 60 1130.5 30T1280 0q79 0 149 30t122.5 82.5Q1604 165 1634 235t30 149q0 80-30 149.5t-82.5 122Q1499 708 1429 738t-149 30q-64 0-122.5 20t-107 56.5q-48.5 36.5-84 87.5T914 1044m110-660q0 53 20 99.5t55 81.5q35 35 81.5 55t99.5 20q53 0 99.5-20t81.5-55q35-35 55-81.5t20-99.5q0-53-20-99.5t-55-81.5q-35-35-81.5-55t-99.5-20q-53 0-99.5 20t-81.5 55q-35 35-55 81.5t-20 99.5M512 1408q53 0 99.5-20t81.5-55q35-35 55-81.5t20-99.5q0-53-20-99.5T693 971q-35-35-81.5-55T512 896q-53 0-99.5 20T331 971q-35 35-55 81.5t-20 99.5q0 53 20 99.5t55 81.5q35 35 81.5 55t99.5 20z"/></svg>