<svg xmlns="http://www.w3.org/2000/svg" viewBox="0 0 2048 2048"><path d="M2048 1573v475h-512v-256h-256v-256h-256v-207q-74 39-155 59t-165 20q-97 0-187-25t-168-71q-78-46-142.5-110.5T96 1059q-46-78-71-168T0 704q0-97 25-187t71-168q46-78 110.5-142.5T349 96q78-46 168-71T704 0q97 0 187 25t168 71q78 46 142.5 110.5T1312 349q46 78 71 168t25 187q0 51-8 101t-23 98l671 670M512 704q40 0 75-15t61-41q26-26 41-61t15-75q0-40-15-75t-41-61q-26-26-61-41t-75-15q-40 0-75 15t-61 41q-26 26-41 61t-15 75q0 40 15 75t41 61q26 26 61 41t75 15z"/></svg>