<svg xmlns="http://www.w3.org/2000/svg" viewBox="0 0 2048 2048"><path d="M1607 1213q44 0 84.5 16.5t71.5 47.5l220 220q31 31 47.5 71.5t16.5 84.5q0 44-16.5 84.5T1983 1809l-14 14q-54 54-99 96t-94 70.5q-49 28.5-109 43.5t-143 15q-125 0-257-39t-262.5-108q-130.5-69-256-164t-237-207.5Q400 1417 306 1291.5t-162-256Q76 905 38 775T0 523q0-83 14.5-142t43-108q28.5-49 70-93.5T223 81l16-16q31-31 71-48t85-17q44 0 84.5 17T551 65l220 220q31 31 47.5 71.5T835 441q0 44-15 78.5T783 582q-22 28-48.5 51T686 678q-22 22-37 44.5T634 771q0 38 27 65l551 551q27 27 65 27 26 0 48.5-15t44.5-37q22-22 45-48.5t51-48.5q28-22 62.5-37t78.5-15m-83 707q72 0 120.5-13.5t87.5-39q39-25.5 76-63.5t85-86q27-27 27-65 0-18-14.5-42.5T1868 1559q-23-27-51.5-55.5t-56-54q-27.5-25.5-51-47T1673 1368q-27-27-66-27-26 0-48 15t-44 37q-22 22-45.5 48.5T1418 1490q-28 22-62.5 37t-78.5 15q-44 0-84.5-16.5T1121 1478L570 927q-31-31-47.5-71.5T506 771q0-44 15-78.5t37-62.5q22-28 48.5-51.5T655 533q22-22 37-44t15-48q0-39-27-66-13-13-34.5-36.5t-47-51q-25.5-27.5-54-56T489 180q-27-23-51.5-37.5T395 128q-38 0-65 27-48 48-85.5 85t-64 76q-26.5 39-40 87.5T127 523q0 112 36.5 231t101 238Q329 1111 417 1226.5T609 1445q104 103 219.5 190t234 150.5q118.5 63.5 236 99T1524 1920z"/></svg>