<svg xmlns="http://www.w3.org/2000/svg" viewBox="0 0 2048 2048"><path d="M704 384q-26 0-45-19t-19-45q0-26 19-45t45-19q26 0 45 19t19 45q0 26-19 45t-45 19M1920 0v1920H0V0h1920m-896 896h549l-357-358-192 193v165M128 128v421l192-191 539 538h37V128H128m0 768h549L320 538 128 731v165m0 896h549l-357-358-192 193v165m768-768H128v421l192-191 539 538h37v-768m128 768h549l-357-358-192 193v165m768-768h-768v421l192-191 539 538h37v-768m0-128V128h-768v421l192-191 539 538h37m-192-640q26 0 45 19t19 45q0 26-19 45t-45 19q-26 0-45-19t-19-45q0-26 19-45t45-19M704 1280q-26 0-45-19t-19-45q0-26 19-45t45-19q26 0 45 19t19 45q0 26-19 45t-45 19m896 0q-26 0-45-19t-19-45q0-26 19-45t45-19q26 0 45 19t19 45q0 26-19 45t-45 19z"/></svg>