<svg xmlns="http://www.w3.org/2000/svg" viewBox="0 0 2048 2048"><path d="M2048 0v2048H0V0h2048m-128 987l-358 357 358 357V987m-256-731q0-27-10-50t-27.5-40.5Q1609 148 1586 138t-50-10q-27 0-50 10t-40.5 27.5Q1428 183 1418 206t-10 50q0 27 10 50t27.5 40.5Q1463 364 1486 374t50 10q27 0 50-10t40.5-27.5Q1644 329 1654 306t10-50M128 128v677l448-447 896 896 448-449V128h-162q34 58 34 128 0 53-20 99.5t-55 81.5q-35 35-81.5 55t-99.5 20q-53 0-99.5-20t-81.5-55q-35-35-55-81.5t-20-99.5q0-70 34-128H128m1792 1792v-37L576 538 128 987v933h1792z"/></svg>