<svg xmlns="http://www.w3.org/2000/svg" viewBox="0 0 2048 2048"><path d="M608 128q45 0 77.5 9.5t58 23.5q25.5 14 45.5 31t40.5 31q20.5 14 44 23.5T928 256h992q27 0 50 10t40.5 27.5Q2028 311 2038 334t10 50v512h-128V384H928q-31 0-54.5 9.5t-44 23.5Q809 431 789 448t-45.5 31q-25.5 14-58 23.5T608 512H128v1152h384v128H0V256q0-27 10-50t27.5-40.5Q55 148 78 138t50-10h480m0 256q24 0 42-4.5t33-13q15-8.5 29.5-20T744 320q-17-15-31.5-26.5t-29.5-20q-15-8.5-33-13t-42-4.5H128v128h480m32 640h1408v1024H640V1024m128 896h805l-485-486-320 321v165m987 0h139l-230-230-69 70 160 160m-987-768v421l320-319 416 416 160-160 256 256v-614H768m960 256q-26 0-45-19t-19-45q0-26 19-45t45-19q26 0 45 19t19 45q0 26-19 45t-45 19z"/></svg>