<svg xmlns="http://www.w3.org/2000/svg" viewBox="0 0 2048 2048"><path d="M1152 0q124 0 238.5 32t214 90.5q99.5 58.5 181 140t140 181q58.5 99.5 90.5 214t32 238.5h-896V0m128 768h630q-21-121-76.5-226.5T1695 353q-83-83-188.5-138.5T1280 138v630m-256 256h896q0 59-3 114t-11.5 109q-8.5 54-23 107.5T1845 1462q-57 134-148 242t-206.5 184.5q-115.5 76.5-250.5 118T960 2048q-133 0-255.5-34T475 1917.5q-107-62.5-194.5-150t-150-194.5Q68 1466 34 1343.5T0 1088q0-133 34-255.5T130.5 603q62.5-107 150-194.5t194.5-150Q582 196 704.5 162T960 128h64v896m-128 128V258q-108 8-207 42.5T505 391q-85 56-155 131.5t-119 165q-49 89.5-76 191T128 1088q0 115 30 221t84 198.5q54 92.5 130 168.5t168.5 130q92.5 54 198.5 84t221 30q108 0 209.5-27t191-76q89.5-49 165-119t131.5-155q56-85 90.5-184t42.5-207H896z"/></svg>