<svg xmlns="http://www.w3.org/2000/svg" viewBox="0 0 2048 2048"><path d="M1024 128q58 0 113.5 3t109.5 11.5q54 8.5 107.5 23T1462 203q133 57 241.5 148t185 206.5Q1965 673 2006.5 808t41.5 280q0 133-34 255.5t-96.5 229.5q-62.5 107-150 194.5t-194.5 150q-107 62.5-229.5 96.5t-255.5 34q-195 0-368-72t-311-209l-45-45 660-661V128m64 1792q115 0 221-30t198.5-84q92.5-54 168.5-130t130-168.5q54-92.5 84-198.5t30-221q0-108-27-209.5t-76-191q-49-89.5-119-165T1543 391q-85-56-184-90.5T1152 258v857l-605 605q114 98 252.5 149t288.5 51M896 896H0q0-124 32-238.5t90.5-214q58.5-99.5 140-181t181-140Q543 64 657.5 32T896 0v896M768 138q-121 21-226.5 76.5T353 353q-83 83-138.5 188.5T138 768h630V138m96 886l-624 624q-118-128-179-289T0 1024h864m-726 128q13 81 41 157.5t73 145.5l303-303H138z"/></svg>