<svg xmlns="http://www.w3.org/2000/svg" viewBox="0 0 2048 2048"><path d="M1536 704q26 0 45 19t19 45q0 26-19 45t-45 19q-26 0-45-19t-19-45q0-26 19-45t45-19m-192 192q26 0 45 19t19 45q0 26-19 45t-45 19q-26 0-45-19t-19-45q0-27 18.5-45.5T1344 896m-192-192q26 0 45 19t19 45q0 26-19 45t-45 19q-26 0-45-19t-19-45q0-26 19-45t45-19M1531 0q107 0 201.5 40.5T1897 151q70 70 110.5 164.5T2048 517q0 103-39 197.5T1897 882L882 1897q-73 73-167.5 112T517 2048q-107 0-201.5-40.5T151 1897q-70-70-110.5-164.5T0 1531q0-103 39-197.5T151 1166L1166 151q73-73 167.5-112T1531 0M517 1920q78 0 148-29t126-85l464-464-549-549-464 464q-55 55-84.5 126T128 1532q0 81 30.5 151.5t83.5 123q53 52.5 123.5 83T517 1920M1806 791q55-55 84.5-125.5T1920 517q0-81-30.5-151.5T1806 242q-53-53-123.5-83.5T1531 128q-78 0-148.5 29.5T1257 242L796 702l550 550 460-461z"/></svg>