<svg xmlns="http://www.w3.org/2000/svg" viewBox="0 0 2048 2048"><path d="M128 256v384h1920v128H128v1152H0V128h2048v128H128m128 640h128v128H256V896m256 0h128v128H512V896m256 0h128v128H768V896m256 0h128v128h-128V896m256 0h128v128h-128V896m256 0h128v128h-128V896m256 0h128v128h-128V896M256 1408h128v128H256v-128m256 0h128v128H512v-128m256 0h128v128H768v-128m256 0h128v128h-128v-128m256 0h128v128h-128v-128m256 0h128v128h-128v-128m256 0h128v128h-128v-128M256 1152h128v128H256v-128m256 0h128v128H512v-128m256 0h128v128H768v-128m256 0h128v128h-128v-128m256 0h128v128h-128v-128m256 0h128v128h-128v-128m256 0h128v128h-128v-128M256 1664h128v128H256v-128m256 0h128v128H512v-128m256 0h128v128H768v-128m256 0h128v128h-128v-128m256 0h128v128h-128v-128z"/></svg>