<svg xmlns="http://www.w3.org/2000/svg" viewBox="0 0 2048 2048"><path d="M1024 0q88 0 170 23t153 64.5q71 41.5 129.5 100t100 129.5q41.5 71 64.5 153t23 170q0 69-16.5 131.5T1600 896l-576 1152L448 896q-31-62-47.5-124.5T384 640q0-88 23-170t64.5-153q41.5-71 100-129.5T701 87.5Q772 46 854 23t170-23m476 846q0-1 .5-1t.5-1q25-47 38-99t13-105q0-109-41.5-205T1397 267q-72-72-168-113.5T1024 112q-109 0-205 41.5T651 267q-72 72-113.5 168T496 640q0 53 13 105t38 99q0 1 .5 1t.5 1l476 952 476-952m-476-582q78 0 146.5 29.5T1290 374q51 51 80.5 119.5T1400 640q0 78-29.5 146.5T1290 906q-51 51-119.5 80.5T1024 1016q-78 0-146.5-29.5T758 906q-51-51-80.5-119.5T648 640q0-78 29.5-146.5T758 374q51-51 119.5-80.5T1024 264m0 640q55 0 103-20.5t84-56.5q36-36 56.5-84t20.5-103q0-55-20.5-103t-56.5-84q-36-36-84-56.5T1024 376q-55 0-103 20.5T837 453q-36 36-56.5 84T760 640q0 55 20.5 103t56.5 84q36 36 84 56.5t103 20.5z"/></svg>