<svg xmlns="http://www.w3.org/2000/svg" viewBox="0 0 2048 2048"><path d="M1984 384v1280q0 26-19 45t-45 19h-704v269L64 1731V317L1216 51v269h704q26 0 45 19t19 45M893 871q0-119-58.5-185.5T653 619q-67 0-134.5 5T384 633v779l149 17v-277q21-2 42.5-3.5t43.5-1.5q61 0 111.5-20t86.5-56.5q36-36.5 56-87.5t20-112m1027 793V384h-704v279q36-42 86.5-64.5T1408 576v256h256q0 53-20 99.5t-55 81.5q-35 35-81.5 55t-99.5 20q-55 0-105.5-22.5T1216 1001v215h512v64h-512v128h512v64h-512v192h704M1472 512q53 0 99.5 20t81.5 55q35 35 55 81.5t20 99.5h-256V512M720 881q0 63-31 96t-95 33h-61V768q17-2 35-5t36-3q60 0 88 31.5t28 89.5z"/></svg>