<svg xmlns="http://www.w3.org/2000/svg" viewBox="0 0 2048 2048"><path d="M64 272L1216 67v1914L64 1782V272m363 1115l149 18v-288q75 2 142.5-9.5T836 1064q50-32 79.5-88T945 832q0-122-65-186t-186-64q-66 0-133 5.5T427 597v790m342-537q0 72-38 101t-105 29q-13 0-25-.5t-25-.5V728q17-1 33.5-2t33.5-1q126 0 126 125m682 857v-110h109v110h-109m469-208h-640v-122h171v-268h-171v-73h171V768h-171V616h518V506h-518V366h640v1133m-140-737h-268v268h268V762m219-579q22 0 32.5 14.5T2042 232v1548q0 20-10 37.5t-33 17.5h-719v-55h713V238h-713v-55h719z"/></svg>