<svg xmlns="http://www.w3.org/2000/svg" viewBox="0 0 2048 2048"><path d="M1355 1121q31 0 53 22l159 160q22 22 22 53 0 30-22 52l-159 160q-22 22-53 22t-53-22l-159-160q-22-22-22-52 0-31 22-53l159-160q22-22 53-22m331-331q31 0 53 22l159 159q22 22 22 53t-22 53l-159 159q-22 22-53 22t-53-22l-159-159q-22-22-22-53t22-53l159-159q22-22 53-22m-428 234q0 17-7.5 31.5t-18.5 27q-11 12.5-23.5 23.5t-23.5 22l-439 439q-22 22-53 22t-53-22l-438-439q-11-11-24-22t-24-23.5q-11-12.5-18.5-26.5t-7.5-32q0-17 7.5-31.5T154 965q11-13 24-24t24-22l438-438q22-22 53-22t53 22l439 438q11 11 23.5 22t23.5 24q11 13 18.5 27.5t7.5 31.5m-565 234q31 0 53-22l118-119q10-10 21.5-20t20.5-21q9-11 15-23.5t6-28.5q0-31-22-53L746 812q-22-22-53-22t-53 22L481 971q-22 22-22 53 0 16 6 28.5t15 23.5q9 11 20 21l22 20 118 119q22 22 53 22m662-331q-31 0-53-22l-159-160q-22-22-22-52 0-31 22-53l159-159q22-22 53-22t53 22l159 159q22 22 22 53 0 30-22 52l-159 160q-22 22-53 22z"/></svg>