<svg xmlns="http://www.w3.org/2000/svg" viewBox="0 0 2048 2048"><path d="M1760 256q60 0 112.5 22.5T1964 340q39 39 61.5 91.5T2048 544v768q0 55-19.5 104t-54 87.5q-34.5 38.5-81.5 63t-101 30.5v-128q28-6 51.5-20.5t40.5-35.5q17-21 26.5-46.5t9.5-54.5V544q0-33-12.5-62t-34.5-51q-22-22-51-34.5t-62-12.5H288q-33 0-62 12.5T175 431q-22 22-34.5 51T128 544v768q0 29 9.5 54.5T164 1413q17 21 40.5 35.5T256 1469v128q-54-6-101-30.5t-81.5-63Q39 1465 19.5 1416T0 1312V544q0-60 22.5-112.5T84 340q39-39 91.5-61.5T288 256h1472m-455 1130q27 0 46 19l137 137q19 19 19 46 0 26-19 45l-137 137q-19 19-46 19t-46-19l-137-137q-19-19-19-45 0-27 19-46l137-137q19-19 46-19m285-287q27 0 46 19l137 138q19 19 19 46 0 26-19 45l-137 137q-19 19-46 19-26 0-45-19l-137-137q-19-19-19-45 0-27 19-46l137-138q19-19 45-19m-368 203q0 15-6.5 27t-16 23q-9.5 11-21 21t-20.5 19l-378 378q-19 19-46 19-26 0-45-19l-379-378q-9-9-20-19t-20.5-21q-9.5-11-16-23t-6.5-27q0-15 6.5-27.5t16-23.5q9.5-11 20.5-21t20-19l379-378q19-19 45-19 27 0 46 19l378 378q9 9 20.5 19t21 21q9.5 11 16 23.5t6.5 27.5m-488 201q27 0 46-19l102-102q18-18 36-35.5t18-44.5q0-27-19-46l-137-138q-19-19-46-19-26 0-45 19l-138 138q-19 19-19 46t18 45q18 18 36 35l103 102q19 19 45 19m773-487q0 26-19 45l-137 137q-19 19-46 19t-46-19l-137-137q-19-19-19-45 0-27 19-46l137-137q19-19 46-19t46 19l137 137q19 19 19 46z"/></svg>