<svg xmlns="http://www.w3.org/2000/svg" viewBox="0 0 2048 2048"><path d="M1024 1408h768v128h-768v-128m0 256h768v128h-768v-128m128-768h384q0 80-30 149.5t-82.5 122Q1371 1220 1301 1250t-149 30q-64 0-128-22V534q64-22 128-22v384m-695-17q50 0 82.5 21.5T572 977q0 56-31.5 78.5T457 1078h-57V879h57m1591-290v1459H384v-336L0 1651V512l384-55V0h1075l589 589M469 1187q49 0 95.5-13t81.5-39.5q35-26.5 56.5-67T724 972q0-57-18.5-96T655 813q-32-24-76.5-34.5T482 768H256v640h144v-221h69m1451-419h-640V128H512v311l384-55v1408l-384-60v188h1408V768m0-128l-512-512v512h512z"/></svg>