<svg xmlns="http://www.w3.org/2000/svg" viewBox="0 0 2048 2048"><path d="M1088 1024H960V0h128v1024m212-724q138 44 252.5 128t196 197Q1830 738 1875 873t45 279q0 124-32 238.5t-90.5 214q-58.5 99.5-140 181t-181 140q-99.5 58.5-214 90.5t-238.5 32q-124 0-238.5-32t-214-90.5q-99.5-58.5-181-140t-140-181q-58.5-99.5-90.5-214T128 1152q0-144 45-279t126.5-248q81.5-113 196-197T748 300l40 121q-119 39-217 111T403 700q-70 96-108.5 211.5T256 1152q0 106 27.5 204t77.5 183.5q50 85.5 120 155.5t155.5 120q85.5 50 183.5 77.5t204 27.5q106 0 204-27.5t183.5-77.5q85.5-50 155.5-120t120-155.5q50-85.5 77.5-183.5t27.5-204q0-125-38.5-240.5T1645 700q-70-96-168-168t-217-111l40-121z"/></svg>