<svg xmlns="http://www.w3.org/2000/svg" viewBox="0 0 2048 2048"><path d="M1115 0l549 549v91h-640V0h91m37 512h293l-293-293v293m384 384V768h128v128h-128m0 256v-128h128v128h-128m0 256v-128h128v128h-128m0 256v-128h128v128h-128m0 256v-128h128v128h-128m-256 0v-128h128v128h-128m-256 0v-128h128v128h-128m-256 0v-128h128v128H768m-256 0v-128h128v128H512m-256 0v-128h128v128H256m0-1024V768h128v128H256m0-256V512h128v128H256m0-256V256h128v128H256m0-256V0h128v128H256m256 0V0h128v128H512m256 0V0h128v128H768M256 1152v-128h128v128H256m0 256v-128h128v128H256m0 256v-128h128v128H256z"/></svg>