<svg xmlns="http://www.w3.org/2000/svg" viewBox="0 0 2048 2048"><path d="M837 844q-23 37-53.5 67.5T716 965l51 124-118 48-51-123q-40 10-86 10t-86-10l-51 123-118-48 51-124q-37-23-67.5-53.5T187 844L63 895 15 777l123-51q-10-40-10-86t10-86L15 503l48-118 124 51q46-75 121-121l-51-124 118-48 51 123q40-10 86-10t86 10l51-123 118 48-51 124q75 46 121 121l124-51 48 118-123 51q10 40 10 86t-10 86l123 51-48 118-124-51m-325 52q53 0 99.5-20t81.5-55q35-35 55-81.5t20-99.5q0-53-20-99.5T693 459q-35-35-81.5-55T512 384q-53 0-99.5 20T331 459q-35 35-55 81.5T256 640q0 53 20 99.5t55 81.5q35 35 81.5 55t99.5 20m1408 448q0 55-14 111l137 56-48 119-138-57q-59 98-156 156l57 137-119 49-56-137q-56 14-111 14t-111-14l-56 137-119-49 57-137q-98-58-156-156l-138 57-48-119 137-56q-14-56-14-111t14-111l-137-56 48-119 138 57q58-97 156-156l-57-138 119-48 56 137q56-14 111-14t111 14l56-137 119 48-57 138q97 59 156 156l138-57 48 119-137 56q14 56 14 111m-448 320q66 0 124-25t101.5-68.5q43.5-43.5 69-102T1792 1344q0-66-25.5-124t-69-101.5q-43.5-43.5-101.5-69t-124-25.5q-66 0-124.5 25.5t-102 69Q1202 1162 1177 1220t-25 124q0 66 25 124.5t68.5 102q43.5 43.5 102 68.5t124.5 25z"/></svg>