<svg xmlns="http://www.w3.org/2000/svg" viewBox="0 0 2048 2048"><path d="M951 1037q35-51 86-86l-52-124 119-49 51 124q30-6 61-6t61 6l51-124 119 49-52 124q26 17 47.5 38.5t38.5 47.5l124-52 49 119-124 51q6 30 6 61t-6 61l124 51-49 119-124-52q-17 26-38.5 47.5T1395 1481l52 124-119 49-51-124q-30 6-61 6t-61-6l-51 124-119-49 52-124q-51-35-86-86l-124 52-49-119 124-51q-6-30-6-61t6-61l-124-51 49-119 124 52m457 179q0-40-15-75t-41-61q-26-26-61-41t-75-15q-40 0-75 15t-61 41q-26 26-41 61t-15 75q0 40 15 75t41 61q26 26 61 41t75 15q39 0 74-15t61.5-41.5q26.5-26.5 41.5-61.5t15-74M267 809l120-70q-3-18-3-35t3-35l-120-70 64-110 121 69q29-23 60-34V384h128v140q31 11 60 34l121-69 64 110-120 70q3 18 3 35t-3 35l120 70-64 110-121-69q-14 11-28.5 19.5T640 884v140H512V884q-17-6-31.5-14.5T452 850l-121 69-64-110m309-201q-40 0-68 28t-28 68q0 40 28 68t68 28q40 0 68-28t28-68q0-40-28-68t-68-28M1920 0v2048H0V0h1920m-128 128H128v1792h1664V128z"/></svg>