<svg xmlns="http://www.w3.org/2000/svg" viewBox="0 0 2048 2048"><path d="M960 131q-128 9-245 53T498 300q-100 72-178 170.5T194 687L73 648q54-138 144-252.5T422.5 197Q538 113 675 62.5T960 3v128m894 556q-48-118-126-216.5T1550 300q-100-72-217.5-116T1088 131V3q148 9 285 59.5T1625.5 197Q1741 281 1831 395.5T1976 648l-122 39M128 1024q0 99 21.5 194.5t62.5 183q41 87.5 100 165.5t135 142l-75 104q-88-73-157-162.5T98 1460q-48-101-73-211T0 1024q0-65 8.5-128.5T33 769l122 40q-13 53-20 107t-7 108m1887-255q16 63 24.5 126.5t8.5 128.5q0 115-25 225t-73 211q-48 101-117 190.5T1676 1813l-75-104q76-64 135-142t100-165.5q41-87.5 62.5-183T1920 1024q0-54-7-108t-20-107l122-40m-991 1151q127 0 246.5-34.5T1497 1784l75 103q-123 79-262.5 120t-285.5 41q-146 0-285.5-41T476 1887l75-103q107 67 226.5 101.5T1024 1920z"/></svg>