<svg xmlns="http://www.w3.org/2000/svg" viewBox="0 0 2048 2048"><path d="M1024 96q33 0 62 12.5t51 34.5q22 22 34.5 51t12.5 62q0 33-12.5 62t-34.5 51q-22 22-51 34.5t-62 12.5q-33 0-62-12.5T911 369q-22-22-34.5-51T864 256q0-33 12.5-62t34.5-51q22-22 51-34.5t62-12.5M337 481q0-30 11-56t30.5-45.5q19.5-19.5 46-31T481 337q30 0 56 11.5t45.5 31q19.5 19.5 31 45.5t11.5 56q0 30-11.5 56.5t-31 46Q563 603 537 614t-56 11q-30 0-56.5-11t-46-30.5Q359 564 348 537.5T337 481m-81 415q27 0 50 10t40.5 27.5Q364 951 374 974t10 50q0 27-10 50t-27.5 40.5Q329 1132 306 1142t-50 10q-27 0-50-10t-40.5-27.5Q148 1097 138 1074t-10-50q0-27 10-50t27.5-40.5Q183 916 206 906t50-10m113 671q0-23 9-43.5t24-35.5q15-15 35.5-24t43.5-9q23 0 43.5 9t35.5 24q15 15 24 35.5t9 43.5q0 23-9 43.5t-24 35.5q-15 15-35.5 24t-43.5 9q-23 0-43.5-9t-35.5-24q-15-15-24-35.5t-9-43.5m655 129q40 0 68 28t28 68q0 40-28 68t-68 28q-40 0-68-28t-28-68q0-40 28-68t68-28m463-129q0-34 23-57t57-23q34 0 57 23t23 57q0 34-23 57t-57 23q-34 0-57-23t-23-57m305-607q26 0 45 19t19 45q0 26-19 45t-45 19q-26 0-45-19t-19-45q0-26 19-45t45-19m-225-655q36 0 68 14t56 38q24 24 38 56t14 68q0 36-14 68t-38 56q-24 24-56 38t-68 14q-36 0-68-14t-56-38q-24-24-38-56t-14-68q0-36 14-68t38-56q24-24 56-38t68-14z"/></svg>