<svg xmlns="http://www.w3.org/2000/svg" viewBox="0 0 2048 2048"><path d="M1920 640q27 0 50 10t40.5 27.5Q2028 695 2038 718t10 50v1152H256v-512H0V128q0-27 10-50t27.5-40.5Q55 20 78 10t50-10h480q45 0 77.5 9.5T743 33q25 14 45.5 31t41 31q20.5 14 44 23.5T928 128h736q27 0 50 10t40.5 27.5Q1772 183 1782 206t10 50v384h128M128 128v128h480q24 0 42-4.5t33-13q15-8.5 29.5-20T744 192q-17-15-31.5-26.5t-29.5-20q-15-8.5-33-13t-42-4.5H128m128 1152V640q0-27 10-50t27.5-40.5Q311 532 334 522t50-10h480q45 0 77.5 9.5t58 23.5q25.5 14 45.5 31t40.5 31q20.5 14 44 23.5t54.5 9.5h480V256H928q-31 0-54.5 9.5t-44 23.5Q809 303 789 320t-45.5 31q-25.5 14-58 23.5T608 384H128v896h128m744-576q-17-15-31.5-26.5t-29.5-20q-15-8.5-33-13t-42-4.5H384v128h480q24 0 42-4.5t33-13q15-8.5 29.5-20T1000 704m920 64h-736q-31 0-54.5 9.5t-44 23.5q-20.5 14-40.5 31t-45.5 31q-25.5 14-58 23.5T864 896H384v896h1536V768z"/></svg>