<svg xmlns="http://www.w3.org/2000/svg" viewBox="0 0 2048 2048"><path d="M1984 384v1280q0 26-19 45t-45 19h-704v269L64 1731V317L1216 51v269h704q26 0 45 19t19 45M893 871q0-119-58.5-185.5T653 619q-67 0-134.5 5T384 633v779l149 17v-277q33-2 67.5-2.5t67.5-5.5q53-7 94.5-31.5t70.5-61q29-36.5 44.5-82.5t15.5-98m1027 793V384h-704v192h384q29 0 46.5 17.5T1664 640v320h83q19 0 32 13.5t13 32.5q0 18-13 31l-179 179-178-178q-13-13-13-32 0-20 13-33t33-13h81V704h-320v576l128-128 192 192-192 192-128-128v256h704M720 881q0 63-31 96t-95 33h-61V768q17-2 35-5t36-3q60 0 88 31.5t28 89.5z"/></svg>