<svg xmlns="http://www.w3.org/2000/svg" viewBox="0 0 2048 2048"><path d="M1600 1152q93 0 174.5 35t142.5 96q61 61 96 142.5t35 174.5q0 93-35 174.5t-96 142.5q-61 61-142.5 96t-174.5 35q-93 0-174.5-35t-142.5-96q-61-61-96-142.5t-35-174.5q0-93 35-174.5t96-142.5q61-61 142.5-96t174.5-35m0 768q66 0 124-25t101.5-68.5q43.5-43.5 69-102T1920 1600q0-66-25.5-124t-69-101.5q-43.5-43.5-101.5-69t-124-25.5q-66 0-124.5 25.5t-102 69Q1330 1418 1305 1476t-25 124q0 66 25 124.5t68.5 102q43.5 43.5 102 68.5t124.5 25m-192-384h384v128h-384v-128m-352 384q25 36 54 68.5t63 59.5H256V896h256V522q0-108 39-203t108-166q69-71 162.5-112T1024 0q109 0 202.5 41T1389 153q69 71 108 166t39 203v374h256v128H384v896h672M640 896h768V522q0-81-29-152.5T1298.5 244q-51.5-54-122-85T1024 128q-82 0-152.5 31t-122 85Q698 298 669 369.5T640 522v374z"/></svg>