<svg xmlns="http://www.w3.org/2000/svg" viewBox="0 0 2048 2048"><path d="M1792 896h-640V768h640v128m-640 256h384v128h-384v-128m-326-80q46 26 82.5 62t62 79.5q25.5 43.5 39.5 93t14 101.5H896q0-53-20-99.5t-55-81.5q-35-35-81.5-55t-99.5-20q-53 0-99.5 20t-81.5 55q-35 35-55 81.5t-20 99.5H256q0-52 14-101.5t39.5-93q25.5-43.5 62-79.5t82.5-62q-33-35-51.5-81T384 896q0-53 20-99.5t55-81.5q35-35 81.5-55t99.5-20q53 0 99.5 20t81.5 55q35 35 55 81.5t20 99.5q0 49-18.5 95t-51.5 81M512 896q0 27 10 50t27.5 40.5Q567 1004 590 1014t50 10q27 0 50-10t40.5-27.5Q748 969 758 946t10-50q0-27-10-50t-27.5-40.5Q713 788 690 778t-50-10q-27 0-50 10t-40.5 27.5Q532 823 522 846t-10 50m1217 515l317 317-317 317-91-90 163-163h-658l163 163-91 90-317-317 317-317 91 90-163 163h658l-163-163 91-90m319-1155v1216l-128-128V384H128v1280h640v128H0V256h2048z"/></svg>