<svg xmlns="http://www.w3.org/2000/svg" viewBox="0 0 2048 2048"><path d="M256 896h640V768H256v128m640 256H512v128h384v-128m326-80q-46 26-82.5 62t-62 79.5q-25.5 43.5-39.5 93t-14 101.5h128q0-53 20-99.5t55-81.5q35-35 81.5-55t99.5-20q53 0 99.5 20t81.5 55q35 35 55 81.5t20 99.5h128q0-52-14-101.5t-39.5-93q-25.5-43.5-62-79.5t-82.5-62q33-35 51.5-81t18.5-95q0-53-20-99.5t-55-81.5q-35-35-81.5-55t-99.5-20q-53 0-99.5 20t-81.5 55q-35 35-55 81.5t-20 99.5q0 49 18.5 95t51.5 81m314-176q0 27-10 50t-27.5 40.5Q1481 1004 1458 1014t-50 10q-27 0-50-10t-40.5-27.5Q1300 969 1290 946t-10-50q0-27 10-50t27.5-40.5Q1335 788 1358 778t50-10q27 0 50 10t40.5 27.5Q1516 823 1526 846t10 50M319 1411L2 1728l317 317 91-90-163-163h658l-163 163 91 90 317-317-317-317-91 90 163 163H247l163-163-91-90M0 256v1216l128-128V384h1792v1280h-640v128h768V256H0z"/></svg>