<svg xmlns="http://www.w3.org/2000/svg" viewBox="0 0 2048 2048"><path d="M1600 896q-27 0-50 10t-40.5 27.5Q1492 951 1482 974t-10 50q0 27 10 50t27.5 40.5q17.5 17.5 40.5 27.5t50 10h192v512h-384v64q0 53-20 99.5t-55 81.5q-35 35-81.5 55t-99.5 20q-53 0-99.5-20t-81.5-55q-35-35-55-81.5t-20-99.5v-64H512v-384h-64q-53 0-99.5-20t-81.5-55q-35-35-55-81.5t-20-99.5q0-53 20-99.5t55-81.5q35-35 81.5-55t99.5-20h64V384h384v-64q0-53 20-99.5t55-81.5q35-35 81.5-55t99.5-20q53 0 99.5 20t81.5 55q35 35 55 81.5t20 99.5v64h384v512h-192m0 384q-53 0-99.5-20t-81.5-55q-35-35-55-81.5t-20-99.5q0-53 20-99.5t55-81.5q35-35 81.5-55t99.5-20h64V512h-384V320q0-27-10-50t-27.5-40.5Q1225 212 1202 202t-50-10q-27 0-50 10t-40.5 27.5Q1044 247 1034 270t-10 50v192H640v384H448q-27 0-50 10t-40.5 27.5Q340 951 330 974t-10 50q0 27 10 50t27.5 40.5Q375 1132 398 1142t50 10h192v384h384v192q0 27 10 50t27.5 40.5q17.5 17.5 40.5 27.5t50 10q27 0 50-10t40.5-27.5q17.5-17.5 27.5-40.5t10-50v-192h384v-256h-64z"/></svg>