<svg xmlns="http://www.w3.org/2000/svg" viewBox="0 0 2048 2048"><path d="M1042 1827q14 30 14 61 0 33-12.5 62t-34.5 51q-22 22-51 34.5t-62 12.5q-33 0-62-12.5t-51-34.5q-22-22-34.5-51t-12.5-62q0-31 14-61l146-291 146 291m384-256q14 30 14 61 0 33-12.5 62t-34.5 51q-22 22-51 34.5t-62 12.5q-33 0-62-12.5t-51-34.5q-22-22-34.5-51t-12.5-62q0-31 14-61l146-291 146 291m335-535q63 17 115.5 52.5t91 84.5q38.5 49 59.5 109t21 126q0 80-30 149.5t-82.5 122Q1883 1732 1813 1762t-149 30h-108q17-29 27-61.5t14-66.5h67q53 0 99.5-20t81.5-55q35-35 55-81.5t20-99.5q0-55-20.5-102t-56.5-81q-36-34-84-53.5t-102-19.5q-12-82-51-152.5t-97.5-122Q1450 826 1375 797t-159-29q-77 0-146.5 25T943 862q-57 44-98.5 106T784 1103q-44-38-97-58.5T576 1024q-66 0-124.5 25t-102 68.5q-43.5 43.5-68.5 102T256 1344q0 66 25 124.5t68.5 102q43.5 43.5 102 68.5t124.5 25h96l-64 128h-32q-93 0-174.5-35.5t-142-96q-60.5-60.5-96-142T128 1344q0-67 19-129.5t54-116q35-53.5 84.5-95.5T396 934q-12-49-12-102 0-93 35.5-174.5t96-142q60.5-60.5 142-96T832 384q65 0 125.5 18t113 51.5q52.5 33.5 94.5 81t70 105.5q90 3 172.5 33.5t152 82.5q69.5 52 121.5 123.5t80 156.5M723 921q61-103 158.5-173t214.5-95q-45-66-114.5-103.5T832 512q-66 0-124.5 25.5t-102 69Q562 650 537 708t-25 124q0 32 8 67 28-3 56-3 74 0 147 25m-467-25H0V768h256v128m123-426L198 289l91-91 181 181-91 91m517-214H768V0h128v256m389 214l-91-91 181-181 91 91-181 181z"/></svg>