<svg xmlns="http://www.w3.org/2000/svg" width="2048" height="1820" viewBox="0 0 2048 1820">
  <g>
    <path d="M2045.08618,909.528455 C2045.08618,774.243902 1875.66829,646.035772 1615.92195,566.530081 C1675.86341,301.788618 1649.22276,91.1609756 1531.8374,23.7268293 C1504.78049,7.90894309 1473.14472,0.416260163 1438.59512,0.416260163 L1438.59512,93.2422764 C1457.74309,93.2422764 1473.14472,96.9886179 1486.04878,104.065041 C1542.66016,136.533333 1567.21951,260.162602 1548.07154,419.173984 C1543.49268,458.302439 1536,499.512195 1526.84228,541.554472 C1445.25528,521.573984 1356.17561,506.172358 1262.51707,496.182114 C1206.32195,419.173984 1148.04553,349.242276 1089.35285,288.052033 C1225.05366,161.925203 1352.42927,92.8260163 1439.01138,92.8260163 L1439.01138,0 C1439.01138,0 1439.01138,0 1439.01138,0 C1324.53984,0 1174.68618,81.5869919 1023.16748,223.115447 C871.64878,82.4195122 721.795122,1.66504065 607.323577,1.66504065 L607.323577,94.4910569 C693.489431,94.4910569 821.281301,163.173984 956.982114,288.468293 C898.705691,349.658537 840.429268,419.173984 785.066667,496.182114 C690.99187,506.172358 601.912195,521.573984 520.325203,541.970732 C510.75122,500.344715 503.674797,459.96748 498.679675,421.255285 C479.115447,262.243902 503.258537,138.614634 559.453659,105.730081 C571.941463,98.2373984 588.17561,94.9073171 607.323577,94.9073171 L607.323577,2.08130081 C607.323577,2.08130081 607.323577,2.08130081 607.323577,2.08130081 C572.357724,2.08130081 540.721951,9.57398374 513.24878,25.3918699 C396.279675,92.8260163 370.055285,303.037398 430.413008,566.946341 C171.499187,646.868293 2.91382114,774.660163 2.91382114,909.528455 C2.91382114,1044.81301 172.331707,1173.02114 432.078049,1252.52683 C372.136585,1517.26829 398.777236,1727.89593 516.162602,1795.33008 C543.219512,1811.14797 574.855285,1818.64065 609.821138,1818.64065 C724.292683,1818.64065 874.146341,1737.05366 1025.66504,1595.5252 C1177.18374,1736.22114 1327.0374,1816.97561 1441.50894,1816.97561 C1476.4748,1816.97561 1508.11057,1809.48293 1535.58374,1793.66504 C1652.55285,1726.23089 1678.77724,1516.01951 1618.41951,1252.11057 C1876.50081,1172.60488 2045.08618,1044.39675 2045.08618,909.528455 Z M1503.11545,631.882927 C1487.71382,685.580488 1468.56585,740.943089 1446.92033,796.305691 C1429.85366,763.004878 1411.95447,729.704065 1392.39024,696.403252 C1373.24228,663.102439 1352.84553,630.634146 1332.44878,598.998374 C1391.55772,607.739837 1448.58537,618.562602 1503.11545,631.882927 Z M1312.46829,1075.2 C1280,1131.39512 1246.69919,1184.67642 1212.14959,1234.21138 C1150.12683,1239.62276 1087.27154,1242.53659 1024,1242.53659 C961.144715,1242.53659 898.289431,1239.62276 836.682927,1234.62764 C802.133333,1185.09268 768.41626,1132.22764 735.947967,1076.44878 C704.312195,1021.9187 675.590244,966.556098 649.365854,910.777236 C675.173984,854.998374 704.312195,799.219512 735.531707,744.689431 C768,688.494309 801.300813,635.213008 835.850407,585.678049 C897.873171,580.266667 960.728455,577.352846 1024,577.352846 C1086.85528,577.352846 1149.71057,580.266667 1211.31707,585.261789 C1245.86667,634.796748 1279.58374,687.661789 1312.05203,743.44065 C1343.6878,797.970732 1372.40976,853.333333 1398.63415,909.112195 C1372.40976,964.891057 1343.6878,1020.66992 1312.46829,1075.2 Z M1446.92033,1021.08618 C1469.39837,1076.86504 1488.54634,1132.6439 1504.36423,1186.75772 C1449.83415,1200.07805 1392.39024,1211.31707 1332.86504,1220.05854 C1353.26179,1188.0065 1373.65854,1155.12195 1392.8065,1121.40488 C1411.95447,1088.10407 1429.85366,1054.38699 1446.92033,1021.08618 Z M1024.83252,1465.23577 C986.120325,1425.2748 947.40813,1380.73496 909.112195,1332.03252 C946.57561,1333.69756 984.871545,1334.94634 1023.58374,1334.94634 C1062.7122,1334.94634 1101.42439,1334.11382 1139.30407,1332.03252 C1101.84065,1380.73496 1063.12846,1425.2748 1024.83252,1465.23577 Z M715.134959,1220.05854 C656.026016,1211.31707 598.998374,1200.49431 544.468293,1187.17398 C559.869919,1133.47642 579.017886,1078.11382 600.663415,1022.75122 C617.730081,1056.05203 635.629268,1089.35285 655.193496,1122.65366 C674.757724,1155.95447 694.738211,1188.42276 715.134959,1220.05854 Z M1022.75122,353.821138 C1061.46341,393.782114 1100.17561,438.321951 1138.47154,487.02439 C1101.00813,485.35935 1062.7122,484.110569 1024,484.110569 C984.871545,484.110569 946.15935,484.943089 908.279675,487.02439 C945.743089,438.321951 984.455285,393.782114 1022.75122,353.821138 Z M714.718699,598.998374 C694.321951,631.050407 673.925203,663.934959 654.777236,697.652033 C635.629268,730.952846 617.730081,764.253659 600.663415,797.554472 C578.185366,741.77561 559.037398,685.996748 543.219512,631.882927 C597.749593,618.978862 655.193496,607.739837 714.718699,598.998374 Z M338.003252,1120.1561 C190.647154,1057.30081 95.3235772,974.881301 95.3235772,909.528455 C95.3235772,844.17561 190.647154,761.339837 338.003252,698.900813 C373.801626,683.499187 412.930081,669.762602 453.307317,656.858537 C477.034146,738.445528 508.253659,823.362602 546.965854,910.360976 C508.669919,996.943089 477.866667,1081.4439 454.556098,1162.61463 C413.346341,1149.71057 374.217886,1135.55772 338.003252,1120.1561 Z M561.95122,1714.99187 C505.339837,1682.52358 480.780488,1558.89431 499.928455,1399.88293 C504.507317,1360.75447 512,1319.54472 521.157724,1277.50244 C602.744715,1297.48293 691.82439,1312.88455 785.482927,1322.8748 C841.678049,1399.88293 899.954472,1469.81463 958.647154,1531.00488 C822.946341,1657.13171 695.570732,1726.23089 608.988618,1726.23089 C590.256911,1725.81463 574.439024,1722.06829 561.95122,1714.99187 Z M1549.32033,1397.80163 C1568.88455,1556.81301 1544.74146,1680.44228 1488.54634,1713.32683 C1476.05854,1720.81951 1459.82439,1724.14959 1440.67642,1724.14959 C1354.51057,1724.14959 1226.7187,1655.46667 1091.01789,1530.17236 C1149.29431,1468.98211 1207.57073,1399.46667 1262.93333,1322.45854 C1357.00813,1312.46829 1446.0878,1297.06667 1527.6748,1276.66992 C1537.24878,1318.7122 1544.74146,1359.08943 1549.32033,1397.80163 Z M1709.58049,1120.1561 C1673.78211,1135.55772 1634.65366,1149.29431 1594.27642,1162.19837 C1570.54959,1080.61138 1539.33008,995.694309 1500.61789,908.695935 C1538.91382,822.113821 1569.71707,737.613008 1593.02764,656.442276 C1634.2374,669.346341 1673.36585,683.499187 1709.99675,698.900813 C1857.35285,761.756098 1952.67642,844.17561 1952.67642,909.528455 C1952.26016,974.881301 1856.93659,1057.71707 1709.58049,1120.1561 Z"/>
    <circle cx="1023.584" cy="909.528" r="190.231"/>
  </g>
</svg>
