<svg xmlns="http://www.w3.org/2000/svg" viewBox="0 0 2048 2048"><path d="M1312 768h96v1280h-96l-384-384H640v-512h288l384-384m-32 213l-299 299H768v256h213l299 299V981m325-26q91 91 139 208t48 245q0 128-48 245t-139 208l-91-91q72-72 111-165.5t39-196.5q0-103-39-196.5T1514 1046l91-91m181-181q126 128 194 291t68 343q0 180-68 343t-194 291l-91-91q109-109 167-249t58-294q0-154-58-294t-167-249l91-91M830 1792l128 128H0V256h256V128h384q88 0 169.5 27T960 236q69-54 150.5-81t169.5-27h384v128h256v428q-30-34-63-65.5t-65-63.5V384h-128v286l-128 128V256h-256q-70 0-136 24t-120 69v481L896 958V349q-54-45-120-69t-136-24H384v1280h128v128H256V384H128v1408h702z"/></svg>