<svg xmlns="http://www.w3.org/2000/svg" viewBox="0 0 2048 2048"><path d="M704 256q97 0 187 25t168.5 71q78.5 46 142.5 110t110 142.5q46 78.5 71 168.5t25 187q0 97-25 187t-71 168.5q-46 78.5-110 142.5t-142.5 110q-78.5 46-168.5 71t-187 25q-97 0-187-25t-168.5-71Q270 1522 206 1458T96 1315.5Q50 1237 25 1147T0 960q0-97 25-187t71-168.5Q142 526 206 462t142.5-110Q427 306 517 281t187-25m0 1280q119 0 224-45.5t183-123.5q78-78 123.5-183t45.5-224q0-119-45.5-224T1111 553q-78-78-183-123.5T704 384q-119 0-224 45.5T297 553q-78 78-123.5 183T128 960q0 119 45.5 224T297 1367q78 78 183 123.5t224 45.5m960-640h384v128h-384V896m384-384v128h-512V512h512m-384 768h384v128h-384v-128m-643-546L795 960l226 227-90 90-227-226-227 227-90-91 227-227-227-227 90-90 227 227 227-227 90 91z"/></svg>