<svg xmlns="http://www.w3.org/2000/svg" viewBox="0 0 2048 2048"><path d="M2048 1280v768H1024v-768h256v-256h512v256h256m-640 0h256v-128h-256v128m512 384h-128v128h-128v-128h-256v128h-128v-128h-128v256h768v-256m0-256h-768v128h768v-128m-355-512q-54-61-128.5-94.5T1280 768q-80 0-149.5 30t-122 82.5Q956 933 926 1003t-30 149q0 92-41.5 173.5T739 1461q45 23 84.5 53.5T896 1582v338q0-79-30-149t-82.5-122.5Q731 1596 661 1566t-149-30q-80 0-149.5 30t-122 82.5Q188 1701 158 1771t-30 149H0q0-73 20-141.5T77 1650q37-60 90-108t118-81q-74-54-115.5-135.5T128 1152q0-79 30-149t82.5-122.5Q293 828 362.5 798T512 768q92 0 173.5 41.5T821 925q38-75 97.5-134.5T1053 693q-74-54-115.5-135.5T896 384q0-79 30-149t82.5-122.5Q1061 60 1130.5 30T1280 0q79 0 149 30t122.5 82.5Q1604 165 1634 235t30 149q0 92-41.5 173.5T1507 693q68 34 123 85.5t93 117.5h-158M512 1408q53 0 99.5-20t81.5-55q35-35 55-81.5t20-99.5q0-53-20-99.5T693 971q-35-35-81.5-55T512 896q-53 0-99.5 20T331 971q-35 35-55 81.5t-20 99.5q0 53 20 99.5t55 81.5q35 35 81.5 55t99.5 20m512-1024q0 53 20 99.5t55 81.5q35 35 81.5 55t99.5 20q53 0 99.5-20t81.5-55q35-35 55-81.5t20-99.5q0-53-20-99.5t-55-81.5q-35-35-81.5-55t-99.5-20q-53 0-99.5 20t-81.5 55q-35 35-55 81.5t-20 99.5z"/></svg>