<svg xmlns="http://www.w3.org/2000/svg" viewBox="0 0 2048 2048"><path d="M752 1437h183v152H782q-32 0-48-29-6-11-21-38t-31.5-56.5q-16.5-29.5-29-55T640 1376q0-16 7.5-34t18-36q10.5-18 21-34.5L704 1244l-64-51h197l47 194-77-61-55 111m110-510q7-14 19.5-22.5T910 896h221q32 0 48 30l54 101 58-44-30 207-218-20 62-46-92-179-84 165-127-64 60-119m369 399l122-72q4 9 13.5 25.5t18.5 34.5q9 18 16 35t7 27q0 12-6 24l-85 168q-7 14-20 21.5t-28 7.5h-134v67l-124-166 124-152v103h163l-67-123M1024 0q78 0 156 6t156 17q45 7 105.5 20T1567 76q65 20 128 48.5t113 66.5q50 38 81 86t31 107q0 17-3 30.5t-7 29.5l-315 1407q-130 97-268.5 147t-301.5 50q-162 0-301-50t-268-147L137 441l-6-28q-3-14-3-29 0-59 31-107t81-86q50-38 113-66.5T481 76q65-20 125.5-33T712 23q78-11 156-17t156-6m715 622q-74 41-163.5 69t-184 45q-94.5 17-189 24.5T1024 768q-84 0-178-7.5T657.5 736q-94.5-17-184-45T310 622l260 1154q100 70 217 105.5t239 35.5q121 0 237.5-35.5T1480 1776l259-1154m-715 18q50 0 111.5-3t127.5-11q66-8 133-20.5t130-31.5q63-19 117.5-45t95.5-60q18-15 35.5-37t17.5-48q0-26-17.5-48t-35.5-37q-41-34-95.5-60T1526 194q-63-19-130-31.5T1263 142q-66-8-127.5-11t-111.5-3q-51 0-112 3t-127 11q-66 8-133 20.5T522 194q-63 19-117.5 45T309 299q-18 15-35.5 37T256 384q0 26 17.5 48t35.5 37q41 34 95.5 60T522 574q63 19 130 31.5T785 626q66 8 127 11t112 3z"/></svg>