<svg xmlns="http://www.w3.org/2000/svg" viewBox="0 0 2048 2048"><path d="M1024 512q150 0 292 39t272.5 107.5Q1719 727 1834.5 821t213.5 203q-98 110-213.5 203.5t-246 162Q1458 1458 1316 1497t-292 39q-150 0-292-39t-272.5-107.5Q329 1321 213 1227.5T0 1024q97-109 213-203t246.5-162.5Q590 590 732 551t292-39m384 512q0-79-30.5-149T1295 753q-52-52-122-82.5T1024 640q-79 0-149 30.5T753 753q-52 52-82.5 122T640 1024q0 79 30.5 149t82.5 122q52 52 122 82.5t149 30.5q79 0 149-30.5t122-82.5q52-52 82.5-122t30.5-149m-1231 0q94 91 200 166.5T604 1317q-45-64-68.5-139.5T512 1024q0-78 23.5-153.5T604 731q-121 51-227 126.5T177 1024m1267 293q121-51 227-126.5t200-166.5q-94-91-200-166.5T1444 731q45 64 68.5 139.5T1536 1024q0 78-23.5 153.5T1444 1317m-420-165q-27 0-50-10t-40.5-27.5Q916 1097 906 1074t-10-50q0-27 10-50t27.5-40.5Q951 916 974 906t50-10q27 0 50 10t40.5 27.5Q1132 951 1142 974t10 50q0 27-10 50t-27.5 40.5Q1097 1132 1074 1142t-50 10z"/></svg>