<svg xmlns="http://www.w3.org/2000/svg" viewBox="0 0 2048 2048"><path d="M1297 38q166 45 304 140.5t237.5 226Q1938 535 1993 693.5t55 330.5q0 141-36.5 272t-103 245q-66.5 114-160 207.5t-207.5 160q-114 66.5-245 103t-272 36.5q-141 0-272-36.5t-245-103q-114-66.5-207.5-160t-160-207.5q-66.5-114-103-244.5T0 1024q0-140 37-272t105.5-248.5Q211 387 309 291.5T530 128H256V0h512v512H640V215q-117 56-211.5 140.5T267 545.5Q200 651 164 773t-36 251q0 123 32 237.5t90.5 214Q309 1575 391 1657t181.5 140.5Q672 1856 786 1888t238 32q123 0 237.5-32t214-90.5Q1575 1739 1657 1657t140.5-181.5Q1856 1376 1888 1262t32-238q0-150-48.5-289T1736 482q-87-114-207.5-197.5T1263 161l34-123z"/></svg>