<svg xmlns="http://www.w3.org/2000/svg" viewBox="0 0 2048 2048"><path d="M960 384q93 0 174 35.5t142 96q61 60.5 96 142t35 174.5q0 93-35 174.5t-96 142q-61 60.5-142 96T960 1280h-64v-128h64q66 0 124-25t101.5-68.5q43.5-43.5 69-102T1280 832q0-66-25.5-124t-69-101.5q-43.5-43.5-101.5-69T960 512H448q-66 0-124.5 25.5t-102 69Q178 650 153 708t-25 124q0 66 25 124.5t68.5 102q43.5 43.5 102 68.5t124.5 25h64v128h-64q-93 0-174.5-35.5t-142-96q-60.5-60.5-96-142T0 832q0-93 35.5-174.5t96-142q60.5-60.5 142-96T448 384h512m958 809q-5-63-31.5-117t-69-94q-42.5-40-98.5-63t-119-23h-64V768h64q93 0 174.5 35.5t142 96q60.5 60.5 96 142T2048 1216q0 47-11 96l-119-119m-1150 23q0 66 25 124.5t68.5 102q43.5 43.5 102 68.5t124.5 25h176l128 128h-304q-93 0-174.5-35.5t-142-96q-60.5-60.5-96-142T640 1216q0-93 35.5-174.5t96-142q60.5-60.5 142-96T1088 768h64v128h-64q-66 0-124.5 25.5t-102 69Q818 1034 793 1092t-25 124m1277 286l-226 226 226 227-90 90-227-226-227 227-90-91 227-227-227-227 90-90 227 227 227-227 90 91z"/></svg>