<svg xmlns="http://www.w3.org/2000/svg" viewBox="0 0 2048 2048"><path d="M2029 1939q19 19 19 45t-19 45q-19 19-45 19t-45-19l-785-784q-95 80-210.5 121.5T704 1408q-97 0-187-25t-168.5-71Q270 1266 206 1202T96 1059.5Q50 981 25 891T0 704q0-97 25-187t71-168.5Q142 270 206 206T348.5 96Q427 50 517 25T704 0q97 0 187 25t168.5 71q78.5 46 142.5 110t110 142.5q46 78.5 71 168.5t25 187q0 124-41.5 239.5T1245 1154l784 785M768 1024H640v128h128v-128m8-128q0-30 19-54t47.5-47.5q28.5-23.5 61.5-48t61.5-55.5q28.5-31 47.5-70t19-92q0-65-29-117t-75.5-88.5q-46.5-36.5-105-56T704 248q-59 0-117.5 16.5T481 314q-47 33-76 82.5T376 512h144q0-33 18.5-56t46.5-37.5q28-14.5 60-20.5t59-6q29 0 61.5 9t59.5 26q27 17 45 42.5t18 59.5q0 30-19 54t-47.5 47.5Q793 654 760 678.5T698.5 734Q670 765 651 804t-19 92h144z"/></svg>