<svg xmlns="http://www.w3.org/2000/svg" viewBox="0 0 2048 2048"><path d="M512 1222q107 94 238 144t274 50q143 0 274-50t238-144v826l-512-256-512 256v-826m512 58q-88 0-170-23t-153-64.5q-71-41.5-129-100T472.5 963Q431 892 408 810t-23-170q0-88 23-170t64.5-153Q514 246 572 187.5t129-100Q772 46 854 23t170-23q88 0 170 23t153 64.5q71 41.5 129.5 100t100 129.5q41.5 71 64.5 153t23 170q0 88-23 170t-64.5 153q-41.5 71-100 129.5t-129.5 100q-71 41.5-153 64.5t-170 23m0-1032q-81 0-152.5 31T747 363q-53 53-84 124.5T632 640q0 81 31 152.5T747 917q53 53 124.5 84t152.5 31q81 0 152.5-31t124.5-84q53-53 84-124.5t31-152.5q0-81-31-152.5T1301 363q-53-53-124.5-84T1024 248m0 648q-53 0-99.5-20T843 821q-35-35-55-81.5T768 640q0-53 20-99.5t55-81.5q35-35 81.5-55t99.5-20q53 0 99.5 20t81.5 55q35 35 55 81.5t20 99.5q0 53-20 99.5t-55 81.5q-35 35-81.5 55t-99.5 20z"/></svg>