<svg xmlns="http://www.w3.org/2000/svg" viewBox="0 0 2048 2048"><path d="M1024 1024q-80 0-149.5-30t-122-82.5Q700 859 670 789.5T640 640q0-79 30-149t82.5-122.5Q805 316 874.5 286t149.5-30q79 0 149 30t122.5 82.5Q1348 421 1378 491t30 149q0 80-30 149.5t-82.5 122Q1243 964 1173 994t-149 30m0-640q-53 0-99.5 20T843 459q-35 35-55 81.5T768 640q0 53 20 99.5t55 81.5q35 35 81.5 55t99.5 20q53 0 99.5-20t81.5-55q35-35 55-81.5t20-99.5q0-53-20-99.5t-55-81.5q-35-35-81.5-55t-99.5-20m640 256q0 104-32.5 202.5T1536 1024v1024l-512-256-512 256V1024q-63-83-95.5-181.5T384 640q0-133 50-249.5T571 187q87-87 203.5-137T1024 0q133 0 249.5 50T1477 187q87 87 137 203.5t50 249.5m-640-512q-106 0-199 40.5t-162.5 110Q593 348 552.5 441T512 640q0 106 40.5 199t110 162.5q69.5 69.5 162.5 110t199 40.5q106 0 199-40.5t162.5-110q69.5-69.5 110-162.5t40.5-199q0-106-40.5-199t-110-162.5Q1316 209 1223 168.5T1024 128m384 1728v-704q-83 63-181.5 95.5T1024 1280q-104 0-202.5-32.5T640 1152v704l384-192 384 192z"/></svg>