<svg xmlns="http://www.w3.org/2000/svg" viewBox="0 0 2048 2048"><path d="M1792 1536v128h-512q0 53-20 99.5t-55 81.5q-35 35-81.5 55t-99.5 20q-53 0-99.5-20t-81.5-55q-35-35-55-81.5t-20-99.5H256v-128h128V768q0-88 23-170t64.5-153q41.5-71 100-129.5t129.5-100Q772 174 854 151t170-23q88 0 170 23t153 64.5q71 41.5 129.5 100t100 129.5q41.5 71 64.5 153t23 170v768h128m-256 0V768q0-106-40.5-199t-110-162.5Q1316 337 1223 296.5T1024 256q-106 0-199 40.5t-162.5 110Q593 476 552.5 569T512 768v768h1024m-512 256q27 0 50-10t40.5-27.5q17.5-17.5 27.5-40.5t10-50H896q0 27 10 50t27.5 40.5Q951 1772 974 1782t50 10z"/></svg>