<svg xmlns="http://www.w3.org/2000/svg" viewBox="0 0 2048 2048"><path d="M896 1664q0 26 10 49.5t27 41q17 17.5 40.5 27.5t49.5 10q23 65 57 121-14 3-28 5t-28 2q-53 0-99.5-20t-81.5-55q-35-35-55-81.5t-20-99.5H256v-128h128V768q0-88 23-170t64.5-153q41.5-71 100-129.5t129.5-100Q772 174 854 151t170-23q88 0 170 23t153 64.5q71 41.5 129.5 100t100 129.5q41.5 71 64.5 153t23 170v228q-16-2-32-3t-32-1q-16 0-32 1t-32 3V768q0-106-40.5-199t-110-162.5Q1316 337 1223 296.5T1024 256q-106 0-199 40.5t-162.5 110Q593 476 552.5 569T512 768v768h484q-2 16-3 32t-1 32q0 16 1 32t3 32H896m704-512q93 0 174.5 35t142.5 96q61 61 96 142.5t35 174.5q0 93-35 174.5t-96 142.5q-61 61-142.5 96t-174.5 35q-93 0-174.5-35t-142.5-96q-61-61-96-142.5t-35-174.5q0-93 35-174.5t96-142.5q61-61 142.5-96t174.5-35m-320 448q0 66 25 124.5t68.5 102q43.5 43.5 102 68.5t124.5 25q47 0 92-13.5t84-39.5l-443-443q-26 39-39.5 84t-13.5 92m587 176q26-39 39.5-84t13.5-92q0-66-25.5-124t-69-101.5q-43.5-43.5-101.5-69t-124-25.5q-47 0-92 13.5t-84 39.5l443 443z"/></svg>