<svg xmlns="http://www.w3.org/2000/svg" viewBox="0 0 2048 2048"><path d="M1024 768q53 0 99.5 20t81.5 55q35 35 55 81.5t20 99.5q0 53-20 99.5t-55 81.5q-35 35-81.5 55t-99.5 20q-53 0-99.5-20t-81.5-55q-35-35-55-81.5t-20-99.5q0-53 20-99.5t55-81.5q35-35 81.5-55t99.5-20m0 384q27 0 50-10t40.5-27.5q17.5-17.5 27.5-40.5t10-50q0-27-10-50t-27.5-40.5Q1097 916 1074 906t-50-10q-27 0-50 10t-40.5 27.5Q916 951 906 974t-10 50q0 27 10 50t27.5 40.5Q951 1132 974 1142t50 10m1024-128q0 140-37 272t-105.5 248.5Q1837 1661 1739 1757t-221 163h274v128h-512v-512h128v297q117-55 211.5-140t161.5-190.5q67-105.5 103-227.5t36-251q0-123-32-237.5t-90.5-214Q1739 473 1657 391t-181.5-140.5q-99.5-58.5-214-90.5T1024 128q-123 0-237.5 32t-214 90.5Q473 309 391 391T250.5 572.5Q192 672 160 786.5T128 1024H0q0-141 36.5-272t103-245q66.5-114 160-207.5t207.5-160Q621 73 751.5 36.5T1024 0q141 0 272 36.5t245 103q114 66.5 207.5 160t160 207.5q66.5 114 103 245t36.5 272z"/></svg>