<svg xmlns="http://www.w3.org/2000/svg" viewBox="0 0 2048 2048"><path d="M0 896q53 0 99.5-20t81.5-55q35-35 55-81.5t20-99.5q0-80 30-150t82-122q52-52 122-82t150-30v128q-53 0-99.5 20T459 459q-35 35-55 81.5T384 640q0 97-45 181.5T213 960q81 54 126 138.5t45 181.5q0 53 20 99.5t55 81.5q35 35 81.5 55t99.5 20v128q-80 0-150-30t-122-82q-52-52-82-122t-30-150q0-53-20-99.5t-55-81.5q-35-35-81.5-55T0 1024V896m2048-640v640H768V256h1280m-128 128H896v384h1024V384M768 1024h1280v640H768v-640m128 512h1024v-384H896v384z"/></svg>