<svg xmlns="http://www.w3.org/2000/svg" viewBox="0 0 2048 2048"><path d="M640 896q-27 0-50-10t-40.5-27.5Q532 841 522 818t-10-50q0-27 10-50t27.5-40.5Q567 660 590 650t50-10q27 0 50 10t40.5 27.5Q748 695 758 718t10 50q0 27-10 50t-27.5 40.5Q713 876 690 886t-50 10m768-256q27 0 50 10t40.5 27.5Q1516 695 1526 718t10 50q0 27-10 50t-27.5 40.5Q1481 876 1458 886t-50 10q-27 0-50-10t-40.5-27.5Q1300 841 1290 818t-10-50q0-27 10-50t27.5-40.5Q1335 660 1358 650t50-10M1024 0q141 0 272 36.5t245 103q114 66.5 207.5 160t160 207.5q66.5 114 103 245t36.5 272q0 141-36.5 272t-103 245q-66.5 114-160 207.5t-207.5 160q-114 66.5-245 103t-272 36.5q-141 0-272-36.5t-245-103q-114-66.5-207.5-160t-160-207.5q-66.5-114-103-244.5T0 1024q0-141 36.5-272t103-245q66.5-114 160-207.5t207.5-160Q621 73 751.5 36.5T1024 0m0 1920q123 0 237.5-32t214-90.5Q1575 1739 1657 1657t140.5-181.5Q1856 1376 1888 1262t32-238q0-123-32-237.5t-90.5-214Q1739 473 1657 391t-181.5-140.5q-99.5-58.5-214-90.5T1024 128q-123 0-237.5 32t-214 90.5Q473 309 391 391T250.5 572.5Q192 672 160 786.5T128 1024q0 123 32 237.5t90.5 214Q309 1575 391 1657t181.5 140.5Q672 1856 786 1888t238 32m0-640q138 0 261.5 56.5T1501 1496l-96 85q-74-83-171.5-128t-209.5-45q-112 0-209.5 45T643 1581l-96-85q92-103 215.5-159.5T1024 1280z"/></svg>