<svg xmlns="http://www.w3.org/2000/svg" viewBox="0 0 2048 2048"><path d="M1920 768q27 0 50 10t40.5 27.5Q2028 823 2038 846t10 50v1152H933l-165-165V896q0-27 10-50t27.5-40.5Q823 788 846 778t50-10h1024m-768 128v384h512V896h-512m512 1024v-256h-512v256h128v-128h128v128h256m256-1024h-128v512h-768V896H896v933l91 91h37v-384h768v384h128V896M256 640V128H128v933l91 91h37V768h384v128H384v256h128v-128h128v256H165L0 1115V128q0-27 10-50t27.5-40.5Q55 20 78 10t50-10h1024q27 0 50 10t40.5 27.5Q1260 55 1270 78t10 50v512h-128V128h-128v512H256m128-128h512V128H384v384z"/></svg>