<svg xmlns="http://www.w3.org/2000/svg" viewBox="0 0 2048 2048"><path d="M1848 896q42 0 78.5 15t63.5 41.5q27 26.5 42.5 63t15.5 78.5q0 39-15 76t-43 65l-717 717-377 94 94-377 717-716q29-29 65-43t76-14m51 249q21-21 21-51 0-31-20.5-50.5T1848 1024q-14 0-27 4.5t-23 14.5l-692 692-34 135 135-34 692-691M768 1536h128l-128 128H293l-165-165V256q0-27 10-50t27.5-40.5Q183 148 206 138t50-10h1280q27 0 50 10t40.5 27.5Q1644 183 1654 206t10 50v512l-128 128V256h-128v640H384V256H256v1189l91 91h37v-512h896v128l-128 128v-128H512v384h128v-256h128v256M512 768h768V256H512v512z"/></svg>