<svg xmlns="http://www.w3.org/2000/svg" viewBox="0 0 2048 2048"><path d="M576 768q26 0 45 19t19 45q0 26-19 45t-45 19q-26 0-45-19t-19-45q0-26 19-45t45-19m1102-324q84 39 152.5 99.5t117 136.5q48.5 76 74.5 163.5t26 180.5q0 79-18 154t-51 144q-33 69-80.5 130T1792 1565v163q0 40-15 75t-41 61q-26 26-61 41t-75 15h-128q-30 0-58.5-9t-52.5-26q-24-17-42-40.5t-28-52.5h-278q-10 29-28 52.5t-42 40.5q-24 17-52.5 26t-58.5 9H704q-40 0-75-15t-61-41q-26-26-41-61t-15-75v-80q-68-18-128.5-53T275 1511q-48-49-82.5-109T142 1273q-32-8-58-26t-44.5-42.5Q21 1180 10.5 1150T0 1088V960q0-34 11.5-65.5t32.5-57q21-25.5 49.5-43T156 771q74-104 162-194t194-162V57l399 199h123q14-56 45-103t74-81q43-34 96-53t111-19q69 0 130.5 26.5t107 72q45.5 45.5 72 107T1696 336q0 56-18 108m-318-316q-43 0-81 16.5t-66 44.5q-28 28-44.5 66t-16.5 81q0 35 10 65l342 85q30-29 47-68.5t17-81.5q0-43-16.5-81t-44.5-66q-28-28-66-44.5t-81-16.5m304 1378q57-46 104-99t81-113q34-60 52.5-127t18.5-143q0-76-22-147.5T1836 744q-40-61-96.5-109.5T1614 555q-17 21-37.5 38.5T1533 625l-462-115q-15-31-27-61t-17-65H881L640 264v218q-70 47-126 91.5t-104 93q-48 48.5-92.5 104T226 896q-17 0-34.5 1.5T160 905q-14 6-23 19t-9 36v128q0 26 19 45t45 19h64q0 80 30 149.5t82.5 122q52.5 52.5 122 82.5t149.5 30v192q0 26 19 45t45 19h128q26 0 45-19t19-45v-64h512q0 18-.5 40.5t4.5 42q5 19.5 18.5 32.5t41.5 13h128q26 0 45-19t19-45v-222z"/></svg>