<svg xmlns="http://www.w3.org/2000/svg" viewBox="0 0 2048 2048"><path d="M2048 128v768q-58-57-128-95V640H128v1152h707q-17 17-30 30.5t-23.5 27.5q-10.5 14-19.5 30.5t-16 39.5H0V128h384V0h128v128h1024V0h128v128h384m-128 384V256h-256v128h-128V256H512v128H384V256H128v256h1792m-256 384q79 0 149 30t122 82.5q52 52.5 82 122.5t30 149q0 80-30 149.5t-82 122q-52 52.5-122 82.5t-149 30q-60 0-116.5-18.5T1442 1592l-437 437q-19 19-45 19t-45-19q-19-19-19-45t19-45l437-437q-35-49-53.5-105.5T1280 1280q0-79 30-149t82.5-122.5q52.5-52.5 122-82.5t149.5-30m0 640q53 0 99.5-20t81.5-55q35-35 55-81.5t20-99.5q0-53-20-99.5t-55-81.5q-35-35-81.5-55t-99.5-20q-53 0-99.5 20t-81.5 55q-35 35-55 81.5t-20 99.5q0 53 20 99.5t55 81.5q35 35 81.5 55t99.5 20z"/></svg>