<svg xmlns="http://www.w3.org/2000/svg" viewBox="0 0 2048 2048"><path d="M1664 896q79 0 149 30.5t122 82.5q52 52 82.5 122t30.5 149q0 79-30.5 149t-82.5 122q-52 52-122 82.5t-149 30.5q-60 0-117-18t-105-53q-16 16-53.5 55.5t-86.5 90q-49 50.5-103.5 105t-102.5 100q-48 45.5-85 75t-51 29.5q-26 0-45-19t-19-45q0-14 29.5-51t75-85q45.5-48 100-102.5t105-103.5q50.5-49 90-86.5t55.5-53.5q-35-48-53-105t-18-117q0-79 30.5-149t82.5-122q52-52 122-82.5t149-30.5m0 640q52 0 99-20.5t81.5-55q34.5-34.5 55-81t20.5-99.5q0-52-20.5-99t-55-81.5q-34.5-34.5-81.5-55t-99-20.5q-53 0-99.5 20.5t-81 55q-34.5 34.5-55 81.5t-20.5 99q0 53 20.5 99.5t55 81q34.5 34.5 81 55t99.5 20.5M256 1408v-256H0V0h1536v256h256v530q-32-8-64-13t-64-5V384H384v896h768q0 32 5 64t13 64H256m0-384V256h1152V128H128v896h128z"/></svg>