<svg xmlns="http://www.w3.org/2000/svg" viewBox="0 0 2048 2048"><path d="M1344 0q97 0 187 25t168 71q78 46 142.5 110.5T1952 349q46 78 71 168t25 187q0 97-25 187t-71 168q-46 78-110.5 142.5T1699 1312q-78 46-168 71t-187 25q-125 0-239.5-42T894 1245l-785 784q-19 19-45 19t-45-19q-19-19-19-45t19-45l784-785q-79-96-121-210.5T640 704q0-97 25-187t71-168q46-78 110.5-142.5T989 96q78-46 168-71t187-25m0 1280q119 0 224-45.5t183-123.5q78-78 123.5-183t45.5-224q0-119-45.5-224T1751 297q-78-78-183-123.5T1344 128q-119 0-224 45.5T937 297q-78 78-123.5 183T768 704q0 119 45.5 224T937 1111q78 78 183 123.5t224 45.5z"/></svg>