<svg xmlns="http://www.w3.org/2000/svg" viewBox="0 0 2048 2048"><path d="M867 1461q65 33 118 81t90 108q37 60 57 128.5t20 141.5h-128q0-79-30-149t-82.5-122.5Q859 1596 789 1566t-149-30q-80 0-149.5 30t-122 82.5Q316 1701 286 1771t-30 149H128q0-73 20-141.5t57-128.5q37-60 90-108t118-81q-74-54-115.5-135.5T256 1152q0-79 30-149t82.5-122.5Q421 828 490.5 798T640 768q92 0 173.5 41.5T949 925q38-75 97.5-134.5T1181 694q-74-55-115.5-136.5T1024 384q0-79 30-149t82.5-122.5Q1189 60 1258.5 30T1408 0q79 0 149 30t122.5 82.5Q1732 165 1762 235t30 149q0 94-43 177t-120 137q47 25 90 59.5t78.5 76.5q35.5 42 62.5 90.5t43 99.5h-134q-22-52-59-98.5t-85-81.5q-48-35-103.5-55T1408 769q-80 0-149.5 30t-122 82q-52.5 52-82.5 122t-30 149q0 92-41.5 173.5T867 1461m541-1333q-53 0-99.5 20t-81.5 55q-35 35-55 81.5t-20 99.5q0 53 20 99.5t55 81.5q35 35 81.5 55t99.5 20q53 0 99.5-20t81.5-55q35-35 55-81.5t20-99.5q0-53-20-99.5t-55-81.5q-35-35-81.5-55t-99.5-20M384 1152q0 53 20 99.5t55 81.5q35 35 81.5 55t99.5 20q53 0 99.5-20t81.5-55q35-35 55-81.5t20-99.5q0-53-20-99.5T821 971q-35-35-81.5-55T640 896q-53 0-99.5 20T459 971q-35 35-55 81.5t-20 99.5m1664 384v512h-640v-512h64v-128q0-53 20-99.5t55-81.5q35-35 81.5-55t99.5-20q53 0 99.5 20t81.5 55q35 35 55 81.5t20 99.5v128h64m-448 0h256v-128q0-27-10-50t-27.5-40.5Q1801 1300 1778 1290t-50-10q-27 0-50 10t-40.5 27.5Q1620 1335 1610 1358t-10 50v128m320 128h-384v256h384v-256z"/></svg>