<svg xmlns="http://www.w3.org/2000/svg" viewBox="0 0 2048 2048"><path d="M0 128V0h128v128H0m0 256V256h128v128H0m0 256V512h128v128H0m0 256V768h128v128H0m0 256v-128h128v128H0m0 256v-128h128v128H0m0 256v-128h128v128H0m0 256v-128h128v128H0M1792 384V256h128v128h-128m0 256V512h128v128h-128m0 256V768h128v128h-128m0 256v-128h128v128h-128m0 256v-128h128v128h-128m0 256v-128h128v128h-128m0 256v-128h128v128h-128M384 0v128H256V0h128m256 0v128H512V0h128m256 0v128H768V0h128m256 0v128h-128V0h128m256 0v128h-128V0h128m128 128V0h128v128h-128M256 1920v-128h128v128H256m256 0v-128h128v128H512m256 0v-128h128v128H768m256 0v-128h128v128h-128m256 0v-128h128v128h-128m256 0v-128h128v128h-128M1792 0h128v128h-128V0m-256 384v1152H384V384h1152m-128 512V512h-384v384h384M896 512H512v384h384V512m-384 512v384h384v-384H512m512 384h384v-384h-384v384z"/></svg>