<svg xmlns="http://www.w3.org/2000/svg" viewBox="0 0 2048 2048"><path d="M960 0q51 0 97 6.5t89.5 20q43.5 13.5 85.5 34t85 47.5q72 46 144 75t146 45q74 16 152 22t161 6v512q0 146-36.5 277t-101 248.5Q1718 1411 1630 1515t-191 195.5q-103 91.5-217.5 170.5T991 2027l-31 18-31-18q-116-67-230.5-146T481 1710.5Q378 1619 290 1515t-152.5-221.5Q73 1176 36.5 1045T0 768V256q83 0 161-6t152-22q74-16 146-45t144-75q85-55 170-81.5T960 0m832 382q-149-8-285.5-48T1244 213q-68-44-135.5-64.5T960 128q-81 0-148.5 20.5T676 213q-126 81-262.5 121T128 382v386q0 127 33.5 244t91.5 223q58 106 138 200.5T563 1613q92 83 193.5 154T960 1897q102-59 203.5-130t193.5-154q92-83 172-177.5t138-200.5q58-106 91.5-223t33.5-244V382z"/></svg>