<svg xmlns="http://www.w3.org/2000/svg" viewBox="0 0 2048 2048"><path d="M256 1792q0 27 10 50t27.5 40.5Q311 1900 334 1910t50 10h640v128H384q-53 0-99.5-20t-81.5-55q-35-35-55-81.5t-20-99.5V512h256V384q0-79 30-149t82.5-122.5Q549 60 618.5 30T768 0q104 0 193 52 89-52 191-52 79 0 149 30t122.5 82.5Q1476 165 1506 235t30 149v128h256v128H256v1152M1408 384q0-53-20-99.5t-55-81.5q-35-35-81.5-55t-99.5-20q-45 0-85 15 29 36 46 71t25.5 70q8.5 35 11 71.5t2.5 76.5v80h256V384M512 512h512V384q0-53-20-99.5T949 203q-35-35-81.5-55T768 128q-53 0-99.5 20T587 203q-35 35-55 81.5T512 384v128m1408 256q27 0 50 10t40.5 27.5Q2028 823 2038 846t10 50v1152h-896V896q0-27 10-50t27.5-40.5Q1207 788 1230 778t50-10h640m0 128h-640v1024h640V896m-128 896h-384v-128h384v128m0-256h-384v-128h384v128m0-384h-384v-128h384v128z"/></svg>