<svg xmlns="http://www.w3.org/2000/svg" viewBox="0 0 2048 2048"><path d="M493 749l-274 275 274 275-90 90-366-365 366-365 90 90m806 806l90 90-365 366-365-366 90-90 275 274 275-274m712-531l-366 365-90-90 274-275-274-275 90-90 366 365M749 493l-90-90 365-366 365 366-90 90-275-274-275 274m275 147q79 0 149 30t122.5 82.5Q1348 805 1378 875t30 149q0 80-30 149.5t-82.5 122Q1243 1348 1173 1378t-149 30q-80 0-149.5-30t-122-82.5q-52.5-52.5-82.5-122T640 1024q0-79 30-149t82.5-122.5Q805 700 874.5 670t149.5-30m0 640q53 0 99.5-20t81.5-55q35-35 55-81.5t20-99.5q0-53-20-99.5t-55-81.5q-35-35-81.5-55t-99.5-20q-53 0-99.5 20T843 843q-35 35-55 81.5t-20 99.5q0 53 20 99.5t55 81.5q35 35 81.5 55t99.5 20z"/></svg>