<svg xmlns="http://www.w3.org/2000/svg" viewBox="0 0 2048 2048"><path d="M1973 1191q37 65 56 137t19 147q0 119-45 223.5t-122.5 182q-77.5 77.5-182 122.5t-223.5 45q-75 0-147-19t-137-56q-42 7-83.5 10.5t-83.5 3.5q-133 0-256-34.5t-230-97Q431 1793 343 1705t-150.5-195q-62.5-107-97-230T61 1024q0-42 3.5-83.5T75 857q-37-65-56-137T0 573q0-119 45-223.5t122.5-182Q245 90 349.5 45T573 0q75 0 147 19t137 56q42-7 83.5-10.5T1024 61q133 0 256 34.5t230 97Q1617 255 1705 343t150.5 195q62.5 107 97 230t34.5 256q0 42-3.5 83.5T1973 1191m-945 449q59 0 119-9t114.5-27.5Q1316 1585 1363 1555t81.5-71.5q34.5-41.5 54.5-96t20-123.5q0-88-31-147.5t-81.5-99q-50.5-39.5-115.5-63t-132.5-39q-67.5-15.5-132-27.5t-115-28.5Q861 843 830 817.5T799 749q0-40 17-66.5t44-43q27-16.5 61-23.5t68-7q62 0 104 13t71.5 32.5q29.5 19.5 50 42t39 42Q1272 758 1293 771t52 13q24 0 46-6.5t39-19.5q17-13 27-32.5t10-45.5q0-47-24-85.5t-63-68.5q-39-30-88.5-52.5t-100.5-37q-51-14.5-99.5-21.5t-84.5-7q-84 0-168 18.5T688 487q-67 42-108.5 109.5T538 763q0 72 20 125t57.5 91.5q37.5 38.5 91 64T826 1086q76 20 152 38.5t152 38.5q23 6 45 16t38.5 25q16.5 15 26.5 35t10 47q0 42-21.5 72.5T1174 1409q-33 20-72 29.5t-74 9.5q-68 0-112.5-16t-75-40.5q-30.5-24.5-51-53t-40-53q-19.5-24.5-43-40.5t-59.5-16q-49 0-83.5 30t-34.5 81q0 32 11.5 61.5T570 1457q36 53 90 88t115.5 56q61.5 21 127 30t125.5 9z"/></svg>