<svg xmlns="http://www.w3.org/2000/svg" viewBox="0 0 2048 2048"><path d="M1024 87q127 0 252.5 8.5T1527 130q125 26 226.5 88.5T1925 388q66 102 94.5 223.5T2048 853q0 98-15.5 185.5t-50 165.5q-34.5 78-89.5 147t-134 129q-154 118-306 233.5T1147 1946q-20 15-47 15-17 0-30.5-7t-24-18.5q-10.5-11.5-16-26t-5.5-30.5v-282H770q-61 0-124.5-5T520 1574q-62-13-121-36t-110-58q-78-54-133-124.5T66.5 1204Q32 1123 16 1034T0 853q0-124 28.5-242T126 388q72-109 170-170.5T521 130q125-26 250.5-34.5T1024 87m64 937q26 0 45-19t19-45q0-26-19-45t-45-19H576q-26 0-45 19t-19 45q0 26 19 45t45 19h512m380-256q29 0 48.5-17.5T1536 704q0-29-19.5-46.5T1468 640H580q-28 0-48 17.5T512 704q0 29 20 46.5t48 17.5h888z"/></svg>