<svg xmlns="http://www.w3.org/2000/svg" viewBox="0 0 2048 2048"><path d="M1761 1036q63 17 115.5 52.5t91 84.5q38.5 49 59.5 109t21 126q0 70-24 133.5t-67 114q-43 50.5-101.5 85T1728 1787v-131q42-11 77.5-34.5t61-56.5q25.5-33 39.5-73t14-84q0-55-20.5-102t-56.5-81q-36-34-84-53.5t-102-19.5q-12-82-51-152.5t-98-122q-59-51.5-134-80.5t-158-29q-77 0-146.5 25T943 862q-57 44-98.5 106T784 1103q-44-38-97-58.5T576 1024q-66 0-124.5 25t-102 68.5q-43.5 43.5-68.5 102T256 1344q0 48 13.5 92.5t39 82.5q25.5 38 60.5 68.5t79 49.5v136q-71-21-130-63t-101-98.5q-42-56.5-65.5-125T128 1344q0-77 25.5-148.5T227 1064q-81-55-136.5-134.5T14 754q58 14 114 14 106 0 199.5-40t163-109.5Q560 549 600 455.5T640 256q0-56-14-114 87 20 160 67t126 113q53 66 82.5 147.5T1024 640q0 8-.5 17t-1.5 17q47-17 95.5-25.5t98.5-8.5q93 0 178.5 29t157.5 81.5q72 52.5 126 125t83 160.5M723 921q60-101 156-171 17-56 17-110 0-85-35-161T761 348q-15 105-62 197T580.5 708.5Q509 780 417 827t-197 62q42 51 104 85 56-38 120-58t132-20q74 0 147 25m307 912q32 19 32 55 0 27-19 45.5t-45 18.5q-12 0-26-5.5t-27.5-13.5q-13.5-8-26-16t-22.5-14q0 19 1 44t-3.5 47.5q-4.5 22.5-18 38T832 2048q-30 0-44-15.5t-18.5-38q-4.5-22.5-3-47.5t1.5-44q-10 6-22.5 14t-26 16q-13.5 8-27.5 13.5t-26 5.5q-26 0-45.5-19t-19.5-45q0-18 9-32t24-23l70-41-70-41q-15-9-24-23t-9-32q0-26 19-45t45-19q13 0 27 5.5t27.5 13.5q13.5 8 26 16t22.5 14q0-19-1.5-44t3-47.5q4.5-22.5 18.5-38t44-15.5q30 0 43.5 15.5t18 38q4.5 22.5 3.5 47.5t-1 44q10-6 22.5-14t26-16q13.5-8 27.5-13.5t27-5.5q26 0 44.5 19t18.5 45q0 36-32 55l-70 41 70 41m481-329q26 0 44.5 19t18.5 45q0 36-32 55l-70 41 70 41q32 19 32 55 0 27-19 45.5t-45 18.5q-12 0-26-5.5t-27.5-13.5q-13.5-8-26-16t-22.5-14q0 19 1 44t-3.5 47.5q-4.5 22.5-18 38T1344 1920q-30 0-44-15.5t-18.5-38q-4.5-22.5-3-47.5t1.5-44q-10 6-22.5 14t-26 16q-13.5 8-27.5 13.5t-26 5.5q-26 0-45.5-19t-19.5-45q0-18 9-32t24-23l70-41-70-41q-15-9-24-23t-9-32q0-26 19-45t45-19q13 0 27 5.5t27.5 13.5q13.5 8 26 16t22.5 14q0-19-1.5-44t3-47.5q4.5-22.5 18.5-38t44-15.5q30 0 43.5 15.5t18 38q4.5 22.5 3.5 47.5t-1 44q10-6 22.5-14t26-16q13.5-8 27.5-13.5t27-5.5z"/></svg>