<svg xmlns="http://www.w3.org/2000/svg" viewBox="0 0 2048 2048"><path d="M1761 1036q63 17 115.5 52.5t91 84.5q38.5 49 59.5 109t21 126q0 70-24 133.5t-67 114q-43 50.5-101.5 85T1728 1787v-131q42-11 77.5-34.5t61-56.5q25.5-33 39.5-73t14-84q0-55-20.5-101.5t-56.5-81q-36-34.5-83.5-54T1658 1152q-12-82-51-152.5t-98-122q-59-51.5-134-80.5t-159-29q-77 0-146.5 25T943 862q-57 44-98.5 106T784 1103q-44-38-97-58.5T576 1024q-66 0-124.5 25t-102 68.5q-43.5 43.5-68.5 102T256 1344q0 48 13.5 92.5t39 82.5q25.5 38 60.5 68.5t79 49.5v136q-71-21-130-63t-101-98.5q-42-56.5-65.5-125T128 1344q0-67 19-129.5t54-116q35-53.5 84.5-95.5T396 934q-12-49-12-102 0-93 35-174.5T515 515q61-61 142.5-96T832 384q64 0 125 18t113.5 51.5q52.5 33.5 95 81T1235 640q90 3 172.5 33.5t152 82.5q69.5 52 121.5 123.5t80 156.5M723 921q61-103 158-173t214-95q-44-66-114-103.5T832 512q-66 0-124.5 25.5t-102 69Q562 650 537 708t-25 124q0 17 1.5 33.5T520 899q28-3 56-3 74 0 147 25m-467-25H0V768h256v128m123-426L198 289l91-91 181 181-91 91m517-214H768V0h128v256m389 214l-91-91 181-181 91 91-181 181m-255 1363q32 19 32 55 0 27-19 45.5t-45 18.5q-12 0-26-5.5t-27.5-13.5q-13.5-8-26-16t-22.5-14q0 19 1 44t-3.5 47.5q-4.5 22.5-18 38T832 2048q-30 0-44-15.5t-18.5-38q-4.5-22.5-3-47.5t1.5-44q-10 6-22.5 14t-26 16q-13.5 8-27.5 13.5t-26 5.5q-26 0-45-18.5t-19-45.5q0-36 32-55l70-41-70-41q-32-19-32-55 0-26 18.5-45t44.5-19q13 0 27 5.5t27.5 13.5q13.5 8 26 16t22.5 14q0-19-1.5-44t3-47.5q4.5-22.5 18.5-38t44-15.5q30 0 43.5 15.5t18 38q4.5 22.5 3.5 47.5t-1 44q10-6 22.5-14t26-16q13.5-8 27.5-13.5t27-5.5q26 0 44.5 19t18.5 45q0 36-32 55l-70 41 70 41m481-329q26 0 44.5 19t18.5 45q0 36-32 55l-70 41 70 41q32 19 32 55 0 27-19 45.5t-45 18.5q-12 0-26-5.5t-27.5-13.5q-13.5-8-26-16t-22.5-14q0 19 1 44t-3.5 47.5q-4.5 22.5-18 38T1344 1920q-30 0-44-15.5t-18.5-38q-4.5-22.5-3-47.5t1.5-44q-10 6-22.5 14t-26 16q-13.5 8-27.5 13.5t-26 5.5q-26 0-45-18.5t-19-45.5q0-36 32-55l70-41-70-41q-32-19-32-55 0-26 18.5-45t44.5-19q13 0 27 5.5t27.5 13.5q13.5 8 26 16t22.5 14q0-19-1.5-44t3-47.5q4.5-22.5 18.5-38t44-15.5q30 0 43.5 15.5t18 38q4.5 22.5 3.5 47.5t-1 44q10-6 22.5-14t26-16q13.5-8 27.5-13.5t27-5.5z"/></svg>