<svg xmlns="http://www.w3.org/2000/svg" viewBox="0 0 2048 2048"><path d="M1771 128q29 0 54.5 11t44.5 30q19 19 30 44.5t11 54.5v265h-249q-17-41-52.5-65t-79.5-24q-29 0-55 11t-45.5 30.5Q1410 505 1399 531t-11 55q0 19 5.5 36.5T1408 656l-265 306q-33-21-74-21-38 0-70 19t-52 51L603 834q5-18 5-35 0-29-11-55t-30.5-45.5Q547 679 521 668t-55-11q-45 0-81 25.5T333 750l-196-1V268q0-29 11-54.5t30-44.5q19-19 44.5-30t54.5-11h1494m-241 600q27 0 51-9.5t42.5-26q18.5-16.5 31-39T1670 604h241v664q0 29-11 54.5t-30 44.5q-19 19-44.5 30t-54.5 11h-663l-533 512 36-512H277q-29 0-54.5-11t-44.5-30q-19-19-30-44.5t-11-54.5V820l189 1q4 26 16.5 48t31.5 38q19 16 42.5 25t49.5 9q29 0 56-12t47-33l359 184q0 1-.5 1.5t-.5 1.5q-1 29 10.5 54.5t31.5 45q20 19.5 46 30.5t54 11q29 0 55-11t45.5-30q19.5-19 30.5-45t11-55q0-38-19-69l265-307q17 10 35 15.5t38 5.5z"/></svg>