<svg xmlns="http://www.w3.org/2000/svg" viewBox="0 0 2048 2048"><path d="M512 256v1664h1024V256H512m1152 1792H384V128h1280v1920m-640-896q-79 0-149-30.5T753 1039q-52-52-82.5-122T640 768q0-79 30.5-149T753 497q52-52 122-82.5t149-30.5q79 0 149 30.5t122 82.5q52 52 82.5 122t30.5 149q0 79-30.5 149t-82.5 122q-52 52-122 82.5t-149 30.5m0-640q-53 0-99.5 20.5t-81 55Q809 622 788.5 669T768 768q0 53 20.5 99.5t55 81q34.5 34.5 81 55t99.5 20.5q52 0 99-20.5t81.5-55q34.5-34.5 55-81T1280 768q0-52-20.5-99t-55-81.5q-34.5-34.5-81.5-55t-99-20.5m0 1280q-53 0-99.5-20.5t-81-55q-34.5-34.5-55-81T768 1536q0-52 20.5-99t55-81.5q34.5-34.5 81-55t99.5-20.5q52 0 99 20.5t81.5 55q34.5 34.5 55 81.5t20.5 99q0 53-20.5 99.5t-55 81q-34.5 34.5-81.5 55t-99 20.5m0-384q-27 0-50 10t-40.5 27.5Q916 1463 906 1486t-10 50q0 27 10 50t27.5 40.5Q951 1644 974 1654t50 10q27 0 50-10t40.5-27.5q17.5-17.5 27.5-40.5t10-50q0-27-10-50t-27.5-40.5Q1097 1428 1074 1418t-50-10m-96-640q0-19 7.5-36.5t21-31q13.5-13.5 30.5-21t37-7.5q19 0 36.5 7.5t31 21q13.5 13.5 21 31t7.5 36.5q0 20-7.5 37t-21 30.5q-13.5 13.5-31 21T1024 864q-20 0-37-7.5t-30.5-21Q943 822 935.5 805t-7.5-37z"/></svg>