<svg xmlns="http://www.w3.org/2000/svg" viewBox="0 0 2048 2048"><path d="M960 0q132 0 254.5 34.5t229.5 97q107 62.5 194.5 150t150 194.5q62.5 107 97 229.5T1920 960q0 132-34.5 254.5t-97 229.5q-62.5 107-150 194.5t-194.5 150q-107 62.5-229.5 97T960 1920q-132 0-254.5-34.5t-229.5-97q-107-62.5-194.5-150t-150-194.5q-62.5-107-97-229.5T0 960q0-132 34.5-254.5t97-229.5q62.5-107 150-194.5t194.5-150q107-62.5 229.5-97T960 0m0 1792q115 0 221-30t198.5-84q92.5-54 168.5-130t130-168.5q54-92.5 84-198.5t30-221q0-115-30-221t-84-198.5Q1624 448 1548 372t-168.5-130q-92.5-54-198.5-84t-221-30q-115 0-221 30t-198.5 84Q448 296 372 372T242 540.5Q188 633 158 739t-30 221q0 115 30 221t84 198.5q54 92.5 130 168.5t168.5 130q92.5 54 198.5 84t221 30m172-916q20 40 20 84 0 40-15 75t-41 61q-26 26-61 41t-75 15q-40 0-75-15t-61-41q-26-26-41-61t-15-75q0-40 15-75t41-61q26-26 61-41t75-15q44 0 84 20l-1-1 368-368 90 90-368 368-1-1m-172 148q26 0 45-19t19-45q0-26-19-45t-45-19q-26 0-45 19t-19 45q0 26 19 45t45 19m640-352q31 68 46.5 140.5T1662 960q0 140-52.5 269.5T1458 1458l-91-91q81-81 125-185t44-219q0-124-52-239l116-52m-404-236q-115-52-239-52-79 0-152 20.5T668 463q-64 38-116 90.5T462.5 670q-37.5 64-58 137.5T384 960q0 115 44 220.5T553 1367l-91 91q-100-100-153-228.5T256 960q0-97 25-187t71-168q46-78 110-142t142-109.5Q682 308 772 283t188-25q75 0 147.5 15.5T1248 320l-52 116z"/></svg>