<svg xmlns="http://www.w3.org/2000/svg" viewBox="0 0 2048 2048"><path d="M1600 1408q66 0 124 25.5t101.5 69q43.5 43.5 69 101.5t25.5 124q0 66-25.5 124.5t-69 102Q1782 1998 1724 2023t-124 25q-66 0-124.5-25t-102-68.5q-43.5-43.5-68.5-102t-25-124.5q0-74 32.5-140t90.5-112l-302-603q-69 23-141 23t-141-23l-302 603q58 46 90.5 112t32.5 140q0 66-25.5 124.5t-69 102Q502 1998 444 2023t-124 25q-66 0-124.5-25t-102-68.5Q50 1911 25 1852.5T0 1728q0-66 25-124t68.5-101.5q43.5-43.5 102-69T320 1408q41 0 83 11l302-603q-45-31-81-71.5T563 656q-25-48-38-100.5T512 448q0-93 35-174.5T643 131q61-61 142.5-96T960 0q93 0 174.5 35t142.5 96q61 61 96 142.5t35 174.5q0 55-13 107.5T1357 656q-25 48-61 88.5t-81 71.5l302 603q42-11 83-11M320 1920q40 0 75-15t61-41q26-26 41-61t15-75q0-40-15-75t-41-61q-26-26-61-41t-75-15q-40 0-75 15t-61 41q-26 26-41 61t-15 75q0 40 15 75t41 61q26 26 61 41t75 15M640 448q0 66 25 124.5t68.5 102Q777 718 835.5 743T960 768q66 0 124-25t101.5-68.5q43.5-43.5 69-102T1280 448q0-66-25.5-124t-69-101.5q-43.5-43.5-101.5-69T960 128q-66 0-124.5 25.5t-102 69Q690 266 665 324t-25 124m960 1472q40 0 75-15t61-41q26-26 41-61t15-75q0-40-15-75t-41-61q-26-26-61-41t-75-15q-40 0-75 15t-61 41q-26 26-41 61t-15 75q0 40 15 75t41 61q26 26 61 41t75 15z"/></svg>