<svg xmlns="http://www.w3.org/2000/svg" viewBox="0 0 2048 2048"><path d="M2042 1728l-301 301-90-90 147-147h-383q83-56 152-128h231l-147-147 90-90 301 301m-378-704q0 106-27.5 204t-77.5 183.5q-50 85.5-120 155.5t-155.5 120q-85.5 50-183.5 77.5T896 1792H0v-128h896q88 0 170-23t153-64.5q71-41.5 129.5-100t100-129.5q41.5-71 64.5-153t23-170q0-88-23-170t-64.5-153q-41.5-71-100-129.5t-129.5-100q-71-41.5-153-64.5t-170-23q-7 0-14 .5t-15 1.5h-6l144 145-90 90-301-301L915 19l90 90-148 148q10-1 19.5-1H896q106 0 204 27.5t183.5 77.5q85.5 50 155.5 120t120 155.5q50 85.5 77.5 183.5t27.5 204M325 1536q-95-106-146-237.5T128 1024q0-94 22.5-184.5t65.5-172q43-81.5 104.5-151T460 393l93 93q-69 44-124 103t-93.5 128.5q-38.5 69.5-59 147T256 1024q0 76 18 148.5t51.5 138q33.5 65.5 81.5 123T516 1536H325z"/></svg>