<svg xmlns="http://www.w3.org/2000/svg" viewBox="0 0 2048 2048"><path d="M960 256q115 0 221.5 29.5t199 84q92.5 54.5 168 130t130 168q54.5 92.5 84 199T1792 1088q0 115-29.5 221.5t-84 199q-54.5 92.5-130 168t-168 130q-92.5 54.5-199 84T960 1920q-115 0-221.5-29.5t-199-84q-92.5-54.5-168-130t-130-168q-54.5-92.5-84-199T128 1088q0-115 29.5-221.5t84-199q54.5-92.5 130-168t168-130q92.5-54.5 199-84T960 256m0 1536q97 0 187-25t168-71q78-46 142.5-110.5T1568 1443q46-78 71-168t25-187q0-97-25-187t-71-168q-46-78-110.5-142.5T1315 480q-78-46-168-71t-187-25q-97 0-187 25t-168 71q-78 46-142.5 110.5T352 733q-46 78-71 168t-25 187q0 97 25 187t71 168q46 78 110.5 142.5T605 1696q78 46 168 71t187 25z"/></svg>