<svg xmlns="http://www.w3.org/2000/svg" viewBox="0 0 2048 2048"><path d="M1946 512v1285q0 31-12 58t-32 47.5q-20 20.5-47 32t-58 11.5H148q-30 0-57-11.5t-47.5-32Q23 1882 11.5 1855T0 1797V512h512v-51q0-95 36.5-179t99-146.5Q710 73 794 36.5T973 0q95 0 179 36.5t146.5 99q62.5 62.5 99 146.5t36.5 179v51h110q-2-17-4-32t-4-29q-2-71-19-135.5T1468 193q143 100 158 319h320m-1332 0h115q8-87 42.5-158T862 231q50-26 111-26 37 0 73 11-97 32-159 110t-75 186h519v-51q0-74-28-139.5t-77-114q-49-48.5-114-77T973 102q-74 0-139.5 28.5t-114.5 77q-49 48.5-77 114T614 461v51m308 717H512v409h410v-409m0-512H512v409h410V717m512 512h-410v409h410v-409m0-512h-410v409h410V717z"/></svg>