<svg xmlns="http://www.w3.org/2000/svg" viewBox="0 0 2048 2048"><path d="M1024 779q51 0 95.5 19.5T1197 851q33 33 52.5 77.5t19.5 95.5q0 51-19.5 95.5T1197 1197q-33 33-77.5 52.5T1024 1269q-51 0-95.5-19.5T851 1197q-33-33-52.5-77.5T779 1024q0-51 19.5-95.5T851 851q33-33 77.5-52.5T1024 779m0 384q29 0 54.5-11t44-29.5q18.5-18.5 29.5-44t11-54.5q0-29-11-54.5t-29.5-44q-18.5-18.5-44-29.5t-54.5-11q-29 0-54.5 11t-44 29.5Q907 944 896 969.5t-11 54.5q0 29 11 54.5t29.5 44q18.5 18.5 44 29.5t54.5 11m716-855q72 71 127 154t93 174q38 91 57.5 189t19.5 199q0 101-19.5 199t-57.5 189q-38 91-93 174t-127 154l-75-75q64-64 113.5-138t83-156q33.5-82 51-169.5T1930 1024q0-90-17.5-177.5t-51-169.5q-33.5-82-83-156T1665 383l75-75M383 383q-64 64-113.5 138T186 677q-34 82-51.5 169.5T117 1024q0 90 17.5 177.5T186 1371q34 82 83.5 156T383 1665l-75 75q-72-71-127-154t-93-174q-38-91-57.5-189T11 1024q0-101 19.5-199T88 636q38-91 93-174t127-154l75 75m1086 196q89 90 136.5 204.5T1653 1024q0 126-47.5 240.5T1469 1469l-75-75q74-74 113.5-169.5T1547 1024q0-105-39.5-200.5T1394 654l75-75m-815 75q-74 74-113.5 169.5T501 1024q0 105 39.5 200.5T654 1394l-75 75q-89-90-136.5-204.5T395 1024q0-126 47.5-240.5T579 579l75 75z"/></svg>