<svg xmlns="http://www.w3.org/2000/svg" viewBox="0 0 2048 2048"><path d="M1269 1024q0 51-19.5 95.5T1197 1197q-33 33-77.5 52.5T1024 1269q-51 0-95.5-19.5T851 1197q-33-33-52.5-77.5T779 1024q0-51 19.5-95.5T851 851q33-33 77.5-52.5T1024 779q51 0 95.5 19.5T1197 851q33 33 52.5 77.5t19.5 95.5m-245 139q29 0 54.5-11t44-29.5q18.5-18.5 29.5-44t11-54.5q0-29-11-54.5t-29.5-44q-18.5-18.5-44-29.5t-54.5-11q-29 0-54.5 11t-44 29.5Q907 944 896 969.5t-11 54.5q0 29 11 54.5t29.5 44q18.5 18.5 44 29.5t54.5 11M383 383q-64 64-113.5 138T186 676.5q-34 81.5-51.5 169T117 1024q0 91 17.5 178.5t51.5 169q34 81.5 83.5 155.5T383 1665l-75 75q-144-144-220.5-328T11 1024q0-204 76.5-388T308 308l75 75m271 271q-75 75-114 170t-39 200q0 105 39 200t114 170l-75 75q-89-90-136.5-204.5T395 1024q0-126 47.5-240.5T579 579l75 75m946 338q-27 0-54 3-5-97-44.5-184.5T1394 654l75-75q84 84 130.5 191t51.5 225q-26-3-51-3m328 98q2-17 2-33v-32q0-90-17.5-178t-51-169.5q-33.5-81.5-83-156T1665 383l75-75q71 71 126 154t92.5 174.5q37.5 91.5 57 189T2035 1024q0 36-2.5 72t-7.5 72q-22-22-46.5-41.5T1928 1090m-328 62q93 0 174.5 35t142.5 96q61 61 96 142.5t35 174.5q0 93-35 174.5t-96 142.5q-61 61-142.5 96t-174.5 35q-93 0-174.5-35t-142.5-96q-61-61-96-142.5t-35-174.5q0-93 35-174.5t96-142.5q61-61 142.5-96t174.5-35m-320 448q0 66 25 124.5t68.5 102q43.5 43.5 102 68.5t124.5 25q47 0 92-13.5t84-39.5l-443-443q-26 39-39.5 84t-13.5 92m587 176q26-39 39.5-84t13.5-92q0-66-25.5-124t-69-101.5q-43.5-43.5-101.5-69t-124-25.5q-47 0-92 13.5t-84 39.5l443 443z"/></svg>