<svg xmlns="http://www.w3.org/2000/svg" viewBox="0 0 2048 2048"><path d="M896 1663h128v128H896v-128m64-960q66 0 124 25.5t101.5 69q43.5 43.5 69 101.5t25.5 124q0 60-19 105t-47.5 80.5q-28.5 35.5-61.5 65t-61.5 59.5q-28.5 30-47.5 63t-19 75v64H896v-64q0-60 19-104.5t47.5-80Q991 1251 1024 1221t61.5-59.5q28.5-29.5 47.5-62.5t19-76q0-39-15-74t-41.5-61.5Q1069 861 1034 846t-74-15q-39 0-74 15t-61.5 41.5Q798 914 783 949t-15 74H640q0-66 25-124t68.5-101.5q43.5-43.5 102-69T960 703m832-154v1499H128V0h1120l544 549m-507-37h290l-290-292v292m379 1408V640h-507V128H256v1792h1408z"/></svg>