<svg xmlns="http://www.w3.org/2000/svg" viewBox="0 0 2048 2048"><path d="M531 891q0-14 11.5-28.5T572 834q18-14 40.5-27.5t45-25Q680 770 700 761t33-15l9-4q140-62 287-105.5t296-79.5q180-44 360-79.5t363-61.5v410q-124 5-246.5 16.5T1556 867l-33 3q-131 14-259 27.5T1005 922q-82 7-164 13.5T677 942q-11 0-35-1t-49-6.5q-25-5.5-43.5-15.5T531 891m1517-635q-235 57-467.5 113.5T1114 486q-280 72-563 157.5T0 838V256h2048m-401 912q0 21-24.5 44t-57 43q-32.5 20-65 35t-47.5 22q-60 27-135.5 52.5t-154.5 48q-79 22.5-156.5 42.5T864 1491q-215 54-429.5 95T0 1658v-436q51-5 102.5-6.5T205 1210q153-12 304.5-27t303.5-31q76-8 157-17t163-16.5q82-7.5 163-12.5t157-5q15 0 47 1.5t65 8q33 6.5 57.5 20t24.5 37.5M89 1510q19 0 19-19t-19-19q-8 0-13.5 5.5T70 1491q0 8 5.5 13.5T89 1510m0-128q19 0 19-19t-19-19q-8 0-13.5 5.5T70 1363q0 8 5.5 13.5T89 1382m71 128q19 0 19-19t-19-19q-19 0-19 19t19 19m0-128q19 0 19-19t-19-19q-19 0-19 19t19 19M0 1786q255-35 505.5-91.5T1005 1574q265-67 526.5-144t516.5-176v532H0z"/></svg>