<svg xmlns="http://www.w3.org/2000/svg" width="2048" height="1836" viewBox="0 0 2048 1836">
  <path d="M1544.78484,1708.22664 C1303.54305,1847.58551 971.842052,1861.90391 638.125107,1718.87498 C367.920865,1603.91425 143.721592,1402.68127 1.77635684e-15,1172.75981 C68.9867775,1230.24018 149.469628,1276.24514 235.700515,1316.46072 C580.334595,1477.99503 924.896307,1466.93316 1167.37868,1316.87425 C1167.22361,1316.71918 1167.12022,1316.6158 1167.01684,1316.46072 C822.082955,1052.00969 528.891735,707.075801 310.445668,425.411669 C264.435529,379.417038 229.942141,321.926334 195.448752,270.188835 C459.894619,511.637387 879.578828,816.304003 1029.01744,902.576244 C712.875428,569.117753 431.159605,155.228103 442.635002,166.7035 C942.796892,672.603088 1408.4809,960.05661 1408.4809,960.05661 C1423.88481,968.740694 1435.77374,975.97743 1445.33657,982.438802 C1455.41631,956.800078 1464.25547,930.179225 1471.69897,902.576244 C1552.18182,609.385024 1460.22357,275.926533 1258.9906,0.0001 C1724.62291,281.690077 2000.60104,810.566305 1885.58862,1253.24783 C1882.59054,1265.18844 1879.33401,1276.97399 1875.81902,1288.55277 C1877.16299,1290.15519 1878.50695,1291.8093 1879.85092,1293.5151 C2109.77238,1580.96862 2046.55432,1885.63524 2017.81413,1828.15487 C1893.08381,1584.07008 1662.18021,1658.71185 1544.79001,1708.23181 L1544.78484,1708.22664 Z"/>
</svg>
