<svg xmlns="http://www.w3.org/2000/svg" viewBox="0 0 2048 2048"><path d="M1792 256h128v512h-512V640h281q-51-88-122.5-159t-158-121q-86.5-50-184-77T1024 256q-138 0-263 46.5t-225.5 129Q435 514 365.5 628T270 877l-126-25q20-105 63.5-199t106-174.5Q376 398 454.5 333T624 222.5q91-45.5 192-70t208-24.5q118 0 230 30.5t211.5 87q99.5 56.5 183 136.5T1792 562V256m-768 1536q138 0 263-46.5t225.5-129q100.5-82.5 170-196T1778 1172l125 24q-30 158-111 290.5t-198 229q-117 96.5-263.5 150.5t-306.5 54q-119 0-231.5-30.5T581 1803q-99-56-182-136.5T256 1486v306H128v-512h512v128H359q51 89 122.5 160T639 1688.5q86 49.5 183.5 76.5t201.5 27z"/></svg>