<svg xmlns="http://www.w3.org/2000/svg" viewBox="0 0 2048 2048"><path d="M2048 256v512h-512V640h316q-59-117-146.5-211.5t-195.5-161q-108-66.5-231.5-103T1024 128q-154 0-295.5 47.5t-258 134q-116.5 86.5-203 208T136 787L14 749q50-166 149-304t232.5-237q133.5-99 294-153.5T1024 0q137 0 267 34t245.5 98.5Q1652 197 1750 289.5T1920 499V256h128M196 1408q59 117 146.5 211.5t195.5 161q108 66.5 231.5 103T1024 1920h128v118q-32 4-64 7t-64 3q-136 0-266-34.5T512 1914q-116-65-214-157t-170-208v243H0v-512h511v128H196m956-256h896v640h-384v128h127v128h-383v-128h128v-128h-384v-640m128 512h640v-384h-640v384z"/></svg>