<svg xmlns="http://www.w3.org/2000/svg" viewBox="0 0 2048 2048"><path d="M1920 1035q29 10 52.5 28t40.5 42q17 24 26 52.5t9 58.5v256q0 119-45.5 224T1879 1879q-78 78-183 123.5t-224 45.5q-110 0-208.5-39T1088 1901q-77-69-127-162.5T899 1536H128q-27 0-50-10t-40.5-27.5Q20 1481 10 1458t-10-50V256q0-27 10-50t27.5-40.5Q55 148 78 138t50-10h1664q27 0 50 10t40.5 27.5Q1900 183 1910 206t10 50v779M896 1280q0-53 20-99.5t55-81.5q35-35 81.5-55t99.5-20V704q0-40 15-75t41-61q26-26 61-41t75-15q40 0 74.5 15t60.5 41q26 26 41 61t15 75q0 81 .5 160t.5 160h256V256H128v1152h768v-128m1024-64q0-26-19-45t-45-19h-448V704q0-26-19-45t-45-19q-26 0-45 19t-19 45v768q0 26-19 45t-45 19q-26 0-45-19t-19-45v-320q-27 0-50 10t-40.5 27.5Q1044 1207 1034 1230t-10 50v192q0 93 35.5 174.5t96 142q60.5 60.5 142 96T1472 1920q93 0 174.5-35.5t142-96q60.5-60.5 96-142T1920 1472v-256z"/></svg>