<svg xmlns="http://www.w3.org/2000/svg" viewBox="0 0 2048 2048"><path d="M1664 1088q66 0 124.5 25t102 68.5q43.5 43.5 68.5 102t25 124.5q0 52-16.5 101t-47.5 91v424l-256-128-256 128v-424q-31-42-47.5-91t-16.5-101q0-66 25-124.5t68.5-102q43.5-43.5 102-68.5t124.5-25m0 128q-40 0-75 15t-61 41q-26 26-41 61t-15 75q0 40 15 75t41 61q26 26 61 41t75 15q40 0 75-15t61-41q26-26 41-61t15-75q0-40-15-75t-41-61q-26-26-61-41t-75-15m128 600v-115q-60 27-128 27t-128-27v115l128-64 128 64M1664 512q-53 0-99.5 20t-81.5 55q-35 35-55 81.5t-20 99.5q0 92-41.5 173.5T1251 1078q19 9 36.5 20t34.5 23l-75 104q-49-35-106-54t-117-19q-80 0-149.5 30t-122 82.5Q700 1317 670 1387t-30 149H512q0-73 20-141.5t57-128q37-59.5 89.5-108T796 1077q-74-55-115-136t-41-173q0-53-20-99.5T565 587q-35-35-81.5-55T384 512q-53 0-99.5 20T203 587q-35 35-55 81.5T128 768H0q0-52 14-101.5t39.5-93Q79 530 115.5 494t82.5-62q-33-35-51.5-81T128 256q0-53 20-99.5T203 75q35-35 81.5-55T384 0q53 0 99.5 20T565 75q35 35 55 81.5t20 99.5q0 49-18.5 95T570 432q82 45 134 124 27-40 62-72t76-54q41-22 87.5-34t94.5-12q48 0 94 12t87.5 34q41.5 22 76.5 54t62 72q52-79 134-124-33-35-51.5-81t-18.5-95q0-53 20-99.5t55-81.5q35-35 81.5-55T1664 0q53 0 99.5 20t81.5 55q35 35 55 81.5t20 99.5q0 49-18.5 95t-51.5 81q46 26 82.5 62t62 79.5q25.5 43.5 39.5 93t14 101.5h-128q0-53-20-99.5t-55-81.5q-35-35-81.5-55t-99.5-20m-128-256q0 27 10 50t27.5 40.5Q1591 364 1614 374t50 10q27 0 50-10t40.5-27.5Q1772 329 1782 306t10-50q0-27-10-50t-27.5-40.5Q1737 148 1714 138t-50-10q-27 0-50 10t-40.5 27.5Q1556 183 1546 206t-10 50m-1280 0q0 27 10 50t27.5 40.5Q311 364 334 374t50 10q27 0 50-10t40.5-27.5Q492 329 502 306t10-50q0-27-10-50t-27.5-40.5Q457 148 434 138t-50-10q-27 0-50 10t-40.5 27.5Q276 183 266 206t-10 50m512 512q0 53 20 99.5t55 81.5q35 35 81.5 55t99.5 20q53 0 99.5-20t81.5-55q35-35 55-81.5t20-99.5q0-53-20-99.5t-55-81.5q-35-35-81.5-55t-99.5-20q-53 0-99.5 20T843 587q-35 35-55 81.5T768 768z"/></svg>