<svg xmlns="http://www.w3.org/2000/svg" viewBox="0 0 2048 2048"><path d="M1536 1024q106 0 199.5 40t163 109.5q69.5 69.5 109.5 163t40 199.5q0 106-40 199.5t-109.5 163q-69.5 69.5-163 109.5t-199.5 40q-106 0-199.5-40t-163-109.5q-69.5-69.5-109.5-163t-40-199.5q0-106 40-199.5t109.5-163q69.5-69.5 163-109.5t199.5-40m0 896q79 0 149-30t122.5-82.5q52.5-52.5 82.5-122t30-149.5q0-79-30-149t-82.5-122.5Q1755 1212 1685 1182t-149-30q-80 0-149.5 30t-122 82.5Q1212 1317 1182 1387t-30 149q0 80 30 149.5t82.5 122q52.5 52.5 122 82.5t149.5 30m0-384h192v128h-320v-384h128v256m-366-524q-28 20-53 42t-48 47q-69-37-145.5-57T768 1024q-88 0-170 23t-153 64.5q-71 41.5-129.5 100t-100 129.5q-41.5 71-64.5 153t-23 170H0q0-120 35.5-231T136 1228q65-94 156.5-167T496 946q-113-74-176.5-186T256 512q0-106 40-199.5t109.5-163Q475 80 568.5 40T768 0q106 0 199.5 40t163 109.5q69.5 69.5 109.5 163t40 199.5q0 66-16.5 129T1216 760.5q-31 56.5-76 104T1039 946q70 28 131 66M384 512q0 80 30 149.5t82.5 122Q549 836 618.5 866T768 896q79 0 149-30t122.5-82.5q52.5-52.5 82.5-122t30-149.5q0-79-30-149t-82.5-122.5Q987 188 917 158t-149-30q-80 0-149.5 30t-122 82.5Q444 293 414 363t-30 149z"/></svg>