<svg xmlns="http://www.w3.org/2000/svg" viewBox="0 0 2048 2048"><path d="M1024 0q141 0 272 36.5t245 103q114 66.5 207.5 160t160 207.5q66.5 114 103 245t36.5 272q0 141-36.5 272t-103 245q-66.5 114-160 207.5t-207.5 160q-114 66.5-245 103t-272 36.5q-141 0-272-36.5t-245-103q-114-66.5-207.5-160t-160-207.5q-66.5-114-103-244.5T0 1024q0-141 36.5-272t103-245q66.5-114 160-207.5t207.5-160Q621 73 751.5 36.5T1024 0m0 128q-123 0-237.5 32t-214 90.5Q473 309 391 391T250.5 572.5Q192 672 160 786.5T128 1024q0 65 9 128 122-2 219.5-49T530 980q76-76 131.5-174T756 603q24-66 54.5-130.5t67.5-125q37-60.5 81.5-116T1057 129q-8-1-16.5-1H1024M165 1279q32 108 90 204t136 174q78 78 174 136t204 90q8-140 62.5-252t141-199q86.5-87 197.5-151t233-109q66-24 138-60t139-82.5q67-46.5 123-102.5t90-121q-30-120-90.5-225T1657 391q-85-85-190-145.5T1242 155q-65 34-121 90t-102.5 123Q972 435 936 507t-60 138q-45 122-109 233t-151 197.5q-87 86.5-199 141T165 1279m859 641q123 0 237.5-32t214-90.5Q1575 1739 1657 1657t140.5-181.5Q1856 1376 1888 1262t32-238v-16.5q0-8.5-1-16.5-47 53-102.5 97.5t-116 81.5q-60.5 37-125 67.5T1445 1292q-105 39-203 94.5T1068 1518q-76 76-123 173.5T896 1911q63 9 128 9z"/></svg>