<svg xmlns="http://www.w3.org/2000/svg" viewBox="0 0 2048 2048"><path d="M2048 0v2048H0V0h2048m-128 128H128v1792h1792V128M397 894H283l235-628h117l234 628H754l-56-160H451l-54 160m176-535q-2 10-3.5 20t-4.5 20l-87 250h193l-88-250q-3-9-4.5-19.5T575 359h-2m460 535H931V230h102v294h1q26-43 63.5-66t88.5-23q48 0 82.5 18.5T1325 503q22 31 32 71t10 83q0 48-11.5 92.5t-35.5 79q-24 34.5-62 55t-92 20.5q-86 0-132-75h-1v65m-1-188q0 24 8 45.5t22 37.5q14 16 34.5 25.5t45.5 9.5q35 0 58-15t37-39q14-24 20-54t6-59q0-26-6-51.5t-19-45.5q-13-20-34.5-32t-51.5-12q-29 0-51.5 11t-37.5 29.5q-15 18.5-23 43t-8 51.5v55m632 198q-50 0-91-16.5t-70-46q-29-29.5-45-70.5t-16-91q0-55 17-100t48.5-77.5q31.5-32.5 76-50T1684 435q28 0 55 5t53 16v95q-22-16-47.5-25.5T1692 516q-35 0-62 12.5t-45.5 33.5q-18.5 21-28.5 50t-10 62q0 66 37 108t105 42q29 0 55-10.5t49-28.5v88q-29 17-62 24t-66 7M438 1792q-48 0-82.5-19t-56.5-50.5q-22-31.5-32.5-71.5t-10.5-83q0-47 11.5-91t36.5-78.5q25-34.5 62.5-55T457 1323q43 0 77 17.5t55 55.5h2v-278h101v664H591v-77h-2q-50 87-151 87m44-388q-35 0-58.5 14t-37.5 36.5q-14 22.5-20 51t-6 58.5q0 27 6 53.5t20 47.5q14 21 35.5 34t53.5 13q28 0 50-11t37-30q15-19 22.5-43.5t7.5-50.5v-59q0-48-30.5-81t-79.5-33m530-81q51 0 87 17.5t59.5 47.5q23.5 30 34.5 71t11 87v39H899q2 63 39 96.5t99 33.5q36 0 69.5-11.5t62.5-31.5v81q-36 23-78 31t-84 8q-54 0-93.5-17.5T848 1726q-26-31-39-73.5t-13-93.5q0-48 15-90.5t43-75q28-32.5 68-51.5t90-19m94 190q0-23-5.5-44t-17-36.5q-11.5-15.5-30-25t-43.5-9.5q-24 0-43.5 9.5T933 1433q-14 16-22.5 37t-11.5 43h207m226-252q0-36 12.5-64t34.5-48q22-20 51.5-30.5t64.5-10.5q15 0 30 2t29 7v84q-21-12-47-12-41 0-57.5 23t-16.5 61v60h104v80h-103v369h-102v-369h-76v-80h76v-72z"/></svg>