<svg xmlns="http://www.w3.org/2000/svg" viewBox="0 0 2048 2048"><path d="M1408 1024H512V896h896v128m-896 128h896v56q-41 32-72 72H512v-128m0 256h756q-20 63-20 128H512v-128m-256 512h880q-16 61-16 128H128V0h1115l549 549v591q-63-20-128-20V640h-512V128H256v1792M1280 512h293l-293-293v293m568 1201q46 25 83 61t63 79.5q26 43.5 40 93t14 101.5h-128q0-53-20-99.5t-55-81.5q-35-35-81.5-55t-99.5-20q-53 0-99.5 20t-81.5 55q-35 35-55 81.5t-20 99.5h-128q0-52 14-101.5t40-93q26-43.5 63-79.5t83-61q-34-35-53-81t-19-96q0-53 20-99.5t55-81.5q35-35 81.5-55t99.5-20q53 0 99.5 20t81.5 55q35 35 55 81.5t20 99.5q0 50-19 96t-53 81m-184-49q27 0 50-10t40.5-27.5q17.5-17.5 27.5-40.5t10-50q0-27-10-50t-27.5-40.5Q1737 1428 1714 1418t-50-10q-27 0-50 10t-40.5 27.5Q1556 1463 1546 1486t-10 50q0 27 10 50t27.5 40.5q17.5 17.5 40.5 27.5t50 10z"/></svg>