<svg xmlns="http://www.w3.org/2000/svg" viewBox="0 0 2048 2048"><path d="M2048 256v1408H0V256h2048m-128 128H128v1152h1792V384M397 1278H283l235-628h117l234 628H754l-56-160H451l-54 160m176-535q-2 10-3.5 20t-4.5 20l-87 250h193l-88-250q-3-9-4.5-19.5T575 743h-2m460 535H931V614h102v294h1q26-43 63.5-66t88.5-23q48 0 82.5 18.5T1325 887q22 31 32 71t10 83q0 48-11.5 92.5t-35.5 79q-24 34.5-62 55t-92 20.5q-86 0-132-75h-1v65m-1-188q0 24 8 45.5t22 37.5q14 16 34.5 25.5t45.5 9.5q35 0 58-15t37-39q14-24 20-54t6-59q0-26-6-51.5t-19-45.5q-13-20-34.5-32t-51.5-12q-29 0-51.5 11t-37.5 29.5q-15 18.5-23 43t-8 51.5v55m632 198q-50 0-91-16.5t-70-46q-29-29.5-45-70.5t-16-91q0-55 17-100t48.5-77.5q31.5-32.5 76-50T1684 819q28 0 55 5t53 16v95q-22-16-47.5-25.5T1692 900q-35 0-62 12.5t-45.5 33.5q-18.5 21-28.5 50t-10 62q0 66 37 108t105 42q29 0 55-10.5t49-28.5v88q-29 17-62 24t-66 7z"/></svg>