<svg xmlns="http://www.w3.org/2000/svg" viewBox="0 0 2048 2048"><path d="M1761 1036q63 17 115.5 52.5t91 84.5q38.5 49 59.5 109t21 126q0 80-30 149.5t-82.5 122Q1883 1732 1813 1762t-149 30h-384l128-128h256q53 0 99.5-20t81.5-55q35-35 55-81.5t20-99.5q0-55-20.5-101.5t-56.5-81q-36-34.5-83.5-54T1658 1152q-12-82-51-152.5t-98-122q-59-51.5-134-80.5t-159-29q-77 0-146.5 25T943 862q-57 44-98.5 106T784 1103q-44-38-97-58.5T576 1024q-66 0-124.5 25t-102 68.5q-43.5 43.5-68.5 102T256 1344q0 66 25 124.5t68.5 102q43.5 43.5 102 68.5t124.5 25h256l-64 128H576q-93 0-174.5-35.5t-142-96q-60.5-60.5-96-142T128 1344q0-75 24-144-71-54-111.5-134T0 896q0-79 30-149t82.5-122.5Q165 572 234.5 542T384 512q11 0 21.5.5T427 514q27-60 69.5-107.5t95-81Q644 292 705.5 274T832 256q84 0 159.5 29.5t135 81q59.5 51.5 99 122.5t50.5 154q84 9 160 41.5t139.5 84Q1639 820 1687 888t74 148M723 921q34-57 79.5-104.5t100-83q54.5-35.5 116-58.5t127.5-31q-11-56-40-104t-70.5-82.5q-41.5-34.5-94-54T832 384q-62 0-117.5 22.5t-98 62Q574 508 547 561.5T515 677q-30-17-63-27t-68-10q-53 0-99.5 20T203 715q-35 35-55 81.5T128 896q0 54 21.5 103t62.5 85q63-89 159-138.5T576 896q74 0 147 25m109 1127l256-512H864l192-384h224l-128 256h320l-640 640z"/></svg>