<svg xmlns="http://www.w3.org/2000/svg" viewBox="0 0 2048 2048"><path d="M1920 1110q63 77 95.5 169.5T2048 1472q0 119-45.5 224T1879 1879q-78 78-183 123.5t-224 45.5q-119 0-224-45.5T1065 1879q-78-78-123.5-183T896 1472q0-100 33-192H0V256h256v128H128v256h768V384H768V256h384v128h-128v256h768V384h-128V256h256v854m-927 42q40-60 93-107.5t114.5-80.5q61.5-33 130.5-50.5t141-17.5q86 0 167 24.5t153 72.5V768H128v384h865m479 768q93 0 174.5-35.5t142-96q60.5-60.5 96-142T1920 1472q0-93-35.5-174.5t-96-142q-60.5-60.5-142-96T1472 1024q-93 0-174.5 35.5t-142 96q-60.5 60.5-96 142T1024 1472q0 93 35.5 174.5t96 142q60.5 60.5 142 96T1472 1920m64-512h192v128h-320v-384h128v256z"/></svg>