<svg xmlns="http://www.w3.org/2000/svg" viewBox="0 0 2048 2048"><path d="M1639 500q135 136 208 297.5t73 354.5q0 124-32 238.5t-90.5 214q-58.5 99.5-140 181t-181 140q-99.5 58.5-214 90.5t-238.5 32q-124 0-238.5-32t-214-90.5q-99.5-58.5-181-140t-140-181q-58.5-99.5-90.5-214T128 1152q0-111 26.5-216t75-198Q278 645 347 565.5t154-141Q586 363 686 322t210-57V128H640V0h640v128h-256v128q139 0 270.5 41T1539 419l208-208 90 90-198 199m-615 1420q159 0 298.5-60.5t244-165q104.5-104.5 165-244T1792 1152q0-159-60.5-298.5t-165-244q-104.5-104.5-244-165T1024 384q-159 0-298.5 60.5t-244 165Q377 714 316.5 853.5T256 1152q0 159 60.5 298.5t165 244q104.5 104.5 244 165T1024 1920m640-896v128q0 133-50 249.5T1477 1605q-87 87-203.5 137t-249.5 50q-133 0-249.5-50T571 1605.5q-87-86.5-137-203T384 1153q0-88 23-170t64.5-153q41.5-71 100-129.5T701 600q71-42 152.5-65t170.5-23h128v512h512m-640 640q106 0 199.5-40t163-109.5q69.5-69.5 109.5-163t40-199.5h-512V640q-107 0-200 40.5t-162.5 110Q592 860 552 954t-40 200q0 106 40.5 199t110 162q69.5 69 162.5 109t199 40z"/></svg>