<svg xmlns="http://www.w3.org/2000/svg" viewBox="0 0 2048 2048"><path d="M1920 256v1664H128V256h256v128H256v1408h1536V384h-128V256h256m-384 384H512V0h1024v640m-128-512H640v384h768V128m-384 1024h128v128H896v-256h128v128m-448 64q0-93 35-174.5T707 899q61-61 142.5-96t174.5-35q93 0 174.5 35t142.5 96q61 61 96 142.5t35 174.5q0 93-35 174.5t-96 142.5q-61 61-142.5 96t-174.5 35q-93 0-174.5-35T707 1533q-61-61-96-142.5T576 1216m768 0q0-66-25.5-124t-69-101.5q-43.5-43.5-101.5-69T1024 896q-66 0-124.5 25.5t-102 69Q754 1034 729 1092t-25 124q0 66 25 124.5t68.5 102q43.5 43.5 102 68.5t124.5 25q66 0 124-25t101.5-68.5q43.5-43.5 69-102T1344 1216z"/></svg>