<svg xmlns="http://www.w3.org/2000/svg" viewBox="0 0 2048 2048"><path d="M2048 1024q0 106-40 199.5t-109.5 163q-69.5 69.5-163 109.5t-199.5 40H512q-106 0-199.5-40t-163-109.5Q80 1317 40 1223.5T0 1024q0-106 40-199.5t109.5-163Q219 592 312.5 552T512 512h1024q106 0 199.5 40t163 109.5q69.5 69.5 109.5 163t40 199.5m-512 384q79 0 149-30t122.5-82.5q52.5-52.5 82.5-122t30-149.5q0-79-30-149t-82.5-122.5Q1755 700 1685 670t-149-30H512q-80 0-149.5 30t-122 82.5Q188 805 158 875t-30 149q0 80 30 149.5t82.5 122q52.5 52.5 122 82.5t149.5 30h1024M512 768q53 0 99.5 20t81.5 55q35 35 55 81.5t20 99.5q0 53-20 99.5t-55 81.5q-35 35-81.5 55t-99.5 20q-53 0-99.5-20t-81.5-55q-35-35-55-81.5t-20-99.5q0-53 20-99.5t55-81.5q35-35 81.5-55t99.5-20z"/></svg>