<svg xmlns="http://www.w3.org/2000/svg" viewBox="0 0 2048 2048"><path d="M1882 2048h-181l-256-256H602l-256 256H165l259-258q-36-4-67-21t-53.5-42.5q-22.5-25.5-35-58T256 1600V192q0-40 15-75t41-61q26-26 61-41t75-15h1152q40 0 75 15t61 41q26 26 41 61t15 75v1408q0 36-13 68.5t-35.5 58q-22.5 25.5-53 42.5t-66.5 21l258 258M768 384h512V256H768v128m896 768V640H384v512h1280M576 1536q26 0 45-19t19-45q0-26-19-45t-45-19q-26 0-45 19t-19 45q0 26 19 45t45 19m896 0q26 0 45-19t19-45q0-26-19-45t-45-19q-26 0-45 19t-19 45q0 26 19 45t45 19z"/></svg>