<svg xmlns="http://www.w3.org/2000/svg" viewBox="0 0 2048 2048"><path d="M768 1472q0-66-25.5-124t-69-101.5q-43.5-43.5-101.5-69T448 1152q-66 0-124.5 25.5t-102 69Q178 1290 153 1348t-25 124v64H0v-64q0-63 16.5-121.5t48-110q31.5-51.5 75.5-94t100-71.5q-54-46-83-109.5T128 832q0-66 25-124t68.5-101.5q43.5-43.5 102-69T448 512q66 0 124 25.5t101.5 69Q717 650 742.5 708T768 832q0 70-29 133.5T656 1075q55 29 99.5 71.5t76 94q31.5 51.5 48 110T896 1472v64H768v-64M256 832q0 40 15 75t41 61q26 26 61 41t75 15q40 0 75-15t61-41q26-26 41-61t15-75q0-40-15-75t-41-61q-26-26-61-41t-75-15q-40 0-75 15t-61 41q-26 26-41 61t-15 75m1552 243q55 29 99.5 71.5t76 94q31.5 51.5 48 110T2048 1472v64h-128v-64q0-66-25.5-124t-69-101.5q-43.5-43.5-101.5-69t-124-25.5q-66 0-124.5 25.5t-102 69Q1330 1290 1305 1348t-25 124v64h-128v-64q0-63 16.5-121.5t48-110q31.5-51.5 75.5-94t100-71.5q-54-46-83-109.5T1280 832q0-66 25-124t68.5-101.5q43.5-43.5 102-69T1600 512q66 0 124 25.5t101.5 69q43.5 43.5 69 101.5t25.5 124q0 70-29 133.5t-83 109.5m-400-243q0 40 15 75t41 61q26 26 61 41t75 15q40 0 75-15t61-41q26-26 41-61t15-75q0-40-15-75t-41-61q-26-26-61-41t-75-15q-40 0-75 15t-61 41q-26 26-41 61t-15 75m-256-704q-81 0-159.5 17t-151 49q-72.5 32-138 78.5T584 379l-95-86q64-70 140-124.5t160.5-92q84.5-37.5 176-57T1152 0q137 0 268.5 40.5T1664 161V0h128v384h-384V256h169q-95-63-203.5-95.5T1152 128M896 1920q81 0 159-17t151-49q73-32 138.5-78.5T1464 1669l95 86q-64 70-140 124.5t-161 92q-85 37.5-176.5 57T896 2048q-137 0-268.5-40.5T384 1887v161H256v-384h384v128H471q95 63 203.5 95.5T896 1920z"/></svg>