<svg xmlns="http://www.w3.org/2000/svg" viewBox="0 0 2048 2048"><path d="M1451 43q9 0 44 29t82.5 73q47.5 44 100 97t97 100q44.5 47 73.5 82.5t29 44.5q0 7-17 29t-44.5 53.5Q1788 583 1752 621t-74.5 76q-38.5 38-76 74t-68.5 63.5q-31 27.5-53 44.5t-29 17q-20 0-33.5-14.5T1404 847q0-3 4-21t10-43.5q6-25.5 13.5-55t14.5-56q7-26.5 12-47t7-27.5H725q-26 0-49 10.5t-40.5 28Q618 653 607.5 676T597 725v1323H341V725q0-79 30.5-148.5t83-122q52.5-52.5 122-83T725 341h740l-7-28q-5-20-12-46.5t-14.5-56q-7.5-29.5-13.5-55t-10-43.5q-4-18-4-22 0-20 13.5-33.5T1451 43z"/></svg>