<svg xmlns="http://www.w3.org/2000/svg" viewBox="0 0 2048 2048"><path d="M960 128q183 0 351.5 66.5T1614 386q137 128 211 285.5t91 343.5q0 2 .5 3.5t.5 3.5q0 12-4.5 23.5t-13 20.5q-8.5 9-19.5 14.5t-23 5.5q-6 0-14.5-1.5t-14.5-3.5q-8-4-14-8.5t-12-11.5q-41-48-89-74.5T1600 960q-61 0-115 27.5t-90 76.5q-9 12-15.5 24.5T1366 1114q-9 17-24 27.5t-35 10.5h-54q-20 0-35-10.5t-24-27.5q-15-28-31.5-51t-36.5-41.5q-20-18.5-45-31.5t-57-22v696q0 52-20.5 98.5T948 1844q-35 35-81.5 55.5T768 1920q-52 0-98.5-20.5T588 1844q-35-35-55.5-81.5T512 1664q0-18-.5-40.5t4.5-42q5-19.5 18.5-32.5t41.5-13q28 0 41.5 13t18.5 32.5q5 19.5 4.5 42t-.5 40.5q0 26 10.5 49t28 40.5q17.5 17.5 40.5 28t49 10.5q25 0 48.5-10.5t41-28q17.5-17.5 28-40.5t10.5-49V968q-32 9-57 22t-45 31.5q-20 18.5-36.5 41.5t-31.5 51q-9 17-24 27.5t-35 10.5h-54q-20 0-35-10.5t-24-27.5q-7-13-13.5-25.5T525 1064q-36-49-90-76.5T320 960q-66 0-113 26.5t-89 74.5q-11 12-22.5 18.5T67 1086q-26 0-45-19.5T3 1021v-4q11-125 50.5-240t104-213.5q64.5-98.5 150-179T496 247q103-57 220-88t244-31m640 704q42 0 82.5 9t78.5 27q-37-135-114.5-247.5T1463 427q-106-81-234.5-126T960 256q-140 0-269 45T456 427q-106 81-183 193.5T159 868q38-18 78.5-27t82.5-9q97 0 181.5 45.5T640 1004q54-81 138.5-126.5T960 832q97 0 181.5 45.5T1280 1004q54-81 138.5-126.5T1600 832z"/></svg>