<svg xmlns="http://www.w3.org/2000/svg" viewBox="0 0 2048 2048"><path d="M1472 1152q93 0 174.5 35t142.5 96q61 61 96 142.5t35 174.5q0 93-35 174.5t-96 142.5q-61 61-142.5 96t-174.5 35q-93 0-174.5-35t-142.5-96q-61-61-96-142.5t-35-174.5q0-93 35-174.5t96-142.5q61-61 142.5-96t174.5-35m-320 448q0 66 25 124.5t68.5 102q43.5 43.5 102 68.5t124.5 25q47 0 92-13.5t84-39.5l-443-443q-26 39-39.5 84t-13.5 92m587 176q26-39 39.5-84t13.5-92q0-66-25.5-124t-69-101.5q-43.5-43.5-101.5-69t-124-25.5q-47 0-92 13.5t-84 39.5l443 443M1712 0q70 0 131 26.5t106.5 72q45.5 45.5 72 106.5t26.5 131q0 66-25 127.5T1950 573l-451 451h-182l384-384-293-293L326 1428q52 17 98.5 45t84.5 66q38 38 66 84.5t45 98.5l276-277v182l-263 263L0 2048l158-633q3-3 6.5-6t6.5-6L1475 98q48-48 109.5-73T1712 0M505 1790q-10-46-32.5-87t-54.5-73q-32-32-73-54.5t-87-32.5l-82 329 329-82M1792 549q25-25 48-47t41-46.5q18-24.5 28.5-53T1920 336q0-43-16.5-81t-44.5-66q-28-28-66-44.5t-81-16.5q-38 0-66.5 10.5t-53 28.5q-24.5 18-46.5 41t-47 48l293 293z"/></svg>