<svg xmlns="http://www.w3.org/2000/svg" viewBox="0 0 2048 2048"><path d="M2048 286q0 47-10 84t-28 69.5q-18 32.5-44 62t-58 60.5l-424-423q31-31 59.5-57t59.5-44q31-18 67.5-28T1754 0q61 0 114.5 21.5t93.5 60q40 38.5 63 91t23 113.5m-512 525q-150 0-282 57t-230.5 155.5Q925 1122 868 1254t-57 282q0 28 3 55t8 54l-69 68L0 2046l348-759 986-997 422 422-109 110q-28-5-55.5-8t-55.5-3m0 213q106 0 199.5 40t163 109.5q69.5 69.5 109.5 163t40 199.5q0 106-40 199.5t-109.5 163q-69.5 69.5-163 109.5t-199.5 40q-106 0-199.5-40t-163-109.5q-69.5-69.5-109.5-163t-40-199.5q0-106 40-199.5t109.5-163q69.5-69.5 163-109.5t199.5-40m341 512q0-70-27-132.5t-73-108.5q-46-46-108.5-73t-132.5-27q-94 0-173 47l467 467q47-79 47-173m-682 0q0 71 27 133t73 108q46 46 108 73t133 27q94 0 173-47l-467-467q-47 79-47 173z"/></svg>