<svg xmlns="http://www.w3.org/2000/svg" viewBox="0 0 2048 2048"><path d="M1792 1280h256v768H1024v-768h256v-256h512v256m-384 0h256v-128h-256v128m512 384h-128v128h-128v-128h-256v128h-128v-128h-128v256h768v-256m-768-256v128h768v-128h-768M896 896q0 93-41.5 174.5T738 1206q45 23 85 53t73 67v338q0-79-30-149t-82.5-122.5Q731 1340 661 1310t-149-30q-80 0-149.5 30t-122 82.5Q188 1445 158 1515t-30 149H0q0-73 20-141.5T77.5 1394q37.5-60 90.5-108t118-81q-75-54-116.5-135.5T128 896q0-79 30-149t82.5-122.5Q293 572 362.5 542T512 512q72 0 137.5 25.5T768 611q32-29 71-51-34-35-52.5-81T768 384q0-53 20-99.5t55-81.5q35-35 81.5-55t99.5-20q53 0 99.5 20t81.5 55q35 35 55 81.5t20 99.5q0 49-18.5 95t-52.5 81q83 46 135 124 52-78 135-124-34-35-52.5-81t-18.5-95q0-53 20-99.5t55-81.5q35-35 81.5-55t99.5-20q53 0 99.5 20t81.5 55q35 35 55 81.5t20 99.5q0 49-18.5 95t-52.5 81q46 25 83 61t62.5 79.5Q2020 744 2034 794t14 102h-128q0-53-20-99.5t-55-81.5q-35-35-81.5-55t-99.5-20q-53 0-99.5 20t-81.5 55q-35 35-55 81.5t-20 99.5h-128q0-53-20-99.5t-55-81.5q-35-35-81.5-55t-99.5-20q-49 0-95 18.5T848 711q24 42 36 89t12 96m768-640q-27 0-50 10t-40.5 27.5Q1556 311 1546 334t-10 50q0 27 10 50t27.5 40.5Q1591 492 1614 502t50 10q27 0 50-10t40.5-27.5Q1772 457 1782 434t10-50q0-27-10-50t-27.5-40.5Q1737 276 1714 266t-50-10m-640 0q-27 0-50 10t-40.5 27.5Q916 311 906 334t-10 50q0 27 10 50t27.5 40.5Q951 492 974 502t50 10q27 0 50-10t40.5-27.5Q1132 457 1142 434t10-50q0-27-10-50t-27.5-40.5Q1097 276 1074 266t-50-10m-512 896q53 0 99.5-20t81.5-55q35-35 55-81.5t20-99.5q0-53-20-99.5T693 715q-35-35-81.5-55T512 640q-53 0-99.5 20T331 715q-35 35-55 81.5T256 896q0 53 20 99.5t55 81.5q35 35 81.5 55t99.5 20z"/></svg>