<svg xmlns="http://www.w3.org/2000/svg" viewBox="0 0 2048 2048"><path d="M1416 1536q51 2 96.5 22.5t79 55.5q33.5 35 53 81t19.5 97q0 53-20.5 99.5t-55 81q-34.5 34.5-81.5 55t-99 20.5q-53 0-99.5-20.5t-81-55q-34.5-34.5-55-81T1152 1792q0-71 36.5-132t99.5-94l-266-531-265 529q32 17 57.5 41t43.5 54q18 30 28 63.5t10 69.5q0 53-20.5 99.5t-55 81q-34.5 34.5-81.5 55t-99 20.5q-53 0-99.5-20.5t-81-55q-34.5-34.5-55-81T384 1792q0-51 19-96.5t52-80q33-34.5 77.5-55.5t95.5-24l322-646-339-678 58-175 353 708 353-708 58 175-339 678 322 646m-776 384q27 0 50-10t40.5-27.5Q748 1865 758 1842t10-50q0-27-10-50t-27.5-40.5Q713 1684 690 1674t-50-10q-27 0-50 10t-40.5 27.5Q532 1719 522 1742t-10 50q0 27 10 50t27.5 40.5Q567 1900 590 1910t50 10m768 0q27 0 50-10t40.5-27.5q17.5-17.5 27.5-40.5t10-50q0-27-10-50t-27.5-40.5Q1481 1684 1458 1674t-50-10q-27 0-50 10t-40.5 27.5Q1300 1719 1290 1742t-10 50q0 27 10 50t27.5 40.5q17.5 17.5 40.5 27.5t50 10z"/></svg>