<svg xmlns="http://www.w3.org/2000/svg" viewBox="0 0 2048 2048"><path d="M1728 768q-26 0-45-19t-19-45q0-40-15-75t-41-61q-26-26-61-41t-75-15q-26 0-45-19t-19-45q0-26 19-45t45-19q66 0 124.5 25t102 68.5q43.5 43.5 68.5 102t25 124.5q0 26-19 45t-45 19M576 256q66 0 124.5 25t102 68.5Q846 393 871 451.5T896 576q0 26-19 45t-45 19q-26 0-45-19t-19-45q0-40-15-75t-41-61q-26-26-61-41t-75-15q-26 0-45-19t-19-45q0-26 19-45t45-19m960 1257q0 20-1.5 46t3 49q4.5 23 18.5 39.5t44 16.5q66 0 124.5 25t102 68.5q43.5 43.5 68.5 102t25 124.5q0 26-19 45t-45 19q-26 0-45-19t-19-45q0-40-15-75t-41-61q-26-26-61-41t-75-15-75-15q-35-15-61-41t-41-61q-15-35-15-75v-87q-139-66-247-173t-174-246q-66 94-154 168t-193 123v87q0 40 15 75t41 61q26 26 61 41t75 15q53 0 100-.5t90 7q43 7.5 83 27.5t81 60q46 46 70 103.5t24 122.5q0 26-19 45t-45 19q-26 0-45-19t-19-45q0-40-15-75t-41-61q-26-26-61-41t-75-15H832q-66 0-124.5-25t-102-68.5q-43.5-43.5-68.5-102T512 1472v-87q-117-55-212-140t-161.5-190.5Q72 949 36 827.5T0 576q0-119 45.5-224T169 169q78-78 183-123.5T576 0q77 0 150 20t138 57.5q65 37.5 119 91t92 120.5q80-78 182.5-119.5T1472 128q119 0 224 45.5T1879 297q78 78 123.5 183t45.5 224q0 130-36 251.5t-102.5 227Q1843 1288 1748 1373t-212 140m-960-239q103-47 185.5-119.5t141-163.5q58.5-91 90-196.5T1024 576q0-93-35.5-174.5t-96-142q-60.5-60.5-142-96T576 128q-93 0-174.5 35.5t-142 96q-60.5 60.5-96 142T128 576q0 113 31.5 218.5t90 196.5q58.5 91 141 163.5T576 1274m492-319q25 74 65 141t91.5 124q51.5 57 114 103t133.5 79q103-47 185.5-119.5t141-163.5q58.5-91 90-196.5T1920 704q0-93-35.5-174.5t-96-142q-60.5-60.5-142-96T1472 256q-100 0-189 42.5T1130 418q11 38 16.5 78t5.5 80q0 99-21 194.5T1068 955z"/></svg>