<svg xmlns="http://www.w3.org/2000/svg" viewBox="0 0 2048 2048"><path d="M1054 115q22 27 30 55.5t10 62.5l10 184-48-1-9-181q-2-24-7.5-45t-19.5-41q14-20 34-34M899 84q-33 0-59.5 11.5t-46 31.5q-19.5 20-31 47.5T749 233l-10 177h-48l10-179q2-41 17.5-76.5t41-62Q785 66 820.5 51T898 36q19 0 34 4-19 19-33 44m838 1874l-1232 90-194-111 82-1464 67 65 73-89 359 6 12-240q2-48 19.5-88.5T978 54q62-54 143-54 47 0 86 17t67.5 46q28.5 29 45.5 69t19 85l12 245 317 5 69 1491M1121 53q-36 0-65 13t-50.5 35q-21.5 22-34 52T957 217l-12 238 353 6-12-242q-2-34-14-64.5t-34-53Q1216 79 1186.5 66T1121 53m357 835l-254-72-457 171v513l154-61v-417l303-74v614l-457-61 457 168 254-71V888z"/></svg>