<svg xmlns="http://www.w3.org/2000/svg" viewBox="0 0 2048 2048"><path d="M128 0v2048h1664v-254h128v-128h-128v-257h128v-128h-128V769h128V641h-128V385h128V257h-128V0H128m128 128h1408v1792H256V128m128 384h640V384H384v128m0 256h640V640H384v128m960 892q39 0 73.5-14.5t60-40q25.5-25.5 40-60t14.5-73.5q0-39-14.5-73t-40-59.5q-25.5-25.5-60-40.5t-73.5-15q-39 0-73 15t-59.5 40.5Q1186 1365 1171 1399t-15 73q0 39 15 73.5t40.5 60q25.5 25.5 59.5 40t73 14.5m0-256q29 0 48.5 19.5t19.5 48.5q0 29-19.5 48.5T1344 1540q-29 0-48.5-19.5T1276 1472q0-29 19.5-48.5t48.5-19.5m0-640q39 0 73.5-14.5t60-40q25.5-25.5 40-60T1532 576q0-39-14.5-73t-40-59.5q-25.5-25.5-60-40.5t-73.5-15q-39 0-73 15t-59.5 40.5Q1186 469 1171 503t-15 73q0 39 15 73.5t40.5 60q25.5 25.5 59.5 40t73 14.5m0-256q29 0 48.5 19.5T1412 576q0 29-19.5 48.5T1344 644q-29 0-48.5-19.5T1276 576q0-29 19.5-48.5T1344 508m-960 900h640v-128H384v128m0 256h640v-128H384v128z"/></svg>