<svg xmlns="http://www.w3.org/2000/svg" viewBox="0 0 2048 2048"><path d="M1344 0q26 0 45 19l640 640q19 19 19 45t-19 45l-243 243q25 25 49 48t42.5 47.5q18.5 24.5 30 53.5t11.5 67q0 40-15 76t-41 63q-26 27-61 43t-75 17q-2 41-17 75.5t-40.5 60q-25.5 25.5-60 40.5t-74.5 16q-1 40-17 75t-43 61.5q-27 26.5-63 41.5t-76 15q-32 0-65-11-11 31-29.5 56.5t-43.5 44q-25 18.5-55 28.5t-63 10q-26 0-46-4.5t-37.5-13.5q-17.5-9-34-22t-34.5-29q-35 32-68.5 50.5T776 1920q-40 0-76-15t-63-41q-27-26-43-61t-17-76q-39-1-74-16t-61-41q-26-26-41-61t-16-74q-40-1-74.5-16t-60-41q-25.5-26-41-61t-16.5-74q-41-1-76-17t-61-43q-26-27-41-62.5T0 1145q0-41 15.5-77t43.5-65l106-107L19 749Q0 730 0 704t19-45L659 19q19-19 45-19t45 19l132 132q13-4 50.5-17t86.5-29.5q49-16.5 103.5-35t102-34Q1271 20 1304 10t40-10M312 960q-29 0-50 21l-113 112q-21 21-21 51t20.5 50.5Q169 1215 199 1215q31 0 51-20l113-112q21-21 21-51t-21-51q-21-21-51-21m192 192q-14 0-27.5 5.5T453 1173l-112 113q-21 21-21 51 0 29 21 49.5t51 20.5q14 0 27.5-5t23.5-15l112-113q21-21 21-50 0-30-21-51t-51-21m192 192q-29 0-50 21l-113 112q-21 21-21 51t20.5 50.5Q553 1599 583 1599q31 0 51-20l113-112q21-21 21-51t-21-51q-21-21-51-21m8 377q0 29 21 49.5t51 20.5q14 0 27.5-5t23.5-15l112-113q21-21 21-50 0-30-21.5-51t-50.5-21q-14 0-27.5 5.5T837 1557l-112 113q-21 21-21 51m1016-441q29 0 50.5-21t21.5-50q0-30-21-51l-632-633q-3-3-10-5.5t-14.5-4q-7.5-1.5-15-2.5t-11.5-1q-26 0-49.5 10t-41 27.5Q980 567 970 590.5T960 640q0 53-20 99.5T885 821q-35 35-81.5 55T704 896q-40 0-75-15t-61-41q-26-26-41-61t-15-75q0-24 5-53.5t16-51.5l187-375q9-16 27-26l-43-43-550 549 135 134q45-5 85 6.5t70 37q30 25.5 48 63t19 82.5q40 2 75 16.5t60.5 40q25.5 25.5 40.5 60t16 75.5q40 2 75 16.5t60.5 40q25.5 25.5 40.5 60t16 75.5q41 2 76 17t61 41.5q26 26.5 41 61.5t15 77q0 45-18 84t-52 68q15 14 27.5 23t34.5 9q29 0 50.5-21t21.5-50q0-30-21-51l90-91 65 64q23 21 50 21 29 0 50.5-21t21.5-50q0-30-21-51l-113-113 91-90 112 112q21 21 51 21t51-21q21-21 21-51t-21-51l-113-112 91-91 113 113q21 21 50 21m173-576l-566-567-504 168-174 348q-5 9-7 25t-2 26q0 26 19 45t45 19q27 0 50-10t40.5-27.5Q812 713 822 690t10-50q0-53 20-99.5t55-81.5q35-35 81.5-55t99.5-20q16 0 34.5 3t37.5 8.5q19 5.5 35.5 14T1224 430l472 472 197-198z"/></svg>