<svg xmlns="http://www.w3.org/2000/svg" viewBox="0 0 2048 2048"><path d="M765 1024H387l-85 256H167L509 256h134l268 802-81 162-65-196m-43-128L576 458 430 896h292m982 679q17 41 31.5 73t34.5 54.5q20 22.5 50 34t78 11.5v44h-449v-44q17 0 37.5.5t38.5-4q18-4.5 30-16.5t12-37q0-14-6.5-39t-16-54q-9.5-29-21-59.5t-22-57.5q-10.5-27-18.5-46.5t-11-26.5h-448q-3 8-12 27.5t-20.5 46q-11.5 26.5-24 56.5t-23 58.5q-10.5 28.5-17 53.5t-6.5 40q0 24 12.5 35.5t30.5 16q18 4.5 38.5 5t36.5 1.5v44H662v-44q49-9 76-21t44-32.5q17-20.5 30-51.5t33-79l392-924h82l385 935m-291-295l-177-381-169 381h346z"/></svg>