<svg xmlns="http://www.w3.org/2000/svg" viewBox="0 0 2048 2048"><path d="M2048 128v1031q-28-28-60.5-50.5T1920 1069V640H128v1024h1088l-128 128H0V128h2048m-128 384V256H128v256h1792m-509 954q0-66 25-123t68-99.5q43-42.5 100.5-66.5t123.5-24q67 0 125 25t101 68.5q43 43.5 68 101.5t25 125q0 65-24.5 122.5T1956 1696q-42 43-99 68t-123 25q-48 0-94-13.5t-87-38.5l-201 201q-23 23-45 46.5t-46 44.5q-10 9-19.5 14t-23.5 5q-26 0-46-20t-20-46q0-14 5-23.5t14-19.5q21-24 44.5-46t46.5-45q51-51 100.5-101t100.5-101q-25-41-38.5-86.5T1411 1466m128 12q0 38 14.5 71t39 58q24.5 25 58 39t71.5 14q39 0 74.5-15.5t63.5-42.5q28-27 44.5-62t16.5-74q0-36-15.5-69.5t-41.5-60q-26-26.5-60-42t-70-15.5q-39 0-74.5 16.5t-62 44.5q-26.5 28-42.5 63.5t-16 74.5z"/></svg>