<svg xmlns="http://www.w3.org/2000/svg" viewBox="0 0 2048 2048"><path d="M1768 1792h152v128h-216q-12 24-29 47t-38 41q-21 18-46 29t-55 11q-41 0-71-9.5t-53.5-23.5q-23.5-14-42-30.5t-37-30.5q-18.5-14-38.5-23.5t-46-9.5q-26 0-46 9.5t-38 23q-18 13.5-36.5 30t-41.5 30q-23 13.5-53.5 23T960 2046q-42 0-72.5-9.5t-53.5-23q-23-13.5-41.5-30t-36.5-30q-18-13.5-38-23t-46-9.5q-26 0-46 9.5t-38.5 23.5q-18.5 14-37 30.5t-42 30.5q-23.5 14-53.5 23.5t-71 9.5q-31 0-56-10.5t-45.5-28.5q-20.5-18-37-41t-29.5-48l-2-3-214 3v-128h152L0 1487v-157l256-85V768h152l128-256h232V256h384v256h232l128 256h152v477l256 85v157l-152 305M896 512h128V384H896v128m640 690V896H384v306l576-192 576 192z"/></svg>