<svg xmlns="http://www.w3.org/2000/svg" viewBox="0 0 2048 2048"><path d="M960 512q93 0 174.5 35t142.5 96q61 61 96 142.5t35 174.5q0 93-35 174.5t-96 142.5q-61 61-142.5 96T960 1408q-93 0-174.5-35T643 1277q-61-61-96-142.5T512 960q0-93 35-174.5T643 643q61-61 142.5-96T960 512m0 768q66 0 124-25t101.5-68.5q43.5-43.5 69-102T1280 960q0-66-25.5-124t-69-101.5q-43.5-43.5-101.5-69T960 640q-66 0-124.5 25.5t-102 69Q690 778 665 836t-25 124q0 66 25 124.5t68.5 102q43.5 43.5 102 68.5t124.5 25m64-896H896V0h128v384M896 1536h128v384H896v-384m-512-512H0V896h384v128m123-426L236 326l90-90 272 271-91 91m1177-272l-271 272-91-91 272-271 90 90M507 1322l91 91-272 271-90-90 271-272m1157 598h128v128h-128v-128m64-768q53 0 99.5 20t81.5 55q35 35 55 81.5t20 99.5q0 46-14 81t-35.5 63q-21.5 28-46.5 50.5t-46.5 44.5q-21.5 22-35.5 45t-14 52v48h-128v-48q0-47 14-81.5t35.5-62.5q21.5-28 46.5-50.5t46.5-44.5q21.5-22 35.5-45t14-52q0-27-10-50t-27.5-40.5Q1801 1300 1778 1290t-50-10q-27 0-50 10t-40.5 27.5Q1620 1335 1610 1358t-10 50h-128q0-53 20-99.5t55-81.5q35-35 81.5-55t99.5-20z"/></svg>