<svg xmlns="http://www.w3.org/2000/svg" viewBox="0 0 2048 2048"><path d="M1024 0q141 0 272 36.5T1540.5 140q113.5 67 207 160.5t160.5 207Q1975 621 2011.5 752t36.5 272q0 141-36.5 272T1908 1540.5q-67 113.5-160.5 207t-207 160.5q-113.5 67-244.5 103.5t-272 36.5q-141 0-272-36.5T507.5 1908q-113.5-67-207-160.5t-160.5-207Q73 1427 36.5 1296T0 1024q0-141 36.5-272T140 507.5q67-113.5 160.5-207t207-160.5Q621 73 752 36.5T1024 0m321 1453q22 0 41.5-8.5t34.5-23.5q15-15 23.5-34.5t8.5-41.5q0-45-32-77l-289-289V455q0-22-8.5-42t-23-34.5q-14.5-14.5-34.5-23t-42-8.5q-23 0-42.5 8.5t-34 23Q933 393 924.5 413t-8.5 42v569q0 21 8 41.5t23 35.5l321 320q32 32 77 32z"/></svg>