<svg xmlns="http://www.w3.org/2000/svg" viewBox="0 0 2048 2048"><path d="M1407 1025q0 26-10 49t-27.5 40q-17.5 17-40.5 27t-49 10V897q26 0 49 10t40.5 27.5q17.5 17.5 27.5 41t10 49.5m613 84l-63 240-210-28q-17 26-35.5 50t-40.5 46l73 191-214 125-128-167q-60 15-122 15v-209q72 0 135-27t110-74.5q47-47.5 74-110.5t27-135q0-71-27-134t-74-110q-47-47-110-74.5T1280 679V464h5l79-178 240 63-27 204q27 17 51.5 37t47.5 43l187-71 124 214-166 127q13 59 13 124l186 82M619 779q17 80 36 158.5t38 158.5l-151-2q19-79 38-157.5T616 779h3M64 272L1216 67v1914L64 1782V272m276 1099l134 8 40-159 211 7 44 170 156 10-224-766-158 10-203 720z"/></svg>