<svg xmlns="http://www.w3.org/2000/svg" viewBox="0 0 2048 2048"><path d="M128 1536q141 0 272-36.5T644.5 1396q113.5-67 207-160.5t160.5-207Q1079 915 1115.5 784t36.5-272q0-133-34-261T1019 8q128 16 245 61t217 115q100 70 181 161.5t138.5 199q57.5 107.5 88.5 229t31 250.5q0 141-36.5 272T1780 1540.5q-67 113.5-160.5 207t-207 160.5q-113.5 67-244.5 103.5T896 2048q-138 0-269-36t-246.5-103.5Q265 1841 169 1744.5T5 1528q31 4 61.5 6t61.5 2m768 384q124 0 238.5-32t214-90.5q99.5-58.5 181-140t140-181q58.5-99.5 90.5-214t32-238.5q0-136-40-263.5t-112.5-236Q1567 416 1464 331t-229-136q45 155 45 317 0 146-35 282.5t-100 258q-65 121.5-157 225t-205 182q-113 78.5-244.5 129T262 1656q128 128 290.5 196t343.5 68z"/></svg>