<svg xmlns="http://www.w3.org/2000/svg" viewBox="0 0 2048 2048"><path d="M2029 1453l-557 558-269-270 90-90 179 178 467-466 90 90m-434 72q-111-122-259-183.5t-312-61.5q-108 0-206.5 27t-184 76.5q-85.5 49.5-155 119t-119 155q-49.5 85.5-76.5 184T256 2048H128q0-143 41.5-275T288 1530q77-111 186.5-195T719 1203q-78-42-140-102T473.5 968Q430 895 407 812t-23-172q0-133 50-249.5T571 187q87-87 203.5-137T1024 0q133 0 249.5 50T1477 187q87 87 137 203.5t50 249.5q0 89-23.5 172t-67 156q-43.5 73-105.5 133t-140 102q102 36 192 95.5t163 138.5l-88 88M512 640q0 106 40.5 199t110 162.5q69.5 69.5 162.5 110t199 40.5q106 0 199-40.5t162.5-110q69.5-69.5 110-162.5t40.5-199q0-106-40.5-199t-110-162.5Q1316 209 1223 168.5T1024 128q-106 0-199 40.5t-162.5 110Q593 348 552.5 441T512 640z"/></svg>