<svg xmlns="http://www.w3.org/2000/svg" viewBox="0 0 2048 2048"><path d="M896 1280q0 82-33.5 156.5T768 1566v458l-256-128-256 128v-458q-61-55-94.5-129.5T128 1280q0-79 30-149t82.5-122.5Q293 956 362.5 926T512 896q79 0 149 30.5t122 82.5q52 52 82.5 122t30.5 149m-384 256q53 0 99.5-20t81.5-55q35-35 55-81.5t20-99.5q0-53-20-99.5t-55-81.5q-35-35-81.5-55t-99.5-20q-53 0-99.5 20t-81.5 55q-35 35-55 81.5t-20 99.5q0 53 20 99.5t55 81.5q35 35 81.5 55t99.5 20m128 106q-61 22-123 22-70 0-133-22v174l128-64 128 64v-174M1920 549v1499H896v-128h896V640h-512V128H384v624q-33 8-65.5 20T256 800V0h1115l549 549m-219-37l-293-293v293h293z"/></svg>