<svg xmlns="http://www.w3.org/2000/svg" viewBox="0 0 2048 2048"><path d="M448 1024q0 60 12.5 118t35.5 112l-111 64q-32-69-48.5-143.5T320 1024q0-91 22.5-176T406 688q41-75 99-138.5t129-111Q705 391 787.5 361T960 323v129q-109 12-202.5 61.5T595 640q-69 77-108 175.5T448 1024m640-701q90 8 172.5 38t153.5 77.5q71 47.5 129 111t99 138.5q41 75 63.5 160t22.5 176q0 77-16.5 151.5T1663 1319l-111-64q23-55 35.5-113t12.5-118q0-110-39-208.5T1453 640q-69-77-162.5-126.5T1088 452V323m-64 1277q69 0 134.5-16t125-46.5q59.5-30.5 111-74t92.5-98.5l111 65q-50 70-113.5 125.5t-137 93.5q-73.5 38-155.5 58.5t-168 20.5q-86 0-168-20.5t-156-59q-74-38.5-138-94T449 1429l112-64q41 55 92.5 98.5t111 74q59.5 30.5 125 46.5t134.5 16z"/></svg>