<svg xmlns="http://www.w3.org/2000/svg" viewBox="0 0 2048 2048"><path d="M1408 1152v128H896V640h128v512h384m231-652q135 136 208 297.5t73 354.5q0 124-32 238.5t-90.5 214q-58.5 99.5-140 181t-181 140q-99.5 58.5-214 90.5t-238.5 32q-124 0-238.5-32t-214-90.5q-99.5-58.5-181-140t-140-181q-58.5-99.5-90.5-214T128 1152q0-111 26.5-216t75-198Q278 645 347 565.5t154-141Q586 363 686 322t210-57V128H640V0h640v128h-256v128q139 0 270.5 41T1539 419l208-208 90 90-198 199m-615 1420q159 0 298.5-60.5t244-165q104.5-104.5 165-244T1792 1152q0-159-60.5-298.5t-165-244q-104.5-104.5-244-165T1024 384q-159 0-298.5 60.5t-244 165Q377 714 316.5 853.5T256 1152q0 159 60.5 298.5t165 244q104.5 104.5 244 165T1024 1920z"/></svg>