<svg xmlns="http://www.w3.org/2000/svg" viewBox="0 0 2048 2048"><path d="M1536 0q106 0 199.5 40t163 109.5q69.5 69.5 109.5 163t40 199.5q0 212-55 408t-155 367q-100 171-240 311t-311 240q-171 100-367 155t-408 55q-106 0-199.5-40t-163-109.5Q80 1829 40 1735.5T0 1536q0-212 55-408t155-367q100-171 240-311t311-240q171-100 367-155t408-55M512 1920q194 0 373.5-50.5t336-142Q1378 1636 1507 1507t220.5-285.5q91.5-156.5 142-336T1920 512q0-79-30-149t-82.5-122.5Q1755 188 1685 158t-149-30q-194 0-373.5 50.5t-336 142Q670 412 541 541T320.5 826.5q-91.5 156.5-142 336T128 1536q0 80 30 149.5t82.5 122q52.5 52.5 122 82.5t149.5 30m749-1325l192 192-90 90-51-50-101 101 50 51-90 90-51-51-102 102 51 51-90 90-51-50-101 101 50 51-90 90-192-192 90-90 51 50 101-101-50-51 90-90 51 51 102-102-51-51 90-90 51 50 101-101-50-51 90-90z"/></svg>