<svg xmlns="http://www.w3.org/2000/svg" viewBox="0 0 2048 2048"><path d="M1229 186q64 33 117 80.5t91.5 106Q1476 431 1497 499t21 141H384q0-73 21-141t59.5-126.5Q503 314 556 266.5T674 186q-4-7-18.5-33T625 98q-16-29-28.5-53T584 17q0-17 16-17 11 0 16 9l89 162q118-52 246-52t247 52l89-162q4-9 16-9 16 0 16 17 0 4-12.5 28.5t-28.5 53q-16 28.5-30.5 54.5t-18.5 33M704 384q26 0 45-19t19-45q0-26-19-45t-45-19q-26 0-45 19t-19 45q0 26 19 45t45 19m512 0q26 0 45-19t19-45q0-26-19-45t-45-19q-26 0-45 19t-19 45q0 26 19 45t45 19M384 704h1149v759q0 28-11 53t-29.5 43.5Q1474 1578 1449 1589t-53 11h-116v255q0 27-10 50.5t-27.5 41Q1225 1964 1202 1974t-50 10q-27 0-50-10.5t-40.5-28q-17.5-17.5-27.5-41t-10-49.5v-255H896v255q0 27-10 50.5t-27.5 41q-17.5 17.5-41 27.5t-50.5 10q-27 0-50-10.5t-40-28q-17-17.5-27-41t-10-49.5v-255H521q-29 0-53.5-10.5T424 1560q-19-19-29.5-43.5T384 1463V704m-192 0q26 0 49.5 10t41 27.5q17.5 17.5 27.5 41t10 49.5v512q0 26-10 49.5t-27.5 41q-17.5 17.5-41 27.5t-49.5 10q-26 0-49.5-10t-41-27.5Q84 1417 74 1393.5T64 1344V832q0-26 10-49.5t27.5-41q17.5-17.5 41-27.5t49.5-10m1536 0q26 0 49.5 10t41 27.5q17.5 17.5 27.5 41t10 49.5v512q0 26-10 49.5t-27.5 41q-17.5 17.5-41 27.5t-49.5 10q-26 0-49.5-10t-41-27.5q-17.5-17.5-27.5-41t-10-49.5V832q0-26 10-49.5t27.5-41q17.5-17.5 41-27.5t49.5-10z"/></svg>