<svg xmlns="http://www.w3.org/2000/svg" viewBox="0 0 2048 2048"><path d="M1024 896q27 0 50 10t40.5 27.5Q1132 951 1142 974t10 50q0 27-10 50t-27.5 40.5Q1097 1132 1074 1142t-50 10q-27 0-50-10t-40.5-27.5Q916 1097 906 1074t-10-50q0-27 10-50t27.5-40.5Q951 916 974 906t50-10m576 256q93 0 174.5 35t142.5 96q61 61 96 142.5t35 174.5q0 93-35 174.5t-96 142.5q-61 61-142.5 96t-174.5 35q-93 0-174.5-35t-142.5-96q-61-61-96-142.5t-35-174.5q0-93 35-174.5t96-142.5q61-61 142.5-96t174.5-35m-320 448q0 66 25 124.5t68.5 102q43.5 43.5 102 68.5t124.5 25q47 0 92-13.5t84-39.5l-443-443q-26 39-39.5 84t-13.5 92m587 176q26-39 39.5-84t13.5-92q0-66-25.5-124t-69-101.5q-43.5-43.5-101.5-69t-124-25.5q-47 0-92 13.5t-84 39.5l443 443M640 1024q0 74 26 139.5t72 116.5q46 51 108.5 84t135.5 42q19 2 38.5 2h38.5q-22 63-29 128-152 0-294.5-38.5t-273-106.5q-130.5-68-247-162T0 1024q97-109 213-203t246.5-162.5Q590 590 732 551t292-39q153 0 296 36.5T1592.5 652Q1722 719 1837 813.5t211 210.5l-91 91-8-9q-108-126-232.5-224.5T1437 721q48 66 73.5 144t25.5 159v6q-65 7-128 29v-35q0-79-30.5-149T1295 753q-52-52-122-82.5T1024 640q-79 0-149 30.5T753 753q-52 52-82.5 122T640 1024m-37 291q-45-64-68-138.5T512 1024q0-78 23-152.5T603 733q-120 52-226 126t-200 165q94 91 200 165t226 126z"/></svg>