<svg xmlns="http://www.w3.org/2000/svg" viewBox="0 0 2048 2048"><path d="M1280 1280h256v384h-256v-384m704-896v448h-384V384h384m-704 0h256v832h-256V384m320 512h384v768h-384V896m-839 110q0 43-8.5 90.5t-29.5 87q-21 39.5-56 65t-89 25.5q-19 0-37.5-.5T503 1272V762q19-2 37.5-3t38.5-1q52 0 87 22.5t56 58q21 35.5 30 79.5t9 88M64 263L1216 56v1936L64 1791V263m312 1146q57 5 114 10.5t114 5.5q57 0 102.5-18t80-48.5q34.5-30.5 59-72T886 1198q16-47 23-97t7-98q0-76-13-147.5t-46.5-127q-33.5-55.5-91-89T620 606q-61 0-122.5 7.5T376 626v783z"/></svg>