<svg xmlns="http://www.w3.org/2000/svg" viewBox="0 0 2048 2048"><path d="M1952 448q40 0 68 28t28 68v960q0 40-28 68t-68 28h-672v-128h28q9 0 19-5.5t19-13.5q9-8 17.5-17.5t14.5-17.5q47-56 91-116t81-123q2-3 8.5-14.5t14-25q7.5-13.5 13-25t5.5-13.5q0-3-1.5-5.5t-3.5-5.5l-11-10h-11l-168 172q-20 21-41 43t-44 41q-5 5-12.5 6.5t-14.5 1.5h-4v-265q6 4 23 14.5t36 21.5q19 11 35.5 19.5t20.5 8.5q7 0 12-5.5t9-10.5q1-2 1-7 0-1-9.5-11t-23.5-24.5q-14-14.5-31-31t-32-31q-15-14.5-26.5-25.5t-14.5-14V704h44q9 0 20 9.5t22 21.5q11 12 20.5 21.5t14.5 9.5q2 0 10-10t17-22.5q9-12.5 16-24.5t7-16q0-6-1-8l-4-4q-4-4-8.5-8t-8.5-8q-4-4-5-4l-75-71q-7-6-13.5-10t-16.5-4h-39V448h672m-32 740q0-9-5.5-19t-13.5-19q-8-9-17.5-17.5T1866 1118q-57-48-116.5-91.5T1627 946q-3-2-14.5-8.5t-25-14q-13.5-7.5-25-13T1549 905q-7 0-12 5.5t-9 10.5q-1 2-1 7 0 1 17 18.5t43.5 43.5q26.5 26 57.5 56.5t59.5 58.5q28.5 28 50.5 50t29 30q5 5 6.5 12.5t1.5 14.5v118q0 5-4.5 9.5t-9.5 4.5h-158q-9 0-20.5-9.5t-22-21.5q-10.5-12-20-21.5t-14.5-9.5q-2 0-10 10t-17 23q-9 13-16.5 24.5t-7.5 15.5q0 4 2 8l4 4q4 4 9 8.5t9 8q4 3.5 5 4.5l74 70q7 6 13.5 10t16.5 4h262q15 0 24-9t9-24v-251m0-579q0-15-9-24t-24-9h-251q-9 0-19 5.5t-19 13.5q-9 8-17.5 17.5T1566 630q-47 56-91 116t-81 123q-2 3-8.5 14.5t-14 25q-7.5 13.5-13 25T1353 947q0 3 1.5 5.5t3.5 5.5l11 10h11l168-172q20-21 41-43t44-41q5-5 12.5-6.5t14.5-1.5h118q5 0 9.5 4.5t4.5 9.5v158q0 9-9.5 20t-21.5 22q-12 11-21.5 20.5T1730 953q0 2 10 10t23 17q13 9 25 16t16 7q3 0 17.5-14t32-32q17.5-18 32.5-34.5t20-21.5q6-7 10-13.5t4-16.5V609M64 263L1216 56v1936L64 1791V263m376 1124l7 8 320 31 9-8v-145l-7-8-190-14v-150h188l8-9V950l-8-11H579V782h189l8-8V629l-9-8-320 25-7 8v733z"/></svg>