<svg xmlns="http://www.w3.org/2000/svg" viewBox="0 0 2048 2048"><path d="M1792 1271q61 27 128 36v613H677l-549-549V128h1792v229q-67 9-128 36V256H256v1024h512v512h1024v-521M640 1408H347l293 293v-293m1408-896v640h-64q-78 0-143-33.5t-112-94.5h-110q-28 59-70 106.5t-94.5 80.5q-52.5 33-113 51t-125.5 18h-64V896H640l-128-64 128-64h512V384h64q65 0 125.5 18t113 51q52.5 33 94.5 80.5t70 106.5h110q47-61 112-94.5t143-33.5h64m-128 139q-24 8-41 20t-30.5 26.5q-13.5 14.5-25 32.5t-23.5 38h-269l-15-43q-28-79-91-134t-145-72v626q82-17 145-72t91-134l15-43h269q12 20 23.5 38t25 32.5Q1862 981 1879 993t41 20V651z"/></svg>