<svg xmlns="http://www.w3.org/2000/svg" viewBox="0 0 2048 2048"><path d="M64 272L1216 67v1914L64 1782V272m613 347q-54 0-98 17.5T504 686q-31 32-48 76.5T439 860q0 59 18.5 98t48.5 69q30 30 68 55.5t78 56.5q17 14 26 33.5t9 41.5q0 38-23.5 58t-59.5 20q-23 0-46-6.5t-44.5-18q-21.5-11.5-40-27.5t-31.5-35v173q39 26 84 40t93 14q50 0 91-15.5t70-44.5q29-29 44.5-70t15.5-92q0-62-19.5-104.5t-48.5-72q-29-29.5-62.5-50T647 943q-29-20-48.5-43.5T579 842q0-22 8.5-38t22.5-26q14-10 33-14.5t39-4.5q33 0 69 13.5t60 37.5V641q-31-11-66.5-16.5T677 619m731 405q0 26-10 49.5t-27.5 41q-17.5 17.5-41 27.5t-49.5 10V897q27 0 50 10t40.5 27q17.5 17 27.5 40t10 50m616 86l-63 241-212-28q-17 26-35.5 50.5T1673 1419l74 192-216 126-128-168q-60 15-123 15v-210q72 0 135.5-27.5T1526 1272q47-47 74.5-110.5T1628 1026q0-72-27.5-135.5t-74.5-111q-47-47.5-110.5-75T1280 677V461h5l79-180 241 64-27 205q27 17 52 37.5t48 43.5l188-72 125 215-167 129q13 59 13 124l187 83z"/></svg>