<svg xmlns="http://www.w3.org/2000/svg" viewBox="0 0 2048 2048"><path d="M1408 1792q27 0 50 10t40.5 27.5q17.5 17.5 27.5 40.5t10 50q0 27-10 50t-27.5 40.5Q1481 2028 1458 2038t-50 10q-27 0-50-10t-40.5-27.5Q1300 1993 1290 1970t-10-50q0-27 10-50t27.5-40.5q17.5-17.5 40.5-27.5t50-10m-512 256q0-133 50-249.5t137-203.5q87-87 203.5-137t249.5-50v128q-106 0-199 40.5t-162.5 110q-69.5 69.5-110 162.5t-40.5 199H896m-384 0q0-141 36.5-272t103-245q66.5-114 160-207.5t207.5-160q114-66.5 244.5-103T1536 1024v128q-124 0-238 32t-213.5 90.5Q985 1333 903 1415t-140.5 181.5q-58.5 99.5-90.5 214T640 2048H512M2048 896h-256v1152h-128V896h-256V128h640v768m-512-640v128h384V256h-384m384 512V512h-128v128h-128V512h-128v256h384m-640 26q-149 31-282.5 93.5t-247.5 151Q636 1127 544.5 1239T389 1480q-64 129-98.5 272.5T256 2048H128q0-169 39-329t111.5-303.5Q351 1272 454 1148.5t231-221q128-97.5 278-165t317-98.5v130z"/></svg>