<svg xmlns="http://www.w3.org/2000/svg" viewBox="0 0 2048 2048"><path d="M1920 320q10 0 21 6.5t20.5 16q9.5 9.5 16 20.5t6.5 21v1280q0 10-6.5 21t-16 20.5q-9.5 9.5-20.5 16t-21 6.5h-640v-192h512v-64h-512v-128h512v-64h-512v-228q29 17 61.5 26.5t66.5 9.5q53 0 99.5-20t81.5-55q35-35 55-81.5t20-99.5h-256V576q-34 0-66.5 9.5T1280 612V320h640m-192 448q0-53-20-99.5t-55-81.5q-35-35-81.5-55t-99.5-20v256h256M720 881q0 63-31 96t-95 33h-61V768q17-2 35-5t36-3q60 0 88 31.5t28 89.5M64 317L1216 51v1946L64 1731V317m320 1095l149 17v-277l74-5q15-1 30-1t31-2q53-7 94.5-31.5t70.5-61q29-36.5 44.5-83T893 871q0-119-58.5-185.5T653 619q-67 0-134.5 5T384 633v779z"/></svg>