<svg xmlns="http://www.w3.org/2000/svg" viewBox="0 0 2048 2048"><path d="M320 1024q26 0 45 19t19 45q0 26-19 45t-45 19q-26 0-45-19t-19-45q0-26 19-45t45-19m1216-640q107 0 205 49 90 45 149 118.5t94.5 161.5q35.5 88 49.5 185t14 190q0 93-14 190t-49.5 185q-35.5 88-94.5 161.5T1741 1743q-98 49-205 49h-128v256H384v-256H0V896q0-27 10-50t27.5-40.5Q55 788 78 778t50-10h256V0h1024v384h128M512 768h768V128H512v640m768 640H512v512h768v-512m256-128V896H128v768h256v-384h1152m0 384q74 0 131.5-26t100-70q42.5-44 72-102t47-122q17.5-64 25.5-130t8-126q0-60-8-126t-25.5-130q-17.5-64-47-122t-72-102q-42.5-44-100-70T1536 512h-64q-26 0-45 19t-19 45v128q0 28 13 41.5t32.5 18.5q19.5 5 42 4.5t40.5-.5q27 0 50 10t40.5 27.5Q1644 823 1654 846t10 50v384q0 27-10 50t-27.5 40.5Q1609 1388 1586 1398t-50 10q-18 0-40.5-.5t-42 4.5q-19.5 5-32.5 18.5t-13 41.5v128q0 26 19 45t45 19h64z"/></svg>