<svg xmlns="http://www.w3.org/2000/svg" viewBox="0 0 2048 2048"><path d="M448 1024q56 0 101.5 25.5T631 1117q36 42 61.5 96t42.5 111q17 57 25 112t8 100q0 45-8 100t-25 112q-17 57-42.5 111t-61.5 96q-36 42-81.5 67.5T448 2048q-35 0-64-17-29 17-64 17-56 0-101.5-25.5T137 1955q-36-42-61.5-96T33 1748q-17-57-25-112t-8-100q0-45 8-100t25-112q17-57 42.5-111t61.5-96q36-42 81.5-67.5T320 1024q35 0 64 17 29-17 64-17m-321 512q0 45 7 91t21 90.5q14 44.5 36 86t51 75.5q16 19 34.5 30t43.5 11v-768q-25 0-43.5 11t-34.5 30q-29 35-51 76t-36 85.5q-14 44.5-21 90.5t-7 91m321 384q25 0 43.5-11t34.5-30q29-34 50.5-75.5t36-86Q627 1673 634 1627t7-91q0-45-7-91t-21.5-90.5q-14.5-44.5-36-85.5t-50.5-76q-16-19-34.5-30t-43.5-11v768m1600-320q0 35-17 64 17 29 17 64 0 56-25.5 101.5T1955 1911q-42 36-96 61.5t-111 42.5q-57 17-112 25t-100 8q-45 0-100-8t-112-25q-57-17-111-42.5t-96-61.5q-42-36-67.5-81.5T1024 1728q0-35 17-64-17-29-17-64 0-56 25.5-101.5t67.5-81.5q42-36 96-61.5t111-42.5q57-17 112-25t100-8q45 0 100 8t112 25q57 17 111 42.5t96 61.5q42 36 67.5 81.5T2048 1600m-512-193q-45 0-91 7t-90.5 21.5q-44.5 14.5-86 36T1193 1522q-19 16-30 34.5t-11 43.5h768q0-25-11-43.5t-30-34.5q-35-29-76-50.5t-85.5-36Q1673 1421 1627 1414t-91-7m0 514q45 0 91-7t90.5-21q44.5-14 85.5-36t76-51q19-16 30-34.5t11-43.5h-768q0 25 11 43.5t30 34.5q34 29 75.5 51t86 36q44.5 14 90.5 21t91 7m-384-914q-29 17-64 17-56 0-101.5-25.5T905 931q-36-42-61.5-96T801 724q-17-57-25-112t-8-100q0-45 8-100t25-112q17-57 42.5-111T905 93q36-42 81.5-67.5T1088 0q35 0 64 17 29-17 64-17 56 0 101.5 25.5T1399 93q36 42 61.5 96t42.5 111q17 57 25 112t8 100q0 45-8 100t-25 112q-17 57-42.5 111t-61.5 96q-36 42-81.5 67.5T1216 1024q-35 0-64-17m257-495q0-45-7-91t-21.5-90.5q-14.5-44.5-36-85.5t-50.5-76q-16-19-34.5-30t-43.5-11v768q25 0 43.5-11t34.5-30q29-34 50.5-75.5t36-86Q1395 649 1402 603t7-91m-514 0q0 45 7 91t21 90.5q14 44.5 36 86t51 75.5q16 19 34.5 30t43.5 11V128q-25 0-43.5 11t-34.5 30q-29 35-51 76t-36 85.5Q909 375 902 421t-7 91z"/></svg>