<svg xmlns="http://www.w3.org/2000/svg" viewBox="0 0 2048 2048"><path d="M1609 992q-125 0-234.5 44t-192 122.5q-82.5 78.5-132.5 186T994 1579l-610 469 248-794L0 768h784L1024 0l240 768h784l-313 240q-31-7-62.5-11.5T1609 992m-9 160q93 0 174.5 35.5t142 96q60.5 60.5 96 142T2048 1600q0 93-35.5 174.5t-96 142q-60.5 60.5-142 96T1600 2048q-93 0-174.5-35.5t-142-96q-60.5-60.5-96-142T1152 1600q0-93 35.5-174.5t96-142q60.5-60.5 142-96T1600 1152m-320 448q0 66 25.5 124t69 101.5q43.5 43.5 101.5 69t124 25.5q47 0 92-13.5t84-39.5l-443-443q-26 39-39.5 84t-13.5 92m587 176q26-39 39.5-84t13.5-92q0-66-25.5-124t-69-101.5q-43.5-43.5-101.5-69t-124-25.5q-47 0-92 13.5t-84 39.5l443 443z"/></svg>