<svg xmlns="http://www.w3.org/2000/svg" viewBox="0 0 2048 2048"><path d="M1406 1025q0 26-10 49t-27 40q-17 17-40 27t-49 10V898q26 0 49 10t40 27.5q17 17.5 27 40.5t10 49m611 84l-63 239-209-28q-17 26-36 50t-40 46l73 190-213 124-127-166q-30 8-60.5 11t-61.5 4v-209q71 0 134-27t110-73.5q47-46.5 74-109.5t27-134q0-71-27-134t-74-110q-47-47-109.5-74T1280 681V467h5l79-178 238 63-26 203q26 17 51 37t47 43l186-71 124 213-165 127q6 31 9.5 61.5t3.5 61.5l185 82M64 273L1216 68v1912L64 1781V273m676 354q-93 0-164 31t-119 86q-48 55-73 130.5T359 1039q0 83 21.5 152.5T445 1311q43 50 108.5 77.5T706 1416q38 0 77.5-5.5T858 1388v-162q-72 43-155 43-53 0-91-20t-63-53.5q-25-33.5-37-77t-12-91.5q0-51 13-96.5t40-80q27-34.5 67.5-54.5t96.5-20q38 0 73.5 9.5T858 815V644q-29-10-58.5-13.5T740 627z"/></svg>