<svg xmlns="http://www.w3.org/2000/svg" viewBox="0 0 2048 2048"><path d="M918 1881q-10 38-15.5 77.5T896 2038q-128-15-244-60t-215.5-115.5q-99.5-70.5-180-162T119 1501q-57-108-88-228.5T0 1024q0-141 36.5-272t103-245q66.5-114 160-207.5t207.5-160Q621 73 751.5 36.5T1024 0q141 0 271.5 36.5T1540 140q114 67 207.5 160.5T1908 508q67 114 103.5 244.5T2048 1024h-71q-14-23-29.5-45t-34.5-42q-6-87-31-169H657q-8 64-12.5 127.5T640 1024q0 65 4.5 128.5T657 1280h367q0 32 5 64t13 64H679q12 57 32.5 125t50 133.5q29.5 65.5 68.5 122t88 92.5m915-1241q-39-81-92.5-152T1621 357.5q-66-59.5-142.5-105T1317 178q36 50 64.5 106t51 115.5q22.5 59.5 38.5 120t28 120.5h334m-809-512q-50 0-92.5 27t-78 71q-35.5 44-64 99.5T739 438q-22 57-37 110t-23 92h690q-8-39-23-92t-37-110q-22-57-50.5-112.5t-64-99.5q-35.5-44-78.5-71t-92-27m-292 49q-85 29-162 74.5t-143 105q-66 59.5-120 131T215 640h334q11-55 27.5-117.5t39.5-124q23-61.5 52-119T732 177m-604 847q0 133 37 256h363q-8-64-12-127.5t-4-128.5q0-65 4-128.5T528 768H165q-37 123-37 256m85 384q39 81 92.5 152.5t120 130.5q66.5 59 143.5 104.5t162 74.5q-36-50-64.5-106t-51-115q-22.5-59-39-120T548 1408H213m1549 181q65 33 118 81t90.5 108q37.5 60 57.5 128.5t20 141.5h-128q0-79-30-149t-82.5-122.5Q1755 1724 1685 1694t-149-30q-80 0-149.5 30t-122 82.5Q1212 1829 1182 1899t-30 149h-128q0-73 20-141.5t57-128.5q37-60 90-108t118-81q-75-54-116-135.5t-41-173.5q0-79 30-149t82.5-122.5q52.5-52.5 122-82.5t149.5-30q79 0 149 30t122.5 82.5Q1860 1061 1890 1131t30 149q0 92-41.5 173.5T1762 1589m-226-53q53 0 99.5-20t81.5-55q35-35 55-81.5t20-99.5q0-53-20-99.5t-55-81.5q-35-35-81.5-55t-99.5-20q-53 0-99.5 20t-81.5 55q-35 35-55 81.5t-20 99.5q0 53 20 99.5t55 81.5q35 35 81.5 55t99.5 20z"/></svg>