<svg xmlns="http://www.w3.org/2000/svg" viewBox="0 0 2048 2048"><path d="M1536 640q0 80-30 149.5t-82.5 122Q1371 964 1301 994t-149 30H0V896h1152q53 0 99.5-20t81.5-55q35-35 55-81.5t20-99.5q0-53-20-99.5t-55-81.5q-35-35-81.5-55t-99.5-20q-53 0-99.5 20T971 459q-35 35-55 81.5T896 640H768q0-79 30-149t82.5-122.5q52.5-52.5 122-82.5t149.5-30q79 0 149 30t122.5 82.5Q1476 421 1506 491t30 149m256 256q53 0 99.5 20t81.5 55q35 35 55 81.5t20 99.5q0 53-20 99.5t-55 81.5q-35 35-81.5 55t-99.5 20h-162q34 58 34 128 0 53-20 99.5t-55 81.5q-35 35-81.5 55t-99.5 20q-53 0-99.5-20t-81.5-55q-35-35-55-81.5t-20-99.5h128q0 27 10 50t27.5 40.5q17.5 17.5 40.5 27.5t50 10q27 0 50-10t40.5-27.5q17.5-17.5 27.5-40.5t10-50q0-27-10-50t-27.5-40.5Q1481 1428 1458 1418t-50-10H0v-128h1792q27 0 50-10t40.5-27.5q17.5-17.5 27.5-40.5t10-50q0-27-10-50t-27.5-40.5Q1865 1044 1842 1034t-50-10q-27 0-50 10t-40.5 27.5Q1684 1079 1674 1102t-10 50h-128q0-53 20-99.5t55-81.5q35-35 81.5-55t99.5-20m-64-128q-26 0-45-19t-19-45q0-26 19-45t45-19q26 0 45 19t19 45q0 26-19 45t-45 19m-1152 0q-26 0-45-19t-19-45q0-26 19-45t45-19q26 0 45 19t19 45q0 26-19 45t-45 19m384 768q26 0 45 19t19 45q0 26-19 45t-45 19q-26 0-45-19t-19-45q0-26 19-45t45-19z"/></svg>