<svg xmlns="http://www.w3.org/2000/svg" viewBox="0 0 2048 2048"><path d="M982 993L467 478l120-120 398 399L1741 2l117 117-876 874m631 64q41 0 73.5 17.5t55.5 46q23 28.5 35 64.5t12 74q0 41-14 80t-39.5 70.5Q1710 1441 1674 1460t-79 19q-40 0-72.5-17t-55.5-45.5q-23-28.5-35.5-64T1419 1279q0-41 14-80.5t39.5-71q25.5-31.5 61-51t79.5-19.5m-609 51q46 0 84 21t64.5 55q26.5 34 41 76.5t14.5 85.5q0 40-13 79t-37 69.5q-24 30.5-58.5 49T1022 1562q-46 0-83.5-21t-64.5-54.5q-27-33.5-41.5-75.5t-14.5-85q0-40 12.5-79t36.5-70q24-31 58.5-50t78.5-19m213 486q10 0 23.5 4t27 9q13.5 5 26 11.5t21.5 10.5q21 11 35 23.5t23.5 28q9.5 15.5 15 34t10.5 40.5q6 26 12 65t11 80.5q5 41.5 8 81t3 66.5H622q0-28 3-67t7.5-80q4.5-41 11-80t12.5-66q5-22 10.5-41t15-35q9.5-16 23.5-29t35-23q9-4 21.5-9.5t26-11q13.5-5.5 26.5-9t23-3.5q13 0 30.5 13t41 29q23.5 16 53 29t65.5 13q37 0 66.5-13t53-29q23.5-16 41-29t29.5-13m-751-118q-44 0-79.5-19.5t-61-50.5q-25.5-31-39.5-70.5t-14-80.5q0-38 12.5-74t35.5-64q23-28 55.5-45t73.5-17q43 0 78.5 19.5t61 50.5q25.5 31 39.5 70.5t14 79.5q0 38-12 74.5t-35 64.5q-23 28-55.5 45t-73.5 17m1316 20q8 0 21 3.5t26.5 9q13.5 5.5 25.5 11t20 8.5q39 18 54 48t24 70q7 33 11 67t6 69q2 35 3 70t3 68h-454q-7-61-13-122t-24-114q-18-53-54.5-95.5T1325 1521q7-3 16.5-7.5t20-8q10.5-3.5 20.5-6.5t18-3q10 0 27 12.5t41 28q24 15.5 54.5 28t68.5 12.5q38 0 69-12.5t54.5-28q23.5-15.5 40.5-28t27-12.5m-1051 23q-41 17-70 37t-49.5 45q-20.5 25-33.5 57.5t-22 74.5q-21 93-32 187H64q1-29 5.5-65t10.5-72.5q6-36.5 12.5-72T106 1646q5-20 10.5-37.5t14-32.5q8.5-15 21.5-27t33-21q7-3 19.5-8.5t26-11q13.5-5.5 26-9t20.5-3.5q10 0 27 12.5t40.5 28q23.5 15.5 54.5 28t69 12.5q37 0 68-12.5t55-28q24-15.5 41-28t26-12.5q16 0 37.5 8.5T731 1519z"/></svg>