<svg xmlns="http://www.w3.org/2000/svg" viewBox="0 0 2048 2048"><path d="M1888 832q14 0 23 9t9 23v256q0 14-9 23t-23 9h-32V832h32m0 384q14 0 23 9t9 23v256q0 14-9 23t-23 9h-32v-320h32m0-768q14 0 23 9t9 23v256q0 14-9 23t-23 9h-96v912q0 20-14 34t-34 14h-528v-192h384v-64h-384v-128h384v-64h-384V829l240 87 159-64v138q0 7 5 11.5t12 4.5q7 0 12-4.5t5-11.5V840l64-28-258-115-239 94V320h528q20 0 34 14t14 34v80h96m-435 624q16 0 34.5-1.5t35.5-6.5q17-5 32-14t25-24l-1-123q-5 2-24 9.5t-40 16q-21 8.5-38.5 15T1456 950q-39-12-77.5-26.5T1302 895q-1 26-1.5 53t-.5 53q0 21 18.5 34.5t43.5 21.5q25 8 51 11.5t40 3.5M128 307l1024-173v1780L128 1741V307m285 1035l102 5V867l271 495 136 8V660l-127 8v351q0 31-1 62.5t1 62.5L543 683l-130 5v654z"/></svg>