<svg xmlns="http://www.w3.org/2000/svg" viewBox="0 0 2048 2048"><path d="M2048 256v512h-512V640h316q-59-117-146.5-211.5t-195.5-161q-108-66.5-231.5-103T1024 128q-154 0-295.5 47.5t-258 134q-116.5 86.5-203 208T136 787L14 749q50-166 149-304t232.5-237q133.5-99 294-153.5T1024 0q137 0 267 34t245.5 98.5Q1652 197 1750 289.5T1920 499V256h128M1024 1920q39 0 77.5-4.5t76.5-12.5l108 108q-31 8-62.5 14.5T1160 2037l-8-64 8 64q-34 5-67.5 8t-68.5 3q-138 0-267.5-34t-245-98.5q-115.5-64.5-213-157T128 1549v243H0v-512h512v128H196q59 117 146.5 211.5t195.5 161q108 66.5 231.5 103T1024 1920m1021-418l-226 226 226 227-90 90-227-226-227 227-90-91 227-227-227-227 90-90 227 227 227-227 90 91z"/></svg>