<svg xmlns="http://www.w3.org/2000/svg" viewBox="0 0 2048 2048"><path d="M1088 960h320v128h-320v320H960v-320H640V960h320V640h128v320m-64-832q124 0 238.5 32t214 90.5q99.5 58.5 181 140t140 181q58.5 99.5 90.5 214t32 238.5q0 124-32 238.5t-90.5 214q-58.5 99.5-140 181t-181 140q-99.5 58.5-214 90.5t-238.5 32q-124 0-238.5-32t-214-90.5q-99.5-58.5-181-140t-140-181q-58.5-99.5-90.5-214T128 1024q0-124 32-238.5t90.5-214q58.5-99.5 140-181t181-140Q671 192 785.5 160t238.5-32m0 1664q106 0 204-27.5t183.5-77.5q85.5-50 155.5-120t120-155.5q50-85.5 77.5-183.5t27.5-204q0-106-27.5-204T1687 636.5Q1637 551 1567 481t-155.5-120q-85.5-50-183.5-77.5T1024 256q-106 0-204 27.5T636.5 361Q551 411 481 481T361 636.5Q311 722 283.5 820T256 1024q0 106 27.5 204t77.5 183.5q50 85.5 120 155.5t155.5 120q85.5 50 183.5 77.5t204 27.5z"/></svg>