<svg xmlns="http://www.w3.org/2000/svg" viewBox="0 0 2048 2048"><path d="M1030 169q22 0 41.5 8.5t34 22.5q14.5 14 23 33.5t8.5 41.5q0 15-4 29.5t-10 28.5Q999 634 879.5 932T640 1533q-32 80-66 146t-81.5 113.5q-47.5 47.5-113 74T218 1893q-27 0-58-2t-57.5-11.5q-26.5-9.5-44-30T41 1792q0-20 7.5-37.5t20.5-31q13-13.5 31-21t38-7.5q17 0 33 1.5t33 1.5q66 0 107-23.5t68-61.5q27-38 46-86t42-98q-78-189-154.5-376T158 677L53 420q-12-29-24.5-58.5T6 303q-6-16-6-36 0-23 9-43.5T33 188q15-15 35.5-24t43.5-9q37 0 66 21t41 56v1l362 915h5q7-17 25-65t43.5-114Q680 903 710 824t60.5-159q30.5-80 59-155T880 376.5q22-58.5 35-94t13-36.5q17-34 38.5-55.5T1030 169m784 304q0 22-10.5 45t-29.5 36q-18 12-38.5 22t-40.5 20l-62 31q-38 19-83.5 40.5T1455 710q-49 21-95 38.5t-85.5 28Q1235 787 1210 787q-7 0-18-2t-11-12q0-14 32-47t81.5-75q49.5-42 109-88t115-86q55.5-40 99.5-68.5t62-35.5q6-2 14.5-3t15.5-1q21 0 40 8t33.5 22q14.5 14 22.5 33t8 41m-603 832q26 0 71.5 13t100.5 34q55 21 115 47t114 52q54 26 97 49t65 37q19 12 29.5 36t10.5 45q0 22-8.5 41t-22.5 33.5q-14 14.5-33.5 22.5t-40.5 8q-17 0-29-4-3-1-6-3l-6-4q-19-12-62-41t-97.5-67q-54.5-38-112.5-81.5t-105.5-83.5q-47.5-40-78.5-72t-31-48q0-10 11.5-12t18.5-2m742-367q20 0 37.5 8.5t30 22.5q12.5 14 20 32.5t7.5 37.5q0 16-6.5 34.5t-18.5 34q-12 15.5-27.5 25.5t-33.5 10q-22 0-74-1t-118-4.5q-66-3.5-138.5-9.5t-135-15.5Q1434 1103 1390 1090t-54-32q0-1-.5-2t-.5-2q0-10 14-17t21-9q25-10 70-21t100.5-21q55.5-10 115.5-18.5t116.5-15q56.5-6.5 104-10.5t76.5-4z"/></svg>