<svg xmlns="http://www.w3.org/2000/svg" viewBox="0 0 2048 2048"><path d="M1472 1472h-192v-320h192v320m576-1152v1408h-768v-192h192q26 0 45-19t19-45v-128h128q26 0 45-19t19-45V960q6-6 24.5-24t42.5-41.5q24-23.5 50.5-50t48.5-49q22-22.5 36.5-39T1945 736q0-7-4-11-6-6-25.5-26t-45.5-46.5q-26-26.5-55-55.5t-54.5-53.5q-25.5-24.5-43-40.5t-21.5-16q-7 0-11 4-6 6-26.5 25.5t-47 45.5q-26.5 26-55.5 55t-53.5 54.5q-24.5 25.5-40.5 43t-16 21.5q0 4 14.5 20.5t36.5 39q22 22.5 49 49t51 50q24 23.5 42.5 41.5t24.5 24v320h-128v-128q0-26-19-45t-45-19h-192V320h768m-208 416l-144 144-144-144 144-144 144 144M64 263L1216 56v1936L64 1791V263m425 393H331l220 759h164l190-774H747q-29 140-57 279t-59 279q-35-138-70.5-274T489 651v5z"/></svg>