<svg xmlns="http://www.w3.org/2000/svg" viewBox="0 0 2048 2048"><path d="M2048 1573v475h-512v-256h-256v-256h-256v-207q-74 39-155 59t-165 20q-97 0-187-25t-168-71q-78-46-142.5-110.5T96 1059q-46-78-71-168T0 704q0-97 25-187t71-168q46-78 110.5-142.5T349 96q78-46 168-71T704 0q97 0 187 25t168 71q78 46 142.5 110.5T1312 349q46 78 71 168t25 187q0 51-8 101t-23 98l671 670m-128 54l-690-690q22-57 36-114.5t14-118.5q0-119-45.5-224T1111 297q-78-78-183-123.5T704 128q-119 0-224 45.5T297 297q-78 78-123.5 183T128 704q0 119 45.5 224T297 1111q78 78 183 123.5t224 45.5q97 0 190.5-33t168.5-95h89v256h256v256h256v256h256v-293M512 384q27 0 50 10t40.5 27.5Q620 439 630 462t10 50q0 27-10 50t-27.5 40.5Q585 620 562 630t-50 10q-27 0-50-10t-40.5-27.5Q404 585 394 562t-10-50q0-27 10-50t27.5-40.5Q439 404 462 394t50-10z"/></svg>