<svg xmlns="http://www.w3.org/2000/svg" viewBox="0 0 2048 2048"><path d="M1664 0q27 0 50 10t40.5 27.5Q1772 55 1782 78t10 50v992q0 31 9.5 54.5t23.5 44q14 20.5 31 40.5t31 45.5q14 25.5 23.5 58t9.5 77.5v480q0 27-10 50t-27.5 40.5Q1865 2028 1842 2038t-50 10H960l128-128h448v-480q0-45 9.5-77.5t23.5-58q14-25.5 31-45.5t31-40.5q14-20.5 23.5-44t9.5-54.5V128H384v870q-32 4-64.5 10.5T256 1026V0h1408m128 1440q0-24-4.5-42t-13-33q-8.5-15-20-29.5T1728 1304q-15 17-26.5 31.5t-20 29.5q-8.5 15-13 33t-4.5 42v480h128v-480M768 1152h128v384H512v-128h190q-45-60-112-94t-142-34q-47 0-92 13.5t-84 39.5l443 443q36-56 47-123l127 22q-9 53-30 101.5t-53 91.5l87 87-90 90-87-86q-58 43-127 66t-141 23q-91 0-174-35.5T128 1911v137H0v-384h384v128H194q45 60 112 94t142 34q47 0 92-13.5t84-39.5l-443-443q-36 56-47 123L7 1525q9-53 30-101.5t53-91.5l-87-87 90-90 87 86q58-43 127-66t141-23q91 0 174 35.5T768 1289v-137z"/></svg>