<svg xmlns="http://www.w3.org/2000/svg" viewBox="0 0 2048 2048"><path d="M1861 699q91 91 139 207.5t48 245.5q0 129-48 245t-139 207q-91 91-207.5 139.5T1408 1792q-106 0-203.5-32.5T1024 1664l-256 256L0 1152l896-896h768v309q54 24 103.5 57.5T1861 699M768 1739l768-768V656q-31-8-63-12t-65-4h-64q-26 0-45-19t-19-45q0-26 19-45t45-19h64q67 0 128 13V384H949l-768 768 587 587m640-75q106 0 199-40.5t162.5-110q69.5-69.5 110-162.5t40.5-199q0-71-18.5-136.5t-52-122.5q-33.5-57-81-104T1664 709v315l-548 548q64 45 138 68.5t154 23.5z"/></svg>