<svg xmlns="http://www.w3.org/2000/svg" viewBox="0 0 2048 2048"><path d="M1408 1024q0 26-10 49.5t-27.5 41q-17.5 17.5-41 27.5t-49.5 10V897q27 0 50 10t40.5 27q17.5 17 27.5 40t10 50m616 86l-63 241-212-28q-17 26-35.5 50.5T1673 1419l74 192-216 126-128-168q-60 15-123 15v-210q72 0 135.5-27.5T1526 1272q47-47 74.5-110.5T1628 1026q0-72-27.5-135.5t-74.5-111q-47-47.5-110.5-75T1280 677V461h5l79-180 241 64-27 205q27 17 52 37.5t48 43.5l188-72 125 215-167 129q13 59 13 124l187 83M769 850q0 72-38 101t-105 29q-13 0-25-.5t-25-.5V728q17-1 33.5-2t33.5-1q126 0 126 125M64 272L1216 67v1914L64 1782V272m363 1115l149 18v-288q75 2 142.5-9.5T836 1064q50-32 79.5-88T945 832q0-122-65-186t-186-64q-66 0-133 5.5T427 597v790z"/></svg>