<svg xmlns="http://www.w3.org/2000/svg" viewBox="0 0 2048 2048"><path d="M1915 256q8 0 20 7.5t23 18q11 10.5 19 22t8 20.5v1361q0 9-8 17t-19.5 14q-11.5 6-23.5 9.5t-19 3.5h-635v-130h193v-190h-193v-66h193v-190h-193v-66h193V897h-193v-66h193V641h-193v-66h193V385h-193V256h635m-60 1153h-319v190h319v-190m0-256h-319v190h319v-190m0-256h-319v190h319V897m0-256h-319v190h319V641m0-256h-319v190h319V385M64 317L1216 51v1946L64 1731V317m450 719l-198 371 166 9 111-243 3.5-10.5q2.5-7.5 5-16t4.5-16q2-7.5 2-10.5h2q2 8 3.5 16t3.5 16q1 9 7 20l116 259 187 11-216-409 210-402-176 10-107 238q-8 16-12 33.5t-9 34.5h-2q-3-17-8.5-33.5T595 882l-92-226-171 9 182 371z"/></svg>