<svg xmlns="http://www.w3.org/2000/svg" viewBox="0 0 2048 2048"><path d="M960 1421q63 0 119 24t98 66q42 42 66 98t24 119q0 63-24 119t-66 98q-42 42-98 66t-119 24q-63 0-119-24t-98-66q-42-42-66-98t-24-119q0-63 24-119t66-98q42-42 98-66t119-24m0 512q42 0 79.5-16t65.5-44q28-28 44-65.5t16-79.5q0-42-16-79.5t-44-65.5q-28-28-65.5-44t-79.5-16q-42 0-79.5 16t-65.5 44q-28 28-44 65.5t-16 79.5q0 42 16 79.5t44 65.5q28 28 65.5 44t79.5 16m1069-250l-90 90L275 109l90-90 113 112q110-64 232-97.5T960 0q132 0 254.5 34.5t229.5 97q107 62.5 194.5 150t150 194.5q62.5 107 97 229.5T1920 960v31l-324 259 433 433m-246-747q-90-35-184-53t-191-18q-46 0-91 4t-90 12l278 278 278-223M960 128q-102 0-200 24.5T572 225l548 549q71-18 142.5-27.5T1407 737q94 0 186.5 15.5T1775 798q-29-145-104-268t-183.5-212.5Q1379 228 1243.5 178T960 128M685 1375q-26 20-48 43.5t-41 49.5L0 991q0-199 63-372.5T265 299l91 91q-80 85-134 188.5T145 797q88-29 179.5-44.5T510 737q54 0 106.5 5T722 757l302 301v211q-16-2-32-3.5t-32-1.5q-16 0-32 1.5t-32 3.5V940q-185-76-385-76-97 0-190.5 18.5T137 936l548 439m609-47l91 91-61 49q-19-26-41-49.5t-48-43.5l59-47z"/></svg>