<svg xmlns="http://www.w3.org/2000/svg" viewBox="0 0 2048 2048"><path d="M960 512q93 0 174.5 35t142.5 96q61 61 96 142.5t35 174.5q0 93-35 174.5t-96 142.5q-61 61-142.5 96T960 1408q-93 0-174.5-35T643 1277q-61-61-96-142.5T512 960q0-93 35-174.5T643 643q61-61 142.5-96T960 512m0 768q66 0 124-25t101.5-68.5q43.5-43.5 69-102T1280 960q0-66-25.5-124t-69-101.5q-43.5-43.5-101.5-69T960 640q-66 0-124.5 25.5t-102 69Q690 778 665 836t-25 124q0 66 25 124.5t68.5 102q43.5 43.5 102 68.5t124.5 25m64-896H896V192h128v192M507 598L372 462l90-90 136 135-91 91m-123 426H192V896h192v128m123 298l91 91-136 135-90-90 135-136m389 214h128v192H896v-192m517-214l135 136-90 90-136-135 91-91m315-426v128h-192V896h192m-315-298l-91-91 136-135 90 90-135 136z"/></svg>