<svg xmlns="http://www.w3.org/2000/svg" viewBox="0 0 2048 2048"><path d="M1920 1920v128H0v-128h128v-576q0-66 25-124t68.5-101.5q43.5-43.5 102-69T448 1024h448V672q0-9 7.5-15.5t18-10q10.5-3.5 21.5-5t17-1.5q6 0 17 1.5t21.5 5q10.5 3.5 18 10t7.5 15.5v352h448q66 0 124 25.5t101.5 69q43.5 43.5 69 101.5t25.5 124v576h128M448 1152q-37 0-70 13t-58.5 36q-25.5 23-42 54.5T257 1323q37 41 86.5 63t104.5 22q66 0 114.5-26.5T653 1306q11-12 22.5-19t28.5-7q17 0 28.5 7t22.5 19q42 49 90.5 75.5T960 1408q66 0 114.5-26.5t90.5-75.5q11-12 22.5-19t28.5-7q17 0 28.5 7t22.5 19q42 49 90.5 75.5T1472 1408q55 0 104.5-22t86.5-63q-4-36-20.5-67.5t-42-54.5q-25.5-23-58.5-36t-70-13H448m-192 768h1408v-435q-48 24-93 37.5t-99 13.5q-72 0-137-24.5t-119-72.5q-54 48-119 72.5T960 1536q-72 0-137-24.5T704 1439q-54 48-119 72.5T448 1536q-54 0-99-13.5t-93-37.5v435M960 512q-26 0-45-19t-19-45q0-12 8-31t18.5-40q10.5-21 21-40t16.5-30q6 11 16.5 30t21 40q10.5 21 18.5 40t8 31q0 26-19 45t-45 19z"/></svg>