<svg xmlns="http://www.w3.org/2000/svg" viewBox="0 0 2048 2048"><path d="M1920 896v832q0 40-15 75t-41 61q-26 26-61 41t-75 15H320q-40 0-75-15t-61-41q-26-26-41-61t-15-75v-507q0-37 1.5-67t2-59.5q.5-29.5 0-59.5t-3.5-67q-2-21-6-38.5t-8.5-33.5q-4.5-16-10-32.5T93 826L22 541l1738-434 124 497L713 896h1207M681 508l-321 80 352 176 321-80-352-176m543 129l322-81-352-175-322 80 352 176m-1046 4l61 241 282-70-343-171m1489-379l-282 71 342 171-60-242m125 762H256v704q0 26 19 45t45 19h1408q26 0 45-19t19-45v-704z"/></svg>