<svg xmlns="http://www.w3.org/2000/svg" viewBox="0 0 2048 2048"><path d="M128 896q52 0 99-20.5t81.5-55q34.5-34.5 55-81T384 640q0-71-3-142t4.5-138.5q7.5-67.5 32-130.5T496 112q54-54 125-83T768 0v128q-53 0-99.5 20.5t-81 55Q553 238 532.5 285T512 384q0 56 2 110.5t.5 107q-1.5 52.5-9.5 102T478 798q-19 45-52 86t-85 76q52 35 85 76t52 86q19 45 27 94.5t9.5 102q1.5 52.5-.5 107t-2 110.5q0 53 20.5 99.5t55 81q34.5 34.5 81 55T768 1792v128q-76 0-147-29t-125-83q-54-54-78.5-117t-32-130.5Q378 1493 381 1422t3-142q0-52-20.5-99t-55-81.5q-34.5-34.5-81.5-55t-99-20.5V896M1280 0q76 0 147 29t125 83q54 54 78.5 117t32 130.5Q1670 427 1667 498t-3 142q0 53 20.5 99.5t55 81q34.5 34.5 81 55T1920 896v128q-53 0-99.5 20.5t-81 55q-34.5 34.5-55 81.5t-20.5 99q0 71 3 142t-4.5 138.5q-7.5 67.5-32 130.5t-78.5 117q-54 54-125 83t-147 29v-128q52 0 99-20.5t81.5-55q34.5-34.5 55-81t20.5-99.5q0-56-2-110.5t-.5-107q1.5-52.5 9.5-102t27-94.5q19-45 52-86t85-76q-52-35-85-76t-52-86q-19-45-27-94.5t-9.5-102q-1.5-52.5.5-107t2-110.5q0-52-20.5-99t-55-81.5q-34.5-34.5-81.5-55t-99-20.5V0z"/></svg>