<svg xmlns="http://www.w3.org/2000/svg" viewBox="0 0 2048 2048"><path d="M1261 1344H787L640 893l384-279 384 279-147 451m-4-403l-233-169-233 169 89 275h288l89-275M1024 0q141 0 272 36.5t245 103q114 66.5 207.5 160t160 207.5q66.5 114 103 245t36.5 272q0 141-36.5 272t-103 245q-66.5 114-160 207.5t-207.5 160q-114 66.5-245 103t-272 36.5q-141 0-272-36.5t-245-103q-114-66.5-207.5-160t-160-207.5q-66.5-114-103-244.5T0 1024q0-141 36.5-272t103-245q66.5-114 160-207.5t207.5-160Q621 73 751.5 36.5T1024 0m887 895q-22-151-94-288l-135-20-35 235 167 169 97-96m-736-754q-38-7-75.5-10t-75.5-3q-38 0-75.5 3T873 141l-61 122 212 106 212-106-61-122M231 607q-72 137-94 288l97 96 167-169-35-235-135 20m152 1042q107 110 245 178l120-62-109-211-234-39-22 134m405 239q117 32 236 32t236-32l-133-69 198-381 423-70 25 147q66-101 103-214.5t43-234.5l-107 106-301-306 64-425 148 22q-75-94-172.5-164.5T1341 186l67 134-384 192-384-192 67-134q-112 42-209.5 112.5T325 463l148-22 64 425-301 306-107-106q6 121 43 234.5T275 1515l25-147 423 70 198 381-133 69m632-61q138-68 245-178l-22-134-234 39-109 211 120 62z"/></svg>