<svg xmlns="http://www.w3.org/2000/svg" viewBox="0 0 2048 2048"><path d="M1792 1120q0 31 9.5 54.5t23.5 44q14 20.5 31 40.5t31 45.5q14 25.5 23.5 58t9.5 77.5v480q0 27-10 50t-27.5 40.5Q1865 2028 1842 2038t-50 10H256V0h1408q27 0 50 10t40.5 27.5Q1772 55 1782 78t10 50v384h-128V128H384v1792h1152v-480q0-45 9.5-77.5t23.5-58q14-25.5 31-45.5t31-40.5q14-20.5 23.5-44t9.5-54.5V896h128v224m0 320q0-24-4.5-42t-13-33q-8.5-15-20-29.5T1728 1304q-15 17-26.5 31.5t-20 29.5q-8.5 15-13 33t-4.5 42v480h128v-480m256-800v128h-677l162 163-90 90-317-317 317-317 90 90-162 163h677z"/></svg>