<svg xmlns="http://www.w3.org/2000/svg" viewBox="0 0 2048 2048"><path d="M1792 512v1280q0 53-20.5 99.5t-55 81q-34.5 34.5-81.5 55t-99 20.5H384q-53 0-99.5-20.5t-81-55q-34.5-34.5-55-81T128 1792V512h256V384q0-79 30.5-149T497 113q52-52 122-82.5T768 0q104 0 193 52 89-52 191-52 79 0 149 30.5t122 82.5q52 52 82.5 122t30.5 149v128h256m-384-128q0-52-20.5-99t-55-81.5q-34.5-34.5-81.5-55t-99-20.5q-45 0-85 15 29 36 46 71t25.5 70q8.5 35 11 71.5t2.5 76.5v80h256V384M512 512h512V384q0-52-20.5-99t-55-81.5Q914 169 867 148.5T768 128q-53 0-99.5 20.5t-81 55Q553 238 532.5 285T512 384v128m802 1408q-34-60-34-128V640H256v1152q0 27 10 50t27.5 40.5Q311 1900 334 1910t50 10h930m350-1280h-256v1152q0 27 10 50t27.5 40.5q17.5 17.5 40.5 27.5t50 10q27 0 50-10t40.5-27.5q17.5-17.5 27.5-40.5t10-50V640z"/></svg>