<svg xmlns="http://www.w3.org/2000/svg" viewBox="0 0 2048 2048"><path d="M64 317L1216 51v1946L64 1731V317m372 1096h153v-295h197V963H589V791h215V637H436v776M1859 192q25 0 47.5 9.5t40 26.5q17.5 17 27.5 39.5t10 47.5v1418q0 26-10 48t-27.5 39q-17.5 17-40 26.5t-47.5 9.5h-579V192h579m-3 1216h-512v256h512v-256m0-384h-512v256h512v-256m0-440l-65 82v165h-382V449h283l49-65h-397v512h512V584m49-155q3-3 3-8t-5-10q-4-3-11-9.5t-14.5-12.5q-7.5-6-15-11t-12.5-5q-7 0-10 4l-212 278-107-121q-3-4-10-4-4 0-13 6.5t-18.5 15q-9.5 8.5-17 17T1455 581q0 3 1 5t3 4l169 194 277-355m-113 787h-384v-128h384v128m0 384h-384v-128h384v128z"/></svg>