<svg xmlns="http://www.w3.org/2000/svg" viewBox="0 0 2048 2048"><path d="M960 1408q66 0 124 25.5t101.5 69q43.5 43.5 69 101.5t25.5 124q0 66-25.5 124.5t-69 102Q1142 1998 1084 2023t-124 25q-66 0-124.5-25t-102-68.5q-43.5-43.5-68.5-102T640 1728q0-66 25-124t68.5-101.5q43.5-43.5 102-69T960 1408m0 512q40 0 75-15t61-41q26-26 41-61t15-75q0-40-15-75t-41-61q-26-26-61-41t-75-15q-40 0-75 15t-61 41q-26 26-41 61t-15 75q0 40 15 75t41 61q26 26 61 41t75 15M960 0q132 0 254.5 34.5t229.5 97q107 62.5 194.5 150t150 194.5q62.5 107 97 229.5T1920 960v31l-596 477q-19-26-41-49.5t-48-43.5l548-439q-90-35-184.5-53.5T1407 864q-99 0-195.5 19T1024 939v346q-16-2-32-3.5t-32-1.5q-16 0-32 1.5t-32 3.5V940q-185-76-385-76-97 0-190.5 18.5T137 936l548 439q-26 20-48 43.5t-41 49.5L0 991v-31q0-132 34.5-254.5t97-229.5q62.5-107 150-194.5t194.5-150q107-62.5 229.5-97T960 0m8 824q107-42 214.5-65t222.5-23q190 0 370 62-29-145-104-268t-183.5-212.5Q1379 228 1243.5 178T960 128q-149 0-284 50T432.5 317Q324 406 249 529T145 797q181-61 369-61 55 0 112.5 5.5t115 17Q799 770 854.5 787T960 827l8-3z"/></svg>