<svg xmlns="http://www.w3.org/2000/svg" viewBox="0 0 2048 2048"><path d="M850 1827q14 30 14 61 0 33-12.5 62t-34.5 51q-22 22-51 34.5t-62 12.5q-33 0-62-12.5t-51-34.5q-22-22-34.5-51t-12.5-62q0-31 14-61l146-291 146 291m768 0q14 30 14 61 0 33-12.5 62t-34.5 51q-22 22-51 34.5t-62 12.5q-33 0-62-12.5t-51-34.5q-22-22-34.5-51t-12.5-62q0-31 14-61l146-291 146 291m-384-256q14 30 14 61 0 33-12.5 62t-34.5 51q-22 22-51 34.5t-62 12.5q-33 0-62-12.5t-51-34.5q-22-22-34.5-51t-12.5-62q0-31 14-61l146-291 146 291m527-535q63 17 115.5 52.5t91 84.5q38.5 49 59.5 109t21 126q0 66-22 126.5t-61 110q-39 49.5-93 84.5t-118 51l-60-120q48-6 89.5-27.5t71.5-55.5q30-34 47.5-77t17.5-92q0-55-20.5-102t-56.5-81q-36-34-84-53.5t-102-19.5q-12-82-51-152.5t-97.5-122Q1450 826 1375 797t-159-29q-77 0-146.5 25T943 862q-57 44-98.5 106T784 1103q-44-38-97-58.5T576 1024q-66 0-124.5 25t-102 68.5q-43.5 43.5-68.5 102T256 1344q0 53 17 102t47.5 89.5q30.5 40.5 73 70T487 1650l-57 114q-67-23-122.5-65t-95.5-97q-40-55-62-120.5T128 1344q0-93 35.5-174.5t96-142q60.5-60.5 142-96T576 896q74 0 147 25 39-65 92.5-117t117-88.5q63.5-36.5 135.5-56t148-19.5q93 0 178.5 29t157.5 81.5q72 52.5 126 125t83 160.5z"/></svg>