<svg xmlns="http://www.w3.org/2000/svg" viewBox="0 0 2048 2048"><path d="M1856 319q37 0 50 14.5t13 50.5v1280q0 36-13 50.5t-50 14.5h-576v-193h512v-63h-512v-130h512v-63h-512v-127h512v-66h-512V961h512v-64h-512V768h512v-63h-512V575h512v-63h-512V319h576M64 317L1216 51v1946L64 1731V317m158 350l135 652 140 8 95-436q1-5 2-8.5t2-8.5q3-15 4-30t3-30h2q0 20 2.5 39t6.5 38l96 448 152 9 170-729-146 8-86 481q-4 20-6.5 39.5T791 1187h-1q-2-19-4-38.5t-6-38.5l-98-470-139 8-100 450q-5 19-7.5 38.5T433 1176h-3q0-19-2-38.5t-5-38.5l-75-440-126 8z"/></svg>