<svg xmlns="http://www.w3.org/2000/svg" viewBox="0 0 2048 2048"><path d="M2029 1453l-557 558-269-270 90-90 179 178 467-466 90 90m-1293 9q66 33 119 81t90.5 107q37.5 59 58 128t20.5 142H896q0-79-30-149t-82.5-122.5Q731 1596 661 1566t-149-30q-80 0-149.5 30t-122 82.5Q188 1701 158 1771t-30 149H0q0-73 20.5-142t58-128q37.5-59 90.5-107t119-81q-75-54-117.5-135T128 1152q0-79 30-149t82.5-122.5Q293 828 362.5 798T512 768q94 0 175 42.5T822 928q38-76 98-136t136-98q-75-54-117.5-135T896 384q0-79 30-149t82.5-122.5Q1061 60 1130.5 30T1280 0q79 0 149 30t122.5 82.5Q1604 165 1634 235t30 149q0 94-42.5 175T1504 694q66 33 119 81t90.5 107q37.5 59 58 128t20.5 142h-128q0-79-30-149t-82.5-122.5Q1499 828 1429 798t-149-30q-80 0-149.5 30t-122 82.5Q956 933 926 1003t-30 149q0 94-42.5 175T736 1462m288-1078q0 53 20 99.5t55 81.5q35 35 81.5 55t99.5 20q53 0 99.5-20t81.5-55q35-35 55-81.5t20-99.5q0-53-20-99.5t-55-81.5q-35-35-81.5-55t-99.5-20q-53 0-99.5 20t-81.5 55q-35 35-55 81.5t-20 99.5m-768 768q0 53 20 99.5t55 81.5q35 35 81.5 55t99.5 20q53 0 99.5-20t81.5-55q35-35 55-81.5t20-99.5q0-53-20-99.5T693 971q-35-35-81.5-55T512 896q-53 0-99.5 20T331 971q-35 35-55 81.5t-20 99.5z"/></svg>