<svg xmlns="http://www.w3.org/2000/svg" viewBox="0 0 2048 2048"><path d="M1536 384v1216q0 93-35.5 174.5t-96 142q-60.5 60.5-142 96T1088 2048q-93 0-174.5-35.5t-142-96q-60.5-60.5-96-142T640 1600V320q0-66 25.5-124t69-101.5Q778 51 836 25.5T960 0q66 0 124 25.5t101.5 69q43.5 43.5 69 101.5t25.5 124v1280q0 40-15 75t-41 61q-26 26-61 41t-75 15q-40 0-75-15t-61-41q-26-26-41-61t-15-75V512h128v1088q0 26 19 45t45 19q26 0 45-19t19-45V320q0-40-15-75t-41-61q-26-26-61-41t-75-15q-40 0-75 15t-61 41q-26 26-41 61t-15 75v1280q0 66 25.5 124t69 101.5q43.5 43.5 101.5 69t124 25.5q66 0 124-25.5t101.5-69q43.5-43.5 69-101.5t25.5-124V384h128z"/></svg>