<svg xmlns="http://www.w3.org/2000/svg" viewBox="0 0 2048 2048"><path d="M64 273L1216 68v1912L64 1782V273m313 1129q57 4 113.5 9.5T604 1417q57 0 102.5-18t80-48.5q34.5-30.5 59.5-72t40.5-88.5q15.5-47 23-97t7.5-98q0-74-12.5-145T859 723q-33-56-90-90t-145-34q-61 0-123 6.5T377 617v785m384-403q0 44-9 91.5t-30 86.5q-21 39-57 64.5t-90 25.5q-18 0-36-.5t-36-1.5V754q20-2 39.5-3t39.5-1q51 0 85.5 23t55.5 59q21 36 29.5 80t8.5 87m519 220h186v376h-186v-376m674-332v708h-376V887h376m-332-320q-29 27-67 27-2 0-5-1t-5-1l-105 262q17 14 28 33.5t11 42.5q0 42-28.5 70.5T1380 1029q-20 0-38-8t-31.5-21.5q-13.5-13.5-21-31.5t-7.5-38q0-41 28.5-69.5T1380 832q2 0 5 1t5 1l105-262q-18-14-28.5-34t-10.5-43q0-20 8-38t21.5-31.5q13.5-13.5 31.5-21t38-7.5q20 0 38 7.5t31.5 21Q1638 439 1646 457t8 38q0 7-1.5 13t-3.5 12l135 81q29-27 67-27 20 0 38 8t31.5 21.5Q1934 617 1942 635t8 38q0 20-8 38t-21.5 31.5q-13.5 13.5-31.5 21t-38 7.5q-20 0-38-7.5t-31.5-21Q1768 729 1760 711t-8-38q0-7 1.5-13t3.5-12l-135-81z"/></svg>