<svg xmlns="http://www.w3.org/2000/svg" viewBox="0 0 2048 2048"><path d="M2048 128v896h-128V640H128v1024h512v128H0V128h2048m-128 384V256H128v256h1792m-165 640h293v896H768v-896h293l128-128h438l128 128m165 128h-219l-128-128h-330l-128 128H896v640h1024v-640m-512 0q53 0 99.5 20t81.5 55q35 35 55 81.5t20 99.5q0 53-20 99.5t-55 81.5q-35 35-81.5 55t-99.5 20q-53 0-99.5-20t-81.5-55q-35-35-55-81.5t-20-99.5q0-53 20-99.5t55-81.5q35-35 81.5-55t99.5-20m0 384q27 0 50-10t40.5-27.5q17.5-17.5 27.5-40.5t10-50q0-27-10-50t-27.5-40.5Q1481 1428 1458 1418t-50-10q-27 0-50 10t-40.5 27.5Q1300 1463 1290 1486t-10 50q0 27 10 50t27.5 40.5q17.5 17.5 40.5 27.5t50 10z"/></svg>