<svg xmlns="http://www.w3.org/2000/svg" viewBox="0 0 2048 2048"><path d="M958 1328q101 40 184 106.5t142 152.5q59 86 91.5 187t32.5 210v64h-128v-64q0-119-45.5-224T1111 1577q-78-78-183-123.5T704 1408q-119 0-224 45.5T297 1577q-78 78-123.5 183T128 1984v64H0v-64q0-109 32.5-210t91.5-187q59-86 142-152.5T450 1328q-45-31-81-72t-61-88.5q-25-47.5-38.5-100T256 960q0-93 35.5-174.5t96-142q60.5-60.5 142-96T704 512q93 0 174.5 35.5t142 96q60.5 60.5 96 142T1152 960q0 55-13.5 107.5t-38.5 100q-25 47.5-61 88.5t-81 72m-254-48q66 0 124-25t101.5-68.5q43.5-43.5 69-102T1024 960q0-66-25.5-124t-69-101.5Q886 691 828 665.5T704 640q-66 0-124.5 25.5t-102 69Q434 778 409 836t-25 124q0 66 25 124.5t68.5 102q43.5 43.5 102 68.5t124.5 25M2048 0v1024h-256l-384 384v-384h-128V896h256v203l203-203h181V128H640v230q-32 4-64.5 10.5T512 386V0h1536z"/></svg>