<svg xmlns="http://www.w3.org/2000/svg" viewBox="0 0 2048 2048"><path d="M1188 794q45-43 69.5-99t24.5-119q0-63-24.5-119t-69.5-99l89-92q64 62 98.5 141.5T1410 576q0 89-34.5 168.5T1277 886l-89-92m267-712q50 48 89.5 105t66.5 120q27 63 41 131t14 138q0 70-14 138t-41 131q-27 63-66.5 120t-89.5 105l-89-92q83-80 127.5-183.5T1538 576q0-115-44.5-218.5T1366 174l89-92M643 886q-64-62-98.5-141.5T510 576q0-89 34.5-168.5T643 266l89 92q-45 43-69.5 99T638 576q0 63 24.5 119t69.5 99l-89 92m-178 184q-50-48-89.5-105T309 845q-27-63-41-131t-14-138q0-70 14-138t41-131q27-63 66.5-120T465 82l89 92q-83 80-127.5 183.5T382 576q0 115 44.5 218.5T554 978l-89 92m687-494q0 45-19.5 84.5T1078 727l397 1193h-134l-86-256H665l-86 256H445L842 727q-35-27-54.5-66.5T768 576q0-40 15-75t41-61q26-26 61-41t75-15q40 0 75 15t61 41q26 26 41 61t15 75m-192-64q-26 0-45 19t-19 45q0 26 19 45t45 19q26 0 45-19t19-45q0-26-19-45t-45-19m0 266l-125 374h250L960 778m253 758l-86-256H793l-86 256h506z"/></svg>