<svg xmlns="http://www.w3.org/2000/svg" viewBox="0 0 2048 2048"><path d="M1406 1025q0 26-10 49t-27 40q-17 17-40 27t-49 10V898q26 0 49 10t40 27.5q17 17.5 27 40.5t10 49m611 84l-63 239-209-28q-17 26-36 50t-40 46l73 190-213 124-127-166q-60 13-122 15v-209q71 0 134-27t110-73.5q47-46.5 74-109.5t27-134q0-72-27-134.5T1524 782q-47-47-110-74t-134-27V467h5l79-178 238 63-26 203q26 17 51 37t47 43l186-71 124 213-166 127q6 28 9.5 56t3.5 57v10l186 82M628 1279q-42 0-72-27t-48.5-65.5q-18.5-38.5-27-82T472 1028q0-33 8.5-76t27-82q18.5-39 48.5-65.5t72-26.5q42 0 72 26.5t48.5 65q18.5 38.5 27 82t8.5 76.5q0 33-8.5 76.5t-27 82.5q-18.5 39-48.5 65.5t-72 26.5M64 272L1216 67v1914L64 1782V272m575 356q-50 0-92 17.5t-75.5 48q-33.5 30.5-59 70t-42.5 84q-17 44.5-25.5 91T336 1028q0 43 8.5 89.5t25.5 91q17 44.5 42.5 84t59 70q33.5 30.5 75.5 48t92 17.5q75 0 132-38t95-97q38-59 57-129.5t19-135.5q0-65-19-135.5T866 763q-38-59-95-97t-132-38z"/></svg>