<svg xmlns="http://www.w3.org/2000/svg" viewBox="0 0 2048 2048"><path d="M1536 1408h192v128h-320v-384h128v256m-256-896H256V384h1024v128m192 384q119 0 224 45.5t183 123.5q78 78 123.5 183t45.5 224q0 119-45.5 224T1879 1879q-78 78-183 123.5t-224 45.5q-119 0-224-45.5T1065 1879q-78-78-123.5-183T896 1472q0-119 45.5-224t123.5-183q78-78 183-123.5t224-45.5m0 1024q93 0 174.5-35.5t142-96q60.5-60.5 96-142T1920 1472q0-93-35.5-174.5t-96-142q-60.5-60.5-142-96T1472 1024q-93 0-174.5 35.5t-142 96q-60.5 60.5-96 142T1024 1472q0 93 35.5 174.5t96 142q60.5 60.5 142 96T1472 1920M1166 768q-109 48-200 128H256V768h910m-391 384q-14 31-25.5 63t-20.5 65H256v-128h519m-519 384h451q3 32 8.5 64t13.5 64H256v-128m594 384q50 71 116 128H0V0h1536v707l-32-2q-16-1-32-1t-32 1l-32 2V128H128v1792h722z"/></svg>