<svg xmlns="http://www.w3.org/2000/svg" viewBox="0 0 2048 2048"><path d="M1753 524l-237-79 40-122 445 148-148 445-122-40 79-238-914 457V384h128v504l729-364m295 500q0 141-36.5 272t-103 245q-66.5 114-160 207.5t-207.5 160q-114 66.5-245 103t-272 36.5q-141 0-272-36.5t-245-103q-114-66.5-207.5-160t-160-207.5q-66.5-114-103-244.5T0 1024q0-141 36.5-272t103-245q66.5-114 160-207.5t207.5-160Q621 73 751.5 36.5T1024 0q122 0 240 29t227 85l-41 122q-98-54-206-81t-220-27q-123 0-237.5 32t-214 90.5Q473 309 391 391T250.5 572.5Q192 672 160 786.5T128 1024q0 123 32 237.5t90.5 214Q309 1575 391 1657t181.5 140.5Q672 1856 786 1888t238 32q123 0 237.5-32t214-90.5Q1575 1739 1657 1657t140.5-181.5Q1856 1376 1888 1262t32-238h128z"/></svg>