<svg xmlns="http://www.w3.org/2000/svg" viewBox="0 0 2048 2048"><path d="M1761 1036q63 17 115.5 52.5t91 84.5q38.5 49 59.5 109t21 126q0 70-24 133.5t-67 114q-43 50.5-101.5 85T1728 1787v-131q42-11 77.5-34.5t61-56.5q25.5-33 39.5-73t14-84q0-55-20.5-101.5t-56.5-81q-36-34.5-83.5-54T1658 1152q-12-82-51-152.5t-98-122q-59-51.5-134-80.5t-159-29q-77 0-146.5 25T943 862q-57 44-98.5 106T784 1103q-44-38-97-58.5T576 1024q-66 0-124.5 25t-102 68.5q-43.5 43.5-68.5 102T256 1344q0 48 13.5 92.5t39 82.5q25.5 38 60.5 68.5t79 49.5v136q-71-21-130-63t-101-98.5q-42-56.5-65.5-125T128 1344q0-93 35.5-174.5t96-142q60.5-60.5 142-96T576 896q74 0 147 25 39-65 92.5-117t117-88.5q63.5-36.5 135.5-56t148-19.5q93 0 178.5 29t157.5 81.5q72 52.5 126 125t83 160.5m-731 797q32 19 32 55 0 27-19 45.5t-45 18.5q-12 0-26-5.5t-27.5-13.5q-13.5-8-26-16t-22.5-14q0 19 1 44t-3.5 47.5q-4.5 22.5-18 38T832 2048q-30 0-44-15.5t-18.5-38q-4.5-22.5-3-47.5t1.5-44q-10 6-22.5 14t-26 16q-13.5 8-27.5 13.5t-26 5.5q-26 0-45-18.5t-19-45.5q0-36 32-55l70-41-70-41q-32-19-32-55 0-26 18.5-45t44.5-19q13 0 27 5.5t27.5 13.5q13.5 8 26 16t22.5 14q0-19-1.5-44t3-47.5q4.5-22.5 18.5-38t44-15.5q30 0 43.5 15.5t18 38q4.5 22.5 3.5 47.5t-1 44q10-6 22.5-14t26-16q13.5-8 27.5-13.5t27-5.5q26 0 44.5 19t18.5 45q0 36-32 55l-70 41 70 41m512-128q32 19 32 55 0 27-19 45.5t-45 18.5q-12 0-26-5.5t-27.5-13.5q-13.5-8-26-16t-22.5-14q0 19 1 44t-3.5 47.5q-4.5 22.5-18 38T1344 1920q-30 0-44-15.5t-18.5-38q-4.5-22.5-3-47.5t1.5-44q-10 6-22.5 14t-26 16q-13.5 8-27.5 13.5t-26 5.5q-26 0-45-18.5t-19-45.5q0-36 32-55l70-41-70-41q-32-19-32-55 0-26 18.5-45t44.5-19q13 0 27 5.5t27.5 13.5q13.5 8 26 16t22.5 14q0-19-1.5-44t3-47.5q4.5-22.5 18.5-38t44-15.5q30 0 43.5 15.5t18 38q4.5 22.5 3.5 47.5t-1 44q10-6 22.5-14t26-16q13.5-8 27.5-13.5t27-5.5q26 0 44.5 19t18.5 45q0 36-32 55l-70 41 70 41z"/></svg>