<svg xmlns="http://www.w3.org/2000/svg" viewBox="0 0 2048 2048"><path d="M64 272L1216 67v1914L64 1782V272m280 1090l108 6V991q0-33 1-67t-1-68l290 528 145 9V635l-136 8v508L482 659l-138 6v697m1660-97q17 0 30.5 13.5t13.5 30.5v308q0 17-13.5 30.5T2004 1661h-73v-396h73m-12-861q23 0 39.5 16.5T2048 460v282q0 20-14 33t-33 13h-102v925q0 23-17 40t-40 17h-562v-235h491v-85h-491v-107h491v-86h-491V276h551q28 0 42.5 12.5t20 32q5.5 19.5 5.5 42V404h93m-184 245l-57-58 12-80-80-14-38-72-73 36-73-36-38 72-80 14 11 80-56 58 56 59-11 80 78 14 13 28v260l96-97 96 97V830l17-28 81-14-11-80 57-59m-236-102q21 0 39.5 8t32.5 22q14 14 22 32.5t8 39.5q0 21-8 39.5t-22 32.5q-14 14-32.5 22t-39.5 8q-21 0-39.5-8t-32.5-22q-14-14-22-32.5t-8-39.5q0-21 8-39.5t22-32.5q14-14 32.5-22t39.5-8m432 278q17 0 30.5 13.5T2048 869v308q0 17-13.5 30.5T2004 1221h-73V825h73z"/></svg>