<svg xmlns="http://www.w3.org/2000/svg" viewBox="0 0 2048 2048"><path d="M2031 1537l-266 197 102 313-267-193-266 194 101-314-266-197h335l97-310 95 310h335M679 1408q8 37 23 89t37 109q22 57 51 113t64.5 101q35.5 45 78 72.5t91.5 27.5q36 0 69-17t59-41v178q-32 4-64 6t-64 2q-141 0-272-36.5T507.5 1908q-113.5-67-207-160.5t-160.5-207Q73 1427 36.5 1296T0 1024q0-141 36.5-272T140 507.5q67-113.5 160.5-207t207-160.5Q621 73 752 36.5T1024 0q141 0 272 36.5T1540.5 140q113.5 67 207 160.5t160.5 207Q1975 621 2011.5 752t36.5 272q0 99-19 195.5t-56 188.5h-181v-128h91q37-123 37-256t-37-256h-363q1 12 5 48t7 76.5q3 40.5 4.5 74t-.5 40.5l-126 401H679m712-128q9-64 13-127.5t4-128.5q0-65-4-128.5T1391 768H657q-9 64-13 127.5t-4 128.5q0 65 4 128.5t13 127.5h734m442-640q-38-81-92-153t-120-131q-66-59-143.5-104.5T1315 177q36 49 65.5 105t52 116q22.5 60 39 121t28.5 121h333m-809-512q-49 0-91.5 27.5t-78 72.5Q819 273 790 329t-51 113q-22 57-37 109t-23 89h690q-8-37-23-89t-37-109q-22-57-51-113t-64.5-101q-35.5-45-78-72.5T1024 128m-291 49q-85 29-162.5 74.5T427 356q-66 59-120 131t-92 153h333q12-60 28.5-121t39-121q22.5-60 52-116T733 177m-605 847q0 133 37 256h363q-8-64-12-127.5t-4-128.5q0-65 4-128.5T528 768H165q-37 123-37 256m87 384q38 81 92 153t120 131q66 59 143.5 104.5T733 1871q-36-49-65.5-105t-52-116q-22.5-60-39-121T548 1408H215z"/></svg>