<svg xmlns="http://www.w3.org/2000/svg" viewBox="0 0 2048 2048"><path d="M1536 576q0-26 19-45t45-19q26 0 45 19t19 45q0 26-19 45t-45 19q-26 0-45-19t-19-45M128 1664h732l-32 128H0V256h2048v580q-28-22-60.5-37t-67.5-23V384H128v677l448-447 384 384 256-256 261 260-91 91-170-171-166 166 171 170-91 91-554-555-448 449v421m1792-178l128-128v434h-434l128-128h178v-178m128-392q0 39-15 76t-43 65l-717 717-377 94 94-376 717-717q28-28 65.5-41t75.5-13q42 0 78.5 14.5T1990 954q27 26 42.5 61.5t15.5 78.5m-149 51q21-21 21-51 0-32-20.5-50.5T1848 1025q-14 0-27 4t-23 14l-692 692-34 135 135-34 692-691z"/></svg>