<svg xmlns="http://www.w3.org/2000/svg" viewBox="0 0 2048 2048"><path d="M960 0q133 0 255.5 34t229.5 96.5q107 62.5 194.5 150t150 194.5q62.5 107 96.5 229.5t34 255.5q0 133-34 255.5t-96.5 229.5q-62.5 107-150 194.5t-194.5 150q-107 62.5-229.5 96.5T960 1920q-133 0-255.5-34T475 1789.5q-107-62.5-194.5-150t-150-194.5Q68 1338 34 1215.5T0 960q0-133 34-255.5T130.5 475q62.5-107 150-194.5t194.5-150Q582 68 704.5 34T960 0m451 1024q10 128 59.5 246t134.5 215q81-98 127.5-216t57.5-245h-379m379-128q-11-127-57.5-245T1605 435q-85 97-134.5 215T1411 896h379m-274-554q-103-93-228.5-147T1024 130v766h258q11-155 70.5-297T1516 342M896 130q-138 11-263.5 65T404 342q104 115 163.5 257T638 896h258V130M315 1485q85-97 134.5-215t59.5-246H130q11 127 57.5 245T315 1485m194-589q-10-128-59.5-246T315 435q-81 98-127.5 216T130 896h379m-105 682q103 93 228.5 147t263.5 65v-766H638q-11 155-70.5 297T404 1578m620 212q138-11 263.5-65t228.5-147q-104-115-163.5-257t-70.5-297h-258v766z"/></svg>