<svg xmlns="http://www.w3.org/2000/svg" viewBox="0 0 2048 2048"><path d="M1600 1152q93 0 174.5 35t142.5 96q61 61 96 142.5t35 174.5q0 93-35 174.5t-96 142.5q-61 61-142.5 96t-174.5 35q-93 0-174.5-35t-142.5-96q-61-61-96-142.5t-35-174.5q0-93 35-174.5t96-142.5q61-61 142.5-96t174.5-35m-320 448q0 66 25 124.5t68.5 102q43.5 43.5 102 68.5t124.5 25q47 0 92-13.5t84-39.5l-443-443q-26 39-39.5 84t-13.5 92m587 176q26-39 39.5-84t13.5-92q0-66-25.5-124t-69-101.5q-43.5-43.5-101.5-69t-124-25.5q-47 0-92 13.5t-84 39.5l443 443M512 768H0V256h128v275q67-122 163.5-220.5T504 143Q620 74 752 37t272-37q141 0 272 36.5T1540.5 140q113.5 67 207 160.5t160.5 207Q1975 621 2011.5 752t36.5 272q0 39-3.5 78t-9.5 77q-26-27-56-51.5t-62-44.5q1-15 2-29.5t1-29.5q0-123-32-237.5t-90.5-214Q1739 473 1657 391t-181.5-140.5q-99.5-58.5-214-90.5T1024 128q-129 0-250.5 36.5T547 267.5q-105 66.5-189.5 161T218 640h294v128m571 1149q20 32 44.5 62t51.5 56q-38 6-77 9.5t-78 3.5q-114 0-223.5-25T592 1951.5Q493 1905 405 1838t-159-150.5q-71-83.5-124.5-182T38 1297l123-34q40 145 123.5 265.5T482 1736q114 87 253 135.5t289 48.5q15 0 29.5-1t29.5-2z"/></svg>