<svg xmlns="http://www.w3.org/2000/svg" viewBox="0 0 2048 2048"><path d="M1859 1223q44 3 79 22t59.5 49q24.5 30 37.5 69t13 81q0 41-15 80.5t-42 70.5q-27 31-63.5 50t-79.5 19H770q-69 0-122-20.5t-90-58.5q-37-38-56-92t-19-122q0-59 22.5-106t60.5-80q38-33 88-51t106-20q4-57 25-110.5t55-97q34-43.5 80.5-75T1024 786q49-12 100-12 94 0 169.5 43T1420 938q32-18 75-27.5t79-9.5q66 0 118.5 23t90 63q37.5 40 57.5 95t20 119l-1 22M679 1028q-65 14-118.5 43.5t-92 73.5q-38.5 44-60 101T387 1371q0 42 7 84t22 81H285q-54 0-103.5-23t-87-61Q57 1414 35 1364.5T13 1261q0-91 40-159t125-103q19-8 40.5-13.5T260 978q-1-10-1.5-19t-.5-19q0-70 26-133.5T355.5 695Q401 647 463 619t134-28q19 0 41 2.5t43.5 8q21.5 5.5 42 13.5t37.5 19q28-51 68-93t88-72q48-30 103-46.5t114-16.5q84 0 161 30t137.5 83.5q60.5 53.5 100 125.5t48.5 156q-35-1-73.5 4.5T1437 830q-25-39-60-68.5t-76-49.5q-41-20-86-30t-90-10q-81 0-153.5 26t-131 73.5Q782 819 740 884t-61 143v1z"/></svg>