<svg xmlns="http://www.w3.org/2000/svg" viewBox="0 0 2048 2048"><path d="M1024 0q141 0 272 36.5T1540.5 140q113.5 67 207 160.5t160.5 207Q1975 621 2011.5 752t36.5 272q0 141-36.5 272T1908 1540.5q-67 113.5-160.5 207t-207 160.5q-113.5 67-244.5 103.5t-272 36.5q-141 0-272-36.5T507.5 1908q-113.5-67-207-160.5t-160.5-207Q73 1427 36.5 1296T0 1024q0-141 36.5-272T140 507.5q67-113.5 160.5-207t207-160.5Q621 73 752 36.5T1024 0M907 1347q22 0 42-8.5t35-23.5l429-429q15-15 23-35t8-41q0-22-8.5-42t-23-34.5q-14.5-14.5-34.5-23t-42-8.5q-21 0-41.5 8t-35.5 23l-352 352-118-118q-32-32-77-32-22 0-42 8.5T635 967q-15 15-23.5 34.5T603 1043q0 21 8.5 41.5T635 1120l195 195q15 15 35.5 23.5t41.5 8.5z"/></svg>