<svg xmlns="http://www.w3.org/2000/svg" viewBox="0 0 2048 2048"><path d="M896 768H512V256h128v384h256v128m1152 640q0 87-22.5 168t-64 152.5q-41.5 71.5-99.5 130t-128.5 101Q1663 2002 1582 2025t-168 23q-134 0-251.5-49.5t-205-136Q870 1776 819 1659t-51-251q0-132 50.5-248.5T956 956q87-87 203.5-137.5T1408 768q132 0 248.5 50.5T1860 956q87 87 137.5 203.5T2048 1408m-640 512q21 0 37.5-15.5t28.5-39.5q12-24 21-53.5t15-58q6-28.5 9-52.5t5-37h-230q1 13 5 37t10 52q6 28 15 58t21 54q12 24 27.5 39.5t35.5 15.5m125-384q3-64 3-128 0-63-3-128h-250q-3 65-3 128 0 64 3 128h250m-637-128q0 32 4 64t12 64h243q-6-128 0-256H912q-8 32-12 64t-4 64m512-512q-19 0-34 15.5t-27 40q-12 24.5-21 54t-15.5 58q-6.5 28.5-10.5 52.5t-5 36h225q-1-11-5.5-34.5t-11-52q-6.5-28.5-15.5-58.5t-21-54.5q-12-24.5-27-40.5t-32-16m253 384q3 64 3 128t-2 128h242q8-32 12-64t4-64q0-32-4-64t-12-64h-243m190-128q-43-75-108-131.5T1598 932q20 53 32.5 108t19.5 112h201m-637-218q-78 32-142.5 88.5T965 1152h200q7-56 18-110.5t31-107.5m-249 730q42 73 105.5 129t141.5 88q-20-52-30.5-107t-16.5-110H965m643 215q77-32 139-87.5t104-127.5h-198q-5 55-15.5 109t-29.5 106M640 0q88 0 170 23t153 64.5q71 41.5 129.5 100t100 129.5q41.5 71 64.5 153t23 170h-128q0-106-40.5-199t-110-162.5Q932 209 839 168.5T640 128q-106 0-199 40.5t-162.5 110Q209 348 168.5 441T128 640q0 106 40.5 199t110 162.5q69.5 69.5 162.5 110t199 40.5v128q-88 0-170-23t-153-64.5q-71-41.5-129.5-100T87.5 963Q46 892 23 810T0 640q0-132 50.5-248.5T188 188q87-87 203.5-137.5T640 0z"/></svg>