<svg xmlns="http://www.w3.org/2000/svg" viewBox="0 0 2048 2048"><path d="M761 999q0 44-9 91.5t-30 86.5q-21 39-57 64.5t-90 25.5q-18 0-36-1l-36-2V754q20-1 39.5-2t39.5-1q51 0 85.5 22.5T723 832q21 36 29.5 80t8.5 87M64 273L1216 68v1912L64 1781V273m312 1129q57 4 114 9.5t114 5.5q86 0 145.5-38.5T846 1279q37-61 53.5-136T916 995q0-76-13-147.5t-46.5-127q-33.5-55.5-91-89T620 598q-61 0-122.5 7.5T376 618v784m1030-377q0 26-10 49t-27 40q-17 17-40 27t-49 10V898q26 0 49 10t40 27.5q17 17.5 27 40.5t10 49m610 84l-62 239-210-28q-17 26-35.5 50t-39.5 46l73 189-213 125-127-166q-60 13-122 15v-209q71 0 134-27t110-73.5q47-46.5 74-109.5t27-134q0-71-27-134t-74-110q-47-47-110-74t-134-27V467h5l79-178 238 63-27 203q53 34 99 80l186-71 124 213-166 127q6 28 9.5 56t3.5 57v10l185 82z"/></svg>