<svg xmlns="http://www.w3.org/2000/svg" viewBox="0 0 2048 2048"><path d="M64 263L1216 56v1936L64 1791V263m606 370q-25 0-49 1.5t-48 6.5q-85 19-133 80t-48 148q0 56 19 95t47.5 66.5q28.5 27.5 61.5 47t61.5 38.5q28.5 19 47.5 39.5t19 50.5q0 26-18.5 45t-44.5 19q-30 0-53.5-4.5t-44-13.5q-20.5-9-39.5-23.5t-40-35.5l-14 6v160l4 7q40 29 89.5 40t98.5 11q53 0 96.5-14t74-42q30.5-28 47.5-69.5t17-96.5q0-59-20-98.5t-50-68q-30-28.5-64.5-48t-64.5-38Q592 924 572 903t-20-51q0-20 8-33.5t21-21.5q13-8 29.5-11.5T644 782q36 0 71 11.5t63 34.5l13-7V662l-5-7q-24-11-57-16.5t-59-5.5m1214 202q35 5 65 21.5t52 42q22 25.5 34.5 57.5t12.5 68q0 36-12.5 68t-34.5 57.5q-22 25.5-52 42t-65 21.5q-40 98-114.5 173T1596 1500q4 16 4 36 0 40-15 75t-41 61q-26 26-61 41t-75 15q-35 0-68.5-13t-59.5-37v-284q26-24 59.5-37t68.5-13q38 0 73.5 14.5t61.5 41.5q75-27 133.5-80.5T1769 1194q-48-24-76.5-70t-28.5-100q0-54 28.5-100t76.5-70q-34-72-92.5-125.5T1543 648q-26 27-61.5 41.5T1408 704q-35 0-68.5-13t-59.5-37V370q26-24 59.5-37t68.5-13q40 0 75 15t61 41q26 26 41 61t15 75q0 20-4 36 99 39 173.5 114T1884 835z"/></svg>