<svg xmlns="http://www.w3.org/2000/svg" viewBox="0 0 2048 2048"><path d="M1760 256q60 0 112.5 22.5T1964 340q39 39 61.5 91.5T2048 544v768q0 56-20 105t-54.5 87q-34.5 38-81 62.5T1792 1597v-128q27-6 50.5-20t41-35q17.5-21 27-47t9.5-55V544q0-33-12.5-62t-34.5-51q-22-22-51-34.5t-62-12.5H288q-33 0-62 12.5T175 431q-22 22-34.5 51T128 544v768q0 33 12.5 62t34.5 51q22 22 51 34.5t62 12.5h32v128h-32q-60 0-112.5-22.5T84 1516q-39-39-61.5-91.5T0 1312V544q0-60 22.5-112.5T84 340q39-39 91.5-61.5T288 256h1472M576 1312q27 0 50 10t40.5 27.5Q684 1367 694 1390t10 50v192q0 27-10 50t-27.5 40.5Q649 1740 626 1750t-50 10q-27 0-50-10t-40.5-27.5Q468 1705 458 1682t-10-50v-192q0-27 10-50t27.5-40.5Q503 1332 526 1322t50-10m320-384q27 0 50 10t40.5 27.5Q1004 983 1014 1006t10 50v576q0 27-10 50t-27.5 40.5Q969 1740 946 1750t-50 10q-27 0-50-10t-40.5-27.5Q788 1705 778 1682t-10-50v-576q0-27 10-50t27.5-40.5Q823 948 846 938t50-10m320 128q27 0 50 10t40.5 27.5q17.5 17.5 27.5 40.5t10 50v448q0 27-10 50t-27.5 40.5Q1289 1740 1266 1750t-50 10q-27 0-50-10t-40.5-27.5Q1108 1705 1098 1682t-10-50v-448q0-27 10-50t27.5-40.5q17.5-17.5 40.5-27.5t50-10m320-384q27 0 50 10t40.5 27.5Q1644 727 1654 750t10 50v832q0 27-10 50t-27.5 40.5Q1609 1740 1586 1750t-50 10q-27 0-50-10t-40.5-27.5Q1428 1705 1418 1682t-10-50V800q0-27 10-50t27.5-40.5Q1463 692 1486 682t50-10z"/></svg>