<svg xmlns="http://www.w3.org/2000/svg" viewBox="0 0 2048 2048"><path d="M2048 1152h-507q3 42 17.5 77.5t39 61q24.5 25.5 59.5 39.5t79 14q39 0 74.5-13.5t66.5-36.5v88q-35 21-75 30.5t-82 9.5q-60 0-109.5-20t-85.5-56q-36-36-56.5-85.5T1446 1152h-111q-5 56-24 105.5t-51 86q-32 36.5-78.5 57.5t-106.5 21q-114 0-173-97h-2v83h-92v-256H634v256h-93v-90h-2q-60 104-177 104-39 0-72.5-10.5t-58-31.5q-24.5-21-38.5-52.5t-14-72.5q0-27 6-53.5t21-49.5H0v-128h541q-3-57-30-92.5T423 896q-54 0-100.5 18.5T235 967v-95q44-28 94-40.5T431 819q102 0 151 52.5t51 152.5h175V555h92v378h2q67-114 199-114 48 0 87 14.5t68 41.5q29 27 48 65t27 84h129q14-51 41.5-89t64.5-64q37-26 82.5-39t96.5-13q35 0 68.5 6t64.5 22v94q-62-45-137-45-66 0-112.5 34t-71.5 94h491v128m-1507 0H336q-35 14-49 36t-14 60q0 24 9 42t24 30q15 12 35 18t42 6q37 0 66-13.5t49.5-36.5q20.5-23 31.5-54t11-66v-22m537-256q-62 0-107 34t-62 94h325q-14-58-55-93t-101-35m-14 448q42 0 73.5-15.5t53-42q21.5-26.5 33.5-61.5t16-73H900v21q0 36 12 67t33.5 54q21.5 23 52 36.5t66.5 13.5z"/></svg>