<svg xmlns="http://www.w3.org/2000/svg" viewBox="0 0 2048 2048"><path d="M1673 119q90 90 160 195t117.5 220q47.5 115 72.5 239t25 251q0 128-25 251.5t-72.5 238.5q-47.5 115-117.5 220t-160 195l-91-91q81-81 144-175.5t106-198q43-103.5 65-214.5t22-226q0-115-22-226t-65-214.5q-43-103.5-106-198T1582 210l91-91m-9 905q0 180-68 343t-194 291l-91-91q109-109 167-249t58-294q0-154-58-294t-167-249l91-91q126 128 194 291t68 343m-534-362q73 73 111.5 166t38.5 196q0 103-38.5 196T1130 1386l-90-90q54-54 83-124.5t29-147.5q0-77-29-147.5T1040 752l90-90M677 256h91v1536h-90l-385-384H0V640h293l384-384m-37 219L347 768H128v512h219l293 293V475z"/></svg>