<svg xmlns="http://www.w3.org/2000/svg" viewBox="0 0 2048 2048"><path d="M1536 0q106 0 199.5 40t163 109.5q69.5 69.5 109.5 163t40 199.5q0 212-55 408t-155 367q-100 171-240 311t-311 240q-171 100-367 155t-408 55q-106 0-199.5-40t-163-109.5Q80 1829 40 1735.5T0 1536q0-212 55-408t155-367q100-171 240-311t311-240q171-100 367-155t408-55m0 128q-194 0-373.5 50.5t-336 142Q670 412 541 541T320.5 826.5q-91.5 156.5-142 336T128 1536q0 60 18 117t53 105l447-446-83-83q-19-19-19-45t19-45q19-19 45-19t45 19l83 82 101-101-82-83q-19-19-19-45t19-45q19-19 45-19t45 19l83 83 102-102-83-83q-19-19-19-45t19-45q19-19 45-19t45 19l83 82 101-101-82-83q-19-19-19-45t19-45q19-19 45-19t45 19l83 83 446-447q-48-35-105-53t-117-18M512 1920q194 0 373.5-50.5t336-142Q1378 1636 1507 1507t220.5-285.5q91.5-156.5 142-336T1920 512q0-60-18-117t-53-105l-447 446 83 83q19 19 19 45t-19 45q-19 19-45 19-14 0-24.5-5t-20.5-14l-83-82-101 101 82 83q19 19 19 45t-19 45q-19 19-45 19t-45-19l-83-83-102 102 83 83q19 19 19 45t-19 45q-19 19-45 19-14 0-24.5-5t-20.5-14l-83-82-101 101 82 83q19 19 19 45t-19 45q-19 19-45 19t-45-19l-83-83-446 447q48 35 105 53t117 18z"/></svg>