<svg xmlns="http://www.w3.org/2000/svg" viewBox="0 0 2048 2048"><path d="M1728 896q24 0 47 8t42 21.5q19 13.5 33.5 33t23.5 41.5q5 14 20.5 52.5t34.5 88q19 49.5 40 104.5t38.5 103q17.5 48 29 82t11.5 42q0 27-19 45.5t-45 18.5H832q-26 0-45-18.5t-19-45.5q0-12 8.5-38t20-56q11.5-30 23-57t16.5-41H448q-26 0-45-18.5t-19-45.5q0-12 8.5-38t20-56q11.5-30 23-57t16.5-41H64q-26 0-45-18.5T0 960q0-8 11.5-42.5t29-82Q58 788 79 732.5T119 627q19-50 34-88.5t21-52.5q17-45 57.5-73.5T320 384h640q24 0 47 8t42 21.5q19 13.5 33.5 33T1106 488l58 152h180q24 0 47 8t42 21.5q19 13.5 33.5 33T1490 744l58 152h180m-1228 0l58-154q17-45 57.5-73.5T704 640h323l-41-109q-2-6-10.5-12.5T960 512H320q-7 0-15 6t-10 12L156 896h344m384 256l58-154q17-45 57.5-73.5T1088 896h323l-41-109q-2-6-10.5-12.5T1344 768H704q-7 0-15 6t-10 12q-35 92-69.5 183T540 1152h344m1008 256l-138-365q-2-6-10.5-12.5t-15.5-6.5h-640q-7 0-15 6t-10 12l-42 110-48 128q-24 64-49 128h968z"/></svg>