<svg xmlns="http://www.w3.org/2000/svg" viewBox="0 0 2048 2048"><path d="M1936 256q23 0 43.5 9t35.5 24q15 15 24 35.5t9 43.5v1184q0 23-9 43.5t-24 35.5q-15 15-35.5 24t-43.5 9H112q-23 0-43.5-9T33 1631q-15-15-24-35.5T0 1552V368q0-23 9-43.5T33 289q15-15 35.5-24t43.5-9h1824m-16 128H640v139q33-11 64-11 40 0 75 15t61 41q26 26 41 61t15 75q0 31-11 64h1035V384M384 704q0 26 19 45t45 19h64v-64q0-26-19-45t-45-19q-26 0-45 19t-19 45m320 64q26 0 45-19t19-45q0-26-19-45t-45-19q-26 0-45 19t-19 45v64h64M128 384v384h139q-11-33-11-64 0-40 15-75t41-61q26-26 61-41t75-15q31 0 64 11V384H128m0 1152h384V987l-147 146-90-90 146-147H128v640m1792 0V896H731l146 147-90 90-147-146v549h1280z"/></svg>