<svg xmlns="http://www.w3.org/2000/svg" viewBox="0 0 2048 2048"><path d="M1761 1036q64 18 116.5 53.5t90.5 84q38 48.5 59 108.5t21 126q0 80-30 149.5t-82.5 122Q1883 1732 1813 1762t-149 30H576q-93 0-174.5-35T259 1661q-61-61-96-142.5T128 1344q0-75 24-144-71-54-111.5-134T0 896q0-79 30-149t82.5-122.5Q165 572 234.5 542T384 512q11 0 21.5.5T427 514q27-60 69.5-107.5t95-81Q644 292 705.5 274T832 256q84 0 159.5 29.5t135 81q59.5 51.5 99 122.5t50.5 154q84 8 160.5 40.5t140 84.5q63.5 52 111 120t73.5 148M384 640q-53 0-99.5 20T203 715q-35 35-55 81.5T128 896q0 54 21.5 102.5T211 1084q63-89 159.5-138.5T576 896q38 0 75 6t72 19q32-57 78-104t101-83q55-36 117-59t127-31q-11-56-39.5-104t-70.5-82.5q-42-34.5-94.5-54T832 384q-62 0-117.5 22.5t-98 62Q574 508 547 561.5T515 677q-30-17-63-27t-68-10m1280 1024q53 0 99.5-20t81.5-55q35-35 55-81.5t20-99.5q0-55-20.5-102t-56.5-81.5q-36-34.5-84-53.5t-102-19q-12-82-51-152.5t-97.5-122Q1450 826 1375 797t-159-29q-77 0-146.5 25T943 862q-57 44-98.5 106T784 1103q-44-38-97-58.5T576 1024q-66 0-124.5 25t-102 68.5q-43.5 43.5-68.5 102T256 1344q0 66 25 124.5t68.5 102q43.5 43.5 102 68.5t124.5 25h1088z"/></svg>