<svg xmlns="http://www.w3.org/2000/svg" viewBox="0 0 2048 2048"><path d="M1920 1664h-128v384H128v-384H0V640h128V0h1243l421 421v219h128v1024M1408 384h165l-165-165v165M256 640h1408V512h-384V128H256v512m1408 1024H256v256h1408v-256m128-896H128v768h1664V768M448 896q40 0 75 15t61 41q26 26 41 61t15 75q0 40-15 75t-41 61q-26 26-61 41t-75 15h-64v128H256V896h192m0 256q26 0 45-19t19-45q0-26-19-45t-45-19h-64v128h64m448-256q53 0 99.5 20t81.5 55q35 35 55 81.5t20 99.5q0 53-20 99.5t-55 81.5q-35 35-81.5 55t-99.5 20H768V896h128m0 384q27 0 50-10t40.5-27.5q17.5-17.5 27.5-40.5t10-50q0-27-10-50t-27.5-40.5Q969 1044 946 1034t-50-10v256m384-384h320v128h-192v128h192v128h-192v128h-128V896z"/></svg>