<svg xmlns="http://www.w3.org/2000/svg" viewBox="0 0 2048 2048"><path d="M128 352l1024-224v1792L128 1696V352m283 1063q5 3 16.5 8.5t25 11.5q13.5 6 26 11t18.5 7q29 10 60.5 14.5t62.5 4.5q47 0 89-12t74.5-37q32.5-25 54-62t27.5-87v5l1-10-1 5q4-23 4-50 0-51-16-92t-43-76q-27-35-62-64.5T675 935q-27-20-40.5-40.5T621 839q0-44 29-67.5t71-23.5q15 0 32.5 3.5T789 761q18 6 34.5 14.5T851 793V607q-34-14-68-22.5t-71-8.5q-26 0-51.5 1.5T609 585q-47 11-83 35t-60 58q-24 34-36 75.5T418 842q0 59 17 99.5t43 69.5q26 29 55.5 50.5t55.5 42q26 20.5 43 44t17 55.5q0 45-29.5 65t-70.5 20q-46 0-76-15.5t-62-44.5v187M1792 256q26 0 49.5 10t41 27.5q17.5 17.5 27.5 41t10 49.5v640l-369-370q-6-6-21.5-10t-23.5-4q-20 0-39 14-17 13-32.5 28t-30.5 30l-62 60q-31 30-62 61V256h512m0 128h-128v128h128V384m-512 640h640v640q0 26-10 49.5t-27.5 41q-17.5 17.5-41 27.5t-49.5 10h-512v-256h128v-128h-128v-128h128v-128h-128v-128m256 256h256v-128h-256v128m0 256h256v-128h-256v128z"/></svg>