<svg xmlns="http://www.w3.org/2000/svg" viewBox="0 0 2048 2048"><path d="M1024 0q141 0 272 36.5t245 103q114 66.5 207.5 160t160 207.5q66.5 114 103 245t36.5 272q0 55-10.5 114.5T2006 1255q-21 57-53 108t-74.5 89.5q-42.5 38.5-96.5 61t-118 22.5q-54 0-105.5-14.5T1463 1480q-44-27-80.5-66t-60.5-88q-30 47-69 85.5t-85 66.5q-46 28-98.5 43T960 1536q-102 0-185-44.5T633.5 1375q-58.5-72-90-164T512 1024q0-95 31.5-187t90-164Q692 601 775 556.5T960 512q95 0 176.5 41T1280 665V512h128v640q0 53 20 99.5t55 81.5q35 35 81.5 55t99.5 20q44 0 80.5-18.5t65-49q28.5-30.5 49.5-70t34.5-82.5q13.5-43 20-85.5t6.5-78.5q0-123-32-237.5t-90.5-214Q1739 473 1657 391t-181.5-140.5q-99.5-58.5-214-90.5T1024 128q-123 0-237.5 32t-214 90.5Q473 309 391 391T250.5 572.5Q192 672 160 786.5T128 1024q0 123 32 237.5t90.5 214Q309 1575 391 1657t181.5 140.5Q672 1856 786 1888t238 32q178 0 343-68l49 118q-94 39-192.5 58.5T1024 2048q-141 0-272-36.5t-245-103q-114-66.5-207.5-160t-160-207.5q-66.5-114-103-244.5T0 1024q0-141 36.5-272t103-245q66.5-114 160-207.5t207.5-160Q621 73 751.5 36.5T1024 0m-64 1408q75 0 134.5-34.5T1195 1284q41-55 63-123.5t22-136.5q0-68-22-136.5T1195 764q-41-55-100.5-89.5T960 640q-75 0-134.5 34.5T725 764q-41 55-63 123.5T640 1024q0 68 22 136.5t63 123.5q41 55 100.5 89.5T960 1408z"/></svg>