<svg xmlns="http://www.w3.org/2000/svg" viewBox="0 0 2048 2048"><path d="M1604 1254q79 0 148 30t120.5 82q51.5 52 81.5 121t30 148q0 78-30 147.5t-81.5 121q-51.5 51.5-121 81.5t-147.5 30q-78 0-147.5-30t-121-81.5q-51.5-51.5-81.5-121t-30-147.5q0-79 30-148t81.5-121q51.5-52 120.5-82t148-30m-2 165q-20 0-36.5 9t-28 23.5q-11.5 14.5-18 32.5t-6.5 37q0 19 6.5 37t18 32.5q11.5 14.5 28 23t36.5 8.5q20 0 36-8.5t27.5-23q11.5-14.5 18-32.5t6.5-37q0-18-6.5-36.5t-18-33Q1654 1437 1638 1428t-36-9m181 425q0-28-1-63.5t-10-66.5q-9-31-30-52.5t-61-21.5h-5q-14 15-33 24.5t-40 9.5q-20 0-39-9.5t-33-24.5q-41 0-63 20.5t-32 51q-10 30.5-11 66.5t-1 66h359m-205-652q-88 5-164.5 41.5T1281 1330q-56 60-88.5 138.5T1160 1635q0 89 35 173l-147 45-971-350 974 117V329L403 481v873L64 1501V390l985-357 529 171v988z"/></svg>