<svg xmlns="http://www.w3.org/2000/svg" viewBox="0 0 2048 2048"><path d="M1042 1827q14 30 14 61 0 33-12.5 62t-34.5 51q-22 22-51 34.5t-62 12.5q-33 0-62-12.5t-51-34.5q-22-22-34.5-51t-12.5-62q0-31 14-61l146-291 146 291m384-256q14 30 14 61 0 33-12.5 62t-34.5 51q-22 22-51 34.5t-62 12.5q-33 0-62-12.5t-51-34.5q-22-22-34.5-51t-12.5-62q0-31 14-61l146-291 146 291m335-535q63 17 115.5 52.5t91 84.5q38.5 49 59.5 109t21 126q0 80-30 149.5t-82.5 122Q1883 1732 1813 1762t-149 30h-108q17-29 27-61.5t14-66.5h67q53 0 99.5-20t81.5-55q35-35 55-81.5t20-99.5q0-55-20.5-102t-56.5-81q-36-34-84-53.5t-102-19.5q-12-82-51-152.5t-97.5-122Q1450 826 1375 797t-159-29q-77 0-146.5 25T943 862q-57 44-98.5 106T784 1103q-44-38-97-58.5T576 1024q-66 0-124.5 25t-102 68.5q-43.5 43.5-68.5 102T256 1344q0 66 25 124.5t68.5 102q43.5 43.5 102 68.5t124.5 25h96l-64 128h-32q-93 0-174.5-35.5t-142-96q-60.5-60.5-96-142T128 1344q0-77 25.5-149t73.5-132q-81-54-136.5-134T14 754q58 14 114 14 106 0 199.5-40t163-109.5Q560 549 600 455.5T640 256q0-29-4-57.5T626 142q87 20 160 67t126 113q53 66 82.5 147.5T1024 640v17q0 9-1 17 47-17 95-25.5t98-8.5q93 0 178.5 29t157.5 81.5q72 52.5 126 125t83 160.5M324 974q56-38 120-58t132-20q74 0 147 25 61-102 157-172 8-26 12-53.5t4-55.5q0-85-35-161T761 348q-15 105-62 197T580.5 708.5Q509 780 417 827t-197 62q22 26 48.5 47t55.5 38z"/></svg>