<svg xmlns="http://www.w3.org/2000/svg" viewBox="0 0 2048 2048"><path d="M1856 384q40 0 75 15t61 41q26 26 41 61t15 75v1152q0 40-15 75t-41 61q-26 26-61 41t-75 15H192q-40 0-75-15t-61-41q-26-26-41-61t-15-75V576q0-40 15-75t41-61q26-26 61-41t75-15h448V256q0-27 10-50t27.5-40.5Q695 148 718 138t50-10h512q27 0 50 10t40.5 27.5Q1388 183 1398 206t10 50v128h448m-1088 0h512V256H768v128M512 512v1280h1024V512H512M128 1728q0 26 19 45t45 19h192V512H192q-26 0-45 19t-19 45v1152M1920 576q0-26-19-45t-45-19h-192v1280h192q26 0 45-19t19-45V576z"/></svg>