<svg xmlns="http://www.w3.org/2000/svg" viewBox="0 0 2048 2048"><path d="M256 1536h768v128H128V128h256V0h128v128h896V0h128v128h256v896h-128V640H256v896m0-1280v256h1408V256h-128v128h-128V256H512v128H384V256H256m1792 896v384h-384v-128h190q-45-60-112-94t-142-34q-59 0-111.5 20t-94.5 55.5q-42 35.5-70 84.5t-38 107l-127-22q14-81 54-149t98.5-118q58.5-50 132.5-78t156-28q91 0 174 35.5t146 101.5v-137h128m-448 768q58 0 111-20t95-55.5q42-35.5 70-84.5t38-107l127 22q-14 81-54 149t-98.5 118q-58.5 50-132.5 78t-156 28q-91 0-174-35.5T1280 1911v137h-128v-384h384v128h-190q45 60 112 94t142 34z"/></svg>