<svg xmlns="http://www.w3.org/2000/svg" viewBox="0 0 2048 2048"><path d="M1792 993q60 41 107.5 93.5t80.5 114q33 61.5 50.5 130.5t17.5 141q0 119-45.5 224T1879 1879q-78 78-183 123.5t-224 45.5q-91 0-176-27.5t-156.5-78q-71.5-50.5-126-121.5T929 1664H128V128h256V0h128v128h896V0h128v128h256v865M256 256v256h1408V256h-128v128h-128V256H512v128H384V256H256m643 1280q-3-31-3-64 0-86 24.5-167t72.5-153h-97v-128h128v86q41-51 91.5-90.5t108-67q57.5-27.5 120.5-42t128-14.5q100 0 192 33V640H256v896h643m573 384q93 0 174.5-35.5t142-96q60.5-60.5 96-142T1920 1472q0-93-35.5-174.5t-96-142q-60.5-60.5-142-96T1472 1024q-93 0-174.5 35.5t-142 96q-60.5 60.5-96 142T1024 1472q0 93 35.5 174.5t96 142q60.5 60.5 142 96T1472 1920m64-512h192v128h-320v-384h128v256M384 1024h128v128H384v-128m256 0h128v128H640v-128m0-256h128v128H640V768m-256 512h128v128H384v-128m256 0h128v128H640v-128m384-384H896V768h128v128m256 0h-128V768h128v128m256 0h-128V768h128v128z"/></svg>