<svg xmlns="http://www.w3.org/2000/svg" viewBox="0 0 2048 2048"><path d="M256 896H0V768h256v128m123-426L198 289l91-91 181 181-91 91m517-214H768V0h128v256m389 214l-91-91 181-181 91 91-181 181m-5 826q23 0 43.5 9t35.5 24q15 15 24 35.5t9 43.5q0 23-9 43.5t-24 35.5q-15 15-35.5 24t-43.5 9q-23 0-43.5-9t-35.5-24q-15-15-24-35.5t-9-43.5q0-23 9-43.5t24-35.5q15-15 35.5-24t43.5-9m0 384q23 0 43.5 9t35.5 24q15 15 24 35.5t9 43.5q0 23-9 43.5t-24 35.5q-15 15-35.5 24t-43.5 9q-23 0-43.5-9t-35.5-24q-15-15-24-35.5t-9-43.5q0-23 9-43.5t24-35.5q15-15 35.5-24t43.5-9m-384-256q23 0 43.5 9t35.5 24q15 15 24 35.5t9 43.5q0 23-9 43.5t-24 35.5q-15 15-35.5 24t-43.5 9q-23 0-43.5-9t-35.5-24q-15-15-24-35.5t-9-43.5q0-23 9-43.5t24-35.5q15-15 35.5-24t43.5-9m0 384q23 0 43.5 9t35.5 24q15 15 24 35.5t9 43.5q0 23-9 43.5t-24 35.5q-15 15-35.5 24t-43.5 9q-23 0-43.5-9t-35.5-24q-15-15-24-35.5t-9-43.5q0-23 9-43.5t24-35.5q15-15 35.5-24t43.5-9m865-772q63 17 115.5 52.5t91 84.5q38.5 49 59.5 109t21 126q0 80-30 149.5t-82.5 122Q1883 1732 1813 1762t-149 30h-128v-128h128q53 0 99.5-20t81.5-55q35-35 55-81.5t20-99.5q0-55-20.5-102t-56.5-81q-36-34-83.5-53.5T1658 1152q-12-82-51-152.5t-98-122q-59-51.5-134-80.5t-159-29q-77 0-146.5 25T943 862q-57 44-98.5 106T784 1103q-44-38-97-58.5T576 1024q-66 0-124.5 25t-102 68.5q-43.5 43.5-68.5 102T256 1344q0 66 25 124.5t68.5 102q43.5 43.5 102 68.5t124.5 25h64v128h-64q-93 0-174.5-35.5t-142-96q-60.5-60.5-96-142T128 1344q0-66 19-128.5t54-116q35-53.5 84.5-96T396 934q-12-49-12-102 0-93 35.5-174.5t96-142q60.5-60.5 142-96T832 384q65 0 125.5 18t113 51.5q52.5 33.5 94.5 81t70 105.5q90 3 173 33.5t152 82.5q69 52 121 123.5t80 156.5M723 921q61-103 158.5-173t214.5-95q-45-66-114.5-103.5T832 512q-66 0-124.5 25.5t-102 69Q562 650 537 708t-25 124q0 32 8 67 28-3 56-3 74 0 147 25z"/></svg>