<svg xmlns="http://www.w3.org/2000/svg" viewBox="0 0 2048 2048"><path d="M1280 768h-128v128h128V768m-384 768H768v128h128v-128M512 768H384v128h128V768m384 0H768v128h128V768m384 256h-128v128h128v-128m384 0h-128v128h128v-128m-1152 0H384v128h128v-128m384 0H768v128h128v-128m384 256h-128v128h128v-128m384 0h-128v128h128v-128m-1152 0H384v128h128v-128m384 0H768v128h128v-128m384 256h-128v128h128v-128m384 0h-128v128h128v-128M0 128v1792h2048V128h-384V0h-128v128H512V0H384v128H0m1920 128v256H128V256h256v128h128V256h1024v128h128V256h256M128 1792V640h1792v1152H128z"/></svg>