<svg xmlns="http://www.w3.org/2000/svg" viewBox="0 0 2048 2048"><path d="M2048 1664q2 78-30 146t-86 119.5q-54 51.5-124 82.5t-144 35h-9l-2 1h-11q-109 0-204-43.5T1280 1869v179h-128v-384h384v128h-152q19 29 46 52.5t58.5 40.5q31.5 17 65.5 26t69 9q56 0 105-14.5t87.5-43.5q38.5-29 65-71.5t37.5-98.5l1-2v-11l1-2v-13h128m-128-512h128v384h-384v-128h152q-19-29-46-52.5t-58.5-40.5q-31.5-17-66-26t-68.5-9q-56 0-105 14.5t-87.5 43.5q-38.5 29-65 71.5T1282 1508l-1 2v11l-1 2v13h-128q-2-78 29.5-146t85.5-119.5q54-51.5 124.5-82.5t144.5-35h9l2-1h11q109 0 204 43.5t158 135.5v-179m128-768v640h-128V648l-896 447-896-447v888h896v128H0V384h2048M1024 953l881-441H143l881 441z"/></svg>