<svg xmlns="http://www.w3.org/2000/svg" viewBox="0 0 2048 2048"><path d="M1280 1408h384v128h-384v384h-128v-384H768v-128h384v-384h128v384m598-477q85 42 127.5 117.5T2048 1218q0 56-19 108.5t-53 95.5q-34 43-81 72.5t-103 38.5v-132q28-9 52-27.5t40.5-43.5q16.5-25 26-54t9.5-58q0-36-11-69.5t-32-59.5q-21-26-51.5-42.5T1757 1027q3-58-12.5-108.5t-48-88Q1664 793 1617 771t-107-22q-31 0-68 8t-64 24q-45-66-109.5-103.5T1123 640q-22 0-44 2.5t-43 7.5q-49 12-89 39t-70 65q-30 38-47.5 84T808 933q-48 2-91.5 17.5t-76 44q-32.5 28.5-52 69T569 1155q0 53 16 103.5t55 88.5v152q-34-16-63.5-39t-52.5-52H363q-73 0-138.5-30T109 1298q-50-50-79.5-116.5T0 1043q0-115 54.5-205.5T216 700q12-78 48.5-144.5t92-115Q412 392 482 364t150-28q24 0 48 2.5t47 8.5q71-80 166.5-125.5T1096 176q49 0 96.5 9.5T1285 213q141 56 221 164t103 254l1 3q54 13 99 41t79.5 67q34.5 39 57.5 87t32 102m-399-308q-13-69-48-127.5t-86-101q-51-42.5-115-66.5t-134-24q-51 0-98.5 14t-89 40Q867 384 833 420.5T774 501q-29-18-69-27.5t-73-9.5q-62 0-115.5 24t-93 65.5q-39.5 41.5-62 96T339 765q0 8 .5 16.5T341 798q-49 4-88.5 25t-67 54Q158 910 143 952.5t-15 90.5q0 47 19.5 89.5T199 1208q32 33 74.5 52.5T363 1280h95q-10-30-13.5-61.5T441 1155q0-63 18.5-116.5T512 943q34-42 82-72.5T701 822q23-73 63-130.5t94-97.5q54-40 121-61t144-21q85 0 160 30t136 89l60-8z"/></svg>