<svg xmlns="http://www.w3.org/2000/svg" viewBox="0 0 2048 2048"><path d="M1920 1152h128v384h-384v-128h192q-45-60-113-94t-143-34q-51 0-98 15.5t-87 43.5q-40 28-70 67t-47 87l-120-42q24-67 66-122t97.5-94.5q55.5-39.5 121.5-61t137-21.5q91 0 174 35t146 100v-135M448 0q93 0 174.5 35T765 131q61 61 96 142.5T896 448q0 93-35 174.5T765 765q-61 61-142.5 96T448 896q-93 0-174.5-35T131 765q-61-61-96-142.5T0 448q0-93 35-174.5T131 131q61-61 142.5-96T448 0M128 448q0 66 25 124.5t68.5 102Q265 718 323.5 743T448 768q47 0 92-13.5t84-39.5L181 272q-26 39-39.5 84T128 448m587 176q26-39 39.5-84t13.5-92q0-66-25.5-124t-69-101.5Q630 179 572 153.5T448 128q-47 0-92 13.5T272 181l443 443m-203 912h384v128H512v384H384v-384H0v-128h384v-384h128v384m1088 384q51 0 98-15.5t86.5-43.5q39.5-28 70-67t47.5-87l120 42q-24 67-66 122t-97.5 94.5q-55.5 39.5-121.5 61t-137 21.5q-91 0-174-35t-146-100v135h-128v-384h384v128h-192q45 60 113 94t143 34M1230 521q-38-38-58-87t-20-102q0-56 21-105t57-85q36-36 84.5-57T1419 64q51 0 97.5 18t83.5 52q37-34 83.5-52t97.5-18q55 0 104 21t85 57q36 36 57 85t21 105q0 53-20 102t-58 87l-370 369-370-369m190-329q-29 0-54.5 11t-44.5 30q-19 19-30 44.5t-11 54.5q0 28 10.5 53t30.5 45l279 279 279-279q41-41 41-98 0-29-11-54.5t-30-44.5q-19-19-44.5-30t-54.5-11q-57 0-98 41l-82 82-82-82q-20-20-45-30.5t-53-10.5z"/></svg>