<svg xmlns="http://www.w3.org/2000/svg" viewBox="0 0 2048 2048"><path d="M1024 1280q72 0 149 16t147 48.5q70 32.5 128 82.5t92 118l-115 57q-26-51-72-87.5t-101.5-60.5q-55.5-24-115.5-35t-112-11q-54 0-113.5 10.5t-115 34q-55.5 23.5-101 60.5t-71.5 89l-115-57q34-69 91.5-119.5T727 1343q70-32 147-47.5t150-15.5m0-1280q141 0 272 36.5T1540.5 140q113.5 67 207 160.5t160.5 207Q1975 621 2011.5 752t36.5 272q0 141-36.5 272t-103 245q-66.5 114-160 207.5t-207.5 160q-114 66.5-245 103t-272 36.5q-141 0-272-36.5t-245-103q-114-66.5-207.5-160t-160-207.5q-66.5-114-103-244.5T0 1024q0-141 36.5-272t103-245q66.5-114 160-207.5t207.5-160Q621 73 751.5 36.5T1024 0m0 1920q123 0 237.5-32t214-90.5Q1575 1739 1657 1657t140.5-181.5Q1856 1376 1888 1262t32-238q0-123-32-237.5t-90.5-214Q1739 473 1657 391t-181.5-140.5q-99.5-58.5-214-90.5T1024 128q-123 0-237.5 32t-214 90.5Q473 309 391 391T250.5 572.5Q192 672 160 786.5T128 1024q0 123 32 237.5t90.5 214Q309 1575 391 1657t181.5 140.5Q672 1856 786 1888t238 32M767 917q-47-21-97-21-35 0-68.5 10t-62 28.5Q511 953 488.5 979t-37.5 58l-117-53q22-49 57-89t79-68q44-28 94.5-43.5T669 768q80 0 151 33l-53 116m461-116q35-17 73.5-25t77.5-8q54 0 104.5 15.5T1578 827q44 28 78.5 68t57.5 89l-117 53q-15-32-37.5-58t-51-44.5q-28.5-18.5-62-28.5t-68.5-10q-52 0-98 21l-52-116z"/></svg>