<svg xmlns="http://www.w3.org/2000/svg" viewBox="0 0 2048 2048"><path d="M960 0q132 0 255 34.5t229.5 97q106.5 62.5 194 150t150 194q62.5 106.5 97 229.5t34.5 255q0 132-34.5 255t-97 229.5q-62.5 106.5-150 194t-194 150q-106.5 62.5-229.5 97T960 1920q-132 0-255-34.5t-229.5-97q-106.5-62.5-194-150t-150-194q-62.5-106.5-97-229T0 960q0-132 34.5-255t97-229.5q62.5-106.5 150-194t194-150q106.5-62.5 229-97T960 0m0 1792q115 0 221.5-29.5t199-84q92.5-54.5 168-130t130-168q54.5-92.5 84-199T1792 960q0-115-29.5-221.5t-84-199q-54.5-92.5-130-168t-168-130q-92.5-54.5-199-84T960 128q-115 0-221.5 29.5t-199 84q-92.5 54.5-168 130t-130 168q-54.5 92.5-84 199T128 960q0 115 29.5 221.5t84 199q54.5 92.5 130 168t168 130q92.5 54.5 199 84T960 1792M384 896h1152v128H384V896z"/></svg>