<svg xmlns="http://www.w3.org/2000/svg" viewBox="0 0 2048 2048"><path d="M1792 768q40 0 75 15t61 41q26 26 41 61t15 75q0 40-15 75t-41 61q-26 26-61 41t-75 15h-320q-26 0-45-19l-147-146-102 101 211 211q19 19 19 45v384q0 40-15 75t-41 61q-26 26-61 41t-75 15q-40 0-75-15t-61-41q-26-26-41-61t-15-75v-229l-128-128-147 146q-19 19-45 19H256q-40 0-75-15t-61-41q-26-26-41-61t-15-75q0-40 15-75t41-61q26-26 61-41t75-15h293l80-79q-53-23-85-71t-32-106V512q0-27 10-50t27.5-40.5Q567 404 590 394t50-10h512q0-53 20-99.5t55-81.5q35-35 81.5-55t99.5-20q53 0 99.5 20t81.5 55q35 35 55 81.5t20 99.5q0 42-13 80.5t-36.5 70.5q-23.5 32-56 56t-72.5 37l141 140h165m-384-512q-27 0-50 10t-40.5 27.5Q1300 311 1290 334t-10 50q0 27 10 50t27.5 40.5Q1335 492 1358 502t50 10q24 0 47-9.5t41-26q18-16.5 29-38t11-46.5q0-28-9-53t-25.5-43.5q-16.5-18.5-40.5-29t-53-10.5m384 768q26 0 45-19t19-45q0-32-18-46t-46-18q-28-4-63-1.5t-68 4q-33 1.5-61.5-2T1555 877l-366-365H640v384q0 26 19 45t45 19q37 0 50.5-23.5T770 877q2-36-2-77t-2-77q2-36 15.5-59.5T832 640h192q26 0 45 19t19 45q0 26-19 45t-45 19H896v192q0 26-19 45l-256 256q-19 19-45 19H256q-26 0-45 19t-19 45q0 26 19 45t45 19h421l174-173q19-19 45-19t45 19l192 192q19 19 19 45v256q0 26 19 45t45 19q26 0 45-19t19-45v-357l-237-238q-19-19-19-45t19-45l192-192q19-19 45-19t45 19l174 173h293z"/></svg>