<svg xmlns="http://www.w3.org/2000/svg" viewBox="0 0 2048 2048"><path d="M1405 1024q0 26-10 49t-27 40q-17 17-39.5 27t-48.5 10V899q26 0 48.5 10t39.5 27q17 17 27 40t10 48m606 85l-63 236-207-27q-34 53-75 95l72 188-211 123-126-164q-62 14-121 14v-207q71 0 133-26.5t108.5-73Q1568 1221 1595 1159t27-133q0-71-27-133t-73.5-108.5Q1475 738 1413 711t-133-27V472h5l78-177 236 63-26 201q54 35 98 80l184-71 123 211-164 126q13 58 13 122l184 82M64 269L1216 64v1920L64 1785V269m197 1124l113 9V988q0-48-1.5-96.5T369 795l3-1q4 26 7.5 52t10.5 52l140 516 115 9 153-542q8-27 12.5-54.5T820 771h3q-2 45-3.5 88t-1.5 88v490l156 13V605l-223 18-132 477q-8 28-14 55.5t-11 56.5h-3q-6-56-21-112L447 648l-186 15v730z"/></svg>