<svg xmlns="http://www.w3.org/2000/svg" viewBox="0 0 2048 2048"><path d="M1389 797q-29 0-57.5 4t-51.5 23V638q13-2 24.5-6.5t24.5-6.5q-3-5-11.5-14.5t-16.5-20q-8-10.5-14.5-21T1280 552v-46q0-14 7.5-25t19-18.5Q1318 455 1332 451t26-4q17 0 33.5 7.5T1418 476l244 321h-273m659 220q0 69-23 133t-65 115.5q-42 51.5-99.5 86.5t-126.5 47q16 22 33 44t17 51q0 34-23.5 58t-57.5 24q-21 0-34-6.5t-26-23.5l-244-314q71 1 141.5 1.5t141.5.5q11 0 26-3.5t25-7.5q33-11 59.5-32t46-48q19.5-27 30-59t10.5-67q0-38-12.5-75t-36.5-67q-8-10-9.5-11.5t-2-1-2-1q-1.5-1.5-9.5-10.5l-182-220h76v-1q75 5 138.5 38.5t110 86.5q46.5 53 72.5 121t26 141m-768 187l156 197h-69q-26 0-45.5-5t-41.5-19v-173M64 272L1216 67v1914L64 1782V272m402 1122l389 22-2-143-257-4V626l-130 16v752z"/></svg>