<svg xmlns="http://www.w3.org/2000/svg" viewBox="0 0 2048 2048"><path d="M1280 476q-29 17-61.5 26.5T1152 512V384q27 0 50-10t40.5-27.5Q1260 329 1270 306t10-50h128v640h-128V476m192 1316h-384q0-13-.5-25.5t-.5-25.5q0-25 3-49.5t12-47.5q11-28 33-54.5t49-52q27-25.5 55.5-50t51.5-49q23-24.5 38-48t15-46.5q0-27-19-45.5t-45-18.5q-23 0-40.5 14t-22.5 37l-125-26q6-33 23.5-61t43.5-48.5q26-20.5 57-32t64-11.5q40 0 75 15t61 41q26 26 41 61t15 75q0 59-25 102t-61.5 79q-36.5 36-77 68.5T1237 1664h235v128M525 894H411l235-628h117l234 628H882l-56-160H579l-54 160m176-535q-2 11-3.5 21t-4.5 19l-87 250h193l-88-250q-3-9-5-19.5t-5-20.5M525 1790H411l235-628h117l234 628H882l-56-160H579l-54 160m176-535q-2 11-3.5 21t-4.5 19l-87 250h193l-88-250q-3-9-5-19.5t-5-20.5m837-238q21 0 34-12t20-29.5q7-17.5 9.5-37.5t2.5-36h-68V770h128v132q0 30-6.5 61t-21 56.5Q1622 1045 1598 1061t-60 16v-60M2048 0v2048H0V0h2048m-128 128H128v1792h1792V128z"/></svg>