<svg xmlns="http://www.w3.org/2000/svg" viewBox="0 0 2048 2048"><path d="M1792 512h-256V384h256v128m0 256h-256V640h256v128m0 768h-256v-128h256v128m0-512h-256V896h256v128m128-896q27 0 50 10t40.5 27.5Q2028 183 2038 206t10 50v1408q0 27-10 50t-27.5 40.5Q1993 1772 1970 1782t-50 10h-640v256L0 1824V224L1280 0v128h640m-869 1424l-281-532 274-524-261 15q-38 86-77 171t-74 173q-2-8-5.5-16t-6.5-16L499 527l-250 15 236 482-257 481 244 14q5-11 18-38t29-61q16-34 33.5-71.5T585 1278q15-33 25-57t12-32q34 86 75.5 174t79.5 173l274 16m869-1296h-640v128h128v128h-128v128h128v128h-128v128h128v128h-128v128h128v128h-128v128h128v128h-128v128h640V256m-128 1024h-256v-128h256v128z"/></svg>