<svg xmlns="http://www.w3.org/2000/svg" viewBox="0 0 2048 2048"><path d="M1460 602q7 0 12 5l124 136 242-320q4-6 12-6 5 0 14 6t18.5 14.5q9.5 8.5 18.5 16.5t13 11q6 5 6 12 0 5-3 9l-321 410-197-223q-5-5-5-10t5-10q4-3 12-11.5t17.5-17.5q9.5-9 18-15.5t13.5-6.5m396 742h-576v-256h576v256m-64-192h-448v128h448v-128m-512 512v-256h576v256h-576m64-64h448v-128h-448v128m512-576h-576V448h459l-49 64h-346v448h448V749l64-82v357m64-768q26 0 45 19t19 45v1408q0 26-19 45t-45 19h-704v205L64 1731V317L1216 51v205h704M804 637H436v776h153v-295h197V963H589V791h215V637m1116-317h-704v1408h704V320z"/></svg>