<svg xmlns="http://www.w3.org/2000/svg" viewBox="0 0 2048 2048"><path d="M1300 1201l-271 271 90 90-226 227q-63 63-145.5 97T576 1920q-73 0-141.5-22.5T308 1831l-199 198-90-90 198-199q-44-58-66.5-126.5T128 1472q0-89 34-171.5t97-145.5l227-226 90 90 271-271 91 90-272 272 272 272 272-272 90 91m-724 591q64 0 122.5-24.5T802 1698l136-136-452-452-136 136q-45 45-69.5 103.5T256 1472q0 66 25 124.5t68.5 102q43.5 43.5 102 68.5t124.5 25M1831 308q44 58 66.5 126.5T1920 576q0 89-34 171.5T1789 893l-227 226-633-633 226-227q63-63 145.5-97t171.5-34q73 0 141.5 22.5T1740 217l199-198 90 90-198 199m-133 494q45-45 69.5-103.5T1792 576q0-66-25.5-124t-69-101.5q-43.5-43.5-101.5-69T1472 256q-64 0-122.5 24.5T1246 350l-136 136 452 452 136-136z"/></svg>