<svg xmlns="http://www.w3.org/2000/svg" viewBox="0 0 2048 2048"><path d="M1920 960q26 0 45 19t19 45v256q0 53-20 99.5t-55 81.5q-35 35-81.5 55t-99.5 20h-192q-46 60-113 94t-143 34q-33 0-64-6v334L64 1791V263L1216 56v286q47-22 96-22 46 0 87 17.5t71.5 48q30.5 30.5 48 71.5t17.5 87q0 46-17.5 87t-48 71.5q-30.5 30.5-71.5 48t-87 17.5q-49 0-96-22v150h320q26 0 45 19t19 45h320m-608-584q-26 0-50.5 7.5T1216 406v276q21 15 45.5 22.5t50.5 7.5q35 0 65.5-13t53.5-36q23-23 36-53.5t13-65.5q0-35-13-65.5t-36-53.5q-23-23-53.5-36t-65.5-13M875 642H405v136h168v614h131V777h171V642m405 966q53 0 100-20.5t81.5-56q34.5-35.5 54.5-82.5t20-100V960h-320v640q16 4 31.5 6t32.5 2m640-584h-320v320q0 68-27 128h155q40 0 75-15t61-41q26-26 41-61t15-75v-256m-160-128q-46 0-87-17.5t-71.5-48q-30.5-30.5-48-71.5t-17.5-87q0-46 17.5-87t48-71.5q30.5-30.5 71.5-48t87-17.5q46 0 87 17.5t71.5 48q30.5 30.5 48 71.5t17.5 87q0 46-17.5 87t-48 71.5q-30.5 30.5-71.5 48t-87 17.5m0-392q-35 0-65.5 13t-53.5 36q-23 23-36 53.5t-13 65.5q0 35 13 65.5t36 53.5q23 23 53.5 36t65.5 13q35 0 65.5-13t53.5-36q23-23 36-53.5t13-65.5q0-35-13-65.5t-36-53.5q-23-23-53.5-36t-65.5-13z"/></svg>