<svg xmlns="http://www.w3.org/2000/svg" viewBox="0 0 2048 2048"><path d="M2048 256v759q-28-35-60-67t-68-59V384H128v1152h612q3 32 8.5 64t13.5 64H0V256h2048m-576 640q119 0 224 45.5t183 123.5q78 78 123.5 183t45.5 224q0 119-45.5 224T1879 1879q-78 78-183 123.5t-224 45.5q-119 0-224-45.5T1065 1879q-78-78-123.5-183T896 1472q0-119 45.5-224t123.5-183q78-78 183-123.5t224-45.5m0 1024q93 0 174.5-35.5t142-96q60.5-60.5 96-142T1920 1472q0-93-35.5-174.5t-96-142q-60.5-60.5-142-96T1472 1024q-93 0-174.5 35.5t-142 96q-60.5 60.5-96 142T1024 1472q0 93 35.5 174.5t96 142q60.5 60.5 142 96T1472 1920m-64-768h128v384h-128v-384m0 512h128v128h-128v-128z"/></svg>