<svg xmlns="http://www.w3.org/2000/svg" viewBox="0 0 2048 2048"><path d="M2048 384v640h-128V648l-896 447-896-447v888h896v128H0V384h2048M1024 953l881-441H143l881 441m576 199q66 0 124 25.5t101.5 69q43.5 43.5 69 101.5t25.5 124v192h128v128h-256v64q0 40-15 75t-41 61q-26 26-61 41t-75 15q-40 0-75-15t-61-41q-26-26-41-61t-15-75v-64h-256v-128h128v-192q0-66 25-124t68.5-101.5q43.5-43.5 102-69T1600 1152m64 640h-128v64q0 26 19 45t45 19q26 0 45-19t19-45v-64m128-128v-192q0-40-15-75t-41-61q-26-26-61-41t-75-15q-40 0-75 15t-61 41q-26 26-41 61t-15 75v192h384z"/></svg>