<svg xmlns="http://www.w3.org/2000/svg" viewBox="0 0 2048 2048"><path d="M1024 640q-80 0-149.5 30t-122 82.5Q700 805 670 875t-30 149q0 80 30 149.5t82.5 122q52.5 52.5 122 82.5t149.5 30q79 0 149-30t122.5-82.5q52.5-52.5 82.5-122t30-149.5q0-64-22-128h134q8 32 12 64t4 64q0 106-40.5 199t-110 162.5q-69.5 69.5-162.5 110t-199 40.5q-106 0-199-40.5t-162.5-110Q593 1316 553 1223t-40-199q0-106 40-199t109.5-162.5Q732 593 825 552.5t199-40.5q32 0 64 4t64 12v134q-64-22-128-22m866 155q30 113 30 229 0 123-32 237.5t-90.5 214Q1739 1575 1657 1657t-181.5 140.5q-99.5 58.5-214 90.5t-237.5 32q-123 0-237.5-32t-214-90.5Q473 1739 391 1657t-140.5-181.5Q192 1376 160 1262t-32-238q0-123 32-237.5t90.5-214Q309 473 391 391t181.5-140.5Q672 192 786 160t238-32q116 0 229 30l-101 101v8q-32-5-64-8t-64-3q-106 0-204 27.5T636.5 361Q551 411 481 481T361 636.5Q311 722 283.5 820T256 1024q0 106 27.5 204t77.5 183.5q50 85.5 120 155.5t155.5 120q85.5 50 183.5 77.5t204 27.5q106 0 204-27.5t183.5-77.5q85.5-50 155.5-120t120-155.5q50-85.5 77.5-183.5t27.5-204q0-32-3-64t-8-64h8l101-101m-610-118V390L1664 6v378h378l-384 384h-287l-223 223q4 15 4 33 0 27-10 50t-27.5 40.5Q1097 1132 1074 1142t-50 10q-27 0-50-10t-40.5-27.5Q916 1097 906 1074t-10-50q0-27 10-50t27.5-40.5Q951 916 974 906t50-10q18 0 33 4l223-223m128-37h197l128-128h-197V315l-128 128v197z"/></svg>