<svg xmlns="http://www.w3.org/2000/svg" viewBox="0 0 2048 2048"><path d="M1792 0q53 0 99.5 20t81.5 55q35 35 55 81.5t20 99.5q0 53-20 99.5t-55 81.5q-35 35-81.5 55t-99.5 20h-128v1280q0 53-20 99.5t-55 81.5q-35 35-81.5 55t-99.5 20H256q-53 0-99.5-20T75 1973q-35-35-55-81.5T0 1792q0-53 20-99.5t55-81.5q35-35 81.5-55t99.5-20V256q0-53 20-99.5T331 75q35-35 81.5-55T512 0h1280m-606 1920q-34-60-34-128t34-128H256q-27 0-50 10t-40.5 27.5Q148 1719 138 1742t-10 50q0 27 10 50t27.5 40.5Q183 1900 206 1910t50 10h930m222 0q27 0 50-10t40.5-27.5q17.5-17.5 27.5-40.5t10-50V256q0-68 34-128H512q-27 0-50 10t-40.5 27.5Q404 183 394 206t-10 50v1280h1024q26 0 45 19t19 45q0 26-19 45t-45 19q-25 0-49 9.5t-42 27.5q-18 18-27.5 42t-9.5 49q0 27 10 50t27.5 40.5q17.5 17.5 40.5 27.5t50 10m384-1536q27 0 50-10t40.5-27.5Q1900 329 1910 306t10-50q0-27-10-50t-27.5-40.5Q1865 148 1842 138t-50-10q-27 0-50 10t-40.5 27.5Q1684 183 1674 206t-10 50v128h128m-1280 0h896v128H512V384m0 256h896v128H512V640m0 256h896v128H512V896m0 256h896v128H512v-128z"/></svg>