<svg xmlns="http://www.w3.org/2000/svg" viewBox="0 0 2048 2048"><path d="M2048 256v384h-128V384H128v1152h896v128H0V256h2048m-512 384q106 0 199.5 40t163 109.5q69.5 69.5 109.5 163t40 199.5q0 106-38.5 195.5T1899 1513l-32 34q-12 13-25 29.5t-23.5 35.5q-10.5 19-17 38.5t-6.5 37.5v168q0 41-15.5 76.5T1738 1994q-26 26-62 41.5t-76 15.5h-128q-41 0-76.5-15.5T1334 1994q-26-26-41.5-61.5T1277 1856v-168q-1-25-11-49t-25-46q-15-22-33.5-42t-34.5-38q-72-76-110.5-165.5T1024 1152q0-106 40-199.5t109.5-163q69.5-69.5 163-109.5t199.5-40m125 1155h-250v61q0 25 18 43t43 18h128q25 0 43-18t18-43v-61m9-134q10-57 32-98.5t50-76q28-34.5 57.5-66t54-69q24.5-37.5 40.5-85t16-114.5q0-80-30-150t-82-122q-52-52-122-82t-150-30q-80 0-150 30t-122 82q-52 52-82 122t-30 150q0 76 29 147.5t83 127.5q27 27 49.5 52.5t40 52.5q17.5 27 29.5 58.5t19 70.5h268z"/></svg>