<svg xmlns="http://www.w3.org/2000/svg" viewBox="0 0 2048 2048"><path d="M1849 1127q64 77 99.5 160t35.5 185q0 106-40.5 199t-110 162.5q-69.5 69.5-162.5 110t-199 40.5q-102 0-185-35.5t-160-99.5q-26 4-51.5 5.5t-51.5 1.5q-115 0-221-30t-198.5-84Q512 1688 436 1612t-130-168.5q-54-92.5-84-198.5t-30-221q0-26 1.5-51.5T199 921q-64-77-99.5-160T64 576q0-106 40.5-199t110-162.5Q284 145 377 104.5T576 64q102 0 185 35.5T921 199q26-4 51.5-5.5t51.5-1.5q115 0 221 30t198.5 84q92.5 54 168.5 130t130 168.5q54 92.5 84 198.5t30 221q0 26-1.5 51.5t-5.5 51.5z"/></svg>