<svg xmlns="http://www.w3.org/2000/svg" viewBox="0 0 2048 2048"><path d="M1024 128q123 0 237.5 32t214 90.5Q1575 309 1657 391t140.5 181.5q58.5 99.5 90.5 214t32 237.5q0 123-32 237.5t-90.5 214Q1739 1575 1657 1657t-181.5 140.5q-99.5 58.5-214 90.5t-237.5 32q-123 0-237.5-32t-214-90.5Q473 1739 391 1657t-140.5-181.5Q192 1376 160 1262t-32-238q0-123 32-237.5t90.5-214Q309 473 391 391t181.5-140.5Q672 192 786 160t238-32m128 402q84 22 154.5 69T1428 711.5q51 65.5 79.5 145.5t28.5 167h256q0-140-48-267t-133.5-228q-85.5-101-203-169.5T1152 267v263m256 494q0-79-30-149t-82.5-122.5Q1243 700 1173 670t-149-30q-80 0-149.5 30t-122 82.5Q700 805 670 875t-30 149q0 80 30 149.5t82.5 122q52.5 52.5 122 82.5t149.5 30q79 0 149-30t122.5-82.5q52.5-52.5 82.5-122t30-149.5m-384 768q140 0 267-48t228-133.5q101-85.5 169.5-203T1781 1152h-263q-22 84-69 154.5T1336.5 1428q-65.5 51-145.5 79.5t-167 28.5q-106 0-199-40.5t-162.5-110Q593 1316 552.5 1223T512 1024q0-106 40.5-199t110-162.5Q732 593 825 552.5t199-40.5V256q-106 0-204 27.5T636.5 361Q551 411 481 481T361 636.5Q311 722 283.5 820T256 1024q0 106 27.5 204t77.5 183.5q50 85.5 120 155.5t155.5 120q85.5 50 183.5 77.5t204 27.5z"/></svg>