<svg xmlns="http://www.w3.org/2000/svg" viewBox="0 0 2048 2048"><path d="M125 716q0 106 33.5 191t94 144.5Q313 1111 399 1143t191 32q74 0 147-12.5t140-44.5v108q-72 30-150 40.5T572 1277q-126 0-231-39t-181-111q-76-72-118-175T0 721q0-129 44-238t122.5-187.5q78.5-78.5 187-123T591 128q115 0 217 34.5T986.5 262q76.5 65 121 160t44.5 216q0 33-4 65.5t-12 64.5h-112v186q-74 63-169 63-76 0-119-35.5T690 867q-24 72-72 111t-125 39q-55 0-94.5-22t-65-58.5Q308 900 296 853.5T284 758q0-65 17-130t52-117.5q35-52.5 89-85.5t128-33q21 0 43 6t41 18q19 12 33.5 29t21.5 39l11-81h116l-23 259q-2 29-6 58.5t-4 58.5q0 18 2 42t9 45.5q7 21.5 21.5 36.5t39.5 15q46 0 75.5-30.5t46.5-74q17-43.5 23.5-91t6.5-82.5q0-99-33-176t-92-129q-59-52-139.5-79T586 229q-104 0-189 38.5T251.5 372Q191 438 158 526.5T125 716m403 202q34 0 59.5-14.5t44-38Q650 842 662 812t19-62q7-32 10-63.5t3-57.5q0-29-5.5-54T670 531.5q-13-18.5-34.5-29T582 492q-49 0-81.5 26.5t-52.5 66Q428 624 419.5 670t-8.5 85q0 28 6 57t19.5 52.5q13.5 23.5 36 38.5t55.5 15m1435 945q14 28 14 57 0 26-10 49.5t-27.5 41q-17.5 17.5-41 27.5t-49.5 10h-754q-26 0-49.5-10t-41-27.5q-17.5-17.5-27.5-41t-10-49.5q0-29 14-57l299-598v-241h-128V896h640v128h-128v241l299 598m-242-199l-185-369v-271h-128v271l-185 369h498z"/></svg>