<svg xmlns="http://www.w3.org/2000/svg" viewBox="0 0 2048 2048"><path d="M168 1664h856v128H0V384q0-27 10-50t27.5-40.5Q55 276 78 266t50-10h352q45 0 77.5 9.5t58 23.5q25.5 14 45.5 31t40.5 31q20.5 14 44 23.5T800 384h736q26 0 49.5 10t41 27.5q17.5 17.5 27.5 41t10 49.5v256h256q26 0 49.5 10t41 27.5Q2028 823 2038 846t10 49q0 30-14 58l-99 199h-143l128-256H552l-384 768m-40-207l309-618q17-33 47.5-52t67.5-19h984V512H800q-45 0-77.5-9.5t-58-23.5Q639 465 619 448t-40.5-31q-20.5-14-44-23.5T480 384H128v1073m1792-49h128v640h-128v-640m-256-128h128v768h-128v-768m-256 256h128v512h-128v-512m-256 256h128v256h-128v-256z"/></svg>