<svg xmlns="http://www.w3.org/2000/svg" viewBox="0 0 2048 2048"><path d="M0 224L1152 0v2048L0 1824V224m177 1284l201 11V928q0-9-.5-18.5T377 891l366 648 232 13V495l-225 13v639L395 528l-218 12v968M1952 256q16 0 33.5 5t31 15q13.5 10 22.5 24t9 33v230q0 19-9 33.5t-22.5 24q-13.5 9.5-31 14.5t-33.5 5h-160v1152q0 26-10 49.5t-27.5 41q-17.5 17.5-41 27.5t-49.5 10h-384v-384h256v-128h-256v-128h256v-128h-256v-128h256V896h-256V768h256V640h-256V512h256V384h-256V128h384q26 0 49.5 10t41 27.5q17.5 17.5 27.5 41t10 49.5h160m0 512q16 0 33.5 5t31 15q13.5 10 22.5 24t9 33v230q0 19-9 33.5t-22.5 24q-13.5 9.5-31 14.5t-33.5 5h-32V768h32m0 512q16 0 33.5 5t31 15q13.5 10 22.5 24t9 33v230q0 19-9 33.5t-22.5 24q-13.5 9.5-31 14.5t-33.5 5h-32v-384h32z"/></svg>