<svg xmlns="http://www.w3.org/2000/svg" viewBox="0 0 2048 2048"><path d="M1919 1249q61 55 95 129.5t34 157.5q0 80-30 149.5t-82.5 122Q1883 1860 1813 1890t-149 30q-88 0-167-38-105 38-217 38-45 0-89.5-6.5T1102 1895q-51 13-102.5 19t-103.5 6q-124 0-238.5-32t-214-90.5q-99.5-58.5-181-140t-140-181Q64 1377 32 1262.5T0 1024q0-124 32-238.5t90.5-214q58.5-99.5 140-181t181-140Q543 192 657.5 160T896 128q110 0 213 25.5t195.5 73.5q92.5 48 171.5 115t140.5 151q61.5 84 103.5 181.5t60 205.5q63 79 98.5 173.5T1919 1249M128 1024q0 106 27.5 204t77.5 183.5q50 85.5 120 155.5t155.5 120q85.5 50 183.5 77.5t204 27.5q-61-46-108.5-103T707 1566.5q-33-65.5-50-138T640 1280q0-133 50-249.5T827 827q87-87 203.5-137t249.5-50q86 0 168 22t156 66q-45-106-118-193.5t-165.5-149Q1228 324 1120 290t-224-34q-106 0-204 27.5T508.5 361Q423 411 353 481T233 636.5Q183 722 155.5 820T128 1024m640 256q0 106 40.5 199t110 162.5q69.5 69.5 162.5 110t199 40.5q23 0 45.5-2t45.5-6q-45-52-68-116t-23-132q0-79 30-149t82.5-122.5q52.5-52.5 122-82.5t149.5-30q60 0 116 18-19-88-66-162t-113.5-127q-66.5-53-148.5-83t-172-30q-106 0-199 40.5t-162.5 110Q849 988 808.5 1081T768 1280m896 512q53 0 99.5-20t81.5-55q35-35 55-81.5t20-99.5q0-53-20-99.5t-55-81.5q-35-35-81.5-55t-99.5-20q-53 0-99.5 20t-81.5 55q-35 35-55 81.5t-20 99.5q0 53 20 99.5t55 81.5q35 35 81.5 55t99.5 20z"/></svg>