<svg xmlns="http://www.w3.org/2000/svg" viewBox="0 0 2048 2048"><path d="M1216 640q26 0 45 19t19 45q0 26-19 45t-45 19h-192v1017q33-3 65-11.5t63-19.5v136q-47 14-95 22t-97 8q-91 0-176-22.5T624 1834q-75-41-138.5-99t-111-129q-47.5-71-77.5-153.5T259 1280H128l192-256 192 256H391q11 100 54 187t110 154q67 67 154 110t187 54V768H704q-26 0-45-19t-19-45q0-26 19-45t45-19h192V500q-29-10-52.5-28t-40-41.5q-16.5-23.5-26-52T768 320q0-40 15-75t41-61q26-26 61-41t75-15q40 0 75 15t61 41q26 26 41 61t15 75q0 30-9.5 58.5t-26 52Q1100 454 1076 472t-52 28v140h192M960 384q26 0 45-19t19-45q0-26-19-45t-45-19q-26 0-45 19t-19 45q0 26 19 45t45 19m1088 1024v640h-768v-640h128v-128q0-53 20-99.5t55-81.5q35-35 81.5-55t99.5-20q53 0 99.5 20t81.5 55q35 35 55 81.5t20 99.5v128h128m-512 0h256v-128q0-27-10-50t-27.5-40.5Q1737 1172 1714 1162t-50-10q-27 0-50 10t-40.5 27.5Q1556 1207 1546 1230t-10 50v128m384 128h-512v384h512v-384z"/></svg>