<svg xmlns="http://www.w3.org/2000/svg" viewBox="0 0 2048 2048"><path d="M0 0h128v128H0V0m384 0h128v128H384V0m384 0h128v128H768V0m384 0h128v128h-128V0m384 0h128v128h-128V0m512 0v128h-128V0h128M0 1920h128v128H0v-128m384 0h128v128H384v-128m384 0h128v128H768v-128m384 0h128v128h-128v-128m384 0h128v128h-128v-128M0 1536h128v128H0v-128m0-384h128v128H0v-128m0-384h128v128H0V768m0-384h128v128H0V384m1920 1152h128v128h-128v-128m0-384h128v128h-128v-128m0-384h128v128h-128V768m0-384h128v128h-128V384m0 1536h128v128h-128v-128z"/></svg>