<svg xmlns="http://www.w3.org/2000/svg" viewBox="0 0 2048 2048"><path d="M1024 0q141 0 272 36.5T1540.5 140q113.5 67 207 160.5t160.5 207Q1975 621 2011.5 752t36.5 272q0 141-36.5 272T1908 1540.5q-67 113.5-160.5 207t-207 160.5q-113.5 67-244.5 103.5t-272 36.5q-141 0-272-36.5T507.5 1908q-113.5-67-207-160.5t-160.5-207Q73 1427 36.5 1296T0 1024q0-141 36.5-272T140 507.5q67-113.5 160.5-207t207-160.5Q621 73 752 36.5T1024 0M640 608q-33 0-62 12.5T527 655q-22 22-34.5 51T480 768q0 33 12.5 62t34.5 51q22 22 51 34.5t62 12.5q33 0 62-12.5t51-34.5q22-22 34.5-51t12.5-62q0-33-12.5-62T753 655q-22-22-51-34.5T640 608m904 876q-50-55-109-99t-125.5-74.5Q1243 1280 1171 1264t-147-16q-75 0-147 16t-138.5 46.5q-66.5 30.5-126 74.5T504 1484l144 127q72-81 169.5-126t206.5-45q109 0 206.5 45t169.5 126l144-127m-136-556q33 0 62-12.5t51-34.5q22-22 34.5-51t12.5-62q0-33-12.5-62t-34.5-51q-22-22-51-34.5t-62-12.5q-33 0-62 12.5t-51 34.5q-22 22-34.5 51t-12.5 62q0 33 12.5 62t34.5 51q22 22 51 34.5t62 12.5z"/></svg>