<svg xmlns="http://www.w3.org/2000/svg" viewBox="0 0 2048 2048"><path d="M1920 384v128H0V384h1920M128 896H0V768h128v128m256 0H256V768h128v128m128-128h128v128H512V768m384 128H768V768h128v128m256 0h-128V768h128v128m128-128h128v128h-128V768m384 128h-128V768h128v128m128-128h128v128h-128V768M256 1280H0v-128h256v128m128-128h256v128H384v-128m384 0h256v128H768v-128m384 0h256v128h-256v-128m384 0h256v128h-256v-128M0 1536h384v128H0v-128m512 0h128v128H512v-128m256 0h384v128H768v-128m768 0h384v128h-384v-128m-256 0h128v128h-128v-128z"/></svg>