<svg xmlns="http://www.w3.org/2000/svg" viewBox="0 0 2048 2048"><path d="M1920 256q26 0 45 19t19 45v1408q0 26-19 45t-45 19h-704v200L64 1791V263L1216 56v200h704M604 1425q57 0 102.5-18t80-48.5q34.5-30.5 59-72T886 1198q16-47 23-97t7-98q0-76-13-147.5t-46.5-127q-33.5-55.5-91-89T620 606q-61 0-122.5 7.5T376 626v783q57 5 114 10.5t114 5.5m868-17h-256v320h256v-320m0-1088h-256v1024h256V320m448 448h-384v960h384V768m0-448h-384v384h384V320M503 762q19-2 37.5-3t38.5-1q52 0 87 22.5t56 58q21 35.5 30 79.5t9 88q0 43-8.5 90.5t-29.5 87q-21 39.5-56 65t-89 25.5q-19 0-37.5-.5T503 1272V762z"/></svg>