<svg xmlns="http://www.w3.org/2000/svg" viewBox="0 0 2048 2048"><path d="M0 1824V224L1152 0v2048L0 1824M177 540v968l201 11q0-158-.5-314t-.5-314l366 648 232 13V495l-225 13v639q-1-2-3.5-6.5t-13.5-23q-11-18.5-32.5-56.5T640 955q-39-68-99-172T395 528l-218 12m1775 228q16 0 33.5 5t31 15q13.5 10 22.5 24t9 33v230q0 19-9 33.5t-22.5 24q-13.5 9.5-31 14.5t-33.5 5h-32V768h32m0 512q16 0 33.5 5t31 15q13.5 10 22.5 24t9 33v230q0 19-9 33.5t-22.5 24q-13.5 9.5-31 14.5t-33.5 5h-32v-384h32m-416-768v128h-128V512h128m512-179v230q0 19-9 33.5t-22.5 24q-13.5 9.5-31 14.5t-33.5 5h-160v1152q0 26-10 49.5t-27.5 41q-17.5 17.5-41 27.5t-49.5 10h-384v-384h256v-128h-256v-128h256v-128h-256V576q0 30 9.5 58.5t26 52q16.5 23.5 40 41.5t52.5 28v268h128V756q28-10 52-28t40.5-41.5q16.5-23.5 26-52t9.5-58.5q0-40-15-75t-41-61q-26-26-61-41t-75-15q-40 0-75 15t-61 41q-26 26-41 61t-15 75V128h384q26 0 49.5 10t41 27.5q17.5 17.5 27.5 41t10 49.5h160q16 0 33.5 5t31 15q13.5 10 22.5 24t9 33z"/></svg>