<svg xmlns="http://www.w3.org/2000/svg" viewBox="0 0 2048 2048"><path d="M2048 768q0 17-5.5 33.5T2028 832q9 14 14.5 30.5t5.5 33.5v256q0 17-5.5 33.5T2028 1216q9 14 14.5 30.5t5.5 33.5v384q0 27-10 50t-27.5 40.5Q1993 1772 1970 1782t-50 10h-128q0 27-10 50t-27.5 40.5Q1737 1900 1714 1910t-50 10h-384v128L0 1824V224L1280 0v128h384q27 0 50 10t40.5 27.5Q1772 183 1782 206t10 50h128q27 0 50 10t40.5 27.5Q2028 311 2038 334t10 50v384M1039 495l-226 13v616q0 6 .5 11.5t.5 11.5q-4-5-7-11l-6-12-342-596-219 12v968l201 11V926v-17.5q0-8.5-1-17.5l366 648 233 13V495m881 785h-128v384h128v-384m0-384h-128v256h128V896m0-512h-256V256h-384v128h256v128h-256v128h256v128h-256v128h256v128h-256v128h256v128h-256v128h256v128h-256v256h384V768h256V384z"/></svg>