<svg xmlns="http://www.w3.org/2000/svg" viewBox="0 0 2048 2048"><path d="M1760 256q60 0 112.5 22.5T1964 340q39 39 61.5 91.5T2048 544v768q0 60-22.5 112.5T1964 1516q-39 39-91.5 61.5T1760 1600h-672v-128h672q33 0 62-12.5t51-34.5q22-22 34.5-51t12.5-62V544q0-33-12.5-62t-34.5-51q-22-22-51-34.5t-62-12.5H288q-33 0-62 12.5T175 431q-22 22-34.5 51T128 544v672H0V544q0-60 22.5-112.5T84 340q39-39 91.5-61.5T288 256h1472m-626 896q-19 0-32.5-13.5T1088 1106V960H973l-225 620q-10 28-27 45t-38 26q-21 9-45.5 12t-49.5 3q-20 0-39-1t-37-1v96q0 40-28 68t-68 28H96q-40 0-68-28t-28-68v-320q0-40 28-68t68-28h320q40 0 68 28t28 68v96h115l226-620q10-28 26.5-45t37.5-26q21-9 45-12t49-3q20 0 39 1t38 1V686q0-19 13.5-32.5T1134 640h420q19 0 32.5 13.5T1600 686v420q0 19-13.5 32.5T1554 1152h-420m-750 320H128v256h256v-256z"/></svg>