<svg xmlns="http://www.w3.org/2000/svg" viewBox="0 0 2048 2048"><path d="M384 1600q0 19 13 35.5t27 27.5q46 38 114.5 63t143 39.5q74.5 14.5 148 20.5t130.5 6q81 0 161-8.5t159-27.5v130q-79 18-159 26t-161 8q-61 0-121.5-4.5T718 1901q-38-6-86.5-17t-100-28q-51.5-17-101-40.5t-88-55Q304 1729 280 1689t-24-89V448q0-49 24-89t62.5-71.5q38.5-31.5 88-55t101-40.5q51.5-17 100-28t86.5-17q60-10 120.5-14.5T960 128q61 0 121.5 4.5T1202 147q37 6 86 17t100.5 28q51.5 17 101 40.5t88 55Q1616 319 1640 359t24 89v320h-128V637q-58 37-130 62t-148.5 40.5q-76.5 15.5-153 22T960 768q-68 0-144.5-6.5t-153-22Q586 724 514 699t-130-62v963M960 256q-57 0-130.5 6t-148 20.5Q607 297 538.5 322T424 385q-14 11-27 27.5T384 448q0 19 13 35.5t27 27.5q46 38 114.5 63t143 39.5Q756 628 829.5 634t130.5 6q57 0 130.5-6t148-20.5Q1313 599 1381 574t114-63q14-11 27.5-27.5T1536 448q0-19-13.5-35.5T1495 385q-46-38-114-63t-142.5-39.5q-74.5-14.5-148-20.5T960 256m1088 1024q0 82-34 156.5t-94 129.5v457l-256-128-256 128v-457q-60-55-94-129.5t-34-156.5q0-79 30-149t82.5-122.5q52.5-52.5 122-82.5t149.5-30q79 0 149 30t122.5 82.5Q1988 1061 2018 1131t30 149m-256 362q-64 22-128 22t-128-22v174l128-64 128 64v-174m-128-106q53 0 99.5-20t81.5-55q35-35 55-81.5t20-99.5q0-53-20-99.5t-55-81.5q-35-35-81.5-55t-99.5-20q-53 0-99.5 20t-81.5 55q-35 35-55 81.5t-20 99.5q0 53 20 99.5t55 81.5q35 35 81.5 55t99.5 20z"/></svg>