<svg xmlns="http://www.w3.org/2000/svg" viewBox="0 0 2048 2048"><path d="M1792 832q-40 0-75-15t-61-41q-26-26-41-61t-15-75q0-40 15-75t41-61q26-26 61-41t75-15q40 0 75 15t61 41q26 26 41 61t15 75q0 40-15 75t-41 61q-26 26-61 41t-75 15m0-384q40 0 75 15t61 41q26 26 41 61t15 75q0 40-15 75t-41 61q-26 26-61 41t-75 15q-40 0-75-15t-61-41q-26-26-41-61t-15-75q0-40 15-75t41-61q26-26 61-41t75-15m-512 256q-40 0-75-15t-61-41q-26-26-41-61t-15-75q0-40 15-75t41-61q26-26 61-41t75-15q40 0 75 15t61 41q26 26 41 61t15 75q0 40-15 75t-41 61q-26 26-61 41t-75 15m0-384q40 0 75 15t61 41q26 26 41 61t15 75q0 40-15 75t-41 61q-26 26-61 41t-75 15q-40 0-75-15t-61-41q-26-26-41-61t-15-75q0-40 15-75t41-61q26-26 61-41t75-15m320 768h384v64q0 41-10.5 90t-30 98.5q-19.5 49.5-48 96.5t-64 83q-35.5 36-78 58t-89.5 22h-64v-192q0 66-25 124.5t-68.5 102q-43.5 43.5-102 68.5t-124.5 25q-66 0-124.5-25t-102-68.5q-43.5-43.5-68.5-102T960 1408V960h640v128m0 0h384v64q0 41-10.5 90t-30 98.5q-19.5 49.5-48 96.5t-64 83q-35.5 36-78 58t-89.5 22h-64v-192q0 66-25 124.5t-68.5 102q-43.5 43.5-102 68.5t-124.5 25q-66 0-124.5-25t-102-68.5q-43.5-43.5-68.5-102T960 1408V960h640v128M133 509l822-56v340l-263 12v808l-328-17V820l-231 9V509m822 284l-263 12v808l-328-17V820l-231 9V509l822-56v340z"/></svg>