<svg xmlns="http://www.w3.org/2000/svg" viewBox="0 0 2048 2048"><path d="M1216 968q91 10 165 45t126 91.5q52 56.5 80.5 133T1616 1406q0 123-48 219t-128 161.5q-80 65.5-185.5 99.5t-220.5 34H512V128h510q96 0 186.5 23.5t161 73.5q70.5 50 113.5 127.5t43 185.5q0 75-21 142.5t-61 123q-40 55.5-97.5 96.5T1216 962v6m-494-72h214q77 0 144.5-18t117.5-56q50-38 79-98t29-144q0-78-28-128.5t-75.5-80.5q-47.5-30-109.5-41.5T964 318H722v578m284 834q79 0 149.5-18.5t124-58q53.5-39.5 85-102T1396 1402q0-97-37-158.5t-98-96.5q-61-35-139-48t-160-13H722v644h284z"/></svg>