<svg xmlns="http://www.w3.org/2000/svg" viewBox="0 0 2048 2048"><path d="M1920 896q0 59-3 114t-11.5 109q-8.5 54-23 107.5T1845 1334q-57 134-148 242t-206.5 184.5q-115.5 76.5-250.5 118T960 1920q-133 0-255.5-34T475 1789.5q-107-62.5-194.5-150t-150-194.5Q68 1338 34 1215.5T0 960q0-133 34-255.5T130.5 475q62.5-107 150-194.5t194.5-150Q582 68 704.5 34T960 0h64v896h896m-960 896q108 0 209.5-27t191-76q89.5-49 165-119t131.5-155q56-85 90.5-184t42.5-207H896V130q-108 8-207 42.5T505 263q-85 56-155 131.5t-119 165q-49 89.5-76 191T128 960q0 115 30 221t84 198.5q54 92.5 130 168.5t168.5 130q92.5 54 198.5 84t221 30z"/></svg>