<svg xmlns="http://www.w3.org/2000/svg" viewBox="0 0 2048 2048"><path d="M1487 768q-59 20-111.5 52t-96.5 76h-255V768h463m-367 512q0 32 4.5 64t12.5 64h-113v-128h96m928-768v383q-28-28-60.5-50.5T1920 803V640h-128v113q-32-8-64-12.5t-64-4.5V384H128v1031q0 25 9.5 47t26 38.5q16.5 16.5 38.5 26t47 9.5h842l-128 128H249q-51 0-96.5-19.5T73 1591q-34-34-53.5-79.5T0 1415V256h1792v256h256m-512 128H256V512h1280v128M256 768h640v640H256V768m128 512h384V896H384v384m640-256h128v79q-9 25-15 49h-113v-128m640-128q79 0 149 30t122.5 82.5Q1988 1061 2018 1131t30 149q0 80-30 149.5t-82.5 122Q1883 1604 1813 1634t-149 30q-60 0-116.5-18.5T1442 1592l-437 437q-19 19-45 19t-45-19q-19-19-19-45t19-45l437-437q-35-49-53.5-105.5T1280 1280q0-79 30-149t82.5-122.5q52.5-52.5 122-82.5t149.5-30m0 640q53 0 99.5-20t81.5-55q35-35 55-81.5t20-99.5q0-53-20-99.5t-55-81.5q-35-35-81.5-55t-99.5-20q-53 0-99.5 20t-81.5 55q-35 35-55 81.5t-20 99.5q0 53 20 99.5t55 81.5q35 35 81.5 55t99.5 20z"/></svg>