<svg xmlns="http://www.w3.org/2000/svg" viewBox="0 0 2048 2048"><path d="M704 256q97 0 187 25t168.5 71q78.5 46 142.5 110t110 142.5q46 78.5 71 168.5t25 187q0 97-25 187t-71 168.5q-46 78.5-110 142.5t-142.5 110q-78.5 46-168.5 71t-187 25q-97 0-187-25t-168.5-71Q270 1522 206 1458T96 1315.5Q50 1237 25 1147T0 960q0-97 25-187t71-168.5Q142 526 206 462t142.5-110Q427 306 517 281t187-25m0 1280q119 0 224-45.5t183-123.5q78-78 123.5-183t45.5-224q0-119-45.5-224T1111 553q-78-78-183-123.5T704 384q-119 0-224 45.5T297 553q-78 78-123.5 183T128 960q0 119 45.5 224T297 1367q78 78 183 123.5t224 45.5m960-640h384v128h-384V896m384-384v128h-512V512h512m-384 768h384v128h-384v-128m-1024 0h128v128H640v-128m64-768q53 0 99.5 20t81.5 55q35 35 55 81.5t20 99.5H832q0-27-10-50t-27.5-40.5Q777 660 754 650t-50-10q-27 0-50 10t-40.5 27.5Q596 695 586 718t-10 50q0 29 14 52t35.5 45q21.5 22 46.5 44.5t46.5 50.5q21.5 28 35.5 63t14 81v48H640v-34q0-25-5-47t-25-42q-30-30-59-57.5T499 914q-23-30-37-65t-14-81q0-53 20-99.5t55-81.5q35-35 81.5-55t99.5-20z"/></svg>