<svg xmlns="http://www.w3.org/2000/svg" viewBox="0 0 2048 2048"><path d="M256 1792h512v128H128V256h512q0-53 20-99.5T715 75q35-35 81.5-55T896 0q53 0 99.5 20t81.5 55q35 35 55 81.5t20 99.5h512v640h-128V384h-128v256H384V384H256v1408M512 384v128h768V384h-256V256q0-27-10-50t-27.5-40.5Q969 148 946 138t-50-10q-27 0-50 10t-40.5 27.5Q788 183 778 206t-10 50v128H512m525 941l-210 211 210 211-90 90-301-301 301-301 90 90m1005 211l-301 301-90-90 210-211-210-211 90-90 301 301m-549-512h128l-341 1024h-128l341-1024z"/></svg>