<svg xmlns="http://www.w3.org/2000/svg" viewBox="0 0 2048 2048"><path d="M1130 980q90 9 163.5 42.5t126 88.5q52.5 55 81.5 129.5t29 167.5q0 119-40 214t-111.5 161q-71.5 66-170 101.5T994 1920H512V128h472q96 0 180 26.5t146 78.5q62 52 98 129.5t36 179.5q0 78-21 147t-61.5 124.5q-40.5 55.5-98.5 97T1130 976v4m-494-44h250q87 0 165-22.5t137-69q59-46.5 93.5-116T1316 564q0-91-28.5-153t-79.5-99.5q-51-37.5-121-53.5t-153-16H636v694m332 872q96 0 176-22.5t137.5-70.5q57.5-48 90-121.5T1404 1418q0-112-43-184t-114-113q-71-41-161.5-57T900 1048H636v760h332z"/></svg>