<svg xmlns="http://www.w3.org/2000/svg" viewBox="0 0 2048 2048"><path d="M868 1461q65 33 117.5 81.5t89.5 108q37 59.5 57 128t20 141.5h-128q0-79-30-149t-82.5-122.5Q859 1596 789 1566t-149-30q-80 0-149.5 30t-122 82.5Q316 1701 286 1771t-30 149H128q0-73 20-141.5t57-128q37-59.5 89.5-108T412 1461q-74-55-115-136t-41-173q0-79 30-149t82.5-122.5Q421 828 490.5 798T640 768q92 0 173 41t136 115q38-75 97-134t134-97q-74-55-115-136t-41-173q0-79 30-149t82.5-122.5Q1189 60 1258.5 30T1408 0q79 0 149 30t122.5 82.5Q1732 165 1762 235t30 149q0 92-41 173t-115 136q65 33 117.5 81.5t89.5 108q37 59.5 57 128t20 141.5h-128q0-79-30-149t-82.5-122.5Q1627 828 1557 798t-149-30q-80 0-149.5 30t-122 82.5Q1084 933 1054 1003t-30 149q0 92-41 173t-115 136m284-1077q0 53 20 99.5t55 81.5q35 35 81.5 55t99.5 20q53 0 99.5-20t81.5-55q35-35 55-81.5t20-99.5q0-53-20-99.5t-55-81.5q-35-35-81.5-55t-99.5-20q-53 0-99.5 20t-81.5 55q-35 35-55 81.5t-20 99.5m-768 768q0 53 20 99.5t55 81.5q35 35 81.5 55t99.5 20q53 0 99.5-20t81.5-55q35-35 55-81.5t20-99.5q0-53-20-99.5T821 971q-35-35-81.5-55T640 896q-53 0-99.5 20T459 971q-35 35-55 81.5t-20 99.5m1504 896l-288-225-288 225 116-360-276-216h345l103-320 103 320h345l-276 216 116 360z"/></svg>