<svg xmlns="http://www.w3.org/2000/svg" viewBox="0 0 2048 2048"><path d="M154 384h888v136H673v1144H523V520H154V384m1144 318q0 46 17.5 81t52.5 64q44 36 96 62.5t103 51.5q57 29 115.5 63t106 78q47.5 44 77 100t29.5 129q0 96-38.5 160T1756 1593.5q-62 38.5-141.5 54.5t-160.5 16q-31 0-73.5-5t-86.5-14q-44-9-84-22t-66-30v-171q29 26 70 46.5t87 35q46 14.5 92 22.5t84 8q49 0 96.5-8t85-30q37.5-22 61-59t23.5-96q0-52-25.5-91.5T1650 1178q-42-32-96-59.5t-109.5-55.5q-55.5-28-109.5-60t-96-72.5q-42-40.5-67.5-93T1146 715q0-88 38.5-150.5t100-102.5q61.5-40 138.5-59t153-19q30 0 65.5 1.5t71 6q35.5 4.5 69 13.5t61.5 23v163q-62-42-134.5-59T1562 515q-44 0-90.5 9.5t-85 31Q1348 577 1323 613t-25 89z"/></svg>