<svg xmlns="http://www.w3.org/2000/svg" viewBox="0 0 2048 2048"><path d="M1920 320q26 0 45 19t19 45v1280q0 26-19 45t-45 19h-704v264L64 1791V263L1216 56v264h704m-704 448v320h77q40 0 63 3t34.5 15q11.5 12 14.5 35.5t3 63.5v75h128V950q-3-2-17.5-15.5t-34-32.5q-19.5-19-41.5-41t-41-41.5q-19-19.5-32.5-34T1354 768h-138m510-32l-158-158-158 158 158 158 158-158m-510 736h128v-320h-128v320M905 641H747q-29 140-57 279t-59 279q-35-138-70.5-273.5T489 656H331l220 759h164l190-774m1015-257h-704v320h138q4-6 16.5-19.5t29-30.5q16.5-17 36-36t37-36q17.5-17 32-31t22.5-22q17-17 41-17t41 17l166 166q17 17 17 41t-17 41q-7 8-21.5 22.5t-31.5 32q-17 17.5-36 37t-36 36q-17 16.5-30.5 29T1600 950v330q0 26-19 45t-45 19h-128v77q0 40-3 63t-15 34.5q-12 11.5-35.5 14.5t-63.5 3h-75v128h704V384z"/></svg>