<svg xmlns="http://www.w3.org/2000/svg" viewBox="0 0 2048 2048"><path d="M1920 256q26 0 49.5 10t41 27.5q17.5 17.5 27.5 41t10 49.5v1280q0 26-10 49.5t-27.5 41q-17.5 17.5-41 27.5t-49.5 10h-640v-256h512v-128h-512v-144q30 13 62.5 21t65.5 8q79 0 151-32.5t127-87q55-54.5 87-127t32-153.5h-397V499q-33 0-65.5 8t-62.5 21V256h640m13 512q0-79-32-151t-87-127q-55-55-127-87t-151-32v397h397M662 847q0 74-34 111.5T519 996h-60V711q15-1 30.5-2t30.5-1q74 0 108 32t34 107M0 224L1152 0v2048L0 1824V224m239 1316l220 13v-351q17 0 34 .5t34 .5q23 0 44.5-1t44.5-4q70-10 125-42.5t93.5-81Q873 1026 893 964t20-130q0-80-20-143t-60.5-106.5Q792 541 731 518.5T588 496h-17q-9 0-18 1l-314 18v1025z"/></svg>