<svg xmlns="http://www.w3.org/2000/svg" viewBox="0 0 2048 2048"><path d="M140 562q-32-31-58-60.5T38 440q-18-32-28-69.5T0 286q0-61 23-113.5t63-91q40-38.5 93.5-60T294 0q47 0 83.5 10T445 38q31 18 59.5 44t59.5 57L140 562m1908 1484l-753-333-69-68q5-27 8-54t3-55q0-150-57-282t-155.5-230.5Q926 925 794 868t-282-57q-28 0-55.5 3t-55.5 8L292 712l422-422 986 997 348 759M512 1024q106 0 199.5 40t163 109.5q69.5 69.5 109.5 163t40 199.5q0 106-40 199.5t-109.5 163Q805 1968 711.5 2008T512 2048q-106 0-199.5-40t-163-109.5Q80 1829 40 1735.5T0 1536q0-106 40-199.5t109.5-163q69.5-69.5 163-109.5t199.5-40m341 512q0-70-27-132.5T753 1295q-46-46-108.5-73T512 1195q-94 0-173 47l467 467q47-79 47-173m-682 0q0 71 27 133t73 108q46 46 108 73t133 27q94 0 173-47l-467-467q-47 79-47 173z"/></svg>