<svg xmlns="http://www.w3.org/2000/svg" viewBox="0 0 2048 2048"><path d="M29 1075q-29 64-29 133v72q0 38 10.5 73t30 65q19.5 30 47.5 54.5t62 39.5q15 35 39.5 63t55 47.5q30.5 19.5 66 30.5t73.5 11q69 0 128-34t94-94h708q35 60 94 94t128 34q69 0 128-34t94-94h162q27 0 50-10t40.5-27.5q17.5-17.5 27.5-40.5t10-50v-256q0-79-30-149t-82.5-122.5q-52.5-52.5-122-82.5T1664 768h-37l-328-328q-27-27-62.5-41.5T1163 384H256v128h29L29 1075m1507 461q-27 0-50-10t-40.5-27.5Q1428 1481 1418 1458t-10-50q0-27 10-50t27.5-40.5q17.5-17.5 40.5-27.5t50-10q27 0 50 10t40.5 27.5q17.5 17.5 27.5 40.5t10 50q0 27-10 50t-27.5 40.5Q1609 1516 1586 1526t-50 10M896 512h267q26 0 45 19l237 237H896V512M768 768H309l99-219q8-17 24-27t35-10h301v256m-384 768q-27 0-50-10t-40.5-27.5Q276 1481 266 1458t-10-50q0-27 10-50t27.5-40.5Q311 1300 334 1290t50-10q27 0 50 10t40.5 27.5Q492 1335 502 1358t10 50q0 27-10 50t-27.5 40.5Q457 1516 434 1526t-50 10z"/></svg>