<svg xmlns="http://www.w3.org/2000/svg" viewBox="0 0 2048 2048"><path d="M578 708q74 0 108 32t34 107q0 74-34 111.5T577 996h-60V711q15-1 30.5-2t30.5-1m1406-580q26 0 45 19t19 45v1152q0 26-19 45t-45 19h-192v320q0 26-19 45t-45 19h-448v256L0 1824V224L1280 0v512h128V192q0-26 19-45t45-19h512M517 1202q17 0 34 .5t34 .5q22 0 43.5-1t44.5-4q70-10 125.5-42t93.5-81q38-49 58-110.5T970 834q0-161-79-249.5T646 496h-18q-9 0-18 1l-313 18v1025l220 13v-351m1147-562h-384v128h256v256h-256v128h256v128h-256v128h256v128h-256v128h384V640m256-384h-382q-27 0-32.5 8t-5.5 34l228 214q26 0 45 19t19 45v704h64q26 0 45-19t19-45V256z"/></svg>