<svg xmlns="http://www.w3.org/2000/svg" viewBox="0 0 2048 2048"><path d="M1920 1024v128H791q-11 36-32 65.5t-49.5 50.5q-28.5 21-62.5 32.5t-71 11.5q-47 0-87.5-17.5t-71-48q-30.5-30.5-48-71T352 1088q0-46 17.5-87t48-71.5q30.5-30.5 71-48T576 864q37 0 71 11.5t62.5 32.5q28.5 21 49.5 50.5t32 65.5h1129M576 1472q77 0 147-29t124-84l91 91q-73 73-166 111.5T576 1600q-106 0-199.5-40t-163-109.5Q144 1381 104 1287.5T64 1088q0-106 40-199.5t109.5-163Q283 656 376.5 616T576 576q103 0 196 38.5T938 726l-91 91q-54-55-124-84t-147-29q-79 0-149 30.5T305 817q-52 52-82.5 122T192 1088q0 79 30.5 149t82.5 122q52 52 122 82.5t149 30.5z"/></svg>