<svg xmlns="http://www.w3.org/2000/svg" viewBox="0 0 2048 2048"><path d="M2048 1408v640h-768v-640h128v-128q0-53 20-99.5t55-81.5q35-35 81.5-55t99.5-20q53 0 99.5 20t81.5 55q35 35 55 81.5t20 99.5v128h128m-512 0h256v-128q0-27-10-50t-27.5-40.5Q1737 1172 1714 1162t-50-10q-27 0-50 10t-40.5 27.5Q1556 1207 1546 1230t-10 50v128m384 128h-512v384h512v-384m-384-832q0 58-19.5 110t-54.5 94q-35 42-83 71t-105 39q-11 57-39.5 105t-70.5 83q-42 35-94 54.5T960 1280H576q-32 0-61 10t-53 28q-24 18-42 43.5t-27 55.5q54 13 99.5 42.5t78 70.5q32.5 41 51 92t18.5 106q0 66-25.5 124.5t-69 102Q502 1998 444 2023t-124 25q-66 0-124-25t-101.5-68.5Q51 1911 26 1852.5T1 1728q0-57 19-108.5t52.5-93.5q33.5-42 80.5-71t103-40V633q-56-11-103-40t-80.5-71Q39 480 20 428.5T1 320q0-66 25-124T94.5 94.5Q138 51 196 25.5T320 0q66 0 124 25.5t101.5 69Q589 138 614.5 196T640 320q0 57-19 109t-53 93.5Q534 564 487 593t-103 40v585q42-32 91-49t101-17h384q32 0 61-10t53-28q24-18 42-43.5t27-55.5q-54-13-99.5-42t-78-70.5q-32.5-41.5-51-92T896 704q0-66 25-124t68.5-101.5q43.5-43.5 102-69T1216 384q66 0 124 25.5t101.5 69q43.5 43.5 69 101.5t25.5 124M128 320q0 40 15 75t41 61q26 26 61 41t75 15q40 0 75-15t61-41q26-26 41-61t15-75q0-40-15-75t-41-61q-26-26-61-41t-75-15q-40 0-75 15t-61 41q-26 26-41 61t-15 75m384 1408q0-40-15-75t-41-61q-26-26-61-41t-75-15q-40 0-75 15t-61 41q-26 26-41 61t-15 75q0 40 15 75t41 61q26 26 61 41t75 15q40 0 75-15t61-41q26-26 41-61t15-75m704-832q40 0 75-15t61-41q26-26 41-61t15-75q0-40-15-75t-41-61q-26-26-61-41t-75-15q-40 0-75 15t-61 41q-26 26-41 61t-15 75q0 40 15 75t41 61q26 26 61 41t75 15z"/></svg>