<svg xmlns="http://www.w3.org/2000/svg" viewBox="0 0 2560 2048"><path d="M2560 1024q0 47-18 89.5t-51 75.5l-790 790q-33 33-75.5 51t-90.5 18q-51 0-99-23l944-948q22-22 22-54t-22-54L1438 22q46-21 99-21 46 0 89 17t75 49l790 790q33 33 51 76.5t18 90.5m-510 0q0 46-18 89.5t-50 75.5l-791 790q-33 33-75.5 51t-90.5 18q-47 0-90-18t-76-51L69 1189q-33-33-51-75.5T0 1024q0-47 18-90.5T69 857L859 67q32-32 75.5-49.5T1024 0q47 0 90.5 17t76.5 50l791 790q33 33 50.5 76.5t17.5 90.5m-1025 866q32 0 54-22l791-791q22-22 22-54t-22-54l-791-791q-22-22-54-22t-54 22L789 360l175 175q31-13 61-13 33 0 61.5 12.5t50 34q21.5 21.5 34 50T1183 680q0 30-13 62l184 184q30-15 65-15 33 0 61.5 12t50 33.5q21.5 21.5 34 50t12.5 61.5q0 33-12.5 61.5t-34 50q-21.5 21.5-50 34T1419 1226q-33 0-61.5-12.5t-49.5-34q-21-21.5-33.5-50T1262 1068q0-28 11-56l-186-187-3 1v445q45 18 72 58t27 88q0 33-12.5 61.5t-34 50q-21.5 21.5-50 34T1025 1575q-33 0-61.5-12.5t-50-34q-21.5-21.5-34-50T867 1417q0-48 27-88t72-58V826q-45-18-72-58t-27-88q0-30 13-61L705 444 180 969q-11 11-17 25t-6 29q0 31 23 54l791 791q22 22 54 22z"/></svg>