<svg xmlns="http://www.w3.org/2000/svg" viewBox="0 0 2048 2048"><path d="M64 1791V263L1216 56v1936L64 1791M321 660v706l115 6V854l307 534 154 9V631l-145 8v257q0 128 1 257L467 655l-146 5m1637 172q13 0 19.5 12.5t6.5 23.5v248q0 11-6.5 23.5T1958 1152h-38V832h38m0 384q13 0 19.5 12.5t6.5 23.5v248q0 11-6.5 23.5T1958 1536h-38v-320h38m26-469q0 13-3 17t-17 4h-108v909q0 7-2.5 16t-7 16.5q-4.5 7.5-11 13t-14.5 5.5h-541v-192h384v-64h-384v-128h384v-64h-384V320h541q20 0 27.5 17t7.5 34v77h108q14 0 17 3.5t3 17.5v278m-231-21l39-50-39-50v-58l-49-29-29-50h-58l-50-36-50 36h-58l-28 50-50 29v58l-37 50 37 50v57l50 29 28 50h14v233l93-85 97 85V862h12l29-50 49-29v-57m-186-152q19 0 37 7.5t31 20q13 12.5 21 30t8 37.5q0 20-8 37.5t-21 31.5q-13 14-31 22t-37 8q-20 0-37.5-8t-31.5-22q-14-14-22-31.5t-8-37.5q0-20 8-37.5t22-30q14-12.5 31.5-20t37.5-7.5z"/></svg>