<svg xmlns="http://www.w3.org/2000/svg" viewBox="0 0 2048 2048"><path d="M507 650l234 628H626l-56-160H323l-54 160H155l235-628h117m36 383l-88-250q-3-9-5-20t-4-20q-2 9-3.5 19.5T437 783l-87 250h193m498-214q48 0 82.5 18.5T1180 887q22 31 32 71t10 83q0 48-11.5 92.5t-35.5 79q-24 34.5-62 55t-92 20.5q-85 0-134-75v65H785V614h104v294q51-89 152-89m-44 389q34 0 57.5-15.5t37.5-39.5q14-24 20-53.5t6-58.5q0-26-6.5-51.5t-20-45.5q-13.5-20-34.5-32t-51-12q-29 0-51.5 11T917 940.5q-15 18.5-23 43t-8 51.5v55q0 24 8 45.5t22.5 37.5q14.5 16 35 25.5t45.5 9.5m987-56q26 0 45 19t19 45q0 26-19 45t-45 19q-26 0-45-19t-19-45q0-26 19-45t45-19m-256 0q26 0 45 19t19 45q0 26-19 45t-45 19q-26 0-45-19t-19-45q0-26 19-45t45-19m-256 0q26 0 45 19t19 45q0 26-19 45t-45 19q-26 0-45-19t-19-45q0-26 19-45t45-19z"/></svg>