<svg xmlns="http://www.w3.org/2000/svg" viewBox="0 0 2048 2048"><path d="M1920 256q27 0 50 10t40.5 27.5Q2028 311 2038 334t10 50v1280q0 27-10 50t-27.5 40.5Q1993 1772 1970 1782t-50 10h-640v256L0 1824V224L1280 0v256h640M517 1202q17 0 34 .5t34 .5q22 0 43.5-1t44.5-4q70-10 125.5-42t93.5-81q38-49 58-110.5T970 834q0-161-79-249.5T646 496h-18q-9 0-18 1l-313 18v1025l220 13v-351m1403-818h-640v291q29-17 61.5-26t66.5-9v256h256q0 53-20 99.5t-55 81.5q-35 35-81.5 55t-99.5 20q-34 0-66.5-9t-61.5-26v163h512v128h-512v256h640V384m-384 128q53 0 99.5 20t81.5 55q35 35 55 81.5t20 99.5h-256V512M578 708q74 0 108 32t34 107q0 74-34 111.5T577 996h-60V711q15-1 30.5-2t30.5-1z"/></svg>