<svg xmlns="http://www.w3.org/2000/svg" viewBox="0 0 2048 2048"><path d="M960 0q133 0 255.5 34t229.5 96.5q107 62.5 194.5 150t150 194.5q62.5 107 96.5 229.5t34 255.5q0 133-34 255.5t-96.5 229.5q-62.5 107-150 194.5t-194.5 150q-107 62.5-229.5 96.5T960 1920q-133 0-255.5-34T475 1789.5q-107-62.5-194.5-150t-150-194.5Q68 1338 34 1215.5T0 960q0-133 34-255.5T130.5 475q62.5-107 150-194.5t194.5-150Q582 68 704.5 34T960 0m0 1792q115 0 221-30t198.5-84q92.5-54 168.5-130t130-168.5q54-92.5 84-198.5t30-221q0-115-30-221t-84-198.5Q1624 448 1548 372t-168.5-130q-92.5-54-198.5-84t-221-30q-115 0-221 30t-198.5 84Q448 296 372 372T242 540.5Q188 633 158 739t-30 221q0 115 30 221t84 198.5q54 92.5 130 168.5t168.5 130q92.5 54 198.5 84t221 30m64-896h512v128h-512v512H896v-512H384V896h512V384h128v512z"/></svg>