<svg xmlns="http://www.w3.org/2000/svg" viewBox="0 0 2048 2048"><path d="M256 2048H128V0h1115l549 549v859h-128V640h-512V128H256v1920M1280 512h293l-293-293v293M512 384H384V256h128v128m0 256H384V512h128v128M384 768h128v128H384V768m102 807q0 21 8 36t25 28q21 17 47 27.5t49 22.5q29 15 57.5 32.5t51 40q22.5 22.5 36.5 51t14 64.5q0 50-20.5 82.5T700 2012q-33 20-74.5 28t-83.5 8q-16 0-38.5-2t-46.5-6.5q-24-4.5-45-11t-34-15.5v-106q13 13 33 23t42.5 17.5Q476 1955 498 1959t40 4q21 0 44-3t41.5-12q18.5-9 31-25.5T667 1879q0-30-21.5-50.5t-53.5-38q-32-17.5-69.5-34.5t-69.5-40.5q-32-23.5-53.5-56.5t-21.5-81q0-46 21-78.5t54-52.5q33-20 73.5-29.5t79.5-9.5q32 0 72.5 3.5T748 1430v101q-30-21-65-29t-71-8q-19 0-41 3.5t-41 12.5q-19 9-31.5 25t-12.5 40m558-7q86 0 130 42t44 129v298h-102v-71q-47 82-140 82-63 0-103.5-34T832 1914q0-36 11-62.5t30.5-44.5q19.5-18 47.5-28.5t61-15.5l136-20q0-47-22.5-72.5T1025 1645q-42 0-79 15t-69 42v-91q38-23 80.5-33t86.5-10m74 244l-97 13q-38 5-64 20t-26 58q0 34 23 50t54 16q25 0 45-9.5t34.5-25q14.5-15.5 22.5-37t8-45.5v-40m330-112q0 22 16.5 35t41 23.5q24.5 10.5 53.5 21t53.5 26.5q24.5 16 41 41t16.5 64q0 38-19 64.5t-47.5 42.5q-28.5 16-63.5 23t-66 7q-33 0-66-5.5t-64-19.5v-96q29 21 61.5 32.5t67.5 11.5q14 0 30.5-2t30.5-8q14-6 23.5-17t9.5-29q0-22-16.5-35.5T1509 1856q-25-10-53.5-20.5T1402 1809q-25-16-41.5-41t-16.5-64q0-36 17.5-62t45-42.5q27.5-16.5 60.5-24t64-7.5q61 0 114 19v91q-50-33-111-33-13 0-28 2.5t-28 9q-13 6.5-21.5 17t-8.5 26.5m378 0q0 22 16.5 35t41 23.5q24.5 10.5 53.5 21t53.5 26.5q24.5 16 41 41t16.5 64q0 39-18.5 65t-47 42q-28.5 16-63 23t-66.5 7q-33 0-66.5-5.5T1723 2023v-96q28 21 60.5 32.5t67.5 11.5q14 0 30.5-2t30.5-8q14-6 23.5-17t9.5-29q0-22-16.5-35.5t-41-23.5q-24.5-10-53.5-20.5t-53.5-26.5q-24.5-16-41-40.5T1723 1704q0-36 17.5-62t45-42.5q27.5-16.5 60.5-24t64-7.5q60 0 114 19v91q-50-33-111-33-12 0-27.5 2.5t-28.5 9q-13 6.5-22 17t-9 26.5z"/></svg>