<svg xmlns="http://www.w3.org/2000/svg" viewBox="0 0 2048 2048"><path d="M256 1216q0-89 34-171.5T387 899l227-226 633 633-226 227q-63 63-145.5 97T704 1664q-73 0-141.5-22.5T436 1575l-327 326-90-90 326-327q-44-58-66.5-126.5T256 1216m448 320q64 0 122.5-24.5T930 1442l136-136-452-452-136 136q-45 45-69.5 103.5T384 1216q0 66 25 124.5t68.5 102q43.5 43.5 102 68.5t124.5 25m871-1100q44 58 66.5 126.5T1664 704q0 89-34 171.5t-97 145.5l-227 226-633-633 226-227q63-63 145.5-97t171.5-34q73 0 141.5 22.5T1484 345l327-326 90 90-326 327m-133 494q45-45 69.5-103.5T1536 704q0-66-25.5-124t-69-101.5q-43.5-43.5-101.5-69T1216 384q-64 0-122.5 24.5T990 478L854 614l452 452 136-136z"/></svg>