<svg xmlns="http://www.w3.org/2000/svg" viewBox="0 0 2048 2048"><path d="M1757 1356q-14 19-28 37t-30 35l75 194-262 153-132-172q-27 5-54.5 8t-54.5 3q-28 0-55-3v386L64 1731V317L1216 51v386q9-1 18.5-1.5t18.5-.5l83-187 293 77-28 212q20 14 38.5 28t35.5 31l192-74 152 262-170 131q5 23 7 46t3 46l189 84-77 293-214-28m-541-49q14 2 27 3.5t27 1.5q60 0 112.5-22.5t91.5-61.5q39-39 61.5-91.5T1558 1024q0-60-22.5-112.5T1474 820q-39-39-91.5-61.5T1270 736q-14 0-27 1.5t-27 3.5v167q25-12 54-12 27 0 50 10t40.5 27.5Q1378 951 1388 974t10 50q0 27-10 50t-27.5 40.5Q1343 1132 1320 1142t-50 10q-29 0-54-12v167m-328 84q-55-189-111-375.5T668 640l-164 10-199 705 146 9 38-147h190l42 164 167 10m737 21q30-27 55-58.5t45-66.5l198 26 49-185-177-79q0-5 .5-11t.5-11q0-35-5-69t-13-70l158-121-97-166-180 69q-57-57-126-101l25-196-186-49-78 175q-5-1-11-1h-11q-14 0-27 3-1 0-1.5.5t-3.5.5h-24v174q14-2 27-3t27-1q73 0 137 27.5t112 75.5q48 48 75.5 112t27.5 137q0 73-27.5 137t-75.5 112q-48 48-112 75.5t-137 27.5q-14 0-27-1t-27-3v175q13 2 25 2h25q71 0 140-18l122 160 167-97-70-182M582 830q0 2 4 18.5t10 41q6 24.5 13.5 54t14.5 56q7 26.5 12.5 47t7.5 27.5H520l58-229q2-10 4-15z"/></svg>