<svg xmlns="http://www.w3.org/2000/svg" viewBox="0 0 2048 2048"><path d="M0 1047q0-141 44.5-262.5T171 574q82-89 199-139.5T632 384q74 0 148.5 10.5T924 435v155q-68-38-141.5-56.5T631 515q-116 0-205.5 40.5T275.5 667q-60.5 71-92 166.5T152 1039q0 104 29 194t86 157q57 67 140.5 105.5T601 1534q86 0 167.5-19t155.5-64v141q-79 42-166.5 57T582 1664q-138 0-246-46.5t-183-129Q78 1406 39 1293T0 1047m1789-217l-56 264h247l-24 93h-241l-78 349h-110l75-349h-219l-74 349h-110l74-349h-231l18-93h233l54-264h-244l18-93h244l74-353h111l-74 353h221l76-353h108l-74 353h231l-20 93h-229m-109 0h-222l-58 264h223l57-264z"/></svg>