<svg xmlns="http://www.w3.org/2000/svg" viewBox="0 0 2048 2048"><path d="M1312 736q-40 0-75-15t-61-41q-26-26-41-61t-15-75q0-40 15-75t41-61q26-26 61-41t75-15q40 0 75 15t61 41q26 26 41 61t15 75q0 40-15 75t-41 61q-26 26-61 41t-75 15m448 128q-40 0-75-15t-61-41q-26-26-41-61t-15-75q0-40 15-75t41-61q26-26 61-41t75-15q40 0 75 15t61 41q26 26 41 61t15 75q0 40-15 75t-41 61q-26 26-61 41t-75 15m-192 128h384v293q0 46-18 86t-48.5 69.5q-30.5 29.5-71 46.5t-86.5 17h-207q-40 60-104.5 94t-136.5 34q-59 0-111-22t-91.5-60q-39.5-38-62.5-89.5T992 1350V928h576v64M357 590h566v236H752v614H526V827H357V590z"/></svg>