<svg xmlns="http://www.w3.org/2000/svg" viewBox="0 0 2048 2048"><path d="M960 0q132 0 255 34.5t229.5 97q106.5 62.5 194 150t150 194q62.5 106.5 97 229.5t34.5 255q0 132-34.5 255t-97 229.5q-62.5 106.5-150 194t-194 150q-106.5 62.5-229.5 97T960 1920q-116 0-230-29l109-109q30 5 60.5 7.5t60.5 2.5q115 0 221-30t198.5-84q92.5-54 168.5-130t130-168.5q54-92.5 84-198.5t30-221q0-115-30-221t-84-198.5Q1624 448 1548 372t-168.5-130q-92.5-54-198.5-84t-221-30q-115 0-221 30t-198.5 84Q448 296 372 372T242 540.5Q188 633 158 739t-30 221q0 94 21.5 185.5T212 1322l-96 96q-57-106-86.5-222T0 960q0-132 34.5-255t97-229.5q62.5-106.5 150-194t194-150q106.5-62.5 229-97T960 0m576 1024H384V896h1152v128m-742 576l-317 317-90-90 162-163H256q-27 0-50 10t-40.5 27.5Q148 1719 138 1742t-10 50q0 27 10 50t27.5 40.5Q183 1900 206 1910t50 10v128q-53 0-99.5-20T75 1973q-35-35-55-81.5T0 1792q0-53 20-99.5t55-81.5q35-35 81.5-55t99.5-20h293l-162-163 90-90 317 317z"/></svg>