<svg xmlns="http://www.w3.org/2000/svg" viewBox="0 0 2048 2048"><path d="M1728 512q40 0 75 15t61 41q26 26 41 61t15 75v768q0 40-15 75t-41 61q-26 26-61 41t-75 15H320q-40 0-75-15t-61-41q-26-26-41-61t-15-75V704q0-40 15-75t41-61q26-26 61-41t75-15h322q6-54 31-101t63.5-81.5q38.5-34.5 87.5-54T928 256h128q55 0 104 19.5t87.5 54Q1286 364 1311 411t31 101h386M928 384q-28 0-54 9.5T827 420q-21 17-35.5 40.5T771 512h442q-6-28-20.5-51.5T1157 420q-21-17-47-26.5t-54-9.5H928m480 256H320q-26 0-45 19t-19 45v768q0 26 19 45t45 19h1088V640m384 64q0-26-19-45t-45-19h-192v896h192q26 0 45-19t19-45V704z"/></svg>