<svg xmlns="http://www.w3.org/2000/svg" viewBox="0 0 2048 2048"><path d="M640 1280h256v128H512V896h128v384m0-640q88 0 170 23t153 64.5q71 41.5 129.5 100t100 129.5q41.5 71 64.5 153t23 170q0 88-23 170t-64.5 153q-41.5 71-100 129.5t-129.5 100q-71 41.5-153 64.5t-170 23q-88 0-170-23t-153-64.5q-71-41.5-129.5-100T87.5 1603Q46 1532 23 1450T0 1280q0-88 23-170t64.5-153q41.5-71 100-129.5t129.5-100Q388 686 470 663t170-23m0 1152q106 0 199-40.5t162.5-110q69.5-69.5 110-162.5t40.5-199q0-106-40.5-199t-110-162.5Q932 849 839 808.5T640 768q-106 0-199 40.5t-162.5 110Q209 988 168.5 1081T128 1280q0 106 40.5 199t110 162.5q69.5 69.5 162.5 110t199 40.5m721-1141h239v117h-448v-66l250-329h-225V256h421v78l-237 317m687-226v87h-320v-49l179-248h-161v-87h301v59l-170 238h171z"/></svg>