<svg xmlns="http://www.w3.org/2000/svg" viewBox="0 0 2048 2048"><path d="M1915 1107q64 78 98.5 171.5T2048 1472q0 119-45.5 224T1879 1879q-78 78-183 123.5t-224 45.5q-100 0-193.5-34.5T1107 1915q-21 2-41.5 3.5t-41.5 1.5q-123 0-237.5-32t-214-90.5Q473 1739 391 1657t-140.5-181.5Q192 1376 160 1262t-32-238q0-21 1.5-41.5T133 941q-64-78-98.5-171.5T0 576q0-119 45.5-224T169 169q78-78 183-123.5T576 0q100 0 193.5 34.5T941 133q21-2 41.5-3.5t41.5-1.5q123 0 237.5 32t214 90.5Q1575 309 1657 391t140.5 181.5q58.5 99.5 90.5 214t32 237.5q0 21-1.5 41.5t-3.5 41.5m-888 429q74 0 147-16.5t131-53.5q58-37 94-96.5t36-145.5q0-73-25.5-123t-68-83q-42.5-33-96-52.5t-110-32.5q-56.5-13-110-23t-96-23.5q-42.5-13.5-68-35T836 795q0-33 14.5-55t37.5-35.5q23-13.5 51-19.5t56-6q52 0 87 10.5t59 27q24 16.5 41 35t33 35q16 16.5 33 27t43 10.5q19 0 37.5-5.5t32.5-16q14-10.5 22.5-27t8.5-37.5q0-39-20-71t-52.5-57q-32.5-25-73.5-43.5t-83.5-30.5q-42.5-12-83-18t-70.5-6q-71 0-140.5 15.5T744 578q-55 35-89.5 91.5T620 808q0 59 17 103t48 76q31 32 75 53.5t99 35.5q63 17 126.5 32t126.5 32q19 5 37 13t32 20q14 12 22 29t8 39q0 35-18 60t-45 42q-27 17-59.5 25t-61.5 8q-57 0-94-13.5t-62-33.5q-25-20-42-43.5t-33.5-43.5q-16.5-20-36-33.5T710 1195q-40 0-68.5 24.5T613 1286q0 26 9.5 51t24.5 47q30 44 74.5 73t95.5 46.5q51 17.5 105.5 25t104.5 7.5z"/></svg>