<svg xmlns="http://www.w3.org/2000/svg" viewBox="0 0 2048 2048"><path d="M1024 128q124 0 238.5 32t214 90.5q99.5 58.5 181 140t140 181q58.5 99.5 90.5 214t32 238.5q0 124-32 238.5t-90.5 214q-58.5 99.5-140 181t-181 140q-99.5 58.5-214 90.5t-238.5 32q-124 0-238.5-32t-214-90.5q-99.5-58.5-181-140t-140-181q-58.5-99.5-90.5-214T128 1024q0-124 32-238.5t90.5-214q58.5-99.5 140-181t181-140Q671 192 785.5 160t238.5-32m0 1664q106 0 204-27.5t183.5-77.5q85.5-50 155.5-120t120-155.5q50-85.5 77.5-183.5t27.5-204q0-106-27.5-204T1687 636.5Q1637 551 1567 481t-155.5-120q-85.5-50-183.5-77.5T1024 256q-106 0-204 27.5T636.5 361Q551 411 481 481T361 636.5Q311 722 283.5 820T256 1024q0 106 27.5 204t77.5 183.5q50 85.5 120 155.5t155.5 120q85.5 50 183.5 77.5t204 27.5m0-1152q79 0 149 30t122.5 82.5Q1348 805 1378 875t30 149q0 80-30 149.5t-82.5 122Q1243 1348 1173 1378t-149 30q-80 0-149.5-30t-122-82.5q-52.5-52.5-82.5-122T640 1024q0-79 30-149t82.5-122.5Q805 700 874.5 670t149.5-30m0 640q53 0 99.5-20t81.5-55q35-35 55-81.5t20-99.5q0-53-20-99.5t-55-81.5q-35-35-81.5-55t-99.5-20q-53 0-99.5 20T843 843q-35 35-55 81.5t-20 99.5q0 53 20 99.5t55 81.5q35 35 81.5 55t99.5 20z"/></svg>