<svg xmlns="http://www.w3.org/2000/svg" viewBox="0 0 2048 2048"><path d="M960 0Q827 0 704.5 34T475 130.5q-107 62.5-194.5 150T130.5 475Q68 582 34 704.5T0 960q0 133 34 255.5t96.5 229.5q62.5 107 150 194.5t194.5 150q107 62.5 229.5 96.5t255.5 34q133 0 255.5-34t229.5-96.5q107-62.5 194.5-150t150-194.5q62.5-107 96.5-229.5t34-255.5q0-133-34-255.5T1789.5 475q-62.5-107-150-194.5t-194.5-150Q1338 68 1215.5 34T960 0m0 1792q-115 0-221-30t-198.5-84Q448 1624 372 1548t-130-168.5q-54-92.5-84-198.5t-30-221q0-115 30-221t84-198.5Q296 448 372 372t168.5-130Q633 188 739 158t221-30q115 0 221 30t198.5 84q92.5 54 168.5 130t130 168.5q54 92.5 84 198.5t30 221q0 115-30 221t-84 198.5q-54 92.5-130 168.5t-168.5 130q-92.5 54-198.5 84t-221 30m45-1170l-90-92-434 430 434 430 90-92-278-274h681V896H727l278-274z"/></svg>