<svg xmlns="http://www.w3.org/2000/svg" viewBox="0 0 2048 2048"><path d="M256 1920h512v128H128V0h1115l549 549v91h-640V128H256v1792M1280 512h293l-293-293v293m128 256q133 0 249.5 50T1861 955q87 87 137 203.5t50 249.5q0 133-50 249.5T1861 1861q-87 87-203.5 137t-249.5 50q-133 0-249.5-50T955 1861q-87-87-137-203.5T768 1408q0-133 50-249.5T955 955q87-87 203.5-137t249.5-50m0 1152q21 0 37-14.5t28.5-38q12.5-23.5 21-52.5t14.5-57.5q6-28.5 9.5-53t5.5-40.5h-230q2 14 5.5 39t10 53.5q6.5 28.5 15.5 57.5t21 52.5q12 23.5 27.5 38.5t34.5 15m126-384q1-32 1.5-64t.5-64q0-63-3-128h-250q-3 65-3 128 0 64 3 128h251m-638-128q0 32 4 64t12 64h243q-3-64-3-128 0-63 3-128H912q-8 32-12 64t-4 64m512-512q-19 0-34 15t-27 39q-12 24-21 53t-15 57.5q-6 28.5-10 53t-6 38.5h225q-2-13-6-37.5t-11-53q-7-28.5-16-58t-20.5-53.5q-11.5-24-26.5-39t-32-15m253 384q3 65 3 128 0 32-.5 64t-1.5 64h242q8-32 12-64t4-64q0-32-4-64t-12-64h-243m190-128q-43-75-108-131t-145-88q21 52 32.5 107.5T1649 1152h202m-637-218q-78 32-142.5 88T965 1152h200q13-111 49-218m-249 730q42 73 106 129t142 88q-21-51-31.5-106.5T1165 1664H965m642 215q77-32 139.5-87.5T1851 1664h-198q-5 51-15.5 109.5T1607 1879z"/></svg>