<svg xmlns="http://www.w3.org/2000/svg" viewBox="0 0 2048 2048"><path d="M1152 1536v128h256v128H768v-128h256v-128H128v-384h128v256h1664V512h-512V384h640v1152h-896m128-512H0V128h293L421 0h438l128 128h293v896m-128-768H933L805 128H475L347 256H128v640h1024V256m-512 0q53 0 99.5 20t81.5 55q35 35 55 81.5t20 99.5q0 53-20 99.5T821 693q-35 35-81.5 55T640 768q-53 0-99.5-20T459 693q-35-35-55-81.5T384 512q0-53 20-99.5t55-81.5q35-35 81.5-55t99.5-20m0 384q27 0 50-10t40.5-27.5Q748 585 758 562t10-50q0-27-10-50t-27.5-40.5Q713 404 690 394t-50-10q-27 0-50 10t-40.5 27.5Q532 439 522 462t-10 50q0 27 10 50t27.5 40.5Q567 620 590 630t50 10z"/></svg>