<svg xmlns="http://www.w3.org/2000/svg" viewBox="0 0 2048 2048"><path d="M2029 1939q19 19 19 45t-19 45q-19 19-45 19t-45-19l-785-784q-95 80-210.5 121.5T704 1408q-97 0-187-25t-168.5-71Q270 1266 206 1202T96 1059.5Q50 981 25 891T0 704q0-97 25-187t71-168.5Q142 270 206 206T348.5 96Q427 50 517 25T704 0q97 0 187 25t168.5 71q78.5 46 142.5 110t110 142.5q46 78.5 71 168.5t25 187q0 124-41.5 239.5T1245 1154l784 785M768 1024H640v128h128v-128m264-512q0-66-29-115.5T927 314q-47-33-105.5-49.5T704 248q-60 0-118.5 19.5t-105 56Q434 360 405 412t-29 117q0 53 19 92t47.5 70q28.5 31 61.5 55.5t61.5 48Q594 818 613 842t19 54h144q0-53-19-92t-47.5-70Q681 703 648 678.5t-61.5-48Q558 607 539 583t-19-54q0-34 18-59.5t45-42.5q27-17 59.5-26t61.5-9q27 0 59 6t60 20.5q28 14.5 46.5 37.5t18.5 56h144z"/></svg>