<svg xmlns="http://www.w3.org/2000/svg" viewBox="0 0 2048 2048"><path d="M0 128v896h128V640h1792v1152H512v128h1536V128h-384V0h-128v128H512V0H384v128H0m128 384V256h256v128h128V256h1024v128h128V256h256v256H128m256 1408H256v128h128v-128m-64-768q-53 0-99.5 20t-81.5 55q-35 35-55 81.5T64 1408q0 46 14 81t35.5 63q21.5 28 46.5 50.5t46.5 44.5q21.5 22 35.5 45t14 52v48h128v-48q0-47-14-81.5t-35.5-62.5q-21.5-28-46.5-50.5t-46.5-44.5q-21.5-22-35.5-45t-14-52q0-27 10-50t27.5-40.5Q247 1300 270 1290t50-10q27 0 50 10t40.5 27.5Q428 1335 438 1358t10 50h128q0-53-20-99.5t-55-81.5q-35-35-81.5-55t-99.5-20z"/></svg>