<svg xmlns="http://www.w3.org/2000/svg" viewBox="0 0 2048 2048"><path d="M1792 896q-53 0-99.5-20t-81.5-55q-35-35-55-81.5t-20-99.5q0-53 20-99.5t55-81.5q35-35 81.5-55t99.5-20q53 0 99.5 20t81.5 55q35 35 55 81.5t20 99.5q0 53-20 99.5t-55 81.5q-35 35-81.5 55t-99.5 20m0-384q-27 0-50 10t-40.5 27.5Q1684 567 1674 590t-10 50q0 27 10 50t27.5 40.5Q1719 748 1742 758t50 10q27 0 50-10t40.5-27.5Q1900 713 1910 690t10-50q0-27-10-50t-27.5-40.5Q1865 532 1842 522t-50-10m192 512q26 0 45 19t19 45v64q0 49-13 106t-37 113.5q-24 56.5-58.5 109.5t-77 93.5q-42.5 40.5-92.5 65t-106 24.5h-98q-55 62-129.5 95t-156.5 33q-64 0-128-22v278L0 1838V210L1152 0v290q58-34 128-34 53 0 99.5 20t81.5 55q35 35 55 81.5t20 99.5q0 53-20 99.5t-55 81.5q-35 35-81.5 55t-99.5 20q-70 0-128-34v162h448q22 0 34.5 8.5t19 22q6.5 13.5 8.5 30t2 33.5v34h320m-704-640q-27 0-50 10t-40.5 27.5Q1172 439 1162 462t-10 50q0 27 10 50t27.5 40.5Q1207 620 1230 630t50 10q27 0 50-10t40.5-27.5Q1388 585 1398 562t10-50q0-27-10-50t-27.5-40.5Q1353 404 1330 394t-50-10M891 522l-694 47v193l231-8v781l200 11V744l263-12V522m389 1142q53 0 99.5-20t81.5-55q35-35 55-81.5t20-99.5v-384h-384v606q58 34 128 34m384-128q38 0 71.5-20t62-52q28.5-32 51-73t38.5-83.5q16-42.5 24.5-83t8.5-72.5h-256v384z"/></svg>