<svg xmlns="http://www.w3.org/2000/svg" viewBox="0 0 2048 2048"><path d="M0 224L1152 0v2048L0 1824V224m421 800l-257 481 245 14q5-11 18-38t29-61q16-34 33.5-71.5T522 1278q15-33 25-57t12-32q2 8 4 12l150 335 275 16-281-532 273-524-260 15-140 309q-4 8-6.5 17.5T569 855q-4-8-6.5-16t-5.5-16L436 527l-250 15 235 482m1499-896q26 0 49.5 10t41 27.5q17.5 17.5 27.5 41t10 49.5v1536q0 26-10 49.5t-27.5 41q-17.5 17.5-41 27.5t-49.5 10h-640v-256h128v-256h-128v-256h128V896h-128V640h128V384h-128V128h640m0 1280h-384v256h384v-256m0-512h-384v256h384V896m0-512h-384v256h384V384z"/></svg>