<svg xmlns="http://www.w3.org/2000/svg" viewBox="0 0 2048 2048"><path d="M2048 256v1536q0 27-10 50t-27.5 40.5Q1993 1900 1970 1910t-50 10h-640v128L0 1824V224L1280 0v128h640q27 0 50 10t40.5 27.5Q2028 183 2038 206t10 50M912 1256q0-79-26-133.5t-65-93.5q-39-39-85-67t-85-54q-39-26-65-54t-26-68q0-25 9.5-42.5t25.5-28q16-10.5 36.5-15T674 696q32 0 58 5.5t49 16q23 10.5 45 25.5t47 34V516q-45-18-89-25.5t-93-7.5q-77 0-141.5 21T438 566q-47 41-73 102t-26 142q0 78 25 131t62 91.5q37 38.5 81 66t81 52.5q37 25 62 53t25 67q0 44-28.5 63.5T578 1354q-40 0-72.5-10.5T445 1315q-28-18-53-42.5t-50-52.5v269q24 21 55.5 35.5t66 24Q498 1558 533 1562t66 4q72 0 130-21t98.5-61q40.5-40 62.5-97.5t22-130.5M1920 256h-640v567l113-145q14-18 35-28.5t44-10.5q23 0 44 10.5t35 28.5l369 474h-640v128h512v128h-512v128h512v128h-512v128h640V256m-128 128v128h-128V384h128z"/></svg>