<svg xmlns="http://www.w3.org/2000/svg" viewBox="0 0 2048 2048"><path d="M543 1512q9-58 29-115L929 384h159L621 1664H458L0 384h165l349 1015q10 28 16.5 56t12.5 57m1220-528q64 8 117 32.5t90 65q37 40.5 57.5 94.5t20.5 120q0 89-34 157.5t-91 115q-57 46.5-132 71t-158 24.5h-373V384h364q69 0 133.5 17t115 52.5q50.5 35.5 81 91T1984 677q0 110-58 190t-163 113v4m-353-51h153q55 0 103-13t84-40.5q36-27.5 56.5-70.5t20.5-103q0-55-20.5-91t-54-57q-33.5-21-78-29.5T1582 520h-172v413m203 595q56 0 106.5-13t88.5-41q38-28 60.5-72t22.5-107q0-69-26.5-113t-69.5-69.5q-43-25.5-99-35t-114-9.5h-172v460h203z"/></svg>