<svg xmlns="http://www.w3.org/2000/svg" viewBox="0 0 2048 2048"><path d="M2020 1109l-63 240-206-27q-17 26-36.5 51t-42.5 47l72 188-214 125-127-166q-62 14-123 14-67 0-131.5-15.5T1024 1519v-305q45 61 112.5 95.5T1280 1344q66 0 124.5-25t102-68.5q43.5-43.5 68.5-102t25-124.5q0-66-25-124.5t-68.5-102q-43.5-43.5-102-68.5T1280 704q-76 0-143.5 34.5T1024 834V529q61-32 126-47t134-15l80-181 240 63-27 204q55 35 100 80l186-71 124 214-163 125q6 32 9.5 63.5t3.5 63.5l183 81M691 607l240 819-235-15-42-167H514l-39 154-211-13 215-765 212-13z"/></svg>