<svg xmlns="http://www.w3.org/2000/svg" viewBox="0 0 2048 2048"><path d="M836 795q0 35 25.5 56.5t68 35q42.5 13.5 96 23.5t110 23q56.5 13 110 32.5t96 52.5q42.5 33 68 83t25.5 123q0 86-36 145.5t-94 96.5q-58 37-131 53.5t-147 16.5q-50 0-104.5-7.5t-105.5-25q-51-17.5-95.5-46.5t-74.5-73q-15-22-24.5-47t-9.5-51q0-42 28.5-66.5T710 1195q30 0 49.5 13.5t36 33.5q16.5 20 33.5 43.5t42 43.5q25 20 62 33.5t94 13.5q29 0 61.5-8t59.5-25q27-17 45-42t18-60q0-22-8-39t-22-29q-14-12-32-20t-37-13q-63-17-126.5-32T859 1076q-55-14-99-35.5T685 987q-31-32-48-76t-17-103q0-82 34.5-138.5T744 578q55-35 124.5-50.5T1009 512q30 0 70.5 6t83 18q42.5 12 83.5 30.5t73.5 43.5q32.5 25 52.5 57t20 71q0 21-8.5 37.5t-22.5 27q-14 10.5-32.5 16T1291 824q-25 0-42.5-10.5t-33.5-27q-16-16.5-33-35t-41-35q-24-16.5-59-27T995 679q-28 0-56 6t-51 19.5Q865 718 850.5 740T836 795m1079 312q64 78 98.5 171.5T2048 1472q0 119-45.5 224T1879 1879q-78 78-183 123.5t-224 45.5q-100 0-193.5-34.5T1107 1915q-21 3-41.5 4t-41.5 1q-124 0-238.5-32t-214-90.5q-99.5-58.5-181-140t-140-181q-58.5-99.5-90.5-214T128 1024q0-21 1-41.5t4-41.5q-64-78-98.5-171.5T0 576q0-119 45.5-224T169 169q78-78 183-123.5T576 0q100 0 193.5 34.5T941 133q21-3 41.5-4t41.5-1q124 0 238.5 32t214 90.5q99.5 58.5 181 140t140 181q58.5 99.5 90.5 214t32 238.5q0 21-1 41.5t-4 41.5m-443 813q93 0 174.5-35.5t142-96q60.5-60.5 96-142T1920 1472q0-97-36.5-175.5T1782 1149q3-32 6.5-62.5t3.5-62.5q0-106-27.5-204T1687 636.5Q1637 551 1567 481t-155.5-120q-85.5-50-183.5-77.5T1024 256q-32 0-62.5 3.5T899 266q-69-65-147.5-101.5T576 128q-93 0-174.5 35.5t-142 96q-60.5 60.5-96 142T128 576q0 97 36.5 175.5T266 899q-3 32-6.5 62.5T256 1024q0 106 27.5 204t77.5 183.5q50 85.5 120 155.5t155.5 120q85.5 50 183.5 77.5t204 27.5q32 0 62.5-3.5t62.5-6.5q69 65 147.5 101.5T1472 1920z"/></svg>