<svg xmlns="http://www.w3.org/2000/svg" viewBox="0 0 2048 2048"><path d="M1243 0l549 549v219h-128V640h-512V128H256v1792h768v128H128V0h1115m37 512h293l-293-293v293m640 1408h128v128h-128v-128m-256 0h128v128h-128v-128m-256 0h128v128h-128v-128m256-1024h128v128h-128V896m-256 0h128v128h-128V896m-256 1024h128v128h-128v-128m768-256h128v128h-128v-128m-768 0h128v128h-128v-128m768-256h128v128h-128v-128m-768 0h128v128h-128v-128m768-256h128v128h-128v-128m-768 0h128v128h-128v-128m896-256v128h-128V896h128m-896 0h128v128h-128V896z"/></svg>