<svg xmlns="http://www.w3.org/2000/svg" viewBox="0 0 2048 2048"><path d="M64 1791V263L1216 56v1936L64 1791M321 660v706l115 6V854l307 534 154 9V631l-145 8v257q0 128 1 257L467 655l-146 5m1637 172q13 0 19.5 12.5t6.5 23.5v248q0 11-6.5 23.5T1958 1152h-38V832h38m0 384q13 0 19.5 12.5t6.5 23.5v248q0 11-6.5 23.5T1958 1536h-38v-320h38m26-469q0 13-3 17t-17 4h-108v909q0 7-2.5 16t-7 16.5q-4.5 7.5-11 13t-14.5 5.5h-541v-192h384v-64h-384v-128h384v-64h-384V819l192 77 192-77v173q0 14 9 23t23 9q14 0 23-9t9-23V794l64-26-320-128-192 77V320h541q20 0 27.5 17t7.5 34v77h108q14 0 17 3.5t3 17.5v278m-384 277v-93l-128 51-128-51v93q0 19 15 31t36 19.5q21 7.5 42.5 10.5t34.5 3q13 0 34.5-3t42.5-10.5q21-7.5 36-19.5t15-31z"/></svg>