<svg xmlns="http://www.w3.org/2000/svg" viewBox="0 0 2048 2048"><path d="M2048 945q-17 20-31.5 42t-29.5 43q-24 34-50 68.5t-56 65q-30 30.5-64 56.5t-74 42q-44 18-92 31.5t-96 13.5q-11 0-21-2t-21-4q127 134 213 295.5t137 338.5q3 11 3 22 0 31-23.5 49.5T1790 2025q-29 0-43-13.5t-25-37.5q-6-14-9.5-28.5t-8.5-28.5q-9-28-19.5-55.5T1663 1807q-46-112-109-215.5T1407 1400q-3 53-10.5 106t-19.5 104q-13 55-47.5 110.5T1250 1827q-45 51-95.5 95t-95.5 76q-28-22-55.5-67t-51-97.5q-23.5-52.5-42-104.5t-28.5-87q-33 18-90.5 32.5t-128 25.5q-70.5 11-148 19.5t-149 14.5q-71.5 6-131 10t-95.5 5q15-36 38.5-90.5t53-117q29.5-62.5 64-128.5t70.5-125q36-59 72-105.5t69-71.5q-31-35-58.5-74.5T395 958Q265 762 168 548T0 110q15-5 33-8t37.5-4.5q19.5-1.5 38-2T143 95q42 0 103 3t125 10q64 7 123.5 17t98.5 23q46 16 105 41.5t117.5 59Q874 282 924 321.5t77 83.5q90-31 178.5-68.5t172-83.5q83.5-46 160-102.5T1654 23q34 52 53.5 109t29.5 116.5q10 59.5 14 120.5t6 121q2 66 25.5 134.5t63 130Q1885 816 1937 866t111 79z"/></svg>