<svg xmlns="http://www.w3.org/2000/svg" viewBox="0 0 2048 2048"><path d="M1920 288q14 0 23 9t9 23v1408q0 14-9 23t-23 9h-896q-14 0-23-9t-9-23V320q0-14 9-23t23-9h896M874 1194q0 58-17.5 105t-50.5 80q-33 33-79.5 51T622 1448q-57 0-111-15.5t-98-52.5q-1-4-2-9t-1-9v-271q19 23 40 48.5t44.5 47q23.5 21.5 51 36T607 1237q17 0 28.5-7t11.5-26q0-4-1-10t-3-8q-4-16-23.5-30t-45.5-31q-26-17-55.5-38t-54-51q-24.5-30-41-71T407 868q0-64 20.5-114t58-84.5q37.5-34.5 89.5-52T689 600q45 0 78 7.5t74 24.5q1 2 3 12t2 12v248q-23-19-42.5-36T764 838.5Q744 826 721 819t-54-7q-17 0-31 10t-14 28q0 16 7 27.5t18 20.5q11 9 23.5 16t23.5 13q40 24 73.5 50t57 57.5Q848 1066 861 1105t13 89z"/></svg>