<svg xmlns="http://www.w3.org/2000/svg" viewBox="0 0 2048 2048"><path d="M256 128H0V0h256v128m384 0H384V0h256v128m384 0H768V0h256v128m384 0h-256V0h256v128m384 0h-256V0h256v128M0 256h128v256H0V256m0 384h128v256H0V640m0 384h128v256H0v-256m0 384h128v256H0v-256m0 384h128v256H0v-256m1792 128h256v128h-256v-128m-384 0h256v128h-256v-128m-384 0h256v128h-256v-128m-384 0h256v128H640v-128m-384 0h256v128H256v-128m1664-384h128v256h-128v-256m0-384h128v256h-128v-256m0-384h128v256h-128V768m0-384h128v256h-128V384M2048 0v256h-128V0h128z"/></svg>