<svg xmlns="http://www.w3.org/2000/svg" viewBox="0 0 2048 2048"><path d="M959 995L436 653l523-342 533 342-533 342m714 12q40 29 87.5 69.5t89 89q41.5 48.5 69.5 102t28 107.5q0 63-36 103t-89 63q-53 23-113 32.5t-108 10.5q-51 2-102.5 3t-102.5 1h-13q-45 0-91-1.5t-91-10.5l-242 161-570-359v-202q-36-25-78.5-59.5t-86-75.5q-43.5-41-84-86.5t-71.5-94Q38 812 19 763T0 666q0-45 18-78t47.5-55.5Q95 510 133 496t79-21.5q41-7.5 81-10t74-2.5q12 0 18.5 7t9.5 19q-27 30-60 64.5T273.5 625q-28.5 38-48 79.5T206 791q0 44 17 84t43 75q26 35 58.5 65.5T389 1071V786l570 359 571-353v513l-185 132q38 5 77 13t78 8q20 0 49.5-1.5t63-6.5q33.5-5 66.5-14t60-24q27-15 43.5-36t16.5-51q0-26-12.5-51t-31.5-47q-19-22-41-41t-41-33v-146z"/></svg>