<svg xmlns="http://www.w3.org/2000/svg" viewBox="0 0 2048 2048"><path d="M2048 1024h-128q0-123-32-237.5t-90.5-214Q1739 473 1657 391t-181.5-140.5q-99.5-58.5-214-90.5T1024 128q-124 0-238 32t-213.5 90.5Q473 309 391 391T250.5 572.5Q192 672 160 786.5T128 1024q0 124 32 238t90.5 213.5Q309 1575 391 1657t181.5 140.5q99.5 58.5 214 90.5t237.5 32v128q-142 0-272.5-36.5t-244.5-103q-114-66.5-207.5-160t-160-207.5q-66.5-114-103-245T0 1024q0-141 36.5-272t103-245q66.5-114 160-207.5t207.5-160Q621 73 752 36.5T1024 0q141 0 272 36.5t245 103q114 66.5 207.5 160t160 207.5q66.5 114 103 245t36.5 272M1024 384q133 0 249.5 50T1477 571q87 87 137 203.5t50 249.5h-128q0-106-40.5-199t-110-162.5Q1316 593 1223 552.5T1024 512q-106 0-199 40.5t-162.5 110Q593 732 552.5 825T512 1024q0 103 38.5 196T662 1386l-91 91q-91-91-139-208t-48-245q0-133 50-249.5T571 571q87-87 203.5-137t249.5-50m0 384q53 0 99.5 20t81.5 55q35 35 55 81.5t20 99.5q0 53-20 99.5t-55 81.5q-35 35-81.5 55t-99.5 20q-53 0-99.5-20t-81.5-55q-35-35-55-81.5t-20-99.5q0-53 20-99.5t55-81.5q35-35 81.5-55t99.5-20m0 384q27 0 50-10t40.5-27.5q17.5-17.5 27.5-40.5t10-50q0-27-10-50t-27.5-40.5Q1097 916 1074 906t-50-10q-27 0-50 10t-40.5 27.5Q916 951 906 974t-10 50q0 27 10 50t27.5 40.5Q951 1132 974 1142t50 10z"/></svg>