<svg xmlns="http://www.w3.org/2000/svg" viewBox="0 0 2048 2048"><path d="M1789 768q54 0 101 20t82 54.5q35 34.5 55.5 81T2048 1024q0 51-19 96.5t-51.5 80q-32.5 34.5-77 55.5t-95.5 24q-42 94-111.5 167T1533 1567q-6 48-28 89t-56 71.5q-34 30.5-77.5 47.5t-91.5 17q-17 0-32.5-2.5t-31.5-6.5v209L64 1791V263L1216 56v209q16-4 31.5-6.5t32.5-2.5q54 0 100.5 20.5t81 55.5q34.5 35 54.5 82t20 101q81 42 146 107t107 146M586 1417q53 0 96.5-14t74-42q30.5-28 47.5-69.5t17-96.5q0-59-20-98.5t-50-68q-30-28.5-64.5-48t-64.5-38Q592 924 572 903t-20-51q0-34 24.5-52t56.5-18q27 0 47 3t37.5 9.5q17.5 6.5 34.5 17t39 25.5V657q-29-11-59.5-17.5T670 633q-25 0-49 1.5t-48 6.5q-85 19-133 80t-48 148q0 56 19 95t47.5 66.5q28.5 27.5 61.5 47t61.5 38.5q28.5 19 47.5 39.5t19 50.5q0 26-18.5 45t-44.5 19q-34 0-59.5-5.5t-47-16.5q-21.5-11-41.5-28.5t-43-40.5v184q41 31 91.5 42.5T586 1417m630-126q17-5 33.5-6.5t33.5-1.5q45 0 87 14.5t76 43.5q48-29 84-71t58-93q-26-33-39-72t-13-81q0-38 11.5-73.5T1579 883q-26-51-66.5-91.5T1421 725q-31 20-66.5 30.5T1281 766q-17 0-33-1.5t-32-6.5v533m547-77q6 1 12 1h12q40 0 76-13.5t63-38.5q27-25 42.5-60.5t15.5-78.5q0-40-15-75t-41-61q-26-26-61-41t-75-15q-10 0-20.5 1.5T1751 836q-28-55-55-95.5t-59.5-73q-32.5-32.5-73-59.5t-95.5-55q1-10 2.5-20.5t1.5-20.5q0-40-15-75t-41-61q-26-26-61-41t-75-15q-17 0-32.5 3.5T1216 332v360q33 11 64 11 42 0 71.5-14t61.5-38q48 23 83 45.5t62 49.5q27 27 49.5 62t45.5 83q-24 32-38.5 61.5T1600 1024q0 42 16 76.5t45 63.5q-28 89-86 152.5T1434 1420q-32-35-67.5-54t-84.5-19q-33 0-66 11v358q30 12 64 12 39 0 73-14.5t59.5-39q25.5-24.5 41-58t17.5-72.5l1-19q57-27 100.5-57.5t77.5-68q34-37.5 61-83t52-102.5z"/></svg>