<svg xmlns="http://www.w3.org/2000/svg" viewBox="0 0 2048 2048"><path d="M256 896h640V768H256v128M0 256v987q28-35 59.5-66t68.5-56V384h1792v1280h-903q-3 33-10 65t-18 63h1059V256H0m1792 1152q0-52-14-101.5t-40-93q-26-43.5-63-79.5t-83-61q34-35 53-81t19-96q0-53-20-99.5t-55-81.5q-35-35-81.5-55t-99.5-20q-53 0-99.5 20t-81.5 55q-35 35-55 81.5t-20 99.5q0 50 19 96t53 81q-46 25-83 61t-63 79.5q-26 43.5-40 93t-14 101.5h128q0-53 20-99.5t55-81.5q35-35 81.5-55t99.5-20q53 0 99.5 20t81.5 55q35 35 55 81.5t20 99.5h128m-384-640q27 0 50 10t40.5 27.5Q1516 823 1526 846t10 50q0 27-10 50t-27.5 40.5Q1481 1004 1458 1014t-50 10q-27 0-50-10t-40.5-27.5Q1300 969 1290 946t-10-50q0-27 10-50t27.5-40.5Q1335 788 1358 778t50-10M10 1488l124 51q-6 30-6 61t6 61l-124 51 49 119 124-52q35 51 86 86l-52 124 119 49 51-124q30 6 61 6t61-6l51 124 119-49-52-124q51-35 86-86l124 52 49-119-124-51q6-30 6-61t-6-61l124-51-49-119-124 52q-35-51-86-86l52-124-119-49-51 124q-30-6-61-6t-61 6l-51-124-119 49 52 124q-51 35-86 86l-124-52-49 119m438 304q-40 0-75-15t-61-41q-26-26-41-61t-15-75q0-40 15-75t41-61q26-26 61-41t75-15q40 0 75 15t61 41q26 26 41 61t15 75q0 40-15 75t-41 61q-26 26-61 41t-75 15z"/></svg>