<svg xmlns="http://www.w3.org/2000/svg" viewBox="0 0 2048 2048"><path d="M2048 256v1536H0V512h832l256-256h960M646 1408q-7-31-7-67 0-92 53.5-150t140.5-78q29-110 105-171t192-61q63 0 118.5 24t98.5 71q15-4 30-6.5t30-3.5q1-10 1-19v-19q0-13-4-28t-9-26q-21-64-64.5-111T1224 691q-51-21-108-21-78 0-142 41T873 819q-22-14-52-21t-55-7q-47 0-87.5 18.5T608 859q-30 31-47 73t-17 88v11q0 6 1 12-37 3-67 18.5t-51 41q-21 25.5-32 58t-11 68.5q0 35 14.5 67.5t39 57q24.5 24.5 57 39.5t67.5 15h84m964 128q28 0 52.5-12.5t42.5-33q18-20.5 28-47t10-53.5q0-28-8.5-54t-24.5-46q-16-20-39-32.5t-53-14.5v-14q0-42-13-78.5t-37.5-63.5q-24.5-27-60-42.5T1428 1029q-24 0-52.5 6t-49.5 18q-34-51-83-79.5T1131 945q-50 0-93 16.5t-75 46q-32 29.5-52 71t-24 91.5q-37 1-70.5 13t-58.5 34q-25 22-40 53.5t-15 70.5q0 91 49.5 143t141.5 52h716z"/></svg>