<svg xmlns="http://www.w3.org/2000/svg" viewBox="0 0 2048 2048"><path d="M1984 320v1408q0 26-19 45t-45 19h-704v205L64 1731V317L1216 51v205h704q26 0 45 19t19 45M842 1194q0-59-18.5-99t-46.5-68q-28-28-61-47.5t-61-38Q627 923 608.5 902T590 850q0-32 16-45t42-23q5 0 9-1t8-1q47 0 80.5 13.5T814 837V656q-29-13-59.5-18.5T692 632q-21 0-42 2t-41 6q-41 8-73 29.5T482.5 722Q461 753 450 790.5T439 868q0 56 18 94.5t44.5 66Q528 1056 559 1076t57.5 38.5Q643 1133 661 1154t18 50q0 37-23 51t-55 14q-49 0-89.5-28.5T442 1176v186q23 15 43.5 25t41.5 16.5q21 6.5 44 9.5t51 3q103 0 161.5-59.5T842 1194m1078 534v-512h-704v128h192v64h-192v128h192v64h-192v128h704m0-672V320h-704v565q6-5 27.5-24t45.5-39.5q24-20.5 44.5-37T1359 768q11 0 15 7.5t10 13.5l344 363h128l-298-288q6-7 16-20t21.5-26q11.5-13 23-23t19.5-10q7 0 13.5 3t11.5 8l257 260m-64 288v64h-384v-64h384m-104-738q-30 0-51-21t-21-51q0-29 22-50t50-21q29 0 50 21t21 50q0 29-21 50.5t-50 21.5m104 930v64h-384v-64h384z"/></svg>