<svg xmlns="http://www.w3.org/2000/svg" viewBox="0 0 2048 2048"><path d="M1450 627q0-5 5-10 4-3 12-11.5t17-16.5q9-8 17.5-14.5t13.5-6.5q6 0 11 5l121 131 235-311q5-5 11-5 5 0 14 6t18.5 14q9.5 8 18 15.5T1956 434q5 5 5 11 0 5-3 9l-311 399-192-216q-5-5-5-10m427 397h-597V427h341v85h-256v427h427V806l85-109v327m0 341h-597v-256h597v256m-85-170h-427v85h427v-85m171-1024q35 0 60 25t25 60v1536q0 35-25 60t-60 25h-768v171L0 1821V257L1195 0v171h768M785 602H377v856h171v-324h218V959H548V775h237V602m1178-346h-768v1536h768V256m-683 1451v-256h597v256h-597m85-86h427v-85h-427v85z"/></svg>