<svg xmlns="http://www.w3.org/2000/svg" viewBox="0 0 2048 2048"><path d="M1191 968q92 11 167 45t128 89.5q53 55.5 82 132t29 170.5q0 88-25.5 160t-70.5 129.5q-45 57.5-106 100t-132 70q-71 27.5-148.5 41.5T959 1920H384V128h569q64 0 130.5 9.5t129 29.5q62.5 20 117.5 52t96.5 77.5Q1468 342 1492 402t24 136q0 79-23 146.5T1427.5 806q-42.5 54-102.5 94t-134 63v5m-511-91h193q67 0 127.5-16t105.5-50q45-34 71.5-87t26.5-127q0-69-26-114t-69-70.5q-43-25.5-98.5-35.5T896 367H680v510m254 806q70 0 133-16t110.5-50.5q47.5-34.5 75.5-89.5t28-133q0-85-33.5-139.5T1160 1169q-54-31-123.5-42.5T895 1115H680v568h254z"/></svg>