<svg xmlns="http://www.w3.org/2000/svg" viewBox="0 0 2048 2048"><path d="M1984 576v896q0 26-19 45t-45 19h-704v456L64 1791V263L1216 56v456h704q26 0 45 19t19 45M960 1018q0-69-18-136.5T887 760q-37-54-94.5-87T657 640q-86 0-149.5 32t-105 86q-41.5 54-62 125T320 1033q0 75 20.5 143t61 119.5q40.5 51.5 101.5 82t142 30.5q53 0 99-17t83-47q37-30 64.5-71t44.5-89q14-39 19-81.5t5-84.5m960 454V576h-704v282q5 5 23 22.5t42.5 41.5q24.5 24 51.5 51t50.5 49.5q23.5 22.5 39 37t17.5 14.5l5-2 475-464v144l-446 419q-15 13-34 13t-34-13l-190-179v480h704M794 1028q0 37-7.5 78.5t-26 76Q742 1217 711 1240t-77 23q-49 0-81.5-22t-52-56.5q-19.5-34.5-28-76.5t-8.5-83q0-42 8.5-84.5t28.5-77q20-34.5 53.5-56.5t83.5-22q46 0 76.5 24.5t48 61q17.5 36.5 24.5 79t7 78.5z"/></svg>