<svg xmlns="http://www.w3.org/2000/svg" viewBox="0 0 2048 2048"><path d="M1024 512q75 0 159.5 8t170.5 25.5q86 17.5 171.5 44t163.5 64q78 37.5 145.5 86T1953 848q43 51 69 111.5t26 128.5v128q0 40-15 75t-41 61q-26 26-61 41t-75 15h-256q-40 0-75-15t-61-41q-26-26-41-61t-15-75v-128q0-26-19-45t-45-19H704q-26 0-45 19t-19 45v128q0 40-15 75t-41 61q-26 26-61 41t-75 15H192q-40 0-75-15t-61-41q-26-26-41-61t-15-75v-128q0-68 26-128.5T95 848q51-60 118.5-108.5t145.5-86q78-37.5 163.5-64t171.5-44Q780 528 864 520t160-8m896 576q0-52-25-98.5t-63.5-85q-38.5-38.5-84.5-69t-87-52.5q-70-37-148.5-64T1351 674.5q-82-17.5-165-26t-162-8.5q-79 0-162 8.5t-165 26Q615 692 536.5 719T388 783q-41 22-87 52.5t-84.5 69Q178 943 153 989.5t-25 98.5v128q0 26 19 45t45 19h256q26 0 45-19t19-45v-128q0-40 15-75t41-61q26-26 61-41t75-15h640q40 0 75 15t61 41q26 26 41 61t15 75v128q0 26 19 45t45 19h256q26 0 45-19t19-45v-128z"/></svg>