<svg xmlns="http://www.w3.org/2000/svg" viewBox="0 0 2048 2048"><path d="M1933 1843l-90 90-235-234q-119 103-267.5 162t-316.5 59q-119 0-231.5-30.5T581 1803q-99-56-182-136.5T256 1486v306H128v-512h512v128H359q51 89 122.5 160T639 1688.5q86 49.5 183.5 76.5t201.5 27q141 0 266.5-48.5T1518 1608L439 530q-63 73-106 160t-63 187l-126-25q23-119 76-222.5T349 440L115 205l90-90 1728 1728M1024 256q-97 0-187 24t-171 67l-94-95q101-60 214.5-92t237.5-32q118 0 230 30.5t211.5 87q99.5 56.5 183 136.5T1792 562V256h128v512h-512V640h281q-51-88-122.5-159t-158-121q-86.5-50-184-77T1024 256m773 1221l-96-96q26-49 46-100.5t31-108.5l125 24q-14 77-41.5 146.5T1797 1477z"/></svg>