<svg xmlns="http://www.w3.org/2000/svg" viewBox="0 0 2048 2048"><path d="M2048 1023q0 123-31.5 237.5t-89.5 214q-58 99.5-139 181.5t-180 141q-99 59-213.5 91t-237.5 32q-124 0-238-32t-213-90.5Q607 1739 525.5 1657t-139-181.5q-57.5-99.5-89.5-214T265 1024V530q0-23-9-44.5T231 447L76 290q-28-28-28-67 0-40 27-67.5t67-27.5h984q91 0 180.5 17.5T1480 197q84 34 160.5 84T1782 395l-710 712-284-285q-14-14-33.5-22.5T715 791q-21 0-40 8t-33 22.5Q628 836 620 855t-8 40q0 42 30 72 90 90 178 180t181 178q16 14 33.5 22.5t39.5 8.5q20 0 39.5-8.5t33.5-22.5l766-768q69 106 102 222.5t33 243.5z"/></svg>