<svg xmlns="http://www.w3.org/2000/svg" viewBox="0 0 2048 2048"><path d="M2048 384v384q0 17-5.5 33.5T2028 832q9 14 14.5 30.5t5.5 33.5v256q0 17-5.5 33.5T2028 1216q9 14 14.5 30.5t5.5 33.5v384q0 27-10 50t-27.5 40.5Q1993 1772 1970 1782t-50 10h-128q0 27-10 50t-27.5 40.5Q1737 1900 1714 1910t-50 10h-384v128L0 1824V224L1280 0v128h384q27 0 50 10t40.5 27.5Q1772 183 1782 206t10 50h128q27 0 50 10t40.5 27.5Q2028 311 2038 334t10 50M1039 1552V495l-226 13q0 161 .5 319.5t.5 319.5q-4-5-7-11l-6-12-342-596-219 12v968l202 11v-243-167.5-107q0-39.5-.5-62t-1-32q-.5-9.5-.5-16.5l366 648 233 13m881 112v-384h-128v384h128m0-512V896h-128v256h128m0-384V384h-256V256h-384v320l128-64 256 128-256 128-128-64v143l128 64 128-64v113q0 19-15 31t-36 19.5q-21 7.5-42.5 10.5t-34.5 3q-13 0-34.5-3t-42.5-10.5q-21-7.5-36-19.5t-15-31v192h256v128h-256v128h256v128h-256v256h384V768h256z"/></svg>