<svg xmlns="http://www.w3.org/2000/svg" viewBox="0 0 2048 2048"><path d="M896 1019q-83-11-153.5-50.5t-121.5-99q-51-59.5-80-135T512 576q0-93 35-174.5T643 259q61-61 142.5-96T960 128q93 0 174.5 35t142.5 96q61 61 96 142.5t35 174.5q0 83-29 158.5t-80 135q-51 59.5-121.5 99T1024 1019v517H896v-517m64-763q-66 0-124.5 25.5t-102 69Q690 394 665 452t-25 124q0 66 25 124.5t68.5 102Q777 846 835.5 871T960 896q66 0 124-25t101.5-68.5q43.5-43.5 69-102T1280 576q0-66-25.5-124t-69-101.5q-43.5-43.5-101.5-69T960 256m960 896v768H0v-768h128v640h1664v-640h128z"/></svg>