<svg xmlns="http://www.w3.org/2000/svg" viewBox="0 0 2048 2048"><path d="M1984 384q26 0 45 19t19 45v1152q0 26-19 45t-45 19h-768v328L64 1791V263L1216 56v328h768M776 1265l-197-14v-150h196V939H579V782h197V621l-336 26v748l336 32v-162m1208-817h-768v64h39q10 0 16.5 4t13.5 10q5 5 21.5 20t34.5 32.5q18 17.5 32 32t14 17.5q0 4-7 16t-16 25q-9 13-17 23t-10 10q-5 0-14.5-9.5t-20-21.5q-10.5-12-22-21.5T1260 640h-44v279l136 133v11l-10 11q-3 2-5.5 3.5t-5.5 1.5q-3 0-20-8.5t-36.5-20q-19.5-11.5-36.5-22t-22-13.5v393q8 0 16.5-1.5t14.5-6.5q23-19 44-41t41-43l168-172q1 0 2-.5t2-.5q5 0 7 1 5 4 10.5 9t5.5 12q0 2-5.5 13.5t-13 25q-7.5 13.5-14 25t-8.5 14.5q-37 63-81 123t-93 118q-6 7-13.5 16t-16.5 17q-9 8-19 13.5t-19 5.5h-28v64h768V448m-626 446q-2-3-3.5-5.5t-1.5-5.5q0-2 6-13t13-24.5q7-13.5 13.5-25.5t8.5-15q37-63 81-123t91-116q1-1 2-1.5t2-2.5q12-15 29.5-32.5T1636 512h251q15 0 24 9t9 24v262q0 10-4 16.5t-10 13.5q-23 26-47.5 50.5T1811 938q-4 2-7 2-4 0-16-7.5t-25-16.5q-13-9-23-17t-10-10q0-5 9.5-14.5t21.5-20q12-10.5 21.5-22t9.5-20.5V654q0-5-4.5-9.5t-9.5-4.5h-118q-7 0-14.5 1.5T1633 648q-23 19-44 41t-41 43l-168 172h-11l-11-10m191 75q2 0 13 6t24.5 13q13.5 7 25.5 14t15 8q63 37 123.5 81.5T1868 1184q7 6 16 13.5t17 16.5q8 9 13.5 19t5.5 19v251q0 15-9 24t-24 9h-262q-10 0-16.5-4t-13.5-10q-26-23-50.5-47.5T1494 1427q-2-4-2-7 0-4 7.5-16t16.5-25q9-13 17-23t10-10q5 0 14.5 9.5t20 21.5q10.5 12 22 21.5t20.5 9.5h158q5 0 9.5-4.5t4.5-9.5v-118q0-7-1.5-14.5t-6.5-12.5q-19-23-41-44t-43-41l-172-168v-11l10-11q3-2 5.5-3.5t5.5-1.5z"/></svg>