<svg xmlns="http://www.w3.org/2000/svg" viewBox="0 0 2048 2048"><path d="M1905 1418l143 157v217h-128v-167l-101-112q-36 20-77 22l-78 89v168h-128v-216l72-82q-5-3-8.5-6.5l-7.5-7.5-248-249-192 193v496h128v128H640v-128h128v-576q0-38 14.5-73.5T824 1208l384-384q27-27 62.5-41.5T1344 768q38 0 73.5 14.5T1480 824l384 384q27 27 41.5 62.5t14.5 73.5q0 40-15 74m-862-247q61 29 90 90l256-256q19-19 19-45t-19-45q-19-19-45-19t-45 19l-256 256m-147 749h128v-576q0-26-19-45t-45-19q-26 0-45 19t-19 45v576m832-512q26 0 45-19t19-45q0-26-19-45l-256-256q-14 31-36.5 52.5T1434 1141l249 248q19 19 45 19m-1088 0v128H128V128h1152v512h-128V256H256v1152h384m128-896v384H640V512h128m-128 640v-128h128v128H640z"/></svg>