<svg xmlns="http://www.w3.org/2000/svg" viewBox="0 0 2048 2048"><path d="M2048 128v1408H704l-448 448v-448H0V128h2048M1024 1280H896v128h128v-128m264-640q0-68-26-127.5t-70.5-104q-44.5-44.5-104-70.5T960 312q-68 0-127.5 26t-104 70.5Q684 453 658 512.5T632 640q0 61 19 106.5t47.5 81.5q28.5 36 61.5 66t61.5 59.5Q850 983 869 1015t19 73v64h144v-64q0-61-19-106.5T965.5 900Q937 864 904 834t-61.5-59.5Q814 745 795 713t-19-73q0-38 14.5-71.5T830 510q25-25 58.5-39.5T960 456q38 0 71.5 14.5T1090 510q25 25 39.5 58.5T1144 640h144z"/></svg>