<svg xmlns="http://www.w3.org/2000/svg" viewBox="0 0 2048 2048"><path d="M1770 802q7-1 14-1.5t14-.5q45 0 84.5 18t69 49q29.5 31 47 71.5t17.5 85.5q0 47-17.5 87.5t-48 71q-30.5 30.5-71.5 48t-87 17.5q-2 0-4-.5t-4-.5q-39 99-111.5 176T1504 1545q-2 42-20 81t-47 69q-29 30-67.5 47.5T1288 1760q-28 0-53-5t-51-17v-404q25-12 50-17t52-5q44 0 84.5 18.5t70.5 50.5q63-34 111-88t72-122q-26-31-41-68.5t-15-78.5q0-77 48-137-29-67-80.5-118.5T1418 688q-26 20-60.5 34t-68.5 14q-29 0-54-4.5t-51-17.5V310q47-22 96-22 46 0 87 17.5t71.5 48q30.5 30.5 48 71.5t17.5 87v11q0 6-1 11 88 42 156.5 111T1770 802M584 852q0 6 1.5 13.5T590 878q3 6 12 12.5t15 10.5q46 29 88.5 55t75.5 57.5q33 31.5 52.5 74.5t19.5 107q0 61-19.5 108.5t-55 79.5q-35.5 32-84.5 49t-108 17q-60 0-116-14.5T366 1382q-1-2-2.5-9.5t-1.5-9.5v-264q22 23 44 47.5t47 45q25 20.5 53.5 33.5t63.5 13q11 0 20.5-2t17.5-8q8-10 8-22 0-21-19-37.5t-47.5-34.5q-28.5-18-61.5-39.5t-61.5-52Q398 1012 379 970t-19-101q0-67 23-117t63.5-83.5Q487 635 541 618t117-17q44 0 81.5 7.5T818 633q1 2 3 12t2 12v245q-23-18-43-34t-40.5-28Q719 828 696 821t-53-7q-13 0-21.5 1.5T601 822l-11 10q-3 5-4.5 9.5T584 852z"/></svg>