<svg xmlns="http://www.w3.org/2000/svg" viewBox="0 0 2048 2048"><path d="M1503 545q121 38 221.5 109.5t172.5 168q72 96.5 111.5 213.5t39.5 244q0 106-27.5 204t-77.5 183.5q-50 85.5-120 155.5t-155.5 120q-85.5 50-183.5 77.5t-204 27.5q-128 0-244.5-39.5t-213-111.5Q726 1825 654 1725t-109-222q-122-37-222-109t-172-168.5q-72-96.5-111.5-213T0 768q0-106 27.5-204T105 380.5Q155 295 225 225t155.5-120Q466 55 564 27.5T768 0q127 0 244 39.5T1225.5 151q96.5 72 168 172.5T1503 545M128 768q0 96 27.5 185.5T234 1120q51 77 122.5 137.5T516 1356q-2-19-3-38t-1-38q0-106 27.5-204T617 892.5Q667 807 737 737t155.5-120q85.5-50 183.5-77.5t204-27.5q19 0 38 1t38 3q-38-88-98.5-159.5T1120 234q-77-51-166.5-78.5T768 128q-88 0-170 23t-153 64.5q-71 41.5-129.5 100T215.5 445Q174 516 151 598t-23 170m512 512q0 56 11 117 61 11 117 11 40 0 79.5-5t77.5-14l-266-266q-9 38-14 77.5t-5 79.5m402 67q73-36 137-89L790 869q-53 64-89 137l341 341m216-168q53-64 89-137l-341-341q-73 36-137 89l389 389m150-411q0-56-11-117-61-11-117-11-40 0-79.5 5t-77.5 14l266 266q9-38 14-77.5t5-79.5m-128 1152q88 0 170-23t153-64.5q71-41.5 129.5-100t100-129.5q41.5-71 64.5-153t23-170q0-96-27.5-185.5T1814 928q-51-77-122.5-137.5T1532 692q2 19 3 38t1 38q0 106-27.5 204t-77.5 183.5q-50 85.5-120 155.5t-155.5 120q-85.5 50-183.5 77.5T768 1536q-19 0-38-1t-38-3q38 88 98.5 159.5T928 1814q77 51 166.5 78.5T1280 1920z"/></svg>