<svg xmlns="http://www.w3.org/2000/svg" viewBox="0 0 2048 2048"><path d="M960 0q132 0 255 34.5t229.5 97q106.5 62.5 194 150t150 194q62.5 106.5 97 229.5t34.5 255q0 132-34.5 255t-97 229.5q-62.5 106.5-150 194t-194 150q-106.5 62.5-229.5 97T960 1920q-95 0-192-20v-108h192q115 0 221-30t198.5-84q92.5-54 168.5-130t130-168.5q54-92.5 84-198.5t30-221q0-115-30-221t-84-198.5Q1624 448 1548 372t-168.5-130q-92.5-54-198.5-84t-221-30q-115 0-221 30t-198.5 84Q448 296 372 372T242 540.5Q188 633 158 739t-30 221q0 64 9.5 127.5T167 1212L67 1312q-33-85-48.5-173T3 960q0-132 34-254.5T133.5 476Q196 369 283 281.5t193.5-150Q583 69 705 34.5T960 0m576 1024H384V896h1152v128M250 1664l163 163-90 90L6 1600l317-317 90 90-163 163h518v128H250z"/></svg>