<svg xmlns="http://www.w3.org/2000/svg" viewBox="0 0 2048 2048"><path d="M1984 384v384q0 18-8 32 8 14 8 32v384q0 18-8 32 8 14 8 32v384q0 26-19 45t-45 19h-64q0 26-19 45t-45 19h-576v200L64 1791V263L1216 56v200h576q26 0 45 19t19 45h64q26 0 45 19t19 45M897 1397V631l-144 8v514L467 655l-146 5v706l115 6V854l307 534 154 9m1023 267v-384h-64v384h64m0-448V832h-64v384h64m0-448V384h-128v-64h-576v960h384v64h-384v128h384v64h-384v192h576V768h128m-230-200v58l38 50-38 50v57l-50 29-29 50h-12v233l-97-85-93 85V862h-14l-29-50-50-29v-57l-36-50 36-50v-58l50-29 29-50h58l50-36 50 36h58l29 50 50 29m-187 200q19 0 37-8.5t31-22q13-13.5 21-31.5t8-37q0-19-8-36.5t-21-30.5q-13-13-31-20.5t-37-7.5q-20 0-38 7.5t-31.5 20.5q-13.5 13-21.5 30.5t-8 36.5q0 19 8 37t21.5 31.5q13.5 13.5 31.5 22t38 8.5z"/></svg>