<svg xmlns="http://www.w3.org/2000/svg" viewBox="0 0 2048 2048"><path d="M662 847q0 74-34 111.5T519 996h-60V711q15-1 30.5-2t30.5-1q74 0 108 32t34 107M0 224L1152 0v2048L0 1824V224m239 1316l220 13v-351q17 0 34 .5t34 .5q23 0 44.5-1t44.5-4q70-10 125-42.5t93.5-81Q873 1026 893 964t20-130q0-80-20-143t-60.5-106.5Q792 541 731 518.5T588 496h-17q-9 0-18 1l-314 18v1025m1553-900v1024q0 26-10 49.5t-27.5 41q-17.5 17.5-41 27.5t-49.5 10h-384v-128h384v-128h-384v-128h384v-128h-384v-128h384V768h-384V640h512m133-384q26 0 48.5 10.5t39 28q16.5 17.5 26 41t9.5 48.5v960q0 26-19 45t-45 19h-64V640q0-26-10-49.5t-27.5-41q-17.5-17.5-41-27.5t-49.5-10l-384-192q0-26 19-45t45-19h453z"/></svg>