<svg xmlns="http://www.w3.org/2000/svg" viewBox="0 0 2048 2048"><path d="M2048 0v2048H0V0h2048M947 1655q88 0 173.5-18t152.5-60.5q67-42.5 108-112.5t41-173q0-76-26.5-133t-70.5-100q-44-43-101.5-76T1105 919l-37-18.5q-21-10.5-42.5-22.5t-41-25Q965 840 953 827q-20-20-28.5-43t-8.5-52q0-35 16-58.5t40.5-38q24.5-14.5 55-20.5t59.5-6q37 0 70.5 4.5t65 13.5q31.5 9 62 22.5T1347 681q4 2 7 2 14 0 14-14V449q0-9-9-13-29-13-65.5-21t-75.5-13q-39-5-77-7t-69-2q-85 0-165 21t-142.5 65.5Q702 524 664 592.5T626 756q0 70 21.5 122.5t57.5 93q36 40.5 81.5 71T879 1098q47 25 92.5 47.5t81.5 47.5q36 25 57.5 54t21.5 68q0 36-16.5 60t-42.5 38.5q-26 14.5-57.5 20T954 1439q-46 0-85-7t-74-21q-35-14-69.5-33.5T654 1332q-4-2-8-2-5 0-9.5 3.5t-4.5 9.5v236q0 8 7 12 33 18 71 30.5t78.5 20q40.5 7.5 81 10.5t77.5 3z"/></svg>