<svg xmlns="http://www.w3.org/2000/svg" viewBox="0 0 2048 2048"><path d="M558 1327q-37 0-69-21-34-22-55-54.5t-33-71q-12-38.5-16-78.5t-4-77q0-44 8-97.5t29-99.5q21-46 57.5-77t93.5-31q37 0 64.5 15t47 40.5Q700 801 712 833t19.5 66.5q7.5 34.5 10 68t2.5 61.5q0 45-7.5 97.5t-27.5 97q-20 44.5-56.5 74T558 1327M0 224L1152 0v2048L0 1824V224m593 272q-112 0-191 48T272.5 669Q222 746 199 842.5T176 1036q0 62 10 124t31.5 119q21.5 57 54 107t77.5 87q45 37 102 58t128 21q70 0 129-24.5t105.5-66.5q46.5-42 80-98.5T946 1242q17-55 23.5-112t6.5-114q0-55-6-110.5T947 797q-19-61-51-116t-76.5-96q-44.5-41-101-65T593 496m896 531l-209-172V512h667q13 0 27 .5t27 4q13 3.5 24 11t18 20.5l-554 479m-10 196q32 0 57-22l512-462v740q0 21-7 32.5t-19 17q-12 5.5-27.5 6.5t-31.5 1h-683v-466q60 51 93 78.5t48 40.5q18 15 21 17 8 8 16.5 12.5t20.5 4.5z"/></svg>