<svg xmlns="http://www.w3.org/2000/svg" viewBox="0 0 2048 2048"><path d="M1024 256q131 0 268.5 27.5t264 84.5q126.5 57 233 144T1964 718q41 71 62.5 147.5T2048 1024q0 82-21.5 158.5T1964 1330q-68 119-174.5 206t-233 144q-126.5 57-264 84.5T1024 1792q-131 0-268.5-27.5t-264-84.5q-126.5-57-233-144T84 1330q-41-71-62.5-147.5T0 1024q0-82 21.5-158.5T84 718q68-119 174.5-206t233-144q126.5-57 264-84.5T1024 256m0 1408q84 0 169-11.5t167-35.5q82-24 159.5-60.5T1665 1470q54-40 101-88.5t81-105q34-56.5 53.5-119.5t19.5-133q0-70-19.5-133T1847 771.5q-34-56.5-81-105T1665 578q-68-50-145.5-86.5T1360 431q-82-24-167-35.5T1024 384q-84 0-169 11.5T688 431q-82 24-159.5 60.5T383 578q-54 40-101 88.5t-81 105Q167 828 147.5 891T128 1024q0 70 19.5 133t53.5 119.5q34 56.5 81 105t101 88.5q68 50 145.5 86.5T688 1617q82 24 167 35.5t169 11.5z"/></svg>