<svg xmlns="http://www.w3.org/2000/svg" viewBox="0 0 2048 2048"><path d="M1024 255q-106 0-199.5 40.5t-163 110q-69.5 69.5-110 163T511 768v768h708l128 128h-67q0 53-20 99.5t-55 81.5q-35 35-81.5 55t-99.5 20q-53 0-99.5-20t-81.5-55q-35-35-55-81.5t-20-99.5H256v-128h129V768q0-88 23-170t64.5-153Q514 374 572 315.5t129-100Q772 174 854 151t170-23q88 0 170 23t153 64.5q71 41.5 129.5 100t100 129.5q41.5 71 64.5 153t23 170v579l-127-126V768q0-106-40.5-199.5t-110-163q-69.5-69.5-163-110T1024 255M904 1664q0 25 9.5 46.5t26 38q16.5 16.5 38 26t46.5 9.5q25 0 46.5-9.5t38-26q16.5-16.5 26-38t9.5-46.5H904m915 64l226 227-90 90-227-226-227 227-90-91 227-227-227-227 90-90 227 227 227-227 90 91-226 226z"/></svg>