<svg xmlns="http://www.w3.org/2000/svg" viewBox="0 0 2048 2048"><path d="M633 720q37 0 64.5 15t47 40.5Q764 801 776 833t19.5 66.5q7.5 34.5 10 68t2.5 61.5q0 46-7.5 98t-27.5 96.5q-20 44.5-56.5 74T622 1327q-37 0-69-21-33-22-54-54.5t-33-71q-12-38.5-16.5-78.5t-4.5-77q0-44 8-97t29-99.5q21-46.5 57.5-77.5t93.5-31m1287-336q27 0 50 10t40.5 27.5Q2028 439 2038 462t10 50v1024q0 27-10 50t-27.5 40.5Q1993 1644 1970 1654t-50 10h-640v384L0 1824V224L1280 0v384h640M643 1552q70 0 129-24.5t105.5-66.5q46.5-42 80-98.5T1010 1242q17-56 23.5-112t6.5-114q0-55-6-110.5T1011 797q-19-62-51-116.5T884 585q-44-41-101-65t-126-24q-112 0-191 48T336.5 669Q286 746 263 842.5T240 1036q0 62 10 124t31.5 119q21.5 57 54 107t77.5 87q45 37 102 58t128 21m1277-778l-406 399q-17 15-36 15t-36-15l-162-160v523h640V774m0-262h-640v282l193 190 5 2q4 0 6-2l436-429v-43z"/></svg>