<svg xmlns="http://www.w3.org/2000/svg" viewBox="0 0 2048 2048"><path d="M1877 1707h-426v-171h426v171m0-427h-426v-171h426v171m86-1109q35 0 60 25t25 60v1536q0 35-25 60t-60 25h-683V171h683m-1 231q0-7-4-10l-3-2q-4-4-11-10t-14.5-12q-7.5-6-14.5-10.5t-11-4.5q-7 0-10 5l-213 280-109-122q-4-4-11-4-3 0-12.5 6.5t-19 15q-9.5 8.5-17 17.5t-7.5 13q0 3 4 9l172 195 279-358q2-2 2-8m1 1049h-598v341h598v-341m0-427h-598v341h598v-341m0-517l-86 90v256h-426V427h341v-86h-427v598h598V507M0 257L1195 0v2048L0 1821V257m377 1201h171v-324h218V959H548V775h237V602H377v856z"/></svg>