<svg xmlns="http://www.w3.org/2000/svg" viewBox="0 0 2048 2048"><path d="M1920 128q27 0 50 10t40.5 27.5Q2028 183 2038 206t10 50v1536q0 27-10 50t-27.5 40.5Q1993 1900 1970 1910t-50 10h-640v128L0 1824V224L1280 0v128h640m-875 375H816l-177 729q-46-184-88.5-367T463 496H233q72 263 142 524t142 524l234 8 294-1049m235 649h128q27 0 50 10t40.5 27.5q17.5 17.5 27.5 40.5t10 50V972l-204-204h-52v384m320-297l151-151-151-151-151 151 151 151m-320 681h128v-256h-128v256m640-835l-256 271v308q0 27-10 50t-27.5 40.5Q1609 1388 1586 1398t-50 10v128q0 27-10 50t-27.5 40.5Q1481 1644 1458 1654t-50 10h-128v128h640V701m0-445h-640v384h52l268-256 320 312V256z"/></svg>