<svg xmlns="http://www.w3.org/2000/svg" viewBox="0 0 2048 2048"><path d="M1760 576q-42 0-82-12t-74-34q-34-22-61.5-53.5T1497 407l-349 100q2 17 3 34.5t1 34.5q0 99-32.5 191T1026 936l453 452q34-22 73-33t80-11q60 0 112.5 22.5t91.5 61.5q39 39 61.5 91.5T1920 1632q0 60-22.5 112.5T1836 1836q-39 39-91.5 61.5T1632 1920q-60 0-112.5-22.5T1428 1836q-39-39-61.5-91.5T1344 1632q0-41 11-80t33-73l-452-453q-77 61-169 93.5T576 1152q-31 0-61-3l-90 358q35 19 63 46t47.5 60q19.5 33 30 70.5T576 1760q0 60-22.5 112.5T492 1964q-39 39-91.5 61.5T288 2048q-60 0-112.5-22.5T84 1964q-39-39-61.5-91.5T0 1760q0-64 24-117t65-91q41-38 96-59t117-21l88-351q-87-30-159-84T107.5 911Q56 839 28 753.5T0 576q0-119 45.5-224T169 169q78-78 183-123.5T576 0q91 0 175.5 27.5t156 77.5q71.5 50 126 120.5T1118 382l354-101q1-58 24.5-109.5T1559 82q39-38 90.5-60T1760 0q60 0 112.5 22.5T1964 84q39 39 61.5 91.5T2048 288q0 60-22.5 112.5T1964 492q-39 39-91.5 61.5T1760 576M576 896q66 0 124-25t101.5-68.5q43.5-43.5 69-102T896 576q0-66-25.5-124t-69-101.5Q758 307 700 281.5T576 256q-66 0-124.5 25.5t-102 69Q306 394 281 452t-25 124q0 66 25 124.5t68.5 102Q393 846 451.5 871T576 896z"/></svg>