<svg xmlns="http://www.w3.org/2000/svg" viewBox="0 0 2048 2048"><path d="M1047 1002l-54-284h424l-370 284M1024 0q141 0 272 36.5T1540.5 140q113.5 67 207 160.5t160.5 207Q1975 621 2011.5 752t36.5 272q0 141-36.5 272T1908 1540.5q-67 113.5-160.5 207t-207 160.5q-113.5 67-244.5 103.5t-272 36.5q-141 0-272-36.5T507.5 1908q-113.5-67-207-160.5t-160.5-207Q73 1427 36.5 1296T0 1024q0-141 36.5-272T140 507.5q67-113.5 160.5-207t207-160.5Q621 73 752 36.5T1024 0M255 1500q103-81 205.5-161.5T666 1176q50-39 101.5-78t98.5-82l7-7v-7q-3-24-8-49t-9-49L701 169q-133 50-242 136.5T272.5 504q-77.5 112-120 244.5T110 1023q0 126 34 246.5T244 1497l11 3m962 350q-23-108-45.5-214.5T1126 1420q-15-72-30-142.5t-27-142.5q-1-5-1.5-10t-.5-10q0-27 10.5-43.5t28.5-34.5q13-14 29-25.5t31-22.5q35-28 69-55.5t69-54.5q107-84 213-166.5T1729 545L808 210q26 122 51 242.5T909 695q15 74 30.5 147T968 989q1 5 1.5 10t.5 10q0 26-9.5 42t-26.5 33q-14 14-30.5 26.5T872 1135q-29 24-58.5 48t-59.5 47q-99 78-196.5 154.5T360 1538l857 312m107 38q36-14 70.5-28t69.5-33q110-59 198.5-145t150-190.5Q1874 1387 1907 1268t33-244q0-114-28.5-224.5T1829 589q-110 86-218.5 171.5T1393 933q-55 43-112 85.5t-109 90.5l-6 6v8q7 60 22.5 126t27.5 126q26 129 53.5 256.5T1324 1888m-285-515l89 392-662-241 219-151h354z"/></svg>