<svg xmlns="http://www.w3.org/2000/svg" viewBox="0 0 2048 2048"><path d="M1920 2048H0L384 896h512V634q-56-12-103-41t-81-70.5Q678 481 659 429t-19-109q0-66 25-124t68.5-101.5q43.5-43.5 102-69T960 0q66 0 124 25.5t101.5 69q43.5 43.5 69 101.5t25.5 124q0 57-19 109t-53 93.5q-34 41.5-81 70.5t-103 41v262h512l384 1152M768 320q0 40 15 75t41 61q26 26 61 41t75 15q40 0 75-15t61-41q26-26 41-61t15-75q0-40-15-75t-41-61q-26-26-61-41t-75-15q-40 0-75 15t-61 41q-26 26-41 61t-15 75m256 704H896v480q0 9 7.5 15.5t18 10q10.5 3.5 21 5t17.5 1.5q7 0 17.5-1.5t21-5q10.5-3.5 18-10t7.5-15.5v-480z"/></svg>