<svg xmlns="http://www.w3.org/2000/svg" viewBox="0 0 2048 2048"><path d="M960 768q-68 0-144.5-6.5t-153-22Q586 724 514 699t-130-62v963q0 23 19 43.5t48.5 38.5q29.5 18 65.5 32t71 25q35 11 64.5 18t45.5 10q49 9 98.5 14.5t99.5 7.5v130q-44-2-108.5-9T652 1888q-71-15-142-39t-127.5-59q-56.5-35-91.5-82t-35-108V448q0-47 22-86t58.5-69.5q36.5-30.5 83-54.5t95-41q48.5-17 95-28t83.5-18q66-12 133-17.5t134-5.5q67 0 134 5.5t133 17.5q36 7 83 18t95.5 28.5q48.5 17.5 95 40.5t83 54q36.5 31 58.5 70t22 86v448h-128V637q-59 37-130.5 62t-148 40.5q-76.5 15.5-153 22T960 768m0-512q-57 0-130.5 6t-148 20.5Q607 297 538.5 322T424 385q-14 11-27 27.5T384 448q0 19 13 35.5t27 27.5q46 38 114.5 63t143 39.5Q756 628 829.5 634t130.5 6q57 0 130.5-6t148-20.5Q1313 599 1381 574t114-63q14-11 27.5-27.5T1536 448q0-19-13.5-35.5T1495 385q-46-38-114-63t-142.5-39.5q-74.5-14.5-148-20.5T960 256m1088 739v1053H1024V999l304 401 210-380 211 380 299-405m-128 389l-186 253-196-353-194 350-192-254v540h768v-536z"/></svg>