<svg xmlns="http://www.w3.org/2000/svg" viewBox="0 0 2048 2048"><path d="M1821 1315q0 102-26 195.5t-73.5 175Q1674 1767 1607 1834t-148.5 114.5q-81.5 47.5-175 73.5t-195.5 26q-102 0-195.5-26t-175-73.5Q636 1901 569 1834t-114.5-148.5q-47.5-81.5-73.5-175T355 1315q0-99 25.5-195.5T459 939q21 42 45 83t55.5 73.5Q591 1128 631 1148t93 20q46 0 86-17.5t70-47.5q30-30 47.5-70t17.5-86q0-39-12-70t-34-63q-26-37-45.5-72T821 670.5Q808 634 801.5 595t-6.5-86q0-95 33.5-182T921 171.5q59-68.5 140-114T1237 0q15 214 100 392.5T1571 723q122 125 186 271t64 321z"/></svg>