<svg xmlns="http://www.w3.org/2000/svg" viewBox="0 0 2048 2048"><path d="M2048 589v1459H384v-336L0 1651V512l384-55V0h1075l589 589M527 1405l216-637H595l-146 487-144-487H153l214 637h160m1393-637h-640V128H512v311l384-55v1408l-384-60v188h1408V768m0-128l-512-512v512h512m-640 384h384v290q60 35 94 94t34 128q0 53-20 99.5t-55 81.5q-35 35-81.5 55t-99.5 20q-53 0-99.5-20t-81.5-55q-35-35-55-81.5t-20-99.5q0-53 20-99.5t55-81.5q35-35 81.5-55t99.5-20v-128h-256v128h-256v-128h128v-128h-128V896h256v128m256 640q27 0 50-10t40.5-27.5q17.5-17.5 27.5-40.5t10-50q0-27-10-50t-27.5-40.5Q1609 1428 1586 1418t-50-10q-27 0-50 10t-40.5 27.5Q1428 1463 1418 1486t-10 50q0 27 10 50t27.5 40.5q17.5 17.5 40.5 27.5t50 10z"/></svg>