<svg xmlns="http://www.w3.org/2000/svg" viewBox="0 0 2048 2048"><path d="M1428 385q53-4 110 6.5t111.5 33q54.5 22.5 104 56t86.5 77q37 43.5 58.5 95.5t21.5 111q0 63-26.5 111.5t-70 81.5q-43.5 33-98.5 49.5t-113 16.5q-43 0-81-7 2 18 3.5 36t1.5 36q0 51-8.5 97.5T1505 1280H415q-12-49-21.5-95t-9.5-97q0-16 1-32t3-32q-54 0-101-19.5t-82.5-54Q169 916 148.5 869T128 768q0-53 20-99.5t55-81.5q35-35 81.5-55t99.5-20q69 0 126.5 33.5T604 638q85-69 176.5-97.5T980 512q-42-51-63-111.5T896 275q0-42 11-78t29-69q18-33 40.5-64T1022 1l406 384M256 768q0 27 10 50t27.5 40.5Q311 876 334 886t50 10q20 0 38-6 31-85 85-154-11-41-45.5-68.5T384 640q-27 0-50 10t-40.5 27.5Q276 695 266 718t-10 50m1147 384q3-16 4-32t1-32q0-30-5-59t-13-58q-42-21-80.5-50t-69.5-65q-31-36-53-78.5t-29-89.5q-46-23-96-35.5T960 640q-91 0-172 36t-142.5 97.5Q584 835 548 916t-36 172q0 16 1.5 32t3.5 32h240q11-38 11-75 0-57-24-108.5T676 880l82-98q66 55 101.5 130.5T895 1075q0 20-1.5 39t-5.5 38h515m210-257q30 0 62-7t58-23q26-16 42.5-41t16.5-61q0-55-33-101t-82.5-79.5q-49.5-33.5-107-52T1463 512q-20 0-39 3t-39 6l-342-323q-9 21-14 37.5t-5 39.5q0 38 11 73t31 65q20 30 48 53.5t63 38.5q32 14 67.5 18t69.5 9q-9 25-20 52.5t-11 54.5q0 59 32 106t81 80.5q49 33.5 107 51.5t110 18z"/></svg>