<svg xmlns="http://www.w3.org/2000/svg" viewBox="0 0 2048 2048"><path d="M1280 1024H897V896h383v128M896 768H256V640h640v128m1152-512v704q0-30-12-61t-30.5-60.5q-18.5-29.5-41-55T1921 739V384h-513v384h-128V384H768v128H640V384H128v1153h512V896h128v768H0V256h2048m-198 944q46 26 82.5 62t62 79.5q25.5 43.5 39.5 93t14 101.5h-128q0-53-20-99.5t-55-81.5q-35-35-81.5-55t-99.5-20q-53 0-99.5 20t-81.5 55q-35 35-55 81.5t-20 99.5q0 49-18.5 95t-51.5 81q46 26 82.5 62t62 79.5q25.5 43.5 39.5 93t14 101.5h-128q0-53-20-99.5t-55-81.5q-35-35-81.5-55t-99.5-20q-53 0-99.5 20t-81.5 55q-35 35-55 81.5t-20 99.5H768q0-52 14-101.5t39.5-93q25.5-43.5 62-79.5t82.5-62q-33-35-51.5-81t-18.5-95q0-53 20-99.5t55-81.5q35-35 81.5-55t99.5-20q49 0 95 18.5t81 51.5q54-96 150-150-33-35-51.5-81t-18.5-95q0-53 20-99.5t55-81.5q35-35 81.5-55t99.5-20q53 0 99.5 20t81.5 55q35 35 55 81.5t20 99.5q0 49-18.5 95t-51.5 81m-698 464q27 0 50-10t40.5-27.5q17.5-17.5 27.5-40.5t10-50q0-27-10-50t-27.5-40.5Q1225 1428 1202 1418t-50-10q-27 0-50 10t-40.5 27.5Q1044 1463 1034 1486t-10 50q0 27 10 50t27.5 40.5q17.5 17.5 40.5 27.5t50 10m384-640q0 27 10 50t27.5 40.5q17.5 17.5 40.5 27.5t50 10q27 0 50-10t40.5-27.5q17.5-17.5 27.5-40.5t10-50q0-27-10-50t-27.5-40.5Q1737 916 1714 906t-50-10q-27 0-50 10t-40.5 27.5Q1556 951 1546 974t-10 50z"/></svg>