<svg xmlns="http://www.w3.org/2000/svg" viewBox="0 0 2048 2048"><path d="M1088 192h896v1664h-896V192M976 1256q0 86-27 155t-76.5 118q-49.5 49-119 75T599 1630q-50 0-90.5-6t-77-18.5q-36.5-12.5-72-32T284 1526q-2-9-4-18.5t-2-18.5v-435q31 35 64 76t70.5 76.5q37.5 35.5 81 59.5t96.5 24l14-4 7-15q-1-21-26-41t-62.5-44q-37.5-24-80.5-55t-80.5-75q-37.5-44-62-104T275 810q0-94 31-167t86.5-123q55.5-50 132-76T692 418q66 0 120.5 13.5T928 469q2 11 5.5 23.5T937 516v393q-27-22-57-48t-63-48.5q-33-22.5-69-38T674 759q-10 0-21 1.5t-20 6.5l-8 10q-1 5-1 9.5V798q0 17 26 34.5t65 40.5q39 23 85 54.5t85 77q39 45.5 65 107t26 144.5z"/></svg>