<svg xmlns="http://www.w3.org/2000/svg" viewBox="0 0 2048 2048"><path d="M720 881q0 63-31 96t-95 33h-61V768q17-2 35-5t36-3q60 0 88 31.5t28 89.5m1264-625q26 0 45 19t19 45v1024q0 26-19 45t-45 19h-192v256q0 26-19 45t-45 19h-512v269L64 1731V317L1216 51v461h192V320q0-26 19-45t45-19h512M893 871q0-119-58.5-185.5T653 619q-67 0-134.5 5T384 633v779l149 17v-277q21-2 42.5-3.5t43.5-1.5q61 0 111.5-20t86.5-56.5q36-36.5 56-87.5t20-112m835 793V576h-512v128h384v256h-384v128h384v64h-384v128h384v64h-384v128h384v64h-384v128h512m256-320V320h-512l320 192v832h192z"/></svg>