<svg xmlns="http://www.w3.org/2000/svg" viewBox="0 0 2048 2048"><path d="M1664 576q0 119-45.5 224T1495 983q-78 78-183 123.5t-224 45.5q-99 0-191-32t-169-94l-619 619q-19 19-45 19t-45-19q-19-19-19-45t19-45l619-619q-62-77-94-169t-32-191q0-119 45.5-224T681 169q78-78 183-123.5T1088 0q119 0 224 45.5T1495 169q78 78 123.5 183t45.5 224m-1024 0q0 93 35.5 174.5t96 142q60.5 60.5 142 96T1088 1024q93 0 174.5-35.5t142-96q60.5-60.5 96-142T1536 576q0-93-35.5-174.5t-96-142q-60.5-60.5-142-96T1088 128q-93 0-174.5 35.5t-142 96q-60.5 60.5-96 142T640 576m1024 1344h128v128h-128v-128m64-704q53 0 99.5 20t81.5 55q35 35 55 81.5t20 99.5q0 47-17 89t-49 76h-1l-95 96q-14 14-20 28t-8.5 29.5q-2.5 15.5-2 32t.5 33.5h-128v-48q0-46 14-81t35.5-63q21.5-28 46.5-50.5t46.5-44.5q21.5-22 35.5-45t14-52q0-27-10-50t-27.5-40.5Q1801 1364 1778 1354t-50-10q-27 0-50 10t-40.5 27.5Q1620 1399 1610 1422t-10 50h-128q0-53 20-99.5t55-81.5q35-35 81.5-55t99.5-20z"/></svg>