<svg xmlns="http://www.w3.org/2000/svg" viewBox="0 0 2048 2048"><path d="M960 0Q828 0 705 34.5t-229.5 97q-106.5 62.5-194 150t-150 194Q69 582 34.5 705T0 960q0 132 34.5 255t97 229.5q62.5 106.5 150 194t194 150q106.5 62.5 229.5 97t255 34.5q132 0 255-34.5t229.5-97q106.5-62.5 194-150t150-194q62.5-106.5 97-229T1920 960q0-132-34.5-255t-97-229.5q-62.5-106.5-150-194t-194-150q-106.5-62.5-229-97T960 0m-64 1408h128v128H896v-128m-8-169q0-37-7-70t-36-62q-39-39-77-74.5T699.5 958q-30.5-39-49-85T632 768q0-68 26-127.5t70.5-104Q773 492 832.5 466T960 440q68 0 127.5 26t104 70.5q44.5 44.5 70.5 104t26 127.5h-144q0-38-14.5-71.5T1090 638q-25-25-58.5-39.5T960 584q-38 0-71.5 14.5T830 638q-25 25-39.5 58.5T776 768q0 41 19 73t47.5 61.5Q871 932 904 962t61.5 66q28.5 36 47.5 81.5t19 106.5v64H888v-41z"/></svg>