<svg xmlns="http://www.w3.org/2000/svg" viewBox="0 0 2048 2048"><path d="M1661 640q80 0 150.5 30t123 81.5q52.5 51.5 83 121.5t30.5 151q0 80-30 149.5t-82.5 122Q1883 1348 1813 1378t-149 30h-128v-128h128q53 0 99.5-20t81.5-55q35-35 55-81.5t20-99.5q0-53-20-99.5t-55-81.5q-35-35-81.5-55t-99.5-20h-128v-64q0-93-35.5-174.5t-96-142q-60.5-60.5-142-96T1088 256q-63 0-121.5 17t-109 48.5Q807 353 765 397.5T693 496l-25 46q-38-13-76.5-21.5T512 512q-80 0-149.5 30t-122 82.5Q188 677 158 747t-30 149q0 80 30 149.5t82.5 122q52.5 52.5 122 82.5t149.5 30h105q11-36 32-65.5t49.5-50.5q28.5-21 62.5-32.5t71-11.5q46 0 87 17.5t71.5 48q30.5 30.5 48 71.5t17.5 87q0 47-17.5 87.5t-48 71q-30.5 30.5-71.5 48t-87 17.5q-37 0-71-11.5t-62.5-32.5q-28.5-21-49.5-50.5t-32-65.5H512q-106 0-199-40.5t-162.5-110Q81 1188 40.5 1095T0 896q0-106 40.5-199t110-162.5Q220 465 313 424.5T512 384q46 0 93 9 39-61 92.5-110t116-83.5q62.5-34.5 132-53T1088 128q110 0 208.5 39T1472 275q77 69 127 162.5t62 202.5M832 832q106 0 199.5 40t163 109.5q69.5 69.5 109.5 163t40 199.5q0 106-40 199.5t-109.5 163q-69.5 69.5-163 109.5T832 1856q-103 0-196-38.5T470 1706l91-91q54 55 124 84t147 29q79 0 149-30.5t122-82.5q52-52 82.5-122t30.5-149q0-79-30.5-149t-82.5-122q-52-52-122-82.5T832 960q-77 0-147 29t-124 84l-91-91q73-73 166-111.5T832 832z"/></svg>