<svg xmlns="http://www.w3.org/2000/svg" viewBox="0 0 2048 2048"><path d="M1467 256q121 0 226.5 45.5T1878 426q79 79 124.5 185t45.5 227v628q0 121-45.5 227T1878 1878q-79 79-184.5 124.5T1467 2048H838q-121 0-227-45.5T426.5 1878q-78.5-79-124-185T257 1466V838q0-121 45.5-227t124-185Q505 347 611 301.5T838 256h629M715 996q45 0 84.5-17t69-46.5q29.5-29.5 46.5-69t17-84.5q0-45-17-84.5t-46.5-69Q839 596 799.5 579T715 562q-45 0-84.5 17t-69 46.5Q532 655 515 694.5T498 779q0 45 17 84.5t46.5 69q29.5 29.5 69 46.5t84.5 17m693 846q78 0 146.5-29.5T1674 1732q51-51 80.5-119.5T1784 1466q0-78-29.5-146.5T1674 1200q-51-51-119.5-80.5T1408 1090q-78 0-146.5 29.5T1142 1200q-51 51-80.5 119.5T1032 1466q0 78 29.5 146.5T1142 1732q51 51 119.5 80.5T1408 1842M384 192q0 40-15 75t-41 61q-26 26-61 41t-75 15q-40 0-75-15t-61-41q-26-26-41-61T0 192q0-40 15-75t41-61q26-26 61-41t75-15q40 0 75 15t61 41q26 26 41 61t15 75z"/></svg>