<svg xmlns="http://www.w3.org/2000/svg" viewBox="0 0 2048 2048"><path d="M256 1920h128v128H128V0h1115l549 549v731h-128V640h-512V128H256v1792M1280 512h293l-293-293v293M675 1558q0 26 19.5 44.5t48 34.5q28.5 16 62.5 32t62.5 37.5q28.5 21.5 48 51T935 1829q0 45-18.5 74.5t-48.5 47q-30 17.5-67.5 24.5t-74.5 7q-15 0-35-2t-40.5-5.5Q630 1971 611 1965t-32-14v-95q12 12 30 21.5t37.5 15.5q19.5 6 39.5 9.5t37 3.5q19 0 39-2.5t37-11q17-8.5 28-23t11-38.5q0-27-19.5-45.5t-48-34q-28.5-15.5-62.5-31t-62.5-36.5q-28.5-21-48-50.5T578 1561q0-41 19-70t49-47.5q30-18.5 66.5-27t71.5-8.5q30 0 65 3.5t62 16.5v91q-26-19-58-26.5t-64-7.5q-17 0-37 3.5t-37 11.5q-17 8-28.5 22t-11.5 36m860 130q0 35-5.5 69t-18.5 65.5q-13 31.5-33 59.5t-48 50l161 116h-140l-100-77q-22 5-42.5 8t-42.5 3q-62 0-111.5-21t-83.5-58.5q-34-37.5-52-89t-18-111.5q0-63 18-117t53-93.5q35-39.5 86-61.5t117-22q61 0 109.5 22t82 59.5q33.5 37.5 51 89T1535 1688m-269 214q46 0 78.5-16.5t53.5-44.5q21-28 30.5-65.5t9.5-78.5q0-40-9-78t-29-66.5q-20-28.5-52-46t-78-17.5q-44 0-76 17.5t-53.5 46.5q-21.5 29-32 66.5T1098 1696q0 39 10 76t30.5 66q20.5 29 52 46.5t75.5 17.5m679-7v78h-308v-556h92v478h216z"/></svg>