<svg xmlns="http://www.w3.org/2000/svg" viewBox="0 0 2048 2048"><path d="M2048 256v1536q0 27-10 50t-27.5 40.5Q1993 1900 1970 1910t-50 10h-640v128L0 1824V224L1280 0v128h640q27 0 50 10t40.5 27.5Q2028 183 2038 206t10 50M970 834q0-161-79.5-249.5T646 496q-88 0-174.5 7T297 515v1025l220 13v-351q23 0 45 .5t45 .5q82 0 149-27.5t114.5-76Q918 1051 944 983t26-149m950 958V256h-640v128h384v256h215q14 0 23 9.5t9 22.5q0 12-8 22l-303 330-303-330q-8-10-8-22 0-13 9-22.5t23-9.5h215V512h-256v769l190-190 250 250-250 250-190-190v391h640M720 847q0 74-34 111.5T577 996h-60V711q15-1 30.5-2t30.5-1q74 0 108 32t34 107z"/></svg>