<svg xmlns="http://www.w3.org/2000/svg" viewBox="0 0 2048 2048"><path d="M1216 640v192H832V640q0-40 15-75t41-61q26-26 61-41t75-15q40 0 75 15t61 41q26 26 41 61t15 75m-512 704V896h640v448H704m1152-997v443q0 132-33 248t-91.5 218q-58.5 102-138 192t-172 169q-92.5 79-194 148.5T1024 1897q-103-62-204-131.5T626.5 1617q-92.5-79-172-169t-138-192Q258 1154 225 1038t-33-248V347q75 0 142-5t130-19q63-14 125-39.5T716 217q73-46 147-67.5t161-21.5q88 0 162 22t148 68q64 41 126 66t125 39q63 14 129.5 19t141.5 5m-448 1061V832h-128V640q0-52-20.5-99t-55-81.5q-34.5-34.5-81.5-55t-99-20.5q-53 0-99.5 20.5t-81 55Q809 494 788.5 541T768 640v192H640v576h768z"/></svg>