<svg xmlns="http://www.w3.org/2000/svg" viewBox="0 0 2048 2048"><path d="M576 1152q93 0 174.5 35t142.5 96q61 61 96 142.5t35 174.5q0 93-35 174.5T893 1917q-61 61-142.5 96T576 2048q-93 0-174.5-35T259 1917q-61-61-96-142.5T128 1600q0-93 35-174.5t96-142.5q61-61 142.5-96t174.5-35m-320 448q0 66 25 124.5t68.5 102q43.5 43.5 102 68.5t124.5 25q47 0 92-13.5t84-39.5l-443-443q-26 39-39.5 84t-13.5 92m587 176q26-39 39.5-84t13.5-92q0-66-25.5-124t-69-101.5q-43.5-43.5-101.5-69T576 1280q-47 0-92 13.5t-84 39.5l443 443m1205 272l-633-158-263-263v-182l276 277q16-52 44.5-98.5t66.5-84.5q38-38 84-66t99-45L640 347 347 640l384 384H549L98 573q-48-48-73-109.5T0 336q0-70 26.5-131t72-106.5Q144 53 205 26.5T335 0q67 0 128.5 25T573 98l1304 1305 13 12 158 633M549 256q-25-25-47-48t-46.5-41Q431 149 402 138.5T335 128q-43 0-80.5 16.5T189 189q-28 28-44.5 66T128 336q0 38 10.5 66.5t28.5 53q18 24.5 41 46.5t48 47l293-293m1323 1616l-82-329q-47 10-87.5 32.5t-73 54.5q-32.5 32-54.5 73t-32 87l329 82z"/></svg>