<svg xmlns="http://www.w3.org/2000/svg" viewBox="0 0 2048 2048"><path d="M925 1280q0 34-24 58l-193 193q-24 24-59 24t-59-23.5q-24-23.5-24-58.5t24-59l193-193q24-24 59-24t59 24q24 24 24 59m-205-104q0 35-24 59l-143 142q-24 24-58 24-35 0-59-23.5t-24-58.5q0-35 24-59l142-143q11-11 27-17.5t32-6.5q35 0 59 24t24 59m345 273q0 33-25 58l-178 178q-24 24-59 24t-59-23.5q-24-23.5-24-58.5t24-59l179-178q25-25 58-25 34 0 59 24.5t25 59.5m-108 415q-35 0-59-24t-24-59q0-35 24-59l135-134q25-25 59-25 35 0 59 25t24 60q0 16-7 31t-18 26l-134 135q-24 24-59 24m963-1153q0 88-23 154.5t-62 123q-39 56.5-90.5 108T1637 1206l-590-593-297 295q-30 28-70 28-41 0-69.5-28.5T582 838q0-41 29-70l428-426q74-73 168-111.5t198-38.5q107 0 201 41t163.5 112q69.5 71 110 165.5T1920 711m-272 604q0 35-24 59t-59 24q-34 0-58-24l-307-308q-7-7-19-7-11 0-19 7t-8 19q0 10 8 18l336 336q25 25 25 59 0 35-24.5 59t-59.5 24q-34 0-58-24l-336-336q-7-7-19-7-11 0-18.5 7.5t-7.5 18.5q0 10 8 18l336 336q24 24 24 59t-24 59q-24 24-59 24-26 0-42-11.5t-33-29.5q10-21 10-49 0-27-10.5-50.5t-28-41q-17.5-17.5-41.5-27t-51-9.5q20-31 20-69 0-27-10-50.5t-27.5-41Q1054 1340 1031 1330t-49-10q-5 0-9.5.5t-9.5 1.5q3-11 5-21.5t2-21.5q0-26-10-49.5t-27.5-41q-17.5-17.5-41-27.5t-49.5-10q-21 0-40.5 7t-36.5 19q0-27-10-50.5t-27-41q-17-17.5-40.5-27.5t-50.5-10q-25 0-49 9.5t-42 27.5l-127 128q-60-61-113-113.5t-92.5-110Q174 932 151 864t-23-160q0-106 41.5-199t112-162.5Q352 273 446 232.5T645 192q97 0 186 34.5T992 326L579 736q-20 20-31.5 46.5T536 838q0 30 11.5 56t31 45.5q19.5 19.5 46 31T680 982q29 0 55.5-11t46.5-31l265-264 577 580q24 24 24 59m-583 539l111-111q8 18 8 36 0 35-24 59t-59 24q-18 0-36-8z"/></svg>