<svg xmlns="http://www.w3.org/2000/svg" viewBox="0 0 2048 2048"><path d="M64 263L1216 56v1936L64 1791V263m341 515h168v614h131V777h171V642H405v136m1419 118q-33 0-62-12.5t-51-34.5q-22-22-34.5-51t-12.5-62q0-33 12.5-62t34.5-51q22-22 51-34.5t62-12.5q33 0 62 12.5t50.5 34.5q21.5 22 34 51t12.5 62q0 33-12.5 62t-34 51q-21.5 22-50.5 34.5t-62 12.5m-160 128h319v272q0 47-17.5 87.5t-47.5 71q-30 30.5-71 48t-87 17.5h-96v-496m-256-256q-38 0-71.5-17t-56.5-48V513q23-31 56.5-48t71.5-17q33 0 62 12.5t51 34.5q22 22 34.5 51t12.5 62q0 33-12.5 62t-34.5 51q-22 22-51 34.5t-62 12.5m-128 128h320v560q0 40-15 75t-41 61q-26 26-61 41t-75 15h-128V896z"/></svg>