<svg xmlns="http://www.w3.org/2000/svg" viewBox="0 0 2048 2048"><path d="M960 4q132 0 254 34t228.5 96.5Q1549 197 1636 284t149.5 193.5Q1848 584 1882 706t34 254q0 132-34 254t-96.5 228.5Q1723 1549 1636 1636t-193.5 149.5Q1336 1848 1214 1882t-254 34q-132 0-254-34t-228.5-96.5Q371 1723 284 1636t-149.5-193.5Q72 1336 38 1214T4 960q0-132 34-254t96.5-228.5Q197 371 284 284t193.5-149.5Q584 72 706 38T960 4m0 1792q115 0 222-30t200-84.5q93-54.5 169-130.5t130.5-169q54.5-93 84.5-200t30-222q0-115-30-222t-84.5-200Q1627 445 1551 369t-169-130.5q-93-54.5-200-84.5t-222-30q-115 0-222 30t-200 84.5Q445 293 369 369T238.5 538Q184 631 154 738t-30 222q0 115 30 222t84.5 200q54.5 93 130.5 169t169 130.5q93 54.5 200 84.5t222 30m-64-388h128v128H896v-128m64-960q66 0 124 25.5t101.5 69q43.5 43.5 69 101.5t25.5 124q0 60-19 104.5t-47.5 80.5q-28.5 36-61.5 65.5t-61.5 59q-28.5 29.5-47.5 63t-19 75.5v64H896v-64q0-60 19-104.5t47.5-80.5q28.5-36 61.5-65.5t61.5-59Q1114 877 1133 844t19-76q0-40-15-75t-41-61q-26-26-61-41t-75-15q-40 0-75 15t-61 41q-26 26-41 61t-15 75H640q0-66 25-124t68.5-101.5q43.5-43.5 102-69T960 448z"/></svg>