<svg xmlns="http://www.w3.org/2000/svg" viewBox="0 0 2048 2048"><path d="M960 0q132 0 255 34.5t229.5 97q106.5 62.5 194 150t150 194q62.5 106.5 97 229.5t34.5 255q0 132-34.5 255t-97 229.5q-62.5 106.5-150 194t-194 150q-106.5 62.5-229.5 97T960 1920q-132 0-255-34.5t-229.5-97q-106.5-62.5-194-150t-150-194q-62.5-106.5-97-229T0 960q0-132 34.5-255t97-229.5q62.5-106.5 150-194t194-150q106.5-62.5 229-97T960 0m64 1408H896v128h128v-128m8-169q0-37 7-70t36-62q39-39 77-74.5t68.5-74.5q30.5-39 49-85t18.5-105q0-68-26-127.5t-70.5-104q-44.5-44.5-104-70.5T960 440q-68 0-127.5 26t-104 70.5Q684 581 658 640.5T632 768h144q0-38 14.5-71.5T830 638q25-25 58.5-39.5T960 584q38 0 71.5 14.5T1090 638q25 25 39.5 58.5T1144 768q0 41-19 73t-47.5 61.5Q1049 932 1016 962t-61.5 66q-28.5 36-47.5 81.5T888 1216v64h144v-41z"/></svg>