<svg xmlns="http://www.w3.org/2000/svg" viewBox="0 0 2048 2048"><path d="M1472 1152q93 0 174.5 35t142.5 96q61 61 96 142.5t35 174.5q0 93-35 174.5t-96 142.5q-61 61-142.5 96t-174.5 35q-93 0-174.5-35t-142.5-96q-61-61-96-142.5t-35-174.5q0-93 35-174.5t96-142.5q61-61 142.5-96t174.5-35m-320 448q0 66 25 124.5t68.5 102q43.5 43.5 102 68.5t124.5 25q47 0 92-13.5t84-39.5l-443-443q-26 39-39.5 84t-13.5 92m587 176q26-39 39.5-84t13.5-92q0-66-25.5-124t-69-101.5q-43.5-43.5-101.5-69t-124-25.5q-47 0-92 13.5t-84 39.5l443 443m251-1028q-33 33-64.5 60.5t-65 46.5q-33.5 19-73 29.5T1698 895q-34 0-65-6l-134 135h-182l278-278 10 3q23 7 46 12.5t47 5.5q55 0 104-26l-495-495q-26 49-26 104 0 24 5.5 47t12.5 46l3 10-492 491q-24-10-46-19t-44-15q-22-6-45.5-9.5T624 897q-57 0-111 16.5T413 962l483 483v182l-192-193-568 569-136 45 45-136 569-568-386-386 45-45q70-70 162-107t191-37q39 0 77.5 6.5T780 794l379-379q-6-31-6-65 0-49 10.5-88.5T1193 188q19-34 46.5-65.5T1300 58l690 690z"/></svg>