<svg xmlns="http://www.w3.org/2000/svg" viewBox="0 0 2048 2048"><path d="M1168 946q86 33 161.5 85t137.5 121h-189q-83-62-180.5-95T896 1024q-88 0-170 23t-153 64.5q-71 41.5-129.5 100t-100 129.5q-41.5 71-64.5 153t-23 170H128q0-120 35.5-231T264 1228q65-94 156.5-167T624 946q-113-74-176.5-186T384 512q0-106 40-199.5t109.5-163Q603 80 696.5 40T896 0q106 0 199.5 40t163 109.5q69.5 69.5 109.5 163t40 199.5q0 66-16.5 129T1344 760q-31 56-75.5 103.5T1168 946M512 512q0 80 30 149.5t82.5 122Q677 836 746.5 866T896 896q79 0 149-30t122.5-82.5q52.5-52.5 82.5-122t30-149.5q0-79-30-149t-82.5-122.5Q1115 188 1045 158t-149-30q-80 0-149.5 30t-122 82.5Q572 293 542 363t-30 149m1408 768v768h-128v-768h128m-512 0h128v768h-128v-768z"/></svg>