<svg xmlns="http://www.w3.org/2000/svg" viewBox="0 0 2048 2048"><path d="M1350 1046q-32 15-62.5 33t-58.5 40q-75-47-160-71t-173-24q-88 0-170 23t-153 64.5q-71 41.5-129.5 100t-100 129.5q-41.5 71-64.5 153t-23 170H128q0-120 35.5-231T264 1228q65-94 156.5-167T624 946q-113-74-176.5-186T384 512q0-106 40-199.5t109.5-163Q603 80 696.5 40T896 0q106 0 199.5 40t163 109.5q69.5 69.5 109.5 163t40 199.5q0 66-16.5 129T1344 760q-31 56-75.5 103.5T1168 946q96 37 182 100M512 512q0 80 30 149.5t82.5 122Q677 836 746.5 866T896 896q79 0 149-30t122.5-82.5q52.5-52.5 82.5-122t30-149.5q0-79-30-149t-82.5-122.5Q1115 188 1045 158t-149-30q-80 0-149.5 30t-122 82.5Q572 293 542 363t-30 149m1536 640v384h-384v-128h190q-45-60-112-94t-142-34q-59 0-111.5 20t-94.5 55.5q-42 35.5-70 84.5t-38 107l-127-22q14-81 54-149t98.5-118q58.5-50 132.5-78t156-28q91 0 174 35.5t146 101.5v-137h128m-448 768q58 0 111-20t95-55.5q42-35.5 70-84.5t38-107l127 22q-14 81-54 149t-98.5 118q-58.5 50-132.5 78t-156 28q-91 0-174-35.5T1280 1911v137h-128v-384h384v128h-190q45 60 112 94t142 34z"/></svg>