<svg xmlns="http://www.w3.org/2000/svg" viewBox="0 0 2048 2048"><path d="M1397 1550q-21-114-78.5-210t-141-166.5q-83.5-70.5-188.5-110T768 1024q-88 0-170 23t-153 64.5q-71 41.5-129.5 100t-100 129.5q-41.5 71-64.5 153t-23 170H0q0-117 35.5-229t101-207.5q65.5-95.5 157-169T496 946q-56-36-100.5-83T320 760q-31-56-47.5-119T256 512q0-106 40-199.5t109.5-163Q475 80 568.5 40T768 0q106 0 199.5 40t163 109.5q69.5 69.5 109.5 163t40 199.5q0 66-16.5 129T1216 760q-31 56-75.5 103.5T1040 946q99 38 183 100t147.5 143q63.5 81 104.5 177.5t54 201.5l-57 58-75-76M384 512q0 80 30 149.5t82.5 122Q549 836 618.5 866T768 896q79 0 149-30t122.5-82.5q52.5-52.5 82.5-122t30-149.5q0-79-30-149t-82.5-122.5Q987 188 917 158t-149-30q-80 0-149.5 30t-122 82.5Q444 293 414 363t-30 149m1645 941l-557 558-269-270 90-90 179 178 467-466 90 90z"/></svg>