<svg xmlns="http://www.w3.org/2000/svg" viewBox="0 0 2048 2048"><path d="M1072 732H848l-159 743q-17 78-58 158.5t-100.5 146q-59.5 65.5-136 107T231 1928q-26 0-53-5t-49-17q-22-12-36.5-32.5T78 1822q0-40 24.5-68.5T169 1725q25 0 45 11t36 28q16 17 29 38t25 40l7 12q32-2 58-22t46.5-50q20.5-30 36.5-67.5t28-75q12-37.5 20.5-72T514 1509l167-777H505l20-81h173l12-62q16-80 54.5-161T861 282q58-65 133.5-105.5T1160 136q26 0 53 5t49.5 17q22.5 12 36.5 32.5t14 51.5q0 42-22.5 70.5T1223 341q-32 0-53-12.5t-36-31.5q-15-19-27.5-42t-25.5-45q-37 2-66 28t-51.5 66.5Q941 345 925 394t-27.5 97.5Q886 540 878 582.5T865 651h226l-19 81m664 64q-25 20-53 53t-54.5 69.5q-26.5 36.5-50 73.5t-39.5 65q10 41 19 81t20 81q10 37 22.5 77t33.5 73.5q21 33.5 52 55t78 21.5q12 0 28-1.5t32.5-4q16.5-2.5 32-6t26.5-8.5l-16 59q-30 13-56.5 24t-52.5 19q-26 8-54.5 12.5t-61.5 4.5q-44 0-72.5-12.5t-47-35Q1504 1475 1492 1443t-24-70q-14-44-25-87t-22-88q-38 60-76 115.5t-83 109.5q-20 24-40 46t-43.5 39q-23.5 17-50.5 27t-60 10q-42 0-69.5-24t-27.5-68q0-26 10-45.5t27-32.5q17-13 39-19.5t46-6.5q30 0 57.5 11t56.5 19q57-57 106.5-121t87.5-134l-2-10q-4-19-12-51t-17.5-69.5Q1360 956 1348 917t-24.5-72q-12.5-33-26-57.5T1271 755q-34-20-77-20-27 0-56 5.5t-54 16.5l16-60q14-6 42-17t58-22q30-11 58-19t42-8q44 0 73.5 14t49.5 39q20 25 33 58t24 71q11 39 20.5 79.5T1518 973l2 8q0 2 .5 3t.5 3q19-30 41-68t48-78q26-40 55.5-78.5T1728 694q33-30 70-48.5t78-18.5q39 0 66.5 26t27.5 66q0 25-10 44t-26.5 32q-16.5 13-38 19.5T1851 821q-26 0-58-8.5t-57-16.5z"/></svg>