<svg xmlns="http://www.w3.org/2000/svg" viewBox="0 0 2048 2048"><path d="M2048 128v1664H0V128h2048M128 256v256h1792V256H128m1792 1408V640H128v1024h1792m-640-896q27 0 46.5 18t19.5 46q0 35-25.5 53.5T1263 904q-18 0-40.5-6t-39.5-12q-17 14-36.5 37t-38 48.5Q1090 997 1074 1023t-28 45q5 21 10.5 49.5t13.5 58.5q8 30 18.5 59.5t26.5 52.5q16 23 37.5 37t50.5 14q17 0 42.5-4t40.5-10l-12 42-6 3q-20 9-38 16t-35.5 12q-17.5 5-36.5 7.5t-41 2.5q-30 0-49.5-8.5T1035 1376q-13-15-21.5-36.5T997 1292q-10-31-18-62.5t-16-63.5q-20 30-46 71.5t-57.5 79.5q-31.5 38-67.5 64.5t-75 26.5q-29 0-48.5-17t-19.5-47q0-36 26.5-54.5T735 1271q21 0 40 8t39 13q40-38 74.5-84t60.5-94q-4-17-13-56t-21.5-81q-12.5-42-27-76.5T859 857q-12-8-26-11t-28-3q-19 0-39 4t-38 11l12-41q10-4 29-12t40-15.5q21-7.5 40.5-13.5t29.5-6q31 0 51.5 10t34.5 27.5q14 17.5 22.5 40.5t16.5 49q9 30 16 60.5t13 61.5q19-31 44.5-74t56-82.5q30.5-39.5 67.5-67t79-27.5m-749 0q-54 71-82.5 151.5T420 1090q0 89 28.5 168.5T531 1408h-93q-62-67-90-147t-28-171q0-183 118-322h93m1011 0q118 139 118 322 0 91-28.5 171t-89.5 147h-94q55-70 83.5-149.5T1560 1090q0-90-29-170t-83-152h94z"/></svg>