<svg xmlns="http://www.w3.org/2000/svg" viewBox="0 0 2048 2048"><path d="M1920 128v1792H128V128h1792m-119 119H247v1554h1554V247M639 1664L368 896h140l189 583q5 16 8.5 32t7.5 33q2-17 6.5-33t9.5-33l194-582h135l-276 768H639m1025-221q0 56-23.5 97.5t-61.5 69q-38 27.5-86.5 41T1394 1664h-242V896h240q41 0 83.5 9t77 30q34.5 21 56 54.5t21.5 82.5q0 67-37 114t-100 70q78 9 124.5 58.5T1664 1443m-387-226h81q29 0 54.5-7t44.5-21.5q19-14.5 30-37t11-54.5q0-29-11-48t-29-30.5q-18-11.5-41.5-16T1368 998h-91v219m107 345q30 0 56.5-7t46.5-21.5q20-14.5 31.5-38t11.5-56.5q0-36-14-59.5t-36.5-37Q1457 1329 1428 1324t-60-5h-91v243h107z"/></svg>