<svg xmlns="http://www.w3.org/2000/svg" viewBox="0 0 2048 2048"><path d="M1664 0v128H256V0h1408m-640 603v554q83 11 153.5 50.5t121.5 99q51 59.5 80 135t29 158.5q0 93-35 174.5t-96 142.5q-61 61-142.5 96T960 2048q-93 0-174.5-35T643 1917q-61-61-96-142.5T512 1600q0-83 29-158.5t80-135q51-59.5 121.5-99T896 1157V603L557 941l-90-90 493-493 493 493-90 90-339-338m256 997q0-66-25.5-124t-69-101.5q-43.5-43.5-101.5-69T960 1280q-66 0-124.5 25.5t-102 69Q690 1418 665 1476t-25 124q0 66 25 124.5t68.5 102q43.5 43.5 102 68.5t124.5 25q66 0 124-25t101.5-68.5q43.5-43.5 69-102T1280 1600z"/></svg>