<svg xmlns="http://www.w3.org/2000/svg" viewBox="0 0 2048 2048"><path d="M1600 1152q93 0 174.5 35t142.5 96q61 61 96 142.5t35 174.5q0 93-35 174.5t-96 142.5q-61 61-142.5 96t-174.5 35q-93 0-174.5-35t-142.5-96q-61-61-96-142.5t-35-174.5q0-93 35-174.5t96-142.5q61-61 142.5-96t174.5-35m-320 448q0 66 25 124.5t68.5 102q43.5 43.5 102 68.5t124.5 25q47 0 92-13.5t84-39.5l-443-443q-26 39-39.5 84t-13.5 92m587 176q26-39 39.5-84t13.5-92q0-66-25.5-124t-69-101.5q-43.5-43.5-101.5-69t-124-25.5q-47 0-92 13.5t-84 39.5l443 443m181-1272v686q-57-63-128-106V711l-384 193v92q-33 3-65 10t-63 18V640H128v768h896q-11 31-18 63t-10 65H0V512h1536v248l512-256z"/></svg>