<svg xmlns="http://www.w3.org/2000/svg" viewBox="0 0 2048 2048"><path d="M2048 256v639q-28-28-60.5-50.5T1920 803V384h-128v128h-128V384H384v128H256V384H128v1152h128v-128h128v128h707l-128 128H0V256h2048m-256 384v113q-32-8-64-12.5t-64-4.5v-96h128M384 1024H256V896h128v128m0-256H256V640h128v128m-128 384h128v128H256v-128m1408-256q79 0 149 30t122.5 82.5Q1988 1061 2018 1131t30 149q0 80-30 149.5t-82.5 122Q1883 1604 1813 1634t-149 30q-60 0-116.5-18.5T1442 1592l-437 437q-19 19-45 19t-45-19q-19-19-19-45t19-45l437-437q-35-49-53.5-105.5T1280 1280q0-79 30-149t82.5-122.5q52.5-52.5 122-82.5t149.5-30m0 640q53 0 99.5-20t81.5-55q35-35 55-81.5t20-99.5q0-53-20-99.5t-55-81.5q-35-35-81.5-55t-99.5-20q-53 0-99.5 20t-81.5 55q-35 35-55 81.5t-20 99.5q0 53 20 99.5t55 81.5q35 35 81.5 55t99.5 20z"/></svg>