<svg xmlns="http://www.w3.org/2000/svg" viewBox="0 0 2048 2048"><path d="M1024 768q79 0 149 30t122.5 82.5Q1348 933 1378 1003t30 149q0 80-30 149.5t-82.5 122Q1243 1476 1173 1506t-149 30q-80 0-149.5-30t-122-82.5q-52.5-52.5-82.5-122T640 1152q0-79 30-149t82.5-122.5Q805 828 874.5 798t149.5-30m0 640q53 0 99.5-20t81.5-55q35-35 55-81.5t20-99.5q0-53-20-99.5t-55-81.5q-35-35-81.5-55t-99.5-20q-53 0-99.5 20T843 971q-35 35-55 81.5t-20 99.5q0 53 20 99.5t55 81.5q35 35 81.5 55t99.5 20m0-1152q143 0 284 35.5T1574 396q125 69 226.5 170.5T1966 800q40 83 61 171.5t21 180.5h-128q0-118-36-221t-99.5-188Q1721 658 1635 591t-185.5-113q-99.5-46-208.5-70t-217-24q-108 0-217 24t-208.5 70Q499 524 413 591T263.5 743Q200 828 164 931t-36 221H0q0-92 21-180.5T82 800q64-132 165.5-233.5T474 396q125-69 266-104.5t284-35.5z"/></svg>