<svg xmlns="http://www.w3.org/2000/svg" viewBox="0 0 2048 2048"><path d="M2048 768v512h-896v-256H979l-339 226v158h384v512H128v-512h384v-158L77 960l435-290V512H384q-53 0-99.5-20T203 437q-35-35-55-81.5T128 256q0-53 20-99.5T203 75q35-35 81.5-55T384 0h384q53 0 99.5 20T949 75q35 35 55 81.5t20 99.5q0 53-20 99.5T949 437q-35 35-81.5 55T768 512H640v158l339 226h173V768h896M768 384q27 0 50-10t40.5-27.5Q876 329 886 306t10-50q0-27-10-50t-27.5-40.5Q841 148 818 138t-50-10H384q-27 0-50 10t-40.5 27.5Q276 183 266 206t-10 50q0 27 10 50t27.5 40.5Q311 364 334 374t50 10h384M256 1536v256h640v-256H256m589-576L576 781 307 960l269 179 269-179m1075-64h-640v256h640V896z"/></svg>