<svg xmlns="http://www.w3.org/2000/svg" viewBox="0 0 2048 2048"><path d="M1152 0q79 0 149 30t122.5 82.5Q1476 165 1506 235t30 149v128h256v640h-128V640h-256v768h-128V640H256v1152q0 27 10 50t27.5 40.5Q311 1900 334 1910t50 10h640v128H384q-53 0-99.5-20t-81.5-55q-35-35-55-81.5t-20-99.5V512h256V384q0-79 30-149t82.5-122.5Q549 60 618.5 30T768 0q104 0 193 52 89-52 191-52m256 384q0-53-20-99.5t-55-81.5q-35-35-81.5-55t-99.5-20q-45 0-85 15 29 36 46 71t25.5 70q8.5 35 11 71.5t2.5 76.5v80h256V384M512 512h512V384q0-53-20-99.5T949 203q-35-35-81.5-55T768 128q-53 0-99.5 20T587 203q-35 35-55 81.5T512 384v128m1536 896v640h-128v-640h128m-384-128h128v768h-128v-768m-256 256h128v512h-128v-512m-256 256h128v256h-128v-256z"/></svg>