<svg xmlns="http://www.w3.org/2000/svg" viewBox="0 0 2048 2048"><path d="M1192 1152q-62 57-107 128H384q-80 0-149.5-30t-122-82.5Q60 1115 30 1045.5T0 896q0-79 30-149t82.5-122.5Q165 572 234.5 542T384 512q79 0 149 30t122.5 82.5Q708 677 738 747t30 149q0 72-26 137.5T668 1152h524m-808 0q53 0 99.5-20t81.5-55q35-35 55-81.5t20-99.5q0-53-20-99.5T565 715q-35-35-81.5-55T384 640q-53 0-99.5 20T203 715q-35 35-55 81.5T128 896q0 53 20 99.5t55 81.5q35 35 81.5 55t99.5 20m1055-136q-31 9-60.5 20.5T1321 1063q-20-39-30.5-81t-10.5-86q0-79 30-149t82.5-122.5q52.5-52.5 122-82.5t149.5-30q79 0 149 30t122.5 82.5Q1988 677 2018 747t30 149q0 62-20 119.5t-56 107.5q-50-40-110-69 27-34 42.5-74t15.5-84q0-53-20-99.5t-55-81.5q-35-35-81.5-55t-99.5-20q-53 0-99.5 20t-81.5 55q-35 35-55 81.5t-20 99.5q0 63 31 120m161 136q93 0 174.5 35t142.5 96q61 61 96 142.5t35 174.5q0 93-35 174.5t-96 142.5q-61 61-142.5 96t-174.5 35q-93 0-174.5-35t-142.5-96q-61-61-96-142.5t-35-174.5q0-93 35-174.5t96-142.5q61-61 142.5-96t174.5-35m0 768q66 0 124-25t101.5-68.5q43.5-43.5 69-102T1920 1600q0-66-25.5-124t-69-101.5q-43.5-43.5-101.5-69t-124-25.5q-66 0-124.5 25.5t-102 69Q1330 1418 1305 1476t-25 124q0 66 25 124.5t68.5 102q43.5 43.5 102 68.5t124.5 25m-192-384h384v128h-384v-128z"/></svg>