<svg xmlns="http://www.w3.org/2000/svg" viewBox="0 0 2048 2048"><path d="M1392 1280H384q-80 0-149.5-30t-122-82.5Q60 1115 30 1045.5T0 896q0-79 30-149t82.5-122.5Q165 572 234.5 542T384 512q79 0 149 30t122.5 82.5Q708 677 738 747t30 149q0 72-26 137.5T668 1152h712q-48-53-74-118.5T1280 896q0-79 30-149t82.5-122.5q52.5-52.5 122-82.5t149.5-30q79 0 149 30t122.5 82.5Q1988 677 2018 747t30 149q0 68-23 130t-64 112q-41 50-97 85t-123 49l-125-125q12 2 24 3.5t24 1.5q53 0 99.5-20t81.5-55q35-35 55-81.5t20-99.5q0-53-20-99.5t-55-81.5q-35-35-81.5-55t-99.5-20q-53 0-99.5 20t-81.5 55q-35 35-55 81.5t-20 99.5q0 73 38 134t103 94l-157 156M384 1152q53 0 99.5-20t81.5-55q35-35 55-81.5t20-99.5q0-53-20-99.5T565 715q-35-35-81.5-55T384 640q-53 0-99.5 20T203 715q-35 35-55 81.5T128 896q0 53 20 99.5t55 81.5q35 35 81.5 55t99.5 20m1408 384q53 0 99.5 20t81.5 55q35 35 55 81.5t20 99.5q0 53-20 99.5t-55 81.5q-35 35-81.5 55t-99.5 20v-128q27 0 50-10t40.5-27.5q17.5-17.5 27.5-40.5t10-50q0-27-10-50t-27.5-40.5Q1865 1684 1842 1674t-50-10h-293l162 163-90 90-317-317 317-317 90 90-162 163h293z"/></svg>