<svg xmlns="http://www.w3.org/2000/svg" viewBox="0 0 2048 2048"><path d="M1725 1283l317 317-317 317-90-90 163-163h-518v-128h518l-163-163 90-90m-178-3H384q-80 0-149.5-30t-122-82.5Q60 1115 30 1045.5T0 896q0-79 30-149t82.5-122.5Q165 572 234.5 542T384 512q79 0 149 30t122.5 82.5Q708 677 738 747t30 149q0 72-26 137.5T668 1152h712q-48-53-74-118.5T1280 896q0-79 30-149t82.5-122.5q52.5-52.5 122-82.5t149.5-30q79 0 149 30t122.5 82.5Q1988 677 2018 747t30 149q0 52-14 101t-39.5 92q-25.5 43-61.5 79t-81 61l-95-95q36-15 66-39t51.5-55q21.5-31 33.5-68t12-76q0-53-20-99.5t-55-81.5q-35-35-81.5-55t-99.5-20q-53 0-99.5 20t-81.5 55q-35 35-55 81.5t-20 99.5q0 53 20 99.5t55 81.5q35 35 81.5 55t99.5 20q3 0 6-.5t6-.5l-129 129M384 1152q53 0 99.5-20t81.5-55q35-35 55-81.5t20-99.5q0-53-20-99.5T565 715q-35-35-81.5-55T384 640q-53 0-99.5 20T203 715q-35 35-55 81.5T128 896q0 53 20 99.5t55 81.5q35 35 81.5 55t99.5 20z"/></svg>