<svg xmlns="http://www.w3.org/2000/svg" viewBox="0 0 2048 2048"><path d="M1472 896q119 0 224 45.5t183 123.5q78 78 123.5 183t45.5 224q0 119-45.5 224T1879 1879q-78 78-183 123.5t-224 45.5q-119 0-224-45.5T1065 1879q-78-78-123.5-183T896 1472q0-119 45.5-224t123.5-183q78-78 183-123.5t224-45.5m0 1024q93 0 174.5-35.5t142-96q60.5-60.5 96-142T1920 1472q0-93-35.5-174.5t-96-142q-60.5-60.5-142-96T1472 1024q-93 0-174.5 35.5t-142 96q-60.5 60.5-96 142T1024 1472q0 93 35.5 174.5t96 142q60.5 60.5 142 96T1472 1920M640 768v512h122q-8 32-14 64t-9 64H512V640h293l384-384h91v506q-67 18-128 48V475L858 768H640m1069 557l-147 147 147 147-90 90-147-146-147 146-90-90 146-147-146-147 90-90 147 147 147-147 90 90z"/></svg>