<svg xmlns="http://www.w3.org/2000/svg" viewBox="0 0 2048 2048"><path d="M192 0q40 0 75 15t61 41q26 26 41 61t15 75q0 40-15 75t-41 61q-26 26-61 41t-75 15q-40 0-75-15t-61-41q-26-26-41-61T0 192q0-40 15-75t41-61q26-26 61-41t75-15m768 0q40 0 75 15t61 41q26 26 41 61t15 75q0 40-15 75t-41 61q-26 26-61 41t-75 15q-40 0-75-15t-61-41q-26-26-41-61t-15-75q0-40 15-75t41-61q26-26 61-41t75-15m768 384q-40 0-75-15t-61-41q-26-26-41-61t-15-75q0-40 15-75t41-61q26-26 61-41t75-15q40 0 75 15t61 41q26 26 41 61t15 75q0 40-15 75t-41 61q-26 26-61 41t-75 15M192 768q40 0 75 15t61 41q26 26 41 61t15 75q0 40-15 75t-41 61q-26 26-61 41t-75 15q-40 0-75-15t-61-41q-26-26-41-61T0 960q0-40 15-75t41-61q26-26 61-41t75-15m768 0q40 0 75 15t61 41q26 26 41 61t15 75q0 40-15 75t-41 61q-26 26-61 41t-75 15q-40 0-75-15t-61-41q-26-26-41-61t-15-75q0-40 15-75t41-61q26-26 61-41t75-15m768 0q40 0 75 15t61 41q26 26 41 61t15 75q0 40-15 75t-41 61q-26 26-61 41t-75 15q-40 0-75-15t-61-41q-26-26-41-61t-15-75q0-40 15-75t41-61q26-26 61-41t75-15M192 1536q40 0 75 15t61 41q26 26 41 61t15 75q0 40-15 75t-41 61q-26 26-61 41t-75 15q-40 0-75-15t-61-41q-26-26-41-61t-15-75q0-40 15-75t41-61q26-26 61-41t75-15m768 0q40 0 75 15t61 41q26 26 41 61t15 75q0 40-15 75t-41 61q-26 26-61 41t-75 15q-40 0-75-15t-61-41q-26-26-41-61t-15-75q0-40 15-75t41-61q26-26 61-41t75-15m768 0q40 0 75 15t61 41q26 26 41 61t15 75q0 40-15 75t-41 61q-26 26-61 41t-75 15q-40 0-75-15t-61-41q-26-26-41-61t-15-75q0-40 15-75t41-61q26-26 61-41t75-15z"/></svg>