<svg xmlns="http://www.w3.org/2000/svg" viewBox="0 0 2048 2048"><path d="M1883 640l128 128-283 282-320-319-677 677 319 320-282 283-128-128-160 159-192-191q-10 9-20.5 21t-22 22.5q-11.5 10.5-25 18T192 1920q-26 0-45-19t-19-45q0-15 7.5-28.5t18-25q10.5-11.5 22.5-22t21-20.5L6 1568l159-160-128-128 283-282 320 319 677-677-319-320 282-283 128 128L1568 6l192 191q10-9 20.5-21t22-22.5q11.5-10.5 25-18t28.5-7.5q26 0 45 19t19 45q0 15-7.5 28.5t-18 25q-10.5 11.5-22.5 22t-21 20.5l191 192-159 160M549 1792l-293-293-69 69 293 293 69-69m321-64l-550-550-101 102 549 549 102-101m629-1472l293 293 69-69-293-293-69 69m330 512l-549-549-102 101 550 550 101-102z"/></svg>