<svg xmlns="http://www.w3.org/2000/svg" viewBox="0 0 2048 2048"><path d="M1262 637l623-606 134 138-415 405q-30 30-54 55t-47 48.5q-23 23.5-48 47.5t-58 51l-250 113 115-252m786-318v1345H0V256h1470l-131 128H128v279q34-21 87.5-51t113-57.5Q388 527 446 507.5T546 488q49 0 83.5 27.5T664 595q0 43-20.5 85T601 757q-40 66-63 137.5T515 1044q0 33 7.5 77t25 83q17.5 39 46.5 66.5t72 27.5q49 0 98-32t92-77.5q43-45.5 78-95.5t56-86l110 66q-22 36-49 76.5t-59.5 79.5q-32.5 39-69 75t-77.5 63q-41 27-85.5 43t-91.5 16q-75 0-128-36t-87-92.5q-34-56.5-50-124T387 1043q0-96 27.5-184T492 689l2-4q10-17 19.5-33.5T530 616q-20 3-54 15t-74 29.5q-40 17.5-82.5 39t-80 43.5Q202 765 172 785t-44 35v716h1792V444l128-125z"/></svg>