<svg xmlns="http://www.w3.org/2000/svg" viewBox="0 0 2048 2048"><path d="M1536 704q0 110-39 208.5t-108 175q-69 76.5-162.5 126.5t-202.5 63v643h192q26 0 45 19t19 45q0 26-19 45t-45 19H704q-26 0-45-19t-19-45q0-26 19-45t45-19h192v-643q-109-13-202.5-63T531 1087.5q-69-76.5-108-175T384 704q0-88 14.5-172.5T441 363L562 0h796l121 363q28 84 42.5 168.5T1536 704m-1024 0q0 93 35.5 174.5t96 142q60.5 60.5 142 96T960 1152q93 0 174.5-35.5t142-96q60.5-60.5 96-142T1408 704q0-76-13.5-149t-34-144q-20.5-71-45.5-141.5T1266 128H654l-92 277q-24 73-37 147t-13 152z"/></svg>