<svg xmlns="http://www.w3.org/2000/svg" viewBox="0 0 2048 2048"><path d="M534 1664q-20 52-20 107 0 5 .5 10.5t.5 10.5H384v-128h150m965 256h293v128H837l-147-148q-24-25-37-57t-13-67q0-35 13-67.5t38-57.5l813-814 538 539-543 544m5-902l-389 390 357 358 389-390-357-358m-187 902l65-64-358-357-242 242q-14 14-14 35t14 35l108 109h427m-767 0q21 41 47.5 68.5T657 2048H128q-27 0-50-10t-40.5-27.5Q20 1993 10 1970t-10-50V128q0-27 10-50t27.5-40.5Q55 20 78 10t50-10h1024q27 0 50 10t40.5 27.5Q1260 55 1270 78t10 50v752l-128 128V128H128v1792h422z"/></svg>