<svg xmlns="http://www.w3.org/2000/svg" viewBox="0 0 2048 2048"><path d="M1984 320v1408q0 26-19 45t-45 19h-704v205L64 1731V317L1216 51v205h704q26 0 45 19t19 45M862 1348l170-729-146 8-86 481q-4 20-6.5 39.5T791 1187h-1q-2-19-4-38.5t-6-38.5l-98-470-139 8-100 450q-5 19-7.5 38.5T433 1176h-3q0-19-2-38.5t-5-38.5l-75-440-126 8 135 652 140 8 95-436q1-5 2-8.5t2-8.5q3-15 4-30t3-30h2q0 20 2.5 39t6.5 38l96 448 152 9m1058 380V320h-704v192h512v64h-512v128h512v64h-512v128h512v64h-512v128h512v64h-512v128h512v64h-512v128h512v64h-512v192h704z"/></svg>