<svg xmlns="http://www.w3.org/2000/svg" viewBox="0 0 2048 2048"><path d="M640 512V215q-132 63-236 164T232 609l-119-49q70-137 176.5-247T530 128H256V0h512v512H640m1176 97q-63-121-159.5-217.5T1439 232l49-118q144 74 258.5 188T1935 560l-119 49M128 1024q0 68 10 135t31 132l-118 49Q0 1187 0 1024t51-316l119 49q-20 65-31 132t-11 135m103 415q63 121 160 218t218 160l-49 119q-144-75-258.5-189.5T112 1488l119-49m1708-76l90 90-557 558-269-270 90-90 179 178 467-466m-19-339q0-68-11-135t-31-132l119-49q51 153 51 316h-128M757 1879q65 21 132 31t135 10v128q-164 0-317-51l50-118z"/></svg>