<svg xmlns="http://www.w3.org/2000/svg" viewBox="0 0 2048 2048"><path d="M496 883q13 0 29 4.5t32.5 10.5q16.5 6 32 13t28.5 12q-8 1-16.5 2t-16.5 1q-17 0-31-5.5T527.5 908q-12.5-7-24-12.5T482 890q-10 0-18 4t-16 9q0-4-7-4 7-7 26-11.5t29-4.5m135 45q41 0 75 14-14 5-28 8.5t-29 3.5q-20 0-36-4 5-8 10-10.5t8-11.5M1024 0q141 0 271.5 37t244 103.5Q1653 207 1747 301t160.5 207.5Q1974 622 2011 752.5t37 271.5q0 141-37 271.5t-103.5 244Q1841 1653 1747 1747t-207.5 160.5q-113.5 66.5-244 103.5t-271.5 37q-141 0-271.5-37t-244-103.5Q395 1841 301 1747t-160.5-207.5Q74 1426 37 1295.5T0 1024q0-141 37-271.5t103.5-244Q207 395 301 301t207.5-160.5Q622 74 752.5 37T1024 0m762 555q-14-22-28-42.5t-29-40.5q-2 9-5.5 13t-3.5 18q0 9 7.5 17.5t18 15.5q10.5 7 21.5 12t19 7m-69-98q0 8-3 11h6q4 0 6 1l-9-12m-693 1463q114 0 223-29t206.5-82.5q97.5-53.5 180-130T1778 1507q-13-30-25-61t-12-64q0-36 3.5-58.5t6.5-38.5q3-16 4.5-29.5t-3.5-30.5q-5-17-17.5-41t-36.5-62q1-7 3.5-19t3.5-25q1-13 .5-24.5t-4.5-18.5q-26-3-54.5-11t-49.5-24l6-5q-13 3-26 8.5t-25.5 10.5q-12.5 5-25.5 8.5t-27 3.5l-16-2 3-7q-14 4-30.5 10t-30.5 6q-10 0-29-7t-38.5-17q-19.5-10-34-22t-14.5-23l2-3q-5-6-13-11t-15.5-10q-7.5-5-12.5-11t-5-14l11-9-23-3-8-30q2 5 9.5 4t10.5-4l-36-19 25-64q-14-52-6.5-80t26.5-46.5q19-18.5 44.5-36T1367 579l-3-12 66-80 15-2q28 0 63-2.5t71-7q36-4.5 71-10t64-12.5q-32-38-67.5-72t-74.5-65q-11 4-27.5 11.5t-31.5 18q-15 10.5-25.5 23.5t-10.5 27l6 19q-18 29-40 36.5t-45.5 8q-23.5.5-48-.5t-47.5 9l-16-34 15-58-17-25 173-54q-11-28-36.5-42t-54.5-14v-10l56-9q-93-46-193.5-70T1024 128q-87 0-172 17t-164.5 49.5Q608 227 535 274T400 382q26 0 40.5 13.5t26 29q11.5 15.5 24.5 29t35 13.5l16-12-2-22 33-47-26-74q5-3 15.5-10t16.5-7q30 0 46.5 3t27.5 11.5q11 8.5 21 23t28 37.5l36-28q10 4 32.5 13.5t44.5 22q22 12.5 39 26.5t17 26q0 15-11.5 24T831 469q-17 6-37.5 9.5T756 486q-17 4-29 10.5T715 513l58 19q-20 17-43.5 31.5T682 589l4 17-92 36v28l-7 3 5-35-4-1q-7 0-8.5 3t-.5 7q1 4 2.5 8t.5 6l-13-7 2 4q0 3 3.5 9t8 11.5q4.5 5.5 8 10l3.5 4.5q0 3-4.5 6t-9.5 4.5q-5 1.5-8 2.5t0 1q14 0 5.5 2T553 719q-16 8-31.5 23.5T506 786q0 17 1.5 33t-1.5 33q-14-38-42-58t-68-20l-43 4 21 14q-17-2-35.5-4t-36.5-.5q-18 1.5-34.5 8T238 816l-6 45q0 32 14.5 52.5T295 934q30 0 59-9.5t57-20.5q-9 22-20 42.5T375 990l13 6q24-16 44-5t39 32q19 21 39 43.5t43 31.5l-34 18-80-45q1 2 2.5 9t-1.5 3l-36-61q-32-1-68.5-10.5t-72.5-24q-36-14.5-69.5-33T135 917l-7 107q0 122 33 238t93.5 218Q315 1582 401 1666.5T594 1809q-5-21-1-42t10.5-42q6.5-21 13-42.5t6.5-42.5q0-32-10-67.5t-24.5-71Q574 1466 558 1431t-27.5-66.5q-11.5-31.5-15.5-58t6-46.5l-15-7q6-14 16.5-27t20.5-26.5q10-13.5 17-27.5t7-30q0-10-4.5-21.5T556 1100l21 5q17-39 46.5-53.5T696 1037q5 0 21 4.5t34 10.5l34.5 11.5q16.5 5.5 23.5 7.5 0 7 8.5 9.5t8.5 6.5l-2 8q3 1 14.5 7.5t24 14.5q12.5 8 23 16t13.5 11q18 0 49.5 12t67.5 30.5q36 18.5 73.5 43t67.5 50q30 25.5 49.5 50t19.5 43.5l-34 36q4 51-7.5 78.5t-34 44.5q-22.5 17-53 30t-64.5 34q0 20-10 43.5t-25.5 44q-15.5 20.5-36 34.5t-41.5 14l-42-32q2 2-.5 7.5t-4.5 1.5q10 19 5 44t-17 51q-12 26-27 49.5t-27 38.5q54 14 108 21t109 7z"/></svg>