<svg xmlns="http://www.w3.org/2000/svg" width="2048" height="1828" viewBox="0 0 2048 1828">
  <path d="M590.930565,0 C535.618474,0.117609412 481.474166,31.5992686 453.629701,79.6256176 L20.5581473,833.942715 C-6.85271642,882.09765 -6.85271642,945.039601 20.5581473,993.194546 L453.629701,1747.51164 C481.477094,1795.53838 535.618474,1827.02847 590.930565,1827.13725 L1457.0706,1827.13725 C1512.3827,1827.01966 1566.52405,1795.53838 1594.37145,1747.51164 L2027.44292,993.194546 C2054.85377,945.039601 2054.85094,882.09765 2027.44292,833.942715 L1594.37145,79.6256176 C1566.52405,31.5992686 1512.3827,0.108788957 1457.0706,0 L590.930565,0 Z M598.790829,441.284632 C599.980656,441.167023 601.228607,441.167023 602.422139,441.284632 L751.81827,441.284632 C758.431363,441.421842 764.846086,445.253945 768.148536,451.009745 L1021.58111,903.843418 C1022.85676,906.082304 1023.67872,908.576808 1023.99061,911.137149 C1024.30269,908.576206 1025.12387,906.081521 1026.40011,903.843418 L1279.2261,451.009745 C1282.63335,445.079492 1289.34856,441.22622 1296.16019,441.284632 L1445.55636,441.284632 C1458.78556,441.402242 1468.69258,458.109623 1462.49324,469.852716 L1215.11251,913.568728 L1462.49324,1356.6769 C1469.27935,1368.48741 1459.12856,1385.96944 1445.55636,1385.85263 L1296.16019,1385.85263 C1289.22951,1385.79382 1282.47461,1381.67396 1279.2261,1375.51966 L1026.40011,922.686002 C1025.12445,920.447096 1024.3025,917.952412 1023.99061,915.392251 C1023.67852,917.953014 1022.85735,920.44808 1021.58111,922.686002 L768.148536,1375.51966 C764.996473,1381.4999 758.547615,1385.58036 751.81827,1385.85263 L602.422139,1385.85263 C588.849929,1385.97023 578.701882,1368.48741 585.487988,1356.6769 L832.868641,913.568728 L585.487988,469.852716 C579.557972,459.13851 586.792896,443.571545 598.790829,441.284632 Z"/>
</svg>
