<svg xmlns="http://www.w3.org/2000/svg" viewBox="0 0 2048 2048"><path d="M1792 0q27 0 50 10t40.5 27.5Q1900 55 1910 78t10 50v480q0 45-9.5 77.5t-23.5 58q-14 25.5-31 45.5t-31 40.5q-14 20.5-23.5 44T1792 928v992q0 27-10 50t-27.5 40.5Q1737 2028 1714 2038t-50 10H256V0h1536M640 128v384h256V128H640m1024 800q0-31-9.5-54.5t-23.5-44q-14-20.5-31-40.5t-31-45.5q-14-25.5-23.5-58T1536 608V128h-512v512H768v128H640V640H512V128H384v1792h384v-128h128v128h768V928m128-800h-128v480q0 24 4.5 42t13 33q8.5 15 20 29.5T1728 744q15-17 26.5-31.5t20-29.5q8.5-15 13-33t4.5-42V128M640 896h128v128H640V896m0 256h128v128H640v-128m0 256h128v128H640v-128m128 256v128H640v-128h128m0-768V768h128v128H768m0 256v-128h128v128H768m0 256v-128h128v128H768m0 256v-128h128v128H768z"/></svg>