<svg xmlns="http://www.w3.org/2000/svg" viewBox="0 0 2048 2048"><path d="M2048 1978q0 28-17 49t-47 21q-26 0-45-19l-785-784q-96 79-210.5 121T704 1408q-97 0-187-25t-168-71q-78-46-142.5-110.5T96 1059q-46-78-71-168T0 704q0-97 25-187t71-168q46-78 110.5-142.5T349 96q78-46 168-71T704 0q97 0 187 25t168 71q78 46 142.5 110.5T1312 349q46 78 71 168t25 187q0 125-42 239.5T1245 1154q15 15 57.5 57t102 100q59.5 58 130 127.5t142 141Q1748 1651 1815 1719t119 123q52 55 83 91.5t31 44.5M704 1280q119 0 224-45.5t183-123.5q78-78 123.5-183t45.5-224q0-119-45.5-224T1111 297q-78-78-183-123.5T704 128q-119 0-224 45.5T297 297q-78 78-123.5 183T128 704q0 119 45.5 224T297 1111q78 78 183 123.5t224 45.5z"/></svg>