<svg width="1001" height="1001" viewBox="0 0 1001 1001" version="1.1" xmlns="http://www.w3.org/2000/svg" xmlns:xlink="http://www.w3.org/1999/xlink">
<title>add-team</title>
<desc>Created using Figma</desc>
<g id="Canvas" transform="matrix(71.5 0 0 71.5 -12941.5 -2431)">
<rect x="181" y="34" width="14" height="14" fill="#E5E5E5"/>
<g id="add-team">
<mask id="mask0_outline" mask-type="alpha">
<g id="Mask">
<use xlink:href="#path0_fill" transform="translate(181 34)" fill="#FFFFFF"/>
</g>
</mask>
<g id="Mask" mask="url(#mask0_outline)">
<use xlink:href="#path0_fill" transform="translate(181 34)"/>
</g>
<g id="&#226;&#134;&#170;&#240;&#159;&#142;&#168;Color" mask="url(#mask0_outline)">
<g id="Rectangle 3">
<use xlink:href="#path1_fill" transform="translate(181 34)"/>
</g>
</g>
</g>
</g>
<defs>
<path id="path0_fill" fill-rule="evenodd" d="M 0 3L 2 3L 2 5L 3 5L 3 3L 5 3L 5 2L 3 2L 3 0L 2 0L 2 2L 0 2L 0 3ZM 12.4648 3.03516C 12.4648 3.9375 12.0273 4.73047 11.3594 5.24219C 12.5547 5.85547 13.3789 7.08594 13.3789 8.51562L 12.3789 8.51562C 12.3789 7.02734 11.168 5.82031 9.67969 5.82031C 8.19531 5.82031 6.98438 7.02734 6.98438 8.51562C 6.98438 9.41797 6.54297 10.2148 5.87891 10.7227C 7.07031 11.3398 7.89844 12.5703 7.89844 14L 6.89844 14C 6.89844 12.5117 5.6875 11.3008 4.19922 11.3008C 2.71094 11.3008 1.5 12.5117 1.5 14L 0.5 14C 0.5 12.5703 1.32812 11.3398 2.51953 10.7227C 1.85156 10.2148 1.41406 9.41797 1.41406 8.51562C 1.41406 6.98047 2.66406 5.73438 4.19922 5.73438C 5.10156 5.73438 5.89453 6.17188 6.40625 6.83984C 6.75781 6.15234 7.31641 5.59375 8 5.24219C 7.33594 4.73047 6.89453 3.9375 6.89453 3.03516C 6.89453 1.5 8.14453 0.25 9.67969 0.25C 11.2188 0.25 12.4648 1.5 12.4648 3.03516ZM 2.41406 8.51562C 2.41406 9.5 3.21484 10.3008 4.19922 10.3008C 5.18359 10.3008 5.98438 9.5 5.98438 8.51562C 5.98438 7.53516 5.18359 6.73438 4.19922 6.73438C 3.21484 6.73438 2.41406 7.53516 2.41406 8.51562ZM 7.89844 3.03516C 7.89844 2.05078 8.69922 1.25 9.67969 1.25C 10.6641 1.25 11.4648 2.05078 11.4648 3.03516C 11.4648 4.01953 10.6641 4.82031 9.67969 4.82031C 8.69922 4.82031 7.89844 4.01953 7.89844 3.03516Z"/>
<path id="path1_fill" fill-rule="evenodd" d="M 0 0L 14 0L 14 14L 0 14L 0 0Z"/>
</defs>
</svg>
