<svg width="1001" height="1001" viewBox="0 0 1001 1001" version="1.1" xmlns="http://www.w3.org/2000/svg" xmlns:xlink="http://www.w3.org/1999/xlink">
<title>approve-disapprove</title>
<desc>Created using Figma</desc>
<g id="Canvas" transform="matrix(71.5 0 0 71.5 -19805.5 -2431)">
<rect x="277" y="34" width="14" height="14" fill="#E5E5E5"/>
<g id="approve-disapprove">
<mask id="mask0_outline" mask-type="alpha">
<g id="Mask">
<use xlink:href="#path0_fill" transform="translate(277 35)" fill="#FFFFFF"/>
</g>
</mask>
<g id="Mask" mask="url(#mask0_outline)">
<use xlink:href="#path0_fill" transform="translate(277 35)"/>
</g>
<g id="&#226;&#134;&#170;&#240;&#159;&#142;&#168;Color" mask="url(#mask0_outline)">
<g id="Rectangle 3">
<use xlink:href="#path1_fill" transform="translate(277 34)"/>
</g>
</g>
</g>
</g>
<defs>
<path id="path0_fill" fill-rule="evenodd" d="M 13.9096 6.00482C 14.0933 6.79452 13.9643 7.205 13.8119 7.40047C 13.4327 7.92824 12.9948 8.00643 12.6977 8.00643L 9.84775 8.00643C 9.86145 8.05142 9.87416 8.10423 9.88687 8.15704C 9.89957 8.20979 9.91226 8.26252 9.92593 8.30745L 9.93286 8.33213C 10.0205 8.64474 10.1088 8.95972 10.2231 9.08542C 10.8916 9.84775 11.1261 10.872 11.001 11.4506C 10.8329 12.2442 10.2465 12.5257 9.79692 12.5257C 9.30434 12.5257 8.93295 12.2364 8.63974 11.9627L 4.75773 8.00643C 4.74599 7.9947 0 8.00643 0 8.00643L 0 0L 10.9541 0C 11.5483 0 12.0722 0.37921 12.2559 0.938253L 13.9096 6.00482ZM 12.6977 7.00562C 12.815 7.00562 12.9244 6.9118 12.9948 6.81406C 13.0652 6.71633 13.0847 6.59514 13.0456 6.48177L 11.302 1.25882C 11.2551 1.10636 11.1144 1.0008 10.9541 1.0008L 4.00321 1.0008L 4.01885 7.00562L 4.4958 7.00562C 4.86328 7.00562 5.20731 7.11118 5.46923 7.3692L 9.35126 11.2512C 9.69528 11.5757 9.93376 11.6461 10.0198 11.2434C 10.0745 10.9854 9.94157 10.2895 9.46854 9.75002C 9.20119 9.44647 9.08066 9.01994 8.9557 8.57781C 8.90524 8.39927 8.85406 8.21817 8.79221 8.04161C 8.59283 7.46302 8.58893 7.14245 8.82349 7.00562L 12.6977 7.00562Z"/>
<path id="path1_fill" fill-rule="evenodd" d="M 0 0L 14 0L 14 14L 0 14L 0 0Z"/>
</defs>
</svg>
