<svg width="1000" height="1000" viewBox="0 0 1000 1000" version="1.1" xmlns="http://www.w3.org/2000/svg" xmlns:xlink="http://www.w3.org/1999/xlink">
<title>approve</title>
<desc>Created using Figma</desc>
<g id="Canvas" transform="matrix(71.4286 0 0 71.4286 -18071.4 -2428.57)">
<rect x="253" y="34" width="14" height="14" fill="#E5E5E5"/>
<g id="approve">
<mask id="mask0_outline" mask-type="alpha">
<g id="Mask">
<use xlink:href="#path0_fill" transform="translate(253 35)" fill="#FFFFFF"/>
</g>
</mask>
<g id="Mask" mask="url(#mask0_outline)">
<use xlink:href="#path0_fill" transform="translate(253 35)"/>
</g>
<g id="&#226;&#134;&#170;&#240;&#159;&#142;&#168;Color" mask="url(#mask0_outline)">
<g id="Rectangle 3">
<use xlink:href="#path1_fill" transform="translate(253 34)" fill="#333333"/>
</g>
</g>
</g>
</g>
<defs>
<path id="path0_fill" fill-rule="evenodd" d="M 12.6977 4.51925C 12.9948 4.51925 13.4327 4.59744 13.8119 5.12521C 13.9643 5.32068 14.0933 5.73116 13.9096 6.52086L 12.2559 11.5874C 12.0722 12.1465 11.5483 12.5257 10.9541 12.5257L 0 12.5257L 0 4.51925C 0 4.51925 4.74599 4.53098 4.75773 4.51925L 8.63975 0.562952C 8.93295 0.289295 9.30434 0 9.79693 0C 10.2465 0 10.8329 0.281476 11.001 1.07508C 11.1261 1.65367 10.8916 2.67793 10.2231 3.44026C 10.1088 3.56595 10.0205 3.88089 9.93288 4.19347L 9.92593 4.21823C 9.91226 4.26317 9.89956 4.31593 9.88686 4.36869C 9.87415 4.42148 9.86143 4.47428 9.84775 4.51925L 12.6977 4.51925ZM 11.302 11.2669L 13.0456 6.04392C 13.0847 5.93054 13.0652 5.80935 12.9948 5.71162C 12.9244 5.61388 12.815 5.52006 12.6977 5.52006L 8.82349 5.52006C 8.58893 5.38323 8.59283 5.06266 8.79221 4.48407C 8.85406 4.30751 8.90524 4.12643 8.9557 3.94789C 9.08065 3.50575 9.20119 3.07921 9.46854 2.77567C 9.94157 2.23617 10.0745 1.5403 10.0198 1.28228C 9.93375 0.879612 9.69528 0.949982 9.35126 1.27446L 5.46923 5.15648C 5.20731 5.4145 4.86328 5.52006 4.4958 5.52006L 4.01885 5.52006L 4.00321 11.5249L 10.9541 11.5249C 11.1144 11.5249 11.2551 11.4193 11.302 11.2669Z"/>
<path id="path1_fill" fill-rule="evenodd" d="M 0 0L 14 0L 14 14L 0 14L 0 0Z"/>
</defs>
</svg>
