<svg width="1001" height="1001" viewBox="0 0 1001 1001" version="1.1" xmlns="http://www.w3.org/2000/svg" xmlns:xlink="http://www.w3.org/1999/xlink">
<title>arrow-import</title>
<desc>Created using Figma</desc>
<g id="Canvas" transform="matrix(71.5 0 0 71.5 -28385.5 -2431)">
<rect x="397" y="34" width="14" height="14" fill="#E5E5E5"/>
<g id="arrow-import">
<mask id="mask0_outline" mask-type="alpha">
<g id="Mask">
<use xlink:href="#path0_fill" transform="translate(397 34)" fill="#FFFFFF"/>
</g>
</mask>
<g id="Mask" mask="url(#mask0_outline)">
<use xlink:href="#path0_fill" transform="translate(397 34)"/>
</g>
<g id="&#226;&#134;&#170;&#240;&#159;&#142;&#168;Color" mask="url(#mask0_outline)">
<g id="Rectangle 3">
<use xlink:href="#path1_fill" transform="translate(397 34)"/>
</g>
</g>
</g>
</g>
<defs>
<path id="path0_fill" d="M 13.957 8.5L 9.10547 13.3555L 8.39844 12.6484L 12.043 9L 4.5 9C 2.01953 9 0 6.98047 0 4.5C 0 2.01953 2.01953 0 4.5 0L 4.5 1C 2.57031 1 1 2.57031 1 4.5C 1 6.42969 2.57031 8 4.5 8L 12.043 8L 8.39844 4.35547L 9.10547 3.64844L 13.957 8.5Z"/>
<path id="path1_fill" fill-rule="evenodd" d="M 0 0L 14 0L 14 14L 0 14L 0 0Z"/>
</defs>
</svg>
