<svg width="1000" height="1000" viewBox="0 0 1000 1000" version="1.1" xmlns="http://www.w3.org/2000/svg" xmlns:xlink="http://www.w3.org/1999/xlink">
<title>attach</title>
<desc>Created using Figma</desc>
<g id="Canvas" transform="matrix(71.4286 0 0 71.4286 -43785.7 -2428.57)">
<rect x="613" y="34" width="14" height="14" fill="#E5E5E5"/>
<g id="attach">
<mask id="mask0_outline" mask-type="alpha">
<g id="Mask">
<use xlink:href="#path0_fill" transform="translate(617 35)" fill="#FFFFFF"/>
</g>
</mask>
<g id="Mask" mask="url(#mask0_outline)">
<use xlink:href="#path0_fill" transform="translate(617 35)"/>
</g>
<g id="&#226;&#134;&#170;&#240;&#159;&#142;&#168;Color" mask="url(#mask0_outline)">
<g id="Rectangle 3">
<use xlink:href="#path1_fill" transform="translate(613 34)"/>
</g>
</g>
</g>
</g>
<defs>
<path id="path0_fill" d="M 7 1.5L 7 9.5C 7 11.4297 5.42969 13 3.5 13C 1.57031 13 0 11.4297 0 9.5L 0 2.5C 0 1.12109 1.12109 0 2.5 0C 3.87891 0 5 1.12109 5 2.5L 5 9.5C 5 10.3281 4.32812 11 3.5 11C 2.67188 11 2 10.3281 2 9.5L 2 3.5L 3 3.5L 3 9.5C 3 9.77734 3.22266 10 3.5 10C 3.77734 10 4 9.77344 4 9.5L 4 2.5C 4 1.67188 3.32812 1 2.5 1C 1.67188 1 1 1.67188 1 2.5L 1 9.5C 1 10.8789 2.12109 12 3.5 12C 4.87891 12 6 10.8789 6 9.5L 6 1.5L 7 1.5Z"/>
<path id="path1_fill" fill-rule="evenodd" d="M 0 0L 14 0L 14 14L 0 14L 0 0Z"/>
</defs>
</svg>
