<svg width="1000" height="1000" viewBox="0 0 1000 1000" version="1.1" xmlns="http://www.w3.org/2000/svg" xmlns:xlink="http://www.w3.org/1999/xlink">
<title>azure-api-management</title>
<desc>Created using Figma</desc>
<g id="Canvas" transform="matrix(71.4286 0 0 71.4286 -47214.3 -2428.57)">
<rect x="661" y="34" width="14" height="14" fill="#E5E5E5"/>
<g id="azure-api-management">
<mask id="mask0_outline" mask-type="alpha">
<g id="Mask">
<use xlink:href="#path0_fill" transform="translate(661 35)" fill="#FFFFFF"/>
</g>
</mask>
<g id="Mask" mask="url(#mask0_outline)">
<use xlink:href="#path0_fill" transform="translate(661 35)"/>
</g>
<g id="&#226;&#134;&#170;&#240;&#159;&#142;&#168;Color" mask="url(#mask0_outline)">
<g id="Rectangle 3">
<use xlink:href="#path1_fill" transform="translate(661 34)"/>
</g>
</g>
</g>
</g>
<defs>
<path id="path0_fill" fill-rule="evenodd" d="M 7.42969 0C 9.44141 0 11.1094 1.49219 11.3867 3.42969C 12.8359 3.48438 14 4.67969 14 6.14062C 14 7.63672 12.7812 8.85547 11.2852 8.85547L 10.5 8.85547L 10.5 7.85547L 11.2852 7.85547C 12.2344 7.85547 13 7.08984 13 6.14062C 13 5.19531 12.2344 4.42578 11.2852 4.42578L 10.4297 4.42578L 10.4297 4C 10.4297 2.33984 9.08594 1 7.42969 1C 6.14453 1 5.05469 1.80859 4.62891 2.94531C 4.30469 2.80078 3.94922 2.71094 3.57031 2.71094C 2.15234 2.71094 1 3.86328 1 5.28516C 1 6.70312 2.15234 7.85547 3.57031 7.85547L 4.58984 7.85547C 4.79688 7.27344 5.34766 6.85547 6 6.85547C 6.82812 6.85547 7.5 7.52734 7.5 8.35547C 7.5 9.18359 6.82812 9.85547 6 9.85547C 5.34766 9.85547 4.79688 9.4375 4.58984 8.85547L 3.57031 8.85547C 1.60156 8.85547 0 7.25391 0 5.28516C 0 3.31641 1.60156 1.71094 3.57031 1.71094C 3.75781 1.71094 3.94531 1.72656 4.125 1.75781C 4.85938 0.679688 6.09766 0 7.42969 0ZM 8.47266 10.832C 9.13672 10.168 9.5 9.28906 9.5 8.35547C 9.5 7.42188 9.13672 6.54297 8.47266 5.87891C 7.15234 4.55859 4.84766 4.55859 3.52344 5.87891L 4.23047 6.58594C 5.17578 5.64062 6.82031 5.64062 7.76562 6.58594C 8.23828 7.05859 8.5 7.6875 8.5 8.35547C 8.5 9.02344 8.23828 9.65234 7.76562 10.125C 6.82031 11.0703 5.17578 11.0703 4.23047 10.125L 3.52344 10.832C 4.1875 11.4922 5.06641 11.8555 6 11.8555C 6.93359 11.8555 7.8125 11.4922 8.47266 10.832Z"/>
<path id="path1_fill" fill-rule="evenodd" d="M 0 0L 14 0L 14 14L 0 14L 0 0Z"/>
</defs>
</svg>
