<svg width="1001" height="1001" viewBox="0 0 1001 1001" version="1.1" xmlns="http://www.w3.org/2000/svg" xmlns:xlink="http://www.w3.org/1999/xlink">
<title>backlog</title>
<desc>Created using Figma</desc>
<g id="Canvas" transform="matrix(71.5 0 0 71.5 -50693.5 -2431)">
<rect x="709" y="34" width="14" height="14" fill="#E5E5E5"/>
<g id="backlog">
<mask id="mask0_outline" mask-type="alpha">
<g id="Mask">
<use xlink:href="#path0_fill" transform="translate(709 36)" fill="#FFFFFF"/>
</g>
</mask>
<g id="Mask" mask="url(#mask0_outline)">
<use xlink:href="#path0_fill" transform="translate(709 36)"/>
</g>
<g id="&#226;&#134;&#170;&#240;&#159;&#142;&#168;Color" mask="url(#mask0_outline)">
<g id="Rectangle 3">
<use xlink:href="#path1_fill" transform="translate(709 34)"/>
</g>
</g>
</g>
</g>
<defs>
<path id="path0_fill" fill-rule="evenodd" d="M 0 3L 4 3L 4 0L 0 0L 0 3ZM 5 0L 9 0L 9 3L 5 3L 5 0ZM 14 0L 10 0L 10 3L 14 3L 14 0ZM 0 4L 4 4L 4 7L 0 7L 0 4ZM 9 4L 5 4L 5 7L 9 7L 9 4ZM 0 8L 4 8L 4 11L 0 11L 0 8Z"/>
<path id="path1_fill" fill-rule="evenodd" d="M 0 0L 14 0L 14 14L 0 14L 0 0Z"/>
</defs>
</svg>
