<svg width="1073" height="1001" viewBox="0 0 1073 1001" version="1.1" xmlns="http://www.w3.org/2000/svg" xmlns:xlink="http://www.w3.org/1999/xlink">
<title>brand-git</title>
<desc>Created using Figma</desc>
<g id="Canvas" transform="matrix(71.5 0 0 71.5 -59273.5 -2431)">
<rect x="829" y="34" width="15" height="14" fill="#E5E5E5"/>
<g id="brand-git">
<mask id="mask0_outline" mask-type="alpha">
<g id="Mask">
<use xlink:href="#path0_fill" transform="translate(829 34)" fill="#FFFFFF"/>
</g>
</mask>
<g id="Mask" mask="url(#mask0_outline)">
<use xlink:href="#path0_fill" transform="translate(829 34)"/>
</g>
<g id="&#226;&#134;&#170;&#240;&#159;&#142;&#168;Color" mask="url(#mask0_outline)">
<g id="Rectangle 3">
<use xlink:href="#path1_fill" transform="translate(829 34)"/>
</g>
</g>
</g>
</g>
<defs>
<path id="path0_fill" d="M 13.7354 7.65332L 7.65332 13.7393C 7.30176 14.0869 6.72754 14.0869 6.37988 13.7393L 0.266602 7.62598C -0.0888672 7.27441 -0.0888672 6.7002 0.266602 6.34863L 4.4541 2.15723L 6.04395 3.74707C 5.87988 4.1377 5.95801 4.60254 6.27441 4.91895C 6.37988 5.02442 6.34863 4.97363 6.47754 5.02832L 6.47754 8.90332C 6.36035 8.9502 6.29785 9.02832 6.21191 9.11817C 5.98145 9.3252 5.83301 9.61817 5.83301 9.9541C 5.83301 10.5713 6.33691 11.0713 6.9541 11.0713C 7.03223 11.0713 7.11035 11.0635 7.18848 11.0479C 7.40723 11.0166 7.62207 10.9189 7.79004 10.7471C 8.16504 10.376 8.2041 9.79395 7.91113 9.37598C 7.80957 9.21582 7.67285 9.0791 7.50879 8.98535L 7.50879 5.21973L 8.9541 6.66504C 8.79395 7.05566 8.87207 7.52051 9.18848 7.83301C 9.60645 8.25488 10.2861 8.25488 10.708 7.83301C 11.126 7.41504 11.126 6.73535 10.708 6.31738C 10.4072 6.0166 9.97363 5.93457 9.59863 6.06348L 8.04395 4.50879C 8.17676 4.13379 8.09082 3.7002 7.79004 3.39941C 7.49316 3.10254 7.06348 3.02051 6.68848 3.14551L 5.0791 1.53613L 6.34863 0.266602C 6.7002 -0.0888672 7.27442 -0.0888672 7.62207 0.266602L 13.7354 6.37598C 14.0908 6.73145 14.0908 7.30176 13.7354 7.65332Z"/>
<path id="path1_fill" fill-rule="evenodd" d="M 0 0L 14 0L 14 14L 0 14L 0 0Z"/>
</defs>
</svg>
