<svg width="1000" height="1000" viewBox="0 0 1000 1000" version="1.1" xmlns="http://www.w3.org/2000/svg" xmlns:xlink="http://www.w3.org/1999/xlink">
<title>brand-github</title>
<desc>Created using Figma</desc>
<g id="Canvas" transform="matrix(71.4286 0 0 71.4286 -60928.6 -2428.57)">
<rect x="853" y="34" width="14" height="14" fill="#E5E5E5"/>
<g id="brand-github">
<mask id="mask0_outline" mask-type="alpha">
<g id="Mask">
<use xlink:href="#path0_fill" transform="translate(853 34)" fill="#FFFFFF"/>
</g>
</mask>
<g id="Mask" mask="url(#mask0_outline)">
<use xlink:href="#path0_fill" transform="translate(853 34)"/>
</g>
<g id="&#226;&#134;&#170;&#240;&#159;&#142;&#168;Color" mask="url(#mask0_outline)">
<g id="Rectangle 3">
<use xlink:href="#path1_fill" transform="translate(853 34)"/>
</g>
</g>
</g>
</g>
<defs>
<path id="path0_fill" d="M 14 7C 14 10.0938 11.9961 12.7148 9.21875 13.6406C 8.86328 13.7109 8.73438 13.4922 8.73438 13.3047C 8.73438 13.0742 8.74219 12.3203 8.74219 11.3867C 8.74219 10.7344 8.51953 10.3047 8.26953 10.0898C 9.82812 9.91406 11.4648 9.32422 11.4648 6.63672C 11.4648 5.87109 11.1953 5.24609 10.7461 4.75781C 10.8164 4.57812 11.0586 3.86719 10.6758 2.90625C 10.6758 2.90625 10.0898 2.71484 8.75391 3.62109C 8.19141 3.46484 7.59375 3.39062 7 3.38672C 6.40625 3.39062 5.80469 3.46484 5.24609 3.62109C 3.91016 2.71484 3.32031 2.90625 3.32031 2.90625C 2.94141 3.86719 3.18359 4.57812 3.25391 4.75781C 2.80469 5.24609 2.53516 5.87109 2.53516 6.63672C 2.53516 9.31641 4.16797 9.91797 5.72266 10.0938C 5.52344 10.2695 5.34375 10.5781 5.27734 11.0312C 4.87891 11.2109 3.86719 11.5195 3.24219 10.4492C 3.24219 10.4492 2.87109 9.77734 2.16797 9.72656C 2.16797 9.72656 1.48438 9.71875 2.12109 10.1523C 2.12109 10.1523 2.57812 10.3672 2.89844 11.1758C 2.89844 11.1758 3.30859 12.5391 5.25391 12.1133L 5.26562 13.3047C 5.26562 13.4922 5.13672 13.707 4.78906 13.6445C 2.00391 12.7188 0 10.0938 0 7C 0 3.13281 3.13281 0 7 0C 10.8672 0 14 3.13672 14 7Z"/>
<path id="path1_fill" fill-rule="evenodd" d="M 0 0L 14 0L 14 14L 0 14L 0 0Z"/>
</defs>
</svg>
