<svg width="572" height="1001" viewBox="0 0 572 1001" version="1.1" xmlns="http://www.w3.org/2000/svg" xmlns:xlink="http://www.w3.org/1999/xlink">
<title>brand-java</title>
<desc>Created using Figma</desc>
<g id="Canvas" transform="matrix(71.5 0 0 71.5 -59416.5 -19519.5)">
<g id="brand-java">
<g id="path3">
<use xlink:href="#path0_fill" transform="translate(838.607 284.011)"/>
</g>
<g id="path5">
<use xlink:href="#path1_fill" transform="translate(833.154 280.426)"/>
</g>
<g id="path7">
<use xlink:href="#path2_fill" transform="translate(832.852 279.375)"/>
</g>
<g id="path9">
<use xlink:href="#path3_fill" transform="translate(835.007 274.961)"/>
</g>
<g id="path11">
<use xlink:href="#path4_fill" transform="translate(831.221 281.123)"/>
</g>
<g id="path13">
<use xlink:href="#path5_fill" transform="translate(832.04 278.284)"/>
</g>
<g id="path15">
<use xlink:href="#path6_fill" transform="translate(837.121 278.193)"/>
</g>
<g id="path17">
<use xlink:href="#path7_fill" transform="translate(833.646 273)"/>
</g>
<g id="path19">
<use xlink:href="#path8_fill" transform="translate(832.578 281.693)"/>
</g>
<g id="path21">
<use xlink:href="#path9_fill" transform="translate(832.359 283.968)"/>
</g>
<g id="path23">
<use xlink:href="#path10_fill" transform="translate(834.48 284.008)"/>
</g>
<g id="path25">
<use xlink:href="#path11_fill" transform="translate(836.722 283.968)"/>
</g>
<g id="path27">
<use xlink:href="#path12_fill" transform="translate(831 283.226)"/>
</g>
</g>
</g>
<defs>
<path id="path0_fill" d="M 0.0560607 0.0295062L 2.61914e-07 0.0295062L 2.61914e-07 -1.89569e-07L 0.150907 -1.89569e-07L 0.150907 0.0295062L 0.095232 0.0295062L 0.095232 0.176726L 0.0560607 0.176726L 0.0560607 0.0295062ZM 0.357049 0.0371933L 0.356169 0.0371933L 0.300631 0.176752L 0.275215 0.176752L 0.220034 0.0371933L 0.219346 0.0371933L 0.219346 0.176752L 0.182431 0.176752L 0.182431 2.58762e-05L 0.236759 2.58762e-05L 0.287922 0.125168L 0.338922 2.58762e-05L 0.393057 2.58762e-05L 0.393057 0.176752L 0.357022 0.176752L 0.357022 0.0371933L 0.357049 0.0371933Z"/>
<path id="path1_fill" d="M 0.490593 1.32698e-07C 0.490593 1.32698e-07 0.100589 0.213401 0.768145 0.285614C 1.57687 0.372423 1.9902 0.359974 2.88142 0.201262C 2.88142 0.201262 3.11573 0.3395 3.44296 0.459233C 1.44508 1.2649 -1.07864 0.412567 0.490593 1.32698e-07Z"/>
<path id="path2_fill" d="M 0.549282 -1.35858e-07C 0.549282 -1.35858e-07 0.111856 0.304663 0.779907 0.36968C 1.64381 0.453539 2.32606 0.460398 3.5066 0.246505C 3.5066 0.246505 3.66989 0.402265 3.92665 0.487445C 1.51109 1.15206 -1.17941 0.539857 0.549282 -1.35858e-07Z"/>
<path id="path3_fill" d="M 0.451523 2.63023C 0.943801 3.16351 0.322183 3.6434 0.322183 3.6434C 0.322183 3.6434 1.57216 3.03625 0.998101 2.27595C 0.461949 1.56693 0.0507918 1.21464 2.27663 5.05518e-08C 2.27663 5.05518e-08 -1.2172 0.821045 0.451523 2.63023Z"/>
<path id="path4_fill" d="M 6.88046 0.0812186C 6.88046 0.0812186 7.16907 0.304973 6.56261 0.478075C 5.4094 0.806783 1.76285 0.906043 0.749852 0.491172C 0.385706 0.342115 1.06858 0.135262 1.28339 0.0918566C 1.50741 0.0461481 1.63543 0.0546631 1.63543 0.0546631C 1.23047 -0.213764 -0.982113 0.581735 0.511554 0.809552C 4.585 1.43112 7.93706 0.529659 6.88046 0.0812186Z"/>
<path id="path5_fill" d="M 1.79207 0.00156316C 1.79207 0.00156316 -0.062795 0.416097 1.13522 0.56663C 1.64106 0.630353 2.64943 0.615936 3.58871 0.541886C 4.35634 0.480959 5.12713 0.351417 5.12713 0.351417C 5.12713 0.351417 4.85646 0.460486 4.66063 0.5863C 2.77704 1.05242 -0.8617 0.835575 0.185847 0.358793C 1.07176 -0.0441453 1.79207 0.00156316 1.79207 0.00156316Z"/>
<path id="path6_fill" d="M 0.0384834 1.84279C 1.95324 0.906596 1.06793 0.00692111 0.449998 0.128129C 0.298541 0.15779 0.231009 0.183491 0.231009 0.183491C 0.231009 0.183491 0.287235 0.100616 0.394625 0.0647425C 1.61709 -0.339646 2.55725 1.25743 9.73782e-08 1.88998C 9.73782e-08 1.89 0.0296259 1.86508 0.0384834 1.84279Z"/>
<path id="path7_fill" d="M 2.35914 4.34429e-09C 2.35914 4.34429e-09 3.41957 0.998107 1.35338 2.53291C -0.303487 3.76409 0.975564 4.46608 1.35269 5.26812C 0.385552 4.44708 -0.324201 3.72431 0.151957 3.05162C 0.850844 2.06418 2.787 1.58543 2.35914 4.34429e-09Z"/>
<path id="path8_fill" d="M 1.44286 0.879695C 3.28078 0.990394 6.10313 0.818275 6.16997 -1.13741e-07C 6.16997 -1.13741e-07 6.04148 0.310201 4.65102 0.556551C 3.08232 0.834322 1.14754 0.801892 4.36523e-08 0.623872C 2.75513e-05 0.623846 0.234915 0.806809 1.44286 0.879695Z"/>
<path id="path9_fill" d="M 1.36086 1.73089C 1.18748 1.87239 1.00436 1.95183 0.840029 1.95183C 0.605471 1.95183 0.478743 1.81949 0.478743 1.60723C 0.478743 1.37762 0.614521 1.20975 1.15926 1.20975L 1.36083 1.20975L 1.36083 1.73089L 1.36086 1.73089ZM 1.83927 2.23879L 1.83927 0.666629C 1.83927 0.265011 1.59583 1.07422e-07 1.00887 1.07422e-07C 0.666208 1.07422e-07 0.366045 0.0796145 0.122079 0.181152L 0.192499 0.459441C 0.384585 0.393104 0.633226 0.331348 0.877274 0.331348C 1.2154 0.331348 1.36086 0.45944 1.36086 0.72427L 1.36086 0.92297L 1.1921 0.92297C 0.370583 0.92297 -5.0368e-09 1.22303 -5.0368e-09 1.67341C -5.0368e-09 2.06208 0.244213 2.28302 0.704031 2.28302C 0.999601 2.28302 1.22024 2.1682 1.42649 2.00017L 1.46393 2.23881L 1.83927 2.23881L 1.83927 2.23879Z"/>
<path id="path10_fill" d="M 1.31481 2.19898L 0.718115 2.19898L -1.98114e-07 -3.79138e-08L 0.521078 -3.79138e-08L 0.966675 1.35107L 1.06573 1.7574C 1.29115 1.16991 1.45059 0.573893 1.53033 -3.79138e-08L 2.03722 -3.79138e-08C 1.90141 0.724115 1.65703 1.51892 1.31481 2.19898Z"/>
<path id="path11_fill" d="M 1.36122 1.73089C 1.18751 1.87239 1.00406 1.95183 0.839727 1.95183C 0.605581 1.95183 0.478524 1.81949 0.478524 1.60723C 0.478524 1.37762 0.614631 1.20975 1.15931 1.20975L 1.36122 1.20975L 1.36122 1.73089ZM 1.83958 2.23879L 1.83958 0.666629C 1.83958 0.265011 1.59553 1.07422e-07 1.00926 1.07422e-07C 0.666346 1.07422e-07 0.366072 0.0796145 0.122217 0.181152L 0.192526 0.459441C 0.384695 0.393104 0.633804 0.331348 0.87766 0.331348C 1.21554 0.331348 1.36122 0.45944 1.36122 0.72427L 1.36122 0.92297L 1.19218 0.92297C 0.370418 0.92297 -1.71251e-07 1.22303 -1.71251e-07 1.67341C -1.71251e-07 2.06208 0.24402 2.28302 0.703756 2.28302C 0.999491 2.28302 1.22005 2.1682 1.42666 2.00017L 1.46423 2.23881L 1.83958 2.23881L 1.83958 2.23879Z"/>
<path id="path12_fill" d="M 0.834032 3.35445C 0.697649 3.54181 0.477368 3.69004 0.236208 3.7739L -1.36413e-09 3.51236C 0.183559 3.42374 0.340985 3.28061 0.414128 3.14729C 0.477396 3.02872 0.503583 2.87591 0.503583 2.51047L 0.503583 5.68707e-08L 1.01187 5.68707e-08L 1.01187 2.47608C 1.01184 2.96463 0.970333 3.16199 0.834032 3.35445Z"/>
</defs>
</svg>
