<svg width="1001" height="1001" viewBox="0 0 1001 1001" version="1.1" xmlns="http://www.w3.org/2000/svg" xmlns:xlink="http://www.w3.org/1999/xlink">
<title>brand-android</title>
<desc>Created using Figma</desc>
<g id="Canvas" transform="matrix(71.5 0 0 71.5 -55841.5 -2431)">
<rect x="781" y="34" width="14" height="14" fill="#E5E5E5"/>
<g id="brand-android">
<mask id="mask0_outline" mask-type="alpha">
<g id="Mask">
<use xlink:href="#path0_fill" transform="translate(782 34)" fill="#FFFFFF"/>
</g>
</mask>
<g id="Mask" mask="url(#mask0_outline)">
<use xlink:href="#path0_fill" transform="translate(782 34)"/>
</g>
<g id="&#226;&#134;&#170;&#240;&#159;&#142;&#168;Color" mask="url(#mask0_outline)">
<g id="Rectangle 3">
<use xlink:href="#path1_fill" transform="translate(781 34)"/>
</g>
</g>
</g>
</g>
<defs>
<path id="path0_fill" fill-rule="evenodd" d="M 9.15625 4.32422L 1.89453 4.32422C 1.89453 3.25 2.44922 2.25781 3.3125 1.64062L 2.82422 0.480469C 2.75 0.304688 2.83203 0.101562 3.00781 0.0273438C 3.18359 -0.046875 3.38672 0.0351562 3.46094 0.210938L 3.77344 0.953125L 3.94922 1.27344C 4.42578 1.0625 4.96094 0.941406 5.52344 0.941406C 6.08984 0.941406 6.625 1.0625 7.10547 1.27344L 7.28125 0.953125L 7.59375 0.210938C 7.66797 0.0351562 7.87109 -0.046875 8.04688 0.0273438C 8.22266 0.101562 8.30469 0.304688 8.23047 0.480469L 7.74219 1.64062C 8.60156 2.26172 9.15625 3.25 9.15625 4.32422ZM 8.98438 5.01562L 2.07031 5.01562L 2.07031 10.5469C 2.07031 11.0234 2.30859 11.2344 2.78516 11.2344L 3.45312 11.2344L 3.45312 13.1953C 3.45312 13.6367 3.69922 14 4.14453 14C 4.58984 14 4.83594 13.6367 4.83594 13.1914L 4.83594 11.2344L 6.21875 11.2344L 6.21875 13.1914C 6.21875 13.6367 6.46484 14 6.91016 14C 7.35547 14 7.60156 13.6367 7.60156 13.1914L 7.60156 11.2344L 8.27344 11.2344C 8.74609 11.2344 8.98438 11.0234 8.98438 10.5469L 8.98438 5.01562ZM 1.37891 9.34375L 1.37891 5.96875C 1.37891 5.52344 1.13281 5.16016 0.6875 5.16406C 0.242188 5.16016 0 5.52344 0 5.96875L 0 9.34375C 0 9.79297 0.246094 10.1523 0.691406 10.1523C 1.13672 10.1523 1.37891 9.78906 1.37891 9.34375ZM 11.0547 9.34375C 11.0547 9.78906 10.8086 10.1484 10.3633 10.1484C 9.91797 10.1484 9.67578 9.78906 9.67578 9.34375L 9.67578 5.96875C 9.67578 5.52344 9.91797 5.16016 10.3633 5.16016C 10.8086 5.16016 11.0547 5.52344 11.0547 5.96875L 11.0547 9.34375ZM 7.25391 2.25C 7.44531 2.25 7.60156 2.40625 7.60156 2.59766C 7.60156 2.78906 7.44531 2.94141 7.25391 2.94141C 7.0625 2.94141 6.91016 2.78906 6.91016 2.59766C 6.91016 2.40625 7.0625 2.25 7.25391 2.25ZM 4.14453 2.59766C 4.14453 2.40625 3.99219 2.25 3.80078 2.25C 3.60938 2.25 3.45312 2.40625 3.45312 2.59766C 3.45312 2.78906 3.60938 2.94141 3.80078 2.94141C 3.99219 2.94141 4.14453 2.78906 4.14453 2.59766Z"/>
<path id="path1_fill" fill-rule="evenodd" d="M 0 0L 14 0L 14 14L 0 14L 0 0Z"/>
</defs>
</svg>
