<svg width="1001" height="1001" viewBox="0 0 1001 1001" version="1.1" xmlns="http://www.w3.org/2000/svg" xmlns:xlink="http://www.w3.org/1999/xlink">
<title>brand-nuget</title>
<desc>Created using Figma</desc>
<g id="Canvas" transform="matrix(71.5 0 0 71.5 -67853.5 -2431)">
<rect x="949" y="34" width="14" height="14" fill="#E5E5E5"/>
<g id="brand-nuget">
<mask id="mask0_outline" mask-type="alpha">
<g id="Mask">
<use xlink:href="#path0_fill" transform="translate(949 34)" fill="#FFFFFF"/>
</g>
</mask>
<g id="Mask" mask="url(#mask0_outline)">
<use xlink:href="#path0_fill" transform="translate(949 34)"/>
</g>
<g id="&#226;&#134;&#170;&#240;&#159;&#142;&#168;Color" mask="url(#mask0_outline)">
<g id="Rectangle 3">
<use xlink:href="#path1_fill" transform="translate(949 34)"/>
</g>
</g>
</g>
</g>
<defs>
<path id="path0_fill" fill-rule="evenodd" d="M 2.72266 1.35937C 2.72266 0.609374 2.11328 0 1.35938 0C 0.609375 0 0 0.609374 0 1.35937C 0 2.11328 0.609375 2.72266 1.35938 2.72266C 2.11328 2.72266 2.72266 2.11328 2.72266 1.35937ZM 2.14062 5.5625C 2.14062 3.42969 3.85547 1.71094 5.98828 1.71094L 10.1484 1.71094C 12.2812 1.71094 14 3.42969 14 5.5625L 14 9.72656C 14 11.8594 12.2812 13.5781 10.1484 13.5781L 5.98828 13.5781C 3.85547 13.5781 2.14062 11.8594 2.14062 9.72656L 2.14062 5.5625ZM 6.60938 5.17578C 6.60938 4.37891 5.96875 3.73437 5.17188 3.73437C 4.37891 3.73437 3.73438 4.37891 3.73438 5.17578C 3.73438 5.96875 4.37891 6.61328 5.17188 6.61328C 5.96875 6.61328 6.60938 5.96875 6.60938 5.17578ZM 9.76172 7.23828C 11.1367 7.23828 12.25 8.35156 12.25 9.72656C 12.25 11.1016 11.1367 12.2188 9.76172 12.2188C 8.38672 12.2188 7.27344 11.1016 7.27344 9.72656C 7.27344 8.35156 8.38672 7.23828 9.76172 7.23828Z"/>
<path id="path1_fill" fill-rule="evenodd" d="M 0 0L 14 0L 14 14L 0 14L 0 0Z"/>
</defs>
</svg>
