<svg width="1000" height="1000" viewBox="0 0 1000 1000" version="1.1" xmlns="http://www.w3.org/2000/svg" xmlns:xlink="http://www.w3.org/1999/xlink">
<title>brand-maven</title>
<desc>Created using Figma</desc>
<g id="Canvas" transform="matrix(71.4286 0 0 71.4286 -62642.9 -2428.57)">
<rect x="877" y="34" width="14" height="14" fill="#E5E5E5"/>
<g id="brand-maven">
<mask id="mask0_outline" mask-type="alpha">
<g id="Mask">
<use xlink:href="#path0_fill" transform="translate(878 35)" fill="#FFFFFF"/>
</g>
</mask>
<g id="Mask" mask="url(#mask0_outline)">
<use xlink:href="#path0_fill" transform="translate(878 35)"/>
</g>
<g id="&#226;&#134;&#170;&#240;&#159;&#142;&#168;Color" mask="url(#mask0_outline)">
<g id="Rectangle 3">
<use xlink:href="#path1_fill" transform="translate(877 34)" fill="#333333"/>
</g>
</g>
</g>
</g>
<defs>
<path id="path0_fill" fill-rule="evenodd" d="M 7.00781 11.0273C 7.29688 10.8203 7.53906 10.6406 7.73828 10.4922L 7.73828 11.6953L 11.3516 11.6953L 11.3516 3.96094C 11.3516 2.59766 10.8906 1.59375 9.96875 0.957031C 9.04688 0.320312 7.55078 0 5.47656 0C 4.60547 0 3.73828 0.070312 2.87109 0.207031C 2.00391 0.347656 1.37891 0.464844 0.992188 0.566406L 0.992188 3.3125L 1.32812 3.3125C 1.625 3.19531 2.11328 3.03125 2.79297 2.82031C 3.47656 2.60938 4.11719 2.5 4.71875 2.5C 5.71875 2.5 6.47266 2.62109 6.98828 2.85938C 7.5 3.10156 7.75781 3.53516 7.75781 4.16016L 7.75781 4.22266C 6.68359 4.28516 5.64844 4.37891 4.64844 4.50781C 3.64844 4.63672 2.8125 4.85156 2.13672 5.15625C 1.45312 5.45703 0.925781 5.875 0.558594 6.39844C 0.183594 6.92578 0 7.60547 0 8.43359C 0 9.47656 0.363281 10.3281 1.09375 10.9961C 1.82422 11.6641 2.72656 12 3.80859 12C 4.26562 12 4.6875 11.9609 5.07422 11.8828C 5.45703 11.8047 5.83203 11.6836 6.1875 11.5234C 6.44531 11.4023 6.71875 11.2383 7.00781 11.0273ZM 7.73828 6.35938L 7.73828 8.72266C 7.45312 8.96484 7.125 9.16016 6.75 9.30859C 6.375 9.45312 6.00391 9.52734 5.64062 9.52734C 5.17969 9.52734 4.84375 9.49609 4.62891 9.43359C 4.41016 9.37109 4.22656 9.26953 4.07031 9.13672C 3.91016 9 3.80859 8.85938 3.76562 8.71094C 3.72656 8.5625 3.70703 8.37109 3.70703 8.13672C 3.70703 7.78125 3.80078 7.49219 3.99609 7.27344C 4.1875 7.05469 4.46484 6.88672 4.83203 6.77344C 5.12891 6.67969 5.5625 6.59766 6.13672 6.52734C 6.71094 6.45703 7.24219 6.39844 7.73828 6.35938Z"/>
<path id="path1_fill" fill-rule="evenodd" d="M 0 0L 14 0L 14 14L 0 14L 0 0Z"/>
</defs>
</svg>
