<svg width="787" height="1001" viewBox="0 0 787 1001" version="1.1" xmlns="http://www.w3.org/2000/svg" xmlns:xlink="http://www.w3.org/1999/xlink">
<title>brand-java-cup</title>
<desc>Created using Figma</desc>
<g id="Canvas" transform="matrix(71.5 0 0 71.5 -61061 -19519.5)">
<g id="brand-java-cup">
<g id="path5">
<use xlink:href="#path0_fill" transform="translate(856.826 283.827)"/>
</g>
<g id="path7">
<use xlink:href="#path1_fill" transform="translate(856.383 282.294)"/>
</g>
<g id="path9">
<use xlink:href="#path2_fill" transform="translate(859.534 275.859)"/>
</g>
<g id="path11">
<use xlink:href="#path3_fill" transform="translate(854 284.842)"/>
</g>
<g id="path13">
<use xlink:href="#path4_fill" transform="translate(855.198 280.704)"/>
</g>
<g id="path15">
<use xlink:href="#path5_fill" transform="translate(862.623 280.571)"/>
</g>
<g id="path17">
<use xlink:href="#path6_fill" transform="translate(857.545 273)"/>
</g>
<g id="path19">
<use xlink:href="#path7_fill" transform="translate(855.983 285.673)"/>
</g>
</g>
</g>
<defs>
<path id="path0_fill" d="M 0.716964 1.93463e-07C 0.716964 1.93463e-07 0.147003 0.311121 1.12259 0.4164C 2.30448 0.542961 2.90853 0.52481 4.21098 0.293423C 4.21098 0.293423 4.55341 0.494962 5.03163 0.669521C 2.11188 1.84412 -1.57635 0.601487 0.716964 1.93463e-07Z"/>
<path id="path1_fill" d="M 0.802735 -1.98069e-07C 0.802735 -1.98069e-07 0.163469 0.444172 1.13977 0.538961C 2.40231 0.66122 3.39936 0.67122 5.12464 0.359382C 5.12464 0.359382 5.36327 0.586468 5.7385 0.710652C 2.20834 1.6796 -1.72362 0.787064 0.802735 -1.98069e-07Z"/>
<path id="path2_fill" d="M 0.659867 3.83465C 1.37929 4.61213 0.470845 5.31176 0.470845 5.31176C 0.470845 5.31176 2.29759 4.42659 1.45865 3.31814C 0.675103 2.28444 0.0742283 1.77084 3.32712 7.37e-08C 3.32712 7.37e-08 -1.77885 1.19701 0.659867 3.83465Z"/>
<path id="path3_fill" d="M 10.0553 0.11841C 10.0553 0.11841 10.4771 0.444624 9.59075 0.696992C 7.90543 1.17622 2.57627 1.32093 1.09585 0.716086C 0.56368 0.498773 1.56165 0.197199 1.87558 0.133919C 2.20297 0.0672798 2.39006 0.079694 2.39006 0.079694C 1.79823 -0.31165 -1.43528 0.848118 0.747597 1.18026C 6.70063 2.08645 11.5994 0.772196 10.0553 0.11841Z"/>
<path id="path4_fill" d="M 2.61898 0.00227895C 2.61898 0.00227895 -0.0917701 0.606633 1.65904 0.826097C 2.39828 0.918999 3.87195 0.89798 5.24463 0.790022C 6.36646 0.701195 7.49292 0.512335 7.49292 0.512335C 7.49292 0.512335 7.09734 0.671348 6.81116 0.854775C 4.05844 1.53433 -1.25931 1.2182 0.271601 0.523089C 1.56629 -0.06436 2.61898 0.00227895 2.61898 0.00227895Z"/>
<path id="path5_fill" d="M 0.0562406 2.68663C 2.85451 1.32174 1.5607 0.0100904 0.657638 0.186801C 0.436295 0.230044 0.337603 0.267514 0.337603 0.267514C 0.337603 0.267514 0.419772 0.146689 0.576714 0.0943889C 2.36326 -0.495174 3.73723 1.83323 1.42311e-07 2.75542C 1.42311e-07 2.75546 0.043296 2.71912 0.0562406 2.68663Z"/>
<path id="path6_fill" d="M 3.44771 6.3336e-09C 3.44771 6.3336e-09 4.99744 1.45515 1.97787 3.69276C -0.443524 5.48772 1.42571 6.51115 1.97686 7.68046C 0.563455 6.48345 -0.473795 5.42972 0.222074 4.449C 1.24344 3.00939 4.07299 2.31142 3.44771 6.3336e-09Z"/>
<path id="path7_fill" d="M 2.10863 1.28252C 4.79462 1.44391 8.91926 1.19297 9.01694 -1.65825e-07C 9.01694 -1.65825e-07 8.82917 0.452246 6.79712 0.811403C 4.50457 1.21637 1.67704 1.16909 6.37945e-08 0.90955C 4.02642e-05 0.909513 0.343311 1.17626 2.10863 1.28252Z"/>
</defs>
</svg>
