<svg width="1000" height="1000" viewBox="0 0 1000 1000" version="1.1" xmlns="http://www.w3.org/2000/svg" xmlns:xlink="http://www.w3.org/1999/xlink">
<title>brand-tfvc</title>
<desc>Created using Figma</desc>
<g id="Canvas" transform="matrix(71.4286 0 0 71.4286 -71214.3 -2428.57)">
<rect x="997" y="34" width="14" height="14" fill="#E5E5E5"/>
<g id="brand-tfvc">
<mask id="mask0_outline" mask-type="alpha">
<g id="Mask">
<use xlink:href="#path0_fill" transform="translate(998 35)" fill="#FFFFFF"/>
</g>
</mask>
<g id="Mask" mask="url(#mask0_outline)">
<use xlink:href="#path0_fill" transform="translate(998 35)"/>
</g>
<g id="&#226;&#134;&#170;&#240;&#159;&#142;&#168;Color" mask="url(#mask0_outline)">
<g id="Rectangle 3">
<use xlink:href="#path1_fill" transform="translate(997 34)"/>
</g>
</g>
</g>
</g>
<defs>
<path id="path0_fill" fill-rule="evenodd" d="M 8.5625 7.95703C 8.81641 7.80469 9.10938 7.71484 9.42969 7.71484C 10.375 7.71484 11.1445 8.48047 11.1445 9.42969C 11.1445 10.375 10.375 11.1445 9.42969 11.1445C 8.48047 11.1445 7.71484 10.375 7.71484 9.42969C 7.71484 9.10938 7.80469 8.81641 7.95703 8.5625L 5.51953 6.12891C 4.94141 6.57812 4.21875 6.85547 3.42969 6.85547C 3.32312 6.85547 3.22101 6.842 3.12 6.82868C 3.08771 6.82443 3.0556 6.82019 3.02344 6.81641L 2.53125 8.78906C 3.0625 9.07812 3.42969 9.63672 3.42969 10.2852C 3.42969 11.2344 2.66016 12 1.71484 12C 0.765625 12 0 11.2344 0 10.2852C 0 9.34375 0.761719 8.57812 1.69922 8.57422L 2.19141 6.61719C 0.910156 6.11719 0 4.88281 0 3.42969C 0 1.53516 1.53516 0 3.42969 0C 4.88281 0 6.12109 0.910156 6.61719 2.19141L 8.57422 1.69922C 8.57812 0.761719 9.34375 0 10.2852 0C 11.2344 0 12 0.765625 12 1.71484C 12 2.66016 11.2344 3.42969 10.2852 3.42969C 9.63672 3.42969 9.07812 3.0625 8.78906 2.53125L 6.81641 3.02344C 6.82019 3.05558 6.8244 3.08772 6.82867 3.11998C 6.84198 3.22099 6.85547 3.3231 6.85547 3.42969C 6.85547 4.21875 6.57812 4.94141 6.12891 5.51953L 8.5625 7.95703ZM 1.71484 3.42969C 1.71484 4.375 2.48047 5.14453 3.42969 5.14453C 4.375 5.14453 5.14453 4.375 5.14453 3.42969C 5.14453 2.48047 4.375 1.71484 3.42969 1.71484C 2.48047 1.71484 1.71484 2.48047 1.71484 3.42969Z"/>
<path id="path1_fill" fill-rule="evenodd" d="M 0 0L 14 0L 14 14L 0 14L 0 0Z"/>
</defs>
</svg>
