<svg width="1001" height="1001" viewBox="0 0 1001 1001" version="1.1" xmlns="http://www.w3.org/2000/svg" xmlns:xlink="http://www.w3.org/1999/xlink">
<title>brand-AAD</title>
<desc>Created using Figma</desc>
<g id="Canvas" transform="matrix(83.4167 0 0 83.4167 -25275.2 -22856.2)">
<g id="brand-AAD">
<use xlink:href="#path0_fill" transform="translate(303 274)"/>
</g>
</g>
<defs>
<path id="path0_fill" d="M 12 7.67578L 6 11.1797L 0 7.67578L 6 0.820312L 12 7.67578ZM 8.91797 8.02734C 9.03516 8.02734 9.14648 8.00586 9.25195 7.96289C 9.35742 7.91602 9.44727 7.85547 9.52148 7.78125C 9.59961 7.70313 9.66016 7.61133 9.70312 7.50586C 9.75 7.40039 9.77344 7.28906 9.77344 7.17188C 9.77344 7.05469 9.75 6.94531 9.70312 6.84375C 9.66016 6.73828 9.59961 6.64844 9.52148 6.57422C 9.44336 6.49609 9.35156 6.43555 9.24609 6.39258C 9.14453 6.3457 9.03516 6.32227 8.91797 6.32227C 8.79297 6.32227 8.67188 6.34961 8.55469 6.4043L 6.71484 4.30078C 6.80469 4.16406 6.84961 4.00977 6.84961 3.83789C 6.84961 3.7207 6.82617 3.61133 6.7793 3.50977C 6.73633 3.4043 6.67578 3.31445 6.59766 3.24023C 6.52344 3.16211 6.43359 3.10156 6.32812 3.05859C 6.22656 3.01172 6.11719 2.98828 6 2.98828C 5.88281 2.98828 5.77148 3.01172 5.66602 3.05859C 5.56445 3.10156 5.47461 3.16211 5.39648 3.24023C 5.31836 3.31445 5.25586 3.4043 5.20898 3.50977C 5.16602 3.61133 5.14453 3.7207 5.14453 3.83789C 5.14453 3.91992 5.15625 4.00195 5.17969 4.08398C 5.20703 4.16211 5.24219 4.23437 5.28516 4.30078L 3.44531 6.4043C 3.32812 6.34961 3.20703 6.32227 3.08203 6.32227C 2.96484 6.32227 2.85352 6.3457 2.74805 6.39258C 2.64648 6.43555 2.55664 6.49609 2.47852 6.57422C 2.40039 6.64844 2.33789 6.73828 2.29102 6.84375C 2.24805 6.94531 2.22656 7.05469 2.22656 7.17188C 2.22656 7.28906 2.24805 7.40039 2.29102 7.50586C 2.33789 7.61133 2.39844 7.70313 2.47266 7.78125C 2.55078 7.85547 2.64258 7.91602 2.74805 7.96289C 2.85352 8.00586 2.96484 8.02734 3.08203 8.02734C 3.19141 8.02734 3.29688 8.00781 3.39844 7.96875C 3.5 7.92578 3.58984 7.86523 3.66797 7.78711L 5.17383 8.66602C 5.1543 8.74414 5.14453 8.81445 5.14453 8.87695C 5.14453 8.99414 5.16602 9.10547 5.20898 9.21094C 5.25586 9.3125 5.31836 9.40234 5.39648 9.48047C 5.47461 9.55859 5.56445 9.62109 5.66602 9.66797C 5.77148 9.71094 5.88281 9.73242 6 9.73242C 6.11719 9.73242 6.22656 9.71094 6.32812 9.66797C 6.43359 9.62109 6.52539 9.55859 6.60352 9.48047C 6.68164 9.40234 6.74219 9.3125 6.78516 9.21094C 6.83203 9.10547 6.85547 8.99414 6.85547 8.87695C 6.85547 8.81445 6.8457 8.74414 6.82617 8.66602L 8.32617 7.78711C 8.4043 7.86523 8.49414 7.92578 8.5957 7.96875C 8.69727 8.00781 8.80469 8.02734 8.91797 8.02734ZM 5.63672 4.61133C 5.65625 4.61914 5.67578 4.62695 5.69531 4.63477C 5.71875 4.64258 5.74219 4.65039 5.76562 4.6582L 5.76562 8.05664C 5.62891 8.09961 5.50977 8.16797 5.4082 8.26172L 3.90234 7.38281C 3.92187 7.30469 3.93164 7.23438 3.93164 7.17188C 3.93164 7 3.88672 6.8457 3.79688 6.70898L 5.63672 4.61133ZM 8.20312 6.70898C 8.11328 6.8457 8.06836 7 8.06836 7.17188C 8.06836 7.25 8.07617 7.32031 8.0918 7.38281L 6.5918 8.26172C 6.49023 8.16797 6.37109 8.09961 6.23438 8.05664L 6.23438 4.6582C 6.25781 4.65039 6.2793 4.64258 6.29883 4.63477C 6.32227 4.62695 6.34375 4.61914 6.36328 4.61133L 8.20312 6.70898Z"/>
</defs>
</svg>
