<svg width="1144" height="1001" viewBox="0 0 1144 1001" version="1.1" xmlns="http://www.w3.org/2000/svg" xmlns:xlink="http://www.w3.org/1999/xlink">
<title>brand-swift</title>
<desc>Created using Figma</desc>
<g id="Canvas" transform="matrix(71.5 0 0 71.5 -64278.5 -19519.5)">
<g id="brand-swift">
<use xlink:href="#path0_fill" transform="translate(899 273)"/>
</g>
</g>
<defs>
<path id="path0_fill" d="M 12.0686 13.0314C 10.1839 14.0945 7.59252 14.2037 4.98535 13.1126C 2.87438 12.2356 1.12282 10.7005 0 8.94651C 0.538959 9.38501 1.16773 9.73596 1.84141 10.0427C 4.53386 11.275 7.22575 11.1906 9.12015 10.0459C 9.11893 10.0447 9.11813 10.0439 9.11732 10.0427C 6.42252 8.02536 4.13197 5.394 2.42536 3.24529C 2.0659 2.89442 1.79642 2.45585 1.52694 2.06116C 3.59293 3.90307 6.87171 6.22725 8.0392 6.88539C 5.56934 4.34157 3.36843 1.18417 3.45809 1.27171C 7.3656 5.13102 11.0038 7.32388 11.0038 7.32388C 11.1241 7.39013 11.217 7.44534 11.2917 7.49463C 11.3704 7.29904 11.4395 7.09596 11.4976 6.88539C 12.1264 4.64875 11.408 2.10493 9.83586 -9.97469e-13C 13.4736 2.1489 15.6297 6.18348 14.7312 9.56052C 14.7077 9.65161 14.6823 9.74152 14.6548 9.82985C 14.6653 9.84207 14.6758 9.85469 14.6863 9.8677C 16.4826 12.0606 15.9887 14.3848 15.7642 13.9463C 14.7897 12.0842 12.9858 12.6536 12.0687 13.0314L 12.0686 13.0314Z"/>
</defs>
</svg>
