<svg width="1102" height="1001" viewBox="0 0 1102 1001" version="1.1" xmlns="http://www.w3.org/2000/svg" xmlns:xlink="http://www.w3.org/1999/xlink">
<title>brand-xamarin</title>
<desc>Created using Figma</desc>
<g id="Canvas" transform="matrix(100.1 0 0 100.1 -80480.4 -27527.5)">
<g id="brand-xamarin">
<use xlink:href="#path0_fill" transform="translate(804 275)"/>
</g>
</g>
<defs>
<path id="path0_fill" d="M 3.17394 0L 7.82606 0C 8.12315 0.000595407 8.41395 0.172944 8.56352 0.435794L 10.8896 4.5642C 11.0368 4.82776 11.0368 5.17224 10.8896 5.4358L 8.56352 9.56421C 8.41395 9.82706 8.12315 9.99936 7.82606 10L 3.17394 10C 2.87686 9.9994 2.58606 9.82706 2.43649 9.56421L 0.11042 5.4358C -0.0368066 5.17224 -0.0368066 4.82776 0.11042 4.5642L 2.43649 0.435794C 2.58604 0.172944 2.87686 0.000643681 3.17394 0ZM 3.21616 2.41517C 3.15172 2.42769 3.11286 2.51288 3.14471 2.57152L 4.47342 5L 3.14471 7.42515C 3.10826 7.48979 3.16277 7.58547 3.23567 7.58483L 4.03809 7.58483C 4.07423 7.58334 4.10887 7.56101 4.1258 7.52828L 5.48701 5.0499C 5.49386 5.03765 5.49827 5.024 5.49995 5.00998C 5.50162 5.02399 5.50604 5.03765 5.51289 5.0499L 6.87084 7.52828C 6.88829 7.56196 6.92457 7.58451 6.9618 7.58483L 7.76422 7.58483C 7.83712 7.58547 7.89164 7.48979 7.85519 7.42515L 6.52648 5L 7.85519 2.57152C 7.88849 2.50725 7.83527 2.41581 7.76422 2.41517L 6.9618 2.41517C 6.92521 2.41485 6.88914 2.43594 6.87084 2.4684L 5.51289 4.94677C 5.50604 4.95902 5.50163 4.97268 5.49995 4.98669C 5.49827 4.97268 5.49386 4.95903 5.48701 4.94677L 4.1258 2.4684C 4.10806 2.43689 4.07361 2.41592 4.03809 2.41517L 3.23567 2.41517C 3.22926 2.41453 3.22255 2.41453 3.21616 2.41517Z"/>
</defs>
</svg>
