<svg width="1144" height="1001" viewBox="0 0 1144 1001" version="1.1" xmlns="http://www.w3.org/2000/svg" xmlns:xlink="http://www.w3.org/1999/xlink">
<title>brand-react</title>
<desc>Created using Figma</desc>
<g id="Canvas" transform="matrix(71.5 0 0 71.5 -62634 -19519.5)">
<g id="brand-react">
<g id="Vector">
<use xlink:href="#path0_fill" transform="translate(876 273)"/>
</g>
<g id="Vector">
<use xlink:href="#path1_fill" transform="translate(882.506 278.537)"/>
</g>
</g>
</g>
<defs>
<path id="path0_fill" d="M 16 7.0016C 16 5.96017 14.6726 4.97322 12.6376 4.36118C 13.1072 2.32319 12.8985 0.701762 11.9788 0.18265C 11.7668 0.0608834 11.519 0.00320435 11.2483 0.00320435L 11.2483 0.717784C 11.3983 0.717784 11.519 0.746624 11.6201 0.801099C 12.0636 1.05104 12.256 2.00275 12.106 3.22683C 12.0701 3.52804 12.0114 3.84527 11.9397 4.16892C 11.3004 4.01511 10.6025 3.89654 9.86873 3.81964C 9.42845 3.22683 8.97187 2.68849 8.51203 2.21744C 9.57521 1.24651 10.5732 0.71458 11.2515 0.71458L 11.2515 4.55372e-16C 10.3547 4.55372e-16 9.18059 0.628062 7.99348 1.71756C 6.80636 0.63447 5.63229 0.0128176 4.73543 0.0128176L 4.73543 0.727397C 5.41052 0.727397 6.41174 1.25612 7.47493 2.22065C 7.01834 2.69169 6.56176 3.22683 6.12801 3.81964C 5.39095 3.89654 4.69303 4.01511 4.05381 4.17212C 3.9788 3.85168 3.92336 3.54086 3.88422 3.24285C 3.73094 2.01877 3.9201 1.06706 4.36037 0.813916C 4.45821 0.756237 4.58541 0.730602 4.73543 0.730602L 4.73543 0.016022C 4.46148 0.016022 4.21362 0.073701 3.99837 0.195468C 3.08194 0.71458 2.87648 2.3328 3.34937 4.36439C 1.32083 4.97963 -9.95274e-08 5.96338 -9.95274e-08 7.0016C -9.95274e-08 8.04303 1.32735 9.02998 3.36241 9.64202C 2.89278 11.68 3.10151 13.3014 4.0212 13.8206C 4.23318 13.9423 4.48104 14 4.75499 14C 5.65185 14 6.82593 13.3719 8.01305 12.2824C 9.20016 13.3655 10.3742 13.9872 11.2711 13.9872C 11.545 13.9872 11.7929 13.9295 12.0082 13.8077C 12.9246 13.2886 13.13 11.6704 12.6572 9.63882C 14.6792 9.02678 16 8.03983 16 7.0016ZM 11.7538 4.86427C 11.6331 5.27764 11.4831 5.70382 11.3135 6.13001C 11.1798 5.87365 11.0395 5.6173 10.8863 5.36095C 10.7362 5.1046 10.5764 4.85466 10.4166 4.61112C 10.8797 4.67842 11.3265 4.76173 11.7538 4.86427ZM 10.2601 8.27695C 10.0057 8.70954 9.7448 9.11971 9.47411 9.50103C 8.98818 9.54269 8.49572 9.56512 8 9.56512C 7.50754 9.56512 7.01508 9.54269 6.53241 9.50423C 6.26172 9.12291 5.99755 8.71595 5.74317 8.28656C 5.49531 7.86679 5.27028 7.4406 5.06482 7.01122C 5.26702 6.58183 5.49531 6.15244 5.73991 5.73266C 5.99429 5.30007 6.2552 4.88991 6.52589 4.50858C 7.01182 4.46693 7.50428 4.4445 8 4.4445C 8.49246 4.4445 8.98492 4.46693 9.46759 4.50538C 9.73828 4.8867 10.0024 5.29366 10.2568 5.72305C 10.5047 6.14282 10.7297 6.56901 10.9352 6.9984C 10.7297 7.42779 10.5047 7.85718 10.2601 8.27695ZM 11.3135 7.86038C 11.4896 8.28977 11.6396 8.71916 11.7636 9.13573C 11.3363 9.23827 10.8863 9.32479 10.4199 9.39208C 10.5797 9.14534 10.7395 8.89219 10.8895 8.63264C 11.0395 8.37629 11.1798 8.11673 11.3135 7.86038ZM 8.00652 11.2795C 7.70322 10.9718 7.39992 10.629 7.09988 10.2541C 7.3934 10.2669 7.69344 10.2765 7.99674 10.2765C 8.3033 10.2765 8.6066 10.2701 8.90338 10.2541C 8.60987 10.629 8.30656 10.9718 8.00652 11.2795ZM 5.58011 9.39208C 5.117 9.32479 4.6702 9.24147 4.24297 9.13893C 4.36364 8.72557 4.51366 8.29938 4.68324 7.8732C 4.81696 8.12955 4.9572 8.3859 5.11048 8.64225C 5.26376 8.8986 5.4203 9.14855 5.58011 9.39208ZM 7.99022 2.72374C 8.29352 3.03136 8.59682 3.37423 8.89686 3.74914C 8.60334 3.73632 8.3033 3.72671 8 3.72671C 7.69344 3.72671 7.39013 3.73312 7.09336 3.74914C 7.38687 3.37423 7.69018 3.03136 7.99022 2.72374ZM 5.57685 4.61112C 5.41704 4.85786 5.25724 5.11101 5.10722 5.37057C 4.95719 5.62692 4.81696 5.88327 4.68324 6.13962C 4.50713 5.71023 4.35711 5.28084 4.23318 4.86427C 4.66042 4.76493 5.11048 4.67842 5.57685 4.61112ZM 2.62536 8.62303C 1.47085 8.13916 0.724011 7.50469 0.724011 7.0016C 0.724011 6.49851 1.47085 5.86084 2.62536 5.38018C 2.90583 5.26162 3.21239 5.15587 3.52874 5.05653C 3.71463 5.6846 3.95923 6.33829 4.26254 7.00801C 3.96249 7.67453 3.72116 8.32502 3.53852 8.94987C 3.21565 8.85054 2.90909 8.74159 2.62536 8.62303ZM 4.37994 13.2021C 3.9364 12.9522 3.74399 12.0005 3.89401 10.7764C 3.92988 10.4752 3.98859 10.1579 4.06033 9.83429C 4.69955 9.9881 5.39747 10.1067 6.13127 10.1836C 6.57155 10.7764 7.02813 11.3147 7.48797 11.7858C 6.42479 12.7567 5.42682 13.2886 4.74847 13.2886C 4.60171 13.2854 4.47778 13.2566 4.37994 13.2021ZM 12.1158 10.7604C 12.2691 11.9844 12.0799 12.9361 11.6396 13.1893C 11.5418 13.247 11.4146 13.2726 11.2646 13.2726C 10.5895 13.2726 9.58826 12.7439 8.52507 11.7794C 8.98165 11.3083 9.43824 10.7732 9.87199 10.1804C 10.609 10.1035 11.307 9.98489 11.9462 9.82788C 12.0212 10.1515 12.0799 10.4623 12.1158 10.7604ZM 13.3714 8.62303C 13.0909 8.74159 12.7843 8.84733 12.468 8.94667C 12.2821 8.31861 12.0375 7.66491 11.7342 6.99519C 12.0342 6.32868 12.2756 5.67819 12.4582 5.05333C 12.7811 5.15267 13.0876 5.26162 13.3746 5.38018C 14.5291 5.86404 15.276 6.49851 15.276 7.0016C 15.2727 7.50469 14.5259 8.14237 13.3714 8.62303Z"/>
<path id="path1_fill" d="M 1.49042 2.92882C 2.31356 2.92882 2.98084 2.27318 2.98084 1.46441C 2.98084 0.655638 2.31356 0 1.49042 0C 0.667283 0 0 0.655638 0 1.46441C 0 2.27318 0.667283 2.92882 1.49042 2.92882Z"/>
</defs>
</svg>
