<svg width="1001" height="1001" viewBox="0 0 1001 1001" version="1.1" xmlns="http://www.w3.org/2000/svg" xmlns:xlink="http://www.w3.org/1999/xlink">
<title>brand-twitter</title>
<desc>Created using Figma</desc>
<g id="Canvas" transform="matrix(71.5 0 0 71.5 -73001.5 -2431)">
<rect x="1021" y="34" width="14" height="14" fill="#E5E5E5"/>
<g id="brand-twitter">
<mask id="mask0_outline" mask-type="alpha">
<g id="Mask">
<use xlink:href="#path0_fill" transform="translate(1021 35)" fill="#FFFFFF"/>
</g>
</mask>
<g id="Mask" mask="url(#mask0_outline)">
<use xlink:href="#path0_fill" transform="translate(1021 35)"/>
</g>
<g id="&#226;&#134;&#170;&#240;&#159;&#142;&#168;Color" mask="url(#mask0_outline)">
<g id="Rectangle 3">
<use xlink:href="#path1_fill" transform="translate(1021 34)"/>
</g>
</g>
</g>
</g>
<defs>
<path id="path0_fill" d="M 12.5664 2.83203L 12.5742 3.20312C 12.5742 7 9.6875 11.375 4.40234 11.375C 2.78125 11.375 1.26953 10.9023 0 10.0859C 0.226562 10.1133 0.453125 10.125 0.683594 10.125C 2.03125 10.125 3.26953 9.66797 4.25391 8.89453C 2.99609 8.87109 1.93359 8.04297 1.57031 6.90234C 2 6.98438 2.44141 6.96875 2.86719 6.85156C 1.55078 6.58984 0.5625 5.42578 0.5625 4.03516L 0.5625 4C 0.960938 4.22266 1.40625 4.34375 1.86328 4.35938C 1.09375 3.84375 0.585938 2.96484 0.585938 1.96875C 0.585938 1.44141 0.726562 0.949219 0.976562 0.523438C 2.39062 2.26172 4.50781 3.40625 6.89453 3.52344C 6.84375 3.31641 6.82031 3.09766 6.82031 2.87109C 6.82031 1.28516 8.10547 0 9.69141 0C 10.5195 0 11.2656 0.347656 11.7891 0.90625C 12.4414 0.777344 13.0586 0.539062 13.6133 0.207031C 13.3984 0.878906 12.9414 1.44141 12.3516 1.79688C 12.9297 1.72656 13.4844 1.57422 14 1.34375C 13.6133 1.92188 13.1289 2.42578 12.5664 2.83203Z"/>
<path id="path1_fill" fill-rule="evenodd" d="M 0 0L 14 0L 14 14L 0 14L 0 0Z"/>
</defs>
</svg>
