<svg width="1000" height="1000" viewBox="0 0 1000 1000" version="1.1" xmlns="http://www.w3.org/2000/svg" xmlns:xlink="http://www.w3.org/1999/xlink">
<title>build-issue</title>
<desc>Created using Figma</desc>
<g id="Canvas" transform="matrix(71.4286 0 0 71.4286 -59214.3 -17857.1)">
<rect x="829" y="250" width="14" height="14" fill="#E5E5E5"/>
<g id="build-issue">
<mask id="mask0_outline" mask-type="alpha">
<g id="Mask">
<use xlink:href="#path0_fill" transform="translate(829 250)" fill="#FFFFFF"/>
</g>
</mask>
<g id="Mask" mask="url(#mask0_outline)">
<use xlink:href="#path0_fill" transform="translate(829 250)"/>
</g>
<g id="&#226;&#134;&#170;&#240;&#159;&#142;&#168;Color" mask="url(#mask0_outline)">
<g id="Rectangle 3">
<use xlink:href="#path1_fill" transform="translate(829 250)" fill="#333333"/>
</g>
</g>
</g>
</g>
<defs>
<path id="path0_fill" fill-rule="evenodd" d="M 7.14453 3.35156L 9.5 5.70703L 11.8555 3.35156L 11.1484 2.64453L 10 3.79297L 10 0L 9 0L 9 3.79297L 7.85156 2.64453L 7.14453 3.35156ZM 7 14L 0 14L 0 5L 7 5L 7 14ZM 6 6L 1 6L 1 13L 6 13L 6 6ZM 3 7L 4 7L 4 10L 3 10L 3 7ZM 4 11L 3 11L 3 12L 4 12L 4 11ZM 13 6L 14 6L 14 12L 8 12L 8 9L 13 9L 13 6ZM 10 7L 10 8L 9 8L 9 7L 10 7ZM 12 7L 11 7L 11 8L 12 8L 12 7Z"/>
<path id="path1_fill" fill-rule="evenodd" d="M 0 0L 14 0L 14 14L 0 14L 0 0Z"/>
</defs>
</svg>
