<svg width="1001" height="1001" viewBox="0 0 1001 1001" version="1.1" xmlns="http://www.w3.org/2000/svg" xmlns:xlink="http://www.w3.org/1999/xlink">
<title>build</title>
<desc>Created using Figma</desc>
<g id="Canvas" transform="matrix(71.5 0 0 71.5 -52409.5 -17875)">
<rect x="733" y="250" width="14" height="14" fill="#E5E5E5"/>
<g id="build">
<mask id="mask0_outline" mask-type="alpha">
<g id="Mask">
<use xlink:href="#path0_fill" transform="translate(734 250)" fill="#FFFFFF"/>
</g>
</mask>
<g id="Mask" mask="url(#mask0_outline)">
<use xlink:href="#path0_fill" transform="translate(734 250)"/>
</g>
<g id="&#226;&#134;&#170;&#240;&#159;&#142;&#168;Color" mask="url(#mask0_outline)">
<g id="Rectangle 3">
<use xlink:href="#path1_fill" transform="translate(733 250)"/>
</g>
</g>
</g>
</g>
<defs>
<path id="path0_fill" fill-rule="evenodd" d="M 8.46484 3.73047L 6 6.20703L 3.50391 3.72656L 4.21875 3.01953L 5.5 4.29297L 5.50391 0L 6.49609 0L 6.5 4.29297L 7.76172 3.01953L 8.46484 3.73047ZM 4 7L 2 7L 2 9L 4 9L 4 7ZM 5 7L 5 9L 7 9L 7 7L 5 7ZM 10 9L 8 9L 8 7L 10 7L 10 9ZM 11 10L 11 5L 12 5L 12 14L 0 14L 0 5L 1 5L 1 10L 11 10ZM 3 13L 3 11L 5 11L 5 13L 3 13ZM 7 11L 7 13L 9 13L 9 11L 7 11Z"/>
<path id="path1_fill" fill-rule="evenodd" d="M 0 0L 14 0L 14 14L 0 14L 0 0Z"/>
</defs>
</svg>
