<svg width="1001" height="1001" viewBox="0 0 1001 1001" version="1.1" xmlns="http://www.w3.org/2000/svg" xmlns:xlink="http://www.w3.org/1999/xlink">
<title>c-plus</title>
<desc>Created using Figma</desc>
<g id="Canvas" transform="matrix(71.5 0 0 71.5 -83369 -17875)">
<g id="c-plus">
<use xlink:href="#path0_fill" transform="translate(1166 250)"/>
</g>
</g>
<defs>
<path id="path0_fill" d="M 13.265 9.625L 9.765 9.625L 9.765 13.125L 8.89 13.125L 8.89 9.625L 5.39 9.625L 5.39 8.75L 8.89 8.75L 8.89 5.25L 9.765 5.25L 9.765 8.75L 13.265 8.75L 13.265 9.625ZM 4.515 4.375L 4.515 7.875L 3.64 7.875L 3.64 4.375L 0.14 4.375L 0.14 3.5L 3.64 3.5L 3.64 0L 4.515 0L 4.515 3.5L 8.015 3.5L 8.015 4.375L 4.515 4.375Z"/>
</defs>
</svg>
