<svg width="1000" height="1000" viewBox="0 0 1000 1000" version="1.1" xmlns="http://www.w3.org/2000/svg" xmlns:xlink="http://www.w3.org/1999/xlink">
<title>camera</title>
<desc>Created using Figma</desc>
<g id="Canvas" transform="matrix(71.4286 0 0 71.4286 -95214.3 -2428.57)">
<rect x="1333" y="34" width="14" height="14" fill="#E5E5E5"/>
<g id="camera">
<g id="Shape">
<use xlink:href="#path0_fill" transform="translate(1333 34.0078)" fill="#333333"/>
</g>
</g>
</g>
<defs>
<path id="path0_fill" fill-rule="evenodd" d="M 14 1L 14 11L 0 11L 0 1L 3.28516 1L 4.28516 0L 9.69922 0L 10.6992 1L 14 1ZM 1 10L 13 10L 13 2L 10.2852 2L 9.28516 1L 4.69922 1L 3.69922 2L 1 2L 1 10ZM 4 6C 4 7.65625 5.34766 9 7 9C 8.65234 9 10 7.65625 10 6C 10 4.34766 8.65234 3 7 3C 5.34766 3 4 4.34766 4 6ZM 7 4C 5.89844 4 5 4.89844 5 6C 5 7.10156 5.89844 8 7 8C 8.10156 8 9 7.10156 9 6C 9 4.89844 8.10156 4 7 4ZM 3.00781 3.49219C 3.00781 3.21875 3.22656 3 3.5 3C 3.77344 3 3.99219 3.21875 3.99219 3.49219C 3.99219 3.76563 3.77344 3.98438 3.5 3.98438C 3.22656 3.98438 3.00781 3.76563 3.00781 3.49219Z"/>
</defs>
</svg>
