<svg width="1202" height="1001" viewBox="0 0 1202 1001" version="1.1" xmlns="http://www.w3.org/2000/svg" xmlns:xlink="http://www.w3.org/1999/xlink">
<title>car</title>
<desc>Created using Figma</desc>
<g id="Canvas" transform="matrix(100.1 0 0 100.1 -131031 -25325.3)">
<g id="car">
<use xlink:href="#path0_fill" transform="translate(1309 251)"/>
</g>
</g>
<defs>
<path id="path0_fill" d="M 2.25 6.75C 2.35547 6.75 2.45312 6.76953 2.54297 6.80859C 2.63281 6.84766 2.71094 6.90234 2.77734 6.97266C 2.84766 7.03906 2.90234 7.11719 2.94141 7.20703C 2.98047 7.29687 3 7.39453 3 7.5C 3 7.60547 2.98047 7.70313 2.94141 7.79297C 2.90234 7.88281 2.84766 7.96289 2.77734 8.0332C 2.71094 8.09961 2.63281 8.15234 2.54297 8.19141C 2.45312 8.23047 2.35547 8.25 2.25 8.25C 2.14453 8.25 2.04688 8.23047 1.95703 8.19141C 1.86719 8.15234 1.78711 8.09961 1.7168 8.0332C 1.65039 7.96289 1.59766 7.88281 1.55859 7.79297C 1.51953 7.70313 1.5 7.60547 1.5 7.5C 1.5 7.39453 1.51953 7.29687 1.55859 7.20703C 1.59766 7.11719 1.65039 7.03906 1.7168 6.97266C 1.78711 6.90234 1.86719 6.84766 1.95703 6.80859C 2.04688 6.76953 2.14453 6.75 2.25 6.75ZM 9.75 6.75C 9.85547 6.75 9.95312 6.76953 10.043 6.80859C 10.1328 6.84766 10.2109 6.90234 10.2773 6.97266C 10.3477 7.03906 10.4023 7.11719 10.4414 7.20703C 10.4805 7.29687 10.5 7.39453 10.5 7.5C 10.5 7.60547 10.4805 7.70313 10.4414 7.79297C 10.4023 7.88281 10.3477 7.96289 10.2773 8.0332C 10.2109 8.09961 10.1328 8.15234 10.043 8.19141C 9.95312 8.23047 9.85547 8.25 9.75 8.25C 9.64453 8.25 9.54688 8.23047 9.45703 8.19141C 9.36719 8.15234 9.28711 8.09961 9.2168 8.0332C 9.15039 7.96289 9.09766 7.88281 9.05859 7.79297C 9.01953 7.70313 9 7.60547 9 7.5C 9 7.39453 9.01953 7.29687 9.05859 7.20703C 9.09766 7.11719 9.15039 7.03906 9.2168 6.97266C 9.28711 6.90234 9.36719 6.84766 9.45703 6.80859C 9.54688 6.76953 9.64453 6.75 9.75 6.75ZM 11.7832 5.25L 11.3965 5.63086C 11.4043 5.65039 11.4238 5.70898 11.4551 5.80664C 11.4863 5.9043 11.5234 6.01953 11.5664 6.15234C 11.6133 6.28516 11.6621 6.42773 11.7129 6.58008C 11.7637 6.73242 11.8105 6.87305 11.8535 7.00195C 11.8965 7.12695 11.9316 7.23242 11.959 7.31836C 11.9863 7.40039 12 7.44141 12 7.44141L 12 11.25C 12 11.3555 11.9805 11.4531 11.9414 11.543C 11.9023 11.6328 11.8477 11.7129 11.7773 11.7832C 11.7109 11.8496 11.6328 11.9023 11.543 11.9414C 11.4531 11.9805 11.3555 12 11.25 12L 10.5 12C 10.3945 12 10.2969 11.9805 10.207 11.9414C 10.1172 11.9023 10.0371 11.8496 9.9668 11.7832C 9.90039 11.7129 9.84766 11.6328 9.80859 11.543C 9.76953 11.4531 9.75 11.3555 9.75 11.25L 2.25 11.25C 2.25 11.3555 2.23047 11.4531 2.19141 11.543C 2.15234 11.6328 2.09766 11.7129 2.02734 11.7832C 1.96094 11.8496 1.88281 11.9023 1.79297 11.9414C 1.70312 11.9805 1.60547 12 1.5 12L 0.75 12C 0.644531 12 0.546875 11.9805 0.457031 11.9414C 0.367188 11.9023 0.287109 11.8496 0.216797 11.7832C 0.150391 11.7129 0.0976562 11.6328 0.0585938 11.543C 0.0195312 11.4531 0 11.3555 0 11.25L 0 7.44141C 0 7.44141 0.0136719 7.40039 0.0410156 7.31836C 0.0683594 7.23242 0.103516 7.12695 0.146484 7.00195C 0.189453 6.87305 0.236328 6.73242 0.287109 6.58008C 0.337891 6.42773 0.384766 6.28516 0.427734 6.15234C 0.474609 6.01953 0.513672 5.9043 0.544922 5.80664C 0.576172 5.70898 0.595703 5.65039 0.603516 5.63086L 0.216797 5.25L 0 5.25L 0 4.5L 0.533203 4.5L 0.867188 4.83984L 1.30078 3.5332C 1.36328 3.3418 1.45312 3.16797 1.57031 3.01172C 1.69141 2.85156 1.83008 2.7168 1.98633 2.60742C 2.14258 2.49414 2.3125 2.40625 2.49609 2.34375C 2.68359 2.28125 2.87891 2.25 3.08203 2.25L 8.91797 2.25C 9.12109 2.25 9.31445 2.28125 9.49805 2.34375C 9.68555 2.40625 9.85742 2.49414 10.0137 2.60742C 10.1699 2.7168 10.3066 2.85156 10.4238 3.01172C 10.541 3.16797 10.6328 3.3418 10.6992 3.5332L 11.1328 4.83984L 11.4668 4.5L 12 4.5L 12 5.25L 11.7832 5.25ZM 3.08203 3C 2.83594 3 2.61523 3.07031 2.41992 3.21094C 2.22852 3.35156 2.09375 3.53711 2.01562 3.76758L 1.51758 5.25L 10.4824 5.25L 9.98438 3.76758C 9.90625 3.53711 9.76953 3.35156 9.57422 3.21094C 9.38281 3.07031 9.16406 3 8.91797 3L 3.08203 3ZM 8.25 10.2129L 7.64062 9L 4.35938 9L 3.75 10.2129L 3.75 10.5L 8.25 10.5L 8.25 10.2129ZM 11.25 10.5L 11.25 7.55859C 11.25 7.55859 11.2383 7.52344 11.2148 7.45312C 11.1914 7.37891 11.1602 7.28711 11.1211 7.17773C 11.0859 7.06836 11.0469 6.94922 11.0039 6.82031C 10.9609 6.6875 10.9199 6.56445 10.8809 6.45117C 10.8418 6.33398 10.8066 6.23438 10.7754 6.15234C 10.748 6.07031 10.7324 6.01953 10.7285 6L 1.27148 6C 1.26367 6.01953 1.24609 6.07031 1.21875 6.15234C 1.19141 6.23438 1.1582 6.33398 1.11914 6.45117C 1.08008 6.56445 1.03906 6.6875 0.996094 6.82031C 0.953125 6.94922 0.912109 7.06836 0.873047 7.17773C 0.837891 7.28711 0.808594 7.37891 0.785156 7.45312C 0.761719 7.52344 0.75 7.55859 0.75 7.55859L 0.75 10.5L 3 10.5L 3 10.0371L 3.89062 8.25L 8.10938 8.25L 9 10.0371L 9 10.5L 11.25 10.5Z"/>
</defs>
</svg>
