<svg width="715" height="1001" viewBox="0 0 715 1001" version="1.1" xmlns="http://www.w3.org/2000/svg" xmlns:xlink="http://www.w3.org/1999/xlink">
<title>cellphone</title>
<desc>Created using Figma</desc>
<g id="Canvas" transform="matrix(71.5 0 0 71.5 -62848.5 -17875)">
<g id="cellphone">
<use xlink:href="#path0_fill" transform="translate(879.625 250)"/>
</g>
</g>
<defs>
<path id="path0_fill" d="M 7.875 0C 7.99805 0 8.11198 0.0227865 8.2168 0.0683594C 8.32161 0.113932 8.41276 0.177734 8.49023 0.259766C 8.57227 0.33724 8.63607 0.428385 8.68164 0.533203C 8.72721 0.638021 8.75 0.751953 8.75 0.875L 8.75 13.125C 8.75 13.248 8.72721 13.362 8.68164 13.4668C 8.63607 13.5716 8.57227 13.665 8.49023 13.7471C 8.41276 13.8245 8.32161 13.8861 8.2168 13.9316C 8.11198 13.9772 7.99805 14 7.875 14L 0.875 14C 0.751953 14 0.638021 13.9772 0.533203 13.9316C 0.428385 13.8861 0.334961 13.8245 0.25293 13.7471C 0.175456 13.665 0.113932 13.5716 0.0683594 13.4668C 0.0227865 13.362 0 13.248 0 13.125L 0 0.875C 0 0.751953 0.0227865 0.638021 0.0683594 0.533203C 0.113932 0.428385 0.175456 0.33724 0.25293 0.259766C 0.334961 0.177734 0.428385 0.113932 0.533203 0.0683594C 0.638021 0.0227865 0.751953 0 0.875 0L 7.875 0ZM 7.875 0.875L 0.875 0.875L 0.875 13.125L 7.875 13.125L 7.875 0.875ZM 3.5 11.375L 5.25 11.375L 5.25 12.25L 3.5 12.25L 3.5 11.375Z"/>
</defs>
</svg>
