<svg width="1000" height="1000" viewBox="0 0 1000 1000" version="1.1" xmlns="http://www.w3.org/2000/svg" xmlns:xlink="http://www.w3.org/1999/xlink">
<title>chart-pivot</title>
<desc>Created using Figma</desc>
<g id="Canvas" transform="matrix(71.4286 0 0 71.4286 -18071.4 -4142.86)">
<rect x="253" y="58" width="14" height="14" fill="#E5E5E5"/>
<g id="chart-pivot">
<mask id="mask0_outline" mask-type="alpha">
<g id="Mask">
<use xlink:href="#path0_fill" transform="translate(253 58)" fill="#FFFFFF"/>
</g>
</mask>
<g id="Mask" mask="url(#mask0_outline)">
<use xlink:href="#path0_fill" transform="translate(253 58)"/>
</g>
<g id="&#226;&#134;&#170;&#240;&#159;&#142;&#168;Color" mask="url(#mask0_outline)">
<g id="Rectangle 3">
<use xlink:href="#path1_fill" transform="translate(253 58)"/>
</g>
</g>
</g>
</g>
<defs>
<path id="path0_fill" fill-rule="evenodd" d="M 0 14L 0 0L 14 0L 14 14L 0 14ZM 1 13L 13 13L 13 1L 1 1L 1 13ZM 4 4L 2 4L 2 2L 4 2L 4 4ZM 5 4L 12 4L 12 2L 5 2L 5 4ZM 4 12L 2 12L 2 5L 4 5L 4 12ZM 12.3555 6.89453L 10.5 5.04297L 8.64453 6.89453L 9.35547 7.60547L 10 6.95703L 10 10L 6.95703 10L 7.60547 9.35547L 6.89453 8.64453L 5.04297 10.5L 6.89453 12.3555L 7.60547 11.6445L 6.95703 11L 11 11L 11 6.95703L 11.6445 7.60547L 12.3555 6.89453Z"/>
<path id="path1_fill" fill-rule="evenodd" d="M 0 0L 14 0L 14 14L 0 14L 0 0Z"/>
</defs>
</svg>
