<svg width="1001" height="1001" viewBox="0 0 1001 1001" version="1.1" xmlns="http://www.w3.org/2000/svg" xmlns:xlink="http://www.w3.org/1999/xlink">
<title>city</title>
<desc>Created using Figma</desc>
<g id="Canvas" transform="matrix(83.4167 0 0 83.4167 -29279.2 -22856.2)">
<g id="city">
<use xlink:href="#path0_fill" transform="translate(351 274)"/>
</g>
</g>
<defs>
<path id="path0_fill" d="M 7.5 0.216797L 11.25 3.9668L 11.25 12L 10.5 12L 10.5 4.2832L 8.25 2.0332L 8.25 4.5L 9 4.5L 9 12L 6.75 12L 6.75 9.75L 6 9.75L 6 12L 3.75 12L 3.75 4.5L 6 4.5L 6 3.75L 1.5 3.75L 1.5 12L 0.75 12L 0.75 3L 6.75 3L 6.75 4.5L 7.5 4.5L 7.5 0.216797ZM 8.25 11.25L 8.25 5.25L 4.5 5.25L 4.5 11.25L 5.25 11.25L 5.25 9L 7.5 9L 7.5 11.25L 8.25 11.25ZM 2.25 5.25L 2.25 4.5L 3 4.5L 3 5.25L 2.25 5.25ZM 2.25 6.75L 2.25 6L 3 6L 3 6.75L 2.25 6.75ZM 2.25 8.25L 2.25 7.5L 3 7.5L 3 8.25L 2.25 8.25ZM 2.25 9.75L 2.25 9L 3 9L 3 9.75L 2.25 9.75ZM 2.25 11.25L 2.25 10.5L 3 10.5L 3 11.25L 2.25 11.25ZM 7.5 6L 7.5 6.75L 6.75 6.75L 6.75 6L 7.5 6ZM 7.5 7.5L 7.5 8.25L 6.75 8.25L 6.75 7.5L 7.5 7.5ZM 6 6L 6 6.75L 5.25 6.75L 5.25 6L 6 6ZM 6 7.5L 6 8.25L 5.25 8.25L 5.25 7.5L 6 7.5Z"/>
</defs>
</svg>
