<svg width="1000" height="1000" viewBox="0 0 1000 1000" version="1.1" xmlns="http://www.w3.org/2000/svg" xmlns:xlink="http://www.w3.org/1999/xlink">
<title>clear-filter</title>
<desc>Created using Figma</desc>
<g id="Canvas" transform="matrix(71.4286 0 0 71.4286 -57500 -4142.86)">
<rect x="805" y="58" width="14" height="14" fill="#E5E5E5"/>
<g id="clear-filter">
<mask id="mask0_outline" mask-type="alpha">
<g id="Mask">
<use xlink:href="#path0_fill" transform="translate(805 58)" fill="#FFFFFF"/>
</g>
</mask>
<g id="Mask" mask="url(#mask0_outline)">
<use xlink:href="#path0_fill" transform="translate(805 58)"/>
</g>
<g id="&#226;&#134;&#170;&#240;&#159;&#142;&#168;Color" mask="url(#mask0_outline)">
<g id="Rectangle 3">
<use xlink:href="#path1_fill" transform="translate(805 58)"/>
</g>
</g>
</g>
</g>
<defs>
<path id="path0_fill" fill-rule="evenodd" d="M 4.79279 4.07151L 4.07153 4.79279L 2.39642 3.11768L 0.721313 4.79279L 0 4.07151L 1.67511 2.3964L 0 0.721285L 0.721313 0L 2.39642 1.67511L 4.07153 0L 4.79279 0.721285L 3.11768 2.3964L 4.79279 4.07151ZM 14 2.51464L 14 0.882883L 5.92792 0.882883L 5.92792 1.89189L 12.991 1.89189L 12.991 2.12444L 7.94592 7.7134L 7.94592 12.991L 5.92792 12.991L 5.92792 7.7134L 4.28436 5.89246L 3.53546 6.56644L 4.91888 8.09966L 4.91888 14L 8.95496 14L 8.95496 8.09966L 14 2.51464Z"/>
<path id="path1_fill" fill-rule="evenodd" d="M 0 0L 14 0L 14 14L 0 14L 0 0Z"/>
</defs>
</svg>
