<svg width="875" height="1000" viewBox="0 0 875 1000" version="1.1" xmlns="http://www.w3.org/2000/svg" xmlns:xlink="http://www.w3.org/1999/xlink">
<title>clone-to-desktop</title>
<desc>Created using Figma</desc>
<g id="Canvas" transform="matrix(62.5 0 0 62.5 -53312.5 -3562.5)">
<rect x="853" y="57" width="14" height="16" fill="#E5E5E5"/>
<g id="clone-to-desktop">
<mask id="mask0_outline" mask-type="alpha">
<g id="Mask">
<use xlink:href="#path0_fill" transform="translate(853 57)" fill="#FFFFFF"/>
</g>
</mask>
<g id="Mask" mask="url(#mask0_outline)">
<use xlink:href="#path0_fill" transform="translate(853 57)"/>
</g>
<g id="&#226;&#134;&#170;&#240;&#159;&#142;&#168;Color" mask="url(#mask0_outline)">
<g id="Rectangle 3">
<use xlink:href="#path1_fill" transform="translate(853 58)"/>
</g>
</g>
</g>
</g>
<defs>
<path id="path0_fill" fill-rule="evenodd" d="M 7.53845 7.75893L 8.75842 6.45982L 9.51984 7.25446L 7.01263 9.95089L 4.50122 7.25446L 5.25842 6.45536L 6.46155 7.75893L 6.46155 0L 7.53845 0L 7.53845 7.75893ZM 7.53845 14.8571L 7.53845 13.7143L 14 13.7143L 14 3.42857L 8.61536 3.42857L 8.61536 4.57143L 12.9231 4.57143L 12.9231 12.5714L 1.0769 12.5714L 1.0769 4.57143L 5.38464 4.57143L 5.38464 3.42857L 0 3.42857L 0 13.7143L 6.46155 13.7143L 6.46155 14.8571L 4.30768 14.8571L 4.30768 16L 9.69232 16L 9.69232 14.8571L 7.53845 14.8571Z"/>
<path id="path1_fill" fill-rule="evenodd" d="M 0 0L 14 0L 14 14L 0 14L 0 0Z"/>
</defs>
</svg>
