<svg width="875" height="1000" viewBox="0 0 875 1000" version="1.1" xmlns="http://www.w3.org/2000/svg" xmlns:xlink="http://www.w3.org/1999/xlink">
<title>clone</title>
<desc>Created using Figma</desc>
<g id="Canvas" transform="matrix(62.5 0 0 62.5 -51812.5 -3562.5)">
<rect x="829" y="57" width="14" height="16" fill="#E5E5E5"/>
<g id="clone">
<mask id="mask0_outline" mask-type="alpha">
<g id="Mask">
<use xlink:href="#path0_fill" transform="translate(829 57)" fill="#FFFFFF"/>
</g>
</mask>
<g id="Mask" mask="url(#mask0_outline)">
<use xlink:href="#path0_fill" transform="translate(829 57)"/>
</g>
<g id="&#226;&#134;&#170;&#240;&#159;&#142;&#168;Color" mask="url(#mask0_outline)">
<g id="Rectangle 3">
<use xlink:href="#path1_fill" transform="translate(829 58)"/>
</g>
</g>
</g>
</g>
<defs>
<path id="path0_fill" fill-rule="evenodd" d="M 8.82153 3.42857L 9.91528 3.42857L 14 7.76339L 14 16L 4.30768 16L 4.30768 12.5714L 0 12.5714L 0 0L 5.60339 0L 8.82153 3.42857ZM 12.7001 8L 9.69232 4.80803L 9.69232 8L 12.7001 8ZM 4.30768 11.4286L 1.0769 11.4286L 1.0769 1.14286L 5.16583 1.14286L 7.33234 3.42857L 4.30768 3.42857L 4.30768 11.4286ZM 5.38464 14.8571L 12.9231 14.8571L 12.9231 9.14286L 8.61542 9.14286L 8.61542 4.57143L 5.38464 4.57143L 5.38464 14.8571Z"/>
<path id="path1_fill" fill-rule="evenodd" d="M 0 0L 14 0L 14 14L 0 14L 0 0Z"/>
</defs>
</svg>
