<svg width="1502" height="1001" viewBox="0 0 1502 1001" version="1.1" xmlns="http://www.w3.org/2000/svg" xmlns:xlink="http://www.w3.org/1999/xlink">
<title>cloud</title>
<desc>Created using Figma</desc>
<g id="Canvas" transform="matrix(125.125 0 0 125.125 -91841.8 -34659.6)">
<g id="cloud">
<use xlink:href="#path0_fill" transform="translate(734 275)"/>
</g>
</g>
<defs>
<path id="path0_fill" d="M 9.73242 5.25C 10.0449 5.25 10.3379 5.30859 10.6113 5.42578C 10.8887 5.54297 11.1289 5.70313 11.332 5.90625C 11.5391 6.10547 11.7012 6.3418 11.8184 6.61523C 11.9395 6.88867 12 7.18359 12 7.5C 12 7.8125 11.9414 8.10547 11.8242 8.37891C 11.707 8.64844 11.5449 8.88672 11.3379 9.09375C 11.1348 9.29687 10.8965 9.45703 10.623 9.57422C 10.3496 9.69141 10.0586 9.75 9.75 9.75L 3 9.75C 2.58594 9.75 2.19531 9.67187 1.82812 9.51562C 1.46484 9.35938 1.14648 9.14648 0.873047 8.87695C 0.603516 8.60352 0.390625 8.28516 0.234375 7.92188C 0.078125 7.55469 0 7.16406 0 6.75C 0 6.33594 0.078125 5.94727 0.234375 5.58398C 0.390625 5.2168 0.603516 4.89844 0.873047 4.62891C 1.14648 4.35547 1.46484 4.14062 1.82812 3.98438C 2.19531 3.82813 2.58594 3.75 3 3.75C 3.17969 3.75 3.36133 3.76758 3.54492 3.80273C 3.70117 3.56055 3.88086 3.34375 4.08398 3.15234C 4.29102 2.95703 4.51563 2.79297 4.75781 2.66016C 5 2.52734 5.25781 2.42578 5.53125 2.35547C 5.80469 2.28516 6.08594 2.25 6.375 2.25C 6.80859 2.25 7.2168 2.32617 7.59961 2.47852C 7.98633 2.63086 8.32813 2.8418 8.625 3.11133C 8.92187 3.37695 9.16602 3.69336 9.35742 4.06055C 9.55273 4.42773 9.67773 4.82422 9.73242 5.25ZM 9.75 9C 9.95703 9 10.1504 8.96094 10.3301 8.88281C 10.5137 8.80469 10.6738 8.69727 10.8105 8.56055C 10.9473 8.42383 11.0547 8.26563 11.1328 8.08594C 11.2109 7.90234 11.25 7.70703 11.25 7.5C 11.25 7.29297 11.2109 7.09961 11.1328 6.91992C 11.0547 6.73633 10.9473 6.57617 10.8105 6.43945C 10.6738 6.30273 10.5137 6.19531 10.3301 6.11719C 10.1504 6.03906 9.95703 6 9.75 6L 9 6L 9 5.625C 9 5.26172 8.93164 4.92188 8.79492 4.60547C 8.6582 4.28516 8.4707 4.00586 8.23242 3.76758C 7.99414 3.5293 7.71484 3.3418 7.39453 3.20508C 7.07812 3.06836 6.73828 3 6.375 3C 6.10156 3 5.83789 3.04102 5.58398 3.12305C 5.33008 3.20508 5.0957 3.32031 4.88086 3.46875C 4.66992 3.61719 4.48242 3.79688 4.31836 4.00781C 4.1543 4.21484 4.02344 4.44727 3.92578 4.70508C 3.63281 4.56836 3.32422 4.5 3 4.5C 2.6875 4.5 2.39453 4.55859 2.12109 4.67578C 1.85156 4.79297 1.61328 4.95508 1.40625 5.16211C 1.20312 5.36523 1.04297 5.60352 0.925781 5.87695C 0.808594 6.15039 0.75 6.44141 0.75 6.75C 0.75 7.0625 0.808594 7.35547 0.925781 7.62891C 1.04297 7.89844 1.20312 8.13672 1.40625 8.34375C 1.61328 8.54688 1.85156 8.70703 2.12109 8.82422C 2.39453 8.94141 2.6875 9 3 9L 9.75 9Z"/>
</defs>
</svg>
