<svg width="930" height="1001" viewBox="0 0 930 1001" version="1.1" xmlns="http://www.w3.org/2000/svg" xmlns:xlink="http://www.w3.org/1999/xlink">
<title>code</title>
<desc>Created using Figma</desc>
<g id="Canvas" transform="matrix(71.5 0 0 71.5 -76505 -17875)">
<g id="code">
<use xlink:href="#path0_fill" transform="translate(1069 250)"/>
</g>
</g>
<defs>
<path id="path0_fill" d="M 1.015 6.125C 1.25198 6.125 1.47757 6.07943 1.69176 5.98828C 1.90595 5.89258 2.09052 5.76725 2.24547 5.6123C 2.40497 5.4528 2.5303 5.26823 2.62145 5.05859C 2.71715 4.8444 2.765 4.61654 2.765 4.375C 2.765 4.05143 2.75816 3.72786 2.74449 3.4043C 2.73082 3.08073 2.73993 2.76628 2.77184 2.46094C 2.80829 2.15104 2.88121 1.85254 2.99059 1.56543C 3.10452 1.27832 3.28453 1.01172 3.53062 0.765625C 3.77672 0.519531 4.06155 0.330404 4.38512 0.198242C 4.70868 0.0660805 5.04365 0 5.39 0L 5.39 0.875C 5.14846 0.875 4.9206 0.922852 4.70641 1.01855C 4.49677 1.1097 4.3122 1.23503 4.1527 1.39453C 3.99775 1.54948 3.87242 1.73405 3.77672 1.94824C 3.68557 2.16244 3.64 2.38802 3.64 2.625C 3.64 2.88021 3.64456 3.13314 3.65367 3.38379C 3.66279 3.62988 3.66279 3.8737 3.65367 4.11523C 3.64911 4.35221 3.62861 4.58464 3.59215 4.8125C 3.55569 5.03581 3.49417 5.25 3.40758 5.45508C 3.32099 5.66016 3.2025 5.85612 3.05211 6.04297C 2.90172 6.22982 2.70803 6.40299 2.47105 6.5625C 2.70803 6.72201 2.90172 6.89518 3.05211 7.08203C 3.2025 7.26888 3.32099 7.46484 3.40758 7.66992C 3.49417 7.875 3.55569 8.09147 3.59215 8.31934C 3.62861 8.54264 3.64911 8.77507 3.65367 9.0166C 3.66279 9.25358 3.66279 9.4974 3.65367 9.74805C 3.64456 9.99414 3.64 10.2448 3.64 10.5C 3.64 10.7415 3.68557 10.9694 3.77672 11.1836C 3.87242 11.3932 3.99775 11.5778 4.1527 11.7373C 4.3122 11.8923 4.49677 12.0176 4.70641 12.1133C 4.9206 12.2044 5.14846 12.25 5.39 12.25L 5.39 13.125C 5.04365 13.125 4.70868 13.0589 4.38512 12.9268C 4.06155 12.7946 3.77672 12.6055 3.53062 12.3594C 3.28453 12.1133 3.10452 11.8467 2.99059 11.5596C 2.88121 11.2725 2.80829 10.9762 2.77184 10.6709C 2.73993 10.361 2.73082 10.0443 2.74449 9.7207C 2.75816 9.39714 2.765 9.07357 2.765 8.75C 2.765 8.51302 2.71715 8.28743 2.62145 8.07324C 2.5303 7.85905 2.40497 7.67448 2.24547 7.51953C 2.09052 7.36003 1.90595 7.2347 1.69176 7.14355C 1.47757 7.04785 1.25198 7 1.015 7L 1.015 6.125ZM 8.89 0C 9.23635 0 9.57131 0.0660805 9.89488 0.198242C 10.2185 0.330404 10.5033 0.519531 10.7494 0.765625C 10.9955 1.01172 11.1732 1.27832 11.2826 1.56543C 11.3965 1.85254 11.4694 2.15104 11.5013 2.46094C 11.5378 2.76628 11.5492 3.08073 11.5355 3.4043C 11.5218 3.72786 11.515 4.05143 11.515 4.375C 11.515 4.61654 11.5606 4.8444 11.6517 5.05859C 11.7474 5.26823 11.8727 5.4528 12.0277 5.6123C 12.1872 5.76725 12.3718 5.89258 12.5814 5.98828C 12.7956 6.07943 13.0235 6.125 13.265 6.125L 13.265 7C 13.0235 7 12.7956 7.04785 12.5814 7.14355C 12.3718 7.2347 12.1872 7.36003 12.0277 7.51953C 11.8727 7.67448 11.7474 7.85905 11.6517 8.07324C 11.5606 8.28743 11.515 8.51302 11.515 8.75C 11.515 9.07357 11.5218 9.39714 11.5355 9.7207C 11.5492 10.0443 11.5378 10.361 11.5013 10.6709C 11.4694 10.9762 11.3965 11.2725 11.2826 11.5596C 11.1732 11.8467 10.9955 12.1133 10.7494 12.3594C 10.5033 12.6055 10.2185 12.7946 9.89488 12.9268C 9.57131 13.0589 9.23635 13.125 8.89 13.125L 8.89 12.25C 9.12698 12.25 9.35256 12.2044 9.56676 12.1133C 9.78095 12.0176 9.96552 11.8923 10.1205 11.7373C 10.28 11.5778 10.4053 11.3932 10.4964 11.1836C 10.5921 10.9694 10.64 10.7415 10.64 10.5C 10.64 10.2448 10.6354 9.99414 10.6263 9.74805C 10.6172 9.4974 10.6149 9.25358 10.6195 9.0166C 10.6286 8.77507 10.6514 8.54264 10.6879 8.31934C 10.7243 8.09147 10.7858 7.875 10.8724 7.66992C 10.959 7.46484 11.0775 7.26888 11.2279 7.08203C 11.3783 6.89518 11.572 6.72201 11.8089 6.5625C 11.572 6.40299 11.3783 6.22982 11.2279 6.04297C 11.0775 5.85612 10.959 5.66016 10.8724 5.45508C 10.7858 5.25 10.7243 5.03581 10.6879 4.8125C 10.6514 4.58464 10.6286 4.35221 10.6195 4.11523C 10.6149 3.8737 10.6172 3.62988 10.6263 3.38379C 10.6354 3.13314 10.64 2.88021 10.64 2.625C 10.64 2.38802 10.5921 2.16244 10.4964 1.94824C 10.4053 1.73405 10.28 1.54948 10.1205 1.39453C 9.96552 1.23503 9.78095 1.1097 9.56676 1.01855C 9.35256 0.922852 9.12698 0.875 8.89 0.875L 8.89 0Z"/>
</defs>
</svg>
