<svg width="1000" height="1000" viewBox="0 0 1000 1000" version="1.1" xmlns="http://www.w3.org/2000/svg" xmlns:xlink="http://www.w3.org/1999/xlink">
<title>column-option</title>
<desc>Created using Figma</desc>
<g id="Canvas" transform="matrix(71.4286 0 0 71.4286 -66071.4 -4142.86)">
<rect x="925" y="58" width="14" height="14" fill="#E5E5E5"/>
<g id="column-option">
<mask id="mask0_outline" mask-type="alpha">
<g id="Mask">
<use xlink:href="#path0_fill" transform="translate(925 59)" fill="#FFFFFF"/>
</g>
</mask>
<g id="Mask" mask="url(#mask0_outline)">
<use xlink:href="#path0_fill" transform="translate(925 59)"/>
</g>
<g id="&#226;&#134;&#170;&#240;&#159;&#142;&#168;Color" mask="url(#mask0_outline)">
<g id="Rectangle 3">
<use xlink:href="#path1_fill" transform="translate(925 58)" fill="#333333"/>
</g>
</g>
</g>
</g>
<defs>
<path id="path0_fill" fill-rule="evenodd" d="M 5.92969 12L 0 12L 0 0L 14 0L 14 5.92969L 13 4.92969L 13 3L 11 3L 11 4L 10 4L 10 3L 6 3L 6 5.92969L 5.39453 6.53516L 5.96094 7.32812L 5 7.48438L 5 3L 1 3L 1 11L 5 11L 5 10.5117L 5.96094 10.6719L 5.39453 11.4648L 5.92969 12ZM 7 4.92969L 7.53516 4.39453L 8.32422 4.95703L 8.48438 4L 7 4L 7 4.92969ZM 2 6L 4 6L 4 7L 2 7L 2 6ZM 4 4L 2 4L 2 5L 4 5L 4 4ZM 4 9L 2 9L 2 8L 4 8L 4 9ZM 11.1211 6.28906C 11.0617 6.26361 11.0002 6.24839 10.9382 6.23304C 10.9146 6.22718 10.8909 6.22131 10.8672 6.21484L 10.668 5L 9.33203 5L 9.13281 6.21094C 8.96094 6.26562 8.80078 6.33203 8.64453 6.41406L 7.64453 5.69922L 6.69922 6.64453L 7.41406 7.64453C 7.39856 7.67553 7.38123 7.70531 7.36371 7.73532L 7.36322 7.73611C 7.33685 7.78146 7.31012 7.82737 7.28906 7.87891C 7.26373 7.93806 7.24854 7.99926 7.23322 8.06101L 7.23303 8.06175L 7.23248 8.06399C 7.22681 8.08688 7.22113 8.10984 7.21484 8.13281L 6 8.33203L 6 9.66797L 7.21094 9.86719C 7.26562 10.0391 7.33203 10.1992 7.41406 10.3555L 6.69922 11.3555L 7.64453 12.3008L 8.64453 11.5859C 8.67554 11.6014 8.70532 11.6188 8.73529 11.6363L 8.73572 11.6365C 8.78125 11.663 8.82727 11.6898 8.87891 11.7109C 8.93829 11.7364 8.99976 11.7516 9.06177 11.767C 9.08539 11.7728 9.10907 11.7787 9.13281 11.7852L 9.33203 13L 10.668 13L 10.8672 11.7891C 11.0391 11.7344 11.1992 11.668 11.3555 11.5859L 12.3555 12.3008L 13.3008 11.3555L 12.5859 10.3555C 12.6014 10.3245 12.6188 10.2947 12.6363 10.2647L 12.6368 10.2639C 12.6631 10.2185 12.6899 10.1726 12.7109 10.1211C 12.7363 10.0619 12.7515 10.0007 12.7668 9.93899L 12.767 9.93825L 12.7675 9.93601C 12.7732 9.91312 12.7789 9.89016 12.7852 9.86719L 14 9.66797L 14 8.33203L 12.7891 8.13281C 12.7344 7.96094 12.668 7.80078 12.5859 7.64453L 13.3008 6.64453L 12.3555 5.69922L 11.3555 6.41406C 11.3245 6.39856 11.2947 6.38121 11.2647 6.36373L 11.2642 6.36344C 11.2188 6.33696 11.1727 6.31019 11.1211 6.28906ZM 10 10.7773C 10.9805 10.7773 11.7773 9.98047 11.7773 9C 11.7773 8.01953 10.9805 7.22266 10 7.22266C 9.01953 7.22266 8.22266 8.01953 8.22266 9C 8.22266 9.98047 9.01953 10.7773 10 10.7773Z"/>
<path id="path1_fill" fill-rule="evenodd" d="M 0 0L 14 0L 14 14L 0 14L 0 0Z"/>
</defs>
</svg>
