<svg width="1000" height="1000" viewBox="0 0 1000 1000" version="1.1" xmlns="http://www.w3.org/2000/svg" xmlns:xlink="http://www.w3.org/1999/xlink">
<title>comment-discussion</title>
<desc>Created using Figma</desc>
<g id="Canvas" transform="matrix(71.4286 0 0 71.4286 -71214.3 -4142.86)">
<rect x="997" y="58" width="14" height="14" fill="#E5E5E5"/>
<g id="comment-discussion">
<mask id="mask0_outline" mask-type="alpha">
<g id="Mask">
<use xlink:href="#path0_fill" transform="translate(997 58)" fill="#FFFFFF"/>
</g>
</mask>
<g id="Mask" mask="url(#mask0_outline)">
<use xlink:href="#path0_fill" transform="translate(997 58)"/>
</g>
<g id="&#226;&#134;&#170;&#240;&#159;&#142;&#168;Color" mask="url(#mask0_outline)">
<g id="Rectangle 3">
<use xlink:href="#path1_fill" transform="translate(997 58)" fill="#333333"/>
</g>
</g>
</g>
</g>
<defs>
<path id="path0_fill" fill-rule="evenodd" d="M 4 0L 4 4L 0 4L 0 11L 2 11L 2 13.875L 5.19141 11L 10 11L 10 8.07422L 12 9.87109L 12 7L 14 7L 14 0L 4 0ZM 9 10L 4.80859 10L 3 11.6289L 3 10L 1 10L 1 5L 9 5L 9 10ZM 11 6L 13 6L 13 1L 5 1L 5 4L 10 4L 10 6.72656L 11 7.62891L 11 6Z"/>
<path id="path1_fill" fill-rule="evenodd" d="M 0 0L 14 0L 14 14L 0 14L 0 0Z"/>
</defs>
</svg>
