<svg width="1000" height="1000" viewBox="0 0 1000 1000" version="1.1" xmlns="http://www.w3.org/2000/svg" xmlns:xlink="http://www.w3.org/1999/xlink">
<title>comment-previous</title>
<desc>Created using Figma</desc>
<g id="Canvas" transform="matrix(71.4286 0 0 71.4286 -78071.4 -4142.86)">
<rect x="1093" y="58" width="14" height="14" fill="#E5E5E5"/>
<g id="comment-previous">
<mask id="mask0_outline" mask-type="alpha">
<g id="Mask">
<use xlink:href="#path0_fill" transform="translate(1093 58)" fill="#FFFFFF"/>
</g>
</mask>
<g id="Mask" mask="url(#mask0_outline)">
<use xlink:href="#path0_fill" transform="translate(1093 58)"/>
</g>
<g id="&#226;&#134;&#170;&#240;&#159;&#142;&#168;Color" mask="url(#mask0_outline)">
<g id="Rectangle 3">
<use xlink:href="#path1_fill" transform="translate(1093 58)"/>
</g>
</g>
</g>
</g>
<defs>
<path id="path0_fill" fill-rule="evenodd" d="M 1.92157 3.52899L 6.97253 3.52899L 6.97253 2.46864L 1.92157 2.46864L 3.54901 0.749704L 2.83923 0L 0 2.99882L 2.83923 5.99763L 3.54901 5.24793L 1.92157 3.52899ZM 12.9961 3.52899L 8.98041 3.52899L 8.98041 2.46864L 14 2.46864L 14 10.9515L 8.16864 10.9515L 4.96472 14L 4.96472 10.9515L 2.95685 10.9515L 2.95685 7.77041L 3.96075 7.77041L 3.96075 9.89112L 5.96863 9.89112L 5.96863 11.6183L 7.7843 9.89112L 12.9961 9.89112L 12.9961 3.52899Z"/>
<path id="path1_fill" fill-rule="evenodd" d="M 0 0L 14 0L 14 14L 0 14L 0 0Z"/>
</defs>
</svg>
