<svg width="1001" height="1001" viewBox="0 0 1001 1001" version="1.1" xmlns="http://www.w3.org/2000/svg" xmlns:xlink="http://www.w3.org/1999/xlink">
<title>comment-add</title>
<desc>Created using Figma</desc>
<g id="Canvas" transform="matrix(71.5 0 0 71.5 -69569.5 -4147)">
<rect x="973" y="58" width="14" height="14" fill="#E5E5E5"/>
<g id="comment-add">
<mask id="mask0_outline" mask-type="alpha">
<g id="Mask">
<use xlink:href="#path0_fill" transform="translate(973 58)" fill="#FFFFFF"/>
</g>
</mask>
<g id="Mask" mask="url(#mask0_outline)">
<use xlink:href="#path0_fill" transform="translate(973 58)"/>
</g>
<g id="&#226;&#134;&#170;&#240;&#159;&#142;&#168;Color" mask="url(#mask0_outline)">
<g id="Rectangle 3">
<use xlink:href="#path1_fill" transform="translate(973 58)"/>
</g>
</g>
</g>
</g>
<defs>
<path id="path0_fill" fill-rule="evenodd" d="M 3 2L 5 2L 5 3L 3 3L 3 5L 2 5L 2 3L 0 3L 0 2L 2 2L 2 0L 3 0L 3 2ZM 8.19141 11L 14 11L 14 3L 7 3L 7 4L 13 4L 13 10L 7.80859 10L 6 11.6289L 6 10L 4 10L 4 7L 3 7L 3 11L 5 11L 5 13.875L 8.19141 11Z"/>
<path id="path1_fill" fill-rule="evenodd" d="M 0 0L 14 0L 14 14L 0 14L 0 0Z"/>
</defs>
</svg>
