<svg width="1001" height="1001" viewBox="0 0 1001 1001" version="1.1" xmlns="http://www.w3.org/2000/svg" xmlns:xlink="http://www.w3.org/1999/xlink">
<title>compare</title>
<desc>Created using Figma</desc>
<g id="Canvas" transform="matrix(83.4167 0 0 83.4167 -55138.4 -22939.6)">
<g id="compare">
<use xlink:href="#path0_fill" transform="translate(661 275)"/>
</g>
</g>
<defs>
<path id="path0_fill" d="M 9.39258 1.5L 10.6465 5.25L 11.25 5.25L 11.25 6L 11.1211 6C 11.043 6.22266 10.9316 6.42773 10.7871 6.61523C 10.6465 6.79883 10.4824 6.95703 10.2949 7.08984C 10.1113 7.21875 9.9082 7.32031 9.68555 7.39453C 9.4668 7.46484 9.23828 7.5 9 7.5C 8.76172 7.5 8.53125 7.46484 8.30859 7.39453C 8.08984 7.32031 7.88672 7.21875 7.69922 7.08984C 7.51562 6.95703 7.35156 6.79883 7.20703 6.61523C 7.06641 6.42773 6.95703 6.22266 6.87891 6L 6.75 6L 6.75 5.25L 7.35352 5.25L 8.60742 1.5L 6 1.5L 6 9.76172C 6.65234 9.80469 7.26953 9.95312 7.85156 10.207C 8.4375 10.457 8.9707 10.8047 9.45117 11.25L 10.5 11.25L 10.5 12L 0.75 12L 0.75 11.25L 1.79883 11.25C 2.2793 10.8047 2.81055 10.457 3.39258 10.207C 3.97852 9.95312 4.59766 9.80469 5.25 9.76172L 5.25 1.5L 2.64258 1.5L 3.89648 5.25L 4.5 5.25L 4.5 6L 4.37109 6C 4.29297 6.22266 4.18164 6.42773 4.03711 6.61523C 3.89648 6.79883 3.73242 6.95703 3.54492 7.08984C 3.36133 7.21875 3.1582 7.32031 2.93555 7.39453C 2.7168 7.46484 2.48828 7.5 2.25 7.5C 2.01172 7.5 1.78125 7.46484 1.55859 7.39453C 1.33984 7.32031 1.13672 7.21875 0.949219 7.08984C 0.765625 6.95703 0.601562 6.79883 0.457031 6.61523C 0.316406 6.42773 0.207031 6.22266 0.128906 6L 0 6L 0 5.25L 0.603516 5.25L 1.85742 1.5L 0 1.5L 0 0.75L 5.25 0.75L 5.25 0L 6 0L 6 0.75L 11.25 0.75L 11.25 1.5L 9.39258 1.5ZM 2.25 2.68359L 1.39453 5.25L 3.10547 5.25L 2.25 2.68359ZM 2.25 6.75C 2.51953 6.75 2.76953 6.68359 3 6.55078C 3.23047 6.41797 3.41406 6.23438 3.55078 6L 0.949219 6C 1.08594 6.23438 1.26953 6.41797 1.5 6.55078C 1.73047 6.68359 1.98047 6.75 2.25 6.75ZM 8.22656 11.25C 7.83594 11.0039 7.41992 10.8184 6.97852 10.6934C 6.53711 10.5645 6.08594 10.5 5.625 10.5C 5.16406 10.5 4.71289 10.5645 4.27148 10.6934C 3.83008 10.8184 3.41406 11.0039 3.02344 11.25L 8.22656 11.25ZM 9 2.68359L 8.14453 5.25L 9.85547 5.25L 9 2.68359ZM 9 6.75C 9.26953 6.75 9.51953 6.68359 9.75 6.55078C 9.98047 6.41797 10.1641 6.23438 10.3008 6L 7.69922 6C 7.83594 6.23438 8.01953 6.41797 8.25 6.55078C 8.48047 6.68359 8.73047 6.75 9 6.75Z"/>
</defs>
</svg>
