<svg width="1000" height="1000" viewBox="0 0 1000 1000" version="1.1" xmlns="http://www.w3.org/2000/svg" xmlns:xlink="http://www.w3.org/1999/xlink">
<title>connect-to-feed</title>
<desc>Created using Figma</desc>
<g id="Canvas" transform="matrix(71.4286 0 0 71.4286 -81500 -4142.86)">
<rect x="1141" y="58" width="14" height="14" fill="#E5E5E5"/>
<g id="connect-to-feed">
<mask id="mask0_outline" mask-type="alpha">
<g id="Mask">
<use xlink:href="#path0_fill" transform="translate(1141 59)" fill="#FFFFFF"/>
</g>
</mask>
<g id="Mask" mask="url(#mask0_outline)">
<use xlink:href="#path0_fill" transform="translate(1141 59)"/>
</g>
<g id="&#226;&#134;&#170;&#240;&#159;&#142;&#168;Color" mask="url(#mask0_outline)">
<g id="Rectangle 3">
<use xlink:href="#path1_fill" transform="translate(1141 58)"/>
</g>
</g>
</g>
</g>
<defs>
<path id="path0_fill" fill-rule="evenodd" d="M 5 2L 5 4.5C 5 5.70703 4.14062 6.71875 3 6.94922L 3 12L 2 12L 2 6.94922C 0.859375 6.71875 0 5.70703 0 4.5L 0 2L 1 2L 1 0L 2 0L 2 2L 3 2L 3 0L 4 0L 4 2L 5 2ZM 8 11C 8 11.5508 7.55078 12 7 12C 6.44922 12 6 11.5508 6 11C 6 10.4492 6.44922 10 7 10C 7.55078 10 8 10.4492 8 11ZM 1 3L 4 3L 4 4.5C 4 5.32812 3.32812 6 2.5 6C 1.67188 6 1 5.32812 1 4.5L 1 3ZM 6 3.5625L 6 4.57422C 10 5.06641 13 8.20312 13 12L 14 12C 14 7.65234 11 4.0625 6 3.5625ZM 6 7.55078L 6 6.52734C 8.79688 6.78125 11 9.13672 11 12L 10 12C 10 9.69141 8.24219 7.80469 6 7.55078Z"/>
<path id="path1_fill" fill-rule="evenodd" d="M 0 0L 14 0L 14 14L 0 14L 0 0Z"/>
</defs>
</svg>
