<svg width="1000" height="1000" viewBox="0 0 1000 1000" version="1.1" xmlns="http://www.w3.org/2000/svg" xmlns:xlink="http://www.w3.org/1999/xlink">
<title>control-panel</title>
<desc>Created using Figma</desc>
<g id="Canvas" transform="matrix(71.4286 0 0 71.4286 -84928.6 -4142.86)">
<rect x="1189" y="58" width="14" height="14" fill="#E5E5E5"/>
<g id="control-panel">
<mask id="mask0_outline" mask-type="alpha">
<g id="Mask">
<use xlink:href="#path0_fill" transform="translate(1189 59)" fill="#FFFFFF"/>
</g>
</mask>
<g id="Mask" mask="url(#mask0_outline)">
<use xlink:href="#path0_fill" transform="translate(1189 59)"/>
</g>
<g id="&#226;&#134;&#170;&#240;&#159;&#142;&#168;Color" mask="url(#mask0_outline)">
<g id="Rectangle 3">
<use xlink:href="#path1_fill" transform="translate(1189 58)"/>
</g>
</g>
</g>
</g>
<defs>
<path id="path0_fill" fill-rule="evenodd" d="M 4.5 0C 5.42969 0 6.20703 0.640625 6.42969 1.5L 14 1.5L 14 2.5L 6.42969 2.5C 6.20703 3.35938 5.42969 4 4.5 4C 3.57031 4 2.79297 3.35938 2.57031 2.5L 0 2.5L 0 1.5L 2.57031 1.5C 2.79297 0.640625 3.57031 0 4.5 0ZM 3.5 2C 3.5 2.55078 3.94922 3 4.5 3C 5.05078 3 5.5 2.55078 5.5 2C 5.5 1.44922 5.05078 1 4.5 1C 3.94922 1 3.5 1.44922 3.5 2ZM 9.5 4C 8.57031 4 7.79297 4.64062 7.57031 5.5L 0 5.5L 0 6.5L 7.57031 6.5C 7.79297 7.35938 8.57031 8 9.5 8C 10.4297 8 11.207 7.35938 11.4297 6.5L 14 6.5L 14 5.5L 11.4297 5.5C 11.207 4.64062 10.4297 4 9.5 4ZM 8.5 6C 8.5 6.55078 8.94922 7 9.5 7C 10.0508 7 10.5 6.55078 10.5 6C 10.5 5.44922 10.0508 5 9.5 5C 8.94922 5 8.5 5.44922 8.5 6ZM 4.5 8C 3.57031 8 2.79297 8.64062 2.57031 9.5L 0 9.5L 0 10.5L 2.57031 10.5C 2.79297 11.3594 3.57031 12 4.5 12C 5.42969 12 6.20703 11.3594 6.42969 10.5L 14 10.5L 14 9.5L 6.42969 9.5C 6.20703 8.64062 5.42969 8 4.5 8ZM 3.5 10C 3.5 10.5508 3.94922 11 4.5 11C 5.05078 11 5.5 10.5508 5.5 10C 5.5 9.44922 5.05078 9 4.5 9C 3.94922 9 3.5 9.44922 3.5 10Z"/>
<path id="path1_fill" fill-rule="evenodd" d="M 0 0L 14 0L 14 14L 0 14L 0 0Z"/>
</defs>
</svg>
