<svg width="1001" height="1001" viewBox="0 0 1001 1001" version="1.1" xmlns="http://www.w3.org/2000/svg" xmlns:xlink="http://www.w3.org/1999/xlink">
<title>dashboard</title>
<desc>Created using Figma</desc>
<g id="Canvas" transform="matrix(71.5 0 0 71.5 -90161.5 -4147)">
<rect x="1261" y="58" width="14" height="14" fill="#E5E5E5"/>
<g id="dashboard">
<mask id="mask0_outline" mask-type="alpha">
<g id="Mask">
<use xlink:href="#path0_fill" transform="translate(1261 58)" fill="#FFFFFF"/>
</g>
</mask>
<g id="Mask" mask="url(#mask0_outline)">
<use xlink:href="#path0_fill" transform="translate(1261 58)"/>
</g>
<g id="&#226;&#134;&#170;&#240;&#159;&#142;&#168;Color" mask="url(#mask0_outline)">
<g id="Rectangle 3">
<use xlink:href="#path1_fill" transform="translate(1261 58)"/>
</g>
</g>
</g>
</g>
<defs>
<path id="path0_fill" fill-rule="evenodd" d="M 0 14L 0 0L 14 0L 14 14L 0 14ZM 8 1L 1 1L 1 9L 8 9L 8 1ZM 1 13L 1 10L 5 10L 5 13L 1 13ZM 6 13L 13 13L 13 10L 6 10L 6 13ZM 13 9L 9 9L 9 5L 13 5L 13 9ZM 9 4L 13 4L 13 1L 9 1L 9 4Z"/>
<path id="path1_fill" fill-rule="evenodd" d="M 0 0L 14 0L 14 14L 0 14L 0 0Z"/>
</defs>
</svg>
