<svg width="1000" height="1000" viewBox="0 0 1000 1000" version="1.1" xmlns="http://www.w3.org/2000/svg" xmlns:xlink="http://www.w3.org/1999/xlink">
<title>database</title>
<desc>Created using Figma</desc>
<g id="Canvas" transform="matrix(71.4286 0 0 71.4286 -93500 -4142.86)">
<rect x="1309" y="58" width="14" height="14" fill="#E5E5E5"/>
<g id="database">
<mask id="mask0_outline" mask-type="alpha">
<g id="Mask">
<use xlink:href="#path0_fill" transform="translate(1311 58)" fill="#FFFFFF"/>
</g>
</mask>
<g id="Mask" mask="url(#mask0_outline)">
<use xlink:href="#path0_fill" transform="translate(1311 58)"/>
</g>
<g id="&#226;&#134;&#170;&#240;&#159;&#142;&#168;Color" mask="url(#mask0_outline)">
<g id="Rectangle 3">
<use xlink:href="#path1_fill" transform="translate(1309 58)" fill="#333333"/>
</g>
</g>
</g>
</g>
<defs>
<path id="path0_fill" fill-rule="evenodd" d="M 5 0C 6.26172 0 7.45703 0.195312 8.36328 0.546875C 9.41797 0.957031 10 1.5625 10 2.25L 10 11.75C 10 12.4375 9.41797 13.043 8.36328 13.4531C 7.45703 13.8047 6.26172 14 5 14C 3.73828 14 2.54297 13.8047 1.63672 13.4531C 0.582031 13.043 0 12.4375 0 11.75L 0 2.25C 0 1.5625 0.582031 0.957031 1.63672 0.546875C 2.54297 0.195312 3.73828 0 5 0ZM 9 2.25C 9 1.82422 7.58984 1 5 1C 2.41016 1 1 1.82422 1 2.25C 1 2.67578 2.41016 3.5 5 3.5C 7.58984 3.5 9 2.67578 9 2.25Z"/>
<path id="path1_fill" fill-rule="evenodd" d="M 0 0L 14 0L 14 14L 0 14L 0 0Z"/>
</defs>
</svg>
