<svg width="787" height="1001" viewBox="0 0 787 1001" version="1.1" xmlns="http://www.w3.org/2000/svg" xmlns:xlink="http://www.w3.org/1999/xlink">
<title>database-alt</title>
<desc>Created using Figma</desc>
<g id="Canvas" transform="matrix(71.5 0 0 71.5 -74860.5 -17875)">
<g id="database-alt">
<use xlink:href="#path0_fill" transform="translate(1046 250)"/>
</g>
</g>
<defs>
<path id="path0_fill" d="M 6.7025 0.875C 7.03062 0.875 7.39293 0.893229 7.78941 0.929688C 8.19046 0.966146 8.58922 1.02995 8.9857 1.12109C 9.38674 1.20768 9.76728 1.32845 10.1273 1.4834C 10.4873 1.63835 10.7904 1.83203 11.0365 2.06445C 11.1778 2.19661 11.2917 2.34701 11.3783 2.51562C 11.4694 2.68424 11.515 2.86654 11.515 3.0625L 11.515 10.9375C 11.515 11.1426 11.4694 11.3271 11.3783 11.4912C 11.2917 11.6507 11.1778 11.7988 11.0365 11.9355C 10.7995 12.168 10.4987 12.3617 10.1341 12.5166C 9.77411 12.667 9.3913 12.7878 8.9857 12.8789C 8.58466 12.9701 8.18362 13.0339 7.78258 13.0703C 7.38154 13.1068 7.02151 13.125 6.7025 13.125C 6.37437 13.125 6.00979 13.1068 5.60875 13.0703C 5.21227 13.0339 4.8135 12.9723 4.41246 12.8857C 4.01598 12.7946 3.63772 12.6715 3.2777 12.5166C 2.91767 12.3617 2.61461 12.168 2.36852 11.9355C 2.22724 11.8034 2.11103 11.653 2.01988 11.4844C 1.93329 11.3158 1.89 11.1335 1.89 10.9375L 1.89 3.0625C 1.89 2.85742 1.93329 2.67513 2.01988 2.51562C 2.11103 2.35156 2.22724 2.20117 2.36852 2.06445C 2.60549 1.83203 2.904 1.64062 3.26402 1.49023C 3.62861 1.33529 4.01142 1.21224 4.41246 1.12109C 4.81806 1.02995 5.22138 0.966146 5.62242 0.929688C 6.02346 0.893229 6.38349 0.875 6.7025 0.875ZM 6.7025 1.75C 6.47008 1.75 6.22626 1.75911 5.97105 1.77734C 5.7204 1.79102 5.46747 1.81836 5.21227 1.85938C 4.95706 1.89583 4.70641 1.94596 4.46031 2.00977C 4.21878 2.06901 3.98863 2.14193 3.76988 2.22852C 3.70152 2.25586 3.61038 2.29915 3.49645 2.3584C 3.38251 2.41309 3.27086 2.47689 3.16148 2.5498C 3.05211 2.62272 2.95868 2.70475 2.88121 2.7959C 2.80374 2.88249 2.765 2.97135 2.765 3.0625C 2.765 3.09896 2.77184 3.13314 2.78551 3.16504C 2.79918 3.19694 2.81741 3.22884 2.8402 3.26074C 2.9359 3.40658 3.07262 3.53418 3.25035 3.64355C 3.43264 3.75293 3.63544 3.84863 3.85875 3.93066C 4.08661 4.0127 4.32815 4.08333 4.58336 4.14258C 4.83857 4.19727 5.0915 4.24284 5.34215 4.2793C 5.59736 4.3112 5.84117 4.33626 6.07359 4.35449C 6.31057 4.36816 6.52021 4.375 6.7025 4.375C 6.88479 4.375 7.09215 4.36816 7.32457 4.35449C 7.56155 4.33626 7.80536 4.3112 8.05602 4.2793C 8.31122 4.24284 8.56643 4.19727 8.82164 4.14258C 9.07685 4.08333 9.31611 4.0127 9.53941 3.93066C 9.76728 3.84863 9.97008 3.75293 10.1478 3.64355C 10.3255 3.53418 10.4645 3.40658 10.5648 3.26074C 10.5876 3.22884 10.6058 3.19694 10.6195 3.16504C 10.6332 3.13314 10.64 3.09896 10.64 3.0625C 10.64 2.97135 10.6013 2.88249 10.5238 2.7959C 10.4463 2.70475 10.3529 2.62272 10.2435 2.5498C 10.1341 2.47689 10.0225 2.41309 9.90855 2.3584C 9.79462 2.29915 9.70348 2.25586 9.63512 2.22852C 9.41637 2.14193 9.18395 2.06901 8.93785 2.00977C 8.69631 1.94596 8.44794 1.89583 8.19273 1.85938C 7.93753 1.81836 7.68232 1.79102 7.42711 1.77734C 7.17646 1.75911 6.93492 1.75 6.7025 1.75ZM 6.7025 12.25C 6.93492 12.25 7.17646 12.2432 7.42711 12.2295C 7.68232 12.2113 7.93753 12.1839 8.19273 12.1475C 8.44794 12.1064 8.69631 12.0563 8.93785 11.9971C 9.18395 11.9378 9.41637 11.8626 9.63512 11.7715C 9.70348 11.7441 9.79462 11.7031 9.90855 11.6484C 10.0225 11.5892 10.1341 11.5231 10.2435 11.4502C 10.3529 11.3773 10.4463 11.2975 10.5238 11.2109C 10.6013 11.1198 10.64 11.0286 10.64 10.9375L 10.64 4.36133C 10.3802 4.52995 10.0863 4.67122 9.75816 4.78516C 9.43004 4.89909 9.08824 4.99023 8.73277 5.05859C 8.38186 5.12695 8.03095 5.17708 7.68004 5.20898C 7.32913 5.23633 7.00328 5.25 6.7025 5.25C 6.40172 5.25 6.07359 5.23633 5.71812 5.20898C 5.36721 5.17708 5.0163 5.12695 4.66539 5.05859C 4.31448 4.99023 3.97496 4.89909 3.64684 4.78516C 3.31871 4.67122 3.02477 4.52995 2.765 4.36133L 2.765 10.9375C 2.765 11.0286 2.80374 11.1198 2.88121 11.2109C 2.95868 11.2975 3.05211 11.3773 3.16148 11.4502C 3.27086 11.5231 3.38251 11.5892 3.49645 11.6484C 3.61038 11.7031 3.70152 11.7441 3.76988 11.7715C 3.98863 11.8626 4.21878 11.9378 4.46031 11.9971C 4.70641 12.0563 4.95706 12.1064 5.21227 12.1475C 5.46747 12.1839 5.7204 12.2113 5.97105 12.2295C 6.22626 12.2432 6.47008 12.25 6.7025 12.25Z"/>
</defs>
</svg>
