<svg width="1001" height="1001" viewBox="0 0 1001 1001" version="1.1" xmlns="http://www.w3.org/2000/svg" xmlns:xlink="http://www.w3.org/1999/xlink">
<title>default-executable</title>
<desc>Created using Figma</desc>
<g id="Canvas" transform="matrix(71.5 0 0 71.5 -95309.5 -4147)">
<rect x="1333" y="58" width="14" height="14" fill="#E5E5E5"/>
<g id="default-executable">
<mask id="mask0_outline" mask-type="alpha">
<g id="Mask">
<use xlink:href="#path0_fill" transform="translate(1333 59)" fill="#FFFFFF"/>
</g>
</mask>
<g id="Mask" mask="url(#mask0_outline)">
<use xlink:href="#path0_fill" transform="translate(1333 59)"/>
</g>
<g id="&#226;&#134;&#170;&#240;&#159;&#142;&#168;Color" mask="url(#mask0_outline)">
<g id="Rectangle 3">
<use xlink:href="#path1_fill" transform="translate(1333 58)"/>
</g>
</g>
</g>
</g>
<defs>
<path id="path0_fill" fill-rule="evenodd" d="M 0 0L 0 12L 14 12L 14 0L 0 0ZM 2.85938 5.66016L 2.29688 5.89453L 2.00781 5.20312L 2.57031 4.96875C 2.54688 4.84375 2.53125 4.71484 2.53125 4.58203C 2.53125 4.44922 2.54688 4.32031 2.57031 4.19531L 2.00781 3.96484L 2.29688 3.26953L 2.85938 3.50391C 3.00391 3.28516 3.1875 3.10156 3.40625 2.95703L 3.17188 2.39453L 3.86719 2.10547L 4.09766 2.66797C 4.22266 2.64453 4.35156 2.62891 4.48438 2.62891C 4.61719 2.62891 4.74609 2.64453 4.87109 2.66797L 5.10547 2.10547L 5.79688 2.39453L 5.5625 2.95703C 5.78125 3.10156 5.96484 3.28516 6.10938 3.50391L 6.67188 3.26953L 6.96094 3.96484L 6.39844 4.19531C 6.42578 4.32031 6.4375 4.44922 6.4375 4.58203C 6.4375 4.71094 6.42578 4.83984 6.39844 4.96875L 6.96094 5.20312L 6.67188 5.89453L 6.10938 5.66016C 5.96484 5.87891 5.78125 6.0625 5.5625 6.20703L 5.79688 6.76953L 5.10547 7.05859L 4.87109 6.49609C 4.74609 6.51953 4.61719 6.53516 4.48438 6.53516C 4.35547 6.53516 4.22656 6.52344 4.09766 6.49609L 3.86719 7.05859L 3.17188 6.76953L 3.40625 6.20703C 3.1875 6.0625 3.00391 5.87891 2.85938 5.66016ZM 5.6875 4.58203C 5.6875 3.91797 5.14844 3.37891 4.48438 3.37891C 3.82031 3.37891 3.28125 3.91797 3.28125 4.58203C 3.28125 5.24609 3.82031 5.78516 4.48438 5.78516C 5.14844 5.78516 5.6875 5.24609 5.6875 4.58203ZM 7.30078 6.85547L 6.66406 6.58984L 6.37891 7.28125L 7.01172 7.54688C 6.97266 7.71094 6.94922 7.87891 6.94922 8.05469C 6.94922 8.23047 6.97266 8.39844 7.01172 8.5625L 6.37891 8.82422L 6.66406 9.51562L 7.30078 9.25391C 7.48438 9.54297 7.73047 9.78906 8.01953 9.96875L 7.75391 10.6055L 8.44922 10.8945L 8.71094 10.2578C 8.875 10.2969 9.04297 10.3203 9.21875 10.3203C 9.39453 10.3203 9.5625 10.2969 9.72656 10.2578L 9.98828 10.8945L 10.6797 10.6055L 10.418 9.96875C 10.707 9.78906 10.9531 9.54297 11.1367 9.25391L 11.7695 9.51562L 12.0586 8.82422L 11.4258 8.5625C 11.4609 8.39844 11.4844 8.23047 11.4844 8.05469C 11.4844 7.87891 11.4609 7.71094 11.4258 7.54688L 12.0586 7.28125L 11.7695 6.58984L 11.1367 6.85547C 10.9531 6.5625 10.707 6.32031 10.418 6.13672L 10.6797 5.5L 9.98828 5.21484L 9.72656 5.84766C 9.5625 5.80859 9.39453 5.78516 9.21875 5.78516C 9.04297 5.78516 8.875 5.80859 8.71094 5.84766L 8.44922 5.21094L 7.75391 5.5L 8.01953 6.13672C 7.73047 6.32031 7.48438 6.5625 7.30078 6.85547ZM 10.7383 8.05469C 10.7383 7.21875 10.0547 6.53516 9.21875 6.53516C 8.38281 6.53516 7.69922 7.21484 7.69922 8.05469C 7.69922 8.89062 8.38281 9.57031 9.21875 9.57031C 10.0547 9.57031 10.7383 8.89062 10.7383 8.05469ZM 8 3L 13 3L 13 1L 1 1L 1 11L 13 11L 13 4L 8 4L 8 3Z"/>
<path id="path1_fill" fill-rule="evenodd" d="M 0 0L 14 0L 14 14L 0 14L 0 0Z"/>
</defs>
</svg>
