<svg width="1000" height="1000" viewBox="0 0 1000 1000" version="1.1" xmlns="http://www.w3.org/2000/svg" xmlns:xlink="http://www.w3.org/1999/xlink">
<title>deploy</title>
<desc>Created using Figma</desc>
<g id="Canvas" transform="matrix(71.4286 0 0 71.4286 -11214.3 -5857.14)">
<rect x="157" y="82" width="14" height="14" fill="#E5E5E5"/>
<g id="deploy">
<mask id="mask0_outline" mask-type="alpha">
<g id="Mask">
<use xlink:href="#path0_fill" transform="translate(157 82)" fill="#FFFFFF"/>
</g>
</mask>
<g id="Mask" mask="url(#mask0_outline)">
<use xlink:href="#path0_fill" transform="translate(157 82)"/>
</g>
<g id="&#226;&#134;&#170;&#240;&#159;&#142;&#168;Color" mask="url(#mask0_outline)">
<g id="Rectangle 3">
<use xlink:href="#path1_fill" transform="translate(157 82)"/>
</g>
</g>
</g>
</g>
<defs>
<path id="path0_fill" fill-rule="evenodd" d="M 0 4L 4 4L 4 0L 0 0L 0 4ZM 9 0L 5 0L 5 4L 9 4L 9 0ZM 8 3L 6 3L 6 1L 8 1L 8 3ZM 6.5 5.29297L 9.85547 8.64844L 9.14844 9.35547L 7 7.20703L 7 14L 6 14L 6 7.20703L 3.85156 9.35547L 3.14453 8.64844L 6.5 5.29297ZM 14 4L 14 0L 10 0L 10 4L 14 4Z"/>
<path id="path1_fill" fill-rule="evenodd" d="M 0 0L 14 0L 14 14L 0 14L 0 0Z"/>
</defs>
</svg>
