<svg width="715" height="1001" viewBox="0 0 715 1001" version="1.1" xmlns="http://www.w3.org/2000/svg" xmlns:xlink="http://www.w3.org/1999/xlink">
<title>developer-tools</title>
<desc>Created using Figma</desc>
<g id="Canvas" transform="matrix(71.5 0 0 71.5 -81796 -17875)">
<g id="developer-tools">
<use xlink:href="#path0_fill" transform="translate(1142 250)"/>
</g>
</g>
<defs>
<path id="path0_fill" d="M 11.515 7.875L 10.64 7.875L 10.64 12.6875C 10.64 12.8698 10.6058 13.0407 10.5375 13.2002C 10.4691 13.3597 10.3757 13.4987 10.2572 13.6172C 10.1387 13.7357 9.9997 13.8291 9.8402 13.8975C 9.68069 13.9658 9.50979 14 9.3275 14C 9.14521 14 8.97431 13.9658 8.8148 13.8975C 8.6553 13.8291 8.5163 13.7357 8.39781 13.6172C 8.27932 13.4987 8.1859 13.3597 8.11754 13.2002C 8.04918 13.0407 8.015 12.8698 8.015 12.6875L 8.015 7.875L 7.14 7.875L 7.14 7L 8.89 7L 8.89 3.24707L 8.015 2.37207L 8.015 0L 10.64 0L 10.64 2.37207L 9.765 3.24707L 9.765 7L 11.515 7L 11.515 7.875ZM 8.89 2.00293L 9.3275 2.44727L 9.765 2.00293L 9.765 0.875L 8.89 0.875L 8.89 2.00293ZM 9.765 7.875L 8.89 7.875L 8.89 12.6875C 8.89 12.806 8.93329 12.9085 9.01988 12.9951C 9.10647 13.0817 9.20901 13.125 9.3275 13.125C 9.44599 13.125 9.54853 13.0817 9.63512 12.9951C 9.72171 12.9085 9.765 12.806 9.765 12.6875L 9.765 7.875ZM 4.9525 0C 5.25328 0 5.53583 0.0592445 5.80016 0.177734C 6.06448 0.291666 6.29462 0.448893 6.49059 0.649414C 6.69111 0.845377 6.84833 1.07552 6.96227 1.33984C 7.08075 1.60417 7.14 1.88672 7.14 2.1875C 7.14 2.5293 7.06253 2.85514 6.90758 3.16504C 6.75263 3.47038 6.53844 3.72559 6.265 3.93066L 6.265 12.6875C 6.265 12.8698 6.23082 13.0407 6.16246 13.2002C 6.0941 13.3597 6.00068 13.4987 5.88219 13.6172C 5.7637 13.7357 5.6247 13.8291 5.4652 13.8975C 5.30569 13.9658 5.13479 14 4.9525 14C 4.77021 14 4.59931 13.9658 4.4398 13.8975C 4.2803 13.8291 4.1413 13.7357 4.02281 13.6172C 3.90432 13.4987 3.8109 13.3597 3.74254 13.2002C 3.67418 13.0407 3.64 12.8698 3.64 12.6875L 3.64 3.93066C 3.36656 3.72559 3.15237 3.47038 2.99742 3.16504C 2.84247 2.85514 2.765 2.5293 2.765 2.1875C 2.765 1.88672 2.82197 1.60417 2.9359 1.33984C 3.04983 1.07552 3.20478 0.845377 3.40074 0.649414C 3.60126 0.448893 3.83368 0.291666 4.09801 0.177734C 4.36689 0.0592445 4.65172 0 4.9525 0ZM 5.39 3.44531C 5.5176 3.3724 5.63382 3.29492 5.73863 3.21289C 5.84801 3.13086 5.94143 3.04199 6.01891 2.94629C 6.09638 2.84603 6.15562 2.73438 6.19664 2.61133C 6.24221 2.48828 6.265 2.34701 6.265 2.1875C 6.265 2.05078 6.24221 1.91862 6.19664 1.79102C 6.15562 1.66341 6.09638 1.54492 6.01891 1.43555C 5.94599 1.32617 5.85484 1.23047 5.74547 1.14844C 5.63609 1.06641 5.5176 1.0026 5.39 0.957031L 5.39 2.1875L 4.9525 2.625L 4.515 2.1875L 4.515 0.957031C 4.38284 1.0026 4.26207 1.06641 4.1527 1.14844C 4.04788 1.23047 3.95673 1.32617 3.87926 1.43555C 3.80634 1.54492 3.7471 1.66341 3.70152 1.79102C 3.66051 1.91862 3.64 2.05078 3.64 2.1875C 3.64 2.34701 3.66051 2.48828 3.70152 2.61133C 3.7471 2.73438 3.80862 2.84603 3.88609 2.94629C 3.96357 3.04199 4.05471 3.13086 4.15953 3.21289C 4.26891 3.29492 4.3874 3.3724 4.515 3.44531L 4.515 12.6875C 4.515 12.806 4.55829 12.9085 4.64488 12.9951C 4.73147 13.0817 4.83401 13.125 4.9525 13.125C 5.07099 13.125 5.17353 13.0817 5.26012 12.9951C 5.34671 12.9085 5.39 12.806 5.39 12.6875L 5.39 3.44531Z"/>
</defs>
</svg>
