<svg width="875" height="1000" viewBox="0 0 875 1000" version="1.1" xmlns="http://www.w3.org/2000/svg" xmlns:xlink="http://www.w3.org/1999/xlink">
<title>diff-image</title>
<desc>Created using Figma</desc>
<g id="Canvas" transform="matrix(62.5 0 0 62.5 -14312.5 -5062.5)">
<rect x="229" y="81" width="14" height="16" fill="#E5E5E5"/>
<g id="diff-image">
<mask id="mask0_outline" mask-type="alpha">
<g id="Mask">
<use xlink:href="#path0_fill" transform="translate(229 81)" fill="#FFFFFF"/>
</g>
</mask>
<g id="Mask" mask="url(#mask0_outline)">
<use xlink:href="#path0_fill" transform="translate(229 81)"/>
</g>
<g id="&#226;&#134;&#170;&#240;&#159;&#142;&#168;Color" mask="url(#mask0_outline)">
<g id="Rectangle 3">
<use xlink:href="#path1_fill" transform="translate(229 82)" fill="#333333"/>
</g>
</g>
</g>
</g>
<defs>
<path id="path0_fill" fill-rule="evenodd" d="M 0 0L 0 16L 14 16L 14 0L 0 0ZM 12.8333 14.7692L 12.4277 14.7692L 9.28776 11.4471L 7.58333 13.2404L 4.71223 10.2067L 1.16666 13.9567L 1.16666 8.61539L 12.8333 8.61539L 12.8333 14.7692ZM 12.446 7.38462L 12.8333 7.38462L 12.8333 1.23077L 1.16666 1.23077L 1.16666 6.5625L 4.71223 2.82212L 7.58333 5.85096L 9.28776 4.05289L 12.446 7.38462Z"/>
<path id="path1_fill" fill-rule="evenodd" d="M 0 0L 14 0L 14 14L 0 14L 0 0Z"/>
</defs>
</svg>
