<svg width="1000" height="1000" viewBox="0 0 1000 1000" version="1.1" xmlns="http://www.w3.org/2000/svg" xmlns:xlink="http://www.w3.org/1999/xlink">
<title>diff-image-overlay</title>
<desc>Created using Figma</desc>
<g id="Canvas" transform="matrix(71.4286 0 0 71.4286 -18071.4 -5857.14)">
<rect x="253" y="82" width="14" height="14" fill="#E5E5E5"/>
<g id="diff-image-overlay">
<mask id="mask0_outline" mask-type="alpha">
<g id="Mask">
<use xlink:href="#path0_fill" transform="translate(253 82)" fill="#FFFFFF"/>
</g>
</mask>
<g id="Mask" mask="url(#mask0_outline)">
<use xlink:href="#path0_fill" transform="translate(253 82)"/>
</g>
<g id="&#226;&#134;&#170;&#240;&#159;&#142;&#168;Color" mask="url(#mask0_outline)">
<g id="Rectangle 3">
<use xlink:href="#path1_fill" transform="translate(253 82)"/>
</g>
</g>
</g>
</g>
<defs>
<path id="path0_fill" fill-rule="evenodd" d="M 14 0L 14 9L 5 9L 5 0L 14 0ZM 11 4C 11.5508 4 12 3.55078 12 3C 12 2.44922 11.5508 2 11 2C 10.4492 2 10 2.44922 10 3C 10 3.55078 10.4492 4 11 4ZM 8 11.4922L 8 10L 9 10L 9 14L 0 14L 0 5L 4 5L 4 6L 1 6L 1 9.69531L 2.39844 8.29297L 5.39844 11.293L 6.59766 10.0938L 8 11.4922ZM 6 1L 13 1L 13 6.49219L 11.5977 5.09375L 10.3984 6.29297L 7.40234 3.29297L 6 4.69531L 6 1Z"/>
<path id="path1_fill" fill-rule="evenodd" d="M 0 0L 14 0L 14 14L 0 14L 0 0Z"/>
</defs>
</svg>
