<svg width="1000" height="1000" viewBox="0 0 1000 1000" version="1.1" xmlns="http://www.w3.org/2000/svg" xmlns:xlink="http://www.w3.org/1999/xlink">
<title>diff-inline</title>
<desc>Created using Figma</desc>
<g id="Canvas" transform="matrix(71.4286 0 0 71.4286 -21500 -5857.14)">
<rect x="301" y="82" width="14" height="14" fill="#E5E5E5"/>
<g id="diff-inline">
<mask id="mask0_outline" mask-type="alpha">
<g id="Mask">
<use xlink:href="#path0_fill" transform="translate(303 82)" fill="#FFFFFF"/>
</g>
</mask>
<g id="Mask" mask="url(#mask0_outline)">
<use xlink:href="#path0_fill" transform="translate(303 82)"/>
</g>
<g id="&#226;&#134;&#170;&#240;&#159;&#142;&#168;Color" mask="url(#mask0_outline)">
<g id="Rectangle 3">
<use xlink:href="#path1_fill" transform="translate(301 82)"/>
</g>
</g>
</g>
</g>
<defs>
<path id="path0_fill" fill-rule="evenodd" d="M 0 14L 0 0L 11 0L 11 14L 0 14ZM 1.22223 12.8333L 9.77779 12.8333L 9.77779 10.5L 1.22223 10.5L 1.22223 12.8333ZM 9.77779 7L 1.22223 7L 1.22223 4.66667L 9.77779 4.66667L 9.77779 7ZM 1.22223 1.16667L 1.22223 3.5L 9.77779 3.5L 9.77779 1.16667L 1.22223 1.16667Z"/>
<path id="path1_fill" fill-rule="evenodd" d="M 0 0L 14 0L 14 14L 0 14L 0 0Z"/>
</defs>
</svg>
