<svg width="1001" height="1001" viewBox="0 0 1001 1001" version="1.1" xmlns="http://www.w3.org/2000/svg" xmlns:xlink="http://www.w3.org/1999/xlink">
<title>diff-side-by-side</title>
<desc>Created using Figma</desc>
<g id="Canvas" transform="matrix(71.5 0 0 71.5 -23237.5 -5863)">
<rect x="325" y="82" width="14" height="14" fill="#E5E5E5"/>
<g id="diff-side-by-side">
<mask id="mask0_outline" mask-type="alpha">
<g id="Mask">
<use xlink:href="#path0_fill" transform="translate(325 85)" fill="#FFFFFF"/>
</g>
</mask>
<g id="Mask" mask="url(#mask0_outline)">
<use xlink:href="#path0_fill" transform="translate(325 85)"/>
</g>
<g id="&#226;&#134;&#170;&#240;&#159;&#142;&#168;Color" mask="url(#mask0_outline)">
<g id="Rectangle 3">
<use xlink:href="#path1_fill" transform="translate(325 82)"/>
</g>
</g>
</g>
</g>
<defs>
<path id="path0_fill" fill-rule="evenodd" d="M 0 9L 0 0L 6 0L 6 9L 0 9ZM 1 8L 5 8L 5 3L 1 3L 1 8ZM 5 2L 1 2L 1 1L 5 1L 5 2ZM 8 9L 8 0L 14 0L 14 9L 8 9ZM 13 8L 9 8L 9 7L 13 7L 13 8ZM 9 5L 13 5L 13 1L 9 1L 9 5Z"/>
<path id="path1_fill" fill-rule="evenodd" d="M 0 0L 14 0L 14 14L 0 14L 0 0Z"/>
</defs>
</svg>
