<svg width="2803" height="1001" viewBox="0 0 2803 1001" version="1.1" xmlns="http://www.w3.org/2000/svg" xmlns:xlink="http://www.w3.org/1999/xlink">
<title>dot-net</title>
<desc>Created using Figma</desc>
<g id="Canvas" transform="matrix(200.2 0 0 200.2 -242843 -51051)">
<g id="dot-net">
<use xlink:href="#path0_fill" transform="translate(1213 255)"/>
<use xlink:href="#path1_fill" transform="translate(1213 255)"/>
<use xlink:href="#path2_fill" transform="translate(1213 255)"/>
<use xlink:href="#path3_fill" transform="translate(1213 255)"/>
</g>
</g>
<defs>
<path id="path0_fill" d="M 0.503104 5C 0.363353 5 0.244565 4.95536 0.146739 4.86607C 0.0489129 4.7745 0 4.66575 0 4.53983C 0 4.41163 0.0489129 4.30174 0.146739 4.21017C 0.244565 4.11859 0.363353 4.0728 0.503104 4.0728C 0.645185 4.0728 0.765138 4.11859 0.862964 4.21017C 0.963119 4.30174 1.0132 4.41163 1.0132 4.53983C 1.0132 4.66575 0.963119 4.7745 0.862964 4.86607C 0.765138 4.95536 0.645185 5 0.503104 5Z"/>
<path id="path1_fill" d="M 6.0898 4.92445L 5.18142 4.92445L 2.78818 1.30495C 2.72762 1.21337 2.67754 1.11836 2.63794 1.01992L 2.61698 1.01992C 2.63562 1.12523 2.64493 1.35073 2.64493 1.69643L 2.64493 4.92445L 1.84136 4.92445L 1.84136 0L 2.80914 0L 5.12202 3.53365C 5.21985 3.68017 5.28274 3.78091 5.31069 3.83585L 5.32466 3.83585C 5.30137 3.70536 5.28972 3.48443 5.28972 3.17308L 5.28972 0L 6.0898 0L 6.0898 4.92445Z"/>
<path id="path2_fill" d="M 10.003 4.92445L 7.19048 4.92445L 7.19048 0L 9.89117 0L 9.89117 0.693681L 8.022 0.693681L 8.022 2.08791L 9.74443 2.08791L 9.74443 2.77816L 8.022 2.77816L 8.022 4.2342L 10.003 4.2342L 10.003 4.92445Z"/>
<path id="path3_fill" d="M 14 0.693681L 12.5606 0.693681L 12.5606 4.92445L 11.729 4.92445L 11.729 0.693681L 10.2931 0.693681L 10.2931 0L 14 0L 14 0.693681Z"/>
</defs>
</svg>
