<svg width="1001" height="1001" viewBox="0 0 1001 1001" version="1.1" xmlns="http://www.w3.org/2000/svg" xmlns:xlink="http://www.w3.org/1999/xlink">
<title>draft</title>
<desc>Created using Figma</desc>
<g id="Canvas" transform="matrix(71.5 0 0 71.5 -26669.5 -5863)">
<rect x="373" y="82" width="14" height="14" fill="#E5E5E5"/>
<g id="draft">
<mask id="mask0_outline" mask-type="alpha">
<g id="Mask">
<use xlink:href="#path0_fill" transform="translate(374 82)" fill="#FFFFFF"/>
</g>
</mask>
<g id="Mask" mask="url(#mask0_outline)">
<use xlink:href="#path0_fill" transform="translate(374 82)"/>
</g>
<g id="&#226;&#134;&#170;&#240;&#159;&#142;&#168;Color" mask="url(#mask0_outline)">
<g id="Rectangle 3">
<use xlink:href="#path1_fill" transform="translate(373 82)"/>
</g>
</g>
</g>
</g>
<defs>
<path id="path0_fill" fill-rule="evenodd" d="M 1.00308 1L 6.01854 1L 6.01854 5L 11.034 5L 11.034 3.79297L 7.22929 0L 0 0L 0 14L 3.00926 14L 3.00926 13L 1.00308 13L 1.00308 1ZM 9.82321 4L 7.02162 4L 7.02162 1.20703L 9.82321 4ZM 10.6539 6.02734C 11.1711 5.50781 12.0763 5.50781 12.5974 6.02734C 13.1342 6.55859 13.1342 7.42969 12.5974 7.96094L 7.21362 13.3281L 4.53741 13.9727L 5.28189 11.3828L 10.6539 6.02734ZM 11.8882 7.25391L 6.70424 12.4219L 5.97543 12.5977L 6.17526 11.9062L 11.3631 6.73438C 11.5042 6.59375 11.7471 6.59375 11.8882 6.73438C 12.0332 6.875 12.0332 7.10938 11.8882 7.25391ZM 3.00926 5L 2.00618 5L 2.00618 6L 3.00926 6L 3.00926 5ZM 5.01544 6L 4.01236 6L 4.01236 5L 5.01544 5L 5.01544 6ZM 3.00926 7L 2.00618 7L 2.00618 8L 3.00926 8L 3.00926 7ZM 4.01236 7L 5.01544 7L 5.01544 8L 4.01236 8L 4.01236 7ZM 7.02162 7L 6.01854 7L 6.01854 8L 7.02162 8L 7.02162 7ZM 2.00618 9L 3.00926 9L 3.00926 10L 2.00618 10L 2.00618 9ZM 4.01236 10L 5.01544 10L 5.01544 9L 4.01236 9L 4.01236 10Z"/>
<path id="path1_fill" fill-rule="evenodd" d="M 0 0L 14 0L 14 14L 0 14L 0 0Z"/>
</defs>
</svg>
