<svg width="1001" height="1001" viewBox="0 0 1001 1001" version="1.1" xmlns="http://www.w3.org/2000/svg" xmlns:xlink="http://www.w3.org/1999/xlink">
<title>edit-copy</title>
<desc>Created using Figma</desc>
<g id="Canvas" transform="matrix(71.5 0 0 71.5 -30101.5 -5863)">
<rect x="421" y="82" width="14" height="14" fill="#E5E5E5"/>
<g id="edit-copy">
<mask id="mask0_outline" mask-type="alpha">
<g id="Mask">
<use xlink:href="#path0_fill" transform="translate(422 82)" fill="#FFFFFF"/>
</g>
</mask>
<g id="Mask" mask="url(#mask0_outline)">
<use xlink:href="#path0_fill" transform="translate(422 82)"/>
</g>
<g id="&#226;&#134;&#170;&#240;&#159;&#142;&#168;Color" mask="url(#mask0_outline)">
<g id="Rectangle 3">
<use xlink:href="#path1_fill" transform="translate(421 82)"/>
</g>
</g>
</g>
</g>
<defs>
<path id="path0_fill" fill-rule="evenodd" d="M 8.19141 3L 9.20703 3L 13 6.79297L 13 14L 4 14L 4 11L 0 11L 0 0L 5.20312 0L 8.19141 3ZM 11.793 7L 9 4.20703L 9 7L 11.793 7ZM 4 10L 1 10L 1 1L 4.79688 1L 6.80859 3L 4 3L 4 10ZM 5 13L 12 13L 12 8L 8 8L 8 4L 5 4L 5 13Z"/>
<path id="path1_fill" fill-rule="evenodd" d="M 0 0L 14 0L 14 14L 0 14L 0 0Z"/>
</defs>
</svg>
