<svg width="1001" height="1001" viewBox="0 0 1001 1001" version="1.1" xmlns="http://www.w3.org/2000/svg" xmlns:xlink="http://www.w3.org/1999/xlink">
<title>edit-paste</title>
<desc>Created using Figma</desc>
<g id="Canvas" transform="matrix(71.5 0 0 71.5 -36965.5 -5863)">
<rect x="517" y="82" width="14" height="14" fill="#E5E5E5"/>
<g id="edit-paste">
<mask id="mask0_outline" mask-type="alpha">
<g id="Mask">
<use xlink:href="#path0_fill" transform="translate(518 82)" fill="#FFFFFF"/>
</g>
</mask>
<g id="Mask" mask="url(#mask0_outline)">
<use xlink:href="#path0_fill" transform="translate(518 82)"/>
</g>
<g id="&#226;&#134;&#170;&#240;&#159;&#142;&#168;Color" mask="url(#mask0_outline)">
<g id="Rectangle 3">
<use xlink:href="#path1_fill" transform="translate(517 82)"/>
</g>
</g>
</g>
</g>
<defs>
<path id="path0_fill" fill-rule="evenodd" d="M 7 2L 10 2L 10 6L 12 6L 12 14L 5 14L 5 13L 0 13L 0 2L 3 2C 3 0.898438 3.89844 0 5 0C 6.10156 0 7 0.898438 7 2ZM 4 3L 3 3L 3 4L 7 4L 7 3L 6 3L 6 2C 6 1.44922 5.55078 1 5 1C 4.44922 1 4 1.44922 4 2L 4 3ZM 1 12L 1 3L 2 3L 2 5L 8 5L 8 3L 9 3L 9 6L 5 6L 5 12L 1 12ZM 6 13L 11 13L 11 7L 6 7L 6 13Z"/>
<path id="path1_fill" fill-rule="evenodd" d="M 0 0L 14 0L 14 14L 0 14L 0 0Z"/>
</defs>
</svg>
