<svg width="1000" height="1000" viewBox="0 0 1000 1000" version="1.1" xmlns="http://www.w3.org/2000/svg" xmlns:xlink="http://www.w3.org/1999/xlink">
<title>edit</title>
<desc>Created using Figma</desc>
<g id="Canvas" transform="matrix(71.4286 0 0 71.4286 -28357.1 -5857.14)">
<rect x="397" y="82" width="14" height="14" fill="#E5E5E5"/>
<g id="edit">
<mask id="mask0_outline" mask-type="alpha">
<g id="Mask">
<use xlink:href="#path0_fill" transform="translate(397 82)" fill="#FFFFFF"/>
</g>
</mask>
<g id="Mask" mask="url(#mask0_outline)">
<use xlink:href="#path0_fill" transform="translate(397 82)"/>
</g>
<g id="&#226;&#134;&#170;&#240;&#159;&#142;&#168;Color" mask="url(#mask0_outline)">
<g id="Rectangle 3">
<use xlink:href="#path1_fill" transform="translate(397 82)"/>
</g>
</g>
</g>
</g>
<defs>
<path id="path0_fill" fill-rule="evenodd" d="M 13.545 0.455006C 14.1517 1.06168 14.1517 2.04449 13.545 2.65116L 13.1931 3.00303L 10.9848 0.819008L 11.3488 0.455006C 11.9555 -0.151669 12.9383 -0.151669 13.545 0.455006ZM 4.02831 12.1678L 1.83215 9.97169L 9.88474 1.91911L 12.0809 4.11527L 4.02831 12.1678ZM 2.91608 13.2801L 0.732056 11.0718L 0 14L 2.91608 13.2801Z"/>
<path id="path1_fill" fill-rule="evenodd" d="M 0 0L 14 0L 14 14L 0 14L 0 0Z"/>
</defs>
</svg>
