<svg width="1001" height="1001" viewBox="0 0 1001 1001" version="1.1" xmlns="http://www.w3.org/2000/svg" xmlns:xlink="http://www.w3.org/1999/xlink">
<title>edit-cut</title>
<desc>Created using Figma</desc>
<g id="Canvas" transform="matrix(71.5 0 0 71.5 -31817.5 -5863)">
<rect x="445" y="82" width="14" height="14" fill="#E5E5E5"/>
<g id="edit-cut">
<mask id="mask0_outline" mask-type="alpha">
<g id="Mask">
<use xlink:href="#path0_fill" transform="translate(448 82)" fill="#FFFFFF"/>
</g>
</mask>
<g id="Mask" mask="url(#mask0_outline)">
<use xlink:href="#path0_fill" transform="translate(448 82)"/>
</g>
<g id="&#226;&#134;&#170;&#240;&#159;&#142;&#168;Color" mask="url(#mask0_outline)">
<g id="Rectangle 3">
<use xlink:href="#path1_fill" transform="translate(445 82)"/>
</g>
</g>
</g>
</g>
<defs>
<path id="path0_fill" fill-rule="evenodd" d="M 7.16199 10.2559C 7.13757 10.2559 7.11505 10.2597 7.09311 10.2634C 7.08298 10.2651 7.07294 10.2667 7.06293 10.268L 4.98724 6.0196L 7.33627 1.22651L 6.93222 0L 4.48416 4.99885L 2.04004 0L 1.63602 1.22651L 3.98505 6.0196L 1.90933 10.264C 1.89743 10.264 1.88556 10.262 1.87366 10.2599C 1.86179 10.2579 1.84991 10.2559 1.83804 10.2559C 0.823944 10.2559 0 11.0951 0 12.128C 0 13.1608 0.823944 14 1.83804 14C 2.85211 14 3.67606 13.1608 3.67606 12.128C 3.67606 11.4461 3.31161 10.853 2.77686 10.5262L 4.48416 7.04034L 6.20334 10.5383C 5.67648 10.8692 5.32394 11.4542 5.32394 12.128C 5.32394 13.1608 6.14789 14 7.16199 14C 8.17606 14 9 13.1608 9 12.128C 9 11.0951 8.17606 10.2559 7.16199 10.2559ZM 1.83804 12.9671C 1.38251 12.9671 1.0141 12.5919 1.0141 12.128C 1.0141 11.664 1.38251 11.2888 1.83804 11.2888C 2.29358 11.2888 2.66199 11.664 2.66199 12.128C 2.66199 12.5919 2.29358 12.9671 1.83804 12.9671ZM 6.33801 12.128C 6.33801 12.5919 6.70642 12.9671 7.16196 12.9671C 7.61749 12.9671 7.9859 12.5919 7.9859 12.128C 7.9859 11.664 7.61749 11.2888 7.16196 11.2888C 6.70642 11.2888 6.33801 11.664 6.33801 12.128Z"/>
<path id="path1_fill" fill-rule="evenodd" d="M 0 0L 14 0L 14 14L 0 14L 0 0Z"/>
</defs>
</svg>
