<svg width="1000" height="1000" viewBox="0 0 1000 1000" version="1.1" xmlns="http://www.w3.org/2000/svg" xmlns:xlink="http://www.w3.org/1999/xlink">
<title>edit-redo</title>
<desc>Created using Figma</desc>
<g id="Canvas" transform="matrix(71.4286 0 0 71.4286 -38642.9 -5857.14)">
<rect x="541" y="82" width="14" height="14" fill="#E5E5E5"/>
<g id="edit-redo">
<mask id="mask0_outline" mask-type="alpha">
<g id="Mask">
<use xlink:href="#path0_fill" transform="translate(543 82)" fill="#FFFFFF"/>
</g>
</mask>
<g id="Mask" mask="url(#mask0_outline)">
<use xlink:href="#path0_fill" transform="translate(543 82)"/>
</g>
<g id="&#226;&#134;&#170;&#240;&#159;&#142;&#168;Color" mask="url(#mask0_outline)">
<g id="Rectangle 3">
<use xlink:href="#path1_fill" transform="translate(541 82)" fill="#333333"/>
</g>
</g>
</g>
</g>
<defs>
<path id="path0_fill" d="M 1.44808 1.45312C 3.29884 -0.414062 6.31116 -0.414062 8.16191 1.45312L 10.0088 3.31641L 10.0088 0L 11 0L 11 5L 6.044 5L 6.044 4L 9.28476 4L 7.46111 2.16016C 5.99366 0.683594 3.61246 0.683594 2.09081 2.22266C 1.38226 2.9375 0.9912 3.88672 0.9912 4.89844C 0.9912 5.91016 1.38226 6.86328 2.09081 7.57812L 7.75924 13.2969L 7.0352 14L 1.39 8.28516C 0.491729 7.37891 0 6.17969 0 4.89844C 0 3.62109 0.491729 2.41797 1.44808 1.45312Z"/>
<path id="path1_fill" fill-rule="evenodd" d="M 0 0L 14 0L 14 14L 0 14L 0 0Z"/>
</defs>
</svg>
