<svg width="1252" height="1001" viewBox="0 0 1252 1001" version="1.1" xmlns="http://www.w3.org/2000/svg" xmlns:xlink="http://www.w3.org/1999/xlink">
<title>education</title>
<desc>Created using Figma</desc>
<g id="Canvas" transform="matrix(83.4167 0 0 83.4167 -91257.8 -21021)">
<g id="education">
<use xlink:href="#path0_fill" transform="translate(1094 250)"/>
</g>
</g>
<defs>
<path id="path0_fill" d="M 10.9545 7.28027C 11.1413 7.6084 11.2803 7.95247 11.3714 8.3125C 11.4671 8.66797 11.515 9.03255 11.515 9.40625L 11.515 10.1104L 7.14 12.3047L 2.765 10.1104C 2.765 9.83691 2.76728 9.58171 2.77184 9.34473C 2.78095 9.10775 2.80146 8.8776 2.83336 8.6543C 2.86982 8.42643 2.92451 8.20312 2.99742 7.98438C 3.0749 7.76107 3.18427 7.52637 3.32555 7.28027L 1.89 6.5625L 1.89 10.5752C 2.02216 10.6208 2.14065 10.6846 2.24547 10.7666C 2.35484 10.8486 2.44827 10.9443 2.52574 11.0537C 2.60322 11.1631 2.66246 11.2839 2.70348 11.416C 2.74449 11.5436 2.765 11.6758 2.765 11.8125L 2.765 14L 0.14 14L 0.14 11.8125C 0.14 11.6758 0.160508 11.5436 0.201523 11.416C 0.242539 11.2839 0.301784 11.1631 0.379258 11.0537C 0.456732 10.9443 0.547877 10.8486 0.652695 10.7666C 0.76207 10.6846 0.882838 10.6208 1.015 10.5752L 1.015 6.125L 0.14 5.6875L 7.14 2.1875L 14.14 5.6875L 10.9545 7.28027ZM 1.89 11.8125C 1.89 11.694 1.84671 11.5915 1.76012 11.5049C 1.67353 11.4183 1.57099 11.375 1.4525 11.375C 1.33401 11.375 1.23147 11.4183 1.14488 11.5049C 1.05829 11.5915 1.015 11.694 1.015 11.8125L 1.015 13.125L 1.89 13.125L 1.89 11.8125ZM 2.09508 5.6875L 7.14 8.20996L 12.1849 5.6875L 7.14 3.16504L 2.09508 5.6875ZM 10.64 9.57031C 10.64 9.2194 10.6058 8.89355 10.5375 8.59277C 10.4691 8.28743 10.3483 7.97982 10.1752 7.66992L 7.14 9.1875L 4.10484 7.66992C 3.95445 7.93424 3.83824 8.21452 3.75621 8.51074C 3.67874 8.80241 3.64 9.10091 3.64 9.40625L 3.64 9.57031L 7.14 11.3203L 10.64 9.57031Z"/>
</defs>
</svg>
