<svg width="1001" height="1001" viewBox="0 0 1001 1001" version="1.1" xmlns="http://www.w3.org/2000/svg" xmlns:xlink="http://www.w3.org/1999/xlink">
<title>engineering-group</title>
<desc>Created using Figma</desc>
<g id="Canvas" transform="matrix(71.5 0 0 71.5 -50693.5 -5863)">
<rect x="709" y="82" width="14" height="14" fill="#E5E5E5"/>
<g id="engineering-group">
<mask id="mask0_outline" mask-type="alpha">
<g id="Mask">
<use xlink:href="#path0_fill" transform="translate(709 83)" fill="#FFFFFF"/>
</g>
</mask>
<g id="Mask" mask="url(#mask0_outline)">
<use xlink:href="#path0_fill" transform="translate(709 83)"/>
</g>
<g id="&#226;&#134;&#170;&#240;&#159;&#142;&#168;Color" mask="url(#mask0_outline)">
<g id="Rectangle 3">
<use xlink:href="#path1_fill" transform="translate(709 82)"/>
</g>
</g>
</g>
</g>
<defs>
<path id="path0_fill" fill-rule="evenodd" d="M 9 0L 14 0L 14 4L 9 4L 9 0ZM 4.38281 3C 5.08594 2.38672 5.99609 2 7 2C 7.34766 2 7.67969 2.05859 8 2.14062L 8 1.10156C 7.67188 1.03516 7.33594 1 7 1C 5.375 1 3.9375 1.79297 3.02734 3L 4.38281 3ZM 10.8594 7C 10.9414 6.67969 11 6.34766 11 6C 11 5.65234 10.9414 5.32031 10.8594 5L 11.8984 5C 11.9648 5.32422 12 5.65625 12 6C 12 6.34375 11.9648 6.67578 11.8984 7L 10.8594 7ZM 7 11C 7.33594 11 7.67188 10.9648 8 10.8984L 8 9.85938C 7.67969 9.94141 7.34766 10 7 10C 5.99609 10 5.08594 9.61328 4.38281 9L 3.02734 9C 3.9375 10.207 5.375 11 7 11ZM 5 8L 0 8L 0 4L 5 4L 5 8ZM 9 12L 14 12L 14 8L 9 8L 9 12Z"/>
<path id="path1_fill" fill-rule="evenodd" d="M 0 0L 14 0L 14 14L 0 14L 0 0Z"/>
</defs>
</svg>
