<svg width="1167" height="1000" viewBox="0 0 1167 1000" version="1.1" xmlns="http://www.w3.org/2000/svg" xmlns:xlink="http://www.w3.org/1999/xlink">
<title>family</title>
<desc>Created using Figma</desc>
<g id="Canvas" transform="matrix(83.3333 0 0 83.3333 -19083.3 -20916.7)">
<g id="family">
<use xlink:href="#path0_fill" transform="translate(229 251.75)" fill="#333333"/>
</g>
</g>
<defs>
<path id="path0_fill" d="M 12.6465 2.95312C 12.8516 3.06706 13.0384 3.20833 13.207 3.37695C 13.3757 3.54102 13.5169 3.72331 13.6309 3.92383C 13.7493 4.11979 13.8405 4.33171 13.9043 4.55957C 13.9681 4.78288 14 5.01302 14 5.25L 13.125 5.25C 13.125 5.01302 13.0771 4.78744 12.9814 4.57324C 12.8903 4.35905 12.765 4.17448 12.6055 4.01953C 12.4505 3.86003 12.266 3.7347 12.0518 3.64355C 11.8376 3.54785 11.612 3.5 11.375 3.5C 11.1335 3.5 10.9056 3.54785 10.6914 3.64355C 10.4818 3.7347 10.2972 3.86003 10.1377 4.01953C 9.98275 4.17448 9.85742 4.35905 9.76172 4.57324C 9.67057 4.78744 9.625 5.01302 9.625 5.25C 9.625 5.66471 9.5293 6.05892 9.33789 6.43262C 9.15104 6.80632 8.89128 7.11621 8.55859 7.3623C 8.85482 7.5127 9.12142 7.69954 9.3584 7.92285C 9.59994 8.1416 9.80501 8.3877 9.97363 8.66113C 10.1423 8.93001 10.2721 9.22168 10.3633 9.53613C 10.4544 9.84603 10.5 10.1673 10.5 10.5L 9.625 10.5C 9.625 10.14 9.55436 9.80046 9.41309 9.48145C 9.27637 9.16243 9.08952 8.88444 8.85254 8.64746C 8.61556 8.41048 8.33756 8.22363 8.01855 8.08691C 7.69954 7.94564 7.36003 7.875 7 7.875C 6.63997 7.875 6.30046 7.94564 5.98145 8.08691C 5.66243 8.22363 5.38444 8.41048 5.14746 8.64746C 4.91048 8.88444 4.72135 9.16243 4.58008 9.48145C 4.44336 9.80046 4.375 10.14 4.375 10.5L 3.5 10.5C 3.5 10.1673 3.54557 9.84603 3.63672 9.53613C 3.72786 9.22168 3.85775 8.93001 4.02637 8.66113C 4.19499 8.3877 4.39779 8.1416 4.63477 7.92285C 4.8763 7.69954 5.14518 7.5127 5.44141 7.3623C 5.10872 7.11621 4.84668 6.80632 4.65527 6.43262C 4.46842 6.05892 4.375 5.66471 4.375 5.25C 4.375 5.01302 4.32715 4.78744 4.23145 4.57324C 4.1403 4.35905 4.01497 4.17448 3.85547 4.01953C 3.70052 3.86003 3.51595 3.7347 3.30176 3.64355C 3.08756 3.54785 2.86198 3.5 2.625 3.5C 2.38346 3.5 2.1556 3.54785 1.94141 3.64355C 1.73177 3.7347 1.5472 3.86003 1.3877 4.01953C 1.23275 4.17448 1.10742 4.35905 1.01172 4.57324C 0.920573 4.78744 0.875 5.01302 0.875 5.25L 0 5.25C 0 5.01302 0.031901 4.78288 0.0957031 4.55957C 0.159505 4.33171 0.248372 4.11979 0.362305 3.92383C 0.480794 3.72331 0.624349 3.54102 0.792969 3.37695C 0.961589 3.20833 1.14844 3.06706 1.35352 2.95312C 1.20312 2.79362 1.08464 2.60905 0.998047 2.39941C 0.916016 2.18978 0.875 1.97331 0.875 1.75C 0.875 1.51302 0.920573 1.28744 1.01172 1.07324C 1.10742 0.859049 1.23275 0.674479 1.3877 0.519531C 1.5472 0.360026 1.73177 0.234701 1.94141 0.143555C 2.1556 0.0478516 2.38346 0 2.625 0C 2.86198 0 3.08756 0.0478516 3.30176 0.143555C 3.51595 0.234701 3.70052 0.360026 3.85547 0.519531C 4.01497 0.674479 4.1403 0.859049 4.23145 1.07324C 4.32715 1.28744 4.375 1.51302 4.375 1.75C 4.375 1.97331 4.33171 2.18978 4.24512 2.39941C 4.16309 2.60905 4.04688 2.79362 3.89648 2.95312C 4.27018 3.1582 4.57552 3.44076 4.8125 3.80078C 5.05859 3.4362 5.37305 3.14909 5.75586 2.93945C 6.14323 2.72982 6.55794 2.625 7 2.625C 7.44206 2.625 7.85449 2.72982 8.2373 2.93945C 8.62467 3.14909 8.94141 3.4362 9.1875 3.80078C 9.42448 3.44076 9.72982 3.1582 10.1035 2.95312C 9.95312 2.79362 9.83463 2.60905 9.74805 2.39941C 9.66602 2.18978 9.625 1.97331 9.625 1.75C 9.625 1.51302 9.67057 1.28744 9.76172 1.07324C 9.85742 0.859049 9.98275 0.674479 10.1377 0.519531C 10.2972 0.360026 10.4818 0.234701 10.6914 0.143555C 10.9056 0.0478516 11.1335 0 11.375 0C 11.612 0 11.8376 0.0478516 12.0518 0.143555C 12.266 0.234701 12.4505 0.360026 12.6055 0.519531C 12.765 0.674479 12.8903 0.859049 12.9814 1.07324C 13.0771 1.28744 13.125 1.51302 13.125 1.75C 13.125 1.97331 13.0817 2.18978 12.9951 2.39941C 12.9131 2.60905 12.7969 2.79362 12.6465 2.95312ZM 1.75 1.75C 1.75 1.87305 1.77279 1.98698 1.81836 2.0918C 1.86393 2.19661 1.92546 2.29004 2.00293 2.37207C 2.08496 2.44954 2.17839 2.51107 2.2832 2.55664C 2.38802 2.60221 2.50195 2.625 2.625 2.625C 2.74805 2.625 2.86198 2.60221 2.9668 2.55664C 3.07161 2.51107 3.16276 2.44954 3.24023 2.37207C 3.32227 2.29004 3.38607 2.19661 3.43164 2.0918C 3.47721 1.98698 3.5 1.87305 3.5 1.75C 3.5 1.62695 3.47721 1.51302 3.43164 1.4082C 3.38607 1.30339 3.32227 1.21224 3.24023 1.13477C 3.16276 1.05273 3.07161 0.988932 2.9668 0.943359C 2.86198 0.897787 2.74805 0.875 2.625 0.875C 2.50195 0.875 2.38802 0.897787 2.2832 0.943359C 2.17839 0.988932 2.08496 1.05273 2.00293 1.13477C 1.92546 1.21224 1.86393 1.30339 1.81836 1.4082C 1.77279 1.51302 1.75 1.62695 1.75 1.75ZM 7 7C 7.23698 7 7.46256 6.95443 7.67676 6.86328C 7.89095 6.76758 8.07552 6.64225 8.23047 6.4873C 8.38997 6.3278 8.5153 6.14323 8.60645 5.93359C 8.70215 5.7194 8.75 5.49154 8.75 5.25C 8.75 5.01302 8.70215 4.78744 8.60645 4.57324C 8.5153 4.35905 8.38997 4.17448 8.23047 4.01953C 8.07552 3.86003 7.89095 3.7347 7.67676 3.64355C 7.46256 3.54785 7.23698 3.5 7 3.5C 6.75846 3.5 6.5306 3.54785 6.31641 3.64355C 6.10677 3.7347 5.9222 3.86003 5.7627 4.01953C 5.60775 4.17448 5.48242 4.35905 5.38672 4.57324C 5.29557 4.78744 5.25 5.01302 5.25 5.25C 5.25 5.49154 5.29557 5.7194 5.38672 5.93359C 5.48242 6.14323 5.60775 6.3278 5.7627 6.4873C 5.9222 6.64225 6.10677 6.76758 6.31641 6.86328C 6.5306 6.95443 6.75846 7 7 7ZM 10.5 1.75C 10.5 1.87305 10.5228 1.98698 10.5684 2.0918C 10.6139 2.19661 10.6755 2.29004 10.7529 2.37207C 10.835 2.44954 10.9284 2.51107 11.0332 2.55664C 11.138 2.60221 11.252 2.625 11.375 2.625C 11.498 2.625 11.612 2.60221 11.7168 2.55664C 11.8216 2.51107 11.9128 2.44954 11.9902 2.37207C 12.0723 2.29004 12.1361 2.19661 12.1816 2.0918C 12.2272 1.98698 12.25 1.87305 12.25 1.75C 12.25 1.62695 12.2272 1.51302 12.1816 1.4082C 12.1361 1.30339 12.0723 1.21224 11.9902 1.13477C 11.9128 1.05273 11.8216 0.988932 11.7168 0.943359C 11.612 0.897787 11.498 0.875 11.375 0.875C 11.252 0.875 11.138 0.897787 11.0332 0.943359C 10.9284 0.988932 10.835 1.05273 10.7529 1.13477C 10.6755 1.21224 10.6139 1.30339 10.5684 1.4082C 10.5228 1.51302 10.5 1.62695 10.5 1.75Z"/>
</defs>
</svg>
