<svg width="1000" height="1000" viewBox="0 0 1000 1000" version="1.1" xmlns="http://www.w3.org/2000/svg" xmlns:xlink="http://www.w3.org/1999/xlink">
<title>fast-backward</title>
<desc>Created using Figma</desc>
<g id="Canvas" transform="matrix(71.4286 0 0 71.4286 -54071.4 -5857.14)">
<rect x="757" y="82" width="14" height="14" fill="#E5E5E5"/>
<g id="fast-backward">
<mask id="mask0_outline" mask-type="alpha">
<g id="Mask">
<use xlink:href="#path0_fill" transform="translate(757 84)" fill="#FFFFFF"/>
</g>
</mask>
<g id="Mask" mask="url(#mask0_outline)">
<use xlink:href="#path0_fill" transform="translate(757 84)"/>
</g>
<g id="&#226;&#134;&#170;&#240;&#159;&#142;&#168;Color" mask="url(#mask0_outline)">
<g id="Rectangle 3">
<use xlink:href="#path1_fill" transform="translate(757 82)" fill="#333333"/>
</g>
</g>
</g>
</g>
<defs>
<path id="path0_fill" fill-rule="evenodd" d="M 6.82996 11L 0 5.5L 6.82996 0L 6.82996 11ZM 7.17004 5.5L 14 11L 14 0L 7.17004 5.5ZM 12.9757 8.8L 8.87854 5.5L 12.9757 2.2L 12.9757 8.8ZM 5.80566 8.8L 1.7085 5.5L 5.80566 2.2L 5.80566 8.8Z"/>
<path id="path1_fill" fill-rule="evenodd" d="M 0 0L 14 0L 14 14L 0 14L 0 0Z"/>
</defs>
</svg>
