<svg width="1001" height="1001" viewBox="0 0 1001 1001" version="1.1" xmlns="http://www.w3.org/2000/svg" xmlns:xlink="http://www.w3.org/1999/xlink">
<title>feedback-negative-outline</title>
<desc>Created using Figma</desc>
<g id="Canvas" transform="matrix(71.5 0 0 71.5 -67853.5 -5863)">
<rect x="949" y="82" width="14" height="14" fill="#E5E5E5"/>
<g id="feedback-negative-outline">
<mask id="mask0_outline" mask-type="alpha">
<g id="Mask">
<use xlink:href="#path0_fill" transform="translate(949 82)" fill="#FFFFFF"/>
</g>
</mask>
<g id="Mask" mask="url(#mask0_outline)">
<use xlink:href="#path0_fill" transform="translate(949 82)"/>
</g>
<g id="&#226;&#134;&#170;&#240;&#159;&#142;&#168;Color" mask="url(#mask0_outline)">
<g id="Rectangle 3">
<use xlink:href="#path1_fill" transform="translate(949 82)"/>
</g>
</g>
</g>
</g>
<defs>
<path id="path0_fill" fill-rule="evenodd" d="M 7 0C 10.8615 0 14 3.14238 14 7C 14 10.8615 10.8576 14 7 14C 3.1424 14 0 10.8576 0 7C 0 3.14238 3.13849 0 7 0ZM 5.24902 5.24902C 5.24902 5.73367 4.85815 6.12451 4.37354 6.12451C 3.88892 6.12451 3.49805 5.73367 3.49805 5.24902C 3.49805 4.76438 3.88892 4.37354 4.37354 4.37354C 4.85815 4.37354 5.24902 4.76438 5.24902 5.24902ZM 9.62646 4.37354C 9.14185 4.37354 8.75098 4.76438 8.75098 5.24902C 8.75098 5.73367 9.14185 6.12451 9.62646 6.12451C 10.1111 6.12451 10.502 5.73367 10.502 5.24902C 10.502 4.76438 10.1111 4.37354 9.62646 4.37354ZM 13.0073 7C 13.0073 10.3143 10.3143 13.0073 7 13.0073C 3.68567 13.0073 0.992737 10.3143 0.992737 7C 0.992737 3.68565 3.68567 0.992741 7 0.992741C 10.3143 0.992741 13.0073 3.68565 13.0073 7ZM 7 8.23897C 8.57117 8.23897 9.98993 9.11837 10.7013 10.541L 9.80627 10.9905C 9.26691 9.90787 8.19208 9.23953 7 9.23953C 5.80792 9.23953 4.73309 9.90787 4.19373 10.9905L 3.29871 10.541C 4.01007 9.12228 5.42877 8.23897 7 8.23897Z"/>
<path id="path1_fill" fill-rule="evenodd" d="M 0 0L 14 0L 14 14L 0 14L 0 0Z"/>
</defs>
</svg>
