<svg width="1001" height="1001" viewBox="0 0 1001 1001" version="1.1" xmlns="http://www.w3.org/2000/svg" xmlns:xlink="http://www.w3.org/1999/xlink">
<title>feedback-negative</title>
<desc>Created using Figma</desc>
<g id="Canvas" transform="matrix(71.5 0 0 71.5 -66137.5 -5863)">
<rect x="925" y="82" width="14" height="14" fill="#E5E5E5"/>
<g id="feedback-negative">
<mask id="mask0_outline" mask-type="alpha">
<g id="Mask">
<use xlink:href="#path0_fill" transform="translate(925 82)" fill="#FFFFFF"/>
</g>
</mask>
<g id="Mask" mask="url(#mask0_outline)">
<use xlink:href="#path0_fill" transform="translate(925 82)"/>
</g>
<g id="&#226;&#134;&#170;&#240;&#159;&#142;&#168;Color" mask="url(#mask0_outline)">
<g id="Rectangle 3">
<use xlink:href="#path1_fill" transform="translate(925 82)"/>
</g>
</g>
</g>
</g>
<defs>
<path id="path0_fill" fill-rule="evenodd" d="M 0 7C 0 3.13281 3.13281 0 7 0C 10.8672 0 14 3.13281 14 7C 14 10.8672 10.8672 14 7 14C 3.13281 14 0 10.8672 0 7ZM 10.5 5.25C 10.5 4.76562 10.1094 4.375 9.625 4.375C 9.14062 4.375 8.75 4.76562 8.75 5.25C 8.75 5.73438 9.14062 6.125 9.625 6.125C 10.1094 6.125 10.5 5.73438 10.5 5.25ZM 4.375 4.375C 4.85938 4.375 5.25 4.76562 5.25 5.25C 5.25 5.73438 4.85938 6.125 4.375 6.125C 3.89062 6.125 3.5 5.73438 3.5 5.25C 3.5 4.76562 3.89062 4.375 4.375 4.375ZM 7 9.23828C 8.19141 9.23828 9.26172 9.90625 9.80469 10.9883L 10.6992 10.5391C 9.98828 9.12109 8.57031 8.23828 7 8.23828C 5.42969 8.23828 4.01172 9.11719 3.30078 10.5391L 4.19531 10.9883C 4.73438 9.90625 5.80859 9.23828 7 9.23828Z"/>
<path id="path1_fill" fill-rule="evenodd" d="M 0 0L 14 0L 14 14L 0 14L 0 0Z"/>
</defs>
</svg>
