<svg width="1001" height="1001" viewBox="0 0 1001 1001" version="1.1" xmlns="http://www.w3.org/2000/svg" xmlns:xlink="http://www.w3.org/1999/xlink">
<title>file-type-typescript</title>
<desc>Created using Figma</desc>
<g id="Canvas" transform="matrix(71.5 0 0 71.5 -45545.5 -7579)">
<rect x="637" y="106" width="14" height="14" fill="#E5E5E5"/>
<g id="file-type-typescript">
<mask id="mask0_outline" mask-type="alpha">
<g id="Mask">
<use xlink:href="#path0_fill" transform="translate(637 108)" fill="#FFFFFF"/>
</g>
</mask>
<g id="Mask" mask="url(#mask0_outline)">
<use xlink:href="#path0_fill" transform="translate(637 108)"/>
</g>
<g id="&#226;&#134;&#170;&#240;&#159;&#142;&#168;Color" mask="url(#mask0_outline)">
<g id="Rectangle 3">
<use xlink:href="#path1_fill" transform="translate(637 106)"/>
</g>
</g>
</g>
</g>
<defs>
<path id="path0_fill" fill-rule="evenodd" d="M 7.90125 7.30369L 7.90125 9.46074C 8.22501 9.6405 8.60999 9.77294 9.05188 9.86755C 9.49374 9.9527 9.96185 10 10.4519 10C 10.9287 10 11.3837 9.94797 11.8125 9.85336C 12.2456 9.75402 12.6219 9.58846 12.9456 9.3614C 13.2694 9.13434 13.5275 8.84106 13.7156 8.47209C 13.9037 8.10785 14 7.65374 14 7.11447C 14 6.72186 13.9475 6.38127 13.8381 6.08325C 13.7287 5.78997 13.5712 5.5298 13.37 5.29801C 13.1644 5.07095 12.9237 4.86755 12.6394 4.68307C 12.3506 4.50331 12.0312 4.32829 11.6725 4.16746C 11.4144 4.04919 11.1781 3.93567 10.9681 3.82687C 10.7625 3.71807 10.5875 3.60454 10.4388 3.49101C 10.2944 3.37748 10.1806 3.25449 10.1019 3.12677C 10.0231 2.99905 9.98373 2.85241 9.98373 2.69158C 9.98373 2.54021 10.0187 2.40776 10.0887 2.2895C 10.1631 2.17124 10.2594 2.06717 10.3906 1.98203C 10.5175 1.89688 10.675 1.83065 10.8631 1.78335C 11.0512 1.73605 11.2569 1.71239 11.4887 1.71239C 11.6506 1.71239 11.83 1.72659 12.0137 1.75497C 12.1975 1.77862 12.3856 1.82119 12.5737 1.87795C 12.7575 1.93472 12.9413 2.00568 13.1162 2.09082C 13.2956 2.17597 13.4575 2.27531 13.6062 2.38884L 13.6062 0.373703C 13.3044 0.245979 12.9719 0.151375 12.6131 0.0946045C 12.2544 0.0331116 11.8387 0 11.375 0C 10.9025 0 10.4519 0.0567627 10.0275 0.165565C 9.60312 0.279091 9.23123 0.449387 8.9075 0.681175C 8.5881 0.917694 8.32999 1.21571 8.14624 1.57521C 7.95813 1.93945 7.86624 2.36991 7.86624 2.87134C 7.86624 3.51466 8.03687 4.06339 8.37811 4.5175C 8.71936 4.97162 9.24435 5.35477 9.94 5.67171C 10.1981 5.78524 10.4519 5.9035 10.7056 6.02649C 10.9462 6.14474 11.1475 6.26774 11.3225 6.39546C 11.4931 6.51845 11.6288 6.65563 11.7294 6.80227C 11.83 6.95364 11.8781 7.1192 11.8781 7.30842C 11.8825 7.4456 11.8475 7.57805 11.7863 7.69631C 11.725 7.8193 11.6288 7.91864 11.5019 8.00851C 11.375 8.09366 11.2175 8.16462 11.0294 8.21192C 10.8369 8.26395 10.6181 8.28761 10.3644 8.28761C 9.93124 8.28761 9.5025 8.20719 9.07812 8.04163C 8.65375 7.87607 8.26437 7.63009 7.90125 7.30369ZM 4.55875 1.93472L 7.10938 1.93472L 7.10938 0.160835L 0 0.160835L 0 1.93472L 2.53751 1.93472L 2.53751 9.82971L 4.55875 9.82971L 4.55875 1.93472Z"/>
<path id="path1_fill" fill-rule="evenodd" d="M 0 0L 14 0L 14 14L 0 14L 0 0Z"/>
</defs>
</svg>
