<svg width="1000" height="1000" viewBox="0 0 1000 1000" version="1.1" xmlns="http://www.w3.org/2000/svg" xmlns:xlink="http://www.w3.org/1999/xlink">
<title>file-type-cs</title>
<desc>Created using Figma</desc>
<g id="Canvas" transform="matrix(71.4286 0 0 71.4286 -95214.3 -5857.14)">
<rect x="1333" y="82" width="14" height="14" fill="#E5E5E5"/>
<g id="file-type-cs">
<mask id="mask0_outline" mask-type="alpha">
<g id="Mask">
<use xlink:href="#path0_fill" transform="translate(1333 85)" fill="#FFFFFF"/>
</g>
</mask>
<g id="Mask" mask="url(#mask0_outline)">
<use xlink:href="#path0_fill" transform="translate(1333 85)"/>
</g>
<g id="&#226;&#134;&#170;&#240;&#159;&#142;&#168;Color" mask="url(#mask0_outline)">
<g id="Rectangle 3">
<use xlink:href="#path1_fill" transform="translate(1333 82)"/>
</g>
</g>
</g>
</g>
<defs>
<path id="path0_fill" fill-rule="evenodd" d="M 6.57568 8.53962C 5.95874 8.84654 5.15381 9 4.16504 9C 2.87 9 1.85059 8.60732 1.11121 7.82196C 0.367554 7.03661 0 5.98947 0 4.68505C 0 3.29488 0.415649 2.1665 1.24683 1.2999C 2.08252 0.4333 3.16309 0 4.49316 0C 5.31567 0 6.01123 0.108326 6.57568 0.320461L 6.57568 2.20712C 6.01123 1.85958 5.36816 1.68806 4.64624 1.68806C 3.85437 1.68806 3.21558 1.94534 2.72998 2.45988C 2.23999 2.96991 1.99939 3.66951 1.99939 4.54514C 1.99939 5.38917 2.22693 6.05717 2.68628 6.55817C 3.14563 7.05918 3.76245 7.30742 4.54126 7.30742C 5.28064 7.30742 5.95874 7.12237 6.57568 6.74774L 6.57568 8.53962ZM 14 2.36058L 13.7681 3.45286L 12.6831 3.45286L 12.355 4.96038L 13.5756 4.96038L 13.3131 6.05266L 12.1406 6.05266L 11.6813 8.15145L 10.5044 8.15145L 10.9331 6.05266L 9.58557 6.05266L 9.15247 8.15145L 7.97559 8.15145L 8.39563 6.05266L 7.29749 6.05266L 7.51624 4.96038L 8.62317 4.96038L 8.93372 3.45286L 7.74377 3.45286L 7.94495 2.36058L 9.15247 2.36058L 9.58557 0.198597L 10.7931 0.198597L 10.3556 2.36058L 11.7031 2.36058L 12.1537 0.198597L 13.3438 0.198597L 12.9106 2.36058L 14 2.36058ZM 10.1281 3.45286L 11.493 3.45286L 11.1649 4.96038L 9.80432 4.96038L 10.1281 3.45286Z"/>
<path id="path1_fill" fill-rule="evenodd" d="M 0 0L 14 0L 14 14L 0 14L 0 0Z"/>
</defs>
</svg>
