<svg width="875" height="1000" viewBox="0 0 875 1000" version="1.1" xmlns="http://www.w3.org/2000/svg" xmlns:xlink="http://www.w3.org/1999/xlink">
<title>file-symlink</title>
<desc>Created using Figma</desc>
<g id="Canvas" transform="matrix(62.5 0 0 62.5 -75812.5 -5062.5)">
<rect x="1213" y="81" width="14" height="16" fill="#E5E5E5"/>
<g id="file-symlink">
<mask id="mask0_outline" mask-type="alpha">
<g id="Mask">
<use xlink:href="#path0_fill" transform="translate(1213 81)" fill="#FFFFFF"/>
</g>
</mask>
<g id="Mask" mask="url(#mask0_outline)">
<use xlink:href="#path0_fill" transform="translate(1213 81)"/>
</g>
<g id="&#226;&#134;&#170;&#240;&#159;&#142;&#168;Color" mask="url(#mask0_outline)">
<g id="Rectangle 3">
<use xlink:href="#path1_fill" transform="translate(1213 82)"/>
</g>
</g>
</g>
</g>
<defs>
<path id="path0_fill" fill-rule="evenodd" d="M 9.91528 0L 2.15381 0L 2.15381 5.71429L 3.23071 5.71429L 3.23071 1.14286L 8.61536 1.14286L 8.61536 5.71429L 12.9231 5.71429L 12.9231 14.8571L 9.69226 14.8571L 9.69226 16L 14 16L 14 4.33482L 9.91528 0ZM 9.69226 4.57143L 9.69226 1.37946L 12.7001 4.57143L 9.69226 4.57143ZM 6.46155 13.7143L 6.46155 9.14286L 2.15381 9.14286L 2.15381 10.2857L 4.62317 10.2857L 1.771 13.3125L 2.53247 14.1205L 5.38452 11.0938L 5.38452 13.7143L 6.46155 13.7143ZM 8.61536 16L 0 16L 0 6.85714L 8.61536 6.85714L 8.61536 16ZM 7.53845 14.8571L 1.0769 14.8571L 1.0769 8L 7.53845 8L 7.53845 14.8571Z"/>
<path id="path1_fill" fill-rule="evenodd" d="M 0 0L 14 0L 14 14L 0 14L 0 0Z"/>
</defs>
</svg>
