<svg width="876" height="1001" viewBox="0 0 876 1001" version="1.1" xmlns="http://www.w3.org/2000/svg" xmlns:xlink="http://www.w3.org/1999/xlink">
<title>file-type-sql</title>
<desc>Created using Figma</desc>
<g id="Canvas" transform="matrix(62.5625 0 0 62.5625 -36849.3 -6569.06)">
<rect x="589" y="105" width="14" height="16" fill="#E5E5E5"/>
<g id="file-type-sql">
<mask id="mask0_outline" mask-type="alpha">
<g id="Mask">
<use xlink:href="#path0_fill" transform="translate(589 105)" fill="#FFFFFF"/>
</g>
</mask>
<g id="Mask" mask="url(#mask0_outline)">
<use xlink:href="#path0_fill" transform="translate(589 105)"/>
</g>
<g id="&#226;&#134;&#170;&#240;&#159;&#142;&#168;Color" mask="url(#mask0_outline)">
<g id="Rectangle 3">
<use xlink:href="#path1_fill" transform="translate(589 106)"/>
</g>
</g>
</g>
</g>
<defs>
<path id="path0_fill" fill-rule="evenodd" d="M 12.8983 5.72387L 8.49124 5.72387L 8.49124 1.14478L 2.98248 1.14478L 2.98248 9.15819L 1.88074 9.15819L 1.88074 0L 9.82111 0L 14 4.34209L 14 13.7373L 12.8983 13.7373L 12.8983 5.72387ZM 12.6701 4.57909L 9.59299 1.38177L 9.59299 4.57909L 12.6701 4.57909ZM 0.0215149 15.0967L 0.0215149 13.934C 0.223785 14.1129 0.443268 14.2426 0.679993 14.332C 0.92099 14.4215 1.15771 14.4662 1.40302 14.4662C 1.54504 14.4662 1.66983 14.4528 1.77313 14.4259C 1.88074 14.3991 1.9668 14.3633 2.03995 14.3141C 2.10883 14.2694 2.16476 14.2113 2.19919 14.1487C 2.23364 14.0816 2.25085 14.0145 2.25085 13.9385C 2.25085 13.8357 2.22504 13.7462 2.16907 13.6657C 2.11313 13.5853 2.03564 13.5137 1.93668 13.4422C 1.84198 13.3751 1.7258 13.3125 1.59238 13.2499C 1.46326 13.1873 1.31693 13.1202 1.16202 13.0576C 0.770355 12.8876 0.482025 12.6775 0.288361 12.436C 0.094696 12.1901 0 11.8949 0 11.5506C 0 11.2778 0.0516357 11.0453 0.154938 10.8485C 0.262512 10.6518 0.404541 10.4908 0.585297 10.3656C 0.766052 10.2404 0.976959 10.1465 1.21365 10.0883C 1.45035 10.0302 1.70428 9.99889 1.9668 9.99889C 2.22934 9.99889 2.46173 10.0168 2.664 10.0481C 2.86197 10.0838 3.05133 10.133 3.21918 10.2001L 3.21918 11.2868C 3.13742 11.2242 3.04272 11.1705 2.94376 11.1258C 2.84476 11.0811 2.74576 11.0408 2.63818 11.014C 2.53488 10.9827 2.43161 10.9603 2.32831 10.9424C 2.22073 10.929 2.12604 10.9245 2.03134 10.9245C 1.90225 10.9245 1.78604 10.9335 1.68274 10.9603C 1.57516 10.9871 1.48907 11.0229 1.41592 11.0676C 1.34277 11.1124 1.2868 11.1705 1.24808 11.2331C 1.20935 11.2957 1.18784 11.3717 1.18784 11.4477C 1.18784 11.5372 1.20935 11.6132 1.25668 11.6847C 1.29971 11.7563 1.35999 11.8189 1.44174 11.8815C 1.52353 11.9441 1.6225 12.0022 1.74301 12.0648L 1.74387 12.0653C 1.87271 12.1277 2.00153 12.1902 2.13464 12.2482C 2.33691 12.3332 2.51767 12.4271 2.67691 12.5254C 2.83615 12.6238 2.97388 12.7356 3.08575 12.8563C 3.20197 12.9771 3.28806 13.1202 3.3483 13.2812C 3.40854 13.4377 3.43866 13.6255 3.43866 13.8357C 3.43866 14.1263 3.38702 14.3678 3.27942 14.5646C 3.17615 14.7658 3.02982 14.9223 2.84906 15.0475C 2.6683 15.1683 2.45743 15.2577 2.21643 15.3113C 1.9754 15.3605 1.71719 15.3874 1.45035 15.3874C 1.17493 15.3874 0.912384 15.365 0.667084 15.3158C 0.41745 15.2666 0.202271 15.1951 0.0215149 15.0967ZM 4.6308 14.6629C 5.08267 15.1459 5.668 15.3874 6.38242 15.3874C 6.64923 15.3874 6.89026 15.3605 7.10974 15.2979L 7.77252 16L 9.35196 16L 8.08237 14.73C 8.09958 14.7166 8.12973 14.6853 8.12973 14.6853L 8.17276 14.6361C 8.63324 14.1308 8.86136 13.4734 8.86136 12.6551C 8.86136 11.8547 8.64185 11.2152 8.19858 10.7323C 7.75961 10.2448 7.17859 9.99889 6.46417 9.99889C 5.70673 9.99889 5.09558 10.2538 4.6394 10.7636C 4.17889 11.2733 3.95081 11.9396 3.95081 12.7624C 3.95081 13.5405 4.17889 14.1711 4.6308 14.6629ZM 6.43405 11.0095C 6.03812 11.0095 5.72394 11.166 5.48724 11.4746C 5.25485 11.7831 5.13864 12.1901 5.13864 12.6998C 5.13864 13.2186 5.25485 13.6255 5.48724 13.9251C 5.72394 14.2247 6.02951 14.3767 6.40393 14.3767C 6.79556 14.3767 7.10544 14.2292 7.33353 13.9385C 7.56165 13.6434 7.67352 13.2365 7.67352 12.7222C 7.67352 12.1856 7.56595 11.7652 7.34213 11.4612C 7.12265 11.1615 6.82141 11.0095 6.43405 11.0095ZM 9.69629 15.2979L 12.6831 15.2979L 12.6831 14.3454L 10.8282 14.3454L 10.8282 10.0883L 9.69629 10.0883L 9.69629 15.2979Z"/>
<path id="path1_fill" fill-rule="evenodd" d="M 0 0L 14 0L 14 14L 0 14L 0 0Z"/>
</defs>
</svg>
