<svg width="1000" height="1000" viewBox="0 0 1000 1000" version="1.1" xmlns="http://www.w3.org/2000/svg" xmlns:xlink="http://www.w3.org/1999/xlink">
<title>file-type-coffeescript</title>
<desc>Created using Figma</desc>
<g id="Canvas" transform="matrix(71.4286 0 0 71.4286 -91785.7 -5857.14)">
<rect x="1285" y="82" width="14" height="14" fill="#E5E5E5"/>
<g id="file-type-coffeescript">
<mask id="mask0_outline" mask-type="alpha">
<g id="Mask">
<use xlink:href="#path0_fill" transform="translate(1285 82)" fill="#FFFFFF"/>
</g>
</mask>
<g id="Mask" mask="url(#mask0_outline)">
<use xlink:href="#path0_fill" transform="translate(1285 82)"/>
</g>
<g id="&#226;&#134;&#170;&#240;&#159;&#142;&#168;Color" mask="url(#mask0_outline)">
<g id="Rectangle 3">
<use xlink:href="#path1_fill" transform="translate(1285 82)" fill="#333333"/>
</g>
</g>
</g>
</g>
<defs>
<path id="path0_fill" fill-rule="evenodd" d="M 11 5L 11 4L 8.40625 4C 8.32031 3.80469 8.19531 3.67578 8.04297 3.55859L 8.03308 3.55104L 8.03149 3.54982C 7.98303 3.51249 7.92444 3.46748 7.85938 3.40234C 7.62891 3.16406 7.5 2.84375 7.5 2.5C 7.5 2.15625 7.62891 1.83594 7.85938 1.59766C 8.27344 1.16797 8.5 0.601562 8.5 0L 7.5 0C 7.5 0.34375 7.37109 0.664062 7.14062 0.902344C 6.72656 1.33203 6.5 1.89844 6.5 2.5C 6.5 3.05859 6.70312 3.58594 7.0625 4L 4.90625 4C 4.82422 3.80469 4.69531 3.67578 4.54297 3.55859L 4.53308 3.55104L 4.53149 3.54982C 4.48303 3.51249 4.42444 3.46748 4.35938 3.40234C 4.12891 3.16406 4 2.84375 4 2.5C 4 2.15625 4.12891 1.83594 4.35938 1.59766C 4.77344 1.17188 5 0.601562 5 0L 4 0C 4 0.34375 3.87109 0.664062 3.64062 0.902344C 3.22656 1.33203 3 1.89844 3 2.5C 3 3.05859 3.20312 3.58594 3.5625 4L 0 4L 0 8C 0 10.2188 1.32422 12.1328 3.22266 13L 1 13L 1 14L 10 14L 10 13L 7.77734 13C 8.77344 12.543 9.60938 11.8008 10.1797 10.8711C 10.4453 10.9492 10.7188 11 11 11C 12.6562 11 14 9.65234 14 8C 14 6.34766 12.6562 5 11 5ZM 5.5 12.5C 3.01953 12.5 1 10.4805 1 8L 1 5L 10 5L 10 8C 10 10.4805 7.98047 12.5 5.5 12.5ZM 10.6328 9.96094C 10.7539 9.98438 10.875 10 11 10C 12.1016 10 13 9.10156 13 8C 13 6.89844 12.1016 6 11 6L 11 8C 11 8.69141 10.8672 9.35156 10.6328 9.96094Z"/>
<path id="path1_fill" fill-rule="evenodd" d="M 0 0L 14 0L 14 14L 0 14L 0 0Z"/>
</defs>
</svg>
