<svg width="1001" height="1001" viewBox="0 0 1001 1001" version="1.1" xmlns="http://www.w3.org/2000/svg" xmlns:xlink="http://www.w3.org/1999/xlink">
<title>file-preview</title>
<desc>Created using Figma</desc>
<g id="Canvas" transform="matrix(71.5 0 0 71.5 -83297.5 -5863)">
<rect x="1165" y="82" width="14" height="14" fill="#E5E5E5"/>
<g id="file-preview">
<mask id="mask0_outline" mask-type="alpha">
<g id="Mask">
<use xlink:href="#path0_fill" transform="translate(1166 82)" fill="#FFFFFF"/>
</g>
</mask>
<g id="Mask" mask="url(#mask0_outline)">
<use xlink:href="#path0_fill" transform="translate(1166 82)"/>
</g>
<g id="&#226;&#134;&#170;&#240;&#159;&#142;&#168;Color" mask="url(#mask0_outline)">
<g id="Rectangle 3">
<use xlink:href="#path1_fill" transform="translate(1165 82)"/>
</g>
</g>
</g>
</g>
<defs>
<path id="path0_fill" fill-rule="evenodd" d="M 8.18591 0L 0.938782 0L 0.938782 7L 1.94434 7L 1.94434 1L 6.97217 1L 6.97217 5L 10.9944 5L 10.9944 13L 3.95551 13L 3.95551 14L 12 14L 12 3.79297L 8.18591 0ZM 2.44714 9C 2.44714 7.62109 3.57446 6.5 4.96106 6.5C 6.34766 6.5 7.47498 7.62109 7.47498 9C 7.47498 10.3789 6.34766 11.5 4.96106 11.5C 4.45044 11.5 3.9751 11.3438 3.57837 11.082L 0.710938 13.9336L 0 13.2266L 2.86743 10.375C 2.60425 9.98047 2.44714 9.50781 2.44714 9ZM 4.29724 10.3398C 4.49756 10.4375 4.72144 10.5 4.96106 10.5C 5.79376 10.5 6.46942 9.82812 6.46942 9C 6.46942 8.17188 5.79376 7.5 4.96106 7.5C 4.1283 7.5 3.4527 8.17188 3.4527 9C 3.4527 9.23828 3.51556 9.46094 3.61377 9.66016C 3.75909 9.95703 3.99872 10.1953 4.29724 10.3398ZM 7.97772 1.20703L 7.97772 4L 10.7863 4L 7.97772 1.20703Z"/>
<path id="path1_fill" fill-rule="evenodd" d="M 0 0L 14 0L 14 14L 0 14L 0 0Z"/>
</defs>
</svg>
