<svg width="824" height="1000" viewBox="0 0 824 1000" version="1.1" xmlns="http://www.w3.org/2000/svg" xmlns:xlink="http://www.w3.org/1999/xlink">
<title>file-stack</title>
<desc>Created using Figma</desc>
<g id="Canvas" transform="matrix(58.8235 0 0 58.8235 -69941.2 -4764.71)">
<rect x="1189" y="81" width="14" height="17" fill="#E5E5E5"/>
<g id="file-stack">
<mask id="mask0_outline" mask-type="alpha">
<g id="Mask">
<use xlink:href="#path0_fill" transform="translate(1189 81)" fill="#FFFFFF"/>
</g>
</mask>
<g id="Mask" mask="url(#mask0_outline)">
<use xlink:href="#path0_fill" transform="translate(1189 81)"/>
</g>
<g id="&#226;&#134;&#170;&#240;&#159;&#142;&#168;Color" mask="url(#mask0_outline)">
<g id="Rectangle 3">
<use xlink:href="#path1_fill" transform="translate(1189 82)"/>
</g>
</g>
</g>
</g>
<defs>
<path id="path0_fill" fill-rule="evenodd" d="M 2.33337 0L 10.541 0L 14 3.55273L 14 14.5714L 11.6666 14.5714L 11.6666 17L 0 17L 0 2.42857L 2.33337 2.42857L 2.33337 0ZM 1.16663 15.7857L 10.5 15.7857L 10.5 7.28571L 7 7.28571L 7 3.64286L 1.16663 3.64286L 1.16663 15.7857ZM 8.16663 4.09347L 10.0944 6.07143L 8.16663 6.07143L 8.16663 4.09347ZM 11.6666 13.3571L 12.8334 13.3571L 12.8334 4.06027L 10.0625 1.21429L 3.5 1.21429L 3.5 2.42857L 8.20764 2.42857L 11.6666 5.98131L 11.6666 13.3571Z"/>
<path id="path1_fill" fill-rule="evenodd" d="M 0 0L 14 0L 14 14L 0 14L 0 0Z"/>
</defs>
</svg>
