<svg width="1000" height="1000" viewBox="0 0 1000 1000" version="1.1" xmlns="http://www.w3.org/2000/svg" xmlns:xlink="http://www.w3.org/1999/xlink">
<title>file-type-csproj</title>
<desc>Created using Figma</desc>
<g id="Canvas" transform="matrix(71.4286 0 0 71.4286 -11214.3 -7571.43)">
<rect x="157" y="106" width="14" height="14" fill="#E5E5E5"/>
<g id="file-type-csproj">
<mask id="mask0_outline" mask-type="alpha">
<g id="Mask">
<use xlink:href="#path0_fill" transform="translate(157 108)" fill="#FFFFFF"/>
</g>
</mask>
<g id="Mask" mask="url(#mask0_outline)">
<use xlink:href="#path0_fill" transform="translate(157 108)"/>
</g>
<g id="&#226;&#134;&#170;&#240;&#159;&#142;&#168;Color" mask="url(#mask0_outline)">
<g id="Rectangle 3">
<use xlink:href="#path1_fill" transform="translate(157 106)"/>
</g>
</g>
</g>
</g>
<defs>
<path id="path0_fill" fill-rule="evenodd" d="M 14 11L 0 11L 0 0L 14 0L 14 11ZM 6.76562 8.77734C 6.30469 9 5.70312 9.10938 4.96484 9.10938C 3.99609 9.10938 3.23438 8.82812 2.68359 8.25781C 2.12891 7.69141 1.85156 6.93359 1.85156 5.98438C 1.85156 4.97656 2.16406 4.16016 2.78516 3.53516C 3.41016 2.90625 4.21484 2.59375 5.21094 2.59375C 5.82422 2.59375 6.34375 2.67188 6.76562 2.82812L 6.76562 4.19141C 6.34375 3.94141 5.86328 3.81641 5.32422 3.81641C 4.73047 3.81641 4.25391 4 3.89062 4.375C 3.52734 4.74609 3.34375 5.25 3.34375 5.88672C 3.34375 6.49609 3.51562 6.98047 3.85938 7.33984C 4.20312 7.70312 4.66406 7.88281 5.24219 7.88281C 5.79688 7.88281 6.30469 7.75 6.76562 7.48047L 6.76562 8.77734ZM 12.3125 4.30469L 12.1406 5.09375L 11.3281 5.09375L 11.0859 6.18359L 11.9961 6.18359L 11.7969 6.97656L 10.9219 6.97656L 10.5781 8.49609L 9.69922 8.49609L 10.0195 6.97656L 9.01562 6.97656L 8.6875 8.49609L 7.80859 8.49609L 8.12109 6.97656L 7.30469 6.97656L 7.46875 6.18359L 8.29297 6.18359L 8.52734 5.09375L 7.63672 5.09375L 7.78906 4.30078L 8.69141 4.30078L 9.01562 2.73828L 9.91797 2.73828L 9.58984 4.30078L 10.5977 4.30078L 10.9297 2.73828L 11.8242 2.73828L 11.5 4.30078L 12.3125 4.30078L 12.3125 4.30469ZM 9.41797 5.09375L 10.4375 5.09375L 10.1914 6.18359L 9.17578 6.18359L 9.41797 5.09375ZM 13 10L 1 10L 1 1L 13 1L 13 10Z"/>
<path id="path1_fill" fill-rule="evenodd" d="M 0 0L 14 0L 14 14L 0 14L 0 0Z"/>
</defs>
</svg>
