<svg width="1000" height="1000" viewBox="0 0 1000 1000" version="1.1" xmlns="http://www.w3.org/2000/svg" xmlns:xlink="http://www.w3.org/1999/xlink">
<title>file-bug</title>
<desc>Created using Figma</desc>
<g id="Canvas" transform="matrix(71.4286 0 0 71.4286 -74642.9 -5857.14)">
<rect x="1045" y="82" width="14" height="14" fill="#E5E5E5"/>
<g id="file-bug">
<mask id="mask0_outline" mask-type="alpha">
<g id="Mask">
<use xlink:href="#path0_fill" transform="translate(1047 82)" fill="#FFFFFF"/>
</g>
</mask>
<g id="Mask" mask="url(#mask0_outline)">
<use xlink:href="#path0_fill" transform="translate(1047 82)"/>
</g>
<g id="&#226;&#134;&#170;&#240;&#159;&#142;&#168;Color" mask="url(#mask0_outline)">
<g id="Rectangle 3">
<use xlink:href="#path1_fill" transform="translate(1045 82)" fill="#333333"/>
</g>
</g>
</g>
</g>
<defs>
<path id="path0_fill" fill-rule="evenodd" d="M 7.20703 0L 0 0L 0 14L 11 14L 11 3.79297L 7.20703 0ZM 7 1.20703L 9.79297 4L 7 4L 7 1.20703ZM 1 13L 10 13L 10 5L 6 5L 6 1L 1 1L 1 13ZM 5.00391 11.1953C 4.82812 11.1953 4.67578 11.1367 4.55469 11.0273C 4.42969 10.9141 4.37109 10.7773 4.37109 10.6133C 4.37109 10.4492 4.42969 10.3047 4.55469 10.1875C 4.67578 10.0703 4.82812 10.0117 5.00391 10.0117C 5.17188 10.0117 5.32031 10.0703 5.44531 10.1875C 5.56641 10.3047 5.62891 10.4492 5.62891 10.6133C 5.62891 10.7773 5.56641 10.9141 5.44531 11.0273C 5.32031 11.1367 5.17188 11.1953 5.00391 11.1953ZM 5.40625 9.25391L 5.48828 4.80469L 4.45703 4.80469L 4.57031 9.25391L 5.40625 9.25391Z"/>
<path id="path1_fill" fill-rule="evenodd" d="M 0 0L 14 0L 14 14L 0 14L 0 0Z"/>
</defs>
</svg>
