<svg width="875" height="1000" viewBox="0 0 875 1000" version="1.1" xmlns="http://www.w3.org/2000/svg" xmlns:xlink="http://www.w3.org/1999/xlink">
<title>file-type-pdb</title>
<desc>Created using Figma</desc>
<g id="Canvas" transform="matrix(62.5 0 0 62.5 -26312.5 -6562.5)">
<rect x="421" y="105" width="14" height="16" fill="#E5E5E5"/>
<g id="file-type-pdb">
<mask id="mask0_outline" mask-type="alpha">
<g id="Mask">
<use xlink:href="#path0_fill" transform="translate(421 105)" fill="#FFFFFF"/>
</g>
</mask>
<g id="Mask" mask="url(#mask0_outline)">
<use xlink:href="#path0_fill" transform="translate(421 105)"/>
</g>
<g id="&#226;&#134;&#170;&#240;&#159;&#142;&#168;Color" mask="url(#mask0_outline)">
<g id="Rectangle 3">
<use xlink:href="#path1_fill" transform="translate(421 106)" fill="#333333"/>
</g>
</g>
</g>
</g>
<defs>
<path id="path0_fill" fill-rule="evenodd" d="M 9.91525 0L 2.15384 0L 2.15384 8.16071C 2.49878 8.06696 2.85635 8 3.23077 8L 3.23077 1.14286L 8.61539 1.14286L 8.61539 5.71429L 12.9231 5.71429L 12.9231 14.8571L 6.9411 14.8571C 6.70554 15.2857 6.40683 15.6741 6.05347 16L 14 16L 14 4.33482L 9.91525 0ZM 9.69232 4.57143L 9.69232 1.37946L 12.7001 4.57143L 9.69232 4.57143ZM 3.23077 16C 5.01443 16 6.46155 14.4643 6.46155 12.5714C 6.46155 10.6786 5.01443 9.14286 3.23077 9.14286C 1.44711 9.14286 0 10.6786 0 12.5714C 0 14.4643 1.44711 16 3.23077 16Z"/>
<path id="path1_fill" fill-rule="evenodd" d="M 0 0L 14 0L 14 14L 0 14L 0 0Z"/>
</defs>
</svg>
