<svg width="875" height="1000" viewBox="0 0 875 1000" version="1.1" xmlns="http://www.w3.org/2000/svg" xmlns:xlink="http://www.w3.org/1999/xlink">
<title>file-type-java</title>
<desc>Created using Figma</desc>
<g id="Canvas" transform="matrix(62.5 0 0 62.5 -17312.5 -6562.5)">
<rect x="277" y="105" width="14" height="16" fill="#E5E5E5"/>
<g id="file-type-java">
<mask id="mask0_outline" mask-type="alpha">
<g id="Mask">
<use xlink:href="#path0_fill" transform="translate(277 105)" fill="#FFFFFF"/>
</g>
</mask>
<g id="Mask" mask="url(#mask0_outline)">
<use xlink:href="#path0_fill" transform="translate(277 105)"/>
</g>
<g id="&#226;&#134;&#170;&#240;&#159;&#142;&#168;Color" mask="url(#mask0_outline)">
<g id="Rectangle 3">
<use xlink:href="#path1_fill" transform="translate(277 106)"/>
</g>
</g>
</g>
</g>
<defs>
<path id="path0_fill" fill-rule="evenodd" d="M 3.14062 1.14031L 3.14062 10.2628L 2.06142 10.2628L 2.06142 0L 9.8392 0L 13.9325 4.32516L 13.9325 11.4031L 12.8533 11.4031L 12.8533 5.70156L 8.53658 5.70156L 8.53658 1.14031L 3.14062 1.14031ZM 12.6299 4.56124L 9.61578 1.37639L 9.61578 4.56124L 12.6299 4.56124ZM 2.11201 14.1826C 2.11201 14.7706 1.98133 15.2205 1.72418 15.5323C 1.46703 15.8441 1.09184 16 0.602829 16C 0.387833 16 0.185486 15.9599 0 15.8797L 0 14.9532C 0.160194 15.0824 0.33725 15.1448 0.539597 15.1448C 0.96537 15.1448 1.18037 14.8107 1.18037 14.1425L 1.18037 11.5323L 2.11201 11.5323L 2.11201 14.1826ZM 5.48028 15.9243L 6.50045 15.9243L 5.02077 11.5323L 3.91207 11.5323L 2.39867 15.9243L 3.41042 15.9243L 3.70551 14.9488L 5.18518 14.9488L 5.48028 15.9243ZM 4.97018 14.1871L 4.52333 12.7082C 4.48961 12.6013 4.46853 12.4677 4.45167 12.3163L 4.43059 12.3163C 4.41795 12.4454 4.39687 12.5702 4.35892 12.6993L 3.90364 14.1871L 4.97018 14.1871ZM 8.71786 15.9243L 10.1512 11.5323L 9.16893 11.5323L 8.30894 14.5746C 8.26257 14.7394 8.23306 14.8864 8.22041 15.0245L 8.20355 15.0245C 8.19513 14.8998 8.16562 14.7528 8.11925 14.588L 7.25083 11.5323L 6.2433 11.5323L 7.65974 15.9243L 8.71786 15.9243ZM 14 15.9243L 12.9798 15.9243L 12.6805 14.9488L 11.2009 14.9488L 10.91 15.9243L 9.89401 15.9243L 11.4074 11.5323L 12.5161 11.5323L 14 15.9243ZM 12.0229 12.7082L 12.4697 14.1871L 11.4032 14.1871L 11.8543 12.6993C 11.8922 12.5702 11.9175 12.4454 11.9259 12.3163L 11.9512 12.3163C 11.9639 12.4677 11.9892 12.6013 12.0229 12.7082Z"/>
<path id="path1_fill" fill-rule="evenodd" d="M 0 0L 14 0L 14 14L 0 14L 0 0Z"/>
</defs>
</svg>
