<svg width="1000" height="1000" viewBox="0 0 1000 1000" version="1.1" xmlns="http://www.w3.org/2000/svg" xmlns:xlink="http://www.w3.org/1999/xlink">
<title>file-type-vb</title>
<desc>Created using Figma</desc>
<g id="Canvas" transform="matrix(71.4286 0 0 71.4286 -47214.3 -7571.43)">
<rect x="661" y="106" width="14" height="14" fill="#E5E5E5"/>
<g id="file-type-vb">
<mask id="mask0_outline" mask-type="alpha">
<g id="Mask">
<use xlink:href="#path0_fill" transform="translate(661 109)" fill="#FFFFFF"/>
</g>
</mask>
<g id="Mask" mask="url(#mask0_outline)">
<use xlink:href="#path0_fill" transform="translate(661 109)"/>
</g>
<g id="&#226;&#134;&#170;&#240;&#159;&#142;&#168;Color" mask="url(#mask0_outline)">
<g id="Rectangle 3">
<use xlink:href="#path1_fill" transform="translate(661 106)"/>
</g>
</g>
</g>
</g>
<defs>
<path id="path0_fill" fill-rule="evenodd" d="M 4.60251 8L 7.26688 0L 5.44687 0L 3.84561 5.54613C 3.75812 5.84493 3.70126 6.11658 3.67499 6.36559L 3.64438 6.36559C 3.62686 6.13469 3.57437 5.86758 3.48688 5.56876L 1.87686 0L 0 0L 2.62936 8L 4.60251 8ZM 8.1944 0L 8.1944 8L 11.165 8C 12.04 8 12.7357 7.78721 13.2388 7.3571C 13.7463 6.92699 14 6.34296 14 5.61404C 14 5.11149 13.8338 4.68591 13.5057 4.3373C 13.1776 3.98415 12.7401 3.77589 12.1888 3.70345L 12.1888 3.68082C 12.6263 3.55405 12.9894 3.3322 13.2694 3.00623C 13.5538 2.68478 13.6938 2.30447 13.6938 1.87436C 13.6938 1.28127 13.4619 0.819466 12.9982 0.488968C 12.5344 0.162987 11.8694 0 11.0075 0L 8.1944 0ZM 9.93561 1.32655L 9.93561 3.22355L 10.7012 3.22355C 11.06 3.22355 11.3444 3.133 11.55 2.95643C 11.7556 2.77533 11.8606 2.52632 11.8606 2.2094C 11.8606 1.62083 11.4362 1.32655 10.5875 1.32655L 9.93561 1.32655ZM 9.93561 6.67345L 9.93561 4.56367L 10.8893 4.56367C 11.2919 4.56367 11.6069 4.65421 11.83 4.83531C 12.0575 5.02094 12.1669 5.26995 12.1669 5.5914C 12.1669 5.92643 12.0531 6.18902 11.8256 6.3837C 11.5981 6.57385 11.2831 6.67345 10.8806 6.67345L 9.93561 6.67345Z"/>
<path id="path1_fill" fill-rule="evenodd" d="M 0 0L 14 0L 14 14L 0 14L 0 0Z"/>
</defs>
</svg>
