<svg width="875" height="1000" viewBox="0 0 875 1000" version="1.1" xmlns="http://www.w3.org/2000/svg" xmlns:xlink="http://www.w3.org/1999/xlink">
<title>file-type-template</title>
<desc>Created using Figma</desc>
<g id="Canvas" transform="matrix(62.5 0 0 62.5 -38312.5 -6562.5)">
<rect x="613" y="105" width="14" height="16" fill="#E5E5E5"/>
<g id="file-type-template">
<mask id="mask0_outline" mask-type="alpha">
<g id="Mask">
<use xlink:href="#path0_fill" transform="translate(613 105)" fill="#FFFFFF"/>
</g>
</mask>
<g id="Mask" mask="url(#mask0_outline)">
<use xlink:href="#path0_fill" transform="translate(613 105)"/>
</g>
<g id="&#226;&#134;&#170;&#240;&#159;&#142;&#168;Color" mask="url(#mask0_outline)">
<g id="Rectangle 3">
<use xlink:href="#path1_fill" transform="translate(613 106)"/>
</g>
</g>
</g>
</g>
<defs>
<path id="path0_fill" fill-rule="evenodd" d="M 14 4.33482L 14 16L 8.61539 16L 8.61539 14.8571L 12.9231 14.8571L 12.9231 5.71429L 8.61539 5.71429L 8.61539 1.14286L 3.23077 1.14286L 3.23077 4.57143L 2.15384 4.57143L 2.15384 0L 9.91525 0L 14 4.33482ZM 0 5.71429L 1.07693 5.71429L 1.07693 6.85715L 0 6.85715L 0 5.71429ZM 1.07693 8L 0 8L 0 9.14286L 1.07693 9.14286L 1.07693 8ZM 0 10.2857L 1.07693 10.2857L 1.07693 11.4286L 0 11.4286L 0 10.2857ZM 1.07693 12.5714L 0 12.5714L 0 13.7143L 1.07693 13.7143L 1.07693 12.5714ZM 0 14.8571L 1.07693 14.8571L 1.07693 16L 0 16L 0 14.8571ZM 3.23077 14.8571L 2.15384 14.8571L 2.15384 16L 3.23077 16L 3.23077 14.8571ZM 4.30768 14.8571L 5.38461 14.8571L 5.38461 16L 4.30768 16L 4.30768 14.8571ZM 6.46155 16L 7.53848 16L 7.53848 14.8571L 6.46155 14.8571L 6.46155 16ZM 5.38461 5.71429L 4.30768 5.71429L 4.30768 6.85715L 5.38461 6.85715L 5.38461 5.71429ZM 2.15384 5.71429L 3.23077 5.71429L 3.23077 6.85715L 2.15384 6.85715L 2.15384 5.71429ZM 7.53848 5.71429L 6.46155 5.71429L 6.46155 6.85715L 7.53848 6.85715L 7.53848 5.71429ZM 6.46155 12.5714L 7.53848 12.5714L 7.53848 13.7143L 6.46155 13.7143L 6.46155 12.5714ZM 7.53848 10.2857L 6.46155 10.2857L 6.46155 11.4286L 7.53848 11.4286L 7.53848 10.2857ZM 6.46155 8L 7.53848 8L 7.53848 9.14286L 6.46155 9.14286L 6.46155 8ZM 9.69232 1.37946L 12.7001 4.57143L 9.69232 4.57143L 9.69232 1.37946Z"/>
<path id="path1_fill" fill-rule="evenodd" d="M 0 0L 14 0L 14 14L 0 14L 0 0Z"/>
</defs>
</svg>
