<svg width="1000" height="1000" viewBox="0 0 1000 1000" version="1.1" xmlns="http://www.w3.org/2000/svg" xmlns:xlink="http://www.w3.org/1999/xlink">
<title>file-comment</title>
<desc>Created using Figma</desc>
<g id="Canvas" transform="matrix(71.4286 0 0 71.4286 -78071.4 -5857.14)">
<rect x="1093" y="82" width="14" height="14" fill="#E5E5E5"/>
<g id="file-comment">
<mask id="mask0_outline" mask-type="alpha">
<g id="Mask">
<use xlink:href="#path0_fill" transform="translate(1094 82)" fill="#FFFFFF"/>
</g>
</mask>
<g id="Mask" mask="url(#mask0_outline)">
<use xlink:href="#path0_fill" transform="translate(1094 82)"/>
</g>
<g id="&#226;&#134;&#170;&#240;&#159;&#142;&#168;Color" mask="url(#mask0_outline)">
<g id="Rectangle 3">
<use xlink:href="#path1_fill" transform="translate(1093 82)"/>
</g>
</g>
</g>
</g>
<defs>
<path id="path0_fill" fill-rule="evenodd" d="M 1 13L 10 13L 10 12L 11 12L 11 14L 0 14L 0 0L 7.20703 0L 10.207 3L 8.79297 3L 7 1.20703L 7 3L 6 3L 6 1L 1 1L 1 13ZM 4 12.8828L 4 11L 3 11L 3 4L 13 4L 13 11L 7.14062 11L 4 12.8828ZM 4 10L 5 10L 5 11.1172L 6.86328 10L 12 10L 12 5L 4 5L 4 10ZM 5 6L 10 6L 10 7L 5 7L 5 6ZM 10 8L 6 8L 6 9L 10 9L 10 8Z"/>
<path id="path1_fill" fill-rule="evenodd" d="M 0 0L 14 0L 14 14L 0 14L 0 0Z"/>
</defs>
</svg>
