<svg width="875" height="1000" viewBox="0 0 875 1000" version="1.1" xmlns="http://www.w3.org/2000/svg" xmlns:xlink="http://www.w3.org/1999/xlink">
<title>file-type-html</title>
<desc>Created using Figma</desc>
<g id="Canvas" transform="matrix(62.5 0 0 62.5 -15812.5 -6562.5)">
<rect x="253" y="105" width="14" height="16" fill="#E5E5E5"/>
<g id="file-type-html">
<mask id="mask0_outline" mask-type="alpha">
<g id="Mask">
<use xlink:href="#path0_fill" transform="translate(253 105)" fill="#FFFFFF"/>
</g>
</mask>
<g id="Mask" mask="url(#mask0_outline)">
<use xlink:href="#path0_fill" transform="translate(253 105)"/>
</g>
<g id="&#226;&#134;&#170;&#240;&#159;&#142;&#168;Color" mask="url(#mask0_outline)">
<g id="Rectangle 3">
<use xlink:href="#path1_fill" transform="translate(253 106)"/>
</g>
</g>
</g>
</g>
<defs>
<path id="path0_fill" fill-rule="evenodd" d="M 14 4.33482L 14 16L 11.7965 16L 11.7965 14.8571L 12.8982 14.8571L 12.8982 5.71429L 8.49123 5.71429L 8.49123 1.14286L 2.98248 1.14286L 2.98248 9.14286L 1.88072 9.14286L 1.88072 0L 9.82108 0L 14 4.33482ZM 2.87058 15.8348L 0 12.8571L 2.87058 9.87946L 3.64955 10.6875L 1.55795 12.8571L 3.64955 15.0268L 2.87058 15.8348ZM 11.4737 12.8571L 8.60314 9.87946L 7.82417 10.6875L 9.91577 12.8571L 7.82417 15.0268L 8.60314 15.8348L 11.4737 12.8571ZM 4.08423 12.8571C 4.08423 11.9107 4.82447 11.1429 5.73685 11.1429C 6.64925 11.1429 7.38949 11.9107 7.38949 12.8571C 7.38949 13.8036 6.64925 14.5714 5.73685 14.5714C 4.82447 14.5714 4.08423 13.8036 4.08423 12.8571ZM 9.59299 1.37946L 12.6702 4.57143L 9.59299 4.57143L 9.59299 1.37946Z"/>
<path id="path1_fill" fill-rule="evenodd" d="M 0 0L 14 0L 14 14L 0 14L 0 0Z"/>
</defs>
</svg>
