<svg width="1000" height="1000" viewBox="0 0 1000 1000" version="1.1" xmlns="http://www.w3.org/2000/svg" xmlns:xlink="http://www.w3.org/1999/xlink">
<title>file-type-xml</title>
<desc>Created using Figma</desc>
<g id="Canvas" transform="matrix(71.4286 0 0 71.4286 -52357.1 -7571.43)">
<rect x="733" y="106" width="14" height="14" fill="#E5E5E5"/>
<g id="file-type-xml">
<mask id="mask0_outline" mask-type="alpha">
<g id="Mask">
<use xlink:href="#path0_fill" transform="translate(733 109)" fill="#FFFFFF"/>
</g>
</mask>
<g id="Mask" mask="url(#mask0_outline)">
<use xlink:href="#path0_fill" transform="translate(733 109)"/>
</g>
<g id="&#226;&#134;&#170;&#240;&#159;&#142;&#168;Color" mask="url(#mask0_outline)">
<g id="Rectangle 3">
<use xlink:href="#path1_fill" transform="translate(733 106)"/>
</g>
</g>
</g>
</g>
<defs>
<path id="path0_fill" fill-rule="evenodd" d="M 3.50201 7.16579L 0 3.5829L 3.50201 0L 4.23993 0.754951L 1.47583 3.5829L 4.23993 6.41084L 3.50201 7.16579ZM 14 3.5829L 10.5021 0.00417328L 9.76416 0.759125L 12.5242 3.5829L 9.76007 6.41084L 10.498 7.1658L 14 3.5829ZM 7.54218 0.233574L 8.5451 0.525543L 6.45776 8L 5.45483 7.70802L 7.54218 0.233574Z"/>
<path id="path1_fill" fill-rule="evenodd" d="M 0 0L 14 0L 14 14L 0 14L 0 0Z"/>
</defs>
</svg>
