<svg width="778" height="1000" viewBox="0 0 778 1000" version="1.1" xmlns="http://www.w3.org/2000/svg" xmlns:xlink="http://www.w3.org/1999/xlink">
<title>file-type-css</title>
<desc>Created using Figma</desc>
<g id="Canvas" transform="matrix(55.5556 0 0 55.5556 -10055.6 -5777.78)">
<rect x="181" y="104" width="14" height="18" fill="#E5E5E5"/>
<g id="file-type-css">
<mask id="mask0_outline" mask-type="alpha">
<g id="Mask">
<use xlink:href="#path0_fill" transform="translate(181 104)" fill="#FFFFFF"/>
</g>
</mask>
<g id="Mask" mask="url(#mask0_outline)">
<use xlink:href="#path0_fill" transform="translate(181 104)"/>
</g>
<g id="&#226;&#134;&#170;&#240;&#159;&#142;&#168;Color" mask="url(#mask0_outline)">
<g id="Rectangle 3">
<use xlink:href="#path1_fill" transform="translate(181 106)" fill="#333333"/>
</g>
</g>
</g>
</g>
<defs>
<path id="path0_fill" fill-rule="evenodd" d="M 14 18L 14 4.87668L 9.17258 0L 0 0L 0 18L 14 18ZM 2.54545 3.85714L 3.81818 3.85714L 3.81818 2.57143L 2.54545 2.57143L 2.54545 3.85714ZM 2.54545 5.14286L 3.81818 5.14286L 3.81818 6.42857L 2.54545 6.42857L 2.54545 5.14286ZM 3.81818 7.71429L 2.54545 7.71429L 2.54545 9L 3.81818 9L 3.81818 7.71429ZM 8.90909 5.14285L 12.4638 5.14285L 8.90909 1.5519L 8.90909 5.14285ZM 7.63636 6.42857L 12.7273 6.42857L 12.7273 16.7143L 1.27273 16.7143L 1.27273 1.28571L 7.63636 1.28571L 7.63636 6.42857ZM 11.4545 9L 11.4545 15.4286L 10.2166 15.4286L 10.2166 14.1429L 6.39844 14.1429L 4.89204 15.4286L 3.10227 15.4286L 9.80895 9L 11.4545 9ZM 7.59659 12.8571L 10.2216 10.2857L 10.2166 12.8571L 7.59659 12.8571Z"/>
<path id="path1_fill" fill-rule="evenodd" d="M 0 0L 14 0L 14 14L 0 14L 0 0Z"/>
</defs>
</svg>
