<svg width="1001" height="1001" viewBox="0 0 1001 1001" version="1.1" xmlns="http://www.w3.org/2000/svg" xmlns:xlink="http://www.w3.org/1999/xlink">
<title>file-image</title>
<desc>Created using Figma</desc>
<g id="Canvas" transform="matrix(71.5 0 0 71.5 -81581.5 -5863)">
<rect x="1141" y="82" width="14" height="14" fill="#E5E5E5"/>
<g id="file-image">
<mask id="mask0_outline" mask-type="alpha">
<g id="Mask">
<use xlink:href="#path0_fill" transform="translate(1142 82)" fill="#FFFFFF"/>
</g>
</mask>
<g id="Mask" mask="url(#mask0_outline)">
<use xlink:href="#path0_fill" transform="translate(1142 82)"/>
</g>
<g id="&#226;&#134;&#170;&#240;&#159;&#142;&#168;Color" mask="url(#mask0_outline)">
<g id="Rectangle 3">
<use xlink:href="#path1_fill" transform="translate(1141 82)"/>
</g>
</g>
</g>
</g>
<defs>
<path id="path0_fill" fill-rule="evenodd" d="M 11 14L 11 13L 1 13L 1 1L 6 1L 6 3L 7 3L 7 1.20703L 8.79297 3L 10.207 3L 7.20703 0L 0 0L 0 14L 11 14ZM 4 12L 4 4L 13 4L 13 12L 4 12ZM 12 5L 5 5L 5 9.29297L 7 7.29297L 9 9.29297L 10 8.29297L 12 10.293L 12 5ZM 11 6.5C 11 6.77734 10.7773 7 10.5 7C 10.2227 7 10 6.77734 10 6.5C 10 6.22266 10.2227 6 10.5 6C 10.7773 6 11 6.22266 11 6.5Z"/>
<path id="path1_fill" fill-rule="evenodd" d="M 0 0L 14 0L 14 14L 0 14L 0 0Z"/>
</defs>
</svg>
