<svg width="1000" height="1000" viewBox="0 0 1000 1000" version="1.1" xmlns="http://www.w3.org/2000/svg" xmlns:xlink="http://www.w3.org/1999/xlink">
<title>file-type-sln</title>
<desc>Created using Figma</desc>
<g id="Canvas" transform="matrix(71.4286 0 0 71.4286 -40357.1 -7571.43)">
<rect x="565" y="106" width="14" height="14" fill="#E5E5E5"/>
<g id="file-type-sln">
<mask id="mask0_outline" mask-type="alpha">
<g id="Mask">
<use xlink:href="#path0_fill" transform="translate(565 107)" fill="#FFFFFF"/>
</g>
</mask>
<g id="Mask" mask="url(#mask0_outline)">
<use xlink:href="#path0_fill" transform="translate(565 107)"/>
</g>
<g id="&#226;&#134;&#170;&#240;&#159;&#142;&#168;Color" mask="url(#mask0_outline)">
<g id="Rectangle 3">
<use xlink:href="#path1_fill" transform="translate(565 106)"/>
</g>
</g>
</g>
</g>
<defs>
<path id="path0_fill" fill-rule="evenodd" d="M 0 5L 0 0L 14 0L 14 12L 10 12L 10 11L 13 11L 13 4L 7.56641 4L 9.01562 4.5L 9.01562 12.3477L 7.12109 13L 3.19922 9.40625L 1.23828 11.0391L 0 10.3867L 0 6.46094L 1.23828 5.80859L 3.19922 7.44141L 6.95312 4L 1 4L 1 5L 0 5ZM 1.23828 7.11719L 1.23828 9.73047L 2.54688 8.42188L 1.23828 7.11719ZM 7.21094 10.3867L 4.50781 8.42188L 7.21094 6.46094L 7.21094 10.3867ZM 1 3L 13 3L 13 1L 1 1L 1 3Z"/>
<path id="path1_fill" fill-rule="evenodd" d="M 0 0L 14 0L 14 14L 0 14L 0 0Z"/>
</defs>
</svg>
