<svg width="1000" height="1000" viewBox="0 0 1000 1000" version="1.1" xmlns="http://www.w3.org/2000/svg" xmlns:xlink="http://www.w3.org/1999/xlink">
<title>file-type-jsproj</title>
<desc>Created using Figma</desc>
<g id="Canvas" transform="matrix(71.4286 0 0 71.4286 -24928.6 -7571.43)">
<rect x="349" y="106" width="14" height="14" fill="#E5E5E5"/>
<g id="file-type-jsproj">
<mask id="mask0_outline" mask-type="alpha">
<g id="Mask">
<use xlink:href="#path0_fill" transform="translate(349 108)" fill="#FFFFFF"/>
</g>
</mask>
<g id="Mask" mask="url(#mask0_outline)">
<use xlink:href="#path0_fill" transform="translate(349 108)"/>
</g>
<g id="&#226;&#134;&#170;&#240;&#159;&#142;&#168;Color" mask="url(#mask0_outline)">
<g id="Rectangle 3">
<use xlink:href="#path1_fill" transform="translate(349 106)"/>
</g>
</g>
</g>
</g>
<defs>
<path id="path0_fill" fill-rule="evenodd" d="M 14 11L 0 11L 0 0L 14 0L 14 11ZM 6.91016 7.26172L 6.91016 8.74609C 7.14844 8.86719 7.43359 8.96094 7.76562 9.02344C 8.09375 9.08594 8.44141 9.11719 8.80469 9.11719C 9.16016 9.11719 9.5 9.08203 9.82031 9.01562C 10.1406 8.94531 10.418 8.83594 10.6602 8.67969C 10.9023 8.52344 11.0938 8.31641 11.2344 8.06641C 11.375 7.8125 11.4453 7.50391 11.4453 7.13281C 11.4453 6.86328 11.4062 6.625 11.3242 6.42188C 11.2422 6.22266 11.1289 6.04297 10.9766 5.88281C 10.8242 5.72656 10.6445 5.58594 10.4297 5.45703C 10.2188 5.33203 9.98047 5.21484 9.71484 5.10547C 9.51953 5.02344 9.34375 4.94531 9.19141 4.87109C 9.03516 4.79297 8.90625 4.71484 8.79688 4.63672C 8.6875 4.55859 8.60547 4.47656 8.54688 4.38672C 8.48828 4.30078 8.45703 4.19922 8.45703 4.08984C 8.45703 3.98438 8.48438 3.89453 8.53516 3.8125C 8.58984 3.73047 8.66406 3.66016 8.75781 3.60156C 8.85547 3.54297 8.97266 3.49609 9.11328 3.46484C 9.25 3.43359 9.40625 3.41406 9.57422 3.41406C 9.70703 3.41406 9.83594 3.42578 9.96875 3.44531C 10.1055 3.46094 10.2422 3.49219 10.3828 3.52734C 10.5195 3.56641 10.6562 3.61719 10.7891 3.67578C 10.918 3.73438 11.043 3.80078 11.1523 3.87891L 11.1523 2.49219C 10.9258 2.40625 10.6797 2.33984 10.4141 2.30078C 10.1445 2.25781 9.83984 2.23828 9.49219 2.23828C 9.14062 2.23828 8.80469 2.27344 8.48828 2.35156C 8.17578 2.42578 7.89844 2.54688 7.65625 2.70703C 7.41797 2.86719 7.22656 3.07031 7.08984 3.32031C 6.94922 3.57031 6.87891 3.86719 6.87891 4.21484C 6.87891 4.65625 7.00781 5.03125 7.26172 5.34375C 7.51953 5.65625 7.90625 5.92188 8.42578 6.13672C 8.62891 6.22266 8.82031 6.30469 8.99609 6.38281C 9.17188 6.46484 9.32422 6.54688 9.45312 6.63672C 9.58203 6.72266 9.68359 6.81641 9.75781 6.91797C 9.83203 7.01953 9.86719 7.13281 9.86719 7.26562C 9.86719 7.35938 9.84375 7.44922 9.79688 7.53125C 9.75 7.61328 9.67969 7.68359 9.58594 7.74609C 9.49219 7.80469 9.375 7.85156 9.23438 7.88672C 9.09375 7.92188 8.92969 7.9375 8.74219 7.9375C 8.41797 7.9375 8.09766 7.88281 7.78516 7.76953C 7.46875 7.65625 7.17578 7.48828 6.91016 7.26172ZM 5.13672 8.40625C 5.55078 7.93359 5.75781 7.25 5.75781 6.35938L 5.75781 2.34766L 4.26562 2.34766L 4.26562 6.30078C 4.26562 7.31641 3.92188 7.82422 3.23828 7.82422C 2.91797 7.82422 2.63281 7.72656 2.375 7.53125L 2.375 8.9375C 2.67188 9.05469 2.99609 9.11719 3.34375 9.11719C 4.12891 9.11719 4.72656 8.87891 5.13672 8.40625ZM 13 10L 1 10L 1 1L 13 1L 13 10Z"/>
<path id="path1_fill" fill-rule="evenodd" d="M 0 0L 14 0L 14 14L 0 14L 0 0Z"/>
</defs>
</svg>
