<svg width="1001" height="1001" viewBox="0 0 1001 1001" version="1.1" xmlns="http://www.w3.org/2000/svg" xmlns:xlink="http://www.w3.org/1999/xlink">
<title>file-type-java</title>
<desc>Created using Figma</desc>
<g id="Canvas" transform="matrix(83.4167 0 0 83.4167 -57223.8 -22939.6)">
<g id="file-type-java">
<use xlink:href="#path0_fill" transform="translate(686 275)"/>
</g>
</g>
<defs>
<path id="path0_fill" d="M 1.5 7.5L 0.75 7.5L 0.75 0L 7.2832 0L 10.5 3.2168L 10.5 7.5L 9.75 7.5L 9.75 3.75L 6.75 3.75L 6.75 0.75L 1.5 0.75L 1.5 7.5ZM 7.5 3L 9.2168 3L 7.5 1.2832L 7.5 3ZM 0.609375 11.4668C 0.742187 11.4668 0.847656 11.4375 0.925781 11.3789C 1.00781 11.3203 1.07031 11.2441 1.11328 11.1504C 1.15625 11.0566 1.18555 10.9551 1.20117 10.8457C 1.2168 10.7324 1.22461 10.623 1.22461 10.5176L 1.22461 8.25L 1.83398 8.25L 1.83398 10.6172C 1.83398 10.8047 1.81055 10.9824 1.76367 11.1504C 1.7207 11.3184 1.65039 11.4648 1.55273 11.5898C 1.45508 11.7148 1.33203 11.8145 1.18359 11.8887C 1.03516 11.9629 0.857422 12 0.650391 12C 0.580078 12 0.509766 11.998 0.439453 11.9941C 0.369141 11.9863 0.300781 11.9687 0.234375 11.9414L 0.234375 11.3672C 0.289062 11.4023 0.347656 11.4277 0.410156 11.4434C 0.476563 11.459 0.542969 11.4668 0.609375 11.4668ZM 4.24805 8.25L 5.61914 11.9414L 4.94531 11.9414L 4.61719 10.998L 3.16406 10.998L 2.84766 11.9414L 2.17969 11.9414L 3.55664 8.25L 4.24805 8.25ZM 4.45312 10.5L 3.94336 9.0293C 3.93164 8.99023 3.91992 8.95312 3.9082 8.91797C 3.90039 8.87891 3.89258 8.83984 3.88477 8.80078C 3.87305 8.88672 3.85547 8.96289 3.83203 9.0293L 3.32812 10.5L 4.45312 10.5ZM 8.71875 8.25L 7.39453 11.9414L 6.71484 11.9414L 5.4082 8.25L 6.08203 8.25L 6.99023 11.0508C 7.00977 11.1016 7.02344 11.1523 7.03125 11.2031C 7.04297 11.2539 7.05469 11.3066 7.06641 11.3613C 7.07422 11.3066 7.08398 11.2539 7.0957 11.2031C 7.10742 11.1523 7.12305 11.0996 7.14258 11.0449L 8.07422 8.25L 8.71875 8.25ZM 11.9531 11.9414L 11.2793 11.9414L 10.9512 10.998L 9.49805 10.998L 9.18164 11.9414L 8.50781 11.9414L 9.89062 8.25L 10.582 8.25L 11.9531 11.9414ZM 10.7871 10.5L 10.2715 9.0293C 10.2598 8.99414 10.25 8.95703 10.2422 8.91797C 10.2344 8.87891 10.2246 8.84375 10.2129 8.8125C 10.2051 8.84766 10.1973 8.88477 10.1895 8.92383C 10.1855 8.96289 10.1777 8.99805 10.166 9.0293L 9.65625 10.5L 10.7871 10.5Z"/>
</defs>
</svg>
