<svg width="934" height="1001" viewBox="0 0 934 1001" version="1.1" xmlns="http://www.w3.org/2000/svg" xmlns:xlink="http://www.w3.org/1999/xlink">
<title>file-type-less</title>
<desc>Created using Figma</desc>
<g id="Canvas" transform="matrix(66.6667 0 0 66.6667 -24866.7 -7066.67)">
<rect x="373" y="106" width="14" height="15" fill="#E5E5E5"/>
<g id="file-type-less">
<mask id="mask0_outline" mask-type="alpha">
<g id="Mask">
<use xlink:href="#path0_fill" transform="translate(373 106)" fill="#FFFFFF"/>
</g>
</mask>
<g id="Mask" mask="url(#mask0_outline)">
<use xlink:href="#path0_fill" transform="translate(373 106)"/>
</g>
<g id="&#226;&#134;&#170;&#240;&#159;&#142;&#168;Color" mask="url(#mask0_outline)">
<g id="Rectangle 3">
<use xlink:href="#path1_fill" transform="translate(373 106)"/>
</g>
</g>
</g>
</g>
<defs>
<path id="path0_fill" fill-rule="evenodd" d="M 3.23076 1.08505L 3.23076 8.68042L 2.15384 8.68042L 2.15384 0L 9.92368 0L 14 4.11557L 14 14.1057L 12.9231 14.1057L 12.9231 5.42526L 8.61537 5.42526L 8.61537 1.08505L 3.23076 1.08505ZM 0 14.9195L 1.14423 14.9195L 1.14423 9.29076L 0 9.29076L 0 14.9195ZM 3.0625 13.3258L 5.51923 13.3258L 5.51923 12.8468C 5.51923 12.2831 5.37199 11.8381 5.06911 11.5075C 4.77043 11.1811 4.34555 11.0158 3.79446 11.0158C 3.26442 11.0158 2.81851 11.1981 2.45251 11.5668C 2.09074 11.9356 1.90985 12.4357 1.90985 13.0673C 1.90985 13.6734 2.07812 14.1481 2.41466 14.4871C 2.74699 14.8262 3.21814 14.9958 3.82812 14.9958C 4.38762 14.9958 4.84615 14.9025 5.18269 14.716L 5.18269 13.8726C 4.87981 14.0675 4.50961 14.1608 4.09314 14.1608C 3.44531 14.1608 3.10036 13.9022 3.0625 13.3258ZM 4.44231 12.6137C 4.44231 12.0712 4.22356 11.7999 3.78606 11.7999C 3.60097 11.7999 3.44112 11.8762 3.30229 12.0331C 3.16768 12.1899 3.08354 12.3764 3.05409 12.6137L 4.44231 12.6137ZM 5.95673 13.8556L 5.95673 14.805C 6.32692 14.9364 6.69711 14.9958 7.11357 15C 7.34074 15 7.56369 14.9746 7.77403 14.9322C 7.98016 14.8856 8.16525 14.8135 8.32932 14.7118C 8.48918 14.6101 8.61958 14.4829 8.71634 14.3218C 8.8131 14.1608 8.85938 13.97 8.85938 13.7454C 8.85938 13.5843 8.83414 13.4445 8.78786 13.33C 8.74158 13.2156 8.67007 13.1139 8.58173 13.0249C 8.49338 12.9401 8.384 12.8638 8.26201 12.8002C 8.13582 12.7366 7.99699 12.6773 7.84134 12.6222C 7.79936 12.6081 7.75833 12.594 7.71735 12.5799L 7.71387 12.5787L 7.71117 12.5778C 7.66797 12.5629 7.62477 12.5481 7.58052 12.5332C 7.49219 12.5078 7.41646 12.4739 7.34494 12.44C 7.27344 12.4018 7.21454 12.3594 7.17247 12.3086C 7.12619 12.2619 7.10516 12.2026 7.10516 12.1305C 7.10516 12.0797 7.11778 12.0331 7.14723 11.9949C 7.17668 11.9525 7.21875 11.9186 7.26923 11.8932C 7.3197 11.8678 7.3786 11.8466 7.44591 11.8338C 7.51321 11.8211 7.58473 11.8127 7.66045 11.8127C 7.82031 11.8127 7.98016 11.8338 8.14844 11.8762C 8.3167 11.9229 8.48076 11.9864 8.61539 12.0712L 8.61539 11.1684C 8.48076 11.1175 8.28726 11.0794 8.11478 11.054C 7.94231 11.0285 7.78244 11.0158 7.61418 11.0158C 7.40384 11.0158 7.19771 11.037 7 11.0836C 6.80228 11.1303 6.6256 11.2023 6.47415 11.2998C 6.31851 11.3973 6.1965 11.5244 6.10396 11.677C 6.01141 11.8296 5.96513 12.0119 5.96513 12.2238C 5.96513 12.3806 5.98618 12.5162 6.02824 12.6307C 6.0661 12.7409 6.125 12.8426 6.20493 12.9274C 6.28064 13.0164 6.3774 13.0927 6.49098 13.1563C 6.60457 13.2241 6.73918 13.2834 6.88641 13.3428L 6.88693 13.3429L 6.8873 13.3431L 6.88766 13.3432L 6.88803 13.3433L 6.8884 13.3435L 6.88876 13.3436L 6.88913 13.3437C 6.98499 13.3773 7.08083 13.4109 7.17668 13.4402C 7.27344 13.4699 7.36598 13.4996 7.45432 13.542C 7.53845 13.5759 7.60997 13.6225 7.66466 13.6691C 7.71935 13.72 7.74458 13.7836 7.74458 13.8556C 7.74458 13.97 7.6857 14.0591 7.56369 14.1142C 7.44591 14.1735 7.28185 14.1989 7.07571 14.1989C 6.90744 14.1989 6.72235 14.1735 6.53305 14.1142C 6.34375 14.0591 6.15865 13.97 5.95673 13.8556ZM 9.28847 14.805L 9.28847 13.8556C 9.49039 13.97 9.66707 14.0591 9.85637 14.1142C 10.0499 14.1735 10.2266 14.1989 10.3948 14.1989C 10.601 14.1989 10.765 14.1735 10.8828 14.1142C 11.0006 14.0591 11.0595 13.97 11.0595 13.8556C 11.0595 13.7836 11.0343 13.72 10.9796 13.6691C 10.9249 13.6225 10.8576 13.5759 10.7734 13.542C 10.6809 13.4996 10.5883 13.4699 10.4916 13.4402C 10.3956 13.4108 10.2997 13.3772 10.2037 13.3436L 10.2033 13.3435L 10.2029 13.3433L 10.2026 13.3432L 10.2022 13.3431L 10.2018 13.3429L 10.2013 13.3428C 10.0541 13.2834 9.91948 13.2241 9.80589 13.1563C 9.69231 13.0927 9.59555 13.0164 9.51984 12.9274C 9.44411 12.8426 9.38522 12.7409 9.34315 12.6307C 9.30109 12.5162 9.28426 12.3806 9.28426 12.2238C 9.28426 12.0119 9.33054 11.8296 9.41887 11.677C 9.51141 11.5244 9.63341 11.3973 9.78906 11.2998C 9.94051 11.2023 10.1172 11.1303 10.3149 11.0836C 10.5126 11.037 10.7188 11.0158 10.9333 11.0158C 11.0974 11.0158 11.2698 11.0285 11.4381 11.054C 11.6106 11.0794 11.7789 11.1175 11.9471 11.1684L 11.9471 12.0712C 11.8125 11.9864 11.6442 11.9229 11.476 11.8762C 11.3077 11.8338 11.1394 11.8127 10.9796 11.8127C 10.9039 11.8127 10.8323 11.8211 10.765 11.8338C 10.6977 11.8466 10.6388 11.8678 10.5841 11.8932C 10.5337 11.9186 10.4916 11.9525 10.4621 11.9949C 10.4327 12.0331 10.4201 12.0797 10.4201 12.1305C 10.4201 12.2026 10.4411 12.2619 10.4874 12.3086C 10.5294 12.3594 10.5883 12.4018 10.6599 12.44C 10.7314 12.4739 10.8113 12.5078 10.8954 12.5332L 10.8959 12.5334L 10.8973 12.5338L 10.8983 12.5341L 10.9006 12.5349C 10.9872 12.564 11.0738 12.5931 11.1562 12.6222C 11.3119 12.6773 11.4507 12.7366 11.5769 12.8002C 11.6989 12.8638 11.8083 12.9401 11.8966 13.0249C 11.9892 13.1139 12.0565 13.2156 12.1028 13.33C 12.1532 13.4445 12.1743 13.5843 12.1743 13.7454C 12.1743 13.97 12.128 14.1608 12.0312 14.3218C 11.9345 14.4829 11.8041 14.6101 11.6442 14.7118C 11.4844 14.8135 11.2993 14.8856 11.0889 14.9322C 10.8786 14.9746 10.6641 15 10.4369 15C 10.0246 14.9958 9.625 14.9364 9.28847 14.805ZM 9.69231 1.30969L 12.7085 4.34021L 9.69231 4.34021L 9.69231 1.30969ZM 4.30769 2.1701L 5.38461 2.1701L 5.38461 3.25516L 4.30769 3.25516L 4.30769 2.1701ZM 5.38461 4.34021L 4.30769 4.34021L 4.30769 5.42526L 5.38461 5.42526L 5.38461 4.34021ZM 4.30769 6.51031L 5.38461 6.51031L 5.38461 7.59537L 4.30769 7.59537L 4.30769 6.51031Z"/>
<path id="path1_fill" fill-rule="evenodd" d="M 0 0L 14 0L 14 14L 0 14L 0 0Z"/>
</defs>
</svg>
