<svg width="876" height="1001" viewBox="0 0 876 1001" version="1.1" xmlns="http://www.w3.org/2000/svg" xmlns:xlink="http://www.w3.org/1999/xlink">
<title>file-type-aspx</title>
<desc>Created using Figma</desc>
<g id="Canvas" transform="matrix(62.5625 0 0 62.5625 -77389.8 -5067.56)">
<rect x="1237" y="81" width="14" height="16" fill="#E5E5E5"/>
<g id="file-type-aspx">
<mask id="mask0_outline" mask-type="alpha">
<g id="Mask">
<use xlink:href="#path0_fill" transform="translate(1237 81)" fill="#FFFFFF"/>
</g>
</mask>
<g id="Mask" mask="url(#mask0_outline)">
<use xlink:href="#path0_fill" transform="translate(1237 81)"/>
</g>
<g id="&#226;&#134;&#170;&#240;&#159;&#142;&#168;Color" mask="url(#mask0_outline)">
<g id="Rectangle 3">
<use xlink:href="#path1_fill" transform="translate(1237 82)"/>
</g>
</g>
</g>
</g>
<defs>
<path id="path0_fill" fill-rule="evenodd" d="M 9.83508 0L 1.92151 0L 1.92151 4.57143L 3.01953 4.57143L 3.01953 1.14286L 8.50977 1.14286L 8.50977 5.71429L 12.9019 5.71429L 12.9019 14.8571L 9.60779 14.8571L 9.60779 16L 14 16L 14 4.33482L 9.83508 0ZM 0 11C 0 8.24554 2.15747 6 4.80396 6C 7.45032 6 9.60779 8.24554 9.60779 11C 9.60779 13.7545 7.45032 16 4.80396 16C 2.15747 16 0 13.7545 0 11ZM 4.80383 15C 4.82532 15 4.8468 14.9955 4.86816 14.9911C 5.10413 14.9464 5.49438 14.6071 5.67029 13L 3.95032 13C 4.12183 14.433 4.48218 15 4.80383 15ZM 3.86462 12C 3.85168 11.692 3.84314 11.3616 3.84314 11C 3.84314 10.6384 3.85168 10.308 3.8689 10L 5.73901 10C 5.7561 10.308 5.76465 10.6384 5.76465 11C 5.76465 11.3705 5.7561 11.6964 5.74329 12L 3.86462 12ZM 1.09802 10C 1.0166 10.3214 0.960815 10.6518 0.960815 11C 0.960815 11.3482 1.0166 11.6786 1.09802 12L 2.90808 12C 2.89526 11.683 2.88232 11.3571 2.88232 11C 2.88232 10.6429 2.89526 10.317 2.90808 10L 1.09802 10ZM 4.80396 7C 5.07422 7 5.45166 7.58036 5.64465 9L 3.95898 9C 4.13049 7.64732 4.47363 7 4.80396 7ZM 8.50977 10L 6.69971 10C 6.71252 10.317 6.72546 10.6473 6.72546 11C 6.72546 11.3304 6.71692 11.6652 6.70825 12L 8.50977 12C 8.59131 11.6786 8.64697 11.3482 8.64697 11C 8.64697 10.6518 8.59131 10.3214 8.50977 10ZM 8.11084 9L 6.61389 9C 6.52808 8.32143 6.40369 7.74554 6.23218 7.29464C 7.03003 7.625 7.68188 8.23214 8.11084 9ZM 2.98535 9C 3.0625 8.32143 3.18262 7.75 3.34985 7.30357C 2.56494 7.63839 1.92163 8.24107 1.49695 9L 2.98535 9ZM 1.49695 13L 2.98535 13C 3.05823 13.6786 3.17407 14.25 3.33704 14.6964C 2.5564 14.3571 1.91724 13.7545 1.49695 13ZM 6.63538 13C 6.57532 13.625 6.46387 14.2054 6.28796 14.6875C 7.06006 14.3527 7.69482 13.75 8.11084 13L 6.63538 13ZM 9.60779 1.37946L 9.60779 4.57143L 12.6746 4.57143L 9.60779 1.37946Z"/>
<path id="path1_fill" fill-rule="evenodd" d="M 0 0L 14 0L 14 14L 0 14L 0 0Z"/>
</defs>
</svg>
