<svg width="1001" height="1001" viewBox="0 0 1001 1001" version="1.1" xmlns="http://www.w3.org/2000/svg" xmlns:xlink="http://www.w3.org/1999/xlink">
<title>file-type-vbproj</title>
<desc>Created using Figma</desc>
<g id="Canvas" transform="matrix(71.5 0 0 71.5 -48977.5 -7579)">
<rect x="685" y="106" width="14" height="14" fill="#E5E5E5"/>
<g id="file-type-vbproj">
<mask id="mask0_outline" mask-type="alpha">
<g id="Mask">
<use xlink:href="#path0_fill" transform="translate(685 108)" fill="#FFFFFF"/>
</g>
</mask>
<g id="Mask" mask="url(#mask0_outline)">
<use xlink:href="#path0_fill" transform="translate(685 108)"/>
</g>
<g id="&#226;&#134;&#170;&#240;&#159;&#142;&#168;Color" mask="url(#mask0_outline)">
<g id="Rectangle 3">
<use xlink:href="#path1_fill" transform="translate(685 106)"/>
</g>
</g>
</g>
</g>
<defs>
<path id="path0_fill" fill-rule="evenodd" d="M 14 11L 0 11L 0 0L 14 0L 14 11ZM 4.91016 8.89453L 7.08203 2.59375L 5.59766 2.59375L 4.29297 6.96094C 4.22266 7.19531 4.17578 7.41016 4.15625 7.60938L 4.12891 7.60938C 4.11328 7.42578 4.07031 7.21484 4 6.98047L 2.6875 2.59375L 1.15625 2.59375L 3.30078 8.89453L 4.91016 8.89453ZM 7.83594 2.59375L 7.83594 8.89453L 10.2578 8.89453C 10.9727 8.89453 11.5352 8.72656 11.9492 8.38672C 12.3633 8.05078 12.5703 7.58984 12.5703 7.01562C 12.5703 6.61719 12.4336 6.28516 12.168 6.00781C 11.8984 5.73438 11.543 5.56641 11.0938 5.51172L 11.0938 5.49219C 11.4492 5.39453 11.7422 5.21875 11.9727 4.96094C 12.2031 4.70703 12.3203 4.41016 12.3203 4.07031C 12.3203 3.60156 12.1289 3.23828 11.7539 2.98047C 11.375 2.72266 10.832 2.59375 10.1289 2.59375L 7.83594 2.59375ZM 9.25781 3.64062L 9.25781 5.13281L 9.87891 5.13281C 10.1719 5.13281 10.4062 5.0625 10.5742 4.92188C 10.7422 4.77734 10.8242 4.58203 10.8242 4.33203C 10.8242 3.87109 10.4805 3.64062 9.78906 3.64062L 9.25781 3.64062ZM 9.25781 7.84766L 9.25781 6.1875L 10.0352 6.1875C 10.3633 6.1875 10.6172 6.25781 10.8008 6.40234C 10.9844 6.54688 11.0742 6.74219 11.0742 6.99609C 11.0742 7.25781 10.9844 7.46875 10.7969 7.62109C 10.6094 7.77344 10.3555 7.84766 10.0273 7.84766L 9.25781 7.84766ZM 13 10L 1 10L 1 1L 13 1L 13 10Z"/>
<path id="path1_fill" fill-rule="evenodd" d="M 0 0L 14 0L 14 14L 0 14L 0 0Z"/>
</defs>
</svg>
