<svg width="1000" height="1000" viewBox="0 0 1000 1000" version="1.1" xmlns="http://www.w3.org/2000/svg" xmlns:xlink="http://www.w3.org/1999/xlink">
<title>file-code</title>
<desc>Created using Figma</desc>
<g id="Canvas" transform="matrix(71.4286 0 0 71.4286 -76357.1 -5857.14)">
<rect x="1069" y="82" width="14" height="14" fill="#E5E5E5"/>
<g id="file-code">
<mask id="mask0_outline" mask-type="alpha">
<g id="Mask">
<use xlink:href="#path0_fill" transform="translate(1071 82)" fill="#FFFFFF"/>
</g>
</mask>
<g id="Mask" mask="url(#mask0_outline)">
<use xlink:href="#path0_fill" transform="translate(1071 82)"/>
</g>
<g id="&#226;&#134;&#170;&#240;&#159;&#142;&#168;Color" mask="url(#mask0_outline)">
<g id="Rectangle 3">
<use xlink:href="#path1_fill" transform="translate(1069 82)"/>
</g>
</g>
</g>
</g>
<defs>
<path id="path0_fill" fill-rule="evenodd" d="M 7.20703 0L 0 0L 0 14L 11 14L 11 3.79297L 7.20703 0ZM 7 1.20703L 9.79297 4L 7 4L 7 1.20703ZM 1 13L 10 13L 10 5L 6 5L 6 1L 1 1L 1 13ZM 3.64844 10.3555L 1.29297 8L 3.64844 5.64453L 4.35547 6.35156L 2.70703 8L 4.35547 9.64844L 3.64844 10.3555ZM 6.64844 9.64844L 7.35547 10.3555L 9.70703 8L 7.35156 5.64453L 6.64453 6.35156L 8.29297 8L 6.64844 9.64844Z"/>
<path id="path1_fill" fill-rule="evenodd" d="M 0 0L 14 0L 14 14L 0 14L 0 0Z"/>
</defs>
</svg>
