<svg width="1001" height="1001" viewBox="0 0 1001 1001" version="1.1" xmlns="http://www.w3.org/2000/svg" xmlns:xlink="http://www.w3.org/1999/xlink">
<title>file-type-python</title>
<desc>Created using Figma</desc>
<g id="Canvas" transform="matrix(71.5 0 0 71.5 -35249.5 -7579)">
<rect x="493" y="106" width="14" height="14" fill="#E5E5E5"/>
<g id="file-type-python">
<mask id="mask0_outline" mask-type="alpha">
<g id="Mask">
<use xlink:href="#path0_fill" transform="translate(493 109)" fill="#FFFFFF"/>
</g>
</mask>
<g id="Mask" mask="url(#mask0_outline)">
<use xlink:href="#path0_fill" transform="translate(493 109)"/>
</g>
<g id="&#226;&#134;&#170;&#240;&#159;&#142;&#168;Color" mask="url(#mask0_outline)">
<g id="Rectangle 3">
<use xlink:href="#path1_fill" transform="translate(493 106)"/>
</g>
</g>
</g>
</g>
<defs>
<path id="path0_fill" fill-rule="evenodd" d="M 1.93686 5.89803L 1.93686 9L 0 9L 0 0L 3.03061 0C 5.19531 0 6.27539 0.955925 6.27539 2.86777C 6.27539 3.77111 5.96548 4.50239 5.3457 5.06161C 4.72592 5.62082 3.89194 5.89803 2.85742 5.89803L 1.93686 5.89803ZM 1.93686 1.55338L 1.93686 4.359L 2.69336 4.359C 3.72333 4.359 4.23828 3.8906 4.23828 2.94424C 4.23828 2.017 3.72333 1.55338 2.69336 1.55338L 1.93686 1.55338ZM 11.2064 5.79766L 14 0L 11.9538 0L 10.5501 3.37918C 10.4772 3.55603 10.4134 3.79023 10.3633 4.09135L 10.3405 4.09135C 10.2311 3.66596 10.1673 3.4222 10.14 3.35529L 8.75912 0L 6.54883 0L 9.27408 5.8359L 9.27408 9L 11.2064 9L 11.2064 5.79766Z"/>
<path id="path1_fill" fill-rule="evenodd" d="M 0 0L 14 0L 14 14L 0 14L 0 0Z"/>
</defs>
</svg>
