<svg width="1000" height="1000" viewBox="0 0 1000 1000" version="1.1" xmlns="http://www.w3.org/2000/svg" xmlns:xlink="http://www.w3.org/1999/xlink">
<title>file-type-vcxproj</title>
<desc>Created using Figma</desc>
<g id="Canvas" transform="matrix(71.4286 0 0 71.4286 -50642.9 -7571.43)">
<rect x="709" y="106" width="14" height="14" fill="#E5E5E5"/>
<g id="file-type-vcxproj">
<mask id="mask0_outline" mask-type="alpha">
<g id="Mask">
<use xlink:href="#path0_fill" transform="translate(709 108)" fill="#FFFFFF"/>
</g>
</mask>
<g id="Mask" mask="url(#mask0_outline)">
<use xlink:href="#path0_fill" transform="translate(709 108)"/>
</g>
<g id="&#226;&#134;&#170;&#240;&#159;&#142;&#168;Color" mask="url(#mask0_outline)">
<g id="Rectangle 3">
<use xlink:href="#path1_fill" transform="translate(709 106)" fill="#333333"/>
</g>
</g>
</g>
</g>
<defs>
<path id="path0_fill" fill-rule="evenodd" d="M 14 0L 14 11L 0 11L 0 0L 14 0ZM 2 5L 4 5L 4 7L 5 7L 5 5L 7 5L 7 4L 5 4L 5 2L 4 2L 4 4L 2 4L 2 5ZM 7 7L 7 6L 9 6L 9 4L 10 4L 10 6L 12 6L 12 7L 10 7L 10 9L 9 9L 9 7L 7 7ZM 1 1L 13 1L 13 10L 1 10L 1 1Z"/>
<path id="path1_fill" fill-rule="evenodd" d="M 0 0L 14 0L 14 14L 0 14L 0 0Z"/>
</defs>
</svg>
