<svg width="1000" height="1000" viewBox="0 0 1000 1000" version="1.1" xmlns="http://www.w3.org/2000/svg" xmlns:xlink="http://www.w3.org/1999/xlink">
<title>file-type-js</title>
<desc>Created using Figma</desc>
<g id="Canvas" transform="matrix(71.4286 0 0 71.4286 -21500 -7571.43)">
<rect x="301" y="106" width="14" height="14" fill="#E5E5E5"/>
<g id="file-type-js">
<mask id="mask0_outline" mask-type="alpha">
<g id="Mask">
<use xlink:href="#path0_fill" transform="translate(301 108)" fill="#FFFFFF"/>
</g>
</mask>
<g id="Mask" mask="url(#mask0_outline)">
<use xlink:href="#path0_fill" transform="translate(301 108)"/>
</g>
<g id="&#226;&#134;&#170;&#240;&#159;&#142;&#168;Color" mask="url(#mask0_outline)">
<g id="Rectangle 3">
<use xlink:href="#path1_fill" transform="translate(301 106)" fill="#333333"/>
</g>
</g>
</g>
</g>
<defs>
<path id="path0_fill" fill-rule="evenodd" d="M 6.99525 8.03581L 6.99525 10.4091C 7.36618 10.6061 7.80843 10.7538 8.31726 10.8523C 8.8261 10.9508 9.36346 11 9.92461 11C 10.4715 11 10.9946 10.9458 11.4891 10.8375C 11.9837 10.7292 12.4164 10.547 12.7874 10.3008C 13.1631 10.0497 13.4579 9.72471 13.6766 9.32095C 13.8906 8.91719 14 8.41988 14 7.82408C 14 7.39571 13.9382 7.02148 13.8145 6.69651C 13.6909 6.37153 13.5102 6.08595 13.2772 5.8299C 13.0442 5.57878 12.7636 5.35229 12.4355 5.15041C 12.1073 4.95345 11.7412 4.76141 11.3275 4.58415C 11.0279 4.45613 10.7568 4.33304 10.519 4.20994C 10.2813 4.09177 10.0768 3.96375 9.91034 3.84064C 9.7439 3.71262 9.61549 3.57968 9.52515 3.44181C 9.43478 3.29902 9.38724 3.14145 9.38724 2.96419C 9.38724 2.79678 9.43004 2.64906 9.51088 2.52104C 9.59172 2.38809 9.70586 2.27484 9.85327 2.18129C 10.0007 2.08774 10.1814 2.01388 10.4001 1.96464C 10.6141 1.9154 10.8519 1.88586 11.1135 1.88586C 11.3037 1.88586 11.5082 1.90063 11.7174 1.93017C 11.9314 1.95972 12.1454 2.00895 12.3594 2.06804C 12.5734 2.13205 12.7826 2.20591 12.9871 2.29946C 13.1868 2.39302 13.377 2.50626 13.5482 2.62936L 13.5482 0.413605C 13.2011 0.270813 12.8207 0.167412 12.4069 0.103401C 11.9932 0.0344696 11.5177 0 10.9851 0C 10.4382 0 9.92461 0.0640106 9.43954 0.187111C 8.94974 0.305283 8.52174 0.497314 8.15558 0.753357C 7.78465 1.0094 7.48982 1.3393 7.27582 1.73322C 7.06183 2.13205 6.95245 2.60966 6.95245 3.16115C 6.95245 3.87019 7.15218 4.4709 7.54213 4.97314C 7.93683 5.47046 8.53601 5.89391 9.33968 6.23859C 9.63452 6.36661 9.92935 6.49463 10.2194 6.6325C 10.4905 6.76052 10.7235 6.89346 10.9232 7.03133C 11.123 7.1692 11.2799 7.32185 11.394 7.48434C 11.5082 7.64682 11.5652 7.83393 11.5652 8.04073C 11.5652 8.19337 11.5272 8.33617 11.4606 8.46912C 11.3845 8.59714 11.2751 8.71039 11.1325 8.80886C 10.9851 8.90734 10.8044 8.9812 10.5904 9.03536C 10.3716 9.08952 10.1148 9.11414 9.82474 9.11414C 9.33017 9.11414 8.8356 9.02551 8.35056 8.84333C 7.86075 8.66607 7.41373 8.39526 6.99525 8.03581ZM 4.26562 9.8675C 4.90285 9.10922 5.22147 8.01611 5.22147 6.59311L 5.22147 0.182182L 2.91508 0.182182L 2.91508 6.49955C 2.91508 8.11951 2.38722 8.93196 1.33153 8.93196C 0.841705 8.93196 0.394699 8.77439 0 8.46419L 0 10.7095C 0.456528 10.9015 0.955841 11 1.49796 11C 2.70584 11 3.6284 10.6209 4.26562 9.8675Z"/>
<path id="path1_fill" fill-rule="evenodd" d="M 0 0L 14 0L 14 14L 0 14L 0 0Z"/>
</defs>
</svg>
