<svg width="1000" height="1000" viewBox="0 0 1000 1000" version="1.1" xmlns="http://www.w3.org/2000/svg" xmlns:xlink="http://www.w3.org/1999/xlink">
<title>file-content</title>
<desc>Created using Figma</desc>
<g id="Canvas" transform="matrix(71.4286 0 0 71.4286 -79785.7 -5857.14)">
<rect x="1117" y="82" width="14" height="14" fill="#E5E5E5"/>
<g id="file-content">
<mask id="mask0_outline" mask-type="alpha">
<g id="Mask">
<use xlink:href="#path0_fill" transform="translate(1119 82)" fill="#FFFFFF"/>
</g>
</mask>
<g id="Mask" mask="url(#mask0_outline)">
<use xlink:href="#path0_fill" transform="translate(1119 82)"/>
</g>
<g id="&#226;&#134;&#170;&#240;&#159;&#142;&#168;Color" mask="url(#mask0_outline)">
<g id="Rectangle 3">
<use xlink:href="#path1_fill" transform="translate(1117 82)"/>
</g>
</g>
</g>
</g>
<defs>
<path id="path0_fill" fill-rule="evenodd" d="M 7.20703 0L 0 0L 0 14L 11 14L 11 3.79297L 7.20703 0ZM 7 1.20703L 9.79297 4L 7 4L 7 1.20703ZM 1 13L 10 13L 10 5L 6 5L 6 1L 1 1L 1 13ZM 8 7L 3 7L 3 6L 8 6L 8 7ZM 3 9L 8 9L 8 8L 3 8L 3 9ZM 6 11L 3 11L 3 10L 6 10L 6 11ZM 3 5L 5 5L 5 4L 3 4L 3 5Z"/>
<path id="path1_fill" fill-rule="evenodd" d="M 0 0L 14 0L 14 14L 0 14L 0 0Z"/>
</defs>
</svg>
