<svg width="935" height="1001" viewBox="0 0 935 1001" version="1.1" xmlns="http://www.w3.org/2000/svg" xmlns:xlink="http://www.w3.org/1999/xlink">
<title>file-type-sass</title>
<desc>Created using Figma</desc>
<g id="Canvas" transform="matrix(66.7333 0 0 66.7333 -34501.1 -7073.73)">
<rect x="517" y="106" width="14" height="15" fill="#E5E5E5"/>
<g id="file-type-sass">
<mask id="mask0_outline" mask-type="alpha">
<g id="Mask">
<use xlink:href="#path0_fill" transform="translate(517 106)" fill="#FFFFFF"/>
</g>
</mask>
<g id="Mask" mask="url(#mask0_outline)">
<use xlink:href="#path0_fill" transform="translate(517 106)"/>
</g>
<g id="&#226;&#134;&#170;&#240;&#159;&#142;&#168;Color" mask="url(#mask0_outline)">
<g id="Rectangle 3">
<use xlink:href="#path1_fill" transform="translate(517 106)"/>
</g>
</g>
</g>
</g>
<defs>
<path id="path0_fill" fill-rule="evenodd" d="M 9.31152 0L 1.76331 0L 1.76331 8.68042L 2.81064 8.68042L 2.81064 1.08505L 8.04736 1.08505L 8.04736 5.42526L 12.2367 5.42526L 12.2367 8.68042L 13.2841 8.68042L 13.2841 4.11557L 9.31152 0ZM 4.9053 2.1701L 3.85797 2.1701L 3.85797 3.25516L 4.9053 3.25516L 4.9053 2.1701ZM 4.9053 5.42526L 3.85797 5.42526L 3.85797 4.34021L 4.9053 4.34021L 4.9053 5.42526ZM 0.0204468 13.5165L 0.0204468 14.7033C 0.204559 14.8008 0.425476 14.8771 0.679138 14.9237C 0.9328 14.9746 1.20282 15 1.48511 15C 1.75922 15 2.02103 14.9703 2.26651 14.9152C 2.51199 14.8644 2.72882 14.7711 2.91699 14.6482C 3.1011 14.521 3.24838 14.36 3.35886 14.1565C 3.46524 13.9573 3.52249 13.7073 3.52249 13.4106C 3.52249 13.1944 3.48978 13.0079 3.42841 12.8468C 3.36703 12.6815 3.27704 12.5374 3.15839 12.4145C 3.04382 12.2874 2.90063 12.1729 2.737 12.0754C 2.57336 11.9737 2.38925 11.8805 2.18469 11.7915C 2.03741 11.7279 1.9024 11.6643 1.77966 11.6007C 1.66101 11.5414 1.55875 11.4821 1.47693 11.4185C 1.39508 11.3549 1.32962 11.2871 1.28464 11.215C 1.23962 11.1472 1.21509 11.0667 1.21509 10.9777C 1.21509 10.8971 1.23553 10.8209 1.27646 10.7573C 1.31735 10.6937 1.37463 10.6344 1.44827 10.5877C 1.52191 10.5411 1.61194 10.503 1.72238 10.4775C 1.82877 10.4521 1.94739 10.4394 2.07831 10.4394C 2.17242 10.4394 2.27469 10.4479 2.38107 10.4606C 2.48743 10.4775 2.59381 10.4987 2.70016 10.5326C 2.81064 10.5623 2.9129 10.6004 3.0152 10.6471C 3.11746 10.6937 3.21158 10.7488 3.29749 10.8124L 3.29749 9.70189C 3.12155 9.63407 2.92929 9.58321 2.72473 9.54931C 2.51608 9.5154 2.28287 9.49844 2.01285 9.49844C 1.74283 9.49844 1.48511 9.52811 1.23962 9.58746C 0.99826 9.65103 0.781403 9.74428 0.597321 9.87143C 0.413208 10.0028 0.26593 10.1639 0.159546 10.3631C 0.0531921 10.5623 0 10.7997 0 11.0794C 0 11.4312 0.098175 11.7321 0.294556 11.9822C 0.490936 12.2323 0.789581 12.4442 1.19052 12.618C 1.3501 12.6858 1.49329 12.7494 1.63239 12.8129C 1.7674 12.8765 1.88605 12.9443 1.98422 13.0121C 2.0824 13.0842 2.16013 13.1605 2.21741 13.241C 2.27469 13.3216 2.30334 13.4148 2.30334 13.5165C 2.30334 13.5928 2.28696 13.6649 2.25015 13.7327C 2.21332 13.7963 2.16013 13.8556 2.08649 13.9022C 2.01285 13.9489 1.92285 13.987 1.81647 14.0167C 1.70602 14.0421 1.57919 14.0548 1.436 14.0548C 1.18643 14.0548 0.940979 14.0124 0.695496 13.9192C 0.454132 13.8302 0.229095 13.6945 0.0204468 13.5165ZM 6.23495 14.9068L 7.30273 14.9068L 7.30273 12.6349C 7.30273 11.5541 6.77908 11.0158 5.73584 11.0158C 5.5108 11.0158 5.26126 11.0497 4.99124 11.1133C 4.71713 11.1769 4.50031 11.2489 4.34482 11.3337L 4.34482 12.2153C 4.73758 11.9483 5.15079 11.8127 5.58853 11.8127C 6.02222 11.8127 6.23904 12.0203 6.23904 12.4357L 5.24487 12.5714C 4.4021 12.6858 3.98071 13.1139 3.98071 13.8471C 3.98071 14.1989 4.08298 14.4744 4.28754 14.6863C 4.4921 14.894 4.77029 15 5.12625 15C 5.60901 15 5.97311 14.7881 6.2186 14.36L 6.23495 14.36L 6.23495 14.9068ZM 6.24313 13.3639L 6.24313 13.1054L 5.57626 13.1944C 5.20807 13.2453 5.02396 13.4191 5.02396 13.7115C 5.02396 13.8471 5.06897 13.9531 5.15897 14.0421C 5.24896 14.1269 5.36761 14.1693 5.52307 14.1693C 5.73581 14.1693 5.90765 14.093 6.04266 13.9404C 6.17358 13.7878 6.24313 13.5971 6.24313 13.3639ZM 7.96143 13.8556L 7.96143 14.805C 8.30508 14.9364 8.67737 15 9.07831 15C 9.29922 15 9.51199 14.9746 9.71655 14.9322C 9.92111 14.8856 10.1011 14.8135 10.2566 14.7118C 10.412 14.6101 10.5389 14.4829 10.633 14.3218C 10.7271 14.1608 10.7721 13.97 10.7721 13.7454C 10.7721 13.5843 10.7516 13.4445 10.7025 13.33C 10.6575 13.2156 10.592 13.1139 10.502 13.0249C 10.4161 12.9401 10.3098 12.8638 10.1911 12.8002C 10.0684 12.7366 9.93338 12.6773 9.78201 12.6222C 9.70059 12.5927 9.61517 12.5632 9.52972 12.5337L 9.52835 12.5332C 9.44653 12.5078 9.3688 12.4739 9.29922 12.44C 9.22968 12.4018 9.17242 12.3594 9.1315 12.3086C 9.08649 12.2619 9.06604 12.2026 9.06604 12.1305C 9.06604 12.0797 9.07831 12.0331 9.10696 11.9949C 9.13559 11.9525 9.17651 11.9186 9.22559 11.8932C 9.27878 11.8678 9.33606 11.8466 9.40152 11.8338C 9.46698 11.8211 9.53653 11.8127 9.61017 11.8127C 9.76562 11.8127 9.92929 11.8338 10.0929 11.8762C 10.2525 11.9186 10.408 11.9864 10.5511 12.0712L 10.5511 11.1684C 10.3875 11.1175 10.2238 11.0794 10.0561 11.054C 9.89246 11.0285 9.72473 11.0158 9.56516 11.0158C 9.35651 11.0158 9.15604 11.037 8.96378 11.0836C 8.77148 11.1303 8.59964 11.2023 8.45236 11.2998C 8.30099 11.3973 8.18234 11.5244 8.09235 11.677C 8.00644 11.8296 7.96143 12.0119 7.96143 12.2238C 7.96143 12.3806 7.97778 12.5162 8.01871 12.6307C 8.0596 12.7409 8.11688 12.8426 8.19052 12.9274C 8.26416 13.0164 8.35828 13.0927 8.46872 13.1563C 8.57919 13.2241 8.71011 13.2834 8.8533 13.3428C 8.94739 13.3767 9.0415 13.4106 9.13559 13.4402C 9.2338 13.4699 9.32379 13.5038 9.4097 13.542C 9.49152 13.5801 9.55698 13.6225 9.61017 13.6691C 9.66336 13.72 9.6879 13.7836 9.6879 13.8556C 9.6879 13.9743 9.63062 14.0591 9.51608 14.1142C 9.40152 14.1735 9.24197 14.2032 9.0415 14.2032C 8.87784 14.2032 8.70193 14.1735 8.51782 14.1142C 8.32962 14.0591 8.14554 13.9743 7.96143 13.8556ZM 11.1853 14.805L 11.1853 13.8556C 11.3694 13.9743 11.5576 14.0591 11.7417 14.1142C 11.9258 14.1735 12.1017 14.2032 12.2654 14.2032C 12.4658 14.2032 12.6254 14.1735 12.7399 14.1142C 12.8545 14.0591 12.9158 13.9743 12.9158 13.8556C 12.9158 13.7836 12.8872 13.72 12.834 13.6691C 12.7808 13.6225 12.7154 13.5801 12.6335 13.542C 12.5517 13.5038 12.4617 13.4699 12.3635 13.4402C 12.2654 13.4106 12.1712 13.3767 12.0812 13.3428C 11.934 13.2834 11.8071 13.2241 11.6967 13.1563C 11.5821 13.0927 11.4921 13.0164 11.4144 12.9274C 11.3407 12.8426 11.2834 12.7409 11.2426 12.6307C 11.2057 12.5162 11.1853 12.3806 11.1853 12.2238C 11.1853 12.0119 11.2303 11.8296 11.3203 11.677C 11.4103 11.5244 11.5289 11.3973 11.6762 11.2998C 11.8276 11.2023 11.9953 11.1303 12.1876 11.0836C 12.3799 11.037 12.5804 11.0158 12.789 11.0158C 12.9527 11.0158 13.1163 11.0285 13.2841 11.054C 13.4477 11.0794 13.6154 11.1175 13.775 11.1684L 13.775 12.0712C 13.6318 11.9864 13.4763 11.9186 13.3168 11.8762C 13.1531 11.8338 12.9936 11.8127 12.834 11.8127C 12.7604 11.8127 12.6908 11.8211 12.6254 11.8338C 12.5599 11.8466 12.5026 11.8678 12.4535 11.8932C 12.4004 11.9186 12.3635 11.9525 12.3349 11.9949C 12.3062 12.0331 12.2899 12.0797 12.2899 12.1305C 12.2899 12.2026 12.3144 12.2619 12.3553 12.3086C 12.3963 12.3594 12.4535 12.4018 12.5231 12.44C 12.5927 12.4739 12.6704 12.5078 12.7563 12.5332C 12.7955 12.5474 12.8356 12.5616 12.8758 12.5758L 12.8815 12.5779C 12.9233 12.5927 12.9651 12.6074 13.0059 12.6222C 13.1572 12.6773 13.2922 12.7366 13.4149 12.8002C 13.5377 12.8638 13.64 12.9401 13.73 13.0249C 13.8159 13.1139 13.8813 13.2156 13.9305 13.33C 13.9755 13.4445 14 13.5843 14 13.7454C 14 13.97 13.9509 14.1608 13.8568 14.3218C 13.7627 14.4829 13.6359 14.6101 13.4804 14.7118C 13.325 14.8135 13.145 14.8856 12.9404 14.9322C 12.7358 14.9746 12.5231 15 12.3062 15C 11.9012 15 11.5289 14.9364 11.1853 14.805ZM 4.9053 7.59537L 3.85797 7.59537L 3.85797 6.51031L 4.9053 6.51031L 4.9053 7.59537ZM 9.0947 1.30969L 9.0947 4.34021L 12.0199 4.34021L 9.0947 1.30969Z"/>
<path id="path1_fill" fill-rule="evenodd" d="M 0 0L 14 0L 14 14L 0 14L 0 0Z"/>
</defs>
</svg>
