<svg width="1001" height="1001" viewBox="0 0 1001 1001" version="1.1" xmlns="http://www.w3.org/2000/svg" xmlns:xlink="http://www.w3.org/1999/xlink">
<title>file-type-cmd</title>
<desc>Created using Figma</desc>
<g id="Canvas" transform="matrix(71.5 0 0 71.5 -90161.5 -5863)">
<rect x="1261" y="82" width="14" height="14" fill="#E5E5E5"/>
<g id="file-type-cmd">
<mask id="mask0_outline" mask-type="alpha">
<g id="Mask">
<use xlink:href="#path0_fill" transform="translate(1261 83)" fill="#FFFFFF"/>
</g>
</mask>
<g id="Mask" mask="url(#mask0_outline)">
<use xlink:href="#path0_fill" transform="translate(1261 83)"/>
</g>
<g id="&#226;&#134;&#170;&#240;&#159;&#142;&#168;Color" mask="url(#mask0_outline)">
<g id="Rectangle 3">
<use xlink:href="#path1_fill" transform="translate(1261 82)"/>
</g>
</g>
</g>
</g>
<defs>
<path id="path0_fill" fill-rule="evenodd" d="M 0 0L 0 12L 14 12L 14 0L 0 0ZM 1 11L 1 3L 13 3L 13 11L 1 11ZM 1 2L 13 2L 13 1L 1 1L 1 2ZM 11.0938 9L 9.00781 4L 9.93359 4L 12.0195 9L 11.0938 9ZM 4.71484 3.98047C 3.21484 3.98047 2.16406 5.03516 2.16406 6.54297C 2.16406 8.04688 3.11328 9.01953 4.58594 9.01953C 5.1875 9.01953 5.64453 8.90234 5.87109 8.78906L 5.94141 8.75391L 5.76562 8.07422L 5.65625 8.12891C 5.42188 8.24219 5.05859 8.3125 4.71094 8.3125C 3.64453 8.3125 3.00781 7.64453 3.00781 6.52344C 3.00781 5.375 3.65234 4.6875 4.73828 4.6875C 5.07422 4.6875 5.39844 4.75391 5.64062 4.87109L 5.74609 4.92578L 5.94922 4.23828L 5.87891 4.19922C 5.77734 4.14844 5.40234 3.98047 4.71484 3.98047ZM 8 6L 7 6L 7 5L 8 5L 8 6ZM 7 8L 8 8L 8 7L 7 7L 7 8Z"/>
<path id="path1_fill" fill-rule="evenodd" d="M 0 0L 14 0L 14 14L 0 14L 0 0Z"/>
</defs>
</svg>
