<svg width="1092" height="1001" viewBox="0 0 1092 1001" version="1.1" xmlns="http://www.w3.org/2000/svg" xmlns:xlink="http://www.w3.org/1999/xlink">
<title>financial</title>
<desc>Created using Figma</desc>
<g id="Canvas" transform="matrix(91 0 0 91 -47047 -25025)">
<g id="financial">
<use xlink:href="#path0_fill" transform="translate(517 274)"/>
</g>
</g>
<defs>
<path id="path0_fill" d="M 10.5 5.25L 11.25 5.25L 11.25 12L 10.5 12L 10.5 5.25ZM 3 7.875L 3.75 7.125L 3.75 12L 3 12L 3 7.875ZM 1.5 9.375L 2.25 8.625L 2.25 12L 1.5 12L 1.5 9.375ZM 4.5 6.375L 5.25 5.625L 5.25 12L 4.5 12L 4.5 6.375ZM 6 5.625L 6.75 6.375L 6.75 11.9941L 6 11.9941L 6 5.625ZM 7.875 7.5L 8.25 7.125L 8.25 12L 7.5 12L 7.5 7.125L 7.875 7.5ZM 9 6.375L 9.75 5.625L 9.75 12L 9 12L 9 6.375ZM 0 10.875L 0.75 10.125L 0.75 12L 0 12L 0 10.875ZM 12 1.5L 12 4.5L 11.25 4.5L 11.25 2.7832L 7.875 6.15234L 5.625 3.90234L 0 9.5332L 0 8.4668L 5.625 2.84766L 7.875 5.09766L 10.7168 2.25L 9 2.25L 9 1.5L 12 1.5Z"/>
</defs>
</svg>
