<svg width="1001" height="1001" viewBox="0 0 1001 1001" version="1.1" xmlns="http://www.w3.org/2000/svg" xmlns:xlink="http://www.w3.org/1999/xlink">
<title>folder-plan</title>
<desc>Created using Figma</desc>
<g id="Canvas" transform="matrix(71.5 0 0 71.5 -60989.5 -7579)">
<rect x="853" y="106" width="14" height="14" fill="#E5E5E5"/>
<g id="folder-plan">
<mask id="mask0_outline" mask-type="alpha">
<g id="Mask">
<use xlink:href="#path0_fill" transform="translate(853 107)" fill="#FFFFFF"/>
</g>
</mask>
<g id="Mask" mask="url(#mask0_outline)">
<use xlink:href="#path0_fill" transform="translate(853 107)"/>
</g>
<g id="&#226;&#134;&#170;&#240;&#159;&#142;&#168;Color" mask="url(#mask0_outline)">
<g id="Rectangle 3">
<use xlink:href="#path1_fill" transform="translate(853 106)"/>
</g>
</g>
</g>
</g>
<defs>
<path id="path0_fill" fill-rule="evenodd" d="M 0 12L 6 12L 6 3L 14 3L 14 2L 8.1875 2L 6.20703 0L 0 0L 0 12ZM 7 4L 14 4L 14 13L 7 13L 7 4ZM 8 5L 13 5L 13 12L 8 12L 8 5ZM 9 7L 12 7L 12 6L 9 6L 9 7ZM 12 9L 9 9L 9 8L 12 8L 12 9ZM 9 11L 12 11L 12 10L 9 10L 9 11Z"/>
<path id="path1_fill" fill-rule="evenodd" d="M 0 0L 14 0L 14 14L 0 14L 0 0Z"/>
</defs>
</svg>
