<svg width="1001" height="1001" viewBox="0 0 1001 1001" version="1.1" xmlns="http://www.w3.org/2000/svg" xmlns:xlink="http://www.w3.org/1999/xlink">
<title>folder-query</title>
<desc>Created using Figma</desc>
<g id="Canvas" transform="matrix(71.5 0 0 71.5 -62705.5 -7579)">
<rect x="877" y="106" width="14" height="14" fill="#E5E5E5"/>
<g id="folder-query">
<mask id="mask0_outline" mask-type="alpha">
<g id="Mask">
<use xlink:href="#path0_fill" transform="translate(877 107)" fill="#FFFFFF"/>
</g>
</mask>
<g id="Mask" mask="url(#mask0_outline)">
<use xlink:href="#path0_fill" transform="translate(877 107)"/>
</g>
<g id="&#226;&#134;&#170;&#240;&#159;&#142;&#168;Color" mask="url(#mask0_outline)">
<g id="Rectangle 3">
<use xlink:href="#path1_fill" transform="translate(877 106)"/>
</g>
</g>
</g>
</g>
<defs>
<path id="path0_fill" fill-rule="evenodd" d="M 4 5L 4 12L 0 12L 0 0L 6.20703 0L 8.1875 2L 14 2L 14 7L 12 7L 12 5L 4 5ZM 14 8L 14 13L 8 13L 8 11L 5 11L 5 6L 11 6L 11 8L 14 8ZM 8 8L 8 10L 6 10L 6 7L 10 7L 10 8L 8 8ZM 9 9L 9 10L 10 10L 10 9L 9 9ZM 11 9L 13 9L 13 12L 9 12L 9 11L 11 11L 11 9Z"/>
<path id="path1_fill" fill-rule="evenodd" d="M 0 0L 14 0L 14 14L 0 14L 0 0Z"/>
</defs>
</svg>
