<svg width="1000" height="1000" viewBox="0 0 1000 1000" version="1.1" xmlns="http://www.w3.org/2000/svg" xmlns:xlink="http://www.w3.org/1999/xlink">
<title>format-list-unordered</title>
<desc>Created using Figma</desc>
<g id="Canvas" transform="matrix(71.4286 0 0 71.4286 -79785.7 -7571.43)">
<rect x="1117" y="106" width="14" height="14" fill="#E5E5E5"/>
<g id="format-list-unordered">
<mask id="mask0_outline" mask-type="alpha">
<g id="Mask">
<use xlink:href="#path0_fill" transform="translate(1117 107)" fill="#FFFFFF"/>
</g>
</mask>
<g id="Mask" mask="url(#mask0_outline)">
<use xlink:href="#path0_fill" transform="translate(1117 107)"/>
</g>
<g id="&#226;&#134;&#170;&#240;&#159;&#142;&#168;Color" mask="url(#mask0_outline)">
<g id="Rectangle 3">
<use xlink:href="#path1_fill" transform="translate(1117 106)"/>
</g>
</g>
</g>
</g>
<defs>
<path id="path0_fill" fill-rule="evenodd" d="M 0 0L 3 0L 3 3L 0 3L 0 0ZM 5 2L 14 2L 14 1L 5 1L 5 2ZM 5 6L 14 6L 14 7L 5 7L 5 6ZM 14 11L 5 11L 5 12L 14 12L 14 11ZM 3 5L 0 5L 0 8L 3 8L 3 5ZM 0 10L 3 10L 3 13L 0 13L 0 10Z"/>
<path id="path1_fill" fill-rule="evenodd" d="M 0 0L 14 0L 14 14L 0 14L 0 0Z"/>
</defs>
</svg>
