<svg width="1000" height="1000" viewBox="0 0 1000 1000" version="1.1" xmlns="http://www.w3.org/2000/svg" xmlns:xlink="http://www.w3.org/1999/xlink">
<title>format-clear</title>
<desc>Created using Figma</desc>
<g id="Canvas" transform="matrix(71.4286 0 0 71.4286 -66071.4 -7571.43)">
<rect x="925" y="106" width="14" height="14" fill="#E5E5E5"/>
<g id="format-clear">
<mask id="mask0_outline" mask-type="alpha">
<g id="Mask">
<use xlink:href="#path0_fill" transform="translate(925 107)" fill="#FFFFFF"/>
</g>
</mask>
<g id="Mask" mask="url(#mask0_outline)">
<use xlink:href="#path0_fill" transform="translate(925 107)"/>
</g>
<g id="&#226;&#134;&#170;&#240;&#159;&#142;&#168;Color" mask="url(#mask0_outline)">
<g id="Rectangle 3">
<use xlink:href="#path1_fill" transform="translate(925 106)"/>
</g>
</g>
</g>
</g>
<defs>
<path id="path0_fill" fill-rule="evenodd" d="M 2.53125 7.91797L 5.58594 7.91797L 6.74219 6.75781L 2.96094 6.75781C 2.96094 6.75781 4.89844 1.64844 4.94922 1.33594L 6.76562 6.73438L 7.76172 5.73828L 5.55469 0L 4.21875 0L 0 11L 1.43359 11L 2.53125 7.91797ZM 5.07031 9.84766L 10.3086 4.60547L 14 8.29688L 9.29688 13L 6.84766 13L 5.07422 11.2266C 4.70312 10.8398 4.70312 10.2266 5.07031 9.84766ZM 11.6914 9.19141L 12.5859 8.29688L 10.3086 6.01953L 9.41406 6.91406L 11.6914 9.19141ZM 8.88281 12L 7.26172 12L 5.78125 10.5469L 8.70703 7.62109L 10.9844 9.89844L 8.88281 12Z"/>
<path id="path1_fill" fill-rule="evenodd" d="M 0 0L 14 0L 14 14L 0 14L 0 0Z"/>
</defs>
</svg>
