<svg width="1000" height="1000" viewBox="0 0 1000 1000" version="1.1" xmlns="http://www.w3.org/2000/svg" xmlns:xlink="http://www.w3.org/1999/xlink">
<title>format-italic</title>
<desc>Created using Figma</desc>
<g id="Canvas" transform="matrix(71.4286 0 0 71.4286 -76357.1 -7571.43)">
<rect x="1069" y="106" width="14" height="14" fill="#E5E5E5"/>
<g id="format-italic">
<mask id="mask0_outline" mask-type="alpha">
<g id="Mask">
<use xlink:href="#path0_fill" transform="translate(1071 106)" fill="#FFFFFF"/>
</g>
</mask>
<g id="Mask" mask="url(#mask0_outline)">
<use xlink:href="#path0_fill" transform="translate(1071 106)"/>
</g>
<g id="&#226;&#134;&#170;&#240;&#159;&#142;&#168;Color" mask="url(#mask0_outline)">
<g id="Rectangle 3">
<use xlink:href="#path1_fill" transform="translate(1069 106)" fill="#333333"/>
</g>
</g>
</g>
</g>
<defs>
<path id="path0_fill" d="M 6.29394 13.6172L 6.17188 14L 0 14L 0.15625 13.6172C 0.776367 13.6035 1.18164 13.5579 1.38184 13.4714C 1.70899 13.3574 1.94824 13.1934 2.09961 12.9883C 2.34375 12.6647 2.59766 12.0859 2.85645 11.252L 5.46387 2.80729C 5.68359 2.10547 5.7959 1.57682 5.7959 1.2168C 5.7959 1.03906 5.74707 0.888672 5.6543 0.765625C 5.55664 0.638021 5.41016 0.546875 5.21484 0.478515C 5.01953 0.414714 4.63867 0.382812 4.07227 0.382812L 4.2041 0L 10 0L 9.87793 0.382812C 9.4043 0.373697 9.05762 0.423828 8.82812 0.528646C 8.49609 0.665364 8.24219 0.861328 8.07129 1.11654C 7.89551 1.37174 7.6709 1.93229 7.40234 2.80729L 4.79981 11.252C 4.56543 12.0312 4.44824 12.528 4.44824 12.7422C 4.44824 12.9108 4.49219 13.0612 4.58496 13.1797C 4.67774 13.2982 4.82422 13.3939 5.0293 13.4577C 5.22949 13.5215 5.6543 13.5762 6.29394 13.6172Z"/>
<path id="path1_fill" fill-rule="evenodd" d="M 0 0L 14 0L 14 14L 0 14L 0 0Z"/>
</defs>
</svg>
