<svg width="875" height="1000" viewBox="0 0 875 1000" version="1.1" xmlns="http://www.w3.org/2000/svg" xmlns:xlink="http://www.w3.org/1999/xlink">
<title>format-list-ordered</title>
<desc>Created using Figma</desc>
<g id="Canvas" transform="matrix(62.5 0 0 62.5 -68312.5 -6562.5)">
<rect x="1093" y="105" width="14" height="16" fill="#E5E5E5"/>
<g id="format-list-ordered">
<mask id="mask0_outline" mask-type="alpha">
<g id="Mask">
<use xlink:href="#path0_fill" transform="translate(1093 105)" fill="#FFFFFF"/>
</g>
</mask>
<g id="Mask" mask="url(#mask0_outline)">
<use xlink:href="#path0_fill" transform="translate(1093 105)"/>
</g>
<g id="&#226;&#134;&#170;&#240;&#159;&#142;&#168;Color" mask="url(#mask0_outline)">
<g id="Rectangle 3">
<use xlink:href="#path1_fill" transform="translate(1093 106)"/>
</g>
</g>
</g>
</g>
<defs>
<path id="path0_fill" fill-rule="evenodd" d="M 2.67126 3.42411L 2.67126 4.56696L 0.618347 4.56696L 0.618347 3.42411L 1.08954 3.42411L 1.08954 1.01339L 0.47113 1.22321L 0.47113 0.401787L 2.16644 0L 2.16644 3.42411L 2.67126 3.42411ZM 2.65869 7.73661C 2.59137 7.86607 1.48077 9.20536 1.48077 9.20536L 2.83118 9.20536L 2.83118 10.2545L 0.0210571 10.2545L 0.0210571 9.45536C 0.0210571 9.45536 1.44714 7.88393 1.53125 7.77679C 1.74164 7.49107 1.83838 7.25446 1.87201 7.08482C 1.90985 6.91518 1.73743 6.6875 1.65747 6.65625C 1.57758 6.62946 1.48077 6.61161 1.37561 6.61161C 1.27887 6.61161 1.16528 6.625 1.07275 6.64732L 1.05121 6.65328C 0.958923 6.67873 0.851746 6.7083 0.769836 6.74554C 0.677307 6.79018 0.0210571 7.11161 0.0210571 7.17411L 0.0210571 6.05357C 0.0210571 6.00893 0.992798 5.73661 1.11902 5.71429C 1.23682 5.69196 1.36298 5.68304 1.49341 5.68304C 1.729 5.68304 1.93091 5.71429 2.10339 5.78125C 2.27167 5.84375 2.41467 5.9375 2.52826 6.04911C 2.63763 6.16518 2.7218 6.29911 2.77649 6.45536C 2.82697 6.60715 2.85638 6.77679 2.85638 6.9509C 2.85638 7.08482 2.83954 7.21429 2.81012 7.34375C 2.7807 7.47321 2.73016 7.60268 2.65869 7.73661ZM 2.74701 14.0312C 2.55768 13.5536 2.05707 13.4509 2.05707 13.4509C 2.70734 13.3641 2.68005 12.5622 2.67236 12.3371L 2.67236 12.3365C 2.67175 12.3187 2.67126 12.3045 2.67126 12.2946C 2.67126 12.1518 2.64606 12.0134 2.59558 11.8705C 2.54089 11.7321 2.46094 11.6116 2.34735 11.5C 2.23376 11.3884 2.08655 11.2991 1.90564 11.2277C 1.72473 11.1607 1.50183 11.125 1.24518 11.125C 1.11481 11.125 0.997009 11.1339 0.887634 11.1473C 0.778259 11.1652 0.673096 11.183 0.580505 11.2098C 0.496094 11.2302 0.422241 11.258 0.355591 11.283L 0.336548 11.2902C 0.30249 11.3022 0.24115 11.3152 0.179382 11.3282C 0.103882 11.3442 0.027771 11.3603 0 11.375L 0 12.2232C 0.521606 11.933 1.23676 11.942 1.32092 11.9598C 1.90143 12.0759 1.55652 12.875 1.48077 12.9286C 1.40924 12.9866 1.32092 13.0268 1.21155 13.058C 1.10217 13.0893 0.971741 13.1027 0.816101 13.1027L 0.445923 13.1027L 0.445923 13.8973L 0.849731 13.8973C 0.988586 13.8973 1.11902 13.9152 1.24097 13.9375C 1.35876 13.9643 1.46393 14.0089 1.5481 14.058C 1.63641 14.1116 1.70374 14.183 1.75 14.2634C 1.80048 14.3482 1.82574 14.4464 1.82574 14.558C 1.82574 14.7545 1.75842 14.9152 1.61957 15.0268C 1.48077 15.1473 1.28308 15.2054 1.02643 15.2054C 0.942322 15.2054 0.853943 15.2009 0.765625 15.183C 0.673096 15.1696 0.580505 15.1473 0.487976 15.1205C 0.399658 15.0893 0.311279 15.058 0.222961 15.0089C 0.174377 14.9857 0.142639 14.9418 0.110779 14.8975L 0.110229 14.8968C 0.0869751 14.8646 0.0636597 14.8324 0.0336304 14.808L 0.0336304 15.7098C 0.0571899 15.7241 0.0754395 15.7463 0.0944214 15.7695C 0.122864 15.8042 0.153137 15.8411 0.206116 15.8571C 0.290283 15.8884 0.382812 15.9152 0.483765 15.933C 0.584717 15.9554 0.68988 15.9732 0.795044 15.9821C 0.904419 15.9955 1.01379 16 1.12317 16C 1.41345 16 1.67004 15.9643 1.88043 15.8884C 2.09497 15.817 2.26746 15.7143 2.40625 15.5848C 2.54504 15.4554 2.64606 15.2991 2.71332 15.1295C 2.76379 14.9955 2.93207 14.4955 2.74701 14.0312ZM 4.30768 3.42857L 14 3.42857L 14 2.28571L 4.30768 2.28571L 4.30768 3.42857ZM 14 9.14286L 4.30768 9.14286L 4.30768 8L 14 8L 14 9.14286ZM 4.30768 14.8571L 14 14.8571L 14 13.7143L 4.30768 13.7143L 4.30768 14.8571Z"/>
<path id="path1_fill" fill-rule="evenodd" d="M 0 0L 14 0L 14 14L 0 14L 0 0Z"/>
</defs>
</svg>
