<svg width="1000" height="1000" viewBox="0 0 1000 1000" version="1.1" xmlns="http://www.w3.org/2000/svg" xmlns:xlink="http://www.w3.org/1999/xlink">
<title>format-font-color</title>
<desc>Created using Figma</desc>
<g id="Canvas" transform="matrix(71.4286 0 0 71.4286 -69500 -7571.43)">
<rect x="973" y="106" width="14" height="14" fill="#E5E5E5"/>
<g id="format-font-color">
<mask id="mask0_outline" mask-type="alpha">
<g id="Mask">
<use xlink:href="#path0_fill" transform="translate(974 106)" fill="#FFFFFF"/>
</g>
</mask>
<g id="Mask" mask="url(#mask0_outline)">
<use xlink:href="#path0_fill" transform="translate(974 106)"/>
</g>
<g id="&#226;&#134;&#170;&#240;&#159;&#142;&#168;Color" mask="url(#mask0_outline)">
<g id="Rectangle 3">
<use xlink:href="#path1_fill" transform="translate(973 106)" fill="#333333"/>
</g>
</g>
</g>
</g>
<defs>
<path id="path0_fill" fill-rule="evenodd" d="M 10.7529 9.69231L 9.513 9.69231L 8.50165 6.97476L 4.44757 6.97476L 3.49542 9.69231L 2.24707 9.69231L 5.9118 0L 7.07129 0L 10.7529 9.69231ZM 8.13348 5.95673L 6.5 1.17789L 4.82001 5.95673L 8.13348 5.95673ZM 0 14L 0 11.8462L 13 11.8462L 13 14L 0 14Z"/>
<path id="path1_fill" fill-rule="evenodd" d="M 0 0L 14 0L 14 14L 0 14L 0 0Z"/>
</defs>
</svg>
