<svg width="1001" height="1001" viewBox="0 0 1001 1001" version="1.1" xmlns="http://www.w3.org/2000/svg" xmlns:xlink="http://www.w3.org/1999/xlink">
<title>format-font-size</title>
<desc>Created using Figma</desc>
<g id="Canvas" transform="matrix(71.5 0 0 71.5 -71285.5 -7579)">
<rect x="997" y="106" width="14" height="14" fill="#E5E5E5"/>
<g id="format-font-size">
<mask id="mask0_outline" mask-type="alpha">
<g id="Mask">
<use xlink:href="#path0_fill" transform="translate(997 108)" fill="#FFFFFF"/>
</g>
</mask>
<g id="Mask" mask="url(#mask0_outline)">
<use xlink:href="#path0_fill" transform="translate(997 108)"/>
</g>
<g id="&#226;&#134;&#170;&#240;&#159;&#142;&#168;Color" mask="url(#mask0_outline)">
<g id="Rectangle 3">
<use xlink:href="#path1_fill" transform="translate(997 106)"/>
</g>
</g>
</g>
</g>
<defs>
<path id="path0_fill" fill-rule="evenodd" d="M 7.05859 10L 8.26172 10L 4.6875 0L 3.5625 0L 0 10L 1.21094 10L 2.13672 7.19531L 6.07422 7.19531L 7.05859 10ZM 3.98828 1.19531L 5.625 6.04297L 2.45703 6.04297L 3.98828 1.19531ZM 14 9.83594L 12.957 9.83594L 12.957 8.73828L 12.9297 8.73828C 12.4766 9.57812 11.8086 10 10.9219 10C 10.2734 10 9.76562 9.81641 9.39844 9.44531C 9.03125 9.07422 8.84766 8.58203 8.84766 7.96875C 8.84766 6.65625 9.56641 5.89453 11 5.67969L 12.957 5.38281C 12.957 4.19141 12.5078 3.59375 11.6133 3.59375C 10.8242 3.59375 10.1172 3.88281 9.48438 4.45703L 9.48438 3.30469C 10.125 2.86719 10.8633 2.64844 11.6992 2.64844C 13.2344 2.64844 14 3.51953 14 5.26562L 14 9.83594ZM 11.3828 6.51562L 12.957 6.28125L 12.957 6.98047C 12.957 7.58203 12.7852 8.07812 12.4492 8.46875C 12.1094 8.85938 11.6836 9.05469 11.1641 9.05469C 10.7891 9.05469 10.4844 8.94531 10.2578 8.72656C 10.0312 8.51172 9.91797 8.23047 9.91797 7.88672C 9.91797 7.41797 10.0391 7.08984 10.2852 6.90234C 10.5312 6.71875 10.8984 6.58984 11.3828 6.51562Z"/>
<path id="path1_fill" fill-rule="evenodd" d="M 0 0L 14 0L 14 14L 0 14L 0 0Z"/>
</defs>
</svg>
