<svg width="1001" height="1001" viewBox="0 0 1001 1001" version="1.1" xmlns="http://www.w3.org/2000/svg" xmlns:xlink="http://www.w3.org/1999/xlink">
<title>format-indent-increase</title>
<desc>Created using Figma</desc>
<g id="Canvas" transform="matrix(71.5 0 0 71.5 -74717.5 -7579)">
<rect x="1045" y="106" width="14" height="14" fill="#E5E5E5"/>
<g id="format-indent-increase">
<mask id="mask0_outline" mask-type="alpha">
<g id="Mask">
<use xlink:href="#path0_fill" transform="translate(1045 106)" fill="#FFFFFF"/>
</g>
</mask>
<g id="Mask" mask="url(#mask0_outline)">
<use xlink:href="#path0_fill" transform="translate(1045 106)"/>
</g>
<g id="&#226;&#134;&#170;&#240;&#159;&#142;&#168;Color" mask="url(#mask0_outline)">
<g id="Rectangle 3">
<use xlink:href="#path1_fill" transform="translate(1045 106)"/>
</g>
</g>
</g>
</g>
<defs>
<path id="path0_fill" fill-rule="evenodd" d="M 0 0L 8 0L 8 1L 0 1L 0 0ZM 0 13.0312L 8 13.0312L 8 12.0312L 0 12.0312L 0 13.0312ZM 9 4L 12 4L 12 5L 9 5L 9 4ZM 9 8L 9 9L 14 9L 14 8L 9 8ZM 4.10547 9.35547L 3.39453 8.64453L 5.04297 7L 0 7L 0 6L 5.04297 6L 3.39453 4.35547L 4.10547 3.64453L 6.95703 6.5L 4.10547 9.35547Z"/>
<path id="path1_fill" fill-rule="evenodd" d="M 0 0L 14 0L 14 14L 0 14L 0 0Z"/>
</defs>
</svg>
