<svg width="1000" height="1000" viewBox="0 0 1000 1000" version="1.1" xmlns="http://www.w3.org/2000/svg" xmlns:xlink="http://www.w3.org/1999/xlink">
<title>full-history</title>
<desc>Created using Figma</desc>
<g id="Canvas" transform="matrix(71.4286 0 0 71.4286 -83214.3 -7571.43)">
<rect x="1165" y="106" width="14" height="14" fill="#E5E5E5"/>
<g id="full-history">
<mask id="mask0_outline" mask-type="alpha">
<g id="Mask">
<use xlink:href="#path0_fill" transform="translate(1165 106)" fill="#FFFFFF"/>
</g>
</mask>
<g id="Mask" mask="url(#mask0_outline)">
<use xlink:href="#path0_fill" transform="translate(1165 106)"/>
</g>
<g id="&#226;&#134;&#170;&#240;&#159;&#142;&#168;Color" mask="url(#mask0_outline)">
<g id="Rectangle 3">
<use xlink:href="#path1_fill" transform="translate(1165 106)" fill="#333333"/>
</g>
</g>
</g>
</g>
<defs>
<path id="path0_fill" fill-rule="evenodd" d="M 1.00873 3.25182C 2.2854 1.26633 4.49988 0 6.9389 0C 10.832 0 14 3.14238 14 7.00391C 14 10.8264 10.899 13.9375 7.0611 14L 7.0611 12.9994C 10.3434 12.9369 12.9913 10.2753 12.9913 7.00391C 12.9913 3.69347 10.2764 1.00056 6.9389 1.00056C 4.76385 1.00056 2.78583 2.17309 1.71796 4.00224L 4.03491 4.00224L 4.03491 5.00279L 0 5.00279L 0 1.00056L 1.00873 1.00056L 1.00873 3.25182ZM 6.05237 3.00168L 6.05237 7.44947L 8.70422 10.3417L 9.45288 9.66946L 7.0611 7.06254L 7.0611 3.00168L 6.05237 3.00168ZM 5.04364 9.00502L 0 9.00502L 0 8.00446L 5.04364 8.00446L 5.04364 9.00502ZM 5.04364 10.0056L 0 10.0056L 0 11.0061L 5.04364 11.0061L 5.04364 10.0056ZM 0 12.0067L 5.04364 12.0067L 5.04364 13.0073L 0 13.0073L 0 12.0067Z"/>
<path id="path1_fill" fill-rule="evenodd" d="M 0 0L 14 0L 14 14L 0 14L 0 0Z"/>
</defs>
</svg>
