<svg width="1502" height="1001" viewBox="0 0 1502 1001" version="1.1" xmlns="http://www.w3.org/2000/svg" xmlns:xlink="http://www.w3.org/1999/xlink">
<title>game</title>
<desc>Created using Figma</desc>
<g id="Canvas" transform="matrix(125.125 0 0 125.125 -73823.8 -34659.6)">
<g id="game">
<use xlink:href="#path0_fill" transform="translate(590 275)"/>
</g>
</g>
<defs>
<path id="path0_fill" d="M 11.0098 3.24023C 11.3301 3.56055 11.5742 3.92578 11.7422 4.33594C 11.9141 4.74219 12 5.17187 12 5.625C 12 5.76172 11.9961 5.92578 11.9883 6.11719C 11.9805 6.30859 11.9629 6.51562 11.9355 6.73828C 11.9121 6.96094 11.875 7.19141 11.8242 7.42969C 11.7773 7.66406 11.7148 7.89453 11.6367 8.12109C 11.5195 8.45703 11.3828 8.73242 11.2266 8.94727C 11.0703 9.1582 10.9082 9.32422 10.7402 9.44531C 10.5723 9.5625 10.4023 9.64258 10.2305 9.68555C 10.0586 9.72852 9.89844 9.75 9.75 9.75C 9.62109 9.75 9.50195 9.72852 9.39258 9.68555C 9.28711 9.63867 9.18555 9.58008 9.08789 9.50977C 8.99414 9.43945 8.9043 9.35938 8.81836 9.26953C 8.73633 9.17578 8.6543 9.08203 8.57227 8.98828C 8.49023 8.89453 8.4082 8.80469 8.32617 8.71875C 8.24805 8.63281 8.16602 8.55664 8.08008 8.49023C 7.99414 8.41992 7.90234 8.36328 7.80469 8.32031C 7.71094 8.27734 7.60742 8.25391 7.49414 8.25L 4.50586 8.25C 4.39258 8.25391 4.28711 8.27734 4.18945 8.32031C 4.0957 8.36328 4.00586 8.41992 3.91992 8.49023C 3.83398 8.55664 3.75 8.63281 3.66797 8.71875C 3.58984 8.80469 3.50977 8.89453 3.42773 8.98828C 3.3457 9.08203 3.26172 9.17578 3.17578 9.26953C 3.09375 9.35938 3.00391 9.43945 2.90625 9.50977C 2.8125 9.58008 2.71094 9.63867 2.60156 9.68555C 2.49609 9.72852 2.37891 9.75 2.25 9.75C 2.10156 9.75 1.94141 9.72852 1.76953 9.68555C 1.59766 9.64258 1.42773 9.5625 1.25977 9.44531C 1.0918 9.32422 0.929688 9.1582 0.773438 8.94727C 0.617188 8.73242 0.480469 8.45703 0.363281 8.12109C 0.285156 7.89453 0.220703 7.66406 0.169922 7.42969C 0.123047 7.19141 0.0859375 6.96094 0.0585938 6.73828C 0.0351562 6.51562 0.0195312 6.30859 0.0117188 6.11719C 0.00390625 5.92578 0 5.76172 0 5.625C 0 5.17187 0.0839844 4.74219 0.251953 4.33594C 0.423828 3.92578 0.669922 3.56055 0.990234 3.24023C 1.30664 2.91992 1.66992 2.67578 2.08008 2.50781C 2.49023 2.33594 2.92187 2.25 3.375 2.25L 8.625 2.25C 9.07813 2.25 9.50781 2.33594 9.91406 2.50781C 10.3242 2.67578 10.6895 2.91992 11.0098 3.24023ZM 10.9277 7.875C 11.002 7.66797 11.0605 7.45312 11.1035 7.23047C 11.1465 7.00781 11.1777 6.79492 11.1973 6.5918C 11.2207 6.38477 11.2344 6.19727 11.2383 6.0293C 11.2461 5.86133 11.25 5.72656 11.25 5.625C 11.25 5.26172 11.1797 4.92188 11.0391 4.60547C 10.9023 4.28516 10.7148 4.00781 10.4766 3.77344C 10.2422 3.53516 9.96484 3.34766 9.64453 3.21094C 9.32812 3.07031 8.98828 3 8.625 3L 3.375 3C 3.01172 3 2.66992 3.07031 2.34961 3.21094C 2.0332 3.34766 1.75586 3.53516 1.51758 3.77344C 1.2832 4.00781 1.0957 4.28516 0.955078 4.60547C 0.818359 4.92188 0.75 5.26172 0.75 5.625C 0.75 5.72656 0.751953 5.86133 0.755859 6.0293C 0.763672 6.19727 0.777344 6.38477 0.796875 6.5918C 0.820312 6.79492 0.853516 7.00781 0.896484 7.23047C 0.939453 7.45312 0.998047 7.66797 1.07227 7.875C 1.16992 8.15625 1.27734 8.37305 1.39453 8.52539C 1.51172 8.67773 1.625 8.78906 1.73438 8.85938C 1.84766 8.92969 1.94922 8.9707 2.03906 8.98242C 2.13281 8.99414 2.20312 9 2.25 9C 2.33594 9 2.42969 8.94922 2.53125 8.84766C 2.63672 8.74219 2.74609 8.625 2.85938 8.49609C 2.95312 8.38672 3.05273 8.27539 3.1582 8.16211C 3.26758 8.04492 3.38672 7.93945 3.51562 7.8457C 3.64844 7.74805 3.79492 7.66797 3.95508 7.60547C 4.11523 7.54297 4.29297 7.50781 4.48828 7.5L 4.49414 7.5L 7.51172 7.5C 7.70703 7.50781 7.88477 7.54297 8.04492 7.60547C 8.20508 7.66797 8.34961 7.74805 8.47852 7.8457C 8.61133 7.93945 8.73047 8.04492 8.83594 8.16211C 8.94531 8.27539 9.04688 8.38672 9.14062 8.49609C 9.25391 8.625 9.36133 8.74219 9.46289 8.84766C 9.56836 8.94922 9.66406 9 9.75 9C 9.79688 9 9.86523 8.99414 9.95508 8.98242C 10.0488 8.9707 10.1504 8.92969 10.2598 8.85938C 10.373 8.78906 10.4883 8.67773 10.6055 8.52539C 10.7227 8.37305 10.8301 8.15625 10.9277 7.875ZM 3 5.25L 3.75 5.25L 3.75 6L 3 6L 3 6.75L 2.25 6.75L 2.25 6L 1.5 6L 1.5 5.25L 2.25 5.25L 2.25 4.5L 3 4.5L 3 5.25ZM 9.75 6C 9.85547 6 9.95312 6.01953 10.043 6.05859C 10.1328 6.09766 10.2109 6.15234 10.2773 6.22266C 10.3477 6.28906 10.4023 6.36719 10.4414 6.45703C 10.4805 6.54687 10.5 6.64453 10.5 6.75C 10.5 6.85547 10.4805 6.95313 10.4414 7.04297C 10.4023 7.13281 10.3477 7.21289 10.2773 7.2832C 10.2109 7.34961 10.1328 7.40234 10.043 7.44141C 9.95312 7.48047 9.85547 7.5 9.75 7.5C 9.64453 7.5 9.54688 7.48047 9.45703 7.44141C 9.36719 7.40234 9.28711 7.34961 9.2168 7.2832C 9.15039 7.21289 9.09766 7.13281 9.05859 7.04297C 9.01953 6.95313 9 6.85547 9 6.75C 9 6.64453 9.01953 6.54687 9.05859 6.45703C 9.09766 6.36719 9.15039 6.28906 9.2168 6.22266C 9.28711 6.15234 9.36719 6.09766 9.45703 6.05859C 9.54688 6.01953 9.64453 6 9.75 6ZM 8.25 4.5C 8.35547 4.5 8.45312 4.51953 8.54297 4.55859C 8.63281 4.59766 8.71094 4.65234 8.77734 4.72266C 8.84766 4.78906 8.90234 4.86719 8.94141 4.95703C 8.98047 5.04688 9 5.14453 9 5.25C 9 5.35547 8.98047 5.45312 8.94141 5.54297C 8.90234 5.63281 8.84766 5.71289 8.77734 5.7832C 8.71094 5.84961 8.63281 5.90234 8.54297 5.94141C 8.45312 5.98047 8.35547 6 8.25 6C 8.14453 6 8.04688 5.98047 7.95703 5.94141C 7.86719 5.90234 7.78711 5.84961 7.7168 5.7832C 7.65039 5.71289 7.59766 5.63281 7.55859 5.54297C 7.51953 5.45312 7.5 5.35547 7.5 5.25C 7.5 5.14453 7.51953 5.04688 7.55859 4.95703C 7.59766 4.86719 7.65039 4.78906 7.7168 4.72266C 7.78711 4.65234 7.86719 4.59766 7.95703 4.55859C 8.04688 4.51953 8.14453 4.5 8.25 4.5Z"/>
</defs>
</svg>
