<svg width="1000" height="1000" viewBox="0 0 1000 1000" version="1.1" xmlns="http://www.w3.org/2000/svg" xmlns:xlink="http://www.w3.org/1999/xlink">
<title>giftbox-open</title>
<desc>Created using Figma</desc>
<g id="Canvas" transform="matrix(71.4286 0 0 71.4286 -84928.6 -7571.43)">
<rect x="1189" y="106" width="14" height="14" fill="#E5E5E5"/>
<g id="giftbox-open">
<mask id="mask0_outline" mask-type="alpha">
<g id="Mask">
<use xlink:href="#path0_fill" transform="translate(1189 106)" fill="#FFFFFF"/>
</g>
</mask>
<g id="Mask" mask="url(#mask0_outline)">
<use xlink:href="#path0_fill" transform="translate(1189 106)"/>
</g>
<g id="&#226;&#134;&#170;&#240;&#159;&#142;&#168;Color" mask="url(#mask0_outline)">
<g id="Rectangle 3">
<use xlink:href="#path1_fill" transform="translate(1189 106)"/>
</g>
</g>
</g>
</g>
<defs>
<path id="path0_fill" fill-rule="evenodd" d="M 7.93469 2.1875C 8.44409 2.40234 8.89343 2.69531 9.27856 3.07031C 9.65967 3.44531 9.96045 3.87891 10.1812 4.375C 10.4017 3.87891 10.7026 3.44531 11.0876 3.07031C 11.4688 2.69531 11.9181 2.40234 12.4275 2.1875C 11.9181 1.97266 11.4728 1.67969 11.0876 1.30469C 10.7026 0.933594 10.4017 0.496094 10.1812 0C 9.96045 0.496094 9.65967 0.933594 9.27856 1.30469C 8.89343 1.67969 8.44409 1.97266 7.93469 2.1875ZM 0.0722656 2.1875C 0.324951 2.29297 0.549683 2.44141 0.742188 2.62891C 0.938721 2.81641 1.08716 3.03516 1.19543 3.28125C 1.30383 3.03516 1.45618 2.81641 1.6488 2.62891C 1.84131 2.44141 2.06592 2.29297 2.31873 2.1875C 2.06592 2.08203 1.84534 1.9375 1.6488 1.74609C 1.45618 1.55859 1.30383 1.33984 1.19543 1.09375C 1.08716 1.33984 0.938721 1.55859 0.742188 1.74609C 0.549683 1.93359 0.324951 2.08203 0.0722656 2.1875ZM 9.29858 2.1875C 9.62354 2.44141 9.92041 2.73047 10.1812 3.05078C 10.4379 2.73047 10.7347 2.44141 11.0676 2.1875C 10.7347 1.9375 10.4379 1.64844 10.1812 1.32812C 9.92041 1.64844 9.62354 1.9375 9.29858 2.1875ZM 12.8767 3.71875C 12.9851 3.96484 13.1334 4.18359 13.3301 4.37109C 13.5266 4.5625 13.7472 4.70703 14 4.8125C 13.7472 4.91797 13.5266 5.0625 13.3301 5.25391C 13.1375 5.44141 12.9851 5.66016 12.8767 5.90625C 12.7684 5.66016 12.616 5.44141 12.4235 5.25391C 12.231 5.06641 12.0062 4.91797 11.7535 4.8125C 12.0062 4.70703 12.231 4.5625 12.4235 4.37109C 12.616 4.18359 12.7684 3.96484 12.8767 3.71875ZM 9.16614 6L 9.16614 7L 10.1169 7L 10.1169 13L 2.92834 13L 2.92834 7L 3.88708 7L 3.88708 6L 2.20227 6L 0 8.14844L 0.726074 8.85547L 1.90149 7.70703L 1.90149 14L 11.1438 14L 11.1438 7.70703L 12.3232 8.85547L 13.0493 8.14844L 10.843 6L 9.16614 6ZM 4.42871 5.32422C 4.22412 5.23047 4.03955 5.10156 3.88708 4.94141C 3.73071 4.78125 3.61035 4.59766 3.52612 4.39062C 3.43787 4.18359 3.39771 3.96484 3.39771 3.74609C 3.39771 3.46484 3.45789 3.19531 3.57825 2.94922C 3.69458 2.70312 3.85901 2.48438 4.05957 2.30078C 4.26416 2.11719 4.49683 1.96875 4.75354 1.86719C 5.01428 1.75781 5.29114 1.70312 5.57593 1.70312C 5.98511 1.70312 6.35413 1.78906 6.67505 1.95703C 6.99194 2.12891 7.26477 2.35156 7.48132 2.625C 7.698 2.89844 7.86646 3.21094 7.97876 3.55859C 8.09106 3.90234 8.14722 4.25781 8.14722 4.62109C 8.14722 5.10938 8.06702 5.57422 7.90259 6C 7.74207 6.42578 7.51746 6.81641 7.23267 7.16406C 6.94788 7.51172 6.61084 7.82422 6.22583 8.08984C 5.8407 8.35547 5.42346 8.57812 4.98218 8.76172C 4.93005 8.78516 4.86584 8.79688 4.78162 8.79688C 4.64526 8.79688 4.52893 8.74609 4.43262 8.65234C 4.34045 8.55859 4.29224 8.44141 4.29224 8.3125C 4.29224 8.10938 4.39661 7.95703 4.58911 7.86719C 4.93811 7.70703 5.26709 7.53125 5.56787 7.34375C 5.85669 7.16016 6.11743 6.94922 6.33813 6.71094C 6.55872 6.47656 6.73926 6.20703 6.87561 5.90234C 7.01208 5.60156 7.10425 5.25 7.14441 4.85547L 7.15649 4.73047L 7.15649 4.60156C 7.15649 4.37109 7.12439 4.14062 7.05615 3.91016C 6.99194 3.68359 6.89172 3.47266 6.75525 3.28516C 6.62292 3.09766 6.4585 2.94922 6.26184 2.83984C 6.06934 2.72656 5.83667 2.67188 5.57593 2.67188C 5.43152 2.67188 5.28711 2.69922 5.1427 2.75391C 5.00232 2.8125 4.86987 2.89062 4.75757 2.98828C 4.64929 3.08203 4.55701 3.19922 4.48877 3.33203C 4.42065 3.46094 4.38452 3.59766 4.38452 3.74609C 4.38452 3.83594 4.40454 3.92969 4.4447 4.01953C 4.48083 4.11328 4.53296 4.19531 4.59717 4.26172C 4.66125 4.33594 4.73755 4.39453 4.82581 4.4375C 4.91003 4.48047 5.00232 4.5 5.09851 4.5C 5.19482 4.5 5.26709 4.48828 5.31519 4.46094C 5.37134 4.43359 5.4115 4.39844 5.44751 4.35547C 5.48364 4.30469 5.51172 4.25781 5.53577 4.20703C 5.55994 4.14453 5.59192 4.08594 5.62402 4.02734C 5.66418 3.95703 5.71631 3.89844 5.77649 3.85938C 5.83667 3.8125 5.92493 3.78906 6.0332 3.78906C 6.16968 3.78906 6.28601 3.83984 6.38623 3.93359C 6.48657 4.03125 6.53467 4.14844 6.53467 4.27734L 6.51868 4.39453C 6.47852 4.55078 6.41028 4.69922 6.31799 4.82812C 6.22583 4.96094 6.11743 5.07031 5.98914 5.16797C 5.86475 5.26172 5.72437 5.33594 5.5719 5.39062C 5.41553 5.44141 5.255 5.46484 5.0946 5.46484C 4.85791 5.46484 4.63318 5.41797 4.42871 5.32422Z"/>
<path id="path1_fill" fill-rule="evenodd" d="M 0 0L 14 0L 14 14L 0 14L 0 0Z"/>
</defs>
</svg>
