<svg width="1000" height="1000" viewBox="0 0 1000 1000" version="1.1" xmlns="http://www.w3.org/2000/svg" xmlns:xlink="http://www.w3.org/1999/xlink">
<title>git</title>
<desc>Created using Figma</desc>
<g id="Canvas" transform="matrix(71.4286 0 0 71.4286 -86642.9 -7571.43)">
<rect x="1213" y="106" width="14" height="14" fill="#E5E5E5"/>
<g id="git">
<mask id="mask0_outline" mask-type="alpha">
<g id="Mask">
<use xlink:href="#path0_fill" transform="translate(1213 106)" fill="#FFFFFF"/>
</g>
</mask>
<g id="Mask" mask="url(#mask0_outline)">
<use xlink:href="#path0_fill" transform="translate(1213 106)"/>
</g>
<g id="&#226;&#134;&#170;&#240;&#159;&#142;&#168;Color" mask="url(#mask0_outline)">
<g id="Rectangle 3">
<use xlink:href="#path1_fill" transform="translate(1213 106)" fill="#333333"/>
</g>
</g>
</g>
</g>
<defs>
<path id="path0_fill" d="M 13.7334 7.65332L 7.65225 13.7393C 7.30074 14.0869 6.7266 14.0869 6.37899 13.7393L 0.266564 7.62598C -0.0888548 7.27441 -0.0888548 6.7002 0.266564 6.34863L 4.45348 2.15723L 6.0431 3.74707C 5.87906 4.1377 5.95718 4.60254 6.27354 4.91895C 6.37899 5.02441 6.34775 4.97363 6.47663 5.02832L 6.47663 8.90332C 6.35946 8.9502 6.29697 9.02832 6.21105 9.11816C 5.98061 9.3252 5.83219 9.61817 5.83219 9.9541C 5.83219 10.5713 6.33603 11.0713 6.95313 11.0713C 7.03125 11.0713 7.10936 11.0635 7.18747 11.0479C 7.40619 11.0166 7.62101 10.9189 7.78895 10.7471C 8.1639 10.376 8.20296 9.79395 7.91003 9.37598C 7.80848 9.21582 7.67178 9.0791 7.50774 8.98535L 7.50774 5.21973L 8.95285 6.66504C 8.79272 7.05566 8.87083 7.52051 9.18719 7.83301C 9.60511 8.25488 10.2847 8.25488 10.7065 7.83301C 11.1244 7.41504 11.1244 6.73535 10.7065 6.31738C 10.4058 6.0166 9.97224 5.93457 9.59729 6.06348L 8.04282 4.50879C 8.17562 4.13379 8.08969 3.7002 7.78895 3.39941C 7.49212 3.10254 7.06249 3.02051 6.68754 3.14551L 5.07839 1.53613L 6.34775 0.266602C 6.69926 -0.0888672 7.2734 -0.0888672 7.62101 0.266602L 13.7334 6.37598C 14.0889 6.73145 14.0889 7.30176 13.7334 7.65332Z"/>
<path id="path1_fill" fill-rule="evenodd" d="M 0 0L 14 0L 14 14L 0 14L 0 0Z"/>
</defs>
</svg>
