<svg width="835" height="1001" viewBox="0 0 835 1001" version="1.1" xmlns="http://www.w3.org/2000/svg" xmlns:xlink="http://www.w3.org/1999/xlink">
<title>headsets</title>
<desc>Created using Figma</desc>
<g id="Canvas" transform="matrix(83.4167 0 0 83.4167 -39456.1 -22856.2)">
<g id="headsets">
<use xlink:href="#path0_fill" transform="translate(472 274)"/>
</g>
</g>
<defs>
<path id="path0_fill" d="M 6 0C 6.41406 0 6.8125 0.0546877 7.19531 0.164062C 7.57813 0.269531 7.93555 0.419922 8.26758 0.615234C 8.60352 0.810547 8.9082 1.04492 9.18164 1.31836C 9.45508 1.5918 9.68945 1.89648 9.88477 2.23242C 10.0801 2.56445 10.2305 2.92187 10.3359 3.30469C 10.4453 3.6875 10.5 4.08594 10.5 4.5L 10.5 7.125C 10.5 7.28125 10.4707 7.42773 10.4121 7.56445C 10.3535 7.70117 10.2734 7.82031 10.1719 7.92188C 10.0703 8.02344 9.95117 8.10352 9.81445 8.16211C 9.67773 8.2207 9.53125 8.25 9.375 8.25L 8.25 8.25L 8.25 4.5L 9.375 4.5C 9.44141 4.5 9.50586 4.50781 9.56836 4.52344C 9.63086 4.53516 9.69141 4.55078 9.75 4.57031C 9.75 4.04297 9.6543 3.54883 9.46289 3.08789C 9.27148 2.62305 9.00781 2.21875 8.67188 1.875C 8.33984 1.52734 7.94336 1.25391 7.48242 1.05469C 7.02539 0.851563 6.53125 0.75 6 0.75C 5.65625 0.75 5.32422 0.794922 5.00391 0.884766C 4.68359 0.97461 4.38477 1.10156 4.10742 1.26562C 3.83008 1.42578 3.57617 1.62109 3.3457 1.85156C 3.11914 2.07812 2.92383 2.33008 2.75977 2.60742C 2.59961 2.88477 2.47461 3.18359 2.38477 3.50391C 2.29492 3.82422 2.25 4.15625 2.25 4.5L 2.25 4.57031C 2.30859 4.55078 2.36914 4.53516 2.43164 4.52344C 2.49414 4.50781 2.55859 4.5 2.625 4.5L 3.75 4.5L 3.75 8.25L 3 8.25L 3 9C 3 9.20703 3.03906 9.40234 3.11719 9.58594C 3.19531 9.76562 3.30273 9.92383 3.43945 10.0605C 3.57617 10.1973 3.73437 10.3047 3.91406 10.3828C 4.09766 10.4609 4.29297 10.5 4.5 10.5C 4.5 10.3945 4.51953 10.2969 4.55859 10.207C 4.59766 10.1172 4.65039 10.0391 4.7168 9.97266C 4.78711 9.90234 4.86719 9.84766 4.95703 9.80859C 5.04687 9.76953 5.14453 9.75 5.25 9.75L 6.75 9.75C 6.85547 9.75 6.95312 9.76953 7.04297 9.80859C 7.13281 9.84766 7.21094 9.90234 7.27734 9.97266C 7.34766 10.0391 7.40234 10.1172 7.44141 10.207C 7.48047 10.2969 7.5 10.3945 7.5 10.5L 7.5 11.25C 7.5 11.3555 7.48047 11.4531 7.44141 11.543C 7.40234 11.6328 7.34766 11.7129 7.27734 11.7832C 7.21094 11.8496 7.13281 11.9023 7.04297 11.9414C 6.95312 11.9805 6.85547 12 6.75 12L 5.25 12C 5.14453 12 5.04687 11.9805 4.95703 11.9414C 4.86719 11.9023 4.78711 11.8496 4.7168 11.7832C 4.65039 11.7129 4.59766 11.6328 4.55859 11.543C 4.51953 11.4531 4.5 11.3555 4.5 11.25C 4.1875 11.25 3.89453 11.1914 3.62109 11.0742C 3.35156 10.957 3.11328 10.7969 2.90625 10.5938C 2.70313 10.3867 2.54297 10.1484 2.42578 9.87891C 2.30859 9.60547 2.25 9.3125 2.25 9L 2.25 8.17969C 2.13672 8.14062 2.0332 8.08594 1.93945 8.01562C 1.84961 7.94531 1.77148 7.86523 1.70508 7.77539C 1.64258 7.68164 1.5918 7.58008 1.55273 7.4707C 1.51758 7.35742 1.5 7.24219 1.5 7.125L 1.5 4.5C 1.5 4.08594 1.55273 3.6875 1.6582 3.30469C 1.76758 2.92187 1.91992 2.56445 2.11523 2.23242C 2.31055 1.89648 2.54492 1.5918 2.81836 1.31836C 3.0918 1.04492 3.39453 0.810547 3.72656 0.615234C 4.0625 0.419922 4.42188 0.269531 4.80469 0.164062C 5.1875 0.0546877 5.58594 0 6 0ZM 5.25 11.25L 6.75 11.25L 6.75 10.5L 5.25 10.5L 5.25 11.25ZM 2.625 5.25C 2.52344 5.25 2.43555 5.28711 2.36133 5.36133C 2.28711 5.43555 2.25 5.52344 2.25 5.625L 2.25 7.125C 2.25 7.22656 2.28711 7.31445 2.36133 7.38867C 2.43555 7.46289 2.52344 7.5 2.625 7.5L 3 7.5L 3 5.25L 2.625 5.25ZM 9.75 5.625C 9.75 5.52344 9.71289 5.43555 9.63867 5.36133C 9.56445 5.28711 9.47656 5.25 9.375 5.25L 9 5.25L 9 7.5L 9.375 7.5C 9.47656 7.5 9.56445 7.46289 9.63867 7.38867C 9.71289 7.31445 9.75 7.22656 9.75 7.125L 9.75 5.625Z"/>
</defs>
</svg>
