<svg width="1000" height="1000" viewBox="0 0 1000 1000" version="1.1" xmlns="http://www.w3.org/2000/svg" xmlns:xlink="http://www.w3.org/1999/xlink">
<title>heart</title>
<desc>Created using Figma</desc>
<g id="Canvas" transform="matrix(71.4286 0 0 71.4286 -93500 -7571.43)">
<rect x="1309" y="106" width="14" height="14" fill="#E5E5E5"/>
<g id="heart">
<mask id="mask0_outline" mask-type="alpha">
<g id="Mask">
<use xlink:href="#path0_fill" transform="translate(1309 107)" fill="#FFFFFF"/>
</g>
</mask>
<g id="Mask" mask="url(#mask0_outline)">
<use xlink:href="#path0_fill" transform="translate(1309 107)"/>
</g>
<g id="&#226;&#134;&#170;&#240;&#159;&#142;&#168;Color" mask="url(#mask0_outline)">
<g id="Rectangle 3">
<use xlink:href="#path1_fill" transform="translate(1309 106)" fill="#333333"/>
</g>
</g>
</g>
</g>
<defs>
<path id="path0_fill" fill-rule="evenodd" d="M 1.06433 6.19061L 6.99976 12L 12.9391 6.18669C 14.3536 4.76374 14.3536 2.45488 12.9391 1.03585C 11.5676 -0.340057 9.1919 -0.355736 7.79297 1.05153L 6.99976 1.90608L 6.19482 1.03585C 4.82324 -0.340057 2.43189 -0.340057 1.06043 1.03585C -0.354125 2.45488 -0.354125 4.76766 1.06433 6.19061ZM 1.7677 1.74536C 2.26392 1.24753 2.92432 0.973129 3.62769 0.973129C 4.33106 0.973129 4.99133 1.24753 5.47192 1.7336L 6.99976 3.38391L 8.51196 1.74536C 9.50842 0.749695 11.2394 0.749695 12.2319 1.74536C 13.2557 2.77239 13.2557 4.44622 12.2358 5.47325L 6.99976 10.5966L 1.7677 5.47717C 0.743897 4.44622 0.743897 2.77631 1.7677 1.74536Z"/>
<path id="path1_fill" fill-rule="evenodd" d="M 0 0L 14 0L 14 14L 0 14L 0 0Z"/>
</defs>
</svg>
