<svg width="1000" height="1000" viewBox="0 0 1000 1000" version="1.1" xmlns="http://www.w3.org/2000/svg" xmlns:xlink="http://www.w3.org/1999/xlink">
<title>heartbeat</title>
<desc>Created using Figma</desc>
<g id="Canvas" transform="matrix(71.4286 0 0 71.4286 -11214.3 -9285.71)">
<rect x="157" y="130" width="14" height="14" fill="#E5E5E5"/>
<g id="heartbeat">
<mask id="mask0_outline" mask-type="alpha">
<g id="Mask">
<use xlink:href="#path0_fill" transform="translate(157 131)" fill="#FFFFFF"/>
</g>
</mask>
<g id="Mask" mask="url(#mask0_outline)">
<use xlink:href="#path0_fill" transform="translate(157 131)"/>
</g>
<g id="&#226;&#134;&#170;&#240;&#159;&#142;&#168;Color" mask="url(#mask0_outline)">
<g id="Rectangle 3">
<use xlink:href="#path1_fill" transform="translate(157 130)" fill="#333333"/>
</g>
</g>
</g>
</g>
<defs>
<path id="path0_fill" d="M 11 7.96826L 11.0859 7.96826L 7 11.9565L 1.06641 6.16748C 1.00391 6.10498 0.960938 6.03467 0.902344 5.96826L 1.76172 5.96826L 3.96875 3.54248L 6.98438 6.27686L 9 4.26123L 10.707 5.96826L 11.7031 5.96826L 12.2344 5.45264C 12.7266 4.96045 13 4.30029 13 3.59717C 13 2.89404 12.7266 2.23389 12.2305 1.73779C 11.2344 0.745606 9.50391 0.745606 8.51172 1.73779L 7 3.37061L 5.47266 1.72607C 4.99219 1.2417 4.33203 0.968262 3.62891 0.968262C 2.92578 0.968262 2.26562 1.2417 1.76953 1.73779C 1.27344 2.23389 1 2.89404 1 3.59717C 1 4.08936 1.14062 4.55811 1.39453 4.96826L 0.269531 4.96826C 0.0898438 4.53467 0 4.06592 0 3.59717C 0 2.62842 0.378906 1.71436 1.0625 1.03076C 2.43359 -0.340332 4.82422 -0.340332 6.19531 1.03076L 7 1.89795L 7.79297 1.04639C 9.19141 -0.35205 11.5664 -0.340332 12.9375 1.03076C 13.6211 1.71826 14 2.62842 14 3.59717C 14 4.56592 13.6211 5.47607 12.9375 6.16357L 12.1094 6.96826L 10.293 6.96826L 9 5.67529L 7.01562 7.65967L 4.02734 4.92529L 2.69922 6.36279L 7 10.5581L 9.65234 7.96826L 11 7.96826Z"/>
<path id="path1_fill" fill-rule="evenodd" d="M 0 0L 14 0L 14 14L 0 14L 0 0Z"/>
</defs>
</svg>
