<svg width="1000" height="1000" viewBox="0 0 1000 1000" version="1.1" xmlns="http://www.w3.org/2000/svg" xmlns:xlink="http://www.w3.org/1999/xlink">
<title>image-action-log</title>
<desc>Created using Figma</desc>
<g id="Canvas" transform="matrix(71.4286 0 0 71.4286 -19785.7 -9285.71)">
<rect x="277" y="130" width="14" height="14" fill="#E5E5E5"/>
<g id="image-action-log">
<mask id="mask0_outline" mask-type="alpha">
<g id="Mask">
<use xlink:href="#path0_fill" transform="translate(277 130)" fill="#FFFFFF"/>
</g>
</mask>
<g id="Mask" mask="url(#mask0_outline)">
<use xlink:href="#path0_fill" transform="translate(277 130)"/>
</g>
<g id="&#226;&#134;&#170;&#240;&#159;&#142;&#168;Color" mask="url(#mask0_outline)">
<g id="Rectangle 3">
<use xlink:href="#path1_fill" transform="translate(277 130)"/>
</g>
</g>
</g>
</g>
<defs>
<path id="path0_fill" fill-rule="evenodd" d="M 0 10L 4 10L 4 8L 8 8L 8 6.15625L 7.125 7.03125L 3.0625 2.96875L 1 5.03125L 1 1L 10 1L 10 4L 11 4L 11 0L 0 0L 0 10ZM 11 9L 14 9L 14 10L 11 10L 11 9ZM 8 10L 5 10L 5 9L 8 9L 8 10ZM 9 14L 10 14L 10 11L 9 11L 9 14ZM 10 8L 9 8L 9 5L 10 5L 10 8ZM 6 3C 6 2.44922 6.44922 2 7 2C 7.55078 2 8 2.44922 8 3C 8 3.55078 7.55078 4 7 4C 6.44922 4 6 3.55078 6 3Z"/>
<path id="path1_fill" fill-rule="evenodd" d="M 0 0L 14 0L 14 14L 0 14L 0 0Z"/>
</defs>
</svg>
