<svg width="1335" height="1001" viewBox="0 0 1335 1001" version="1.1" xmlns="http://www.w3.org/2000/svg" xmlns:xlink="http://www.w3.org/1999/xlink">
<title>install-to-drive</title>
<desc>Created using Figma</desc>
<g id="Canvas" transform="matrix(111.222 0 0 111.222 -20131.2 -30808.6)">
<g id="install-to-drive">
<use xlink:href="#path0_fill" transform="translate(181 274)"/>
</g>
</g>
<defs>
<path id="path0_fill" d="M 10.125 3.75C 10.3828 3.75 10.625 3.80078 10.8516 3.90234C 11.0781 4 11.2754 4.13477 11.4434 4.30664C 11.6152 4.47461 11.75 4.67188 11.8477 4.89844C 11.9492 5.125 12 5.36719 12 5.625L 12 8.25L 11.25 8.25L 11.25 5.625C 11.25 5.46875 11.2207 5.32227 11.1621 5.18555C 11.1035 5.04883 11.0234 4.92969 10.9219 4.82812C 10.8203 4.72656 10.7012 4.64648 10.5645 4.58789C 10.4277 4.5293 10.2812 4.5 10.125 4.5L 1.875 4.5C 1.71875 4.5 1.57227 4.5293 1.43555 4.58789C 1.29883 4.64648 1.17969 4.72656 1.07812 4.82812C 0.976563 4.92969 0.896484 5.04883 0.837891 5.18555C 0.779297 5.32227 0.75 5.46875 0.75 5.625L 0.75 7.5L 9 7.5L 9 8.25L 0 8.25L 0 5.625C 0 5.36719 0.0488281 5.125 0.146484 4.89844C 0.244141 4.67188 0.376953 4.47461 0.544922 4.30664C 0.716797 4.13477 0.916016 4 1.14258 3.90234C 1.37305 3.80078 1.61719 3.75 1.875 3.75L 10.125 3.75ZM 11.4551 9.01758L 11.9824 9.54492L 10.125 11.4023L 8.26758 9.54492L 8.79492 9.01758L 9.75 9.9668L 9.75 6.75L 10.5 6.75L 10.5 9.9668L 11.4551 9.01758ZM 10.5 6L 9.75 6L 9.75 5.25L 10.5 5.25L 10.5 6ZM 8.25 5.25L 9 5.25L 9 6L 8.25 6L 8.25 5.25Z"/>
</defs>
</svg>
