<svg width="1252" height="1001" viewBox="0 0 1252 1001" version="1.1" xmlns="http://www.w3.org/2000/svg" xmlns:xlink="http://www.w3.org/1999/xlink">
<title>javascript</title>
<desc>Created using Figma</desc>
<g id="Canvas" transform="matrix(125.125 0 0 125.125 -155030 -31656.6)">
<g id="javascript">
<use xlink:href="#path0_fill" transform="translate(1239 253)"/>
</g>
</g>
<defs>
<path id="path0_fill" d="M 0.82369 7.1875C 1.11867 7.1875 1.35466 7.11875 1.53165 6.98125C 1.70865 6.83958 1.84252 6.66458 1.93329 6.45625C 2.02859 6.24792 2.08986 6.02292 2.11709 5.78125C 2.14432 5.53958 2.15793 5.31458 2.15793 5.10625L 2.15793 0.13125L 3.145 0.13125L 3.145 5.09375C 3.145 5.43542 3.10642 5.77917 3.02927 6.125C 2.95212 6.47083 2.82278 6.78333 2.64125 7.0625C 2.45972 7.3375 2.2192 7.5625 1.91967 7.7375C 1.62015 7.9125 1.25028 8 0.810075 8C 0.673928 8 0.535512 7.99167 0.394826 7.975C 0.258679 7.95833 0.127071 7.92292 0 7.86875L 0 6.975C 0.117994 7.05417 0.247334 7.11042 0.388019 7.14375C 0.533243 7.17292 0.678466 7.1875 0.82369 7.1875ZM 5.93601 1.9875C 5.93601 2.17917 5.97459 2.34792 6.05174 2.49375C 6.13342 2.63958 6.25369 2.77292 6.41253 2.89375C 6.61221 3.04375 6.83004 3.175 7.06603 3.2875C 7.30202 3.39583 7.53574 3.50208 7.76719 3.60625C 8.02587 3.72708 8.28682 3.85833 8.55003 4C 8.81779 4.1375 9.05832 4.29792 9.27161 4.48125C 9.48945 4.66458 9.66417 4.875 9.79578 5.1125C 9.93193 5.34583 10 5.61458 10 5.91875C 10 6.31875 9.9115 6.65208 9.73451 6.91875C 9.56206 7.18542 9.33515 7.4 9.05378 7.5625C 8.77241 7.72083 8.45019 7.83333 8.08713 7.9C 7.72861 7.96667 7.36555 8 6.99796 8C 6.85727 8 6.68936 7.98958 6.49421 7.96875C 6.30361 7.94792 6.10846 7.91875 5.90878 7.88125C 5.7091 7.84375 5.51849 7.79792 5.33696 7.74375C 5.15543 7.68958 5.00567 7.62708 4.88768 7.55625L 4.88768 6.4875C 5.01929 6.59583 5.17813 6.69375 5.36419 6.78125C 5.5548 6.86458 5.75221 6.9375 5.95643 7C 6.16519 7.05833 6.37395 7.10417 6.58271 7.1375C 6.79147 7.17083 6.98207 7.1875 7.15453 7.1875C 7.3769 7.1875 7.59474 7.17083 7.80803 7.1375C 8.02587 7.10417 8.21874 7.04167 8.38666 6.95C 8.55911 6.85833 8.69753 6.73542 8.80191 6.58125C 8.91082 6.42708 8.96528 6.22708 8.96528 5.98125C 8.96528 5.76458 8.90629 5.575 8.78829 5.4125C 8.67484 5.24583 8.5228 5.09583 8.3322 4.9625C 8.14159 4.82917 7.92376 4.70625 7.67869 4.59375C 7.43363 4.47708 7.18403 4.36042 6.92988 4.24375C 6.68028 4.12708 6.43295 4.00208 6.18788 3.86875C 5.94282 3.73542 5.72498 3.58542 5.53438 3.41875C 5.34377 3.24792 5.18947 3.05417 5.07148 2.8375C 4.95802 2.61667 4.90129 2.36042 4.90129 2.06875C 4.90129 1.70208 4.98752 1.38958 5.15997 1.13125C 5.33696 0.86875 5.56388 0.654167 5.84071 0.4875C 6.12208 0.320833 6.43749 0.197917 6.78693 0.11875C 7.13637 0.0395833 7.48355 0 7.82845 0C 7.9646 0 8.11209 0.00416667 8.27093 0.0125C 8.43431 0.0166667 8.59542 0.0291667 8.75425 0.05C 8.91763 0.0666667 9.0742 0.09375 9.22396 0.13125C 9.37826 0.16875 9.51895 0.216667 9.64602 0.275L 9.64602 1.29375C 9.36465 1.11875 9.05832 0.995833 8.72703 0.925C 8.40027 0.854167 8.06898 0.81875 7.73315 0.81875C 7.53347 0.81875 7.32698 0.839583 7.11368 0.88125C 6.90492 0.91875 6.71205 0.983333 6.53506 1.075C 6.36261 1.1625 6.21965 1.28125 6.10619 1.43125C 5.99274 1.58125 5.93601 1.76667 5.93601 1.9875Z"/>
</defs>
</svg>
