<svg width="1274" height="1001" viewBox="0 0 1274 1001" version="1.1" xmlns="http://www.w3.org/2000/svg" xmlns:xlink="http://www.w3.org/1999/xlink">
<title>laptop-selected</title>
<desc>Created using Figma</desc>
<g id="Canvas" transform="matrix(91 0 0 91 -86268 -22932)">
<g id="laptop-selected">
<use xlink:href="#path0_fill" transform="translate(948 250)"/>
</g>
</g>
<defs>
<path id="path0_fill" d="M 6.94531 10.8828L 7.4375 11.375L 0.875 11.375C 0.761068 11.375 0.651693 11.3522 0.546875 11.3066C 0.442057 11.2565 0.348633 11.1904 0.266602 11.1084C 0.18457 11.0264 0.11849 10.9329 0.0683594 10.8281C 0.0227865 10.7233 0 10.6139 0 10.5C 0 10.4271 0.00683594 10.3451 0.0205078 10.2539C 0.038737 10.1628 0.0615234 10.0739 0.0888672 9.9873C 0.120768 9.90072 0.157227 9.81868 0.198242 9.74121C 0.243815 9.65918 0.293945 9.59082 0.348633 9.53613L 1.75 8.12793L 1.75 2.625L 11.375 2.625L 11.375 8.12793L 10.7529 8.75L 2.37207 8.75L 0.984375 10.1309C 0.970703 10.1445 0.957031 10.1696 0.943359 10.2061C 0.929688 10.238 0.916016 10.2721 0.902344 10.3086C 0.893229 10.3451 0.886393 10.3815 0.881836 10.418C 0.877279 10.4544 0.875 10.4818 0.875 10.5L 7.33496 10.5L 6.94531 10.8828ZM 2.625 7.875L 10.5 7.875L 10.5 3.5L 2.625 3.5L 2.625 7.875ZM 13.8701 8.95508L 10.0625 12.7627L 8.22363 10.9238L 8.83887 10.3018L 10.0625 11.5254L 13.2549 8.33301L 13.8701 8.95508Z"/>
</defs>
</svg>
