<svg width="751" height="1001" viewBox="0 0 751 1001" version="1.1" xmlns="http://www.w3.org/2000/svg" xmlns:xlink="http://www.w3.org/1999/xlink">
<title>lightbulb</title>
<desc>Created using Figma</desc>
<g id="Canvas" transform="matrix(83.4167 0 0 83.4167 -37287.2 -22856.2)">
<g id="lightbulb">
<use xlink:href="#path0_fill" transform="translate(446 274)"/>
</g>
</g>
<defs>
<path id="path0_fill" d="M 5.625 0C 6.00391 0 6.36914 0.0488284 6.7207 0.146484C 7.07227 0.24414 7.40039 0.382813 7.70508 0.5625C 8.01367 0.742187 8.29297 0.957031 8.54297 1.20703C 8.79297 1.45703 9.00781 1.73633 9.1875 2.04492C 9.36719 2.34961 9.50586 2.67773 9.60352 3.0293C 9.70117 3.38086 9.75 3.74609 9.75 4.125C 9.75 4.69141 9.64258 5.2168 9.42773 5.70117C 9.21289 6.18555 8.90625 6.625 8.50781 7.01953C 8.18359 7.33984 7.93359 7.69727 7.75781 8.0918C 7.58594 8.48633 7.5 8.91406 7.5 9.375L 7.5 10.875C 7.5 11.0313 7.4707 11.1777 7.41211 11.3145C 7.35352 11.4512 7.27344 11.5703 7.17188 11.6719C 7.07031 11.7734 6.95117 11.8535 6.81445 11.9121C 6.67773 11.9707 6.53125 12 6.375 12L 4.875 12C 4.71875 12 4.57227 11.9707 4.43555 11.9121C 4.29883 11.8535 4.17969 11.7734 4.07812 11.6719C 3.97656 11.5703 3.89648 11.4512 3.83789 11.3145C 3.7793 11.1777 3.75 11.0313 3.75 10.875L 3.75 9.375C 3.75 8.91406 3.66211 8.48633 3.48633 8.0918C 3.31445 7.69727 3.06641 7.33984 2.74219 7.01953C 2.34375 6.625 2.03711 6.18555 1.82227 5.70117C 1.60742 5.2168 1.5 4.69141 1.5 4.125C 1.5 3.74609 1.54883 3.38086 1.64648 3.0293C 1.74414 2.67773 1.88281 2.34961 2.0625 2.04492C 2.24219 1.73633 2.45703 1.45703 2.70703 1.20703C 2.95703 0.957031 3.23438 0.742187 3.53906 0.5625C 3.84766 0.382813 4.17773 0.24414 4.5293 0.146484C 4.88086 0.0488284 5.24609 0 5.625 0ZM 6.375 11.25C 6.47656 11.25 6.56445 11.2129 6.63867 11.1387C 6.71289 11.0645 6.75 10.9766 6.75 10.875L 6.75 9.75L 4.5 9.75L 4.5 10.875C 4.5 10.9766 4.53711 11.0645 4.61133 11.1387C 4.68555 11.2129 4.77344 11.25 4.875 11.25L 6.375 11.25ZM 6.76758 9C 6.81836 8.49609 6.94727 8.03906 7.1543 7.62891C 7.36133 7.21875 7.64062 6.83594 7.99219 6.48047C 8.31641 6.15234 8.56445 5.79492 8.73633 5.4082C 8.91211 5.01758 9 4.58984 9 4.125C 9 3.66016 8.91016 3.22266 8.73047 2.8125C 8.55469 2.40234 8.31445 2.04492 8.00977 1.74023C 7.70508 1.43555 7.34766 1.19531 6.9375 1.01953C 6.52734 0.839844 6.08984 0.75 5.625 0.75C 5.16016 0.75 4.72266 0.839844 4.3125 1.01953C 3.90234 1.19531 3.54492 1.43555 3.24023 1.74023C 2.93555 2.04492 2.69336 2.40234 2.51367 2.8125C 2.33789 3.22266 2.25 3.66016 2.25 4.125C 2.25 4.58984 2.33594 5.01758 2.50781 5.4082C 2.68359 5.79492 2.93359 6.15234 3.25781 6.48047C 3.60938 6.83594 3.88867 7.21875 4.0957 7.62891C 4.30273 8.03906 4.43164 8.49609 4.48242 9L 6.76758 9Z"/>
</defs>
</svg>
