<svg width="934" height="1001" viewBox="0 0 934 1001" version="1.1" xmlns="http://www.w3.org/2000/svg" xmlns:xlink="http://www.w3.org/1999/xlink">
<title>link-remove</title>
<desc>Created using Figma</desc>
<g id="Canvas" transform="matrix(66.6667 0 0 66.6667 -23266.7 -8666.67)">
<rect x="349" y="130" width="14" height="15" fill="#E5E5E5"/>
<g id="link-remove">
<mask id="mask0_outline" mask-type="alpha">
<g id="Mask">
<use xlink:href="#path0_fill" transform="translate(349 130)" fill="#FFFFFF"/>
</g>
</mask>
<g id="Mask" mask="url(#mask0_outline)">
<use xlink:href="#path0_fill" transform="translate(349 130)"/>
</g>
<g id="&#226;&#134;&#170;&#240;&#159;&#142;&#168;Color" mask="url(#mask0_outline)">
<g id="Rectangle 3">
<use xlink:href="#path1_fill" transform="translate(349 130)"/>
</g>
</g>
</g>
</g>
<defs>
<path id="path0_fill" fill-rule="evenodd" d="M 2.37692 3.31548L 0.710709 5.10008L 0 4.33465L 1.66228 2.55004L 0 0.769669L 0.714661 0.00422668L 2.37692 1.78461L 4.04315 0L 4.75781 0.765434L 3.09158 2.55004L 4.75781 4.33465L 4.04315 5.10008L 2.37692 3.31548ZM 13.2153 2.8503C 12.1689 1.72963 10.4672 1.72963 9.4248 2.8503L 6.04105 6.47449C 5.53564 7.01579 5.25531 7.73893 5.25531 8.50437C 5.25531 9.27403 5.53564 9.99295 6.04105 10.5343C 6.15555 10.6569 6.28189 10.7711 6.41614 10.8726L 6.9926 9.98026C 6.90968 9.91683 6.83072 9.84917 6.75569 9.76881C 6.43982 9.4305 6.2661 8.98224 6.2661 8.50437C 6.2661 8.0265 6.43982 7.57823 6.75569 7.23992L 10.1395 3.61573C 10.791 2.91796 11.8491 2.91796 12.5006 3.61573C 13.1521 4.3135 13.1521 5.44685 12.5006 6.14463L 11.2687 7.46405L 11.9834 8.22949L 13.2153 6.91006C 14.2616 5.7894 14.2616 3.97096 13.2153 2.8503ZM 8.90363 7.04539L 9.49588 6.17001C 9.61433 6.25881 9.72884 6.36031 9.8315 6.47449C 10.3369 7.01579 10.6172 7.73894 10.6172 8.50437C 10.6172 9.26981 10.3369 9.99296 9.8315 10.5343L 6.44772 14.1584C 5.92653 14.7209 5.23952 15 4.55249 15C 3.86548 15 3.17845 14.7167 2.65727 14.1584C 1.61095 13.042 1.61095 11.2193 2.65727 10.0987L 3.88522 8.77925L 4.59988 9.54469L 3.37193 10.8641C 2.72044 11.5619 2.72044 12.6952 3.37193 13.393C 4.02341 14.0908 5.08157 14.0908 5.73306 13.393L 9.11684 9.76882C 9.43271 9.43051 9.60643 8.98224 9.60643 8.50437C 9.60643 8.0265 9.43271 7.57824 9.11684 7.23992C 9.04971 7.16803 8.97864 7.1046 8.90363 7.04539Z"/>
<path id="path1_fill" fill-rule="evenodd" d="M 0 0L 14 0L 14 14L 0 14L 0 0Z"/>
</defs>
</svg>
