<svg width="1001" height="1001" viewBox="0 0 1001 1001" version="1.1" xmlns="http://www.w3.org/2000/svg" xmlns:xlink="http://www.w3.org/1999/xlink">
<title>live-update-feed</title>
<desc>Created using Figma</desc>
<g id="Canvas" transform="matrix(71.5 0 0 71.5 -26669.5 -9295)">
<rect x="373" y="130" width="14" height="14" fill="#E5E5E5"/>
<g id="live-update-feed">
<mask id="mask0_outline" mask-type="alpha">
<g id="Mask">
<use xlink:href="#path0_fill" transform="translate(373 132)" fill="#FFFFFF"/>
</g>
</mask>
<g id="Mask" mask="url(#mask0_outline)">
<use xlink:href="#path0_fill" transform="translate(373 132)"/>
</g>
<g id="&#226;&#134;&#170;&#240;&#159;&#142;&#168;Color" mask="url(#mask0_outline)">
<g id="Rectangle 3">
<use xlink:href="#path1_fill" transform="translate(373 130)"/>
</g>
</g>
</g>
</g>
<defs>
<path id="path0_fill" fill-rule="evenodd" d="M 12.082 0C 13.3203 1.26172 14 2.91406 14 4.65234C 14 6.51172 13.1992 8.30859 11.7969 9.58203L 11.125 8.84375C 12.332 7.74219 13 6.25391 13 4.65234C 13 3.17969 12.4219 1.77344 11.3672 0.699219L 12.082 0ZM 2.875 8.84375C 1.66406 7.74219 1 6.25391 1 4.65234C 1 3.17969 1.57812 1.77734 2.62891 0.703125L 1.91406 0.00390625C 0.679688 1.26562 0 2.91797 0 4.65234C 0 6.51172 0.800781 8.30859 2.19922 9.58203L 2.875 8.84375ZM 4.96484 7.05078C 4.32422 6.47266 3.95312 5.64453 3.95312 4.78516C 3.95312 3.91797 4.32422 3.08984 4.96875 2.51172L 4.30078 1.76953C 3.44531 2.53516 2.95312 3.63281 2.95312 4.78125C 2.95312 5.92969 3.44531 7.02734 4.29688 7.79297L 4.96484 7.05078ZM 8.5 4.78125C 8.5 5.60938 7.82812 6.28125 7 6.28125C 6.17188 6.28125 5.5 5.60938 5.5 4.78125C 5.5 3.95312 6.17188 3.28125 7 3.28125C 7.82812 3.28125 8.5 3.95312 8.5 4.78125ZM 9.70312 1.76953C 10.5586 2.53516 11.0469 3.63281 11.0469 4.78125C 11.0469 5.92969 10.5547 7.02734 9.69922 7.79297L 9.03125 7.05078C 9.67578 6.47266 10.0469 5.64453 10.0469 4.78125C 10.0469 3.91797 9.67578 3.08984 9.03516 2.51172L 9.70312 1.76953Z"/>
<path id="path1_fill" fill-rule="evenodd" d="M 0 0L 14 0L 14 14L 0 14L 0 0Z"/>
</defs>
</svg>
