<svg width="1001" height="1001" viewBox="0 0 1001 1001" version="1.1" xmlns="http://www.w3.org/2000/svg" xmlns:xlink="http://www.w3.org/1999/xlink">
<title>locale-timezone</title>
<desc>Created using Figma</desc>
<g id="Canvas" transform="matrix(71.5 0 0 71.5 -31817.5 -9295)">
<rect x="445" y="130" width="14" height="14" fill="#E5E5E5"/>
<g id="locale-timezone">
<mask id="mask0_outline" mask-type="alpha">
<g id="Mask">
<use xlink:href="#path0_fill" transform="translate(445 130)" fill="#FFFFFF"/>
</g>
</mask>
<g id="Mask" mask="url(#mask0_outline)">
<use xlink:href="#path0_fill" transform="translate(445 130)"/>
</g>
<g id="&#226;&#134;&#170;&#240;&#159;&#142;&#168;Color" mask="url(#mask0_outline)">
<g id="Rectangle 3">
<use xlink:href="#path1_fill" transform="translate(445 130)"/>
</g>
</g>
</g>
</g>
<defs>
<path id="path0_fill" fill-rule="evenodd" d="M 4 8.94922L 4 7.94922C 2.30859 7.70312 1 6.25781 1 4.5C 1 2.57031 2.57031 1 4.5 1C 6.25781 1 7.70312 2.30859 7.94922 4L 8.94922 4C 8.69531 1.75781 6.80859 0 4.5 0C 2.01953 0 0 2.01953 0 4.5C 0 6.80859 1.75781 8.69531 4 8.94922ZM 6.5 5L 4 5L 4 2L 5 2L 5 4L 6.5 4L 6.5 5ZM 5.25 9.625C 5.25 7.21094 7.21094 5.25 9.625 5.25C 12.0391 5.25 14 7.21094 14 9.625C 14 12.0352 12.0391 14 9.625 14C 7.21094 14 5.25 12.0391 5.25 9.625ZM 9.6543 13.123C 9.66406 13.1221 9.67383 13.1211 9.68359 13.1211C 9.89844 13.0781 10.2539 12.7812 10.4141 11.375L 8.84766 11.375C 9.00391 12.6289 9.33203 13.125 9.625 13.125C 9.63477 13.125 9.64453 13.124 9.6543 13.123ZM 8.76953 10.5C 8.75781 10.2305 8.75 9.94141 8.75 9.625C 8.75 9.30859 8.75781 9.01953 8.77344 8.75L 10.4766 8.75C 10.4922 9.01953 10.5 9.30859 10.5 9.625C 10.5 9.94922 10.4922 10.2344 10.4805 10.5L 8.76953 10.5ZM 6.25 8.75C 6.17578 9.03125 6.125 9.32031 6.125 9.625C 6.125 9.92969 6.17578 10.2188 6.25 10.5L 7.89844 10.5C 7.88672 10.2227 7.875 9.9375 7.875 9.625C 7.875 9.3125 7.88672 9.02734 7.89844 8.75L 6.25 8.75ZM 9.625 6.125C 9.87109 6.125 10.2148 6.63281 10.3906 7.875L 8.85547 7.875C 9.01172 6.69141 9.32422 6.125 9.625 6.125ZM 13 8.75L 11.3516 8.75C 11.3633 9.02734 11.375 9.31641 11.375 9.625C 11.375 9.91406 11.3672 10.207 11.3594 10.5L 13 10.5C 13.0742 10.2188 13.125 9.92969 13.125 9.625C 13.125 9.32031 13.0742 9.03125 13 8.75ZM 12.6367 7.875L 11.2734 7.875C 11.1953 7.28125 11.082 6.77734 10.9258 6.38281C 11.6523 6.67188 12.2461 7.20312 12.6367 7.875ZM 7.96875 7.875C 8.04297 7.28125 8.14844 6.78125 8.30078 6.38672C 7.58594 6.68359 7 7.21094 6.61328 7.875L 7.96875 7.875ZM 6.61328 11.375L 7.96875 11.375C 8.03516 11.9688 8.14062 12.4688 8.28906 12.8594C 7.57812 12.5625 6.99609 12.0352 6.61328 11.375ZM 11.293 11.375C 11.2383 11.9219 11.1367 12.4297 10.9766 12.8516C 11.6797 12.5586 12.2578 12.0312 12.6367 11.375L 11.293 11.375Z"/>
<path id="path1_fill" fill-rule="evenodd" d="M 0 0L 14 0L 14 14L 0 14L 0 0Z"/>
</defs>
</svg>
