<svg width="934" height="1001" viewBox="0 0 934 1001" version="1.1" xmlns="http://www.w3.org/2000/svg" xmlns:xlink="http://www.w3.org/1999/xlink">
<title>locale-language</title>
<desc>Created using Figma</desc>
<g id="Canvas" transform="matrix(66.6667 0 0 66.6667 -28066.7 -8666.67)">
<rect x="421" y="130" width="14" height="15" fill="#E5E5E5"/>
<g id="locale-language">
<mask id="mask0_outline" mask-type="alpha">
<g id="Mask">
<use xlink:href="#path0_fill" transform="translate(421 130)" fill="#FFFFFF"/>
</g>
</mask>
<g id="Mask" mask="url(#mask0_outline)">
<use xlink:href="#path0_fill" transform="translate(421 130)"/>
</g>
<g id="&#226;&#134;&#170;&#240;&#159;&#142;&#168;Color" mask="url(#mask0_outline)">
<g id="Rectangle 3">
<use xlink:href="#path1_fill" transform="translate(421 130)" fill="#333333"/>
</g>
</g>
</g>
</g>
<defs>
<path id="path0_fill" fill-rule="evenodd" d="M 0 4.72973C 0 2.11993 1.99774 0 4.44824 0C 6.90268 0 8.89645 2.11993 8.89645 4.72973C 8.89645 4.86301 8.8801 4.98974 8.86356 5.11777L 8.86353 5.1181L 8.86346 5.11845L 8.8634 5.11884L 8.86334 5.11924L 8.86328 5.1198C 8.85681 5.1696 8.85034 5.21961 8.84482 5.27027L 7.95914 5.27027C 7.98694 5.0929 8.00681 4.91554 8.00681 4.72973C 8.00681 4.40034 7.95517 4.08784 7.87973 3.78378L 6.20367 3.78378C 6.21957 4.08362 6.22751 4.39612 6.22751 4.72973C 6.22751 4.9071 6.22354 5.08868 6.21957 5.27027L 5.32596 5.27027C 5.32703 5.22093 5.32849 5.17257 5.32993 5.12419L 5.33023 5.11443L 5.33057 5.10368L 5.33063 5.10143L 5.33072 5.09876L 5.33078 5.09649C 5.33432 4.98008 5.33786 4.86246 5.33786 4.72973C 5.33786 4.38767 5.32993 4.07516 5.31406 3.78378L 3.5824 3.78378C 3.56653 4.07516 3.55859 4.38767 3.55859 4.72973C 3.55859 5.07179 3.56653 5.38429 3.5824 5.67567L 4.96057 5.67567L 4.96057 6.62162L 3.65787 6.62162C 3.6936 6.93835 3.74127 7.20439 3.79688 7.43243L 2.88739 7.43243C 2.83575 7.18327 2.79602 6.91723 2.76425 6.62162L 1.38611 6.62162C 1.54895 6.92146 1.75943 7.19173 1.98978 7.43243L 1.91034 7.43243L 1.91034 8.6022C 0.758575 7.74915 0 6.33446 0 4.72973ZM 12.5305 6.51605L 13.6902 6.49493C 13.7418 6.49493 13.7696 6.50338 13.7816 6.51605C 13.7895 6.5245 13.7974 6.54984 13.7974 6.58784L 13.7816 7.11149L 13.7816 7.54223L 13.7974 8.61909C 13.7974 8.66976 13.7895 8.69933 13.7776 8.70777C 13.7657 8.71622 13.7339 8.72466 13.6902 8.72466L 12.9594 8.72466C 12.9118 8.72466 12.884 8.71622 12.876 8.70355C 12.8681 8.69088 12.8641 8.66132 12.8641 8.61909L 12.8641 7.37331L 7.2919 7.37331L 7.2919 8.61909C 7.2919 8.67399 7.28397 8.70777 7.26807 8.71622C 7.26013 8.72889 7.22836 8.73311 7.18466 8.73311L 6.46979 8.73311C 6.42212 8.73311 6.39035 8.72466 6.37842 8.70777C 6.37048 8.69511 6.36652 8.66554 6.36652 8.61909L 6.38242 7.54223L 6.38242 7.19595L 6.36652 6.58784C 6.36652 6.54561 6.37445 6.52027 6.38242 6.51183C 6.39432 6.49916 6.42609 6.49493 6.46979 6.49493L 7.62949 6.51605L 9.54382 6.51605L 9.54382 6.43159C 9.54382 6.02196 9.52396 5.72213 9.48425 5.54054C 9.77417 5.54054 10.0919 5.55743 10.4335 5.587C 10.5248 5.59544 10.5685 5.62923 10.5685 5.68412C 10.5685 5.71368 10.5486 5.7728 10.5129 5.86149C 10.4851 5.95439 10.4692 6.14021 10.4692 6.41892L 10.4692 6.51605L 12.5305 6.51605ZM 6.31491 11.4316L 7.42297 11.4105L 9.64313 11.4105L 9.64313 12.8167C 9.64313 12.9265 9.62326 13.0025 9.57959 13.0448C 9.53192 13.0912 9.44058 13.1166 9.29761 13.1166C 9.01163 13.1166 8.69788 13.0997 8.35632 13.0617C 8.49136 13.2981 8.58667 13.5304 8.63831 13.7627C 8.67007 13.8978 8.70184 13.9823 8.72568 14.0076C 8.75745 14.0372 8.84085 14.0541 8.97986 14.0541C 9.71063 14.0541 10.1594 13.9907 10.3262 13.8556C 10.505 13.7162 10.5923 13.4966 10.5923 13.1883L 10.5685 11.8919L 10.5685 11.4105L 12.7966 11.4105L 13.8967 11.4316C 13.9444 11.4316 13.9762 11.4231 13.9841 11.4147C 13.996 11.402 14 11.3725 14 11.326L 14 10.6166C 14 10.5659 13.996 10.5363 13.9881 10.5236C 13.9762 10.511 13.9484 10.5025 13.8967 10.5025L 12.7966 10.5194L 10.5685 10.5194L 10.5685 10.4392C 10.9418 10.1858 11.4383 9.78885 12.0539 9.24831C 12.2207 9.1005 12.3399 9.0076 12.4153 8.96537C 12.5107 8.9147 12.5583 8.85558 12.5583 8.77956C 12.5583 8.6951 12.4709 8.55152 12.2922 8.34882C 12.1175 8.15456 11.9983 8.06165 11.9308 8.06165C 11.899 8.06165 11.8633 8.0701 11.8196 8.08699C 11.76 8.11233 11.6687 8.125 11.5455 8.125L 8.95602 8.125L 7.79633 8.10388C 7.75262 8.10388 7.72482 8.10811 7.71292 8.12077C 7.70099 8.12922 7.69702 8.15878 7.69702 8.20946L 7.69702 8.91047C 7.69702 8.9527 7.70099 8.98226 7.70895 8.99071C 7.71689 9.00338 7.74469 9.01183 7.79633 9.01183L 8.95602 8.99071L 11.0967 8.99071C 10.7036 9.375 10.3977 9.64527 10.1793 9.80574C 10.0641 9.79308 9.86554 9.77196 9.58752 9.74239C 9.61136 9.91976 9.6312 10.1774 9.64313 10.5194L 7.42297 10.5194L 6.31491 10.5025C 6.27121 10.5025 6.24341 10.5068 6.23151 10.5152C 6.22354 10.5279 6.21561 10.5617 6.21561 10.6166L 6.21561 11.326C 6.21561 11.3682 6.21957 11.3978 6.22751 11.4105C 6.23944 11.4231 6.26724 11.4316 6.31491 11.4316ZM 4.05109 8.37838L 2.81985 8.37838L 0.742706 15L 1.68002 15L 2.27179 13.1081L 4.59915 13.1081L 5.19092 15L 6.12823 15L 4.05109 8.37838ZM 2.56964 12.1622L 3.43546 9.40034L 4.30127 12.1622L 2.56964 12.1622ZM 2.69278 5.67567L 1.01675 5.67567C 0.941284 5.37162 0.889648 5.05912 0.889648 4.72973C 0.889648 4.40034 0.941284 4.08784 1.01675 3.78378L 2.69278 3.78378C 2.68085 4.08361 2.66895 4.39189 2.66895 4.72973C 2.66895 5.06757 2.68085 5.37585 2.69278 5.67567ZM 1.38611 2.83784L 2.76825 2.83784C 2.83972 2.19595 2.95093 1.6554 3.10583 1.22888C 2.37503 1.54983 1.7793 2.11993 1.38611 2.83784ZM 3.6658 2.83784C 3.82468 1.55827 4.1424 0.945946 4.44821 0.945946C 4.69843 0.945946 5.05191 1.49493 5.22665 2.83784L 3.6658 2.83784ZM 5.77078 1.22466C 5.92966 1.65118 6.0488 2.19595 6.12427 2.83784L 7.51434 2.83784C 7.11716 2.11149 6.50952 1.53716 5.77078 1.22466Z"/>
<path id="path1_fill" fill-rule="evenodd" d="M 0 0L 14 0L 14 14L 0 14L 0 0Z"/>
</defs>
</svg>
