<svg width="835" height="1001" viewBox="0 0 835 1001" version="1.1" xmlns="http://www.w3.org/2000/svg" xmlns:xlink="http://www.w3.org/1999/xlink">
<title>lock</title>
<desc>Created using Figma</desc>
<g id="Canvas" transform="matrix(83.4167 0 0 83.4167 -105355 -20937.6)">
<g id="lock">
<use xlink:href="#path0_fill" transform="translate(1262 251)"/>
</g>
</g>
<defs>
<path id="path0_fill" d="M 10.5 5.25L 10.5 12L 1.5 12L 1.5 5.25L 3 5.25L 3 3.05859C 3 2.63672 3.07617 2.24023 3.22852 1.86914C 3.38086 1.49805 3.5918 1.17383 3.86133 0.896484C 4.13086 0.61914 4.44727 0.400391 4.81055 0.240234C 5.17773 0.0800779 5.57422 0 6 0C 6.42578 0 6.82031 0.0800779 7.18359 0.240234C 7.55078 0.400391 7.86914 0.61914 8.13867 0.896484C 8.4082 1.17383 8.61914 1.49805 8.77148 1.86914C 8.92383 2.24023 9 2.63672 9 3.05859L 9 5.25L 10.5 5.25ZM 3.75 5.25L 8.25 5.25L 8.25 3.05859C 8.25 2.74219 8.19336 2.44531 8.08008 2.16797C 7.9668 1.88672 7.80859 1.64062 7.60547 1.42969C 7.40625 1.21875 7.16797 1.05273 6.89062 0.931641C 6.61719 0.810547 6.32031 0.75 6 0.75C 5.67969 0.75 5.38086 0.810547 5.10352 0.931641C 4.83008 1.05273 4.5918 1.21875 4.38867 1.42969C 4.18945 1.64062 4.0332 1.88672 3.91992 2.16797C 3.80664 2.44531 3.75 2.74219 3.75 3.05859L 3.75 5.25ZM 9.75 6L 2.25 6L 2.25 11.25L 9.75 11.25L 9.75 6Z"/>
</defs>
</svg>
