<svg width="1000" height="1000" viewBox="0 0 1000 1000" version="1.1" xmlns="http://www.w3.org/2000/svg" xmlns:xlink="http://www.w3.org/1999/xlink">
<title>log-remove</title>
<desc>Created using Figma</desc>
<g id="Canvas" transform="matrix(71.4286 0 0 71.4286 -35214.3 -9285.71)">
<rect x="493" y="130" width="14" height="14" fill="#E5E5E5"/>
<g id="log-remove">
<mask id="mask0_outline" mask-type="alpha">
<g id="Mask">
<use xlink:href="#path0_fill" transform="translate(493 130)" fill="#FFFFFF"/>
</g>
</mask>
<g id="Mask" mask="url(#mask0_outline)">
<use xlink:href="#path0_fill" transform="translate(493 130)" fill="#FFFFFF"/>
</g>
<g id="&#226;&#134;&#170;&#240;&#159;&#142;&#168;Color" mask="url(#mask0_outline)">
<g id="Rectangle 3">
<use xlink:href="#path1_fill" transform="translate(493 130)" fill="#333333"/>
</g>
</g>
</g>
</g>
<defs>
<path id="path0_fill" fill-rule="evenodd" d="M 2.37677 1.66216L 4.04288 0L 4.75748 0.710655L 3.09137 2.37676L 4.75748 4.04286L 4.04288 4.75748L 2.37677 3.09137L 0.7146 4.75748L 0 4.04286L 1.66214 2.37676L 0 0.714607L 0.7146 0L 2.37677 1.66216ZM 14 2.88212L 14 14L 4.90356 14L 4.90356 13L 4 13L 4 12L 4.90356 12L 4.90356 11L 4 11L 4 10L 4.90356 10L 4.90356 9L 4 9L 4 8L 4.90356 8L 4.90356 7L 4 7L 4 6L 4.90356 6L 4.90356 5.91427L 5.91428 5.91427L 5.91428 12.9893L 12.9893 12.9893L 12.9893 3.89284L 6.92499 3.89284L 6.92499 2.88212L 14 2.88212ZM 6.92499 7.9357L 11.9786 7.9357L 11.9786 4.90355L 6.92499 4.90355L 6.92499 7.9357Z"/>
<path id="path1_fill" fill-rule="evenodd" d="M 0 0L 14 0L 14 14L 0 14L 0 0Z"/>
</defs>
</svg>
