<svg width="1000" height="1000" viewBox="0 0 1000 1000" version="1.1" xmlns="http://www.w3.org/2000/svg" xmlns:xlink="http://www.w3.org/1999/xlink">
<title>log</title>
<desc>Created using Figma</desc>
<g id="Canvas" transform="matrix(71.4286 0 0 71.4286 -33500 -9285.71)">
<rect x="469" y="130" width="14" height="14" fill="#E5E5E5"/>
<g id="log">
<mask id="mask0_outline" mask-type="alpha">
<g id="Mask">
<use xlink:href="#path0_fill" transform="translate(470 130)" fill="#FFFFFF"/>
</g>
</mask>
<g id="Mask" mask="url(#mask0_outline)">
<use xlink:href="#path0_fill" transform="translate(470 130)"/>
</g>
<g id="&#226;&#134;&#170;&#240;&#159;&#142;&#168;Color" mask="url(#mask0_outline)">
<g id="Rectangle 3">
<use xlink:href="#path1_fill" transform="translate(469 130)"/>
</g>
</g>
</g>
</g>
<defs>
<path id="path0_fill" fill-rule="evenodd" d="M 1 2L 1 0L 13 0L 13 14L 1 14L 1 12L 0 12L 0 11L 1 11L 1 9L 0 9L 0 8L 1 8L 1 6L 0 6L 0 5L 1 5L 1 3L 0 3L 0 2L 1 2ZM 2 13L 12 13L 12 1L 2 1L 2 2L 3 2L 3 3L 2 3L 2 5L 3 5L 3 6L 2 6L 2 8L 3 8L 3 9L 2 9L 2 11L 3 11L 3 12L 2 12L 2 13ZM 11 2L 4 2L 4 6L 11 6L 11 2ZM 5 5L 10 5L 10 3L 5 3L 5 5Z"/>
<path id="path1_fill" fill-rule="evenodd" d="M 0 0L 14 0L 14 14L 0 14L 0 0Z"/>
</defs>
</svg>
