<svg width="1001" height="1001" viewBox="0 0 1001 1001" version="1.1" xmlns="http://www.w3.org/2000/svg" xmlns:xlink="http://www.w3.org/1999/xlink">
<title>manufacture</title>
<desc>Created using Figma</desc>
<g id="Canvas" transform="matrix(83.4167 0 0 83.4167 -45211.8 -22856.2)">
<g id="manufacture">
<use xlink:href="#path0_fill" transform="translate(542 274)"/>
</g>
</g>
<defs>
<path id="path0_fill" d="M 12 7.7168L 12 9L 11.25 9L 11.25 8.0332L 10.6113 7.38867L 10.6289 7.37109C 10.4727 7.45703 10.2988 7.5 10.1074 7.5C 9.93555 7.5 9.77734 7.46484 9.63281 7.39453L 9 8.0332L 9 9L 8.25 9L 8.25 7.7168L 9.09961 6.87305L 9.08203 6.83203L 7.61133 3.53906L 5.2207 6.00586C 5.22852 6.06836 5.23437 6.13086 5.23828 6.19336C 5.24609 6.25195 5.25 6.3125 5.25 6.375L 5.25 11.25L 6 11.25L 6 12L 0 12L 0 11.25L 0.75 11.25L 0.75 6.375C 0.75 6.07812 0.804687 5.79883 0.914062 5.53711C 1.02344 5.27148 1.17188 5.03906 1.35938 4.83984C 1.55078 4.63672 1.77344 4.47266 2.02734 4.34766C 2.28516 4.22266 2.5625 4.15039 2.85938 4.13086L 6.42188 0.457031C 6.5625 0.308594 6.72656 0.195313 6.91406 0.117188C 7.10156 0.0390623 7.29688 0 7.5 0C 7.63672 0 7.77344 0.0214841 7.91016 0.0644531C 8.05078 0.103515 8.18164 0.162109 8.30273 0.240234C 8.42773 0.314453 8.53906 0.404297 8.63672 0.509766C 8.73437 0.611328 8.8125 0.726562 8.87109 0.855469L 11.1211 5.88281C 11.1562 5.96094 11.1816 6.04102 11.1973 6.12305C 11.2129 6.20508 11.2207 6.28711 11.2207 6.36914C 11.2207 6.46289 11.209 6.55664 11.1855 6.65039C 11.166 6.74023 11.1348 6.82617 11.0918 6.9082L 11.1387 6.86133L 12 7.7168ZM 4.5 11.25L 4.5 6.375C 4.5 6.16797 4.46094 5.97461 4.38281 5.79492C 4.30469 5.61133 4.19727 5.45117 4.06055 5.31445C 3.92383 5.17773 3.76367 5.07031 3.58008 4.99219C 3.40039 4.91406 3.20703 4.875 3 4.875C 2.79297 4.875 2.59766 4.91406 2.41406 4.99219C 2.23438 5.07031 2.07617 5.17773 1.93945 5.31445C 1.80273 5.45117 1.69531 5.61133 1.61719 5.79492C 1.53906 5.97461 1.5 6.16797 1.5 6.375L 1.5 11.25L 4.5 11.25ZM 3.77344 4.25977C 4.01562 4.34961 4.23633 4.47656 4.43555 4.64062C 4.63477 4.80469 4.80078 4.99805 4.93359 5.2207L 8.03906 2.02148C 8.17969 1.87305 8.25 1.69922 8.25 1.5C 8.25 1.39453 8.23047 1.29688 8.19141 1.20703C 8.15234 1.11719 8.09766 1.03906 8.02734 0.972656C 7.96094 0.902344 7.88281 0.847656 7.79297 0.808594C 7.70312 0.769531 7.60547 0.75 7.5 0.75C 7.28516 0.75 7.10547 0.826172 6.96094 0.978516L 3.77344 4.25977ZM 8.72461 2.36133C 8.6543 2.47461 8.56641 2.58008 8.46094 2.67773C 8.35937 2.77148 8.26367 2.86523 8.17383 2.95898L 9.32812 5.54297L 10.0137 5.25L 8.72461 2.36133ZM 10.1074 6.75C 10.2207 6.75 10.3105 6.71289 10.377 6.63867C 10.4434 6.56445 10.4766 6.47461 10.4766 6.36914C 10.4766 6.29102 10.457 6.2168 10.418 6.14648C 10.3828 6.07227 10.3496 6.00195 10.3184 5.93555L 9.63281 6.22852C 9.65625 6.28711 9.67969 6.34766 9.70312 6.41016C 9.72656 6.47266 9.75586 6.5293 9.79102 6.58008C 9.82617 6.63086 9.86719 6.67188 9.91406 6.70312C 9.96484 6.73437 10.0293 6.75 10.1074 6.75ZM 3 6C 3.10547 6 3.20313 6.01953 3.29297 6.05859C 3.38281 6.09766 3.46094 6.15234 3.52734 6.22266C 3.59766 6.28906 3.65234 6.36719 3.69141 6.45703C 3.73047 6.54687 3.75 6.64453 3.75 6.75C 3.75 6.85547 3.73047 6.95313 3.69141 7.04297C 3.65234 7.13281 3.59766 7.21289 3.52734 7.2832C 3.46094 7.34961 3.38281 7.40234 3.29297 7.44141C 3.20313 7.48047 3.10547 7.5 3 7.5C 2.89453 7.5 2.79688 7.48047 2.70703 7.44141C 2.61719 7.40234 2.53711 7.34961 2.4668 7.2832C 2.40039 7.21289 2.34766 7.13281 2.30859 7.04297C 2.26953 6.95313 2.25 6.85547 2.25 6.75C 2.25 6.64453 2.26953 6.54687 2.30859 6.45703C 2.34766 6.36719 2.40039 6.28906 2.4668 6.22266C 2.53711 6.15234 2.61719 6.09766 2.70703 6.05859C 2.79688 6.01953 2.89453 6 3 6Z"/>
</defs>
</svg>
