<svg width="1000" height="1000" viewBox="0 0 1000 1000" version="1.1" xmlns="http://www.w3.org/2000/svg" xmlns:xlink="http://www.w3.org/1999/xlink">
<title>map-pin-fill</title>
<desc>Created using Figma</desc>
<g id="Canvas" transform="matrix(71.4286 0 0 71.4286 -47214.3 -9285.71)">
<rect x="661" y="130" width="14" height="14" fill="#E5E5E5"/>
<g id="map-pin-fill">
<mask id="mask0_outline" mask-type="alpha">
<g id="Mask">
<use xlink:href="#path0_fill" transform="translate(664 130)" fill="#FFFFFF"/>
</g>
</mask>
<g id="Mask" mask="url(#mask0_outline)">
<use xlink:href="#path0_fill" transform="translate(664 130)"/>
</g>
<g id="&#226;&#134;&#170;&#240;&#159;&#142;&#168;Color" mask="url(#mask0_outline)">
<g id="Rectangle 3">
<use xlink:href="#path1_fill" transform="translate(661 130)"/>
</g>
</g>
</g>
</g>
<defs>
<path id="path0_fill" fill-rule="evenodd" d="M 0 4.51638C 0 2.02689 2.01953 0 4.5 0C 6.98047 0 9 2.02689 9 4.51638C 9 5.26519 8.8125 6.00616 8.46094 6.66088L 4.5 14L 0.550781 6.68048C 0.191406 6.02184 0 5.27303 0 4.51638ZM 2.5 4.51638C 2.5 5.62196 3.39844 6.52367 4.5 6.52367C 5.60156 6.52367 6.5 5.62196 6.5 4.51638C 6.5 3.41081 5.60156 2.5091 4.5 2.5091C 3.39844 2.5091 2.5 3.41081 2.5 4.51638Z"/>
<path id="path1_fill" fill-rule="evenodd" d="M 0 0L 14 0L 14 14L 0 14L 0 0Z"/>
</defs>
</svg>
