<svg width="1000" height="1000" viewBox="0 0 1000 1000" version="1.1" xmlns="http://www.w3.org/2000/svg" xmlns:xlink="http://www.w3.org/1999/xlink">
<title>map-destination</title>
<desc>Created using Figma</desc>
<g id="Canvas" transform="matrix(71.4286 0 0 71.4286 -42071.4 -9285.71)">
<rect x="589" y="130" width="14" height="14" fill="#E5E5E5"/>
<g id="map-destination">
<mask id="mask0_outline" mask-type="alpha">
<g id="Mask">
<use xlink:href="#path0_fill" transform="translate(589 130)" fill="#FFFFFF"/>
</g>
</mask>
<g id="Mask" mask="url(#mask0_outline)">
<use xlink:href="#path0_fill" transform="translate(589 130)"/>
</g>
<g id="&#226;&#134;&#170;&#240;&#159;&#142;&#168;Color" mask="url(#mask0_outline)">
<g id="Rectangle 3">
<use xlink:href="#path1_fill" transform="translate(589 130)"/>
</g>
</g>
</g>
</g>
<defs>
<path id="path0_fill" fill-rule="evenodd" d="M 0 7C 0 3.13998 3.13998 0 7 0C 10.86 0 14 3.13998 14 7C 14 10.86 10.86 14 7 14C 3.13998 14 0 10.86 0 7ZM 1.16666 7C 1.16666 10.2174 3.78253 12.8333 7 12.8333C 10.2174 12.8333 12.8333 10.2174 12.8333 7C 12.8333 3.78255 10.2174 1.16666 7 1.16666C 3.78253 1.16666 1.16666 3.78255 1.16666 7ZM 7 3.5C 5.06772 3.5 3.5 5.07227 3.5 7C 3.5 8.92773 5.07227 10.5 7 10.5C 8.92773 10.5 10.5 8.92773 10.5 7C 10.5 5.07227 8.93228 3.5 7 3.5ZM 4.66666 7C 4.66666 8.28516 5.71484 9.33333 7 9.33333C 8.28516 9.33333 9.33331 8.28516 9.33331 7C 9.33331 5.71484 8.28516 4.66666 7 4.66666C 5.71484 4.66666 4.66666 5.71484 4.66666 7Z"/>
<path id="path1_fill" fill-rule="evenodd" d="M 0 0L 14 0L 14 14L 0 14L 0 0Z"/>
</defs>
</svg>
