<svg width="1000" height="1000" viewBox="0 0 1000 1000" version="1.1" xmlns="http://www.w3.org/2000/svg" xmlns:xlink="http://www.w3.org/1999/xlink">
<title>math-minus-circle-outline</title>
<desc>Created using Figma</desc>
<g id="Canvas" transform="matrix(71.4286 0 0 71.4286 -55785.7 -9285.71)">
<rect x="781" y="130" width="14" height="14" fill="#E5E5E5"/>
<g id="math-minus-circle-outline">
<mask id="mask0_outline" mask-type="alpha">
<g id="Mask">
<use xlink:href="#path0_fill" transform="translate(781 130)" fill="#FFFFFF"/>
</g>
</mask>
<g id="Mask" mask="url(#mask0_outline)">
<use xlink:href="#path0_fill" transform="translate(781 130)"/>
</g>
<g id="&#226;&#134;&#170;&#240;&#159;&#142;&#168;Color" mask="url(#mask0_outline)">
<g id="Rectangle 3">
<use xlink:href="#path1_fill" transform="translate(781 130)" fill="#333333"/>
</g>
</g>
</g>
</g>
<defs>
<path id="path0_fill" fill-rule="evenodd" d="M 7 14C 3.14246 14 0 10.8618 0 7C 0 3.13822 3.14246 0 7 0C 10.8575 0 14 3.14243 14 7C 14 10.8576 10.8618 14 7 14ZM 7 1.07692C 3.73553 1.07692 1.0769 3.73557 1.0769 7C 1.0769 10.2644 3.73553 12.9231 7 12.9231C 10.2644 12.9231 12.923 10.2644 12.923 7C 12.923 3.73557 10.2644 1.07692 7 1.07692ZM 3.23077 6.46154L 10.7692 6.46154L 10.7692 7.53846L 3.23077 7.53846L 3.23077 6.46154Z"/>
<path id="path1_fill" fill-rule="evenodd" d="M 0 0L 14 0L 14 14L 0 14L 0 0Z"/>
</defs>
</svg>
