<svg width="1000" height="1000" viewBox="0 0 1000 1000" version="1.1" xmlns="http://www.w3.org/2000/svg" xmlns:xlink="http://www.w3.org/1999/xlink">
<title>math-multiply-box-outline</title>
<desc>Created using Figma</desc>
<g id="Canvas" transform="matrix(71.4286 0 0 71.4286 -64357.1 -9285.71)">
<rect x="901" y="130" width="14" height="14" fill="#E5E5E5"/>
<g id="math-multiply-box-outline">
<mask id="mask0_outline" mask-type="alpha">
<g id="Mask">
<use xlink:href="#path0_fill" transform="translate(901 130)" fill="#FFFFFF"/>
</g>
</mask>
<g id="Mask" mask="url(#mask0_outline)">
<use xlink:href="#path0_fill" transform="translate(901 130)"/>
</g>
<g id="&#226;&#134;&#170;&#240;&#159;&#142;&#168;Color" mask="url(#mask0_outline)">
<g id="Rectangle 3">
<use xlink:href="#path1_fill" transform="translate(901 130)" fill="#333333"/>
</g>
</g>
</g>
</g>
<defs>
<path id="path0_fill" fill-rule="evenodd" d="M 14 0L 14 14L 0 14L 0 0L 14 0ZM 1.0769 12.9231L 12.923 12.9231L 12.923 1.07692L 1.0769 1.07692L 1.0769 12.9231ZM 10.1214 3.12139L 10.8828 3.88281L 7.76141 7L 10.8828 10.1214L 10.1214 10.8828L 7 7.76142L 3.8786 10.8828L 3.11719 10.1214L 6.23859 7L 3.11719 3.87861L 3.8786 3.11719L 7 6.23858L 10.1214 3.12139Z"/>
<path id="path1_fill" fill-rule="evenodd" d="M 0 0L 14 0L 14 14L 0 14L 0 0Z"/>
</defs>
</svg>
