<svg width="1000" height="1000" viewBox="0 0 1000 1000" version="1.1" xmlns="http://www.w3.org/2000/svg" xmlns:xlink="http://www.w3.org/1999/xlink">
<title>math-multiply-box</title>
<desc>Created using Figma</desc>
<g id="Canvas" transform="matrix(71.4286 0 0 71.4286 -60928.6 -9285.71)">
<rect x="853" y="130" width="14" height="14" fill="#E5E5E5"/>
<g id="math-multiply-box">
<mask id="mask0_outline" mask-type="alpha">
<g id="Mask">
<use xlink:href="#path0_fill" transform="translate(853 130)" fill="#FFFFFF"/>
</g>
</mask>
<g id="Mask" mask="url(#mask0_outline)">
<use xlink:href="#path0_fill" transform="translate(853 130)"/>
</g>
<g id="&#226;&#134;&#170;&#240;&#159;&#142;&#168;Color" mask="url(#mask0_outline)">
<g id="Rectangle 3">
<use xlink:href="#path1_fill" transform="translate(853 130)"/>
</g>
</g>
</g>
</g>
<defs>
<path id="path0_fill" fill-rule="evenodd" d="M 0 14L 0 0L 14 0L 14 14L 0 14ZM 9.54297 10.957L 10.957 9.54297L 8.41406 7L 10.957 4.45703L 9.54297 3.04297L 7 5.58594L 4.45703 3.04297L 3.04297 4.45703L 5.58594 7L 3.04297 9.54297L 4.45703 10.957L 7 8.41406L 9.54297 10.957Z"/>
<path id="path1_fill" fill-rule="evenodd" d="M 0 0L 14 0L 14 14L 0 14L 0 0Z"/>
</defs>
</svg>
