<svg width="1001" height="1001" viewBox="0 0 1001 1001" version="1.1" xmlns="http://www.w3.org/2000/svg" xmlns:xlink="http://www.w3.org/1999/xlink">
<title>math-multiply-box-light</title>
<desc>Created using Figma</desc>
<g id="Canvas" transform="matrix(71.5 0 0 71.5 -62705.5 -9295)">
<rect x="877" y="130" width="14" height="14" fill="#E5E5E5"/>
<g id="math-multiply-box-light">
<mask id="mask0_outline" mask-type="alpha">
<g id="Mask">
<use xlink:href="#path0_fill" transform="translate(877 130)" fill="#FFFFFF"/>
</g>
</mask>
<g id="Mask" mask="url(#mask0_outline)">
<use xlink:href="#path0_fill" transform="translate(877 130)"/>
</g>
<g id="&#226;&#134;&#170;&#240;&#159;&#142;&#168;Color" mask="url(#mask0_outline)">
<g id="Rectangle 3">
<use xlink:href="#path1_fill" transform="translate(877 130)"/>
</g>
</g>
</g>
</g>
<defs>
<path id="path0_fill" fill-rule="evenodd" d="M 0 14L 0 0L 14 0L 14 14L 0 14ZM 9.85217 10.6136L 10.6136 9.85217L 7.76141 7L 10.6136 4.14784L 9.85217 3.38642L 7 6.23859L 4.14783 3.38642L 3.38641 4.14784L 6.23859 7L 3.38641 9.85217L 4.14783 10.6136L 7 7.76142L 9.85217 10.6136Z"/>
<path id="path1_fill" fill-rule="evenodd" d="M 0 0L 14 0L 14 14L 0 14L 0 0Z"/>
</defs>
</svg>
