<svg width="1000" height="1000" viewBox="0 0 1000 1000" version="1.1" xmlns="http://www.w3.org/2000/svg" xmlns:xlink="http://www.w3.org/1999/xlink">
<title>merge-duplicate</title>
<desc>Created using Figma</desc>
<g id="Canvas" transform="matrix(71.4286 0 0 71.4286 -84928.6 -9285.71)">
<rect x="1189" y="130" width="14" height="14" fill="#E5E5E5"/>
<g id="merge-duplicate">
<mask id="mask0_outline" mask-type="alpha">
<g id="Mask">
<use xlink:href="#path0_fill" transform="translate(1191 130)" fill="#FFFFFF"/>
</g>
</mask>
<g id="Mask" mask="url(#mask0_outline)">
<use xlink:href="#path0_fill" transform="translate(1191 130)"/>
</g>
<g id="&#226;&#134;&#170;&#240;&#159;&#142;&#168;Color" mask="url(#mask0_outline)">
<g id="Rectangle 3">
<use xlink:href="#path1_fill" transform="translate(1189 130)" fill="#333333"/>
</g>
</g>
</g>
</g>
<defs>
<path id="path0_fill" fill-rule="evenodd" d="M 9.75 8.9846C 7.68359 8.9846 6 7.40946 6 5.47383L 6 1.91995L 7.62109 3.54604L 8.32812 2.83683L 5.5 0L 2.67188 2.83683L 3.37891 3.54604L 5 1.91995L 5 5.47383C 5 7.40946 3.31641 8.9846 1.25 8.9846L 0 8.9846L 0 14L 5 14L 5 8.9846L 4.23047 8.9846C 4.75781 8.58102 5.19531 8.06773 5.5 7.48782C 5.80469 8.06773 6.24219 8.58102 6.76953 8.9846L 6 8.9846L 6 14L 11 14L 11 8.9846L 9.75 8.9846ZM 4 9.98769L 4 12.9969L 1 12.9969L 1 9.98769L 4 9.98769ZM 7 12.9969L 10 12.9969L 10 9.98769L 7 9.98769L 7 12.9969Z"/>
<path id="path1_fill" fill-rule="evenodd" d="M 0 0L 14 0L 14 14L 0 14L 0 0Z"/>
</defs>
</svg>
