<svg width="1001" height="1001" viewBox="0 0 1001 1001" version="1.1" xmlns="http://www.w3.org/2000/svg" xmlns:xlink="http://www.w3.org/1999/xlink">
<title>msn-video</title>
<desc>Created using Figma</desc>
<g id="Canvas" transform="matrix(83.4167 0 0 83.4167 -33366.7 -22856.2)">
<g id="msn-video">
<use xlink:href="#path0_fill" transform="translate(400 274)"/>
</g>
</g>
<defs>
<path id="path0_fill" d="M 6 0C 6.55078 0 7.08203 0.0722659 7.59375 0.216797C 8.10547 0.357422 8.58203 0.558594 9.02344 0.820312C 9.46875 1.08203 9.87305 1.39648 10.2363 1.76367C 10.6035 2.12695 10.918 2.53125 11.1797 2.97656C 11.4414 3.41797 11.6426 3.89453 11.7832 4.40625C 11.9277 4.91797 12 5.44922 12 6C 12 6.55078 11.9277 7.08203 11.7832 7.59375C 11.6426 8.10547 11.4414 8.58398 11.1797 9.0293C 10.918 9.4707 10.6035 9.875 10.2363 10.2422C 9.87305 10.6055 9.46875 10.918 9.02344 11.1797C 8.58203 11.4414 8.10547 11.6445 7.59375 11.7891C 7.08203 11.9297 6.55078 12 6 12C 5.44922 12 4.91797 11.9297 4.40625 11.7891C 3.89453 11.6445 3.41602 11.4434 2.9707 11.1855C 2.52539 10.9238 2.11914 10.6113 1.75195 10.248C 1.38867 9.88086 1.07617 9.47461 0.814453 9.0293C 0.556641 8.58398 0.355469 8.10742 0.210938 7.59961C 0.0703125 7.08789 0 6.55469 0 6C 0 5.44922 0.0703125 4.91797 0.210938 4.40625C 0.355469 3.89453 0.558594 3.41797 0.820312 2.97656C 1.08203 2.53125 1.39453 2.12695 1.75781 1.76367C 2.125 1.39648 2.5293 1.08203 2.9707 0.820312C 3.41602 0.558594 3.89453 0.357422 4.40625 0.216797C 4.91797 0.0722659 5.44922 0 6 0ZM 6 11.25C 6.48437 11.25 6.94922 11.1875 7.39453 11.0625C 7.84375 10.9375 8.26172 10.7617 8.64844 10.5352C 9.03906 10.3047 9.39258 10.0312 9.70898 9.71484C 10.0293 9.39453 10.3027 9.04102 10.5293 8.6543C 10.7598 8.26367 10.9375 7.8457 11.0625 7.40039C 11.1875 6.95117 11.25 6.48438 11.25 6C 11.25 5.51563 11.1875 5.05078 11.0625 4.60547C 10.9375 4.15625 10.7598 3.73828 10.5293 3.35156C 10.3027 2.96094 10.0293 2.60742 9.70898 2.29102C 9.39258 1.9707 9.03906 1.69727 8.64844 1.4707C 8.26172 1.24023 7.84375 1.0625 7.39453 0.9375C 6.94922 0.8125 6.48437 0.75 6 0.75C 5.51562 0.75 5.04883 0.8125 4.59961 0.9375C 4.1543 1.0625 3.73633 1.24023 3.3457 1.4707C 2.95898 1.69727 2.60547 1.9707 2.28516 2.29102C 1.96875 2.60742 1.69531 2.96094 1.46484 3.35156C 1.23828 3.73828 1.0625 4.15625 0.9375 4.60547C 0.8125 5.05078 0.75 5.51563 0.75 6C 0.75 6.48438 0.8125 6.95117 0.9375 7.40039C 1.0625 7.8457 1.23828 8.26367 1.46484 8.6543C 1.69141 9.04102 1.96484 9.39453 2.28516 9.71484C 2.60547 10.0352 2.95898 10.3086 3.3457 10.5352C 3.73633 10.7617 4.1543 10.9375 4.59961 11.0625C 5.04883 11.1875 5.51562 11.25 6 11.25ZM 4.5 3L 9 5.98242L 4.5 9L 4.5 3ZM 5.25 7.59375L 7.64648 5.98828L 5.25 4.39453L 5.25 7.59375Z"/>
</defs>
</svg>
