<svg width="1000" height="1000" viewBox="0 0 1000 1000" version="1.1" xmlns="http://www.w3.org/2000/svg" xmlns:xlink="http://www.w3.org/1999/xlink">
<title>navigate-back-disc</title>
<desc>Created using Figma</desc>
<g id="Canvas" transform="matrix(71.4286 0 0 71.4286 -88357.1 -9285.71)">
<rect x="1237" y="130" width="14" height="14" fill="#E5E5E5"/>
<g id="navigate-back-disc">
<mask id="mask0_outline" mask-type="alpha">
<g id="Mask">
<use xlink:href="#path0_fill" transform="translate(1237 130)" fill="#FFFFFF"/>
</g>
</mask>
<g id="Mask" mask="url(#mask0_outline)">
<use xlink:href="#path0_fill" transform="translate(1237 130)"/>
</g>
<g id="&#226;&#134;&#170;&#240;&#159;&#142;&#168;Color" mask="url(#mask0_outline)">
<g id="Rectangle 3">
<use xlink:href="#path1_fill" transform="translate(1237 130)"/>
</g>
</g>
</g>
</g>
<defs>
<path id="path0_fill" fill-rule="evenodd" d="M 0 7C 0 3.13402 3.13403 0 7 0C 10.866 0 14 3.13402 14 7C 14 10.866 10.866 14 7 14C 3.13403 14 0 10.866 0 7ZM 4.97229 7.53846L 10.7692 7.53846L 10.7692 6.46154L 4.97229 6.46154L 7.47949 3.95433L 6.71814 3.19291L 2.91101 7L 6.71814 10.8071L 7.47949 10.0457L 4.97229 7.53846Z"/>
<path id="path1_fill" fill-rule="evenodd" d="M 0 0L 14 0L 14 14L 0 14L 0 0Z"/>
</defs>
</svg>
