<svg width="1001" height="1001" viewBox="0 0 1001 1001" version="1.1" xmlns="http://www.w3.org/2000/svg" xmlns:xlink="http://www.w3.org/1999/xlink">
<title>navigate-back-circle</title>
<desc>Created using Figma</desc>
<g id="Canvas" transform="matrix(71.5 0 0 71.5 -86729.5 -9295)">
<rect x="1213" y="130" width="14" height="14" fill="#E5E5E5"/>
<g id="navigate-back-circle">
<mask id="mask0_outline" mask-type="alpha">
<g id="Mask">
<use xlink:href="#path0_fill" transform="translate(1213 130)" fill="#FFFFFF"/>
</g>
</mask>
<g id="Mask" mask="url(#mask0_outline)">
<use xlink:href="#path0_fill" transform="translate(1213 130)"/>
</g>
<g id="&#226;&#134;&#170;&#240;&#159;&#142;&#168;Color" mask="url(#mask0_outline)">
<g id="Rectangle 3">
<use xlink:href="#path1_fill" transform="translate(1213 130)"/>
</g>
</g>
</g>
</g>
<defs>
<path id="path0_fill" fill-rule="evenodd" d="M 7 0C 3.14246 0 0 3.14243 0 7C 0 10.8576 3.14246 14 7 14C 10.8575 14 14 10.8576 14 7C 14 3.14243 10.8618 0 7 0ZM 7 12.9231C 3.7356 12.9231 1.0769 10.2644 1.0769 7C 1.0769 3.73557 3.7356 1.07692 7 1.07692C 10.2644 1.07692 12.9231 3.73557 12.9231 7C 12.9231 10.2644 10.2644 12.9231 7 12.9231ZM 10.7692 6.46154L 4.97229 6.46154L 7.47949 3.95433L 6.71814 3.19291L 2.91101 7L 6.71814 10.8071L 7.47949 10.0457L 4.97229 7.53846L 10.7692 7.53846L 10.7692 6.46154Z"/>
<path id="path1_fill" fill-rule="evenodd" d="M 0 0L 14 0L 14 14L 0 14L 0 0Z"/>
</defs>
</svg>
