<svg width="1000" height="1000" viewBox="0 0 1000 1000" version="1.1" xmlns="http://www.w3.org/2000/svg" xmlns:xlink="http://www.w3.org/1999/xlink">
<title>navigate-history</title>
<desc>Created using Figma</desc>
<g id="Canvas" transform="matrix(71.4286 0 0 71.4286 -11214.3 -11000)">
<rect x="157" y="154" width="14" height="14" fill="#E5E5E5"/>
<g id="navigate-history">
<mask id="mask0_outline" mask-type="alpha">
<g id="Mask">
<use xlink:href="#path0_fill" transform="translate(157 154)" fill="#FFFFFF"/>
</g>
</mask>
<g id="Mask" mask="url(#mask0_outline)">
<use xlink:href="#path0_fill" transform="translate(157 154)"/>
</g>
<g id="&#226;&#134;&#170;&#240;&#159;&#142;&#168;Color" mask="url(#mask0_outline)">
<g id="Rectangle 3">
<use xlink:href="#path1_fill" transform="translate(157 154)"/>
</g>
</g>
</g>
</g>
<defs>
<path id="path0_fill" fill-rule="evenodd" d="M 6.93892 14C 10.832 14 14 10.8594 14 7C 14 3.14062 10.832 0 6.93892 0C 4.49986 0 2.28539 1.26562 1.00873 3.25L 1.00873 1L 0 1L 0 5L 4.0349 5L 4.0349 4L 1.71798 4C 2.78582 2.17578 4.76386 1 6.93892 1C 10.2764 1 12.9913 3.69141 12.9913 7C 12.9913 10.3086 10.2764 13 6.93892 13C 4.23192 13 1.83619 11.1914 1.11117 8.60156L 0.141852 8.86719C 0.981142 11.8906 3.77878 14 6.93892 14ZM 7.06108 7.05859L 9.45286 9.66406L 8.70419 10.3359L 6.05235 7.44531L 6.05235 3L 7.06108 3L 7.06108 7.05859Z"/>
<path id="path1_fill" fill-rule="evenodd" d="M 0 0L 14 0L 14 14L 0 14L 0 0Z"/>
</defs>
</svg>
