<svg width="1000" height="1000" viewBox="0 0 1000 1000" version="1.1" xmlns="http://www.w3.org/2000/svg" xmlns:xlink="http://www.w3.org/1999/xlink">
<title>network-tower</title>
<desc>Created using Figma</desc>
<g id="Canvas" transform="matrix(71.4286 0 0 71.4286 -16357.1 -11000)">
<rect x="229" y="154" width="14" height="14" fill="#E5E5E5"/>
<g id="network-tower">
<mask id="mask0_outline" mask-type="alpha">
<g id="Mask">
<use xlink:href="#path0_fill" transform="translate(230 154)" fill="#FFFFFF"/>
</g>
</mask>
<g id="Mask" mask="url(#mask0_outline)">
<use xlink:href="#path0_fill" transform="translate(230 154)"/>
</g>
<g id="&#226;&#134;&#170;&#240;&#159;&#142;&#168;Color" mask="url(#mask0_outline)">
<g id="Rectangle 3">
<use xlink:href="#path1_fill" transform="translate(229 154)" fill="#333333"/>
</g>
</g>
</g>
</g>
<defs>
<path id="path0_fill" fill-rule="evenodd" d="M 10.1133 8.22563L 9.4375 7.48673C 10.4453 6.568 11 5.32868 11 3.99553C 11 2.76403 10.5195 1.59509 9.64062 0.699806L 10.3555 0C 11.418 1.08294 12 2.5021 12 3.99553C 12 5.59061 11.3125 7.13488 10.1133 8.22563ZM 2.55859 7.48673C 1.55469 6.56799 1 5.32867 1 3.99553C 1 2.76794 1.48047 1.59899 2.35938 0.703712L 1.64453 0.00390625C 0.582031 1.08685 0 2.50209 0 3.99553C 0 5.61407 0.671875 7.11533 1.88672 8.22563L 2.55859 7.48673ZM 2.5 3.99162C 2.5 4.98464 2.92188 5.93465 3.66406 6.59927L 4.33203 5.85255C 3.80469 5.3795 3.5 4.69924 3.5 3.99162C 3.5 3.28008 3.80469 2.59983 4.33203 2.12678L 3.66797 1.38006C 2.92578 2.04468 2.5 2.99469 2.5 3.99162ZM 9.5 3.99162C 9.5 4.98856 9.07422 5.93857 8.33203 6.60319L 7.66797 5.85647C 8.19531 5.38342 8.5 4.70316 8.5 3.99162C 8.5 3.284 8.19922 2.60374 7.66797 2.13069L 8.33594 1.38397C 9.07422 2.04859 9.5 2.9986 9.5 3.99162ZM 4.5 3.99162C 4.5 3.1628 5.17188 2.49036 6 2.49036C 6.82812 2.49036 7.5 3.1628 7.5 3.99162C 7.5 4.57805 7.16016 5.07847 6.67188 5.32867L 10.1367 14L 9.0625 14L 8.26172 11.9983L 3.73828 11.9983L 2.9375 14L 1.86328 14L 5.32812 5.32867C 4.83984 5.07847 4.5 4.57805 4.5 3.99162ZM 4.14062 10.9975L 4.53906 9.99664L 7.46094 9.99664L 7.86328 10.9975L 4.14062 10.9975ZM 6 6.34125L 4.9375 8.99582L 7.0625 8.99582L 6 6.34125ZM 6 4.49204C 5.72266 4.49204 5.5 4.2692 5.5 3.99162C 5.5 3.71796 5.72266 3.4912 6 3.4912C 6.27734 3.4912 6.5 3.71796 6.5 3.99162C 6.5 4.2692 6.27734 4.49204 6 4.49204Z"/>
<path id="path1_fill" fill-rule="evenodd" d="M 0 0L 14 0L 14 14L 0 14L 0 0Z"/>
</defs>
</svg>
