<svg width="1000" height="1000" viewBox="0 0 1000 1000" version="1.1" xmlns="http://www.w3.org/2000/svg" xmlns:xlink="http://www.w3.org/1999/xlink">
<title>new-team-project</title>
<desc>Created using Figma</desc>
<g id="Canvas" transform="matrix(71.4286 0 0 71.4286 -18071.4 -11000)">
<rect x="253" y="154" width="14" height="14" fill="#E5E5E5"/>
<g id="new-team-project">
<mask id="mask0_outline" mask-type="alpha">
<g id="Mask">
<use xlink:href="#path0_fill" transform="translate(253 155)" fill="#FFFFFF"/>
</g>
</mask>
<g id="Mask" mask="url(#mask0_outline)">
<use xlink:href="#path0_fill" transform="translate(253 155)"/>
</g>
<g id="&#226;&#134;&#170;&#240;&#159;&#142;&#168;Color" mask="url(#mask0_outline)">
<g id="Rectangle 3">
<use xlink:href="#path1_fill" transform="translate(253 154)" fill="#333333"/>
</g>
</g>
</g>
</g>
<defs>
<path id="path0_fill" fill-rule="evenodd" d="M 14 2L 14 3L 12 3L 12 5L 11 5L 11 3L 9 3L 9 2L 11 2L 11 0L 12 0L 12 2L 14 2ZM 12 12L 1 12L 1 3L 4.29297 3L 5.29297 4L 8 4L 8 3L 5.70703 3L 4.70703 2L 0 2L 0 13L 13 13L 13 6L 12 6L 12 12ZM 3.07031 7.37109L 3.83984 6.53906L 6.41016 8.91016L 8.98047 6.53906L 9.75 7.37109L 6.41016 10.4531L 3.07031 7.37109Z"/>
<path id="path1_fill" fill-rule="evenodd" d="M 0 0L 14 0L 14 14L 0 14L 0 0Z"/>
</defs>
</svg>
