<svg width="1335" height="1001" viewBox="0 0 1335 1001" version="1.1" xmlns="http://www.w3.org/2000/svg" xmlns:xlink="http://www.w3.org/1999/xlink">
<title>news</title>
<desc>Created using Figma</desc>
<g id="Canvas" transform="matrix(111.222 0 0 111.222 -47047 -30586.1)">
<g id="news">
<use xlink:href="#path0_fill" transform="translate(423 274)"/>
</g>
</g>
<defs>
<path id="path0_fill" d="M 12 3L 12 8.25C 12 8.45703 11.959 8.65234 11.877 8.83594C 11.7988 9.01562 11.6914 9.17383 11.5547 9.31055C 11.4219 9.44336 11.2637 9.55078 11.0801 9.63281C 10.8965 9.71094 10.7031 9.75 10.5 9.75L 1.45898 9.75C 1.25977 9.75 1.07031 9.71094 0.890625 9.63281C 0.714844 9.55469 0.560547 9.45117 0.427734 9.32227C 0.298828 9.18945 0.195312 9.03516 0.117188 8.85938C 0.0390625 8.67969 0 8.49023 0 8.29102L 0 1.5L 10.5 1.5L 10.5 3L 12 3ZM 11.25 3.75L 10.5 3.75L 10.5 7.875C 10.5 7.97656 10.4629 8.06445 10.3887 8.13867C 10.3145 8.21289 10.2266 8.25 10.125 8.25C 10.0234 8.25 9.93555 8.21289 9.86133 8.13867C 9.78711 8.06445 9.75 7.97656 9.75 7.875L 9.75 2.25L 0.75 2.25L 0.75 8.29102C 0.75 8.38867 0.767578 8.48047 0.802734 8.56641C 0.841797 8.65234 0.892578 8.72852 0.955078 8.79492C 1.02148 8.85742 1.09766 8.9082 1.18359 8.94727C 1.26953 8.98242 1.36133 9 1.45898 9L 10.5 9C 10.6055 9 10.7031 8.98047 10.793 8.94141C 10.8828 8.90234 10.9609 8.84961 11.0273 8.7832C 11.0977 8.71289 11.1523 8.63281 11.1914 8.54297C 11.2305 8.45313 11.25 8.35547 11.25 8.25L 11.25 3.75ZM 9 3.75L 1.5 3.75L 1.5 3L 9 3L 9 3.75ZM 9 8.25L 6 8.25L 6 7.5L 9 7.5L 9 8.25ZM 9 6.75L 6 6.75L 6 6L 9 6L 9 6.75ZM 9 5.25L 6 5.25L 6 4.5L 9 4.5L 9 5.25ZM 5.25 8.25L 1.5 8.25L 1.5 4.48242L 5.25 4.48242L 5.25 8.25ZM 2.25 7.5L 4.5 7.5L 4.5 5.23242L 2.25 5.23242L 2.25 7.5Z"/>
</defs>
</svg>
