<svg width="2503" height="1001" viewBox="0 0 2503 1001" version="1.1" xmlns="http://www.w3.org/2000/svg" xmlns:xlink="http://www.w3.org/1999/xlink">
<title>node</title>
<desc>Created using Figma</desc>
<g id="Canvas" transform="matrix(166.833 0 0 166.833 -133967 -42375.7)">
<g id="node">
<use xlink:href="#path0_fill" transform="translate(802 253)"/>
</g>
</g>
<defs>
<path id="path0_fill" d="M 4.89625 6L 3.9734 6L 3.9734 4.33301C 3.9734 3.86816 3.80738 3.63574 3.47535 3.63574C 3.3152 3.63574 3.18336 3.69727 3.07984 3.82031C 2.97633 3.94336 2.92457 4.09961 2.92457 4.28906L 2.92457 6L 1.99879 6L 1.99879 3L 2.92457 3L 2.92457 3.47461L 2.93629 3.47461C 3.15699 3.10937 3.47828 2.92676 3.90016 2.92676C 4.56422 2.92676 4.89625 3.33887 4.89625 4.16309L 4.89625 6ZM 6.94129 6.07324C 6.44129 6.07324 6.04773 5.93359 5.76062 5.6543C 5.47547 5.37305 5.33289 4.99219 5.33289 4.51172C 5.33289 4.01563 5.48133 3.62793 5.7782 3.34863C 6.07508 3.06738 6.47645 2.92676 6.9823 2.92676C 7.48035 2.92676 7.87098 3.06738 8.15418 3.34863C 8.43738 3.62793 8.57898 3.99805 8.57898 4.45898C 8.57898 4.95703 8.4325 5.35059 8.13953 5.63965C 7.84852 5.92871 7.4491 6.07324 6.94129 6.07324ZM 6.96473 3.63574C 6.74598 3.63574 6.57605 3.71094 6.45496 3.86133C 6.33387 4.01172 6.27332 4.22461 6.27332 4.5C 6.27332 5.07617 6.50574 5.36426 6.97059 5.36426C 7.41395 5.36426 7.63562 5.06836 7.63562 4.47656C 7.63562 3.91602 7.41199 3.63574 6.96473 3.63574ZM 11.9951 6L 11.0693 6L 11.0693 5.58691L 11.0576 5.58691C 10.8467 5.91113 10.5371 6.07324 10.1289 6.07324C 9.75391 6.07324 9.45215 5.94141 9.22363 5.67773C 8.99512 5.41211 8.88086 5.04199 8.88086 4.56738C 8.88086 4.07129 9.00684 3.67383 9.25879 3.375C 9.51074 3.07617 9.84082 2.92676 10.249 2.92676C 10.6357 2.92676 10.9053 3.06543 11.0576 3.34277L 11.0693 3.34277L 11.0693 1.55859L 11.9951 1.55859L 11.9951 6ZM 11.0869 4.54102L 11.0869 4.31543C 11.0869 4.12012 11.0303 3.95801 10.917 3.8291C 10.8037 3.7002 10.6562 3.63574 10.4746 3.63574C 10.2695 3.63574 10.1094 3.7168 9.99414 3.87891C 9.87891 4.03906 9.82129 4.25977 9.82129 4.54102C 9.82129 4.80469 9.87695 5.00781 9.98828 5.15039C 10.0996 5.29297 10.2539 5.36426 10.4512 5.36426C 10.6387 5.36426 10.791 5.28906 10.9082 5.13867C 11.0273 4.98828 11.0869 4.78906 11.0869 4.54102ZM 15.3497 4.76367L 13.3927 4.76367C 13.4239 5.19922 13.6984 5.41699 14.2159 5.41699C 14.546 5.41699 14.8361 5.33887 15.0861 5.18262L 15.0861 5.85059C 14.8087 5.99902 14.4484 6.07324 14.005 6.07324C 13.5206 6.07324 13.1446 5.93945 12.8771 5.67188C 12.6095 5.40234 12.4757 5.02734 12.4757 4.54688C 12.4757 4.04883 12.6202 3.6543 12.9093 3.36328C 13.1984 3.07227 13.5538 2.92676 13.9757 2.92676C 14.4132 2.92676 14.7511 3.05664 14.9894 3.31641C 15.2296 3.57617 15.3497 3.92871 15.3497 4.37402L 15.3497 4.76367ZM 14.4913 4.19531C 14.4913 3.76562 14.3175 3.55078 13.9698 3.55078C 13.8214 3.55078 13.6925 3.6123 13.5831 3.73535C 13.4757 3.8584 13.4103 4.01172 13.3868 4.19531L 14.4913 4.19531Z"/>
</defs>
</svg>
