<svg width="1001" height="1001" viewBox="0 0 1001 1001" version="1.1" xmlns="http://www.w3.org/2000/svg" xmlns:xlink="http://www.w3.org/1999/xlink">
<title>notification</title>
<desc>Created using Figma</desc>
<g id="Canvas" transform="matrix(71.5 0 0 71.5 -23237.5 -11011)">
<rect x="325" y="154" width="14" height="14" fill="#E5E5E5"/>
<g id="notification">
<mask id="mask0_outline" mask-type="alpha">
<g id="Mask">
<use xlink:href="#path0_fill" transform="translate(326 154)" fill="#FFFFFF"/>
</g>
</mask>
<g id="Mask" mask="url(#mask0_outline)">
<use xlink:href="#path0_fill" transform="translate(326 154)"/>
</g>
<g id="&#226;&#134;&#170;&#240;&#159;&#142;&#168;Color" mask="url(#mask0_outline)">
<g id="Rectangle 3">
<use xlink:href="#path1_fill" transform="translate(325 154)"/>
</g>
</g>
</g>
</g>
<defs>
<path id="path0_fill" fill-rule="evenodd" d="M 11 11L 11 5C 11 2.24219 8.75781 0 6 0C 3.24219 0 1 2.24219 1 5L 1 11L 0 11L 0 12L 4 12C 4 13.1016 4.89844 14 6 14C 7.10156 14 8 13.1016 8 12L 12 12L 12 11L 11 11ZM 6 13C 5.44922 13 5 12.5508 5 12L 7 12C 7 12.5508 6.55078 13 6 13ZM 2 11L 10 11L 10 5C 10 2.79297 8.20703 1 6 1C 3.79297 1 2 2.79297 2 5L 2 11Z"/>
<path id="path1_fill" fill-rule="evenodd" d="M 0 0L 14 0L 14 14L 0 14L 0 0Z"/>
</defs>
</svg>
