<svg width="1000" height="1000" viewBox="0 0 1000 1000" version="1.1" xmlns="http://www.w3.org/2000/svg" xmlns:xlink="http://www.w3.org/1999/xlink">
<title>package-fill</title>
<desc>Created using Figma</desc>
<g id="Canvas" transform="matrix(71.4286 0 0 71.4286 -33500 -11000)">
<rect x="469" y="154" width="14" height="14" fill="#E5E5E5"/>
<g id="package-fill">
<mask id="mask0_outline" mask-type="alpha">
<g id="Mask">
<use xlink:href="#path0_fill" transform="translate(470 154)" fill="#FFFFFF"/>
</g>
</mask>
<g id="Mask" mask="url(#mask0_outline)">
<use xlink:href="#path0_fill" transform="translate(470 154)"/>
</g>
<g id="&#226;&#134;&#170;&#240;&#159;&#142;&#168;Color" mask="url(#mask0_outline)">
<g id="Rectangle 3">
<use xlink:href="#path1_fill" transform="translate(469 154)"/>
</g>
</g>
</g>
</g>
<defs>
<path id="path0_fill" fill-rule="evenodd" d="M 12 7.91756L 12 3.86259L 9.30078 3.86259C 9.31631 3.85667 9.3338 3.85175 9.35132 3.84682L 9.35156 3.84675L 9.35181 3.84667C 9.36932 3.84175 9.38681 3.83682 9.40234 3.83091C 10.5195 3.40324 10.8867 2.72609 11.0039 2.2311C 11.1602 1.53416 10.8945 0.860969 10.5586 0.496651C 9.79688 -0.327011 8.33594 -0.0339738 7.36719 0.726326C 6.86719 1.12232 6.35547 1.99351 6 2.69045C 5.64453 1.99351 5.13281 1.12232 4.63281 0.726326C 3.66016 -0.0339738 2.20312 -0.330971 1.44141 0.496651C 1.10547 0.860969 0.835938 1.53416 0.996094 2.2311C 1.10938 2.72609 1.48047 3.40324 2.59766 3.83091C 2.61319 3.83682 2.63068 3.84175 2.64819 3.84667L 2.64844 3.84675L 2.64868 3.84682C 2.6662 3.85175 2.68369 3.85667 2.69922 3.86259L 0 3.86259L 0 7.91756L 5 7.91756L 5 4.2665C 5.09375 4.27838 5.1875 4.29026 5.26953 4.29818L 6 4.36946L 6.73047 4.29818C 6.76331 4.29502 6.79797 4.29121 6.83377 4.28728L 6.8342 4.28724L 6.83463 4.28719C 6.88809 4.28133 6.94403 4.27519 7 4.27046L 7 7.91756L 12 7.91756ZM 5 14L 0 14L 0 9.94504L 5 9.94504L 5 14ZM 12 9.94504L 7 9.94504L 7 14L 12 14L 12 9.94504ZM 5.17188 3.2686C 4.81641 2.5677 4.36328 1.79947 4.01953 1.5302C 3.59766 1.19756 3.08203 1.01144 2.68359 1.01144C 2.46484 1.01144 2.28125 1.07085 2.16797 1.18964C 2.05078 1.32032 1.89062 1.65295 1.96875 1.99747C 2.07812 2.46078 2.5625 2.73401 2.94922 2.88053C 3.34766 3.03497 4.36328 3.17752 5.17188 3.2686ZM 9.05078 2.88053C 8.65234 3.03101 7.63672 3.17356 6.82812 3.2686C 7.18359 2.5677 7.63672 1.79947 7.98047 1.5302C 8.40234 1.19756 8.91797 1.01144 9.31641 1.01144C 9.53516 1.01144 9.71875 1.07085 9.83203 1.18964C 9.94922 1.32032 10.1094 1.65295 10.0312 2.00143C 9.92188 2.46078 9.4375 2.73401 9.05078 2.88053Z"/>
<path id="path1_fill" fill-rule="evenodd" d="M 0 0L 14 0L 14 14L 0 14L 0 0Z"/>
</defs>
</svg>
