<svg width="1001" height="1001" viewBox="0 0 1001 1001" version="1.1" xmlns="http://www.w3.org/2000/svg" xmlns:xlink="http://www.w3.org/1999/xlink">
<title>package-2</title>
<desc>Created using Figma</desc>
<g id="Canvas" transform="matrix(83.4167 0 0 83.4167 -21104.4 -22856.2)">
<g id="package-2">
<use xlink:href="#path0_fill" transform="translate(253 274)"/>
</g>
</g>
<defs>
<path id="path0_fill" d="M 12 4.5L 11.25 4.5L 11.25 11.25L 0.75 11.25L 0.75 4.5L 0 4.5L 0 0.75L 12 0.75L 12 4.5ZM 10.5 4.5L 1.5 4.5L 1.5 10.5L 10.5 10.5L 10.5 4.5ZM 11.25 1.5L 0.75 1.5L 0.75 3.75L 11.25 3.75L 11.25 1.5ZM 6 8.25L 2.25 8.25L 2.25 7.5L 6 7.5L 6 8.25ZM 2.25 9.75L 2.25 9L 5.25 9L 5.25 9.75L 2.25 9.75Z"/>
</defs>
</svg>
