<svg width="1000" height="1000" viewBox="0 0 1000 1000" version="1.1" xmlns="http://www.w3.org/2000/svg" xmlns:xlink="http://www.w3.org/1999/xlink">
<title>package-feed-mix</title>
<desc>Created using Figma</desc>
<g id="Canvas" transform="matrix(71.4286 0 0 71.4286 -30071.4 -11000)">
<rect x="421" y="154" width="14" height="14" fill="#E5E5E5"/>
<g id="package-feed-mix">
<mask id="mask0_outline" mask-type="alpha">
<g id="Mask">
<use xlink:href="#path0_fill" transform="translate(421 154)" fill="#FFFFFF"/>
</g>
</mask>
<g id="Mask" mask="url(#mask0_outline)">
<use xlink:href="#path0_fill" transform="translate(421 154)"/>
</g>
<g id="&#226;&#134;&#170;&#240;&#159;&#142;&#168;Color" mask="url(#mask0_outline)">
<g id="Rectangle 3">
<use xlink:href="#path1_fill" transform="translate(421 154)"/>
</g>
</g>
</g>
</g>
<defs>
<path id="path0_fill" fill-rule="evenodd" d="M 0 14L 14 14L 14 0L 0 0L 0 14ZM 12.6 12.6L 1.39999 12.6L 1.39999 1.4L 12.6 1.4L 12.6 12.6ZM 2.79999 2.8L 2.79999 11.2L 11.2 11.2L 11.2 2.8L 2.79999 2.8ZM 4.20001 7L 9.80002 7L 9.80002 4.2L 4.20001 4.2L 4.20001 7Z"/>
<path id="path1_fill" fill-rule="evenodd" d="M 0 0L 14 0L 14 14L 0 14L 0 0Z"/>
</defs>
</svg>
