<svg width="1000" height="1000" viewBox="0 0 1000 1000" version="1.1" xmlns="http://www.w3.org/2000/svg" xmlns:xlink="http://www.w3.org/1999/xlink">
<title>packages</title>
<desc>Created using Figma</desc>
<g id="Canvas" transform="matrix(71.4286 0 0 71.4286 -35214.3 -11000)">
<rect x="493" y="154" width="14" height="14" fill="#E5E5E5"/>
<g id="packages">
<mask id="mask0_outline" mask-type="alpha">
<g id="Mask">
<use xlink:href="#path0_fill" transform="translate(493 154)" fill="#FFFFFF"/>
</g>
</mask>
<g id="Mask" mask="url(#mask0_outline)">
<use xlink:href="#path0_fill" transform="translate(493 154)"/>
</g>
<g id="&#226;&#134;&#170;&#240;&#159;&#142;&#168;Color" mask="url(#mask0_outline)">
<g id="Rectangle 3">
<use xlink:href="#path1_fill" transform="translate(493 154)"/>
</g>
</g>
</g>
</g>
<defs>
<path id="path0_fill" fill-rule="evenodd" d="M 3 0L 3 3L 12 3L 12 9L 11 9L 11 10L 13 10L 13 3L 14 3L 14 0L 3 0ZM 11 4L 0 4L 0 7L 1 7L 1 14L 10 14L 10 7L 11 7L 11 4ZM 9 13L 2 13L 2 7L 9 7L 9 13ZM 1 6L 10 6L 10 5L 1 5L 1 6ZM 4 2L 13 2L 13 1L 4 1L 4 2ZM 6 10L 3 10L 3 9L 6 9L 6 10ZM 3 11L 3 12L 5 12L 5 11L 3 11Z"/>
<path id="path1_fill" fill-rule="evenodd" d="M 0 0L 14 0L 14 14L 0 14L 0 0Z"/>
</defs>
</svg>
