<svg width="1000" height="1000" viewBox="0 0 1000 1000" version="1.1" xmlns="http://www.w3.org/2000/svg" xmlns:xlink="http://www.w3.org/1999/xlink">
<title>package-feed-remote</title>
<desc>Created using Figma</desc>
<g id="Canvas" transform="matrix(71.4286 0 0 71.4286 -31785.7 -11000)">
<rect x="445" y="154" width="14" height="14" fill="#E5E5E5"/>
<g id="package-feed-remote">
<mask id="mask0_outline" mask-type="alpha">
<g id="Mask">
<use xlink:href="#path0_fill" transform="translate(445 154)" fill="#FFFFFF"/>
</g>
</mask>
<g id="Mask" mask="url(#mask0_outline)">
<use xlink:href="#path0_fill" transform="translate(445 154)"/>
</g>
<g id="&#226;&#134;&#170;&#240;&#159;&#142;&#168;Color" mask="url(#mask0_outline)">
<g id="Rectangle 3">
<use xlink:href="#path1_fill" transform="translate(445 154)" fill="#333333"/>
</g>
</g>
</g>
</g>
<defs>
<path id="path0_fill" fill-rule="evenodd" d="M 9.5 0L 9.5 1C 11.4297 1 13 2.57031 13 4.5L 14 4.5C 14 2.01953 11.9805 0 9.5 0ZM 0 14L 10 14L 10 4L 0 4L 0 14ZM 9 13L 1 13L 1 5L 9 5L 9 13ZM 9.5 3L 9.5 2C 10.8789 2 12 3.12109 12 4.5L 11 4.5C 11 3.67188 10.3281 3 9.5 3ZM 8 12L 2 12L 2 6L 8 6L 8 12ZM 7 11L 3 11L 3 7L 7 7L 7 11Z"/>
<path id="path1_fill" fill-rule="evenodd" d="M 0 0L 14 0L 14 14L 0 14L 0 0Z"/>
</defs>
</svg>
