<svg width="1001" height="1001" viewBox="0 0 1001 1001" version="1.1" xmlns="http://www.w3.org/2000/svg" xmlns:xlink="http://www.w3.org/1999/xlink">
<title>people-add</title>
<desc>Created using Figma</desc>
<g id="Canvas" transform="matrix(71.5 0 0 71.5 -19805.5 -17875)">
<g id="people-add">
<use xlink:href="#path0_fill" transform="translate(277 250.875)"/>
</g>
</g>
<defs>
<path id="path0_fill" d="M 8.75 5.25C 8.38542 5.25 8.04362 5.31836 7.72461 5.45508C 7.41016 5.5918 7.13216 5.78092 6.89062 6.02246C 6.65365 6.25944 6.4668 6.53743 6.33008 6.85645C 6.19336 7.17546 6.125 7.51497 6.125 7.875C 6.125 8.29427 6.03158 8.68848 5.84473 9.05762C 5.65788 9.42676 5.39583 9.73665 5.05859 9.9873C 5.35482 10.1377 5.62142 10.3245 5.8584 10.5479C 6.09993 10.7666 6.30501 11.0127 6.47363 11.2861C 6.64225 11.555 6.77214 11.8467 6.86328 12.1611C 6.95443 12.471 7 12.7923 7 13.125L 6.125 13.125C 6.125 12.765 6.05664 12.4255 5.91992 12.1064C 5.7832 11.7874 5.59408 11.5094 5.35254 11.2725C 5.11556 11.0309 4.83757 10.8418 4.51855 10.7051C 4.19954 10.5684 3.86003 10.5 3.5 10.5C 3.13542 10.5 2.79362 10.5684 2.47461 10.7051C 2.16016 10.8418 1.88216 11.0309 1.64062 11.2725C 1.40365 11.5094 1.2168 11.7874 1.08008 12.1064C 0.943359 12.4255 0.875 12.765 0.875 13.125L 0 13.125C 0 12.7923 0.0455729 12.471 0.136719 12.1611C 0.227865 11.8467 0.357747 11.555 0.526367 11.2861C 0.694987 11.0127 0.897786 10.7666 1.13477 10.5479C 1.3763 10.3245 1.64518 10.1377 1.94141 9.9873C 1.60417 9.73665 1.34212 9.42676 1.15527 9.05762C 0.968424 8.68848 0.875 8.29427 0.875 7.875C 0.875 7.51497 0.943359 7.17546 1.08008 6.85645C 1.2168 6.53743 1.40365 6.25944 1.64062 6.02246C 1.88216 5.78092 2.16016 5.5918 2.47461 5.45508C 2.79362 5.31836 3.13542 5.25 3.5 5.25C 3.91927 5.25 4.31348 5.34342 4.68262 5.53027C 5.05176 5.71712 5.36165 5.97917 5.6123 6.31641C 5.78548 5.97461 6.00651 5.66927 6.27539 5.40039C 6.54427 5.13151 6.84961 4.91048 7.19141 4.7373C 6.85417 4.48665 6.59212 4.17676 6.40527 3.80762C 6.21842 3.43848 6.125 3.04427 6.125 2.625C 6.125 2.26497 6.19336 1.92546 6.33008 1.60645C 6.4668 1.28744 6.65365 1.00944 6.89062 0.772461C 7.13216 0.530924 7.41016 0.341797 7.72461 0.205078C 8.04362 0.0683594 8.38542 0 8.75 0C 9.11003 0 9.44954 0.0683594 9.76855 0.205078C 10.0876 0.341797 10.3656 0.530924 10.6025 0.772461C 10.8441 1.00944 11.0332 1.28744 11.1699 1.60645C 11.3066 1.92546 11.375 2.26497 11.375 2.625C 11.375 3.04427 11.2816 3.43848 11.0947 3.80762C 10.9079 4.17676 10.6458 4.48665 10.3086 4.7373C 10.6048 4.8877 10.8714 5.07454 11.1084 5.29785C 11.3499 5.5166 11.555 5.7627 11.7236 6.03613C 11.8923 6.30501 12.0221 6.59668 12.1133 6.91113C 12.2044 7.22103 12.25 7.54232 12.25 7.875L 11.375 7.875C 11.375 7.51497 11.3066 7.17546 11.1699 6.85645C 11.0332 6.53743 10.8441 6.25944 10.6025 6.02246C 10.3656 5.78092 10.0876 5.5918 9.76855 5.45508C 9.44954 5.31836 9.11003 5.25 8.75 5.25ZM 7 2.625C 7 2.86654 7.04557 3.0944 7.13672 3.30859C 7.22786 3.51823 7.35319 3.7028 7.5127 3.8623C 7.6722 4.02181 7.85677 4.14714 8.06641 4.23828C 8.2806 4.32943 8.50846 4.375 8.75 4.375C 8.99154 4.375 9.21712 4.32943 9.42676 4.23828C 9.64095 4.14714 9.8278 4.02181 9.9873 3.8623C 10.1468 3.7028 10.2721 3.51823 10.3633 3.30859C 10.4544 3.0944 10.5 2.86654 10.5 2.625C 10.5 2.38346 10.4544 2.15788 10.3633 1.94824C 10.2721 1.73405 10.1468 1.5472 9.9873 1.3877C 9.8278 1.22819 9.64095 1.10286 9.42676 1.01172C 9.21712 0.920573 8.99154 0.875 8.75 0.875C 8.50846 0.875 8.2806 0.920573 8.06641 1.01172C 7.85677 1.10286 7.6722 1.22819 7.5127 1.3877C 7.35319 1.5472 7.22786 1.73405 7.13672 1.94824C 7.04557 2.15788 7 2.38346 7 2.625ZM 3.5 9.625C 3.74154 9.625 3.96712 9.57943 4.17676 9.48828C 4.39095 9.39714 4.5778 9.27181 4.7373 9.1123C 4.89681 8.9528 5.02214 8.76823 5.11328 8.55859C 5.20443 8.3444 5.25 8.11654 5.25 7.875C 5.25 7.63346 5.20443 7.40788 5.11328 7.19824C 5.02214 6.98405 4.89681 6.7972 4.7373 6.6377C 4.5778 6.47819 4.39095 6.35286 4.17676 6.26172C 3.96712 6.17057 3.74154 6.125 3.5 6.125C 3.25846 6.125 3.0306 6.17057 2.81641 6.26172C 2.60677 6.35286 2.4222 6.47819 2.2627 6.6377C 2.10319 6.7972 1.97786 6.98405 1.88672 7.19824C 1.79557 7.40788 1.75 7.63346 1.75 7.875C 1.75 8.11654 1.79557 8.3444 1.88672 8.55859C 1.97786 8.76823 2.10319 8.9528 2.2627 9.1123C 2.4222 9.27181 2.60677 9.39714 2.81641 9.48828C 3.0306 9.57943 3.25846 9.625 3.5 9.625ZM 14 11.375L 12.25 11.375L 12.25 13.125L 11.375 13.125L 11.375 11.375L 9.625 11.375L 9.625 10.5L 11.375 10.5L 11.375 8.75L 12.25 8.75L 12.25 10.5L 14 10.5L 14 11.375Z"/>
</defs>
</svg>
