<svg width="1001" height="1001" viewBox="0 0 1001 1001" version="1.1" xmlns="http://www.w3.org/2000/svg" xmlns:xlink="http://www.w3.org/1999/xlink">
<title>pin-unpin-fill</title>
<desc>Created using Figma</desc>
<g id="Canvas" transform="matrix(71.5 0 0 71.5 -52409.5 -11011)">
<rect x="733" y="154" width="14" height="14" fill="#E5E5E5"/>
<g id="pin-unpin-fill">
<mask id="mask0_outline" mask-type="alpha">
<g id="Mask">
<use xlink:href="#path0_fill" transform="translate(733 157)" fill="#FFFFFF"/>
</g>
</mask>
<g id="Mask" mask="url(#mask0_outline)">
<use xlink:href="#path0_fill" transform="translate(733 157)"/>
</g>
<g id="&#226;&#134;&#170;&#240;&#159;&#142;&#168;Color" mask="url(#mask0_outline)">
<g id="Rectangle 3">
<use xlink:href="#path1_fill" transform="translate(733 154)"/>
</g>
</g>
</g>
</g>
<defs>
<path id="path0_fill" d="M 14 1.125L 14 7.875C 13.168 7.875 12.4219 7.41797 12.0312 6.75L 8.09375 6.75C 7.62891 8.05859 6.46875 9 5 9L 5 5L 1 5L 0 4.5L 1 4L 5 4L 5 0C 6.46875 0 7.62891 0.941406 8.09375 2.25L 12.0312 2.25C 12.4219 1.58203 13.168 1.125 14 1.125Z"/>
<path id="path1_fill" fill-rule="evenodd" d="M 0 0L 14 0L 14 14L 0 14L 0 0Z"/>
</defs>
</svg>
