<svg width="1000" height="1000" viewBox="0 0 1000 1000" version="1.1" xmlns="http://www.w3.org/2000/svg" xmlns:xlink="http://www.w3.org/1999/xlink">
<title>pin-pinned</title>
<desc>Created using Figma</desc>
<g id="Canvas" transform="matrix(71.4286 0 0 71.4286 -47214.3 -11000)">
<rect x="661" y="154" width="14" height="14" fill="#E5E5E5"/>
<g id="pin-pinned">
<mask id="mask0_outline" mask-type="alpha">
<g id="Mask">
<use xlink:href="#path0_fill" transform="translate(664 154)" fill="#FFFFFF"/>
</g>
</mask>
<g id="Mask" mask="url(#mask0_outline)">
<use xlink:href="#path0_fill" transform="translate(664 154)"/>
</g>
<g id="&#226;&#134;&#170;&#240;&#159;&#142;&#168;Color" mask="url(#mask0_outline)">
<g id="Rectangle 3">
<use xlink:href="#path1_fill" transform="translate(661 154)" fill="#333333"/>
</g>
</g>
</g>
</g>
<defs>
<path id="path0_fill" fill-rule="evenodd" d="M 7 2.51562L 7 5.41406C 8.22656 5.98828 9 7.16406 9 8.5L 9 9L 5 9L 5 13L 4.5 14L 4 13L 4 9L 0 9L 0 8.5C 0 7.16406 0.773438 5.98828 2 5.41406L 2 2.51562C 1.375 2.04688 1 1.29688 1 0.5L 1 0L 8 0L 8 0.5C 8 1.29688 7.625 2.04688 7 2.51562ZM 2.66797 6.22266C 1.80859 6.52734 1.22266 7.18359 1.05078 8L 7.94922 8C 7.77734 7.18359 7.19141 6.52734 6.33203 6.22266L 6 6.10156L 6 1.96094L 6.25 1.81641C 6.55859 1.63672 6.79297 1.33984 6.91406 1L 2.08594 1C 2.20312 1.33984 2.44141 1.63672 2.75 1.81641L 3 1.96094L 3 6.10156L 2.66797 6.22266Z"/>
<path id="path1_fill" fill-rule="evenodd" d="M 0 0L 14 0L 14 14L 0 14L 0 0Z"/>
</defs>
</svg>
