<svg width="1000" height="1000" viewBox="0 0 1000 1000" version="1.1" xmlns="http://www.w3.org/2000/svg" xmlns:xlink="http://www.w3.org/1999/xlink">
<title>pin-fill</title>
<desc>Created using Figma</desc>
<g id="Canvas" transform="matrix(71.4286 0 0 71.4286 -45500 -11000)">
<rect x="637" y="154" width="14" height="14" fill="#E5E5E5"/>
<g id="pin-fill">
<mask id="mask0_outline" mask-type="alpha">
<g id="Mask">
<use xlink:href="#path0_fill" transform="translate(637 154)" fill="#FFFFFF"/>
</g>
</mask>
<g id="Mask" mask="url(#mask0_outline)">
<use xlink:href="#path0_fill" transform="translate(637 154)"/>
</g>
<g id="&#226;&#134;&#170;&#240;&#159;&#142;&#168;Color" mask="url(#mask0_outline)">
<g id="Rectangle 3">
<use xlink:href="#path1_fill" transform="translate(637 154)"/>
</g>
</g>
</g>
</g>
<defs>
<path id="path0_fill" d="M 14 4.52083C 13.4167 5.10417 12.5822 5.27836 11.8409 5.05556L 8.56771 8.3287C 9.08623 9.51968 8.86343 10.9537 7.88715 11.9259L 5.37558 9.41435L 1.03704 13.7529L 0 14L 0.222801 13.0035L 4.5897 8.62442L 2.07407 6.11285C 3.0463 5.13657 4.48032 4.91377 5.6713 5.43229L 8.94444 2.15914C 8.72164 1.41782 8.89583 0.583333 9.47917 0L 14 4.52083Z"/>
<path id="path1_fill" fill-rule="evenodd" d="M 0 0L 14 0L 14 14L 0 14L 0 0Z"/>
</defs>
</svg>
