<svg width="1000" height="1000" viewBox="0 0 1000 1000" version="1.1" xmlns="http://www.w3.org/2000/svg" xmlns:xlink="http://www.w3.org/1999/xlink">
<title>pin-unpin</title>
<desc>Created using Figma</desc>
<g id="Canvas" transform="matrix(71.4286 0 0 71.4286 -50642.9 -11000)">
<rect x="709" y="154" width="14" height="14" fill="#E5E5E5"/>
<g id="pin-unpin">
<mask id="mask0_outline" mask-type="alpha">
<g id="Mask">
<use xlink:href="#path0_fill" transform="translate(709 157)" fill="#FFFFFF"/>
</g>
</mask>
<g id="Mask" mask="url(#mask0_outline)">
<use xlink:href="#path0_fill" transform="translate(709 157)"/>
</g>
<g id="&#226;&#134;&#170;&#240;&#159;&#142;&#168;Color" mask="url(#mask0_outline)">
<g id="Rectangle 3">
<use xlink:href="#path1_fill" transform="translate(709 154)"/>
</g>
</g>
</g>
</g>
<defs>
<path id="path0_fill" fill-rule="evenodd" d="M 11.4844 2C 11.9531 1.375 12.7031 1 13.5 1L 14 1L 14 8L 13.5 8C 12.7031 8 11.9531 7.625 11.4844 7L 8.58594 7C 8.01172 8.22656 6.83594 9 5.5 9L 5 9L 5 5L 1 5L 0 4.5L 1 4L 5 4L 5 0L 5.5 0C 6.83594 0 8.01172 0.773438 8.58594 2L 11.4844 2ZM 12.1836 6.25C 12.3633 6.55859 12.6602 6.79297 13 6.91406L 13 2.08594C 12.6602 2.20703 12.3633 2.44141 12.1836 2.75L 12.0391 3L 7.89844 3L 7.77734 2.66797C 7.47266 1.80859 6.81641 1.22266 6 1.05078L 6 7.94922C 6.81641 7.77734 7.47266 7.19141 7.77734 6.33203L 7.89844 6L 12.0391 6L 12.1836 6.25Z"/>
<path id="path1_fill" fill-rule="evenodd" d="M 0 0L 14 0L 14 14L 0 14L 0 0Z"/>
</defs>
</svg>
