<svg width="1000" height="1000" viewBox="0 0 1000 1000" version="1.1" xmlns="http://www.w3.org/2000/svg" xmlns:xlink="http://www.w3.org/1999/xlink">
<title>pin</title>
<desc>Created using Figma</desc>
<g id="Canvas" transform="matrix(71.4286 0 0 71.4286 -43785.7 -11000)">
<rect x="613" y="154" width="14" height="14" fill="#E5E5E5"/>
<g id="pin">
<mask id="mask0_outline" mask-type="alpha">
<g id="Mask">
<use xlink:href="#path0_fill" transform="translate(613 154)" fill="#FFFFFF"/>
</g>
</mask>
<g id="Mask" mask="url(#mask0_outline)">
<use xlink:href="#path0_fill" transform="translate(613 154)"/>
</g>
<g id="&#226;&#134;&#170;&#240;&#159;&#142;&#168;Color" mask="url(#mask0_outline)">
<g id="Rectangle 3">
<use xlink:href="#path1_fill" transform="translate(613 154)" fill="#333333"/>
</g>
</g>
</g>
</g>
<defs>
<path id="path0_fill" fill-rule="evenodd" d="M 8.79144 0.355133L 9.15051 0L 14 4.84949L 13.6449 5.20856C 13.0727 5.78072 12.2638 6.02931 11.4707 5.89515L 8.90192 8.46393C 9.07553 9.00452 9.11499 9.58061 9.01239 10.1488C 8.88614 10.8472 8.55469 11.4825 8.04959 11.9876L 7.69449 12.3427L 5.05862 9.71082L 1.01013 13.7593L 0 14L 0.21701 13.0293L 4.29312 8.94138L 1.65726 6.30553L 2.01239 5.95039C 2.51749 5.44532 3.15277 5.11387 3.8512 4.98759C 4.4194 4.885 4.99548 4.92446 5.53607 5.09808L 8.10486 2.52931C 7.97067 1.73619 8.21927 0.927284 8.79144 0.355133ZM 11.1668 4.77058L 11.4549 4.85738C 11.814 4.96393 12.1849 4.9363 12.5085 4.78636L 9.21362 1.49155C 9.06763 1.81511 9.03607 2.18602 9.14261 2.5451L 9.2294 2.83315L 5.77676 6.2858L 5.46503 6.14769C 4.67981 5.80834 3.80777 5.8912 3.12119 6.34499L 7.655 10.8788C 8.1088 10.1922 8.19165 9.32018 7.85229 8.53496L 7.7142 8.22322L 11.1668 4.77058Z"/>
<path id="path1_fill" fill-rule="evenodd" d="M 0 0L 14 0L 14 14L 0 14L 0 0Z"/>
</defs>
</svg>
