<svg width="1000" height="1000" viewBox="0 0 1000 1000" version="1.1" xmlns="http://www.w3.org/2000/svg" xmlns:xlink="http://www.w3.org/1999/xlink">
<title>plan</title>
<desc>Created using Figma</desc>
<g id="Canvas" transform="matrix(71.4286 0 0 71.4286 -54071.4 -11000)">
<rect x="757" y="154" width="14" height="14" fill="#E5E5E5"/>
<g id="plan">
<mask id="mask0_outline" mask-type="alpha">
<g id="Mask">
<use xlink:href="#path0_fill" transform="translate(757 155)" fill="#FFFFFF"/>
</g>
</mask>
<g id="Mask" mask="url(#mask0_outline)">
<use xlink:href="#path0_fill" transform="translate(757 155)"/>
</g>
<g id="&#226;&#134;&#170;&#240;&#159;&#142;&#168;Color" mask="url(#mask0_outline)">
<g id="Rectangle 3">
<use xlink:href="#path1_fill" transform="translate(757 154)" fill="#333333"/>
</g>
</g>
</g>
</g>
<defs>
<path id="path0_fill" fill-rule="evenodd" d="M 1 1L 1 3L 14 3L 14 4L 1 4L 1 12L 0 12L 0 0L 14 0L 14 1L 1 1ZM 2 6L 3 6L 3 5L 2 5L 2 6ZM 5 6L 4 6L 4 5L 5 5L 5 6ZM 6 6L 7 6L 7 5L 6 5L 6 6ZM 9 6L 8 6L 8 5L 9 5L 9 6ZM 10 6L 11 6L 11 5L 10 5L 10 6ZM 13 6L 12 6L 12 5L 13 5L 13 6ZM 2 8L 3 8L 3 7L 2 7L 2 8ZM 5 8L 4 8L 4 7L 5 7L 5 8ZM 6 8L 7 8L 7 7L 6 7L 6 8ZM 9 8L 8 8L 8 7L 9 7L 9 8ZM 10 8L 11 8L 11 7L 10 7L 10 8ZM 13 8L 12 8L 12 7L 13 7L 13 8ZM 2 10L 3 10L 3 9L 2 9L 2 10ZM 5 10L 4 10L 4 9L 5 9L 5 10ZM 6 10L 7 10L 7 9L 6 9L 6 10ZM 9 10L 8 10L 8 9L 9 9L 9 10Z"/>
<path id="path1_fill" fill-rule="evenodd" d="M 0 0L 14 0L 14 14L 0 14L 0 0Z"/>
</defs>
</svg>
