<svg width="1001" height="1001" viewBox="0 0 1001 1001" version="1.1" xmlns="http://www.w3.org/2000/svg" xmlns:xlink="http://www.w3.org/1999/xlink">
<title>plug</title>
<desc>Created using Figma</desc>
<g id="Canvas" transform="matrix(71.5 0 0 71.5 -62705.5 -11011)">
<rect x="877" y="154" width="14" height="14" fill="#E5E5E5"/>
<g id="plug">
<mask id="mask0_outline" mask-type="alpha">
<g id="Mask">
<use xlink:href="#path0_fill" transform="translate(881 154)" fill="#FFFFFF"/>
</g>
</mask>
<g id="Mask" mask="url(#mask0_outline)">
<use xlink:href="#path0_fill" transform="translate(881 154)"/>
</g>
<g id="&#226;&#134;&#170;&#240;&#159;&#142;&#168;Color" mask="url(#mask0_outline)">
<g id="Rectangle 3">
<use xlink:href="#path1_fill" transform="translate(877 154)"/>
</g>
</g>
</g>
</g>
<defs>
<path id="path0_fill" d="M 7 3L 7 6.5C 7 8.26172 5.69531 9.72266 4 9.96484L 4 14L 3 14L 3 9.96484C 1.30469 9.72266 0 8.26172 0 6.5L 0 3L 1 3L 1 0L 2 0L 2 3L 5 3L 5 0L 6 0L 6 3L 7 3Z"/>
<path id="path1_fill" fill-rule="evenodd" d="M 0 0L 14 0L 14 14L 0 14L 0 0Z"/>
</defs>
</svg>
