<svg width="1000" height="1000" viewBox="0 0 1000 1000" version="1.1" xmlns="http://www.w3.org/2000/svg" xmlns:xlink="http://www.w3.org/1999/xlink">
<title>plug-disconnected-fill</title>
<desc>Created using Figma</desc>
<g id="Canvas" transform="matrix(71.4286 0 0 71.4286 -69500 -11000)">
<rect x="973" y="154" width="14" height="14" fill="#E5E5E5"/>
<g id="plug-disconnected-fill">
<mask id="mask0_outline" mask-type="alpha">
<g id="Mask">
<use xlink:href="#path0_fill" transform="translate(973 154)" fill="#FFFFFF"/>
</g>
</mask>
<g id="Mask" mask="url(#mask0_outline)">
<use xlink:href="#path0_fill" transform="translate(973 154)"/>
</g>
<g id="&#226;&#134;&#170;&#240;&#159;&#142;&#168;Color" mask="url(#mask0_outline)">
<g id="Rectangle 3">
<use xlink:href="#path1_fill" transform="translate(973 154)" fill="#333333"/>
</g>
</g>
</g>
</g>
<defs>
<path id="path0_fill" fill-rule="evenodd" d="M 13.2634 0L 14 0.736626L 12.486 2.24651C 13.3529 3.46745 13.2512 5.1686 12.1564 6.26337L 10.6831 7.73663L 6.26337 3.31686L 7.73663 1.84361C 8.82733 0.752907 10.5325 0.647095 11.7494 1.50989L 13.2634 0ZM 4.7901 7.73663L 6.26337 9.20988L 7.73663 7.73663L 8.47327 8.47327L 7 9.94652L 7.73663 10.6831L 6.26337 12.1564C 5.65289 12.7669 4.85522 13.0721 4.05347 13.0721C 3.41858 13.0721 2.78778 12.8727 2.25061 12.4901L 0.736633 14L 0 13.2634L 1.51398 11.7535C 0.647095 10.5326 0.74884 8.83141 1.84363 7.73663L 3.31683 6.26337L 4.05347 7.00001L 5.52673 5.52675L 6.26337 6.26337L 4.7901 7.73663Z"/>
<path id="path1_fill" fill-rule="evenodd" d="M 0 0L 14 0L 14 14L 0 14L 0 0Z"/>
</defs>
</svg>
