<svg width="1000" height="1000" viewBox="0 0 1000 1000" version="1.1" xmlns="http://www.w3.org/2000/svg" xmlns:xlink="http://www.w3.org/1999/xlink">
<title>plug-outline</title>
<desc>Created using Figma</desc>
<g id="Canvas" transform="matrix(71.4286 0 0 71.4286 -71214.3 -11000)">
<rect x="997" y="154" width="14" height="14" fill="#E5E5E5"/>
<g id="plug-outline">
<mask id="mask0_outline" mask-type="alpha">
<g id="Mask">
<use xlink:href="#path0_fill" transform="translate(1001 154)" fill="#FFFFFF"/>
</g>
</mask>
<g id="Mask" mask="url(#mask0_outline)">
<use xlink:href="#path0_fill" transform="translate(1001 154)"/>
</g>
<g id="&#226;&#134;&#170;&#240;&#159;&#142;&#168;Color" mask="url(#mask0_outline)">
<g id="Rectangle 3">
<use xlink:href="#path1_fill" transform="translate(997 154)"/>
</g>
</g>
</g>
</g>
<defs>
<path id="path0_fill" fill-rule="evenodd" d="M 6 0L 6 3L 7 3L 7 7C 7 8.76172 5.69531 10.2227 4 10.4648L 4 14L 3 14L 3 10.4648C 1.30469 10.2227 0 8.76172 0 7L 0 3L 1 3L 1 0L 2 0L 2 3L 5 3L 5 0L 6 0ZM 1 7C 1 8.37891 2.12109 9.5 3.5 9.5C 4.87891 9.5 6 8.37891 6 7L 6 4L 1 4L 1 7Z"/>
<path id="path1_fill" fill-rule="evenodd" d="M 0 0L 14 0L 14 14L 0 14L 0 0Z"/>
</defs>
</svg>
