<svg width="1000" height="1000" viewBox="0 0 1000 1000" version="1.1" xmlns="http://www.w3.org/2000/svg" xmlns:xlink="http://www.w3.org/1999/xlink">
<title>policy</title>
<desc>Created using Figma</desc>
<g id="Canvas" transform="matrix(71.4286 0 0 71.4286 -72928.6 -11000)">
<rect x="1021" y="154" width="14" height="14" fill="#E5E5E5"/>
<g id="policy">
<mask id="mask0_outline" mask-type="alpha">
<g id="Mask">
<use xlink:href="#path0_fill" transform="translate(1024 154)" fill="#FFFFFF"/>
</g>
</mask>
<g id="Mask" mask="url(#mask0_outline)">
<use xlink:href="#path0_fill" transform="translate(1024 154)"/>
</g>
<g id="&#226;&#134;&#170;&#240;&#159;&#142;&#168;Color" mask="url(#mask0_outline)">
<g id="Rectangle 3">
<use xlink:href="#path1_fill" transform="translate(1021 154)"/>
</g>
</g>
</g>
</g>
<defs>
<path id="path0_fill" fill-rule="evenodd" d="M 9 4.48125C 9 2.00723 6.98047 0 4.5 0C 2.01953 0 0 2.00723 0 4.48125C 0 5.79994 0.585938 6.97472 1.5 7.7955L 1.5 14L 4.5 12.5063L 7.5 14L 7.5 7.7955C 8.41406 6.97472 9 5.79994 9 4.48125ZM 1 4.48125C 1 2.5596 2.57031 0.995834 4.5 0.995834C 6.42969 0.995834 8 2.5596 8 4.48125C 8 6.40289 6.42969 7.96666 4.5 7.96666C 2.57031 7.96666 1 6.40289 1 4.48125ZM 4.5 11.3937L 6.5 12.3896L 6.5 8.47235C 5.89453 8.77577 5.22266 8.96249 4.5 8.96249C 3.77734 8.96249 3.10547 8.77577 2.5 8.47235L 2.5 12.3896L 4.5 11.3937ZM 4.5 6.97083C 5.87891 6.97083 7 5.8544 7 4.48124C 7 3.10809 5.87891 1.99166 4.5 1.99166C 3.12109 1.99166 2 3.10809 2 4.48124C 2 5.8544 3.12109 6.97083 4.5 6.97083ZM 6 4.48125C 6 3.65657 5.32812 2.9875 4.5 2.9875C 3.67188 2.9875 3 3.65657 3 4.48125C 3 5.30202 3.67188 5.97499 4.5 5.97499C 5.32812 5.97499 6 5.30202 6 4.48125Z"/>
<path id="path1_fill" fill-rule="evenodd" d="M 0 0L 14 0L 14 14L 0 14L 0 0Z"/>
</defs>
</svg>
