<svg width="1001" height="1001" viewBox="0 0 1001 1001" version="1.1" xmlns="http://www.w3.org/2000/svg" xmlns:xlink="http://www.w3.org/1999/xlink">
<title>print</title>
<desc>Created using Figma</desc>
<g id="Canvas" transform="matrix(71.5 0 0 71.5 -78149.5 -11011)">
<rect x="1093" y="154" width="14" height="14" fill="#E5E5E5"/>
<g id="print">
<mask id="mask0_outline" mask-type="alpha">
<g id="Mask">
<use xlink:href="#path0_fill" transform="translate(1093 154)" fill="#FFFFFF"/>
</g>
</mask>
<g id="Mask" mask="url(#mask0_outline)">
<use xlink:href="#path0_fill" transform="translate(1093 154)"/>
</g>
<g id="&#226;&#134;&#170;&#240;&#159;&#142;&#168;Color" mask="url(#mask0_outline)">
<g id="Rectangle 3">
<use xlink:href="#path1_fill" transform="translate(1093 154)"/>
</g>
</g>
</g>
</g>
<defs>
<path id="path0_fill" fill-rule="evenodd" d="M 14 7.5C 14 6.67188 13.3281 6 12.5 6L 11 6L 11 0L 3 0L 3 6L 1.5 6C 0.671875 6 0 6.67188 0 7.5L 0 12L 3 12L 3 14L 11 14L 11 12L 14 12L 14 7.5ZM 4 1L 10 1L 10 6L 4 6L 4 1ZM 4 13L 10 13L 10 11L 4 11L 4 13ZM 13 11L 11 11L 11 10L 3 10L 3 11L 1 11L 1 7.5C 1 7.22656 1.22656 7 1.5 7L 12.5 7C 12.7734 7 13 7.22656 13 7.5L 13 11ZM 3 8L 2 8L 2 9L 3 9L 3 8Z"/>
<path id="path1_fill" fill-rule="evenodd" d="M 0 0L 14 0L 14 14L 0 14L 0 0Z"/>
</defs>
</svg>
