<svg width="1000" height="1000" viewBox="0 0 1000 1000" version="1.1" xmlns="http://www.w3.org/2000/svg" xmlns:xlink="http://www.w3.org/1999/xlink">
<title>process-meta-task</title>
<desc>Created using Figma</desc>
<g id="Canvas" transform="matrix(71.4286 0 0 71.4286 -81500 -11000)">
<rect x="1141" y="154" width="14" height="14" fill="#E5E5E5"/>
<g id="process-meta-task">
<mask id="mask0_outline" mask-type="alpha">
<g id="Mask">
<use xlink:href="#path0_fill" transform="translate(1141 154)" fill="#FFFFFF"/>
</g>
</mask>
<g id="Mask" mask="url(#mask0_outline)">
<use xlink:href="#path0_fill" transform="translate(1141 154)"/>
</g>
<g id="&#226;&#134;&#170;&#240;&#159;&#142;&#168;Color" mask="url(#mask0_outline)">
<g id="Rectangle 3">
<use xlink:href="#path1_fill" transform="translate(1141 154)" fill="#333333"/>
</g>
</g>
</g>
</g>
<defs>
<path id="path0_fill" fill-rule="evenodd" d="M 14 14L 0 14L 0 0L 14 0L 14 14ZM 6.60938 6.875L 6.01953 6.63281C 5.86719 6.85156 5.67969 7.03906 5.46094 7.19141L 5.70312 7.78125L 4.82422 8.14453L 4.58203 7.55469C 4.45312 7.57812 4.32031 7.59375 4.18359 7.59375C 4.05078 7.59375 3.91797 7.57812 3.78906 7.55469L 3.54297 8.14453L 2.66797 7.78125L 2.91016 7.19141C 2.69141 7.03906 2.5 6.85156 2.34766 6.63281L 1.76172 6.875L 1.39453 5.99609L 1.98828 5.75391C 1.96484 5.625 1.94531 5.49219 1.94531 5.35547C 1.94531 5.22266 1.96484 5.08984 1.98828 4.96094L 1.39844 4.71484L 1.76172 3.83984L 2.34766 4.08203C 2.5 3.86328 2.69141 3.67188 2.91016 3.51953L 2.66797 2.93359L 3.54297 2.57031L 3.78906 3.16016C 3.91797 3.13672 4.05078 3.11719 4.18359 3.11719C 4.32031 3.11719 4.45312 3.13672 4.58203 3.16016L 4.82422 2.56641L 5.70312 2.93359L 5.46094 3.51953C 5.67969 3.67188 5.86719 3.86328 6.01953 4.08203L 6.60938 3.83594L 6.97266 4.71484L 6.38281 4.96094C 6.40625 5.08984 6.42188 5.21875 6.42188 5.35547C 6.42188 5.49219 6.40625 5.625 6.38281 5.75391L 6.97266 5.99609L 6.60938 6.875ZM 2.89844 5.35547C 2.89844 6.06641 3.47656 6.64453 4.18359 6.64453C 4.89453 6.64453 5.47266 6.06641 5.47266 5.35547C 5.47266 4.64453 4.89453 4.07031 4.18359 4.07031C 3.47266 4.07031 2.89844 4.64453 2.89844 5.35547ZM 12.0664 9.23828C 12.0664 9.05078 12.0469 8.875 12.0078 8.69922L 12.6719 8.42578L 12.3086 7.54688L 11.6445 7.82422C 11.4453 7.52344 11.1875 7.26562 10.8867 7.07031L 11.1641 6.40234L 10.2852 6.03906L 10.0117 6.70312C 9.83984 6.66406 9.66016 6.64453 9.47656 6.64453C 9.29297 6.64453 9.11328 6.66406 8.94141 6.70312L 8.66406 6.03906L 7.78906 6.40234L 8.0625 7.07031C 7.76172 7.26562 7.50391 7.52344 7.30859 7.82422L 6.64453 7.55078L 6.28125 8.42578L 6.94141 8.69922C 6.90625 8.875 6.88281 9.05078 6.88281 9.23828C 6.88281 9.42188 6.90625 9.59766 6.94141 9.77344L 6.28125 10.0469L 6.64453 10.9219L 7.30859 10.6484C 7.50391 10.9492 7.76172 11.207 8.0625 11.4023L 7.78906 12.0703L 8.66406 12.4336L 8.94141 11.7695C 9.11328 11.8047 9.29297 11.8281 9.47656 11.8281C 9.66016 11.8281 9.83984 11.8086 10.0117 11.7695L 10.2852 12.4336L 11.1641 12.0703L 10.8867 11.4023C 11.1875 11.207 11.4453 10.9492 11.6445 10.6484L 12.3086 10.9219L 12.6719 10.0469L 12.0078 9.77344C 12.0469 9.59766 12.0664 9.42188 12.0664 9.23828ZM 7.83594 9.23828C 7.83594 10.1406 8.57031 10.8789 9.47656 10.8789C 10.3828 10.8789 11.1172 10.1406 11.1172 9.23828C 11.1172 8.33203 10.3828 7.59375 9.47656 7.59375C 8.57031 7.59375 7.83594 8.33203 7.83594 9.23828ZM 13 13L 1 13L 1 1L 13 1L 13 13Z"/>
<path id="path1_fill" fill-rule="evenodd" d="M 0 0L 14 0L 14 14L 0 14L 0 0Z"/>
</defs>
</svg>
