<svg width="901" height="1001" viewBox="0 0 901 1001" version="1.1" xmlns="http://www.w3.org/2000/svg" xmlns:xlink="http://www.w3.org/1999/xlink">
<title>r-development</title>
<desc>Created using Figma</desc>
<g id="Canvas" transform="matrix(100.1 0 0 100.1 -78478.4 -27527.5)">
<g id="r-development">
<use xlink:href="#path0_fill" transform="translate(783 270)"/>
</g>
</g>
<defs>
<path id="path0_fill" d="M 9.34473 15L 6.80859 15L 5.28418 12.4775C 5.17025 12.2861 5.06087 12.1152 4.95605 11.9648C 4.85124 11.8145 4.74414 11.6868 4.63477 11.582C 4.52995 11.4727 4.41829 11.3906 4.2998 11.3359C 4.18587 11.2767 4.06055 11.2471 3.92383 11.2471L 3.3291 11.2471L 3.3291 15L 1.12109 15L 1.12109 5.19727L 4.62109 5.19727C 7 5.19727 8.18945 6.08594 8.18945 7.86328C 8.18945 8.20508 8.13704 8.52181 8.03223 8.81348C 7.92741 9.10059 7.7793 9.36035 7.58789 9.59277C 7.39648 9.8252 7.16406 10.0257 6.89062 10.1943C 6.62174 10.363 6.32096 10.4951 5.98828 10.5908L 5.98828 10.6182C 6.13411 10.6637 6.27539 10.7389 6.41211 10.8438C 6.54883 10.944 6.68099 11.0625 6.80859 11.1992C 6.9362 11.3359 7.05697 11.484 7.1709 11.6436C 7.28939 11.7985 7.39648 11.9512 7.49219 12.1016L 9.34473 15ZM 3.3291 6.85156L 3.3291 9.5791L 4.28613 9.5791C 4.76009 9.5791 5.14062 9.44238 5.42773 9.16895C 5.7194 8.89095 5.86523 8.54688 5.86523 8.13672C 5.86523 7.27995 5.35254 6.85156 4.32715 6.85156L 3.3291 6.85156Z"/>
</defs>
</svg>
