<svg width="1000" height="1000" viewBox="0 0 1000 1000" version="1.1" xmlns="http://www.w3.org/2000/svg" xmlns:xlink="http://www.w3.org/1999/xlink">
<title>record</title>
<desc>Created using Figma</desc>
<g id="Canvas" transform="matrix(71.4286 0 0 71.4286 -90071.4 -11000)">
<rect x="1261" y="154" width="14" height="14" fill="#E5E5E5"/>
<g id="record">
<mask id="mask0_outline" mask-type="alpha">
<g id="Mask">
<use xlink:href="#path0_fill" transform="translate(1261 154)" fill="#FFFFFF"/>
</g>
</mask>
<g id="Mask" mask="url(#mask0_outline)">
<use xlink:href="#path0_fill" transform="translate(1261 154)"/>
</g>
<g id="&#226;&#134;&#170;&#240;&#159;&#142;&#168;Color" mask="url(#mask0_outline)">
<g id="Rectangle 3">
<use xlink:href="#path1_fill" transform="translate(1261 154)" fill="#333333"/>
</g>
</g>
</g>
</g>
<defs>
<path id="path0_fill" fill-rule="evenodd" d="M 0 7C 0 10.86 3.14001 14 7 14C 10.86 14 14 10.86 14 7C 14 3.13998 10.86 0 7 0C 3.14001 0 0 3.13998 0 7ZM 1.16663 7C 1.16663 3.78255 3.78247 1.16666 7 1.16666C 10.2174 1.16666 12.8333 3.78255 12.8333 7C 12.8333 10.2174 10.2174 12.8333 7 12.8333C 3.78247 12.8333 1.16663 10.2174 1.16663 7Z"/>
<path id="path1_fill" fill-rule="evenodd" d="M 0 0L 14 0L 14 14L 0 14L 0 0Z"/>
</defs>
</svg>
