<svg width="1000" height="1000" viewBox="0 0 1000 1000" version="1.1" xmlns="http://www.w3.org/2000/svg" xmlns:xlink="http://www.w3.org/1999/xlink">
<title>recycle-bin</title>
<desc>Created using Figma</desc>
<g id="Canvas" transform="matrix(71.4286 0 0 71.4286 -95214.3 -11000)">
<rect x="1333" y="154" width="14" height="14" fill="#E5E5E5"/>
<g id="recycle-bin">
<mask id="mask0_outline" mask-type="alpha">
<g id="Mask">
<use xlink:href="#path0_fill" transform="translate(1335 154)" fill="#FFFFFF"/>
</g>
</mask>
<g id="Mask" mask="url(#mask0_outline)">
<use xlink:href="#path0_fill" transform="translate(1335 154)"/>
</g>
<g id="&#226;&#134;&#170;&#240;&#159;&#142;&#168;Color" mask="url(#mask0_outline)">
<g id="Rectangle 3">
<use xlink:href="#path1_fill" transform="translate(1333 154)"/>
</g>
</g>
</g>
</g>
<defs>
<path id="path0_fill" fill-rule="evenodd" d="M 8 1L 8 2L 11 2L 11 3L 10 3L 10 13C 10 13.5508 9.55078 14 9 14L 2 14C 1.44922 14 1 13.5508 1 13L 1 3L 0 3L 0 2L 3 2L 3 1C 3 0.449219 3.44922 0 4 0L 7 0C 7.55078 0 8 0.449219 8 1ZM 7 1L 4 1L 4 2L 7 2L 7 1ZM 9 3L 9 13L 2 13L 2 3L 9 3ZM 4 9.625L 2.75 9.625C 2.54688 9.625 2.37109 9.52734 2.28516 9.36719C 2.19531 9.20703 2.20703 9.01172 2.31641 8.83984L 3.35156 7.19922L 3.07812 7.29297L 2.83594 6.58203L 4.375 6.0625L 4.89844 7.59766L 4.1875 7.83984L 4.0625 7.47656L 3.17969 8.875L 4 8.875L 4 9.625ZM 7.82031 8.875L 5.96484 8.875L 6.20703 8.63281L 5.67578 8.10156L 4.52734 9.25L 5.67578 10.3984L 6.20703 9.86719L 5.96484 9.625L 8.25 9.625C 8.45312 9.625 8.62891 9.52734 8.71484 9.36719C 8.80469 9.20703 8.79297 9.01172 8.68359 8.83984L 8.31641 8.25781L 7.68359 8.66016L 7.82031 8.875ZM 6.63281 7L 5.5 5.20312L 5.1875 5.69922L 4.55078 5.30078L 4.97266 4.63281C 5.08594 4.45312 5.28516 4.34375 5.5 4.34375C 5.71484 4.34375 5.91406 4.45312 6.02734 4.63281L 7.17578 6.45312L 7.21484 6.19922L 7.95703 6.3125L 7.71484 7.91797L 6.10938 7.67969L 6.21875 6.9375L 6.63281 7Z"/>
<path id="path1_fill" fill-rule="evenodd" d="M 0 0L 14 0L 14 14L 0 14L 0 0Z"/>
</defs>
</svg>
