<svg width="1000" height="1000" viewBox="0 0 1000 1000" version="1.1" xmlns="http://www.w3.org/2000/svg" xmlns:xlink="http://www.w3.org/1999/xlink">
<title>reminderGroup</title>
<desc>Created using Figma</desc>
<g id="Canvas" transform="matrix(71.4286 0 0 71.4286 -18071.4 -17857.1)">
<g id="reminderGroup">
<use xlink:href="#path0_fill" transform="translate(253 250)" fill="#333333"/>
</g>
</g>
<defs>
<path id="path0_fill" d="M 13.8701 9.93262L 10.0625 13.7471L 8.22363 11.9014L 8.83887 11.2861L 10.0625 12.5029L 13.2549 9.31738L 13.8701 9.93262ZM 5.03125 9.99414C 5.33203 10.1445 5.60319 10.3291 5.84473 10.5479C 6.08626 10.7666 6.29134 11.0104 6.45996 11.2793C 6.63314 11.5482 6.7653 11.8398 6.85645 12.1543C 6.95215 12.4688 7 12.7923 7 13.125L 6.125 13.125C 6.125 12.765 6.05664 12.4255 5.91992 12.1064C 5.7832 11.7874 5.59408 11.5094 5.35254 11.2725C 5.11556 11.0309 4.83757 10.8418 4.51855 10.7051C 4.19954 10.5684 3.86003 10.5 3.5 10.5C 3.13542 10.5 2.79362 10.5684 2.47461 10.7051C 2.16016 10.8418 1.88216 11.0309 1.64062 11.2725C 1.40365 11.5094 1.2168 11.7874 1.08008 12.1064C 0.943359 12.4255 0.875 12.765 0.875 13.125L 0 13.125C 0 12.7923 0.0455729 12.4688 0.136719 12.1543C 0.232422 11.8398 0.364583 11.5482 0.533203 11.2793C 0.70638 11.0104 0.913737 10.7666 1.15527 10.5479C 1.39681 10.3291 1.66797 10.1445 1.96875 9.99414C 1.62695 9.74805 1.35807 9.44043 1.16211 9.07129C 0.970703 8.70215 0.875 8.30339 0.875 7.875C 0.875 7.51497 0.943359 7.17546 1.08008 6.85645C 1.2168 6.53744 1.40365 6.25944 1.64062 6.02246C 1.88216 5.78092 2.16016 5.5918 2.47461 5.45508C 2.79362 5.31836 3.13542 5.25 3.5 5.25C 3.92839 5.25 4.32715 5.34798 4.69629 5.54395C 5.06543 5.73535 5.37305 6.00195 5.61914 6.34375C 5.79232 5.9974 6.01562 5.6875 6.28906 5.41406C 6.5625 5.14062 6.8724 4.91732 7.21875 4.74414C 6.87695 4.49805 6.60807 4.19043 6.41211 3.82129C 6.2207 3.45215 6.125 3.05339 6.125 2.625C 6.125 2.26497 6.19336 1.92546 6.33008 1.60645C 6.4668 1.28744 6.65365 1.00944 6.89062 0.772461C 7.13216 0.530924 7.41016 0.341797 7.72461 0.205078C 8.04362 0.0683594 8.38542 0 8.75 0C 9.11003 0 9.44954 0.0683594 9.76855 0.205078C 10.0876 0.341797 10.3656 0.530924 10.6025 0.772461C 10.8441 1.00944 11.0332 1.28744 11.1699 1.60645C 11.3066 1.92546 11.375 2.26497 11.375 2.625C 11.375 3.05339 11.277 3.45215 11.0811 3.82129C 10.8896 4.19043 10.623 4.49805 10.2812 4.74414C 10.582 4.89453 10.8532 5.0791 11.0947 5.29785C 11.3363 5.5166 11.5413 5.76042 11.71 6.0293C 11.8831 6.29818 12.0153 6.58984 12.1064 6.9043C 12.2021 7.21875 12.25 7.54232 12.25 7.875L 11.375 7.875C 11.375 7.51497 11.3066 7.17546 11.1699 6.85645C 11.0332 6.53744 10.8441 6.25944 10.6025 6.02246C 10.3656 5.78092 10.0876 5.5918 9.76855 5.45508C 9.44954 5.31836 9.11003 5.25 8.75 5.25C 8.38542 5.25 8.04362 5.31836 7.72461 5.45508C 7.41016 5.5918 7.13216 5.78092 6.89062 6.02246C 6.65365 6.25944 6.4668 6.53744 6.33008 6.85645C 6.19336 7.17546 6.125 7.51497 6.125 7.875C 6.125 8.30339 6.02702 8.70215 5.83105 9.07129C 5.63965 9.44043 5.37305 9.74805 5.03125 9.99414ZM 7 2.625C 7 2.86654 7.04557 3.0944 7.13672 3.30859C 7.22786 3.51823 7.35319 3.7028 7.5127 3.8623C 7.6722 4.02181 7.85677 4.14714 8.06641 4.23828C 8.2806 4.32943 8.50846 4.375 8.75 4.375C 8.99154 4.375 9.21712 4.32943 9.42676 4.23828C 9.64095 4.14714 9.8278 4.02181 9.9873 3.8623C 10.1468 3.7028 10.2721 3.51823 10.3633 3.30859C 10.4544 3.0944 10.5 2.86654 10.5 2.625C 10.5 2.38346 10.4544 2.15788 10.3633 1.94824C 10.2721 1.73405 10.1468 1.5472 9.9873 1.3877C 9.8278 1.22819 9.64095 1.10286 9.42676 1.01172C 9.21712 0.920573 8.99154 0.875 8.75 0.875C 8.50846 0.875 8.2806 0.920573 8.06641 1.01172C 7.85677 1.10286 7.6722 1.22819 7.5127 1.3877C 7.35319 1.5472 7.22786 1.73405 7.13672 1.94824C 7.04557 2.15788 7 2.38346 7 2.625ZM 1.75 7.875C 1.75 8.11654 1.79557 8.3444 1.88672 8.55859C 1.97786 8.76823 2.10319 8.9528 2.2627 9.1123C 2.4222 9.27181 2.60677 9.39714 2.81641 9.48828C 3.0306 9.57943 3.25846 9.625 3.5 9.625C 3.74154 9.625 3.96712 9.57943 4.17676 9.48828C 4.39095 9.39714 4.5778 9.27181 4.7373 9.1123C 4.89681 8.9528 5.02214 8.76823 5.11328 8.55859C 5.20443 8.3444 5.25 8.11654 5.25 7.875C 5.25 7.63346 5.20443 7.40788 5.11328 7.19824C 5.02214 6.98405 4.89681 6.7972 4.7373 6.6377C 4.5778 6.47819 4.39095 6.35286 4.17676 6.26172C 3.96712 6.17057 3.74154 6.125 3.5 6.125C 3.25846 6.125 3.0306 6.17057 2.81641 6.26172C 2.60677 6.35286 2.4222 6.47819 2.2627 6.6377C 2.10319 6.7972 1.97786 6.98405 1.88672 7.19824C 1.79557 7.40788 1.75 7.63346 1.75 7.875Z"/>
</defs>
</svg>
