<svg width="1000" height="1000" viewBox="0 0 1000 1000" version="1.1" xmlns="http://www.w3.org/2000/svg" xmlns:xlink="http://www.w3.org/1999/xlink">
<title>repo-tfvc</title>
<desc>Created using Figma</desc>
<g id="Canvas" transform="matrix(71.4286 0 0 71.4286 -21500 -12714.3)">
<rect x="301" y="178" width="14" height="14" fill="#E5E5E5"/>
<g id="repo-tfvc">
<mask id="mask0_outline" mask-type="alpha">
<g id="Mask">
<use xlink:href="#path0_fill" transform="translate(301 179)" fill="#FFFFFF"/>
</g>
</mask>
<g id="Mask" mask="url(#mask0_outline)">
<use xlink:href="#path0_fill" transform="translate(301 179)"/>
</g>
<g id="&#226;&#134;&#170;&#240;&#159;&#142;&#168;Color" mask="url(#mask0_outline)">
<g id="Rectangle 3">
<use xlink:href="#path1_fill" transform="translate(301 178)"/>
</g>
</g>
</g>
</g>
<defs>
<path id="path0_fill" fill-rule="evenodd" d="M 0 0L 0 3L 14 3L 14 0L 0 0ZM 5.33203 4C 5.14453 4.13672 4.96484 4.28906 4.81641 4.46875C 4.61328 4.28516 4.38672 4.13281 4.15234 4L 5.33203 4ZM 3.51953 13L 4.28516 13C 4.0625 12.7422 3.88281 12.4414 3.77344 12.1094C 3.74609 12.4258 3.65234 12.7266 3.51953 13ZM 7.10938 8.77344C 8.44922 8.64844 9.5 7.51562 9.5 6.14453C 9.5 5.25781 9.05859 4.48047 8.39062 4L 13 4L 13 13L 8.28125 13C 8.67969 12.5391 8.92969 11.9414 8.92969 11.2852C 8.92969 10.1172 8.16406 9.12109 7.10938 8.77344ZM 7.42969 11.2852C 7.42969 11.918 6.91797 12.4297 6.28516 12.4297C 5.65234 12.4297 5.14453 11.918 5.14453 11.2852C 5.14453 11.0742 5.20312 10.8789 5.30469 10.707L 3.67969 9.08594C 3.29297 9.38672 2.8125 9.57031 2.28516 9.57031C 2.21114 9.57031 2.14198 9.56058 2.07193 9.5507C 2.05325 9.54807 2.03453 9.54544 2.01562 9.54297L 1.6875 10.8594C 2.04297 11.0508 2.28516 11.4258 2.28516 11.8555C 2.28516 12.4883 1.77344 13 1.14453 13C 0.511719 13 0 12.4883 0 11.8555C 0 11.2305 0.507812 10.7188 1.13281 10.7148L 1.46094 9.41016C 0.605469 9.07812 0 8.25391 0 7.28516C 0 6.02344 1.02344 5 2.28516 5C 3.25391 5 4.08203 5.60547 4.41016 6.46094L 5.71484 6.13281C 5.71875 5.50781 6.23047 5 6.85547 5C 7.48828 5 8 5.51172 8 6.14453C 8 6.77344 7.48828 7.28516 6.85547 7.28516C 6.42578 7.28516 6.05078 7.04297 5.85938 6.6875L 4.54297 7.01562C 4.54544 7.03453 4.54807 7.05325 4.5507 7.07193C 4.56058 7.14198 4.57031 7.21114 4.57031 7.28516C 4.57031 7.8125 4.38672 8.29297 4.08594 8.67969L 5.70703 10.3047C 5.87891 10.2031 6.07422 10.1445 6.28516 10.1445C 6.91797 10.1445 7.42969 10.6523 7.42969 11.2852ZM 2.28516 6.14453C 2.91797 6.14453 3.42969 6.65234 3.42969 7.28516C 3.42969 7.91797 2.91797 8.42969 2.28516 8.42969C 1.65234 8.42969 1.14453 7.91797 1.14453 7.28516C 1.14453 6.65234 1.65234 6.14453 2.28516 6.14453Z"/>
<path id="path1_fill" fill-rule="evenodd" d="M 0 0L 14 0L 14 14L 0 14L 0 0Z"/>
</defs>
</svg>
