<svg width="1001" height="1001" viewBox="0 0 1001 1001" version="1.1" xmlns="http://www.w3.org/2000/svg" xmlns:xlink="http://www.w3.org/1999/xlink">
<title>repo-submodule</title>
<desc>Created using Figma</desc>
<g id="Canvas" transform="matrix(71.5 0 0 71.5 -19805.5 -12727)">
<rect x="277" y="178" width="14" height="14" fill="#E5E5E5"/>
<g id="repo-submodule">
<mask id="mask0_outline" mask-type="alpha">
<g id="Mask">
<use xlink:href="#path0_fill" transform="translate(277 179)" fill="#FFFFFF"/>
</g>
</mask>
<g id="Mask" mask="url(#mask0_outline)">
<use xlink:href="#path0_fill" transform="translate(277 179)"/>
</g>
<g id="&#226;&#134;&#170;&#240;&#159;&#142;&#168;Color" mask="url(#mask0_outline)">
<g id="Rectangle 3">
<use xlink:href="#path1_fill" transform="translate(277 178)"/>
</g>
</g>
</g>
</g>
<defs>
<path id="path0_fill" fill-rule="evenodd" d="M 8.1875 2L 6.20703 0L 0 0L 0 6.30859L 3.82812 2.48047C 4.13672 2.17188 4.55078 2 4.98828 2C 5.42969 2 5.84375 2.17188 6.15234 2.48438L 10.5195 6.84766C 10.8281 7.16016 11 7.57031 11 8.01172C 11 8.44922 10.8281 8.86328 10.5195 9.17188L 7.69141 12L 14 12L 14 2L 8.1875 2ZM 2.32812 12L 0 12L 0 9.67188L 2.32812 12ZM 5.46484 12.8125L 9.8125 8.46484C 10.0625 8.21484 10.0625 7.80469 9.8125 7.55469L 5.44531 3.1875C 5.19531 2.9375 4.78516 2.9375 4.53516 3.1875L 3.62891 4.09375L 4.77734 5.24609C 5.04688 5.15625 5.35156 5.21484 5.5625 5.42969C 5.77734 5.64453 5.83984 5.95312 5.74609 6.22266L 6.85547 7.32812C 7.12109 7.23828 7.43359 7.29688 7.64844 7.51172C 7.94531 7.80859 7.94531 8.29688 7.64844 8.59375C 7.34766 8.89453 6.85938 8.89453 6.5625 8.59375C 6.33594 8.37109 6.28125 8.03906 6.39453 7.76172L 5.36328 6.72656L 5.36328 9.41797C 5.48047 9.48438 5.57812 9.58203 5.64844 9.69531C 5.85938 9.99609 5.83203 10.4102 5.5625 10.6758C 5.44141 10.7969 5.28906 10.8672 5.13281 10.8906C 5.07812 10.9023 5.02344 10.9062 4.96484 10.9062C 4.52344 10.9062 4.16797 10.5508 4.16797 10.1094C 4.16797 9.87109 4.27344 9.66016 4.4375 9.51172C 4.44972 9.4995 4.4612 9.48741 4.47237 9.47566C 4.5183 9.42734 4.55901 9.38451 4.625 9.35938L 4.625 6.58984C 4.59609 6.57854 4.57851 6.5741 4.56548 6.57082C 4.53802 6.56387 4.53081 6.56206 4.48047 6.51172C 4.25391 6.28516 4.19922 5.95312 4.31641 5.67578L 3.18359 4.53906L 0.1875 7.53516C -0.0625 7.78516 -0.0625 8.19531 0.1875 8.44531L 4.55469 12.8125C 4.80469 13.0625 5.21484 13.0625 5.46484 12.8125Z"/>
<path id="path1_fill" fill-rule="evenodd" d="M 0 0L 14 0L 14 14L 0 14L 0 0Z"/>
</defs>
</svg>
