<svg width="835" height="1001" viewBox="0 0 835 1001" version="1.1" xmlns="http://www.w3.org/2000/svg" xmlns:xlink="http://www.w3.org/1999/xlink">
<title>ribbon-2</title>
<desc>Created using Figma</desc>
<g id="Canvas" transform="matrix(83.4167 0 0 83.4167 -53303.2 -22939.6)">
<g id="ribbon-2">
<use xlink:href="#path0_fill" transform="translate(638 275)"/>
</g>
</g>
<defs>
<path id="path0_fill" d="M 6 6C 5.79297 6 5.59766 5.96094 5.41406 5.88281C 5.23437 5.80469 5.07617 5.69727 4.93945 5.56055C 4.80273 5.42383 4.69531 5.26562 4.61719 5.08594C 4.53906 4.90234 4.5 4.70703 4.5 4.5C 4.5 4.29297 4.53906 4.09961 4.61719 3.91992C 4.69531 3.73633 4.80273 3.57617 4.93945 3.43945C 5.07617 3.30273 5.23437 3.19531 5.41406 3.11719C 5.59766 3.03906 5.79297 3 6 3C 6.20703 3 6.40039 3.03906 6.58008 3.11719C 6.76367 3.19531 6.92383 3.30273 7.06055 3.43945C 7.19727 3.57617 7.30469 3.73633 7.38281 3.91992C 7.46094 4.09961 7.5 4.29297 7.5 4.5C 7.5 4.70703 7.46094 4.90234 7.38281 5.08594C 7.30469 5.26562 7.19727 5.42383 7.06055 5.56055C 6.92383 5.69727 6.76367 5.80469 6.58008 5.88281C 6.40039 5.96094 6.20703 6 6 6ZM 6 3.75C 5.89453 3.75 5.79687 3.76953 5.70703 3.80859C 5.61719 3.84766 5.53711 3.90234 5.4668 3.97266C 5.40039 4.03906 5.34766 4.11719 5.30859 4.20703C 5.26953 4.29688 5.25 4.39453 5.25 4.5C 5.25 4.60547 5.26953 4.70312 5.30859 4.79297C 5.34766 4.88281 5.40039 4.96289 5.4668 5.0332C 5.53711 5.09961 5.61719 5.15234 5.70703 5.19141C 5.79687 5.23047 5.89453 5.25 6 5.25C 6.10547 5.25 6.20312 5.23047 6.29297 5.19141C 6.38281 5.15234 6.46094 5.09961 6.52734 5.0332C 6.59766 4.96289 6.65234 4.88281 6.69141 4.79297C 6.73047 4.70312 6.75 4.60547 6.75 4.5C 6.75 4.39453 6.73047 4.29688 6.69141 4.20703C 6.65234 4.11719 6.59766 4.03906 6.52734 3.97266C 6.46094 3.90234 6.38281 3.84766 6.29297 3.80859C 6.20312 3.76953 6.10547 3.75 6 3.75ZM 8.63672 7.5L 9.44531 10.7461L 6.48633 11.7363L 6 9.79688L 5.51367 11.7363L 2.55469 10.7461L 3.36328 7.5L 3 7.5L 3 5.7832L 1.7168 4.5L 3 3.2168L 3 1.5L 4.7168 1.5L 6 0.216797L 7.2832 1.5L 9 1.5L 9 3.2168L 10.2832 4.5L 9 5.7832L 9 7.5L 8.63672 7.5ZM 3.75 5.4668L 3.75 6.75L 5.0332 6.75L 6 7.7168L 6.9668 6.75L 8.25 6.75L 8.25 5.4668L 9.2168 4.5L 8.25 3.5332L 8.25 2.25L 6.9668 2.25L 6 1.2832L 5.0332 2.25L 3.75 2.25L 3.75 3.5332L 2.7832 4.5L 3.75 5.4668ZM 5.58398 8.36719L 4.7168 7.5L 4.13672 7.5L 3.44531 10.2539L 4.98633 10.7637L 5.58398 8.36719ZM 7.86328 7.5L 7.2832 7.5L 6.41602 8.36719L 7.01367 10.7637L 8.55469 10.2539L 7.86328 7.5Z"/>
</defs>
</svg>
