<svg width="875" height="1000" viewBox="0 0 875 1000" version="1.1" xmlns="http://www.w3.org/2000/svg" xmlns:xlink="http://www.w3.org/1999/xlink">
<title>robot</title>
<desc>Created using Figma</desc>
<g id="Canvas" transform="matrix(62.5 0 0 62.5 -21812.5 -11062.5)">
<rect x="349" y="177" width="14" height="16" fill="#E5E5E5"/>
<g id="robot">
<mask id="mask0_outline" mask-type="alpha">
<g id="Mask">
<use xlink:href="#path0_fill" transform="translate(349 177)" fill="#FFFFFF"/>
</g>
</mask>
<g id="Mask" mask="url(#mask0_outline)">
<use xlink:href="#path0_fill" transform="translate(349 177)"/>
</g>
<g id="&#226;&#134;&#170;&#240;&#159;&#142;&#168;Color" mask="url(#mask0_outline)">
<g id="Rectangle 3">
<use xlink:href="#path1_fill" transform="translate(349 178)"/>
</g>
</g>
</g>
</g>
<defs>
<path id="path0_fill" fill-rule="evenodd" d="M 12.3846 11.4286L 9.69231 11.4286L 9.69231 10.2857L 10.4453 10.2857C 11.232 10.2857 11.8462 9.40625 11.8462 8.28572L 11.8462 8L 12.9231 8L 12.9231 5.71428L 11.8462 5.71428L 11.8462 5.42857C 11.8462 4.30803 11.232 3.42857 10.4453 3.42857L 7.53847 3.42857L 7.53847 2.1116C 7.85397 1.91072 8.07692 1.5625 8.07692 1.14285C 8.07692 0.513397 7.59315 0 7 0C 6.40685 0 5.92308 0.513397 5.92308 1.14285C 5.92308 1.5625 6.14603 1.91072 6.46153 2.1116L 6.46153 3.42857L 3.55469 3.42857C 2.76804 3.42857 2.15384 4.30803 2.15384 5.42857L 2.15384 5.71428L 1.07692 5.71428L 1.07692 8L 2.15384 8L 2.15384 8.28572C 2.15384 9.40625 2.76804 10.2857 3.55469 10.2857L 4.30769 10.2857L 4.30769 11.4286L 1.61539 11.4286C 0.723557 11.4286 0 12.0848 0 12.8884L 0 16L 1.07692 16L 1.07692 12.8884C 1.07692 12.7634 1.29147 12.5714 1.61539 12.5714L 12.3846 12.5714C 12.7085 12.5714 12.9231 12.7634 12.9231 12.8884L 12.9231 16L 14 16L 14 12.8884C 14 12.0848 13.2764 11.4286 12.3846 11.4286ZM 3.55469 9.14285C 3.47476 9.14285 3.23077 8.83928 3.23077 8.28571L 3.23077 5.42857C 3.23077 4.875 3.47476 4.57143 3.55469 4.57143L 10.4453 4.57143C 10.5252 4.57143 10.7692 4.875 10.7692 5.42857L 10.7692 8.28571C 10.7692 8.83928 10.5252 9.14285 10.4453 9.14285L 3.55469 9.14285ZM 5.38461 10.2857L 5.38461 11.4286L 8.61539 11.4286L 8.61539 10.2857L 5.38461 10.2857ZM 5.38461 6.85713L 4.30769 6.85713L 4.30769 5.71428L 5.38461 5.71428L 5.38461 6.85713ZM 8.61539 6.85713L 9.69231 6.85713L 9.69231 5.71428L 8.61539 5.71428L 8.61539 6.85713Z"/>
<path id="path1_fill" fill-rule="evenodd" d="M 0 0L 14 0L 14 14L 0 14L 0 0Z"/>
</defs>
</svg>
