<svg width="1001" height="1001" viewBox="0 0 1001 1001" version="1.1" xmlns="http://www.w3.org/2000/svg" xmlns:xlink="http://www.w3.org/1999/xlink">
<title>rocket</title>
<desc>Created using Figma</desc>
<g id="Canvas" transform="matrix(83.4167 0 0 83.4167 -23106.4 -22856.2)">
<g id="rocket">
<use xlink:href="#path0_fill" transform="translate(277 274)"/>
</g>
</g>
<defs>
<path id="path0_fill" d="M 12 0L 12 0.375C 12 1.08594 11.9355 1.75 11.8066 2.36719C 11.6816 2.98438 11.4902 3.56836 11.2324 4.11914C 10.9746 4.66992 10.6504 5.19531 10.2598 5.69531C 9.86914 6.19141 9.41211 6.67578 8.88867 7.14844L 7.76953 10.5L 6 10.5L 6 9.16992C 5.46094 9.48633 4.91602 9.79102 4.36523 10.084L 1.91602 7.63477C 2.20898 7.08398 2.51367 6.53906 2.83008 6L 1.5 6L 1.5 4.23047L 4.85156 3.11719C 5.32422 2.58984 5.80859 2.13086 6.30469 1.74023C 6.80469 1.34961 7.33008 1.02539 7.88086 0.767578C 8.43164 0.509766 9.01562 0.31836 9.63281 0.193359C 10.25 0.0644531 10.9141 0 11.625 0L 12 0ZM 3.26953 5.25C 3.38281 5.07031 3.49609 4.89258 3.60938 4.7168C 3.72656 4.54102 3.84766 4.36719 3.97266 4.19531L 2.25 4.76953L 2.25 5.25L 3.26953 5.25ZM 4.50586 9.15234C 4.70508 9.03906 4.9043 8.92773 5.10352 8.81836C 5.30273 8.70508 5.50195 8.5918 5.70117 8.47852L 3.52148 6.29883C 3.4082 6.49805 3.29492 6.69727 3.18164 6.89648C 3.07227 7.0957 2.96094 7.29687 2.84766 7.5L 4.50586 9.15234ZM 7.80469 8.02734C 7.63281 8.15234 7.45898 8.27344 7.2832 8.39062C 7.10742 8.50391 6.92969 8.61719 6.75 8.73047L 6.75 9.75L 7.23047 9.75L 7.80469 8.02734ZM 8.87695 6.11133C 9.26367 5.72461 9.59961 5.33203 9.88477 4.93359C 10.1738 4.53125 10.416 4.11328 10.6113 3.67969C 10.8066 3.24219 10.9551 2.7832 11.0566 2.30273C 11.1621 1.81836 11.2246 1.30273 11.2441 0.755859C 10.6973 0.775391 10.1816 0.837891 9.69727 0.943359C 9.2168 1.04492 8.75781 1.19336 8.32031 1.38867C 7.88672 1.58398 7.46875 1.82617 7.06641 2.11523C 6.66406 2.40039 6.26758 2.73437 5.87695 3.11719C 5.49023 3.49609 5.13672 3.89648 4.81641 4.31836C 4.49609 4.73633 4.19531 5.17578 3.91406 5.63672L 6.36328 8.08594C 6.82422 7.80469 7.26367 7.50391 7.68164 7.18359C 8.09961 6.85938 8.49805 6.50195 8.87695 6.11133ZM 7.5 6C 7.29297 6 7.09766 5.96094 6.91406 5.88281C 6.73438 5.80469 6.57617 5.69727 6.43945 5.56055C 6.30273 5.42383 6.19531 5.26562 6.11719 5.08594C 6.03906 4.90234 6 4.70703 6 4.5C 6 4.29297 6.03906 4.09961 6.11719 3.91992C 6.19531 3.73633 6.30273 3.57617 6.43945 3.43945C 6.57617 3.30273 6.73438 3.19531 6.91406 3.11719C 7.09766 3.03906 7.29297 3 7.5 3C 7.70703 3 7.90039 3.03906 8.08008 3.11719C 8.26367 3.19531 8.42383 3.30273 8.56055 3.43945C 8.69727 3.57617 8.80469 3.73633 8.88281 3.91992C 8.96094 4.09961 9 4.29297 9 4.5C 9 4.70703 8.96094 4.90234 8.88281 5.08594C 8.80469 5.26562 8.69727 5.42383 8.56055 5.56055C 8.42383 5.69727 8.26367 5.80469 8.08008 5.88281C 7.90039 5.96094 7.70703 6 7.5 6ZM 7.5 3.75C 7.39453 3.75 7.29688 3.76953 7.20703 3.80859C 7.11719 3.84766 7.03711 3.90234 6.9668 3.97266C 6.90039 4.03906 6.84766 4.11719 6.80859 4.20703C 6.76953 4.29688 6.75 4.39453 6.75 4.5C 6.75 4.60547 6.76953 4.70312 6.80859 4.79297C 6.84766 4.88281 6.90039 4.96289 6.9668 5.0332C 7.03711 5.09961 7.11719 5.15234 7.20703 5.19141C 7.29688 5.23047 7.39453 5.25 7.5 5.25C 7.60547 5.25 7.70312 5.23047 7.79297 5.19141C 7.88281 5.15234 7.96094 5.09961 8.02734 5.0332C 8.09766 4.96289 8.15234 4.88281 8.19141 4.79297C 8.23047 4.70312 8.25 4.60547 8.25 4.5C 8.25 4.39453 8.23047 4.29688 8.19141 4.20703C 8.15234 4.11719 8.09766 4.03906 8.02734 3.97266C 7.96094 3.90234 7.88281 3.84766 7.79297 3.80859C 7.70312 3.76953 7.60547 3.75 7.5 3.75ZM 1.5 9C 1.70703 9 1.90039 9.03906 2.08008 9.11719C 2.26367 9.19531 2.42383 9.30273 2.56055 9.43945C 2.69727 9.57617 2.80469 9.73633 2.88281 9.91992C 2.96094 10.0996 3 10.293 3 10.5C 3 10.707 2.96094 10.9023 2.88281 11.0859C 2.80469 11.2656 2.69727 11.4238 2.56055 11.5605C 2.42383 11.6973 2.26367 11.8047 2.08008 11.8828C 1.90039 11.9609 1.70703 12 1.5 12L 0 12L 0 10.5C 0 10.293 0.0390625 10.0996 0.117188 9.91992C 0.195312 9.73633 0.302734 9.57617 0.439453 9.43945C 0.576172 9.30273 0.734375 9.19531 0.914062 9.11719C 1.09766 9.03906 1.29297 9 1.5 9ZM 1.5 11.25C 1.60547 11.25 1.70312 11.2305 1.79297 11.1914C 1.88281 11.1523 1.96094 11.0996 2.02734 11.0332C 2.09766 10.9629 2.15234 10.8828 2.19141 10.793C 2.23047 10.7031 2.25 10.6055 2.25 10.5C 2.25 10.3945 2.23047 10.2969 2.19141 10.207C 2.15234 10.1172 2.09766 10.0391 2.02734 9.97266C 1.96094 9.90234 1.88281 9.84766 1.79297 9.80859C 1.70312 9.76953 1.60547 9.75 1.5 9.75C 1.39453 9.75 1.29687 9.76953 1.20703 9.80859C 1.11719 9.84766 1.03711 9.90234 0.966797 9.97266C 0.900391 10.0391 0.847656 10.1172 0.808594 10.207C 0.769531 10.2969 0.75 10.3945 0.75 10.5L 0.75 11.25L 1.5 11.25Z"/>
</defs>
</svg>
