<svg width="1000" height="1000" viewBox="0 0 1000 1000" version="1.1" xmlns="http://www.w3.org/2000/svg" xmlns:xlink="http://www.w3.org/1999/xlink">
<title>save-all</title>
<desc>Created using Figma</desc>
<g id="Canvas" transform="matrix(71.4286 0 0 71.4286 -30071.4 -12714.3)">
<rect x="421" y="178" width="14" height="14" fill="#E5E5E5"/>
<g id="save-all">
<mask id="mask0_outline" mask-type="alpha">
<g id="Mask">
<use xlink:href="#path0_fill" transform="translate(421 178)" fill="#FFFFFF"/>
</g>
</mask>
<g id="Mask" mask="url(#mask0_outline)">
<use xlink:href="#path0_fill" transform="translate(421 178)"/>
</g>
<g id="&#226;&#134;&#170;&#240;&#159;&#142;&#168;Color" mask="url(#mask0_outline)">
<g id="Rectangle 3">
<use xlink:href="#path1_fill" transform="translate(421 178)"/>
</g>
</g>
</g>
</g>
<defs>
<path id="path0_fill" fill-rule="evenodd" d="M 6 0L 6 7L 7 8L 8 8L 8 6L 12 6L 12 8L 14 8L 14 0L 6 0ZM 1 9L 1 7L 5 7L 5 6L 0 6L 0 13L 1 14L 2 14L 2 12L 6 12L 6 14L 8 14L 8 9L 1 9ZM 3 13L 4 13L 4 14L 3 14L 3 13ZM 9 8L 9 7L 10 7L 10 8L 9 8ZM 7 3L 13 3L 13 1L 7 1L 7 3Z"/>
<path id="path1_fill" fill-rule="evenodd" d="M 0 0L 14 0L 14 14L 0 14L 0 0Z"/>
</defs>
</svg>
