<svg width="1001" height="1001" viewBox="0 0 1001 1001" version="1.1" xmlns="http://www.w3.org/2000/svg" xmlns:xlink="http://www.w3.org/1999/xlink">
<title>script</title>
<desc>Created using Figma</desc>
<g id="Canvas" transform="matrix(71.5 0 0 71.5 -36965.5 -12727)">
<rect x="517" y="178" width="14" height="14" fill="#E5E5E5"/>
<g id="script">
<mask id="mask0_outline" mask-type="alpha">
<g id="Mask">
<use xlink:href="#path0_fill" transform="translate(517 178)" fill="#FFFFFF"/>
</g>
</mask>
<g id="Mask" mask="url(#mask0_outline)">
<use xlink:href="#path0_fill" transform="translate(517 178)"/>
</g>
<g id="&#226;&#134;&#170;&#240;&#159;&#142;&#168;Color" mask="url(#mask0_outline)">
<g id="Rectangle 3">
<use xlink:href="#path1_fill" transform="translate(517 178)"/>
</g>
</g>
</g>
</g>
<defs>
<path id="path0_fill" fill-rule="evenodd" d="M 4 0L 12 0C 13.1016 0 14 0.898438 14 2C 14 3.10156 13.1016 4 12 4L 11 4L 11 12C 11 13.1016 10.1016 14 9 14L 2 14C 1.46484 14 0.964844 13.793 0.585938 13.4141C 0.207031 13.0352 0 12.5352 0 12C 0 11.4648 0.207031 10.9648 0.585938 10.5859C 0.964844 10.207 1.46484 10 2 10L 2 2C 2 0.898438 2.89844 0 4 0ZM 1.29297 12.707C 1.48047 12.8945 1.73438 13 2 13L 7.27734 13C 7.10156 12.6992 7 12.3594 7 12C 7 11.6445 7.09375 11.3008 7.26562 11L 2 11C 1.73438 11 1.48047 11.1055 1.29297 11.293C 1.10547 11.4805 1 11.7344 1 12C 1 12.2656 1.10547 12.5195 1.29297 12.707ZM 10 2L 10 12C 10 12.5508 9.55078 13 9 13C 8.73438 13 8.48047 12.8945 8.29297 12.707C 8.10547 12.5195 8 12.2656 8 12C 8 11.7344 8.10547 11.4805 8.29297 11.293C 8.48047 11.1055 8.73438 11 9 11C 9.27734 11 9.5 10.7773 9.5 10.5C 9.5 10.2227 9.27734 10 9 10L 3 10L 3 2C 3 1.44922 3.44922 1 4 1L 10.2773 1C 10.1055 1.29688 10 1.63281 10 2ZM 11 3L 12 3C 12.5508 3 13 2.55078 13 2C 13 1.44922 12.5508 1 12 1C 11.4492 1 11 1.44922 11 2L 11 3Z"/>
<path id="path1_fill" fill-rule="evenodd" d="M 0 0L 14 0L 14 14L 0 14L 0 0Z"/>
</defs>
</svg>
