<svg width="1000" height="1000" viewBox="0 0 1000 1000" version="1.1" xmlns="http://www.w3.org/2000/svg" xmlns:xlink="http://www.w3.org/1999/xlink">
<title>search</title>
<desc>Created using Figma</desc>
<g id="Canvas" transform="matrix(71.4286 0 0 71.4286 -38642.9 -12714.3)">
<rect x="541" y="178" width="14" height="14" fill="#E5E5E5"/>
<g id="search">
<mask id="mask0_outline" mask-type="alpha">
<g id="Mask">
<use xlink:href="#path0_fill" transform="translate(541 178)" fill="#FFFFFF"/>
</g>
</mask>
<g id="Mask" mask="url(#mask0_outline)">
<use xlink:href="#path0_fill" transform="translate(541 178)"/>
</g>
<g id="&#226;&#134;&#170;&#240;&#159;&#142;&#168;Color" mask="url(#mask0_outline)">
<g id="Rectangle 3">
<use xlink:href="#path1_fill" transform="translate(541 178)"/>
</g>
</g>
</g>
</g>
<defs>
<path id="path0_fill" fill-rule="evenodd" d="M 4.33068 4.83203C 4.33068 2.16797 6.50286 0 9.16729 0C 11.8317 0 14 2.16797 14 4.83203C 14 7.5 11.8317 9.66797 9.16729 9.66797C 8.01479 9.66797 6.96777 9.24609 6.13561 8.57031L 0.85363 13.8516C 0.755943 13.9492 0.627037 14 0.4981 14C 0.369194 14 0.244164 13.9531 0.146507 13.8555C -0.0488358 13.6602 -0.0488358 13.3438 0.146507 13.1484L 5.42849 7.86328C 4.75262 7.03125 4.33068 5.98438 4.33068 4.83203ZM 5.3308 4.83203C 5.3308 6.94922 7.0537 8.66797 9.16729 8.66797C 11.2808 8.66797 12.9998 6.94922 12.9998 4.83203C 12.9998 2.71875 11.2808 1 9.16729 1C 7.0537 1 5.3308 2.71875 5.3308 4.83203Z"/>
<path id="path1_fill" fill-rule="evenodd" d="M 0 0L 14 0L 14 14L 0 14L 0 0Z"/>
</defs>
</svg>
