<svg width="1000" height="1000" viewBox="0 0 1000 1000" version="1.1" xmlns="http://www.w3.org/2000/svg" xmlns:xlink="http://www.w3.org/1999/xlink">
<title>security-access</title>
<desc>Created using Figma</desc>
<g id="Canvas" transform="matrix(71.4286 0 0 71.4286 -47214.3 -12714.3)">
<rect x="661" y="178" width="14" height="14" fill="#E5E5E5"/>
<g id="security-access">
<mask id="mask0_outline" mask-type="alpha">
<g id="Mask">
<use xlink:href="#path0_fill" transform="translate(661 178)" fill="#FFFFFF"/>
</g>
</mask>
<g id="Mask" mask="url(#mask0_outline)">
<use xlink:href="#path0_fill" transform="translate(661 178)"/>
</g>
<g id="&#226;&#134;&#170;&#240;&#159;&#142;&#168;Color" mask="url(#mask0_outline)">
<g id="Rectangle 3">
<use xlink:href="#path1_fill" transform="translate(661 178)"/>
</g>
</g>
</g>
</g>
<defs>
<path id="path0_fill" fill-rule="evenodd" d="M 14 14L 10.3984 14L 10.3984 12.2656L 8.66406 12.2656L 8.66406 10.5352L 6.93359 10.5352L 6.93359 9.17578C 6.27734 9.5 5.56641 9.66797 4.83203 9.66797C 2.16797 9.66797 0 7.5 0 4.83203C 0 2.16797 2.16797 0 4.83203 0C 7.5 0 9.66797 2.16797 9.66797 4.83203C 9.66797 5.27344 9.60156 5.70703 9.46875 6.16016L 14 10.6914L 14 14ZM 11.4023 13L 13 13L 13 11.1055L 8.31641 6.42578L 8.42578 6.125C 8.58594 5.67578 8.66406 5.25391 8.66406 4.83203C 8.66406 2.71875 6.94531 1 4.83203 1C 2.71875 1 1 2.71875 1 4.83203C 1 6.94531 2.71875 8.66406 4.83203 8.66406C 5.64844 8.66406 6.4375 8.40234 7.10938 7.89844L 7.24219 7.80078L 7.91016 7.80078L 7.93359 8.30078L 7.93359 9.53125L 9.66797 9.53125L 9.66797 11.2656L 11.4023 11.2656L 11.4023 13ZM 2.62109 3.49609C 2.62109 3.01172 3.01172 2.62109 3.49609 2.62109C 3.98047 2.62109 4.37109 3.01172 4.37109 3.49609C 4.37109 3.98047 3.98047 4.37109 3.49609 4.37109C 3.01172 4.37109 2.62109 3.98047 2.62109 3.49609Z"/>
<path id="path1_fill" fill-rule="evenodd" d="M 0 0L 14 0L 14 14L 0 14L 0 0Z"/>
</defs>
</svg>
