<svg width="1000" height="1000" viewBox="0 0 1000 1000" version="1.1" xmlns="http://www.w3.org/2000/svg" xmlns:xlink="http://www.w3.org/1999/xlink">
<title>server-remote</title>
<desc>Created using Figma</desc>
<g id="Canvas" transform="matrix(71.4286 0 0 71.4286 -60928.6 -12714.3)">
<rect x="853" y="178" width="14" height="14" fill="#E5E5E5"/>
<g id="server-remote">
<mask id="mask0_outline" mask-type="alpha">
<g id="Mask">
<use xlink:href="#path0_fill" transform="translate(854 178)" fill="#FFFFFF"/>
</g>
</mask>
<g id="Mask" mask="url(#mask0_outline)">
<use xlink:href="#path0_fill" transform="translate(854 178)"/>
</g>
<g id="&#226;&#134;&#170;&#240;&#159;&#142;&#168;Color" mask="url(#mask0_outline)">
<g id="Rectangle 3">
<use xlink:href="#path1_fill" transform="translate(853 178)" fill="#333333"/>
</g>
</g>
</g>
</g>
<defs>
<path id="path0_fill" fill-rule="evenodd" d="M 0 0L 0 4L 12 4L 12 0L 0 0ZM 0 5L 0 9L 12 9L 12 5L 0 5ZM 0 10L 12 10L 12 14L 0 14L 0 10ZM 11 12L 10 12L 10 13L 11 13L 11 12ZM 8 12L 9 12L 9 13L 8 13L 8 12ZM 6 12L 1 12L 1 13L 6 13L 6 12ZM 11 7L 10 7L 10 8L 11 8L 11 7ZM 8 7L 9 7L 9 8L 8 8L 8 7ZM 6 7L 1 7L 1 8L 6 8L 6 7ZM 1 3L 6 3L 6 2L 1 2L 1 3ZM 9 3L 8 3L 8 2L 9 2L 9 3ZM 10 3L 11 3L 11 2L 10 2L 10 3Z"/>
<path id="path1_fill" fill-rule="evenodd" d="M 0 0L 14 0L 14 14L 0 14L 0 0Z"/>
</defs>
</svg>
