<svg width="1001" height="1001" viewBox="0 0 1001 1001" version="1.1" xmlns="http://www.w3.org/2000/svg" xmlns:xlink="http://www.w3.org/1999/xlink">
<title>server-environment</title>
<desc>Created using Figma</desc>
<g id="Canvas" transform="matrix(83.4167 0 0 83.4167 -27277.2 -22856.2)">
<g id="server-environment">
<use xlink:href="#path0_fill" transform="translate(327 274)"/>
</g>
</g>
<defs>
<path id="path0_fill" d="M 4.5 2.25L 7.5 2.25L 7.5 3L 4.5 3L 4.5 2.25ZM 4.5 6.75L 7.5 6.75L 7.5 7.5L 4.5 7.5L 4.5 6.75ZM 4.5 8.25L 7.5 8.25L 7.5 9L 4.5 9L 4.5 8.25ZM 11.3555 12L 0.644531 12L 1.58203 8.25L 3 8.25L 3 1.5C 3 1.39844 3.01953 1.30273 3.05859 1.21289C 3.09766 1.11914 3.15039 1.03906 3.2168 0.972656C 3.28711 0.902344 3.36719 0.847656 3.45703 0.808594C 3.55078 0.769531 3.64844 0.75 3.75 0.75L 8.25 0.75C 8.35156 0.75 8.44727 0.769531 8.53711 0.808594C 8.63086 0.847656 8.71094 0.902344 8.77734 0.972656C 8.84766 1.03906 8.90234 1.11914 8.94141 1.21289C 8.98047 1.30273 9 1.39844 9 1.5L 9 8.25L 10.418 8.25L 11.3555 12ZM 3.75 9.75L 8.25 9.75L 8.25 1.5L 3.75 1.5L 3.75 9.75ZM 10.3945 11.25L 9.83203 9L 9 9L 9 10.5L 3 10.5L 3 9L 2.16797 9L 1.60547 11.25L 10.3945 11.25Z"/>
</defs>
</svg>
