<svg width="1000" height="1000" viewBox="0 0 1000 1000" version="1.1" xmlns="http://www.w3.org/2000/svg" xmlns:xlink="http://www.w3.org/1999/xlink">
<title>set-actions</title>
<desc>Created using Figma</desc>
<g id="Canvas" transform="matrix(71.4286 0 0 71.4286 -62642.9 -12714.3)">
<rect x="877" y="178" width="14" height="14" fill="#E5E5E5"/>
<g id="set-actions">
<mask id="mask0_outline" mask-type="alpha">
<g id="Mask">
<use xlink:href="#path0_fill" transform="translate(877 178)" fill="#FFFFFF"/>
</g>
</mask>
<g id="Mask" mask="url(#mask0_outline)">
<use xlink:href="#path0_fill" transform="translate(877 178)"/>
</g>
<g id="&#226;&#134;&#170;&#240;&#159;&#142;&#168;Color" mask="url(#mask0_outline)">
<g id="Rectangle 3">
<use xlink:href="#path1_fill" transform="translate(877 178)" fill="#333333"/>
</g>
</g>
</g>
</g>
<defs>
<path id="path0_fill" fill-rule="evenodd" d="M 0 1L 7.70312 1L 11 1L 11 0L 0 0L 0 1ZM 14 6L 10.3984 6L 12.9336 2L 8.32812 2L 4.46094 10L 6.88672 10L 4.34766 14L 6.74609 14L 14 6ZM 6.30469 13L 6.16797 13L 8.70312 9L 6.05469 9L 8.95703 3L 11.1172 3L 8.57812 7L 11.7461 7L 6.30469 13ZM 0 8L 4.31641 8L 3.83203 9L 0 9L 0 8ZM 0 5L 5.76562 5L 6.25 4L 0 4L 0 5Z"/>
<path id="path1_fill" fill-rule="evenodd" d="M 0 0L 14 0L 14 14L 0 14L 0 0Z"/>
</defs>
</svg>
