<svg width="1001" height="1001" viewBox="0 0 1001 1001" version="1.1" xmlns="http://www.w3.org/2000/svg" xmlns:xlink="http://www.w3.org/1999/xlink">
<title>settings-gear</title>
<desc>Created using Figma</desc>
<g id="Canvas" transform="matrix(71.5 0 0 71.5 -64421.5 -12727)">
<rect x="901" y="178" width="14" height="14" fill="#E5E5E5"/>
<g id="settings-gear">
<mask id="mask0_outline" mask-type="alpha">
<g id="Mask">
<use xlink:href="#path0_fill" transform="translate(901 178)" fill="#FFFFFF"/>
</g>
</mask>
<g id="Mask" mask="url(#mask0_outline)">
<use xlink:href="#path0_fill" transform="translate(901 178)"/>
</g>
<g id="&#226;&#134;&#170;&#240;&#159;&#142;&#168;Color" mask="url(#mask0_outline)">
<g id="Rectangle 3">
<use xlink:href="#path1_fill" transform="translate(901 178)"/>
</g>
</g>
</g>
</g>
<defs>
<path id="path0_fill" fill-rule="evenodd" d="M 8.68671 2.17093C 8.78058 2.19481 8.87427 2.21863 8.96484 2.25781C 9.05414 2.29402 9.13599 2.34216 9.21777 2.39024C 9.26831 2.41998 9.31885 2.44969 9.37109 2.47656L 11.125 1.22656L 12.7734 2.875L 11.5234 4.625C 11.668 4.89844 11.7852 5.18359 11.8789 5.48047L 14 5.83203L 14 8.16797L 11.875 8.51953C 11.8575 8.57492 11.8433 8.63084 11.8291 8.68671C 11.8052 8.78056 11.7814 8.87424 11.7422 8.96484C 11.706 9.05415 11.6578 9.136 11.6097 9.21777C 11.58 9.26834 11.5503 9.31886 11.5234 9.37109L 12.7734 11.125L 11.125 12.7734L 9.375 11.5234C 9.10156 11.668 8.81641 11.7852 8.51953 11.8789L 8.16797 14L 5.83203 14L 5.48047 11.875C 5.42511 11.8575 5.36914 11.8433 5.31329 11.8291C 5.21942 11.8052 5.12573 11.7814 5.03516 11.7422C 4.94586 11.706 4.86401 11.6578 4.78223 11.6098C 4.73169 11.58 4.68115 11.5503 4.62891 11.5234L 2.875 12.7734L 1.22656 11.125L 2.47656 9.375C 2.33203 9.10156 2.21484 8.81641 2.12109 8.51953L 0 8.16797L 0 5.83203L 2.125 5.48047C 2.14252 5.42508 2.15674 5.36916 2.1709 5.31329C 2.19482 5.21944 2.21863 5.12576 2.25781 5.03516C 2.29401 4.94585 2.34216 4.864 2.39026 4.78223C 2.41998 4.73166 2.44971 4.68114 2.47656 4.62891L 1.22656 2.875L 2.875 1.22656L 4.625 2.47656C 4.89844 2.33203 5.18359 2.21484 5.48047 2.12109L 5.83203 0L 8.16797 0L 8.51953 2.125C 8.57489 2.14249 8.63086 2.15672 8.68671 2.17093ZM 7 9.21094C 8.22266 9.21094 9.21094 8.22266 9.21094 7C 9.21094 5.77734 8.22266 4.78906 7 4.78906C 5.77734 4.78906 4.78906 5.77734 4.78906 7C 4.78906 8.22266 5.77734 9.21094 7 9.21094Z"/>
<path id="path1_fill" fill-rule="evenodd" d="M 0 0L 14 0L 14 14L 0 14L 0 0Z"/>
</defs>
</svg>
