<svg width="1000" height="1000" viewBox="0 0 1000 1000" version="1.1" xmlns="http://www.w3.org/2000/svg" xmlns:xlink="http://www.w3.org/1999/xlink">
<title>settings-gear-outline</title>
<desc>Created using Figma</desc>
<g id="Canvas" transform="matrix(71.4286 0 0 71.4286 -66071.4 -12714.3)">
<rect x="925" y="178" width="14" height="14" fill="#E5E5E5"/>
<g id="settings-gear-outline">
<mask id="mask0_outline" mask-type="alpha">
<g id="Mask">
<use xlink:href="#path0_fill" transform="translate(925 178)" fill="#FFFFFF"/>
</g>
</mask>
<g id="Mask" mask="url(#mask0_outline)">
<use xlink:href="#path0_fill" transform="translate(925 178)"/>
</g>
<g id="&#226;&#134;&#170;&#240;&#159;&#142;&#168;Color" mask="url(#mask0_outline)">
<g id="Rectangle 3">
<use xlink:href="#path1_fill" transform="translate(925 178)" fill="#333333"/>
</g>
</g>
</g>
</g>
<defs>
<path id="path0_fill" fill-rule="evenodd" d="M 8.51697 14L 8.86407 11.9059C 8.96155 11.8708 9.05518 11.8318 9.15265 11.7889L 10.8802 13.0212L 13.0212 10.8802L 11.8005 9.16824L 11.8707 9.01616C 11.8903 8.96545 11.9097 8.91476 11.9254 8.86017L 14 8.517L 14 5.483L 11.9058 5.13593C 11.8707 5.03844 11.8317 4.94484 11.7889 4.84735L 13.0212 3.11978L 10.8802 0.978836L 9.16827 2.19945L 9.01617 2.12924C 8.97137 2.10858 8.92358 2.09401 8.87811 2.08014L 8.86017 2.07465L 8.51697 0L 5.48303 0L 5.13593 2.09415C 5.03845 2.12924 4.94482 2.16824 4.84735 2.21114L 3.11975 0.978836L 0.978821 3.11978L 2.19946 4.83176L 2.12927 4.98384C 2.10974 5.03455 2.09027 5.08524 2.07465 5.13983L 0 5.483L 0 8.517L 2.09418 8.86407C 2.12927 8.96156 2.16827 9.05516 2.21112 9.15265L 0.978821 10.8802L 3.11975 13.0212L 4.83173 11.8006L 4.98383 11.8708L 4.98425 11.8709L 4.98468 11.8711L 4.98511 11.8713C 5.03546 11.8906 5.08582 11.9099 5.13983 11.9254L 5.48303 14L 8.51697 14ZM 7.64734 12.9783L 6.35266 12.9783L 6.04456 11.1259L 5.74426 11.0323C 5.68188 11.0128 5.62732 10.9972 5.57269 10.9816L 5.55316 10.9767C 5.48358 10.9594 5.42377 10.9445 5.37384 10.9231C 5.32324 10.9014 5.26929 10.8697 5.2088 10.8341L 5.20801 10.8336L 5.19446 10.8256C 5.17468 10.815 5.15485 10.8037 5.13483 10.7923C 5.10358 10.7746 5.07172 10.7565 5.03845 10.7398L 4.75769 10.5916L 3.23285 11.6836L 2.31641 10.7671L 3.40448 9.24234L 3.26019 8.96156C 3.13928 8.73538 3.04181 8.50139 2.96771 8.25571L 2.87408 7.95543L 1.02173 7.64735L 1.02173 6.35265L 2.87408 6.04457L 2.96771 5.74429C 2.98718 5.6819 3.00281 5.6273 3.01837 5.57271L 3.0235 5.55222C 3.04071 5.48303 3.05554 5.42355 3.0769 5.37381C 3.09869 5.32297 3.13062 5.26874 3.16638 5.20798L 3.17438 5.19443C 3.18494 5.17484 3.19604 5.15524 3.20734 5.13542L 3.20776 5.13464C 3.22552 5.10344 3.24353 5.07166 3.26019 5.03844L 3.40839 4.75766L 2.31641 3.23286L 3.23285 2.31644L 4.75769 3.40446L 5.03845 3.26016C 5.26465 3.13928 5.4986 3.04178 5.74426 2.9677L 6.04456 2.8741L 6.35266 1.02173L 7.64734 1.02173L 7.95544 2.8741L 8.25574 2.9677C 8.31812 2.98718 8.37268 3.00279 8.42731 3.01839L 8.44684 3.02325C 8.51642 3.04057 8.57623 3.05547 8.62616 3.07687C 8.67688 3.10028 8.73926 3.13538 8.80554 3.17438C 8.8241 3.18437 8.84216 3.19489 8.86041 3.20554C 8.89209 3.22398 8.9245 3.24286 8.96155 3.26016L 9.24237 3.40836L 10.7672 2.31644L 11.6836 3.23286L 10.5955 4.75766L 10.7398 5.03844C 10.8607 5.26462 10.9582 5.49861 11.0323 5.74429L 11.1259 6.04457L 12.9783 6.35265L 12.9783 7.64735L 11.1259 7.95543L 11.0323 8.25571C 11.0128 8.3181 10.9972 8.3727 10.9816 8.42731L 10.9765 8.44785C 10.9593 8.517 10.9445 8.57645 10.9231 8.62619C 10.8997 8.67688 10.8646 8.73927 10.8256 8.80557C 10.8151 8.82516 10.804 8.84476 10.7927 8.86458L 10.7922 8.86536C 10.7745 8.89656 10.7565 8.92834 10.7398 8.96156L 10.5917 9.24234L 11.6836 10.7671L 10.7672 11.6836L 9.24237 10.5956L 8.96155 10.7398C 8.73535 10.8607 8.5014 10.9582 8.25574 11.0323L 7.95544 11.1259L 7.64734 12.9783ZM 7 9.56212C 5.58826 9.56212 4.43787 8.4117 4.43787 7C 4.43787 5.5883 5.58826 4.43788 7 4.43788C 8.41168 4.43788 9.56207 5.5883 9.56207 7C 9.56207 8.4117 8.41168 9.56212 7 9.56212ZM 5.4635 7C 5.4635 6.15376 6.15375 5.46352 7 5.46352C 7.84625 5.46352 8.5365 6.15376 8.5365 7C 8.5365 7.84625 7.84625 8.5365 7 8.5365C 6.15375 8.5365 5.4635 7.84625 5.4635 7Z"/>
<path id="path1_fill" fill-rule="evenodd" d="M 0 0L 14 0L 14 14L 0 14L 0 0Z"/>
</defs>
</svg>
