<svg width="1000" height="1000" viewBox="0 0 1000 1000" version="1.1" xmlns="http://www.w3.org/2000/svg" xmlns:xlink="http://www.w3.org/1999/xlink">
<title>share</title>
<desc>Created using Figma</desc>
<g id="Canvas" transform="matrix(71.4286 0 0 71.4286 -69500 -12714.3)">
<rect x="973" y="178" width="14" height="14" fill="#E5E5E5"/>
<g id="share">
<mask id="mask0_outline" mask-type="alpha">
<g id="Mask">
<use xlink:href="#path0_fill" transform="translate(974 178)" fill="#FFFFFF"/>
</g>
</mask>
<g id="Mask" mask="url(#mask0_outline)">
<use xlink:href="#path0_fill" transform="translate(974 178)" fill="#4A4A4A"/>
</g>
<g id="&#226;&#134;&#170;&#240;&#159;&#142;&#168;Color" mask="url(#mask0_outline)">
<g id="Rectangle 3">
<use xlink:href="#path1_fill" transform="translate(973 178)" fill="#333333"/>
</g>
</g>
</g>
</g>
<defs>
<path id="path0_fill" fill-rule="evenodd" d="M 9.17578 0C 8.45312 0 7.83203 0.425781 7.53906 1.03906C 7.49487 1.03522 7.45093 1.0309 7.40704 1.02658L 7.40326 1.02621C 7.26996 1.01308 7.13715 1 7 1C 4.78125 1 2.84766 2.20703 1.80859 4L 1.82422 4C 2.1875 4 2.53516 4.07422 2.85938 4.20312C 3.75781 2.875 5.27734 2 7 2C 7.10217 2 7.1994 2.00981 7.29755 2.01971L 7.29871 2.01984C 7.32404 2.02238 7.34943 2.02495 7.375 2.02734C 7.48047 2.9375 8.24219 3.64453 9.17578 3.64453C 10.1836 3.64453 11 2.82812 11 1.82422C 11 0.816406 10.1836 0 9.17578 0ZM 10.6016 11.7852C 10.6289 11.9102 10.6445 12.043 10.6445 12.1758C 10.6445 13.1836 9.82812 14 8.82422 14C 7.81641 14 7 13.1836 7 12.1758C 7 11.1719 7.81641 10.3555 8.82422 10.3555C 9.32812 10.3555 9.78516 10.5586 10.1133 10.8945C 11.2617 9.97656 12 8.57812 12 7C 12 5.86328 11.6055 4.82812 10.9648 3.98828C 11.2344 3.76562 11.4609 3.49219 11.6328 3.1875C 12.4844 4.22266 13 5.55078 13 7C 13 8.95703 12.0508 10.6914 10.6016 11.7852ZM 6 12.1758C 6 12.4375 6.04688 12.6836 6.11328 12.9219C 3.73438 12.5703 1.83203 10.8203 1.22266 8.53516C 0.511719 8.28516 0 7.61719 0 6.82422C 0 5.81641 0.816406 5 1.82031 5C 2.82812 5 3.64453 5.81641 3.64453 6.82422C 3.64453 7.67188 3.05859 8.38281 2.26953 8.58203C 2.83984 10.2461 4.26562 11.5078 6.02734 11.8594C 6.02502 11.8805 6.02252 11.9016 6.02002 11.9227C 6.01001 12.007 6 12.0914 6 12.1758Z"/>
<path id="path1_fill" fill-rule="evenodd" d="M 0 0L 14 0L 14 14L 0 14L 0 0Z"/>
</defs>
</svg>
