<svg width="1000" height="1000" viewBox="0 0 1000 1000" version="1.1" xmlns="http://www.w3.org/2000/svg" xmlns:xlink="http://www.w3.org/1999/xlink">
<title>shield</title>
<desc>Created using Figma</desc>
<g id="Canvas" transform="matrix(71.4286 0 0 71.4286 -72928.6 -12714.3)">
<g id="shield">
<g id="ic/bowtie-shield-fill">
<mask id="mask0_outline" mask-type="alpha">
<g id="Mask">
<use xlink:href="#path0_fill" transform="translate(1022 178)" fill="#FFFFFF"/>
</g>
</mask>
<g id="Mask" mask="url(#mask0_outline)">
<use xlink:href="#path0_fill" transform="translate(1022 178)"/>
</g>
<g id="&#226;&#134;&#170;&#240;&#159;&#142;&#168;Color" mask="url(#mask0_outline)">
<g id="Rectangle 3">
<use xlink:href="#path1_fill" transform="translate(1021 178)" fill="#333333"/>
</g>
</g>
</g>
</g>
</g>
<defs>
<path id="path0_fill" d="M 6.5 14L 6.22917 13.845C 2.21322 11.553 0 8.50266 0 5.25956L 0 1.69802L 0.541667 1.69802C 1.87891 1.69802 3.13151 1.35024 4.06673 0.713355C 5.35319 -0.233595 7.62988 -0.246165 8.9502 0.725926C 9.86849 1.35024 11.1211 1.69802 12.4583 1.69802L 13 1.69802L 13 5.25956C 13 8.50266 10.7868 11.553 6.77083 13.845L 6.5 14Z"/>
<path id="path1_fill" fill-rule="evenodd" d="M 0 0L 14 0L 14 14L 0 14L 0 0Z"/>
</defs>
</svg>
