<svg width="1000" height="1000" viewBox="0 0 1000 1000" version="1.1" xmlns="http://www.w3.org/2000/svg" xmlns:xlink="http://www.w3.org/1999/xlink">
<title>shop-server</title>
<desc>Created using Figma</desc>
<g id="Canvas" transform="matrix(71.4286 0 0 71.4286 -76357.1 -12714.3)">
<rect x="1069" y="178" width="14" height="14" fill="#E5E5E5"/>
<g id="shop-server">
<mask id="mask0_outline" mask-type="alpha">
<g id="Mask">
<use xlink:href="#path0_fill" transform="translate(1069 178)" fill="#FFFFFF"/>
</g>
</mask>
<g id="Mask" mask="url(#mask0_outline)">
<use xlink:href="#path0_fill" transform="translate(1069 178)"/>
</g>
<g id="&#226;&#134;&#170;&#240;&#159;&#142;&#168;Color" mask="url(#mask0_outline)">
<g id="Rectangle 3">
<use xlink:href="#path1_fill" transform="translate(1069 178)" fill="#333333"/>
</g>
</g>
</g>
</g>
<defs>
<path id="path0_fill" fill-rule="evenodd" d="M 6 1C 4.89844 1 4 1.89844 4 3L 4 3.35547L 3 3.53906L 3 3C 3 1.34766 4.34375 0 6 0C 7.46875 0 8.6875 1.0625 8.94531 2.45703L 7.96484 2.63672C 7.78906 1.70703 6.97656 1 6 1ZM 9.26562 1.35938C 9.03125 0.839844 8.80859 0.386719 8.38281 0.0117188C 9.66406 0.0703125 10.5664 0.933594 10.875 2.10547L 9.89062 2.28516C 9.78516 1.91016 9.58984 1.58594 9.26562 1.35938ZM 12 2.5L 1 4.5L 6 4.5L 6 12.4102L 12 13.5L 14 12.5L 14 3.5L 12 2.5ZM 5 13.5L 0 13.5L 0 5.5L 5 5.5L 5 13.5ZM 3 11.5L 4 11.5L 4 12.5L 3 12.5L 3 11.5ZM 4 8.5L 1 8.5L 1 9.5L 4 9.5L 4 8.5ZM 1 6.5L 4 6.5L 4 7.5L 1 7.5L 1 6.5Z"/>
<path id="path1_fill" fill-rule="evenodd" d="M 0 0L 14 0L 14 14L 0 14L 0 0Z"/>
</defs>
</svg>
