<svg width="858" height="1001" viewBox="0 0 858 1001" version="1.1" xmlns="http://www.w3.org/2000/svg" xmlns:xlink="http://www.w3.org/1999/xlink">
<title>smartphone-selected</title>
<desc>Created using Figma</desc>
<g id="Canvas" transform="matrix(71.5 0 0 71.5 -66209 -17875)">
<g id="smartphone-selected">
<use xlink:href="#path0_fill" transform="translate(924 250)"/>
</g>
</g>
<defs>
<path id="path0_fill" d="M 7.33496 11.375L 6.94531 11.7578L 7.4375 12.25L 5.6875 12.25L 5.6875 11.375L 7.33496 11.375ZM 8.3125 13.125L 9.1875 14L 3.5 14C 3.37695 14 3.26302 13.9772 3.1582 13.9316C 3.05339 13.8861 2.95996 13.8245 2.87793 13.7471C 2.80046 13.665 2.73893 13.5716 2.69336 13.4668C 2.64779 13.362 2.625 13.248 2.625 13.125L 2.625 0.875C 2.625 0.751953 2.64779 0.638021 2.69336 0.533203C 2.73893 0.428385 2.80046 0.33724 2.87793 0.259766C 2.95996 0.177734 3.05339 0.113932 3.1582 0.0683594C 3.26302 0.0227867 3.37695 0 3.5 0L 10.5 0C 10.623 0 10.737 0.0227867 10.8418 0.0683594C 10.9466 0.113932 11.0378 0.177734 11.1152 0.259766C 11.1973 0.33724 11.2611 0.428385 11.3066 0.533203C 11.3522 0.638021 11.375 0.751953 11.375 0.875L 11.375 9.51562L 10.5 10.3906L 10.5 0.875L 3.5 0.875L 3.5 13.125L 8.3125 13.125ZM 13.8701 9.83008L 10.0625 13.6377L 8.22363 11.7988L 8.83887 11.1768L 10.0625 12.4004L 13.2549 9.20801L 13.8701 9.83008Z"/>
</defs>
</svg>
