<svg width="1000" height="1000" viewBox="0 0 1000 1000" version="1.1" xmlns="http://www.w3.org/2000/svg" xmlns:xlink="http://www.w3.org/1999/xlink">
<title>sort</title>
<desc>Created using Figma</desc>
<g id="Canvas" transform="matrix(71.4286 0 0 71.4286 -81500 -12714.3)">
<rect x="1141" y="178" width="14" height="14" fill="#E5E5E5"/>
<g id="sort">
<mask id="mask0_outline" mask-type="alpha">
<g id="Mask">
<use xlink:href="#path0_fill" transform="translate(1141 178)" fill="#FFFFFF"/>
</g>
</mask>
<g id="Mask" mask="url(#mask0_outline)">
<use xlink:href="#path0_fill" transform="translate(1141 178)"/>
</g>
<g id="&#226;&#134;&#170;&#240;&#159;&#142;&#168;Color" mask="url(#mask0_outline)">
<g id="Rectangle 3">
<use xlink:href="#path1_fill" transform="translate(1141 178)"/>
</g>
</g>
</g>
</g>
<defs>
<path id="path0_fill" fill-rule="evenodd" d="M 4 1.91406L 6.32422 4.24219L 7.03125 3.53516L 3.51562 0L 0 3.53516L 0.695312 4.24219L 3 1.91406L 3 14L 4 14L 4 1.91406ZM 11 12.0859L 13.3047 9.75781L 14 10.4648L 10.4805 14L 6.96875 10.4648L 7.67578 9.75781L 10 12.0859L 10 0L 11 0L 11 12.0859Z"/>
<path id="path1_fill" fill-rule="evenodd" d="M 0 0L 14 0L 14 14L 0 14L 0 0Z"/>
</defs>
</svg>
