<svg width="1000" height="1000" viewBox="0 0 1000 1000" version="1.1" xmlns="http://www.w3.org/2000/svg" xmlns:xlink="http://www.w3.org/1999/xlink">
<title>sort-desc</title>
<desc>Created using Figma</desc>
<g id="Canvas" transform="matrix(71.4286 0 0 71.4286 -86642.9 -12714.3)">
<rect x="1213" y="178" width="14" height="14" fill="#E5E5E5"/>
<g id="sort-desc">
<mask id="mask0_outline" mask-type="alpha">
<g id="Mask">
<use xlink:href="#path0_fill" transform="translate(1213 178)" fill="#FFFFFF"/>
</g>
</mask>
<g id="Mask" mask="url(#mask0_outline)">
<use xlink:href="#path0_fill" transform="translate(1213 178)"/>
</g>
<g id="&#226;&#134;&#170;&#240;&#159;&#142;&#168;Color" mask="url(#mask0_outline)">
<g id="Rectangle 3">
<use xlink:href="#path1_fill" transform="translate(1213 178)" fill="#333333"/>
</g>
</g>
</g>
</g>
<defs>
<path id="path0_fill" fill-rule="evenodd" d="M 5.36304 6.30078L 0.481201 6.30078L 0.481201 5.82422L 3.95483 0.886719L 0.751099 0.886719L 0.751099 0L 5.40601 0L 5.40601 0.457031L 1.94812 5.41797L 5.36304 5.41797L 5.36304 6.30078ZM 0 14L 2.36267 7.69922L 3.54395 7.69922L 5.88708 14L 4.74097 14L 4.17383 12.3984L 1.68982 12.3984L 1.14612 14L 0 14ZM 2.82812 9.02734L 1.96362 11.543L 3.896 11.543L 3.01978 9.02734C 2.99243 8.94922 2.96497 8.81641 2.93372 8.63281L 2.91809 8.63281C 2.89075 8.80078 2.86328 8.93359 2.82812 9.02734ZM 10.5146 13.7695L 14 10.293L 13.292 9.58203L 11.0154 11.8555L 11.0154 1L 10.0139 1L 10.0139 11.8555L 7.74121 9.58594L 7.0332 10.293L 10.5146 13.7695Z"/>
<path id="path1_fill" fill-rule="evenodd" d="M 0 0L 14 0L 14 14L 0 14L 0 0Z"/>
</defs>
</svg>
