<svg width="934" height="1001" viewBox="0 0 934 1001" version="1.1" xmlns="http://www.w3.org/2000/svg" xmlns:xlink="http://www.w3.org/1999/xlink">
<title>spinner</title>
<desc>Created using Figma</desc>
<g id="Canvas" transform="matrix(66.6667 0 0 66.6667 -84066.7 -11800)">
<rect x="1261" y="177" width="14" height="15" fill="#E5E5E5"/>
<g id="spinner">
<mask id="mask0_outline" mask-type="alpha">
<g id="Mask">
<use xlink:href="#path0_fill" transform="translate(1261 177)" fill="#FFFFFF"/>
</g>
</mask>
<g id="Mask" mask="url(#mask0_outline)">
<use xlink:href="#path0_fill" transform="translate(1261 177)"/>
</g>
<g id="&#226;&#134;&#170;&#240;&#159;&#142;&#168;Color" mask="url(#mask0_outline)">
<g id="Rectangle 3">
<use xlink:href="#path1_fill" transform="translate(1261 178)" fill="#333333"/>
</g>
</g>
</g>
</g>
<defs>
<path id="path0_fill" fill-rule="evenodd" d="M 8.84619 1.54741C 8.84619 2.40161 8.17249 3.09035 7.33691 3.09035C 6.50122 3.09035 5.82312 2.40161 5.82312 1.54741C 5.82312 0.693207 6.50122 0 7.33691 0C 8.17249 0 8.84619 0.693207 8.84619 1.54741ZM 12.88 2.17799C 12.2238 1.50716 11.1606 1.50716 10.5044 2.17799C 9.84814 2.84883 9.84814 3.93559 10.5044 4.60645C 11.1606 5.27728 12.2238 5.27728 12.88 4.60645C 13.5363 3.93559 13.5363 2.84883 12.88 2.17799ZM 3.92871 4.36047C 4.45374 3.82379 4.45374 2.95618 3.92871 2.41951C 3.40369 1.88283 2.55493 1.88283 2.03003 2.41951C 1.505 2.95618 1.505 3.82379 2.03003 4.36047C 2.55493 4.89714 3.40369 4.89714 3.92871 4.36047ZM 1.17688 6.64133C 1.82434 6.64133 2.35376 7.17799 2.35376 7.84436C 2.35376 8.50627 1.82434 9.04741 1.17688 9.04741C 0.525024 9.04741 0 8.50627 0 7.84436C 0 7.17799 0.525024 6.64133 1.17688 6.64133ZM 3.6925 11.5653C 3.29871 11.1673 2.66003 11.1673 2.26624 11.5653C 1.87256 11.9678 1.87256 12.6207 2.26624 13.0233C 2.66003 13.4258 3.29871 13.4258 3.6925 13.0233C 4.0863 12.6207 4.0863 11.9678 3.6925 11.5653ZM 6.49683 14.1413C 6.49683 13.6673 6.87305 13.2827 7.33679 13.2827C 7.80054 13.2827 8.17688 13.6673 8.17688 14.1413C 8.17688 14.6154 7.80054 15 7.33679 15C 6.87305 15 6.49683 14.6154 6.49683 14.1413ZM 11.2175 11.8113C 10.955 12.0796 10.955 12.5134 11.2175 12.7818C 11.48 13.0501 11.9044 13.0501 12.1669 12.7818C 12.4293 12.5134 12.4293 12.0796 12.1669 11.8113C 11.9044 11.5429 11.48 11.5429 11.2175 11.8113ZM 13.4969 8.35867C 13.2169 8.35867 12.9938 8.12611 12.9938 7.84436C 12.9938 7.55814 13.2169 7.33005 13.4969 7.33005C 13.7726 7.33005 14 7.55814 14 7.84436C 14 8.12611 13.7726 8.35867 13.4969 8.35867Z"/>
<path id="path1_fill" fill-rule="evenodd" d="M 0 0L 14 0L 14 14L 0 14L 0 0Z"/>
</defs>
</svg>
