<svg width="1001" height="1001" viewBox="0 0 1001 1001" version="1.1" xmlns="http://www.w3.org/2000/svg" xmlns:xlink="http://www.w3.org/1999/xlink">
<title>sprint</title>
<desc>Created using Figma</desc>
<g id="Canvas" transform="matrix(83.4167 0 0 83.4167 -17183.8 -22856.2)">
<g id="sprint">
<use xlink:href="#path0_fill" transform="translate(206 274)"/>
</g>
</g>
<defs>
<path id="path0_fill" d="M 11.9648 10.125L 10.2012 11.8887L 9.67383 11.3613L 10.5352 10.5L 8.29102 10.5C 8.61523 10.2812 8.91211 10.0312 9.18164 9.75L 10.5352 9.75L 9.67383 8.88867L 10.2012 8.36133L 11.9648 10.125ZM 9.75 6C 9.75 6.41406 9.69531 6.8125 9.58594 7.19531C 9.48047 7.57812 9.33008 7.9375 9.13477 8.27344C 8.93945 8.60547 8.70508 8.9082 8.43164 9.18164C 8.1582 9.45508 7.85352 9.68945 7.51758 9.88477C 7.18555 10.0801 6.82813 10.2324 6.44531 10.3418C 6.0625 10.4473 5.66406 10.5 5.25 10.5L 0 10.5L 0 9.75L 5.25 9.75C 5.59375 9.75 5.92578 9.70508 6.24609 9.61523C 6.56641 9.52539 6.86523 9.40039 7.14258 9.24023C 7.41992 9.07617 7.67188 8.88086 7.89844 8.6543C 8.12891 8.42383 8.32422 8.16992 8.48438 7.89258C 8.64844 7.61523 8.77539 7.31641 8.86523 6.99609C 8.95508 6.67578 9 6.34375 9 6C 9 5.65625 8.95508 5.32422 8.86523 5.00391C 8.77539 4.68359 8.64844 4.38477 8.48438 4.10742C 8.32422 3.83008 8.12891 3.57812 7.89844 3.35156C 7.67188 3.12109 7.41992 2.92578 7.14258 2.76562C 6.86523 2.60156 6.56641 2.47461 6.24609 2.38477C 5.92578 2.29492 5.59375 2.25 5.25 2.25C 5.22266 2.25 5.19531 2.25195 5.16797 2.25586C 5.14062 2.25586 5.11133 2.25781 5.08008 2.26172L 5.04492 2.26172L 5.88867 3.11133L 5.36133 3.63867L 3.59766 1.875L 5.36133 0.111328L 5.88867 0.638672L 5.02148 1.50586C 5.06055 1.50195 5.09766 1.5 5.13281 1.5C 5.17188 1.5 5.21094 1.5 5.25 1.5C 5.66406 1.5 6.0625 1.55469 6.44531 1.66406C 6.82813 1.76953 7.18555 1.91992 7.51758 2.11523C 7.85352 2.31055 8.1582 2.54492 8.43164 2.81836C 8.70508 3.0918 8.93945 3.39648 9.13477 3.73242C 9.33008 4.06445 9.48047 4.42187 9.58594 4.80469C 9.69531 5.1875 9.75 5.58594 9.75 6ZM 1.9043 9C 1.5332 8.58594 1.24805 8.12305 1.04883 7.61133C 0.849609 7.0957 0.75 6.55859 0.75 6C 0.75 5.63281 0.792969 5.27344 0.878906 4.92188C 0.96875 4.56641 1.09766 4.23047 1.26562 3.91406C 1.43359 3.59375 1.63672 3.29883 1.875 3.0293C 2.11719 2.75586 2.39062 2.51367 2.69531 2.30273L 3.24023 2.84766C 2.9707 3.01953 2.72852 3.2207 2.51367 3.45117C 2.29883 3.68164 2.11523 3.93359 1.96289 4.20703C 1.81445 4.47656 1.69922 4.76367 1.61719 5.06836C 1.53906 5.36914 1.5 5.67969 1.5 6C 1.5 6.29688 1.53516 6.58789 1.60547 6.87305C 1.67578 7.1543 1.77539 7.42383 1.9043 7.68164C 2.03711 7.93555 2.19727 8.17578 2.38477 8.40234C 2.57227 8.625 2.78516 8.82422 3.02344 9L 1.9043 9Z"/>
</defs>
</svg>
