<svg width="1001" height="1001" viewBox="0 0 1001 1001" version="1.1" xmlns="http://www.w3.org/2000/svg" xmlns:xlink="http://www.w3.org/1999/xlink">
<title>status-help</title>
<desc>Created using Figma</desc>
<g id="Canvas" transform="matrix(71.5 0 0 71.5 -18089.5 -14443)">
<rect x="253" y="202" width="14" height="14" fill="#E5E5E5"/>
<g id="status-help">
<mask id="mask0_outline" mask-type="alpha">
<g id="Mask">
<use xlink:href="#path0_fill" transform="translate(253 202)" fill="#FFFFFF"/>
</g>
</mask>
<g id="Mask" mask="url(#mask0_outline)">
<use xlink:href="#path0_fill" transform="translate(253 202)"/>
</g>
<g id="&#226;&#134;&#170;&#240;&#159;&#142;&#168;Color" mask="url(#mask0_outline)">
<g id="Rectangle 3">
<use xlink:href="#path1_fill" transform="translate(253 202)"/>
</g>
</g>
</g>
</g>
<defs>
<path id="path0_fill" fill-rule="evenodd" d="M 7 0C 3.14243 0 0 3.14243 0 7C 0 10.8576 3.14243 14 7 14C 10.8576 14 14 10.8576 14 7C 14 3.14243 10.8618 0 7 0ZM 6.24699 11.253L 6.24699 9.74699L 7.75301 9.74699L 7.75301 11.253L 6.24699 11.253ZM 8.00541 7.76143L 8.95192 6.8107C 9.39363 6.35637 9.63341 5.75061 9.63341 5.11118C 9.63341 3.65987 8.45132 2.47777 7 2.47777C 5.54868 2.47777 4.36658 3.65987 4.36658 5.11118L 4.36658 5.32573L 5.8726 5.32573L 5.8726 5.11118C 5.8726 4.48859 6.3774 3.98378 7 3.98378C 7.6226 3.98378 8.1274 4.48859 8.1274 5.11118C 8.1274 5.35938 8.03906 5.58655 7.8792 5.75481L 6.92848 6.70132C 6.48678 7.15987 6.24699 7.76143 6.24699 8.40085L 6.24699 8.82993L 7.75301 8.82993L 7.75301 8.40085C 7.75301 8.15265 7.84555 7.92549 8.00541 7.76143Z"/>
<path id="path1_fill" fill-rule="evenodd" d="M 0 0L 14 0L 14 14L 0 14L 0 0Z"/>
</defs>
</svg>
