<svg width="1000" height="1000" viewBox="0 0 1000 1000" version="1.1" xmlns="http://www.w3.org/2000/svg" xmlns:xlink="http://www.w3.org/1999/xlink">
<title>status-warning-outline</title>
<desc>Created using Figma</desc>
<g id="Canvas" transform="matrix(71.4286 0 0 71.4286 -50642.9 -14428.6)">
<rect x="709" y="202" width="14" height="14" fill="#E5E5E5"/>
<g id="status-warning-outline">
<mask id="mask0_outline" mask-type="alpha">
<g id="Mask">
<use xlink:href="#path0_fill" transform="translate(709 202)" fill="#FFFFFF"/>
</g>
</mask>
<g id="Mask" mask="url(#mask0_outline)">
<use xlink:href="#path0_fill" transform="translate(709 202)"/>
</g>
<g id="&#226;&#134;&#170;&#240;&#159;&#142;&#168;Color" mask="url(#mask0_outline)">
<g id="Rectangle 3">
<use xlink:href="#path1_fill" transform="translate(709 202)"/>
</g>
</g>
</g>
</g>
<defs>
<path id="path0_fill" fill-rule="evenodd" d="M 7 0L 0 14L 14 14L 7 0ZM 7 2.43884L 12.2372 12.9123L 1.76282 12.9123L 7 2.43884ZM 7.54639 5.29832L 6.45367 5.29832L 6.45367 9.64915L 7.54639 9.64915L 7.54639 5.29832ZM 6.45367 11.8246L 6.45367 10.7369L 7.54639 10.7369L 7.54639 11.8246L 6.45367 11.8246Z"/>
<path id="path1_fill" fill-rule="evenodd" d="M 0 0L 14 0L 14 14L 0 14L 0 0Z"/>
</defs>
</svg>
