<svg width="1001" height="1001" viewBox="0 0 1001 1001" version="1.1" xmlns="http://www.w3.org/2000/svg" xmlns:xlink="http://www.w3.org/1999/xlink">
<title>status-run-outline</title>
<desc>Created using Figma</desc>
<g id="Canvas" transform="matrix(71.5 0 0 71.5 -35249.5 -14443)">
<rect x="493" y="202" width="14" height="14" fill="#E5E5E5"/>
<g id="status-run-outline">
<mask id="mask0_outline" mask-type="alpha">
<g id="Mask">
<use xlink:href="#path0_fill" transform="translate(493 202)" fill="#FFFFFF"/>
</g>
</mask>
<g id="Mask" mask="url(#mask0_outline)">
<use xlink:href="#path0_fill" transform="translate(493 202)"/>
</g>
<g id="&#226;&#134;&#170;&#240;&#159;&#142;&#168;Color" mask="url(#mask0_outline)">
<g id="Rectangle 3">
<use xlink:href="#path1_fill" transform="translate(493 202)"/>
</g>
</g>
</g>
</g>
<defs>
<path id="path0_fill" fill-rule="evenodd" d="M 7 14C 3.14243 14 0 10.8618 0 7C 0 3.13821 3.14243 0 7 0C 10.8576 0 14 3.14243 14 7C 14 10.8576 10.8618 14 7 14ZM 7 1.07692C 3.7356 1.07692 1.07693 3.73558 1.07693 7C 1.07693 10.2644 3.7356 12.9231 7 12.9231C 10.2644 12.9231 12.9231 10.2644 12.9231 7C 12.9231 3.73558 10.2644 1.07692 7 1.07692ZM 10.7692 7L 5.38461 10.7692L 5.38461 3.23077L 10.7692 7Z"/>
<path id="path1_fill" fill-rule="evenodd" d="M 0 0L 14 0L 14 14L 0 14L 0 0Z"/>
</defs>
</svg>
