<svg width="1000" height="1000" viewBox="0 0 1000 1000" version="1.1" xmlns="http://www.w3.org/2000/svg" xmlns:xlink="http://www.w3.org/1999/xlink">
<title>status-no-fill</title>
<desc>Created using Figma</desc>
<g id="Canvas" transform="matrix(71.4286 0 0 71.4286 -26642.9 -14428.6)">
<rect x="373" y="202" width="14" height="14" fill="#E5E5E5"/>
<g id="status-no-fill">
<mask id="mask0_outline" mask-type="alpha">
<g id="Mask">
<use xlink:href="#path0_fill" transform="translate(373 202)" fill="#FFFFFF"/>
</g>
</mask>
<g id="Mask" mask="url(#mask0_outline)">
<use xlink:href="#path0_fill" transform="translate(373 202)"/>
</g>
<g id="&#226;&#134;&#170;&#240;&#159;&#142;&#168;Color" mask="url(#mask0_outline)">
<g id="Rectangle 3">
<use xlink:href="#path1_fill" transform="translate(373 202)"/>
</g>
</g>
</g>
</g>
<defs>
<path id="path0_fill" fill-rule="evenodd" d="M 7 0C 3.13821 0 0 3.13821 0 7C 0 10.8618 3.13821 14 7 14C 10.8618 14 14 10.8618 14 7C 14 3.13821 10.8618 0 7 0ZM 12.0018 7C 12.0018 8.01804 11.6905 8.96034 11.1689 9.75121L 4.24879 2.83113C 5.03966 2.30949 5.98196 1.9982 7 1.9982C 9.7554 1.9982 12.0018 4.2446 12.0018 7ZM 2.83113 4.24879C 2.30949 5.03966 1.9982 5.98196 1.9982 7C 1.9982 9.7554 4.2446 12.0018 7 12.0018C 8.01804 12.0018 8.96034 11.6905 9.75121 11.1689L 2.83113 4.24879Z"/>
<path id="path1_fill" fill-rule="evenodd" d="M 0 0L 14 0L 14 14L 0 14L 0 0Z"/>
</defs>
</svg>
