<svg width="1000" height="1000" viewBox="0 0 1000 1000" version="1.1" xmlns="http://www.w3.org/2000/svg" xmlns:xlink="http://www.w3.org/1999/xlink">
<title>status-failure</title>
<desc>Created using Figma</desc>
<g id="Canvas" transform="matrix(71.4286 0 0 71.4286 -14642.9 -14428.6)">
<rect x="205" y="202" width="14" height="14" fill="#E5E5E5"/>
<g id="status-failure">
<mask id="mask0_outline" mask-type="alpha">
<g id="Mask">
<use xlink:href="#path0_fill" transform="translate(205 202)" fill="#FFFFFF"/>
</g>
</mask>
<g id="Mask" mask="url(#mask0_outline)">
<use xlink:href="#path0_fill" transform="translate(205 202)"/>
</g>
<g id="&#226;&#134;&#170;&#240;&#159;&#142;&#168;Color" mask="url(#mask0_outline)">
<g id="Rectangle 3">
<use xlink:href="#path1_fill" transform="translate(205 202)" fill="#333333"/>
</g>
</g>
</g>
</g>
<defs>
<path id="path0_fill" fill-rule="evenodd" d="M 0 7C 0 3.14243 3.14243 0 7 0C 10.8618 0 14 3.14243 14 7C 14 10.8576 10.8576 14 7 14C 3.14243 14 0 10.8576 0 7ZM 9.92788 11.0721L 11.0721 9.92789L 8.14423 7L 11.0721 4.07211L 9.92788 2.92789L 7 5.85999L 4.07211 2.92789L 2.92788 4.07211L 5.85997 7L 2.92788 9.92789L 4.07211 11.0721L 7 8.14423L 9.92788 11.0721Z"/>
<path id="path1_fill" fill-rule="evenodd" d="M 0 0L 14 0L 14 14L 0 14L 0 0Z"/>
</defs>
</svg>
