<svg width="1001" height="1001" viewBox="0 0 1001 1001" version="1.1" xmlns="http://www.w3.org/2000/svg" xmlns:xlink="http://www.w3.org/1999/xlink">
<title>step-insert</title>
<desc>Created using Figma</desc>
<g id="Canvas" transform="matrix(71.5 0 0 71.5 -54125.5 -14443)">
<rect x="757" y="202" width="14" height="14" fill="#E5E5E5"/>
<g id="step-insert">
<mask id="mask0_outline" mask-type="alpha">
<g id="Mask">
<use xlink:href="#path0_fill" transform="translate(757 202)" fill="#FFFFFF"/>
</g>
</mask>
<g id="Mask" mask="url(#mask0_outline)">
<use xlink:href="#path0_fill" transform="translate(757 202)"/>
</g>
<g id="&#226;&#134;&#170;&#240;&#159;&#142;&#168;Color" mask="url(#mask0_outline)">
<g id="Rectangle 3">
<use xlink:href="#path1_fill" transform="translate(757 202)"/>
</g>
</g>
</g>
</g>
<defs>
<path id="path0_fill" fill-rule="evenodd" d="M 4.10547 5.65625L 6.93359 2.82812L 4.10547 0L 3.39844 0.707031L 5.01953 2.32812L 0 2.32812L 0 3.32812L 5.01953 3.32812L 3.39844 4.94922L 4.10547 5.65625ZM 10 3.32812L 14 3.32812L 14 13.3281L 2 13.3281L 2 9.32812L 6 9.32812L 6 6.32812L 10 6.32812L 10 3.32812Z"/>
<path id="path1_fill" fill-rule="evenodd" d="M 0 0L 14 0L 14 14L 0 14L 0 0Z"/>
</defs>
</svg>
