<svg width="1000" height="1000" viewBox="0 0 1000 1000" version="1.1" xmlns="http://www.w3.org/2000/svg" xmlns:xlink="http://www.w3.org/1999/xlink">
<title>step-shared-add</title>
<desc>Created using Figma</desc>
<g id="Canvas" transform="matrix(71.4286 0 0 71.4286 -57500 -14428.6)">
<rect x="805" y="202" width="14" height="14" fill="#E5E5E5"/>
<g id="step-shared-add">
<mask id="mask0_outline" mask-type="alpha">
<g id="Mask">
<use xlink:href="#path0_fill" transform="translate(805 202)" fill="#FFFFFF"/>
</g>
</mask>
<g id="Mask" mask="url(#mask0_outline)">
<use xlink:href="#path0_fill" transform="translate(805 202)"/>
</g>
<g id="&#226;&#134;&#170;&#240;&#159;&#142;&#168;Color" mask="url(#mask0_outline)">
<g id="Rectangle 3">
<use xlink:href="#path1_fill" transform="translate(805 202)" fill="#333333"/>
</g>
</g>
</g>
</g>
<defs>
<path id="path0_fill" fill-rule="evenodd" d="M 2 3L 0 3L 0 2L 2 2L 2 0L 3 0L 3 2L 5 2L 5 3L 3 3L 3 5L 2 5L 2 3ZM 14 7L 14 14L 2 14L 2 10L 5 10L 5 7L 8 7L 8 4L 13 4L 13 7L 14 7ZM 12 5L 12 7L 10 7L 10 10L 7 10L 7 13L 3 13L 3 11L 6 11L 6 8L 9 8L 9 5L 12 5Z"/>
<path id="path1_fill" fill-rule="evenodd" d="M 0 0L 14 0L 14 14L 0 14L 0 0Z"/>
</defs>
</svg>
