<svg width="1001" height="1001" viewBox="0 0 1001 1001" version="1.1" xmlns="http://www.w3.org/2000/svg" xmlns:xlink="http://www.w3.org/1999/xlink">
<title>stopwatch</title>
<desc>Created using Figma</desc>
<g id="Canvas" transform="matrix(83.4167 0 0 83.4167 -107190 -20937.6)">
<g id="stopwatch">
<use xlink:href="#path0_fill" transform="translate(1285 251)"/>
</g>
</g>
<defs>
<path id="path0_fill" d="M 8.25 6.75L 8.25 7.5L 5.25 7.5L 5.25 3.75L 6 3.75L 6 6.75L 8.25 6.75ZM 9.60352 2.92969C 10.1309 3.46094 10.5371 4.04297 10.8223 4.67578C 11.1074 5.30469 11.25 5.99609 11.25 6.75C 11.25 7.23438 11.1875 7.70117 11.0625 8.15039C 10.9375 8.5957 10.7598 9.01367 10.5293 9.4043C 10.3027 9.79102 10.0293 10.1445 9.70898 10.4648C 9.39258 10.7812 9.03906 11.0547 8.64844 11.2852C 8.26172 11.5117 7.84375 11.6875 7.39453 11.8125C 6.94922 11.9375 6.48437 12 6 12C 5.51562 12 5.04883 11.9375 4.59961 11.8125C 4.1543 11.6875 3.73633 11.5117 3.3457 11.2852C 2.95898 11.0547 2.60547 10.7812 2.28516 10.4648C 1.96875 10.1445 1.69531 9.79102 1.46484 9.4043C 1.23828 9.01367 1.0625 8.5957 0.9375 8.15039C 0.8125 7.70117 0.75 7.23438 0.75 6.75C 0.75 6.31641 0.800781 5.89453 0.902344 5.48438C 1.00781 5.07422 1.1543 4.6875 1.3418 4.32422C 1.5332 3.96094 1.76367 3.625 2.0332 3.31641C 2.30273 3.00391 2.60352 2.72852 2.93555 2.49023C 3.26758 2.24805 3.62891 2.04688 4.01953 1.88672C 4.41016 1.72656 4.82031 1.61523 5.25 1.55273L 5.25 0.75L 3.75 0.75L 3.75 0L 7.5 0L 7.5 0.75L 6 0.75L 6 1.5C 6.54297 1.5 7.07031 1.58008 7.58203 1.74023C 8.09766 1.90039 8.57617 2.13867 9.01758 2.45508L 10.2363 1.23633L 10.7637 1.76367L 9.60352 2.92969ZM 6 11.25C 6.62109 11.25 7.20313 11.1328 7.74609 10.8984C 8.29297 10.6602 8.76953 10.3379 9.17578 9.93164C 9.58594 9.52148 9.9082 9.04492 10.1426 8.50195C 10.3809 7.95508 10.5 7.37109 10.5 6.75C 10.5 6.12891 10.3809 5.54687 10.1426 5.00391C 9.9082 4.45703 9.58594 3.98047 9.17578 3.57422C 8.76953 3.16406 8.29297 2.8418 7.74609 2.60742C 7.20313 2.36914 6.62109 2.25 6 2.25C 5.37891 2.25 4.79492 2.36914 4.24805 2.60742C 3.70508 2.8418 3.22852 3.16406 2.81836 3.57422C 2.41211 3.98047 2.08984 4.45703 1.85156 5.00391C 1.61719 5.54687 1.5 6.12891 1.5 6.75C 1.5 7.37109 1.61719 7.95508 1.85156 8.50195C 2.08984 9.04492 2.41211 9.52148 2.81836 9.93164C 3.22852 10.3379 3.70508 10.6602 4.24805 10.8984C 4.79492 11.1328 5.37891 11.25 6 11.25Z"/>
</defs>
</svg>
