<svg width="1000" height="1000" viewBox="0 0 1000 1000" version="1.1" xmlns="http://www.w3.org/2000/svg" xmlns:xlink="http://www.w3.org/1999/xlink">
<title>storyboard</title>
<desc>Created using Figma</desc>
<g id="Canvas" transform="matrix(71.4286 0 0 71.4286 -64357.1 -14428.6)">
<rect x="901" y="202" width="14" height="14" fill="#E5E5E5"/>
<g id="storyboard">
<mask id="mask0_outline" mask-type="alpha">
<g id="Mask">
<use xlink:href="#path0_fill" transform="translate(901 203)" fill="#FFFFFF"/>
</g>
</mask>
<g id="Mask" mask="url(#mask0_outline)">
<use xlink:href="#path0_fill" transform="translate(901 203)"/>
</g>
<g id="&#226;&#134;&#170;&#240;&#159;&#142;&#168;Color" mask="url(#mask0_outline)">
<g id="Rectangle 3">
<use xlink:href="#path1_fill" transform="translate(901 202)" fill="#333333"/>
</g>
</g>
</g>
</g>
<defs>
<path id="path0_fill" fill-rule="evenodd" d="M 0 0L 0 12L 14 12L 14 0L 0 0ZM 1 11L 1 4L 8 4L 8 11L 1 11ZM 9 11L 13 11L 13 4L 9 4L 9 11ZM 13 3L 1 3L 1 1L 13 1L 13 3ZM 10 6L 12 6L 12 5L 10 5L 10 6ZM 12 8L 10 8L 10 7L 12 7L 12 8ZM 10 10L 12 10L 12 9L 10 9L 10 10ZM 2 10L 7 10L 7 5L 2 5L 2 10ZM 6 6L 3 6L 3 9L 6 9L 6 6Z"/>
<path id="path1_fill" fill-rule="evenodd" d="M 0 0L 14 0L 14 14L 0 14L 0 0Z"/>
</defs>
</svg>
