<svg width="1085" height="1001" viewBox="0 0 1085 1001" version="1.1" xmlns="http://www.w3.org/2000/svg" xmlns:xlink="http://www.w3.org/1999/xlink">
<title>subscribe</title>
<desc>Created using Figma</desc>
<g id="Canvas" transform="matrix(83.4167 0 0 83.4167 -31197.8 -22856.2)">
<g id="subscribe">
<use xlink:href="#path0_fill" transform="translate(375 274)"/>
</g>
</g>
<defs>
<path id="path0_fill" d="M 11.25 7.47656C 11.2539 7.48437 11.2559 7.54102 11.2559 7.64648C 11.2598 7.75195 11.2617 7.88867 11.2617 8.05664C 11.2617 8.2207 11.2617 8.4082 11.2617 8.61914C 11.2617 8.83008 11.2598 9.04883 11.2559 9.27539C 11.2559 9.49805 11.2559 9.71875 11.2559 9.9375C 11.2559 10.1563 11.2539 10.3574 11.25 10.541C 11.25 10.7207 11.25 10.875 11.25 11.0039C 11.25 11.1289 11.25 11.2109 11.25 11.25L 0 11.25C 0 11.2109 0 11.1289 0 11.0039C 0 10.875 0 10.7207 0 10.541C -0.00390625 10.3574 -0.00585938 10.1563 -0.00585938 9.9375C -0.00585938 9.71875 -0.00585938 9.49805 -0.00585938 9.27539C -0.00976562 9.04883 -0.0117188 8.83008 -0.0117188 8.61914C -0.0117188 8.4082 -0.0117188 8.2207 -0.0117188 8.05664C -0.0117188 7.88867 -0.00976562 7.75195 -0.00585938 7.64648C -0.00585938 7.54102 -0.00390625 7.48437 0 7.47656L 2.24414 0.75L 4.5 0.75L 4.5 1.5L 2.7832 1.5L 0.785156 7.5L 3.23438 7.5L 3.98438 9L 7.26562 9L 8.01562 7.5L 10.4648 7.5L 8.4668 1.5L 6.75 1.5L 6.75 0.75L 9.00586 0.75L 11.25 7.47656ZM 10.5 8.25L 8.48438 8.25L 7.73438 9.75L 3.51562 9.75L 2.76562 8.25L 0.75 8.25L 0.75 10.5L 10.5 10.5L 10.5 8.25ZM 5.25 5.4668L 5.25 0L 6 0L 6 5.4668L 7.72266 3.75L 8.25 4.27734L 5.625 6.90234L 3 4.27734L 3.52734 3.75L 5.25 5.4668Z"/>
</defs>
</svg>
