<svg width="1001" height="1001" viewBox="0 0 1001 1001" version="1.1" xmlns="http://www.w3.org/2000/svg" xmlns:xlink="http://www.w3.org/1999/xlink">
<title>symbol-impediment</title>
<desc>Created using Figma</desc>
<g id="Canvas" transform="matrix(71.5 0 0 71.5 -78149.5 -14443)">
<rect x="1093" y="202" width="14" height="14" fill="#E5E5E5"/>
<g id="symbol-impediment">
<mask id="mask0_outline" mask-type="alpha">
<g id="Mask">
<use xlink:href="#path0_fill" transform="translate(1093 203)" fill="#FFFFFF"/>
</g>
</mask>
<g id="Mask" mask="url(#mask0_outline)">
<use xlink:href="#path0_fill" transform="translate(1093 203)"/>
</g>
<g id="&#226;&#134;&#170;&#240;&#159;&#142;&#168;Color" mask="url(#mask0_outline)">
<g id="Rectangle 3">
<use xlink:href="#path1_fill" transform="translate(1093 202)"/>
</g>
</g>
</g>
</g>
<defs>
<path id="path0_fill" d="M 11.8711 12L 8 0L 6 0L 4.71094 4L 7 4L 7 5L 4.38672 5L 3.42188 8L 8 8L 8 9L 3.09766 9L 2.12891 12L 0 12L 0 13L 14 13L 14 12L 11.8711 12Z"/>
<path id="path1_fill" fill-rule="evenodd" d="M 0 0L 14 0L 14 14L 0 14L 0 0Z"/>
</defs>
</svg>
