<svg width="1000" height="1000" viewBox="0 0 1000 1000" version="1.1" xmlns="http://www.w3.org/2000/svg" xmlns:xlink="http://www.w3.org/1999/xlink">
<title>symbol-flame</title>
<desc>Created using Figma</desc>
<g id="Canvas" transform="matrix(71.4286 0 0 71.4286 -76357.1 -14428.6)">
<rect x="1069" y="202" width="14" height="14" fill="#E5E5E5"/>
<g id="symbol-flame">
<mask id="mask0_outline" mask-type="alpha">
<g id="Mask">
<use xlink:href="#path0_fill" transform="translate(1071 202)" fill="#FFFFFF"/>
</g>
</mask>
<g id="Mask" mask="url(#mask0_outline)">
<use xlink:href="#path0_fill" transform="translate(1071 202)"/>
</g>
<g id="&#226;&#134;&#170;&#240;&#159;&#142;&#168;Color" mask="url(#mask0_outline)">
<g id="Rectangle 3">
<use xlink:href="#path1_fill" transform="translate(1069 202)"/>
</g>
</g>
</g>
</g>
<defs>
<path id="path0_fill" d="M 6.01715 0C 6.0834 0.960938 6.30943 1.86719 6.69914 2.69141C 7.08496 3.51562 7.61886 4.26953 8.29696 4.95312C 8.84645 5.50781 9.27124 6.125 9.56352 6.80078C 9.85191 7.48047 10 8.21484 10 9.00391C 10 9.69531 9.8714 10.3477 9.61029 10.957C 9.34918 11.5625 8.99065 12.0938 8.53858 12.5508C 8.08652 13.0039 7.55651 13.3594 6.94856 13.6211C 6.34061 13.8828 5.69369 14 5 14C 4.30631 14 3.65939 13.8828 3.05144 13.6211C 2.44349 13.3594 1.91348 13.0039 1.46142 12.5508C 1.00935 12.0938 0.650819 11.5625 0.389712 10.957C 0.128606 10.3477 0 9.69531 0 9.00391C 0 8.55469 0.058457 8.10938 0.17537 7.66797C 0.292284 7.22656 0.471552 6.81641 0.713172 6.43359C 0.806703 6.625 0.911926 6.8125 1.02104 6.99609C 1.13016 7.1875 1.25877 7.35547 1.39906 7.50391C 1.53936 7.65234 1.69914 7.77344 1.88231 7.86328C 2.06547 7.95312 2.27592 8 2.51754 8C 2.72408 8 2.91894 7.96094 3.1021 7.88281C 3.28527 7.80469 3.44115 7.69531 3.57755 7.55859C 3.71395 7.41797 3.82307 7.25781 3.90101 7.07812C 3.98285 6.89453 4.02182 6.69922 4.02182 6.48828C 4.02182 6.31641 3.99454 6.15625 3.93998 6.00781C 3.88542 5.85938 3.81138 5.71484 3.71005 5.58203C 3.47623 5.25781 3.30086 4.92969 3.18005 4.59766C 3.05924 4.26562 3.00078 3.89844 3.00078 3.48828C 3.00078 3.05078 3.07482 2.63672 3.22681 2.24219C 3.3788 1.84766 3.58924 1.49609 3.85815 1.18359C 4.13094 0.875 4.45051 0.617188 4.81684 0.410156C 5.18316 0.203125 5.58457 0.0703125 6.01715 0.015625"/>
<path id="path1_fill" fill-rule="evenodd" d="M 0 0L 14 0L 14 14L 0 14L 0 0Z"/>
</defs>
</svg>
