<svg width="1000" height="1000" viewBox="0 0 1000 1000" version="1.1" xmlns="http://www.w3.org/2000/svg" xmlns:xlink="http://www.w3.org/1999/xlink">
<title>symbol-book</title>
<desc>Created using Figma</desc>
<g id="Canvas" transform="matrix(71.4286 0 0 71.4286 -69500 -14428.6)">
<rect x="973" y="202" width="14" height="14" fill="#E5E5E5"/>
<g id="symbol-book">
<mask id="mask0_outline" mask-type="alpha">
<g id="Mask">
<use xlink:href="#path0_fill" transform="translate(973 203)" fill="#FFFFFF"/>
</g>
</mask>
<g id="Mask" mask="url(#mask0_outline)">
<use xlink:href="#path0_fill" transform="translate(973 203)"/>
</g>
<g id="&#226;&#134;&#170;&#240;&#159;&#142;&#168;Color" mask="url(#mask0_outline)">
<g id="Rectangle 3">
<use xlink:href="#path1_fill" transform="translate(973 202)" fill="#333333"/>
</g>
</g>
</g>
</g>
<defs>
<path id="path0_fill" fill-rule="evenodd" d="M 7.5 10.5195C 8.10156 10.1836 9.28516 10 10 10L 12 10L 12 0L 10 0C 9.25391 0 8.05469 0.269531 7.5 0.738281L 7.5 10.5195ZM 1 11L 4 11C 6 11 6.5 12 6.5 12L 0 12L 0 1L 1 1L 1 11ZM 2 0L 2 10L 4 10C 4.71484 10 5.89844 10.1836 6.5 10.5195L 6.5 0.738281C 5.94531 0.265625 4.74609 0 4 0L 2 0ZM 13 11L 13 1L 14 1L 14 12L 7.5 12C 7.5 12 8 11 10 11L 13 11Z"/>
<path id="path1_fill" fill-rule="evenodd" d="M 0 0L 14 0L 14 14L 0 14L 0 0Z"/>
</defs>
</svg>
