<svg width="1000" height="1000" viewBox="0 0 1000 1000" version="1.1" xmlns="http://www.w3.org/2000/svg" xmlns:xlink="http://www.w3.org/1999/xlink">
<title>symbol-task</title>
<desc>Created using Figma</desc>
<g id="Canvas" transform="matrix(71.4286 0 0 71.4286 -84928.6 -14428.6)">
<rect x="1189" y="202" width="14" height="14" fill="#E5E5E5"/>
<g id="symbol-task">
<mask id="mask0_outline" mask-type="alpha">
<g id="Mask">
<use xlink:href="#path0_fill" transform="translate(1191 202)" fill="#FFFFFF"/>
</g>
</mask>
<g id="Mask" mask="url(#mask0_outline)">
<use xlink:href="#path0_fill" transform="translate(1191 202)"/>
</g>
<g id="&#226;&#134;&#170;&#240;&#159;&#142;&#168;Color" mask="url(#mask0_outline)">
<g id="Rectangle 3">
<use xlink:href="#path1_fill" transform="translate(1189 202)"/>
</g>
</g>
</g>
</g>
<defs>
<path id="path0_fill" fill-rule="evenodd" d="M 8 2L 7 2C 7 0.898438 6.10156 0 5 0C 3.89844 0 3 0.898438 3 2L 0 2L 0 14L 10 14L 10 2L 8 2ZM 4 3L 4 2C 4 1.44922 4.44922 1 5 1C 5.55078 1 6 1.44922 6 2L 6 3L 8 3L 8 4L 2 4L 2 3L 4 3ZM 1.25391 9.49609L 3.75 11.9922L 8.74609 6.99609L 7.75391 6.00781L 3.75 10.0117L 2.24609 8.50781L 1.25391 9.49609Z"/>
<path id="path1_fill" fill-rule="evenodd" d="M 0 0L 14 0L 14 14L 0 14L 0 0Z"/>
</defs>
</svg>
