<svg width="1000" height="1000" viewBox="0 0 1000 1000" version="1.1" xmlns="http://www.w3.org/2000/svg" xmlns:xlink="http://www.w3.org/1999/xlink">
<title>symbol-custom</title>
<desc>Created using Figma</desc>
<g id="Canvas" transform="matrix(71.4286 0 0 71.4286 -74642.9 -14428.6)">
<rect x="1045" y="202" width="14" height="14" fill="#E5E5E5"/>
<g id="symbol-custom">
<mask id="mask0_outline" mask-type="alpha">
<g id="Mask">
<use xlink:href="#path0_fill" transform="translate(1045 202)" fill="#FFFFFF"/>
</g>
</mask>
<g id="Mask" mask="url(#mask0_outline)">
<use xlink:href="#path0_fill" transform="translate(1045 202)"/>
</g>
<g id="&#226;&#134;&#170;&#240;&#159;&#142;&#168;Color" mask="url(#mask0_outline)">
<g id="Rectangle 3">
<use xlink:href="#path1_fill" transform="translate(1045 202)" fill="#333333"/>
</g>
</g>
</g>
</g>
<defs>
<path id="path0_fill" d="M 7.01953 13.9766C 7.01953 13.9766 5.44141 11.6797 5.24609 11.3867C 4.875 11.457 1.94531 12.0625 1.94531 12.0625C 1.94531 12.0625 2.53906 9.12891 2.61328 8.75C 2.32031 8.55859 0 7 0 7C 0 7 2.32422 5.4375 2.61328 5.24609C 2.54688 4.87109 1.9375 1.9375 1.9375 1.9375C 1.9375 1.9375 4.875 2.54297 5.24609 2.61328C 5.44141 2.32031 7.00391 0 7.00391 0C 7.00391 0 8.5625 2.32031 8.75391 2.61328C 9.12891 2.54297 12.0547 1.9375 12.0547 1.9375C 12.0547 1.9375 11.4648 4.87109 11.3906 5.24609C 11.6836 5.44141 14 7 14 7C 14 7 11.6797 8.5625 11.3867 8.75391C 11.457 9.12891 12.0625 12.0625 12.0625 12.0625C 12.0625 12.0625 9.12891 11.457 8.75391 11.3867C 8.5625 11.6797 7.01953 13.9766 7.01953 13.9766Z"/>
<path id="path1_fill" fill-rule="evenodd" d="M 0 0L 14 0L 14 14L 0 14L 0 0Z"/>
</defs>
</svg>
