<svg width="1001" height="1001" viewBox="0 0 1001 1001" version="1.1" xmlns="http://www.w3.org/2000/svg" xmlns:xlink="http://www.w3.org/1999/xlink">
<title>sync</title>
<desc>Created using Figma</desc>
<g id="Canvas" transform="matrix(83.4167 0 0 83.4167 -19102.4 -22856.2)">
<g id="sync">
<use xlink:href="#path0_fill" transform="translate(229 274)"/>
</g>
</g>
<defs>
<path id="path0_fill" d="M 6 11.25C 6.60156 11.25 7.17773 11.1582 7.72852 10.9746C 8.2832 10.7871 8.78711 10.5254 9.24023 10.1895C 9.69727 9.84961 10.0937 9.44336 10.4297 8.9707C 10.7695 8.49414 11.0273 7.9668 11.2031 7.38867L 11.918 7.61133C 11.7227 8.26367 11.4316 8.85938 11.0449 9.39844C 10.6582 9.93359 10.2031 10.3945 9.67969 10.7812C 9.16016 11.168 8.58594 11.4688 7.95703 11.6836C 7.33203 11.8945 6.67969 12 6 12C 5.46484 12 4.94336 11.9336 4.43555 11.8008C 3.92773 11.668 3.44727 11.4766 2.99414 11.2266C 2.54492 10.9727 2.12891 10.666 1.74609 10.3066C 1.36328 9.94336 1.03125 9.5332 0.75 9.07617L 0.75 10.5L 0 10.5L 0 7.5L 3 7.5L 3 8.25L 1.14844 8.25C 1.37891 8.70703 1.66406 9.12109 2.00391 9.49219C 2.34766 9.85937 2.73047 10.1738 3.15234 10.4355C 3.57422 10.6934 4.02539 10.8945 4.50586 11.0391C 4.99023 11.1797 5.48828 11.25 6 11.25ZM 12 1.5L 12 4.5L 9 4.5L 9 3.75L 10.8516 3.75C 10.6211 3.29297 10.334 2.88086 9.99023 2.51367C 9.65039 2.14258 9.26953 1.82812 8.84766 1.57031C 8.42578 1.30859 7.97266 1.10742 7.48828 0.966797C 7.00781 0.822266 6.51172 0.75 6 0.75C 5.39844 0.75 4.82031 0.84375 4.26562 1.03125C 3.71484 1.21484 3.21094 1.47656 2.75391 1.81641C 2.30078 2.15234 1.9043 2.55859 1.56445 3.03516C 1.22852 3.50781 0.972656 4.0332 0.796875 4.61133L 0.0820312 4.38867C 0.277344 3.74023 0.568359 3.14648 0.955078 2.60742C 1.3418 2.06836 1.79492 1.60547 2.31445 1.21875C 2.83789 0.832031 3.41211 0.533203 4.03711 0.322266C 4.66602 0.107422 5.32031 0 6 0C 6.53516 0 7.05664 0.0664065 7.56445 0.199219C 8.07227 0.332031 8.55078 0.52539 9 0.779297C 9.45313 1.0293 9.87109 1.33594 10.2539 1.69922C 10.6367 2.05859 10.9688 2.4668 11.25 2.92383L 11.25 1.5L 12 1.5Z"/>
</defs>
</svg>
