<svg width="1000" height="1000" viewBox="0 0 1000 1000" version="1.1" xmlns="http://www.w3.org/2000/svg" xmlns:xlink="http://www.w3.org/1999/xlink">
<title>sync-user</title>
<desc>Created using Figma</desc>
<g id="Canvas" transform="matrix(71.4286 0 0 71.4286 -88357.1 -14428.6)">
<rect x="1237" y="202" width="14" height="14" fill="#E5E5E5"/>
<g id="sync-user">
<mask id="mask0_outline" mask-type="alpha">
<g id="Mask">
<use xlink:href="#path0_fill" transform="translate(1237 202)" fill="#FFFFFF"/>
</g>
</mask>
<g id="Mask" mask="url(#mask0_outline)">
<use xlink:href="#path0_fill" transform="translate(1237 202)"/>
</g>
<g id="&#226;&#134;&#170;&#240;&#159;&#142;&#168;Color" mask="url(#mask0_outline)">
<g id="Rectangle 3">
<use xlink:href="#path1_fill" transform="translate(1237 202)"/>
</g>
</g>
</g>
</g>
<defs>
<path id="path0_fill" fill-rule="evenodd" d="M 2.42249 7.30078L 2.76672 6.35938C 1.73376 6.00781 1.03699 5.05859 1.03699 4C 1.03699 2.97656 1.67712 2.09766 2.59265 1.71094L 2.59265 3L 3.62964 3L 3.62964 0L 0.518555 0L 0.518555 1L 1.79053 1C 0.725098 1.60938 0 2.71875 0 4C 0 5.48047 0.972168 6.80859 2.42249 7.30078ZM 5.46875 7L 6.74072 7L 6.74072 8L 3.62964 8L 3.62964 5L 4.66663 5L 4.66663 6.28906C 5.58215 5.90234 6.22229 5.02344 6.22229 4C 6.22229 2.94141 5.52551 1.99219 4.49243 1.64062L 4.83679 0.699219C 6.28699 1.19141 7.25928 2.51562 7.25928 4C 7.25928 5.28125 6.53418 6.39062 5.46875 7ZM 14 14L 12.963 14C 12.963 12.3828 11.6019 11.0703 9.9248 11.0703C 8.25183 11.0703 6.89062 12.3828 6.89062 14L 5.85364 14C 5.85364 12.4453 6.80151 11.1133 8.16272 10.4766C 7.48206 9.96484 7.0365 9.17969 7.0365 8.28516C 7.0365 6.75 8.33276 5.5 9.9248 5.5C 11.5168 5.5 12.8131 6.75 12.8131 8.28516C 12.8131 9.17969 12.3716 9.96484 11.691 10.4766C 13.0521 11.1133 14 12.4453 14 14ZM 11.776 8.28516C 11.776 9.26953 10.9456 10.0703 9.9248 10.0703C 8.90393 10.0703 8.07349 9.26953 8.07349 8.28516C 8.07349 7.30078 8.90393 6.5 9.9248 6.5C 10.9456 6.5 11.776 7.30078 11.776 8.28516Z"/>
<path id="path1_fill" fill-rule="evenodd" d="M 0 0L 14 0L 14 14L 0 14L 0 0Z"/>
</defs>
</svg>
