<svg width="1078" height="1001" viewBox="0 0 1078 1001" version="1.1" xmlns="http://www.w3.org/2000/svg" xmlns:xlink="http://www.w3.org/1999/xlink">
<title>tablet-selected</title>
<desc>Created using Figma</desc>
<g id="Canvas" transform="matrix(77 0 0 77 -69377 -19327)">
<g id="tablet-selected">
<use xlink:href="#path0_fill" transform="translate(901 250)"/>
</g>
</g>
<defs>
<path id="path0_fill" d="M 6.125 9.625L 7.875 9.625L 7.875 10.5L 6.125 10.5L 6.125 9.625ZM 12.9062 1.75C 13.0566 1.75 13.1979 1.77962 13.3301 1.83887C 13.4622 1.89355 13.5785 1.97103 13.6787 2.07129C 13.779 2.17155 13.8564 2.28776 13.9111 2.41992C 13.9704 2.55208 14 2.69336 14 2.84375L 14 8.60645L 13.125 7.76562L 13.125 2.84375C 13.125 2.77995 13.1045 2.72754 13.0635 2.68652C 13.0225 2.64551 12.9701 2.625 12.9062 2.625L 1.09375 2.625C 1.02995 2.625 0.977539 2.64551 0.936523 2.68652C 0.895508 2.72754 0.875 2.77995 0.875 2.84375L 0.875 11.1562C 0.875 11.2201 0.895508 11.2725 0.936523 11.3135C 0.977539 11.3545 1.02995 11.375 1.09375 11.375L 6.5625 11.375L 7.4375 12.25L 1.09375 12.25C 0.943359 12.25 0.802083 12.2227 0.669922 12.168C 0.53776 12.1087 0.421549 12.029 0.321289 11.9287C 0.221029 11.8285 0.141276 11.7122 0.0820312 11.5801C 0.0273438 11.4479 0 11.3066 0 11.1562L 0 2.84375C 0 2.69336 0.0273438 2.55208 0.0820312 2.41992C 0.141276 2.28776 0.221029 2.17155 0.321289 2.07129C 0.421549 1.97103 0.53776 1.89355 0.669922 1.83887C 0.802083 1.77962 0.943359 1.75 1.09375 1.75L 12.9062 1.75ZM 13.2549 9.20801L 13.8701 9.83008L 10.0625 13.6377L 8.22363 11.7988L 8.83887 11.1768L 10.0625 12.4004L 13.2549 9.20801Z"/>
</defs>
</svg>
