<svg width="1000" height="1000" viewBox="0 0 1000 1000" version="1.1" xmlns="http://www.w3.org/2000/svg" xmlns:xlink="http://www.w3.org/1999/xlink">
<title>tag</title>
<desc>Created using Figma</desc>
<g id="Canvas" transform="matrix(71.4286 0 0 71.4286 -93500 -14428.6)">
<rect x="1309" y="202" width="14" height="14" fill="#E5E5E5"/>
<g id="tag">
<mask id="mask0_outline" mask-type="alpha">
<g id="Mask">
<use xlink:href="#path0_fill" transform="translate(1309 202)" fill="#FFFFFF"/>
</g>
</mask>
<g id="Mask" mask="url(#mask0_outline)">
<use xlink:href="#path0_fill" transform="translate(1309 202)"/>
</g>
<g id="&#226;&#134;&#170;&#240;&#159;&#142;&#168;Color" mask="url(#mask0_outline)">
<g id="Rectangle 3">
<use xlink:href="#path1_fill" transform="translate(1309 202)" fill="#333333"/>
</g>
</g>
</g>
</g>
<defs>
<path id="path0_fill" fill-rule="evenodd" d="M 5.51965 14L 0 8.48033L 8.48035 0L 14 0L 14 5.51967L 5.51965 14ZM 1.49902 8.48033L 5.51978 12.501L 12.9401 5.08075L 12.9401 1.06004L 8.91931 1.06004L 1.49902 8.48033ZM 9.75989 3.18013C 9.75989 2.59628 10.2361 2.12009 10.8199 2.12009C 11.4038 2.12009 11.88 2.59628 11.88 3.18013C 11.88 3.76398 11.4038 4.24017 10.8199 4.24017C 10.2361 4.24017 9.75989 3.76398 9.75989 3.18013Z"/>
<path id="path1_fill" fill-rule="evenodd" d="M 0 0L 14 0L 14 14L 0 14L 0 0Z"/>
</defs>
</svg>
