<svg width="1000" height="1000" viewBox="0 0 1000 1000" version="1.1" xmlns="http://www.w3.org/2000/svg" xmlns:xlink="http://www.w3.org/1999/xlink">
<title>task-group</title>
<desc>Created using Figma</desc>
<g id="Canvas" transform="matrix(71.4286 0 0 71.4286 -11214.3 -16142.9)">
<rect x="157" y="226" width="14" height="14" fill="#E5E5E5"/>
<g id="task-group">
<mask id="mask0_outline" mask-type="alpha">
<g id="Mask">
<use xlink:href="#path0_fill" transform="translate(157 227)" fill="#FFFFFF"/>
</g>
</mask>
<g id="Mask" mask="url(#mask0_outline)">
<use xlink:href="#path0_fill" transform="translate(157 227)"/>
</g>
<g id="&#226;&#134;&#170;&#240;&#159;&#142;&#168;Color" mask="url(#mask0_outline)">
<g id="Rectangle 3">
<use xlink:href="#path1_fill" transform="translate(157 226)" fill="#333333"/>
</g>
</g>
</g>
</g>
<defs>
<path id="path0_fill" fill-rule="evenodd" d="M 14 7L 0 7L 0 0L 14 0L 14 7ZM 1 6L 13 6L 13 1L 1 1L 1 6ZM 2 2L 5 2L 5 5L 2 5L 2 2ZM 12 2L 6 2L 6 3L 12 3L 12 2ZM 6 4L 10 4L 10 5L 6 5L 6 4ZM 13 9L 1 9L 1 10L 13 10L 13 9ZM 3 12L 11 12L 11 13L 3 13L 3 12Z"/>
<path id="path1_fill" fill-rule="evenodd" d="M 0 0L 14 0L 14 14L 0 14L 0 0Z"/>
</defs>
</svg>
