<svg width="1000" height="1000" viewBox="0 0 1000 1000" version="1.1" xmlns="http://www.w3.org/2000/svg" xmlns:xlink="http://www.w3.org/1999/xlink">
<title>team-favorite</title>
<desc>Created using Figma</desc>
<g id="Canvas" transform="matrix(71.4286 0 0 71.4286 -12928.6 -16142.9)">
<rect x="181" y="226" width="14" height="14" fill="#E5E5E5"/>
<g id="team-favorite">
<mask id="mask0_outline" mask-type="alpha">
<g id="Mask">
<use xlink:href="#path0_fill" transform="translate(181 226)" fill="#FFFFFF"/>
</g>
</mask>
<g id="Mask" mask="url(#mask0_outline)">
<use xlink:href="#path0_fill" transform="translate(181 226)"/>
</g>
<g id="&#226;&#134;&#170;&#240;&#159;&#142;&#168;Color" mask="url(#mask0_outline)">
<g id="Rectangle 3">
<use xlink:href="#path1_fill" transform="translate(181 226)"/>
</g>
</g>
</g>
</g>
<defs>
<path id="path0_fill" fill-rule="evenodd" d="M 4.81128 9.25993C 5.35064 8.79553 5.7024 8.11095 5.7024 7.33429C 5.7024 6.0692 6.71078 5.03632 7.94584 5.03632C 8.69626 5.03632 9.35678 5.42065 9.76717 6.00114L 10.9123 6.00114C 10.6231 5.34058 10.1267 4.79611 9.51312 4.4438C 10.0525 3.97942 10.4042 3.29483 10.4042 2.51816C 10.4042 1.12897 9.30207 0 7.94584 0C 6.58961 0 5.48744 1.12897 5.48744 2.51816C 5.48744 3.29483 5.8392 3.97942 6.37856 4.4438C 5.85092 4.74406 5.41709 5.18845 5.12395 5.72891C 4.67448 5.17644 4.00223 4.81613 3.244 4.81613C 1.88777 4.81613 0.785595 5.9451 0.785595 7.33429C 0.785595 8.11095 1.13735 8.79553 1.67672 9.25993C 0.683975 9.82843 0 10.9053 0 12.1504L 1.00056 12.1504C 1.00056 10.8853 2.00893 9.85245 3.244 9.85245C 4.47906 9.85245 5.48744 10.8853 5.48744 12.1504L 6.488 12.1504C 6.488 10.9053 5.80402 9.82843 4.81128 9.25993ZM 7.94584 4.01143C 7.1407 4.01143 6.488 3.34286 6.488 2.51816C 6.488 1.69345 7.1407 1.02487 7.94584 1.02487C 8.75098 1.02487 9.40368 1.69345 9.40368 2.51816C 9.40368 3.34286 8.75098 4.01143 7.94584 4.01143ZM 4.70184 7.33429C 4.70184 6.50958 4.04914 5.841 3.244 5.841C 2.43886 5.841 1.78615 6.50958 1.78615 7.33429C 1.78615 8.159 2.43886 8.82756 3.244 8.82756C 4.04914 8.82756 4.70184 8.159 4.70184 7.33429ZM 11.2328 8.76752L 14 9.17986L 11.9989 11.1776L 12.4718 14L 9.99776 12.6669L 7.52373 14L 7.99665 11.1776L 5.99553 9.17986L 8.7627 8.76752L 9.99776 6.20131L 11.2328 8.76752Z"/>
<path id="path1_fill" fill-rule="evenodd" d="M 0 0L 14 0L 14 14L 0 14L 0 0Z"/>
</defs>
</svg>
