<svg width="1000" height="1000" viewBox="0 0 1000 1000" version="1.1" xmlns="http://www.w3.org/2000/svg" xmlns:xlink="http://www.w3.org/1999/xlink">
<title>teamwork</title>
<desc>Created using Figma</desc>
<g id="Canvas" transform="matrix(71.4286 0 0 71.4286 -21500 -17857.1)">
<g id="teamwork">
<use xlink:href="#path0_fill" transform="translate(301 250)" fill="#333333"/>
</g>
</g>
<defs>
<path id="path0_fill" d="M 11.375 7.4375C 11.6758 7.4375 11.9583 7.49447 12.2227 7.6084C 12.4915 7.72233 12.724 7.87956 12.9199 8.08008C 13.1204 8.27604 13.2777 8.50846 13.3916 8.77734C 13.5055 9.04167 13.5625 9.32422 13.5625 9.625C 13.5625 9.86198 13.5238 10.0921 13.4463 10.3154C 13.3734 10.5387 13.2663 10.7461 13.125 10.9375L 13.125 13.8359L 11.375 12.9609L 9.625 13.8359L 9.625 10.9375C 9.48372 10.7461 9.37435 10.5387 9.29688 10.3154C 9.22396 10.0921 9.1875 9.86198 9.1875 9.625C 9.1875 9.32422 9.24447 9.04167 9.3584 8.77734C 9.47233 8.50846 9.62728 8.27604 9.82324 8.08008C 10.0238 7.87956 10.2562 7.72233 10.5205 7.6084C 10.7894 7.49447 11.0742 7.4375 11.375 7.4375ZM 11.375 8.3125C 11.1927 8.3125 11.0218 8.34668 10.8623 8.41504C 10.7028 8.4834 10.5638 8.57682 10.4453 8.69531C 10.3268 8.8138 10.2334 8.9528 10.165 9.1123C 10.0967 9.27181 10.0625 9.44271 10.0625 9.625C 10.0625 9.80729 10.0967 9.97819 10.165 10.1377C 10.2334 10.2972 10.3268 10.4362 10.4453 10.5547C 10.5638 10.6732 10.7028 10.7666 10.8623 10.835C 11.0218 10.9033 11.1927 10.9375 11.375 10.9375C 11.5573 10.9375 11.7282 10.9033 11.8877 10.835C 12.0472 10.7666 12.1862 10.6732 12.3047 10.5547C 12.4232 10.4362 12.5166 10.2972 12.585 10.1377C 12.6533 9.97819 12.6875 9.80729 12.6875 9.625C 12.6875 9.44271 12.6533 9.27181 12.585 9.1123C 12.5166 8.9528 12.4232 8.8138 12.3047 8.69531C 12.1862 8.57682 12.0472 8.4834 11.8877 8.41504C 11.7282 8.34668 11.5573 8.3125 11.375 8.3125ZM 12.25 12.4141L 12.25 11.6279C 11.9766 11.751 11.6849 11.8125 11.375 11.8125C 11.0651 11.8125 10.7734 11.751 10.5 11.6279L 10.5 12.4141L 11.375 11.9766L 12.25 12.4141ZM 11.375 3.5C 11.1335 3.5 10.9056 3.54557 10.6914 3.63672C 10.4818 3.72786 10.2972 3.85319 10.1377 4.0127C 9.97819 4.1722 9.85287 4.35905 9.76172 4.57324C 9.67057 4.78288 9.625 5.00846 9.625 5.25C 9.625 5.66927 9.5293 6.06576 9.33789 6.43945C 9.15104 6.80859 8.889 7.11849 8.55176 7.36914C 8.63835 7.41016 8.72038 7.45573 8.79785 7.50586C 8.87988 7.55599 8.95963 7.6084 9.03711 7.66309L 8.52441 8.37402C 8.30111 8.21452 8.05957 8.09147 7.7998 8.00488C 7.54004 7.91829 7.27344 7.875 7 7.875C 6.63542 7.875 6.29362 7.94336 5.97461 8.08008C 5.66016 8.2168 5.38216 8.40592 5.14062 8.64746C 4.90365 8.88444 4.7168 9.16243 4.58008 9.48145C 4.44336 9.80046 4.375 10.14 4.375 10.5L 3.5 10.5C 3.5 10.1673 3.54557 9.84603 3.63672 9.53613C 3.72786 9.22168 3.85775 8.93001 4.02637 8.66113C 4.19499 8.3877 4.39779 8.1416 4.63477 7.92285C 4.8763 7.69954 5.14518 7.5127 5.44141 7.3623C 5.10417 7.11165 4.84212 6.80176 4.65527 6.43262C 4.46842 6.06348 4.375 5.66927 4.375 5.25C 4.375 5.00846 4.32943 4.78288 4.23828 4.57324C 4.14714 4.35905 4.02181 4.1722 3.8623 4.0127C 3.7028 3.85319 3.51595 3.72786 3.30176 3.63672C 3.09212 3.54557 2.86654 3.5 2.625 3.5C 2.38346 3.5 2.1556 3.54557 1.94141 3.63672C 1.73177 3.72786 1.5472 3.85319 1.3877 4.0127C 1.22819 4.1722 1.10286 4.35905 1.01172 4.57324C 0.920573 4.78288 0.875 5.00846 0.875 5.25L 0 5.25C 0 5.01302 0.031901 4.78288 0.0957031 4.55957C 0.159505 4.33171 0.248372 4.11979 0.362305 3.92383C 0.480794 3.72331 0.62207 3.54102 0.786133 3.37695C 0.954753 3.21289 1.14388 3.07161 1.35352 2.95312C 1.20312 2.79362 1.08464 2.60905 0.998047 2.39941C 0.916016 2.18978 0.875 1.97331 0.875 1.75C 0.875 1.50846 0.920573 1.28288 1.01172 1.07324C 1.10286 0.859049 1.22819 0.672201 1.3877 0.512695C 1.5472 0.35319 1.73177 0.227865 1.94141 0.136719C 2.1556 0.0455726 2.38346 0 2.625 0C 2.86654 0 3.09212 0.0455726 3.30176 0.136719C 3.51595 0.227865 3.7028 0.35319 3.8623 0.512695C 4.02181 0.672201 4.14714 0.859049 4.23828 1.07324C 4.32943 1.28288 4.375 1.50846 4.375 1.75C 4.375 1.97331 4.33171 2.18978 4.24512 2.39941C 4.16309 2.60905 4.04688 2.79362 3.89648 2.95312C 4.27018 3.1582 4.57552 3.44076 4.8125 3.80078C 4.93555 3.61849 5.07682 3.45443 5.23633 3.30859C 5.39583 3.16276 5.56901 3.03971 5.75586 2.93945C 5.94271 2.83919 6.14095 2.76172 6.35059 2.70703C 6.56478 2.65234 6.78125 2.625 7 2.625C 7.21875 2.625 7.43294 2.65234 7.64258 2.70703C 7.85221 2.76172 8.05046 2.83919 8.2373 2.93945C 8.42871 3.03971 8.60417 3.16276 8.76367 3.30859C 8.92318 3.45443 9.06445 3.61849 9.1875 3.80078C 9.42448 3.44076 9.72982 3.1582 10.1035 2.95312C 9.95312 2.79362 9.83463 2.60905 9.74805 2.39941C 9.66602 2.18978 9.625 1.97331 9.625 1.75C 9.625 1.50846 9.67057 1.28288 9.76172 1.07324C 9.85287 0.859049 9.97819 0.672201 10.1377 0.512695C 10.2972 0.35319 10.4818 0.227865 10.6914 0.136719C 10.9056 0.0455726 11.1335 0 11.375 0C 11.6165 0 11.8421 0.0455726 12.0518 0.136719C 12.266 0.227865 12.4528 0.35319 12.6123 0.512695C 12.7718 0.672201 12.8971 0.859049 12.9883 1.07324C 13.0794 1.28288 13.125 1.50846 13.125 1.75C 13.125 1.97331 13.0817 2.18978 12.9951 2.39941C 12.9131 2.60905 12.7969 2.79362 12.6465 2.95312C 12.8561 3.07161 13.043 3.21289 13.207 3.37695C 13.3757 3.54102 13.5169 3.72331 13.6309 3.92383C 13.7493 4.11979 13.8405 4.33171 13.9043 4.55957C 13.9681 4.78288 14 5.01302 14 5.25L 13.125 5.25C 13.125 5.00846 13.0794 4.78288 12.9883 4.57324C 12.8971 4.35905 12.7718 4.1722 12.6123 4.0127C 12.4528 3.85319 12.266 3.72786 12.0518 3.63672C 11.8421 3.54557 11.6165 3.5 11.375 3.5ZM 10.5 1.75C 10.5 1.87305 10.5228 1.98698 10.5684 2.0918C 10.6139 2.19661 10.6755 2.29004 10.7529 2.37207C 10.835 2.44954 10.9284 2.51107 11.0332 2.55664C 11.138 2.60221 11.252 2.625 11.375 2.625C 11.498 2.625 11.612 2.60221 11.7168 2.55664C 11.8216 2.51107 11.9128 2.44954 11.9902 2.37207C 12.0723 2.29004 12.1361 2.19661 12.1816 2.0918C 12.2272 1.98698 12.25 1.87305 12.25 1.75C 12.25 1.62695 12.2272 1.51302 12.1816 1.4082C 12.1361 1.30339 12.0723 1.21224 11.9902 1.13477C 11.9128 1.05273 11.8216 0.988932 11.7168 0.943359C 11.612 0.897787 11.498 0.875 11.375 0.875C 11.252 0.875 11.138 0.897787 11.0332 0.943359C 10.9284 0.988932 10.835 1.05273 10.7529 1.13477C 10.6755 1.21224 10.6139 1.30339 10.5684 1.4082C 10.5228 1.51302 10.5 1.62695 10.5 1.75ZM 1.75 1.75C 1.75 1.87305 1.77279 1.98698 1.81836 2.0918C 1.86393 2.19661 1.92546 2.29004 2.00293 2.37207C 2.08496 2.44954 2.17839 2.51107 2.2832 2.55664C 2.38802 2.60221 2.50195 2.625 2.625 2.625C 2.74805 2.625 2.86198 2.60221 2.9668 2.55664C 3.07161 2.51107 3.16276 2.44954 3.24023 2.37207C 3.32227 2.29004 3.38607 2.19661 3.43164 2.0918C 3.47721 1.98698 3.5 1.87305 3.5 1.75C 3.5 1.62695 3.47721 1.51302 3.43164 1.4082C 3.38607 1.30339 3.32227 1.21224 3.24023 1.13477C 3.16276 1.05273 3.07161 0.988932 2.9668 0.943359C 2.86198 0.897787 2.74805 0.875 2.625 0.875C 2.50195 0.875 2.38802 0.897787 2.2832 0.943359C 2.17839 0.988932 2.08496 1.05273 2.00293 1.13477C 1.92546 1.21224 1.86393 1.30339 1.81836 1.4082C 1.77279 1.51302 1.75 1.62695 1.75 1.75ZM 5.25 5.25C 5.25 5.49154 5.29557 5.7194 5.38672 5.93359C 5.47786 6.14323 5.60319 6.3278 5.7627 6.4873C 5.9222 6.64681 6.10677 6.77214 6.31641 6.86328C 6.5306 6.95443 6.75846 7 7 7C 7.24154 7 7.46712 6.95443 7.67676 6.86328C 7.89095 6.77214 8.0778 6.64681 8.2373 6.4873C 8.39681 6.3278 8.52213 6.14323 8.61328 5.93359C 8.70443 5.7194 8.75 5.49154 8.75 5.25C 8.75 5.00846 8.70443 4.78288 8.61328 4.57324C 8.52213 4.35905 8.39681 4.1722 8.2373 4.0127C 8.0778 3.85319 7.89095 3.72786 7.67676 3.63672C 7.46712 3.54557 7.24154 3.5 7 3.5C 6.75846 3.5 6.5306 3.54557 6.31641 3.63672C 6.10677 3.72786 5.9222 3.85319 5.7627 4.0127C 5.60319 4.1722 5.47786 4.35905 5.38672 4.57324C 5.29557 4.78288 5.25 5.00846 5.25 5.25Z"/>
</defs>
</svg>
