<svg width="1000" height="1000" viewBox="0 0 1000 1000" version="1.1" xmlns="http://www.w3.org/2000/svg" xmlns:xlink="http://www.w3.org/1999/xlink">
<title>tfvc-folder</title>
<desc>Created using Figma</desc>
<g id="Canvas" transform="matrix(71.4286 0 0 71.4286 -43785.7 -16142.9)">
<rect x="613" y="226" width="14" height="14" fill="#E5E5E5"/>
<g id="tfvc-folder">
<mask id="mask0_outline" mask-type="alpha">
<g id="Mask">
<use xlink:href="#path0_fill" transform="translate(613 227)" fill="#FFFFFF"/>
</g>
</mask>
<g id="Mask" mask="url(#mask0_outline)">
<use xlink:href="#path0_fill" transform="translate(613 227)"/>
</g>
<g id="&#226;&#134;&#170;&#240;&#159;&#142;&#168;Color" mask="url(#mask0_outline)">
<g id="Rectangle 3">
<use xlink:href="#path1_fill" transform="translate(613 226)"/>
</g>
</g>
</g>
</g>
<defs>
<path id="path0_fill" fill-rule="evenodd" d="M 6.20703 0L 8.1875 2L 14 2L 14 12L 8.29688 12C 8.37891 11.7812 8.42969 11.5391 8.42969 11.2852C 8.42969 10.1055 7.46875 9.14453 6.28516 9.14453C 6.18359 9.14453 6.08203 9.14844 5.98438 9.16406L 5.32812 8.51172C 5.42188 8.28906 5.48828 8.05469 5.52734 7.82031C 5.89844 8.11719 6.36719 8.28516 6.85547 8.28516C 8.03906 8.28516 9 7.32422 9 6.14453C 9 4.96094 8.03906 4 6.85547 4C 5.98047 4 5.22266 4.53125 4.89453 5.28906C 4.28516 4.48438 3.33203 4 2.28516 4C 1.39844 4 0.59375 4.35938 0 4.93359L 0 0L 6.20703 0ZM 0 10.0742C 0.0256653 10.0571 0.0510559 10.0391 0.0765381 10.021L 0.0768433 10.0208C 0.144348 9.97299 0.212585 9.92462 0.289062 9.89062C 0.211823 9.8334 0.142975 9.76152 0.0747986 9.69034L 0.0742493 9.68976L 0.0739746 9.68947L 0.0727234 9.68817C 0.0485229 9.66287 0.0243835 9.63768 0 9.61328L 0 10.0742ZM 3.27795 11.9287L 3.27802 11.9283C 3.28177 11.9044 3.28516 11.8828 3.28516 11.8555C 3.28516 11.3672 3.11719 10.8984 2.82031 10.5273C 3.05859 10.4883 3.28906 10.4219 3.51172 10.3281L 4.16406 10.9844C 4.15234 11.082 4.14453 11.1836 4.14453 11.2852C 4.14453 11.5391 4.19531 11.7812 4.27344 12L 3.26953 12C 3.27133 11.9714 3.27475 11.9493 3.27792 11.929L 3.27795 11.9287ZM 7.42969 11.2852C 7.42969 11.918 6.91797 12.4297 6.28516 12.4297C 5.65234 12.4297 5.14453 11.918 5.14453 11.2852C 5.14453 11.0742 5.20312 10.8789 5.30469 10.707L 3.67969 9.08594C 3.29297 9.38672 2.8125 9.57031 2.28516 9.57031C 2.21112 9.57031 2.14197 9.56058 2.07193 9.5507C 2.05325 9.54807 2.03452 9.54544 2.01562 9.54297L 1.6875 10.8594C 2.04297 11.0508 2.28516 11.4258 2.28516 11.8555C 2.28516 12.4883 1.77344 13 1.14453 13C 0.511719 13 0 12.4883 0 11.8555C 0 11.2305 0.507812 10.7188 1.13281 10.7148L 1.46094 9.41016C 0.605469 9.07812 0 8.25391 0 7.28516C 0 6.02344 1.02344 5 2.28516 5C 3.25391 5 4.08203 5.60547 4.41016 6.46094L 5.71484 6.13281C 5.71875 5.50781 6.23047 5 6.85547 5C 7.48828 5 8 5.51172 8 6.14453C 8 6.77344 7.48828 7.28516 6.85547 7.28516C 6.42578 7.28516 6.05078 7.04297 5.85938 6.6875L 4.54297 7.01562C 4.54544 7.03453 4.54807 7.05325 4.55069 7.07193C 4.56058 7.14198 4.57031 7.21114 4.57031 7.28516C 4.57031 7.8125 4.38672 8.29297 4.08594 8.67969L 5.70703 10.3047C 5.87891 10.2031 6.07422 10.1445 6.28516 10.1445C 6.91797 10.1445 7.42969 10.6523 7.42969 11.2852ZM 2.28516 6.14453C 2.91797 6.14453 3.42969 6.65234 3.42969 7.28516C 3.42969 7.91797 2.91797 8.42969 2.28516 8.42969C 1.65234 8.42969 1.14453 7.91797 1.14453 7.28516C 1.14453 6.65234 1.65234 6.14453 2.28516 6.14453Z"/>
<path id="path1_fill" fill-rule="evenodd" d="M 0 0L 14 0L 14 14L 0 14L 0 0Z"/>
</defs>
</svg>
