<svg width="1000" height="1000" viewBox="0 0 1000 1000" version="1.1" xmlns="http://www.w3.org/2000/svg" xmlns:xlink="http://www.w3.org/1999/xlink">
<title>tfvc-raw-source</title>
<desc>Created using Figma</desc>
<g id="Canvas" transform="matrix(71.4286 0 0 71.4286 -50642.9 -16142.9)">
<rect x="709" y="226" width="14" height="14" fill="#E5E5E5"/>
<g id="tfvc-raw-source">
<mask id="mask0_outline" mask-type="alpha">
<g id="Mask">
<use xlink:href="#path0_fill" transform="translate(709 227)" fill="#FFFFFF"/>
</g>
</mask>
<g id="Mask" mask="url(#mask0_outline)">
<use xlink:href="#path0_fill" transform="translate(709 227)"/>
</g>
<g id="&#226;&#134;&#170;&#240;&#159;&#142;&#168;Color" mask="url(#mask0_outline)">
<g id="Rectangle 3">
<use xlink:href="#path1_fill" transform="translate(709 226)" fill="#333333"/>
</g>
</g>
</g>
</g>
<defs>
<path id="path0_fill" fill-rule="evenodd" d="M 0 1.2L 5.83331 1.2L 5.83331 0L 0 0L 0 1.2ZM 8.16669 0L 14 0L 14 1.2L 8.16669 1.2L 8.16669 0ZM 7 3.60001L 2.33331 3.60001L 2.33331 4.8L 7 4.8L 7 3.60001ZM 9.33331 3.60001L 14 3.60001L 14 4.8L 9.33331 4.8L 9.33331 3.60001ZM 2.33331 7.2L 2.33331 8.39999L 9.33331 8.39999L 9.33331 7.2L 2.33331 7.2ZM 0 10.8L 8.16669 10.8L 8.16669 12L 0 12L 0 10.8Z"/>
<path id="path1_fill" fill-rule="evenodd" d="M 0 0L 14 0L 14 14L 0 14L 0 0Z"/>
</defs>
</svg>
