<svg width="1000" height="1000" viewBox="0 0 1000 1000" version="1.1" xmlns="http://www.w3.org/2000/svg" xmlns:xlink="http://www.w3.org/1999/xlink">
<title>tfvc-branch-locked</title>
<desc>Created using Figma</desc>
<g id="Canvas" transform="matrix(71.4286 0 0 71.4286 -36928.6 -16142.9)">
<rect x="517" y="226" width="14" height="14" fill="#E5E5E5"/>
<g id="tfvc-branch-locked">
<mask id="mask0_outline" mask-type="alpha">
<g id="Mask">
<use xlink:href="#path0_fill" transform="translate(517 226)" fill="#FFFFFF"/>
</g>
</mask>
<g id="Mask" mask="url(#mask0_outline)">
<use xlink:href="#path0_fill" transform="translate(517 226)"/>
</g>
<g id="&#226;&#134;&#170;&#240;&#159;&#142;&#168;Color" mask="url(#mask0_outline)">
<g id="Rectangle 3">
<use xlink:href="#path1_fill" transform="translate(517 226)"/>
</g>
</g>
</g>
</g>
<defs>
<path id="path0_fill" fill-rule="evenodd" d="M 5.86273 8.90909L 5.86273 7.89091L 2.80392 7.89091L 2.80392 4.52216C 3.82352 4.29147 4.58823 3.38068 4.58823 2.29091C 4.58823 1.02614 3.56067 0 2.29413 0C 1.02759 0 0 1.02614 0 2.29091C 0 3.38068 0.764709 4.29147 1.7843 4.52216L 1.7843 9.47784C 0.764709 9.70853 0 10.6193 0 11.7091C 0 12.9739 1.02759 14 2.29413 14C 3.56067 14 4.58823 12.9739 4.58823 11.7091C 4.58823 10.6193 3.82352 9.70853 2.80392 9.47784L 2.80392 8.90909L 5.86273 8.90909ZM 8.41177 0C 9.67831 0 10.7059 1.02614 10.7059 2.29091C 10.7059 3.38068 9.94116 4.29147 8.92157 4.52216L 8.92157 4.83636L 7.90195 4.83636L 7.90195 4.52216C 6.88235 4.29147 6.11765 3.38068 6.11765 2.29091C 6.11765 1.02614 7.14523 0 8.41177 0ZM 7.13727 2.29091C 7.13727 2.99092 7.71078 3.56364 8.41177 3.56364C 9.11276 3.56364 9.68628 2.99092 9.68628 2.29091C 9.68628 1.59091 9.11276 1.01819 8.41177 1.01819C 7.71078 1.01819 7.13727 1.59091 7.13727 2.29091ZM 2.29413 1.01819C 1.59314 1.01819 1.01962 1.59091 1.01962 2.29091C 1.01962 2.99092 1.59314 3.56364 2.29413 3.56364C 2.99512 3.56364 3.56863 2.99092 3.56863 2.29091C 3.56863 1.59091 2.99512 1.01819 2.29413 1.01819ZM 3.56863 11.7091C 3.56863 12.4091 2.99512 12.9818 2.29413 12.9818C 1.59314 12.9818 1.01962 12.4091 1.01962 11.7091C 1.01962 11.0091 1.59314 10.4364 2.29413 10.4364C 2.99512 10.4364 3.56863 11.0091 3.56863 11.7091ZM 11.9804 8.61079L 11.9804 8.90909L 13 8.90909L 13 14L 6.88235 14L 6.88235 8.90909L 7.90198 8.90909L 7.90198 8.61079C 7.90198 7.97046 8.08118 7.38182 8.40778 6.9483C 8.7782 6.45512 9.32385 6.18466 9.94119 6.18466C 10.5585 6.18466 11.1042 6.45512 11.4746 6.9483C 11.8012 7.38182 11.9804 7.97046 11.9804 8.61079ZM 8.92157 8.61079C 8.92157 7.91078 9.23621 7.20284 9.94119 7.20284C 10.6461 7.20284 10.9608 7.91078 10.9608 8.61079L 10.9608 8.90909L 8.92157 8.90909L 8.92157 8.61079ZM 7.90195 12.9818L 11.9804 12.9818L 11.9804 9.92728L 7.90195 9.92728L 7.90195 12.9818Z"/>
<path id="path1_fill" fill-rule="evenodd" d="M 0 0L 14 0L 14 14L 0 14L 0 0Z"/>
</defs>
</svg>
