<svg width="1001" height="1001" viewBox="0 0 1001 1001" version="1.1" xmlns="http://www.w3.org/2000/svg" xmlns:xlink="http://www.w3.org/1999/xlink">
<title>tfvc-pull-request</title>
<desc>Created using Figma</desc>
<g id="Canvas" transform="matrix(71.5 0 0 71.5 -48977.5 -16159)">
<rect x="685" y="226" width="14" height="14" fill="#E5E5E5"/>
<g id="tfvc-pull-request">
<mask id="mask0_outline" mask-type="alpha">
<g id="Mask">
<use xlink:href="#path0_fill" transform="translate(685 226)" fill="#FFFFFF"/>
</g>
</mask>
<g id="Mask" mask="url(#mask0_outline)">
<use xlink:href="#path0_fill" transform="translate(685 226)"/>
</g>
<g id="&#226;&#134;&#170;&#240;&#159;&#142;&#168;Color" mask="url(#mask0_outline)">
<g id="Rectangle 3">
<use xlink:href="#path1_fill" transform="translate(685 226)"/>
</g>
</g>
</g>
</g>
<defs>
<path id="path0_fill" fill-rule="evenodd" d="M 2.85187 9.47784L 2.85187 4.52216C 3.88892 4.29147 4.66669 3.38068 4.66669 2.29091C 4.66669 1.02614 3.62152 0 2.33331 0C 1.04517 0 0 1.02614 0 2.29091C 0 3.38068 0.777771 4.29147 1.81482 4.52216L 1.81482 9.47784C 0.777771 9.70853 0 10.6193 0 11.7091C 0 12.9739 1.04517 14 2.33331 14C 3.62152 14 4.66669 12.9739 4.66669 11.7091C 4.66669 10.6193 3.88892 9.70853 2.85187 9.47784ZM 1.03705 2.29091C 1.03705 1.59091 1.62036 1.01819 2.33337 1.01819C 3.04633 1.01819 3.62964 1.59091 3.62964 2.29091C 3.62964 2.99092 3.04633 3.56364 2.33337 3.56364C 1.62036 3.56364 1.03705 2.99092 1.03705 2.29091ZM 1.03705 11.7091C 1.03705 12.4091 1.62036 12.9818 2.33337 12.9818C 3.04633 12.9818 3.62964 12.4091 3.62964 11.7091C 3.62964 11.0091 3.04633 10.4364 2.33337 10.4364C 1.62036 10.4364 1.03705 11.0091 1.03705 11.7091ZM 12.1852 9.47784L 12.1852 5.34546C 12.1852 3.94147 11.0226 2.8 9.59265 2.8L 7.875 2.8L 9.84375 0.871017L 9.11053 0.147156L 5.89008 3.30908L 9.11053 6.47102L 9.84375 5.74716L 7.875 3.81818L 9.59265 3.81818C 10.4514 3.81818 11.1482 4.50227 11.1482 5.34546L 11.1482 9.47784C 10.1111 9.70853 9.33337 10.6193 9.33337 11.7091C 9.33337 12.9739 10.3785 14 11.6667 14C 12.9549 14 14 12.9739 14 11.7091C 14 10.6193 13.2222 9.70853 12.1852 9.47784ZM 10.3704 11.7091C 10.3704 12.4091 10.9537 12.9818 11.6667 12.9818C 12.3796 12.9818 12.963 12.4091 12.963 11.7091C 12.963 11.0091 12.3796 10.4364 11.6667 10.4364C 10.9537 10.4364 10.3704 11.0091 10.3704 11.7091Z"/>
<path id="path1_fill" fill-rule="evenodd" d="M 0 0L 14 0L 14 14L 0 14L 0 0Z"/>
</defs>
</svg>
