<svg width="1000" height="1000" viewBox="0 0 1000 1000" version="1.1" xmlns="http://www.w3.org/2000/svg" xmlns:xlink="http://www.w3.org/1999/xlink">
<title>tfvc-merge</title>
<desc>Created using Figma</desc>
<g id="Canvas" transform="matrix(71.4286 0 0 71.4286 -47214.3 -16142.9)">
<rect x="661" y="226" width="14" height="14" fill="#E5E5E5"/>
<g id="tfvc-merge">
<mask id="mask0_outline" mask-type="alpha">
<g id="Mask">
<use xlink:href="#path0_fill" transform="translate(662 226)" fill="#FFFFFF"/>
</g>
</mask>
<g id="Mask" mask="url(#mask0_outline)">
<use xlink:href="#path0_fill" transform="translate(662 226)"/>
</g>
<g id="&#226;&#134;&#170;&#240;&#159;&#142;&#168;Color" mask="url(#mask0_outline)">
<g id="Rectangle 3">
<use xlink:href="#path1_fill" transform="translate(661 226)"/>
</g>
</g>
</g>
</g>
<defs>
<path id="path0_fill" fill-rule="evenodd" d="M 7.55859 7.89091C 7.78516 6.87273 8.67969 6.10909 9.75 6.10909C 10.9922 6.10909 12 7.13522 12 8.39999C 12 9.66478 10.9922 10.6909 9.75 10.6909C 8.67969 10.6909 7.78516 9.92728 7.55859 8.90909L 7.25 8.90909C 5.87109 8.90909 4.50781 8.48352 3.51172 7.73978C 3.22266 7.52898 2.96875 7.29034 2.75 7.03181L 2.75 9.47784C 3.75 9.70853 4.5 10.6193 4.5 11.7091C 4.5 12.9739 3.49219 14 2.25 14C 1.00781 14 0 12.9739 0 11.7091C 0 10.6193 0.75 9.70853 1.75 9.47784L 1.75 4.52216C 0.75 4.29147 0 3.38068 0 2.29091C 0 1.02614 1.00781 0 2.25 0C 3.49219 0 4.5 1.02614 4.5 2.29091C 4.5 3.37671 3.75391 4.28751 2.75391 4.52216C 2.88281 6.71364 5.12891 7.89091 7.25 7.89091L 7.55859 7.89091ZM 2.25 1.01819C 1.5625 1.01819 1 1.59091 1 2.29091C 1 2.99092 1.5625 3.56364 2.25 3.56364C 2.9375 3.56364 3.5 2.99092 3.5 2.29091C 3.5 1.59091 2.9375 1.01819 2.25 1.01819ZM 3.5 11.7091C 3.5 12.4091 2.9375 12.9818 2.25 12.9818C 1.5625 12.9818 1 12.4091 1 11.7091C 1 11.0091 1.5625 10.4364 2.25 10.4364C 2.9375 10.4364 3.5 11.0091 3.5 11.7091ZM 8.5 8.39999C 8.5 9.10001 9.0625 9.67273 9.75 9.67273C 10.4375 9.67273 11 9.10001 11 8.39999C 11 7.7 10.4375 7.12727 9.75 7.12727C 9.0625 7.12727 8.5 7.7 8.5 8.39999Z"/>
<path id="path1_fill" fill-rule="evenodd" d="M 0 0L 14 0L 14 14L 0 14L 0 0Z"/>
</defs>
</svg>
