<svg width="1000" height="1000" viewBox="0 0 1000 1000" version="1.1" xmlns="http://www.w3.org/2000/svg" xmlns:xlink="http://www.w3.org/1999/xlink">
<title>tfvc-branch</title>
<desc>Created using Figma</desc>
<g id="Canvas" transform="matrix(71.4286 0 0 71.4286 -35214.3 -16142.9)">
<rect x="493" y="226" width="14" height="14" fill="#E5E5E5"/>
<g id="tfvc-branch">
<mask id="mask0_outline" mask-type="alpha">
<g id="Mask">
<use xlink:href="#path0_fill" transform="translate(495 226)" fill="#FFFFFF"/>
</g>
</mask>
<g id="Mask" mask="url(#mask0_outline)">
<use xlink:href="#path0_fill" transform="translate(495 226)"/>
</g>
<g id="&#226;&#134;&#170;&#240;&#159;&#142;&#168;Color" mask="url(#mask0_outline)">
<g id="Rectangle 3">
<use xlink:href="#path1_fill" transform="translate(493 226)"/>
</g>
</g>
</g>
</g>
<defs>
<path id="path0_fill" fill-rule="evenodd" d="M 8.64285 0C 9.94418 0 11 1.02614 11 2.29091C 11 3.38068 10.2143 4.29147 9.16666 4.52216L 9.16666 5.83864C 9.17896 6.02954 9.21576 7.33409 8.39731 8.18921C 7.939 8.66647 7.31696 8.90909 6.54761 8.90909L 2.88095 8.90909L 2.88095 9.47784C 3.92856 9.70853 4.71429 10.6193 4.71429 11.7091C 4.71429 12.9739 3.65848 14 2.35715 14C 1.05582 14 0 12.9739 0 11.7091C 0 10.6193 0.785706 9.70853 1.83334 9.47784L 1.83334 4.52216C 0.785706 4.29147 0 3.38068 0 2.29091C 0 1.02614 1.05582 0 2.35715 0C 3.65848 0 4.71429 1.02614 4.71429 2.29091C 4.71429 3.38068 3.92856 4.29147 2.88095 4.52216L 2.88095 7.89091L 6.54761 7.89091C 7.02231 7.89091 7.37427 7.75966 7.63208 7.49318C 8.18042 6.92444 8.12314 5.90227 8.11905 5.89034L 8.11905 4.52216C 7.07144 4.29147 6.28571 3.38068 6.28571 2.29091C 6.28571 1.02614 7.34152 0 8.64285 0ZM 2.35712 1.01819C 1.6369 1.01819 1.04761 1.59091 1.04761 2.29091C 1.04761 2.99092 1.6369 3.56364 2.35712 3.56364C 3.07736 3.56364 3.66666 2.99092 3.66666 2.29091C 3.66666 1.59091 3.07736 1.01819 2.35712 1.01819ZM 3.66666 11.7091C 3.66666 12.4091 3.07736 12.9818 2.35712 12.9818C 1.6369 12.9818 1.04761 12.4091 1.04761 11.7091C 1.04761 11.0091 1.6369 10.4364 2.35712 10.4364C 3.07736 10.4364 3.66666 11.0091 3.66666 11.7091ZM 8.64285 1.01819C 7.92264 1.01819 7.33334 1.59091 7.33334 2.29091C 7.33334 2.99092 7.92264 3.56364 8.64285 3.56364C 9.3631 3.56364 9.95239 2.99092 9.95239 2.29091C 9.95239 1.59091 9.3631 1.01819 8.64285 1.01819Z"/>
<path id="path1_fill" fill-rule="evenodd" d="M 0 0L 14 0L 14 14L 0 14L 0 0Z"/>
</defs>
</svg>
