<svg width="1000" height="1000" viewBox="0 0 1000 1000" version="1.1" xmlns="http://www.w3.org/2000/svg" xmlns:xlink="http://www.w3.org/1999/xlink">
<title>tfvc-compare</title>
<desc>Created using Figma</desc>
<g id="Canvas" transform="matrix(71.4286 0 0 71.4286 -42071.4 -16142.9)">
<rect x="589" y="226" width="14" height="14" fill="#E5E5E5"/>
<g id="tfvc-compare">
<mask id="mask0_outline" mask-type="alpha">
<g id="Mask">
<use xlink:href="#path0_fill" transform="translate(589 226)" fill="#FFFFFF"/>
</g>
</mask>
<g id="Mask" mask="url(#mask0_outline)">
<use xlink:href="#path0_fill" transform="translate(589 226)"/>
</g>
<g id="&#226;&#134;&#170;&#240;&#159;&#142;&#168;Color" mask="url(#mask0_outline)">
<g id="Rectangle 3">
<use xlink:href="#path1_fill" transform="translate(589 226)" fill="#333333"/>
</g>
</g>
</g>
</g>
<defs>
<path id="path0_fill" fill-rule="evenodd" d="M 12.1852 5.01399L 12.1852 9.31505C 13.2222 9.54225 14 10.4393 14 11.5126C 14 12.7583 12.9549 13.7689 11.6667 13.7689C 10.3785 13.7689 9.33334 12.7583 9.33334 11.5126C 9.33334 10.4393 10.1111 9.54225 11.1482 9.31505L 11.1482 4.9709L 11.1522 4.94348L 11.1524 4.94019C 11.1567 4.87715 11.2215 3.93567 10.7107 3.39227C 10.4554 3.12199 10.0909 2.98882 9.59259 2.98882L 8.70544 2.98882L 10.026 4.26189L 9.28879 4.97482L 6.72049 2.48741L 9.28879 0L 10.026 0.712921L 8.70544 1.98601L 9.59259 1.98601C 10.3906 1.98601 11.0266 2.23279 11.4844 2.72244C 12.2621 3.55679 12.2014 4.80246 12.1852 5.01399ZM 10.3704 11.5126C 10.3704 12.202 10.9537 12.7661 11.6667 12.7661C 12.3796 12.7661 12.963 12.202 12.963 11.5126C 12.963 10.8232 12.3796 10.2591 11.6667 10.2591C 10.9537 10.2591 10.3704 10.8232 10.3704 11.5126ZM 4.71121 9.02518L 3.97397 9.7381L 5.29456 11.0112L 4.40741 11.0112C 3.90915 11.0112 3.54456 10.878 3.28934 10.6077C 2.7785 10.0643 2.84326 9.12285 2.8476 9.05981L 2.84781 9.05652L 2.85184 9.0291L 2.85184 4.68494C 3.88889 4.45775 4.66666 3.56071 4.66666 2.48741C 4.66666 1.24174 3.62152 0.23111 2.33334 0.23111C 1.04514 0.23111 0 1.24174 0 2.48741C 0 3.56071 0.777771 4.45775 1.81482 4.68494L 1.81482 8.98601C 1.79861 9.19754 1.73785 10.4432 2.51562 11.2776C 2.97339 11.7672 3.60938 12.014 4.40741 12.014L 5.29456 12.014L 3.97397 13.2871L 4.71121 14L 7.27951 11.5126L 4.71121 9.02518ZM 2.33334 1.23392C 1.62039 1.23392 1.03705 1.79799 1.03705 2.48741C 1.03705 3.17683 1.62039 3.74091 2.33334 3.74091C 3.0463 3.74091 3.62964 3.17683 3.62964 2.48741C 3.62964 1.79799 3.0463 1.23392 2.33334 1.23392Z"/>
<path id="path1_fill" fill-rule="evenodd" d="M 0 0L 14 0L 14 14L 0 14L 0 0Z"/>
</defs>
</svg>
