<svg width="1000" height="1000" viewBox="0 0 1000 1000" version="1.1" xmlns="http://www.w3.org/2000/svg" xmlns:xlink="http://www.w3.org/1999/xlink">
<title>tfvc-shelveset</title>
<desc>Created using Figma</desc>
<g id="Canvas" transform="matrix(71.4286 0 0 71.4286 -54071.4 -16142.9)">
<rect x="757" y="226" width="14" height="14" fill="#E5E5E5"/>
<g id="tfvc-shelveset">
<mask id="mask0_outline" mask-type="alpha">
<g id="Mask">
<use xlink:href="#path0_fill" transform="translate(757 227)" fill="#FFFFFF"/>
</g>
</mask>
<g id="Mask" mask="url(#mask0_outline)">
<use xlink:href="#path0_fill" transform="translate(757 227)"/>
</g>
<g id="&#226;&#134;&#170;&#240;&#159;&#142;&#168;Color" mask="url(#mask0_outline)">
<g id="Rectangle 3">
<use xlink:href="#path1_fill" transform="translate(757 226)" fill="#333333"/>
</g>
</g>
</g>
</g>
<defs>
<path id="path0_fill" fill-rule="evenodd" d="M 7.53845 5.36165L 7.53845 8.66667L 6.46155 8.66667L 6.46155 5.36165C 5.23315 5.11198 4.30768 4.01595 4.30768 2.70833C 4.30768 1.21452 5.51501 0 7 0C 8.48499 0 9.69232 1.21452 9.69232 2.70833C 9.69232 4.01595 8.76678 5.11198 7.53845 5.36165ZM 0 13L 0 7.58333L 1.0769 7.58333L 1.0769 11.9167L 12.9231 11.9167L 12.9231 7.58333L 14 7.58333L 14 13L 0 13ZM 7 1.08333C 7.89185 1.08333 8.61542 1.81119 8.61542 2.70833C 8.61542 3.60547 7.89185 4.33333 7 4.33333C 6.10822 4.33333 5.38464 3.60547 5.38464 2.70833C 5.38464 1.81119 6.10822 1.08333 7 1.08333Z"/>
<path id="path1_fill" fill-rule="evenodd" d="M 0 0L 14 0L 14 14L 0 14L 0 0Z"/>
</defs>
</svg>
