<svg width="1000" height="1000" viewBox="0 0 1000 1000" version="1.1" xmlns="http://www.w3.org/2000/svg" xmlns:xlink="http://www.w3.org/1999/xlink">
<title>tfvc-fork</title>
<desc>Created using Figma</desc>
<g id="Canvas" transform="matrix(71.4286 0 0 71.4286 -45500 -16142.9)">
<rect x="637" y="226" width="14" height="14" fill="#E5E5E5"/>
<g id="tfvc-fork">
<mask id="mask0_outline" mask-type="alpha">
<g id="Mask">
<use xlink:href="#path0_fill" transform="translate(639 226)" fill="#FFFFFF"/>
</g>
</mask>
<g id="Mask" mask="url(#mask0_outline)">
<use xlink:href="#path0_fill" transform="translate(639 226)"/>
</g>
<g id="&#226;&#134;&#170;&#240;&#159;&#142;&#168;Color" mask="url(#mask0_outline)">
<g id="Rectangle 3">
<use xlink:href="#path1_fill" transform="translate(637 226)" fill="#333333"/>
</g>
</g>
</g>
</g>
<defs>
<path id="path0_fill" fill-rule="evenodd" d="M 8.64285 0C 9.94009 0 11 1.00781 11 2.25C 11 3.32031 10.2102 4.21484 9.16257 4.44141C 9.14621 5.59766 8.54056 6.66406 7.53384 7.30859L 6.0238 8.26562L 6.0238 9.55859C 7.07144 9.78906 7.85715 10.6836 7.85715 11.75C 7.85715 12.9883 6.80133 14 5.5 14C 4.19867 14 3.14285 12.9922 3.14285 11.75C 3.14285 10.6836 3.92856 9.78906 4.9762 9.55859L 4.9762 8.26562L 3.46616 7.30469C 2.45944 6.66406 1.85379 5.59375 1.83743 4.44141C 0.789795 4.21484 0 3.32031 0 2.25C 0 1.00781 1.05582 0 2.35715 0C 3.65848 0 4.71429 1.00781 4.71429 2.25C 4.71429 3.31641 3.93268 4.20703 2.88504 4.4375C 2.90143 5.25781 3.33112 6.01953 4.04724 6.47656L 5.5 7.39844L 6.95276 6.47656C 7.66888 6.01953 8.09857 5.25781 8.11496 4.4375C 7.06732 4.20703 6.28571 3.31641 6.28571 2.25C 6.28571 1.00781 7.34561 0 8.64285 0ZM 2.35712 1C 1.6369 1 1.04761 1.55859 1.04761 2.25C 1.04761 2.94141 1.6369 3.5 2.35712 3.5C 3.07736 3.5 3.66666 2.9375 3.66666 2.25C 3.66666 1.5625 3.07736 1 2.35712 1ZM 6.80954 11.75C 6.80954 12.4414 6.22025 13 5.5 13C 4.77979 13 4.19049 12.4375 4.19049 11.75C 4.19049 11.0625 4.77979 10.5 5.5 10.5C 6.22025 10.5 6.80954 11.0625 6.80954 11.75ZM 7.33334 2.25C 7.33334 2.9375 7.91855 3.5 8.64285 3.5C 9.36719 3.5 9.95239 2.9375 9.95239 2.25C 9.95239 1.5625 9.3631 1 8.64285 1C 7.92264 1 7.33334 1.5625 7.33334 2.25Z"/>
<path id="path1_fill" fill-rule="evenodd" d="M 0 0L 14 0L 14 14L 0 14L 0 0Z"/>
</defs>
</svg>
