<svg width="1000" height="1000" viewBox="0 0 1000 1000" version="1.1" xmlns="http://www.w3.org/2000/svg" xmlns:xlink="http://www.w3.org/1999/xlink">
<title>tfvc-repo</title>
<desc>Created using Figma</desc>
<g id="Canvas" transform="matrix(71.4286 0 0 71.4286 -52357.1 -16142.9)">
<rect x="733" y="226" width="14" height="14" fill="#E5E5E5"/>
<g id="tfvc-repo">
<mask id="mask0_outline" mask-type="alpha">
<g id="Mask">
<use xlink:href="#path0_fill" transform="translate(733 226)" fill="#FFFFFF"/>
</g>
</mask>
<g id="Mask" mask="url(#mask0_outline)">
<use xlink:href="#path0_fill" transform="translate(733 226)"/>
</g>
<g id="&#226;&#134;&#170;&#240;&#159;&#142;&#168;Color" mask="url(#mask0_outline)">
<g id="Rectangle 3">
<use xlink:href="#path1_fill" transform="translate(733 226)" fill="#333333"/>
</g>
</g>
</g>
</g>
<defs>
<path id="path0_fill" fill-rule="evenodd" d="M 9.98956 9.2832C 10.2858 9.10547 10.6276 9.00066 11.0013 9.00066C 12.1042 9.00066 13.002 9.89388 13.002 11.0013C 13.002 12.1042 12.1042 13.002 11.0013 13.002C 9.89386 13.002 9.00067 12.1042 9.00067 11.0013C 9.00067 10.6276 9.10547 10.2858 9.2832 9.98958L 6.43945 7.15039C 5.76495 7.67448 4.92188 7.99805 4.00128 7.99805C 3.87695 7.99805 3.75781 7.98235 3.64001 7.9668C 3.60236 7.96182 3.56488 7.95688 3.52734 7.95247L 2.95312 10.2539C 3.57294 10.5911 4.00128 11.2428 4.00128 11.9993C 4.00128 13.1068 3.10352 14 2.00067 14C 0.89325 14 0 13.1068 0 11.9993C 0 10.901 0.888672 10.0078 1.98242 10.0033L 2.55664 7.72005C 1.06183 7.13672 0 5.69661 0 4.0013C 0 1.79102 1.79102 0 4.00128 0C 5.69659 0 7.1413 1.06184 7.72003 2.55664L 10.0032 1.98242C 10.0078 0.888672 10.9011 0 11.9993 0C 13.1068 0 14 0.893234 14 2.00066C 14 3.10352 13.1068 4.0013 11.9993 4.0013C 11.2429 4.0013 10.5911 3.57292 10.2539 2.95312L 7.95245 3.52734C 7.95685 3.56479 7.96179 3.60223 7.96674 3.6398C 7.9823 3.75771 7.99805 3.87688 7.99805 4.0013C 7.99805 4.92188 7.6745 5.76497 7.15039 6.43945L 9.98956 9.2832ZM 2.00067 4.00131C 2.00067 5.10417 2.89392 6.00195 4.00134 6.00195C 5.10419 6.00195 6.00195 5.10417 6.00195 4.00131C 6.00195 2.89389 5.10419 2.00066 4.00134 2.00066C 2.89392 2.00066 2.00067 2.89389 2.00067 4.00131Z"/>
<path id="path1_fill" fill-rule="evenodd" d="M 0 0L 14 0L 14 14L 0 14L 0 0Z"/>
</defs>
</svg>
