<svg width="1000" height="1000" viewBox="0 0 1000 1000" version="1.1" xmlns="http://www.w3.org/2000/svg" xmlns:xlink="http://www.w3.org/1999/xlink">
<title>timeline-progress</title>
<desc>Created using Figma</desc>
<g id="Canvas" transform="matrix(71.4286 0 0 71.4286 -59214.3 -16142.9)">
<rect x="829" y="226" width="14" height="14" fill="#E5E5E5"/>
<g id="timeline-progress">
<mask id="mask0_outline" mask-type="alpha">
<g id="Mask">
<use xlink:href="#path0_fill" transform="translate(829 227)" fill="#FFFFFF"/>
</g>
</mask>
<g id="Mask" mask="url(#mask0_outline)">
<use xlink:href="#path0_fill" transform="translate(829 227)"/>
</g>
<g id="&#226;&#134;&#170;&#240;&#159;&#142;&#168;Color" mask="url(#mask0_outline)">
<g id="Rectangle 3">
<use xlink:href="#path1_fill" transform="translate(829 226)" fill="#333333"/>
</g>
</g>
</g>
</g>
<defs>
<path id="path0_fill" fill-rule="evenodd" d="M 0 12L 1 12L 1 1L 14 1L 14 0L 0 0L 0 12ZM 2 2L 5 2L 5 3L 2 3L 2 2ZM 13 4L 5 4L 5 5L 13 5L 13 4ZM 7 6L 11 6L 11 7L 7 7L 7 6ZM 8 8L 3 8L 3 9L 8 9L 8 8ZM 6 10L 11 10L 11 11L 6 11L 6 10Z"/>
<path id="path1_fill" fill-rule="evenodd" d="M 0 0L 14 0L 14 14L 0 14L 0 0Z"/>
</defs>
</svg>
