<svg width="1001" height="1001" viewBox="0 0 1001 1001" version="1.1" xmlns="http://www.w3.org/2000/svg" xmlns:xlink="http://www.w3.org/1999/xlink">
<title>timeline-matrix</title>
<desc>Created using Figma</desc>
<g id="Canvas" transform="matrix(71.5 0 0 71.5 -57557.5 -16159)">
<rect x="805" y="226" width="14" height="14" fill="#E5E5E5"/>
<g id="timeline-matrix">
<mask id="mask0_outline" mask-type="alpha">
<g id="Mask">
<use xlink:href="#path0_fill" transform="translate(805 227)" fill="#FFFFFF"/>
</g>
</mask>
<g id="Mask" mask="url(#mask0_outline)">
<use xlink:href="#path0_fill" transform="translate(805 227)"/>
</g>
<g id="&#226;&#134;&#170;&#240;&#159;&#142;&#168;Color" mask="url(#mask0_outline)">
<g id="Rectangle 3">
<use xlink:href="#path1_fill" transform="translate(805 226)"/>
</g>
</g>
</g>
</g>
<defs>
<path id="path0_fill" fill-rule="evenodd" d="M 14 1L 14 0L 0 0L 0 12L 1 12L 1 10L 5 10L 5 12L 6 12L 6 10L 10 10L 10 12L 11 12L 11 10L 14 10L 14 9L 11 9L 11 7L 14 7L 14 6L 11 6L 11 4L 14 4L 14 3L 1 3L 1 1L 14 1ZM 1 9L 1 7L 5 7L 5 9L 1 9ZM 6 9L 10 9L 10 7L 6 7L 6 9ZM 10 4L 10 6L 6 6L 6 4L 10 4ZM 5 6L 5 4L 1 4L 1 6L 5 6Z"/>
<path id="path1_fill" fill-rule="evenodd" d="M 0 0L 14 0L 14 14L 0 14L 0 0Z"/>
</defs>
</svg>
