<svg width="1001" height="1001" viewBox="0 0 1001 1001" version="1.1" xmlns="http://www.w3.org/2000/svg" xmlns:xlink="http://www.w3.org/1999/xlink">
<title>timeline-delivery</title>
<desc>Created using Figma</desc>
<g id="Canvas" transform="matrix(71.5 0 0 71.5 -55841.5 -16159)">
<rect x="781" y="226" width="14" height="14" fill="#E5E5E5"/>
<g id="timeline-delivery">
<mask id="mask0_outline" mask-type="alpha">
<g id="Mask">
<use xlink:href="#path0_fill" transform="translate(781 226)" fill="#FFFFFF"/>
</g>
</mask>
<g id="Mask" mask="url(#mask0_outline)">
<use xlink:href="#path0_fill" transform="translate(781 226)"/>
</g>
<g id="&#226;&#134;&#170;&#240;&#159;&#142;&#168;Color" mask="url(#mask0_outline)">
<g id="Rectangle 3">
<use xlink:href="#path1_fill" transform="translate(781 226)"/>
</g>
</g>
</g>
</g>
<defs>
<path id="path0_fill" fill-rule="evenodd" d="M 4.08783 8.61539L 1.02197 8.61539L 1.02197 2.15384L 12.2635 2.15384L 12.2635 0L 0 0L 0 9.69231L 4.08783 9.69231L 4.08783 8.61539ZM 2.04388 3.23077L 7.15369 3.23077L 7.15369 4.30769L 2.04388 4.30769L 2.04388 3.23077ZM 2.04388 6.46153L 5.10974 6.46153L 5.10974 5.38461L 2.04388 5.38461L 2.04388 6.46153ZM 12.978 9.78485L 14 9.78485C 14 8.70372 13.4531 7.76562 12.6387 7.23558C 13.0619 6.81491 13.3333 6.22597 13.3333 5.56551C 13.3333 4.29929 12.3553 3.26863 11.1537 3.26863C 9.95209 3.26863 8.97803 4.29929 8.97803 5.56551C 8.97803 6.22597 9.24548 6.81491 9.66864 7.23558C 9.28943 7.48378 8.97406 7.82031 8.73853 8.21996C 8.33929 7.76984 7.78046 7.48798 7.15369 7.48798C 5.95209 7.48798 4.97406 8.51863 4.97406 9.78485C 4.97406 10.4411 5.24548 11.0343 5.66864 11.4549C 4.85431 11.9808 4.30737 12.9231 4.30737 14L 5.32935 14C 5.32935 12.9399 6.14771 12.0775 7.15369 12.0775C 8.15967 12.0775 8.97803 12.9399 8.97803 14L 10 14C 10 12.9231 9.4491 11.9808 8.63873 11.4549C 9.06189 11.0343 9.33331 10.4453 9.33331 9.78485C 9.33331 8.72476 10.1477 7.86238 11.1497 7.86238L 11.1537 7.86238L 11.1577 7.86238C 12.1636 7.86238 12.978 8.72476 12.978 9.78485ZM 8.3114 9.78487C 8.3114 9.11179 7.79242 8.56491 7.15369 8.56491C 6.51501 8.56491 5.99603 9.11179 5.99603 9.78487C 5.99603 10.4537 6.51501 11.0006 7.15369 11.0006C 7.79242 11.0006 8.3114 10.4537 8.3114 9.78487ZM 12.3114 5.56551C 12.3114 6.23859 11.7924 6.78546 11.1537 6.78546C 10.519 6.78546 9.99603 6.23859 9.99603 5.56551C 9.99603 4.89243 10.515 4.34555 11.1537 4.34555C 11.7924 4.34555 12.3114 4.89243 12.3114 5.56551Z"/>
<path id="path1_fill" fill-rule="evenodd" d="M 0 0L 14 0L 14 14L 0 14L 0 0Z"/>
</defs>
</svg>
