<svg width="1001" height="1001" viewBox="0 0 1001 1001" version="1.1" xmlns="http://www.w3.org/2000/svg" xmlns:xlink="http://www.w3.org/1999/xlink">
<title>toggle-expand-all</title>
<desc>Created using Figma</desc>
<g id="Canvas" transform="matrix(71.5 0 0 71.5 -66137.5 -16159)">
<rect x="925" y="226" width="14" height="14" fill="#E5E5E5"/>
<g id="toggle-expand-all">
<mask id="mask0_outline" mask-type="alpha">
<g id="Mask">
<use xlink:href="#path0_fill" transform="translate(925 226)" fill="#FFFFFF"/>
</g>
</mask>
<g id="Mask" mask="url(#mask0_outline)">
<use xlink:href="#path0_fill" transform="translate(925 226)"/>
</g>
<g id="&#226;&#134;&#170;&#240;&#159;&#142;&#168;Color" mask="url(#mask0_outline)">
<g id="Rectangle 3">
<use xlink:href="#path1_fill" transform="translate(925 226)"/>
</g>
</g>
</g>
</g>
<defs>
<path id="path0_fill" fill-rule="evenodd" d="M 2 3L 2 0L 14 0L 14 12L 11 12L 11 14L 0 14L 0 3L 2 3ZM 1 13L 10 13L 10 4L 1 4L 1 13ZM 13 11L 11 11L 11 3L 3 3L 3 1L 13 1L 13 11ZM 6 9L 8 9L 8 8L 6 8L 6 6L 5 6L 5 8L 3 8L 3 9L 5 9L 5 11L 6 11L 6 9Z"/>
<path id="path1_fill" fill-rule="evenodd" d="M 0 0L 14 0L 14 14L 0 14L 0 0Z"/>
</defs>
</svg>
