<svg width="1001" height="1001" viewBox="0 0 1001 1001" version="1.1" xmlns="http://www.w3.org/2000/svg" xmlns:xlink="http://www.w3.org/1999/xlink">
<title>transition</title>
<desc>Created using Figma</desc>
<g id="Canvas" transform="matrix(83.4167 0 0 83.4167 -13179.8 -22856.2)">
<g id="transition">
<use xlink:href="#path0_fill" transform="translate(158 274)"/>
</g>
</g>
<defs>
<path id="path0_fill" d="M 4.5 8.625C 4.5 8.36719 4.44922 8.125 4.34766 7.89844C 4.25 7.67187 4.11523 7.47461 3.94336 7.30664C 3.77539 7.13477 3.57813 7 3.35156 6.90234C 3.125 6.80078 2.88281 6.75 2.625 6.75C 2.36719 6.75 2.12305 6.80078 1.89258 6.90234C 1.66602 7 1.4668 7.13477 1.29492 7.30664C 1.12695 7.47461 0.994141 7.67187 0.896484 7.89844C 0.798828 8.125 0.75 8.36719 0.75 8.625L 0.75 9L 0 9L 0 8.625C 0 8.37891 0.03125 8.14258 0.09375 7.91602C 0.160156 7.68555 0.253906 7.4707 0.375 7.27148C 0.5 7.06836 0.648437 6.88477 0.820312 6.7207C 0.992187 6.55273 1.1875 6.41211 1.40625 6.29883C 1.19531 6.11914 1.0332 5.90625 0.919922 5.66016C 0.806641 5.41016 0.75 5.14844 0.75 4.875C 0.75 4.61719 0.798828 4.375 0.896484 4.14844C 0.994141 3.92188 1.12695 3.72461 1.29492 3.55664C 1.4668 3.38477 1.66602 3.25 1.89258 3.15234C 2.12305 3.05078 2.36719 3 2.625 3C 2.88281 3 3.125 3.05078 3.35156 3.15234C 3.57813 3.25 3.77539 3.38477 3.94336 3.55664C 4.11523 3.72461 4.25 3.92188 4.34766 4.14844C 4.44922 4.375 4.5 4.61719 4.5 4.875C 4.5 5.14844 4.44336 5.41016 4.33008 5.66016C 4.2168 5.90625 4.05469 6.11914 3.84375 6.29883C 4.05859 6.41211 4.25195 6.55273 4.42383 6.7207C 4.59961 6.88477 4.74805 7.06836 4.86914 7.27148C 4.99414 7.4707 5.08789 7.68555 5.15039 7.91602C 5.2168 8.14258 5.25 8.37891 5.25 8.625L 5.25 9L 4.5 9L 4.5 8.625ZM 1.5 4.875C 1.5 5.03125 1.5293 5.17773 1.58789 5.31445C 1.64648 5.45117 1.72656 5.57031 1.82812 5.67188C 1.92969 5.77344 2.04883 5.85352 2.18555 5.91211C 2.32227 5.9707 2.46875 6 2.625 6C 2.78125 6 2.92773 5.9707 3.06445 5.91211C 3.20117 5.85352 3.32031 5.77344 3.42188 5.67188C 3.52344 5.57031 3.60352 5.45117 3.66211 5.31445C 3.7207 5.17773 3.75 5.03125 3.75 4.875C 3.75 4.71875 3.7207 4.57227 3.66211 4.43555C 3.60352 4.29883 3.52344 4.17969 3.42188 4.07812C 3.32031 3.97656 3.20117 3.89648 3.06445 3.83789C 2.92773 3.7793 2.78125 3.75 2.625 3.75C 2.46875 3.75 2.32227 3.7793 2.18555 3.83789C 2.04883 3.89648 1.92969 3.97656 1.82812 4.07812C 1.72656 4.17969 1.64648 4.29883 1.58789 4.43555C 1.5293 4.57227 1.5 4.71875 1.5 4.875ZM 10.5938 6.29883C 10.8086 6.41211 11.002 6.55273 11.1738 6.7207C 11.3496 6.88477 11.498 7.06836 11.6191 7.27148C 11.7441 7.4707 11.8379 7.68555 11.9004 7.91602C 11.9668 8.14258 12 8.37891 12 8.625L 12 9L 11.25 9L 11.25 8.625C 11.25 8.36719 11.1992 8.125 11.0977 7.89844C 11 7.67187 10.8652 7.47461 10.6934 7.30664C 10.5254 7.13477 10.3281 7 10.1016 6.90234C 9.875 6.80078 9.63281 6.75 9.375 6.75C 9.11719 6.75 8.87305 6.80078 8.64258 6.90234C 8.41602 7 8.2168 7.13477 8.04492 7.30664C 7.87695 7.47461 7.74414 7.67187 7.64648 7.89844C 7.54883 8.125 7.5 8.36719 7.5 8.625L 7.5 9L 6.75 9L 6.75 8.625C 6.75 8.37891 6.78125 8.14258 6.84375 7.91602C 6.91016 7.68555 7.00391 7.4707 7.125 7.27148C 7.25 7.06836 7.39844 6.88477 7.57031 6.7207C 7.74219 6.55273 7.9375 6.41211 8.15625 6.29883C 7.94531 6.11914 7.7832 5.90625 7.66992 5.66016C 7.55664 5.41016 7.5 5.14844 7.5 4.875C 7.5 4.61719 7.54883 4.375 7.64648 4.14844C 7.74414 3.92188 7.87695 3.72461 8.04492 3.55664C 8.2168 3.38477 8.41602 3.25 8.64258 3.15234C 8.87305 3.05078 9.11719 3 9.375 3C 9.63281 3 9.875 3.05078 10.1016 3.15234C 10.3281 3.25 10.5254 3.38477 10.6934 3.55664C 10.8652 3.72461 11 3.92188 11.0977 4.14844C 11.1992 4.375 11.25 4.61719 11.25 4.875C 11.25 5.14844 11.1934 5.41016 11.0801 5.66016C 10.9668 5.90625 10.8047 6.11914 10.5938 6.29883ZM 8.25 4.875C 8.25 5.03125 8.2793 5.17773 8.33789 5.31445C 8.39648 5.45117 8.47656 5.57031 8.57812 5.67188C 8.67969 5.77344 8.79883 5.85352 8.93555 5.91211C 9.07227 5.9707 9.21875 6 9.375 6C 9.53125 6 9.67773 5.9707 9.81445 5.91211C 9.95117 5.85352 10.0703 5.77344 10.1719 5.67188C 10.2734 5.57031 10.3535 5.45117 10.4121 5.31445C 10.4707 5.17773 10.5 5.03125 10.5 4.875C 10.5 4.71875 10.4707 4.57227 10.4121 4.43555C 10.3535 4.29883 10.2734 4.17969 10.1719 4.07812C 10.0703 3.97656 9.95117 3.89648 9.81445 3.83789C 9.67773 3.7793 9.53125 3.75 9.375 3.75C 9.21875 3.75 9.07227 3.7793 8.93555 3.83789C 8.79883 3.89648 8.67969 3.97656 8.57812 4.07812C 8.47656 4.17969 8.39648 4.29883 8.33789 4.43555C 8.2793 4.57227 8.25 4.71875 8.25 4.875ZM 6.75 0.75C 6.43359 0.75 6.12109 0.783203 5.8125 0.849609C 5.50781 0.916016 5.21289 1.01172 4.92773 1.13672C 4.64648 1.26172 4.37695 1.41602 4.11914 1.59961C 3.86523 1.7793 3.63281 1.98633 3.42188 2.2207L 2.86523 1.7168C 3.11523 1.44336 3.38867 1.20117 3.68555 0.990234C 3.98242 0.775391 4.29492 0.595703 4.62305 0.451172C 4.95508 0.302734 5.29883 0.191406 5.6543 0.117188C 6.01367 0.0390623 6.37891 0 6.75 0C 7.28516 0 7.80859 0.0800779 8.32031 0.240234C 8.83594 0.396484 9.3125 0.630859 9.75 0.943359L 9.75 0L 10.5 0L 10.5 2.25L 8.25 2.25L 8.25 1.5L 9.24023 1.5C 8.86914 1.25391 8.4707 1.06836 8.04492 0.943359C 7.62305 0.814453 7.19141 0.75 6.75 0.75ZM 5.25 11.25C 5.56641 11.25 5.87695 11.2168 6.18164 11.1504C 6.48633 11.084 6.78125 10.9883 7.06641 10.8633C 7.35156 10.7383 7.62109 10.5859 7.875 10.4062C 8.13281 10.2227 8.36719 10.0137 8.57812 9.7793L 9.13477 10.2832C 8.88477 10.5566 8.61133 10.8008 8.31445 11.0156C 8.01758 11.2266 7.70312 11.4062 7.37109 11.5547C 7.03906 11.6992 6.69336 11.8105 6.33398 11.8887C 5.97852 11.9629 5.61719 12 5.25 12C 4.71484 12 4.18945 11.9219 3.67383 11.7656C 3.16211 11.6055 2.6875 11.3691 2.25 11.0566L 2.25 12L 1.5 12L 1.5 9.75L 3.75 9.75L 3.75 10.5L 2.75977 10.5C 3.13086 10.7461 3.52734 10.9336 3.94922 11.0625C 4.375 11.1875 4.80859 11.25 5.25 11.25Z"/>
</defs>
</svg>
