<svg width="1001" height="1001" viewBox="0 0 1001 1001" version="1.1" xmlns="http://www.w3.org/2000/svg" xmlns:xlink="http://www.w3.org/1999/xlink">
<title>trigger-auto</title>
<desc>Created using Figma</desc>
<g id="Canvas" transform="matrix(71.5 0 0 71.5 -88445.5 -16159)">
<rect x="1237" y="226" width="14" height="14" fill="#E5E5E5"/>
<g id="trigger-auto">
<mask id="mask0_outline" mask-type="alpha">
<g id="Mask">
<use xlink:href="#path0_fill" transform="translate(1237 226)" fill="#FFFFFF"/>
</g>
</mask>
<g id="Mask" mask="url(#mask0_outline)">
<use xlink:href="#path0_fill" transform="translate(1237 226)"/>
</g>
<g id="&#226;&#134;&#170;&#240;&#159;&#142;&#168;Color" mask="url(#mask0_outline)">
<g id="Rectangle 3">
<use xlink:href="#path1_fill" transform="translate(1237 226)"/>
</g>
</g>
</g>
</g>
<defs>
<path id="path0_fill" fill-rule="evenodd" d="M 2.62354 14L 5.9325 10.4961L 5.9325 9.03516L 2.18628 13L 1.78052 13L 4.80591 8L 1.70569 8L 5.23523 1L 8.0675 1L 5.04224 6L 10.1869 6L 11.1322 5L 6.82275 5L 9.84802 0L 4.61279 0L 0.0748291 9L 3.02527 9L 0 14L 2.62354 14ZM 11.4592 8.12891C 11.4141 8.10901 11.3673 8.09703 11.3201 8.0849C 11.293 8.07799 11.2659 8.07101 11.2386 8.0625L 11.0574 7L 9.88354 7L 9.70227 8.0625C 9.55652 8.10547 9.41077 8.16406 9.27295 8.23828L 8.3905 7.61328L 7.55933 8.4375L 8.1897 9.3125C 8.17554 9.34052 8.16016 9.36729 8.14478 9.39406L 8.14343 9.39633C 8.12073 9.436 8.0979 9.47572 8.07935 9.51953C 8.05933 9.56424 8.04724 9.61052 8.03503 9.65738L 8.03308 9.66483C 8.02661 9.68921 8.02014 9.71376 8.01233 9.73828L 6.94092 9.91797L 6.94092 11.082L 8.01233 11.2617C 8.05566 11.4062 8.11475 11.5508 8.1897 11.6875L 7.55933 12.5625L 8.3905 13.3867L 9.27295 12.7617C 9.30139 12.7758 9.32849 12.7911 9.35559 12.8065L 9.35681 12.8072C 9.39709 12.8299 9.43726 12.8526 9.48169 12.8711C 9.52686 12.891 9.57361 12.903 9.62085 12.9151C 9.64795 12.922 9.67505 12.929 9.70227 12.9375L 9.88354 14L 11.0574 14L 11.2386 12.9375C 11.3844 12.8945 11.5302 12.8359 11.668 12.7617L 12.5504 13.3867L 13.3816 12.5625L 12.7512 11.6875C 12.7654 11.6595 12.7808 11.6327 12.7961 11.6059L 12.7975 11.6037C 12.8202 11.564 12.843 11.5243 12.8616 11.4805C 12.8816 11.4358 12.8937 11.3895 12.9059 11.3426L 12.9078 11.3352C 12.9143 11.3108 12.9208 11.2862 12.9286 11.2617L 14 11.082L 14 9.91797L 12.9286 9.73828C 12.8853 9.59375 12.8262 9.44922 12.7512 9.3125L 13.3816 8.4375L 12.5504 7.61328L 11.668 8.23828C 11.6395 8.2242 11.6124 8.20888 11.5853 8.19354L 11.5841 8.19284C 11.5438 8.17012 11.5037 8.14745 11.4592 8.12891ZM 11.9634 10.7461C 11.8254 11.5625 11.0455 12.1172 10.2222 11.9805C 9.39893 11.8438 8.8396 11.0703 8.97742 10.2539C 9.11536 9.4375 9.89526 8.88281 10.7185 9.01953C 11.5419 9.15625 12.1012 9.92969 11.9634 10.7461Z"/>
<path id="path1_fill" fill-rule="evenodd" d="M 0 0L 14 0L 14 14L 0 14L 0 0Z"/>
</defs>
</svg>
