<svg width="1000" height="1000" viewBox="0 0 1000 1000" version="1.1" xmlns="http://www.w3.org/2000/svg" xmlns:xlink="http://www.w3.org/1999/xlink">
<title>trigger-user</title>
<desc>Created using Figma</desc>
<g id="Canvas" transform="matrix(71.4286 0 0 71.4286 -90071.4 -16142.9)">
<rect x="1261" y="226" width="14" height="14" fill="#E5E5E5"/>
<g id="trigger-user">
<mask id="mask0_outline" mask-type="alpha">
<g id="Mask">
<use xlink:href="#path0_fill" transform="translate(1261 226)" fill="#FFFFFF"/>
</g>
</mask>
<g id="Mask" mask="url(#mask0_outline)">
<use xlink:href="#path0_fill" transform="translate(1261 226)"/>
</g>
<g id="&#226;&#134;&#170;&#240;&#159;&#142;&#168;Color" mask="url(#mask0_outline)">
<g id="Rectangle 3">
<use xlink:href="#path1_fill" transform="translate(1261 226)" fill="#333333"/>
</g>
</g>
</g>
</g>
<defs>
<path id="path0_fill" fill-rule="evenodd" d="M 2.62354 14L 6.96851 9.40234C 6.95276 9.26953 6.94092 9.13672 6.94092 9C 6.94092 8.53906 7.0354 8.09766 7.20093 7.69141L 2.18628 13L 1.78052 13L 4.80591 8L 1.70569 8L 5.23523 1L 8.0675 1L 5.04224 6L 8.68201 6C 9.20996 5.69141 9.81653 5.5 10.4705 5.5C 10.5005 5.5 10.5295 5.50404 10.5581 5.50801C 10.5857 5.51186 10.6128 5.51562 10.6399 5.51562L 11.1322 5L 6.82275 5L 9.84802 0L 4.61279 0L 0.0748291 9L 3.02527 9L 0 14L 2.62354 14ZM 12.0817 10.9062C 12.6331 10.4453 12.9916 9.76562 12.9916 9C 12.9916 7.62109 11.861 6.5 10.4705 6.5C 9.07996 6.5 7.94934 7.62109 7.94934 9C 7.94934 9.76562 8.30786 10.4453 8.85938 10.9062C 7.72485 11.4883 6.94092 12.6484 6.94092 14L 7.94934 14C 7.94934 12.6211 9.07996 11.5 10.4705 11.5C 11.861 11.5 12.9916 12.6211 12.9916 14L 14 14C 14 12.6484 13.2161 11.4883 12.0817 10.9062ZM 8.95776 9C 8.95776 8.17188 9.63525 7.5 10.4705 7.5C 11.3055 7.5 11.983 8.17188 11.983 9C 11.983 9.82812 11.3055 10.5 10.4705 10.5C 9.63525 10.5 8.95776 9.82812 8.95776 9Z"/>
<path id="path1_fill" fill-rule="evenodd" d="M 0 0L 14 0L 14 14L 0 14L 0 0Z"/>
</defs>
</svg>
