<svg width="935" height="1001" viewBox="0 0 935 1001" version="1.1" xmlns="http://www.w3.org/2000/svg" xmlns:xlink="http://www.w3.org/1999/xlink">
<title>unpin</title>
<desc>Created using Figma</desc>
<g id="Canvas" transform="matrix(66.7333 0 0 66.7333 -85752.3 -15015)">
<rect x="1285" y="225" width="14" height="15" fill="#E5E5E5"/>
<g id="unpin">
<mask id="mask0_outline" mask-type="alpha">
<g id="Mask">
<use xlink:href="#path0_fill" transform="translate(1285 225)" fill="#FFFFFF"/>
</g>
</mask>
<g id="Mask" mask="url(#mask0_outline)">
<use xlink:href="#path0_fill" transform="translate(1285 225)"/>
</g>
<g id="&#226;&#134;&#170;&#240;&#159;&#142;&#168;Color" mask="url(#mask0_outline)">
<g id="Rectangle 3">
<use xlink:href="#path1_fill" transform="translate(1285 226)"/>
</g>
</g>
</g>
</g>
<defs>
<path id="path0_fill" fill-rule="evenodd" d="M 13.6449 5.58327L 14 5.19865L 9.15051 0L 8.79138 0.384613C 8.21924 0.997467 7.9707 1.86391 8.10486 2.71344L 5.53613 5.46492C 4.29712 5.03381 2.9436 5.37616 2.01245 6.37785L 1.65332 6.75824L 4.28918 9.58157L 0.217041 13.9603L 0 15L 1.01013 14.7422L 5.05859 10.4057L 6.08459 11.5047C 6.10828 11.0609 6.19104 10.634 6.32922 10.2367L 3.12122 6.80051C 3.80774 6.31445 4.67981 6.22569 5.46106 6.58917L 5.77673 6.73711L 9.22937 3.03888L 9.14258 2.73035C 9.03613 2.34573 9.06372 1.94844 9.21362 1.60185L 12.5084 5.13103C 12.1849 5.2874 11.8101 5.32121 11.455 5.20711L 11.1669 5.11412L 8.75989 7.68808C 9.18213 7.52747 9.62793 7.42604 10.1014 7.42604C 10.1627 7.42604 10.2227 7.43509 10.2828 7.44418C 10.3234 7.4503 10.364 7.45645 10.4053 7.45985L 11.4707 6.31868C 12.2599 6.46661 13.0728 6.19611 13.6449 5.58327ZM 7.07104 11.754C 7.07104 9.96619 8.42847 8.50803 10.1014 8.50803C 11.7706 8.50803 13.132 9.96619 13.132 11.754C 13.132 13.5418 11.7706 15 10.1014 15C 8.42847 15 7.07104 13.5418 7.07104 11.754ZM 11.8337 12.8445C 12.0112 12.5233 12.1217 12.1555 12.1217 11.754C 12.1217 10.5621 11.2142 9.59003 10.1014 9.59003C 9.72656 9.59003 9.37939 9.70837 9.07947 9.89856L 11.8337 12.8445ZM 8.08118 11.754C 8.08118 11.3525 8.18774 10.9848 8.36523 10.6636L 11.1195 13.6095C 10.8196 13.7997 10.4724 13.918 10.1014 13.918C 8.98474 13.918 8.08118 12.9459 8.08118 11.754Z"/>
<path id="path1_fill" fill-rule="evenodd" d="M 0 0L 14 0L 14 14L 0 14L 0 0Z"/>
</defs>
</svg>
