<svg width="1000" height="1000" viewBox="0 0 1000 1000" version="1.1" xmlns="http://www.w3.org/2000/svg" xmlns:xlink="http://www.w3.org/1999/xlink">
<title>unpin-fill</title>
<desc>Created using Figma</desc>
<g id="Canvas" transform="matrix(71.4286 0 0 71.4286 -93500 -16142.9)">
<rect x="1309" y="226" width="14" height="14" fill="#E5E5E5"/>
<g id="unpin-fill">
<mask id="mask0_outline" mask-type="alpha">
<g id="Mask">
<use xlink:href="#path0_fill" transform="translate(1309 226)" fill="#FFFFFF"/>
</g>
</mask>
<g id="Mask" mask="url(#mask0_outline)">
<use xlink:href="#path0_fill" transform="translate(1309 226)"/>
</g>
<g id="&#226;&#134;&#170;&#240;&#159;&#142;&#168;Color" mask="url(#mask0_outline)">
<g id="Rectangle 3">
<use xlink:href="#path1_fill" transform="translate(1309 226)"/>
</g>
</g>
</g>
</g>
<defs>
<path id="path0_fill" fill-rule="evenodd" d="M 5.37561 9.41435L 6.27893 10.3177C 6.55029 8.38136 8.15051 6.87848 10.1313 6.76505L 11.8408 5.05556C 12.5822 5.27835 13.4166 5.10417 14 4.52083L 9.47913 0C 8.89587 0.583328 8.72168 1.41783 8.94446 2.15915L 5.67126 5.4323C 4.48035 4.91377 3.04626 5.13658 2.0741 6.11285L 4.58972 8.62442L 0.222778 13.0035L 0 14L 1.03699 13.7529L 5.37561 9.41435ZM 10.3704 14C 12.084 14 13.4814 12.6065 13.4814 10.8889C 13.4814 9.17534 12.084 7.77777 10.3704 7.77777C 8.65686 7.77777 7.25928 9.17534 7.25928 10.8889C 7.25928 12.6024 8.65686 14 10.3704 14ZM 10.3704 8.81482C 9.98547 8.81482 9.63306 8.92824 9.3252 9.11053L 12.1487 11.934C 12.3309 11.6262 12.4445 11.2737 12.4445 10.8889C 12.4445 9.74654 11.5127 8.81482 10.3704 8.81482ZM 11.4155 12.6673C 11.1077 12.8495 10.7551 12.963 10.3704 12.963C 9.22803 12.963 8.29626 12.0312 8.29626 10.8889C 8.29626 10.504 8.40967 10.1516 8.59204 9.84375L 11.4155 12.6673Z"/>
<path id="path1_fill" fill-rule="evenodd" d="M 0 0L 14 0L 14 14L 0 14L 0 0Z"/>
</defs>
</svg>
