<svg width="1001" height="1001" viewBox="0 0 1001 1001" version="1.1" xmlns="http://www.w3.org/2000/svg" xmlns:xlink="http://www.w3.org/1999/xlink">
<title>user-pause</title>
<desc>Created using Figma</desc>
<g id="Canvas" transform="matrix(71.5 0 0 71.5 -11225.5 -17875)">
<rect x="157" y="250" width="14" height="14" fill="#E5E5E5"/>
<g id="user-pause">
<mask id="mask0_outline" mask-type="alpha">
<g id="Mask">
<use xlink:href="#path0_fill" transform="translate(157 250)" fill="#FFFFFF"/>
</g>
</mask>
<g id="Mask" mask="url(#mask0_outline)">
<use xlink:href="#path0_fill" transform="translate(157 250)"/>
</g>
<g id="&#226;&#134;&#170;&#240;&#159;&#142;&#168;Color" mask="url(#mask0_outline)">
<g id="Rectangle 3">
<use xlink:href="#path1_fill" transform="translate(157 250)"/>
</g>
</g>
</g>
</g>
<defs>
<path id="path0_fill" fill-rule="evenodd" d="M 5.28604 6.5787C 5.46224 6.5787 5.63043 6.55846 5.79863 6.52605L 5.79863 7.66435C 5.76225 7.65997 5.72587 7.65521 5.68941 7.65044C 5.5573 7.63316 5.42413 7.61574 5.28604 7.61574C 2.89531 7.61574 1.02517 9.50752 1.02517 11.9259L 0 11.9259C 0 9.66956 1.3135 7.78587 3.22368 6.98785C 2.20252 6.3073 1.52174 5.13658 1.52174 3.80788C 1.52174 1.70949 3.21167 0 5.28604 0C 7.36041 0 9.05034 1.70949 9.05034 3.80788C 9.05034 4.50058 8.86213 5.14468 8.54176 5.7037L 7.27231 5.7037C 7.73684 5.20544 8.02517 4.54109 8.02517 3.80788C 8.02517 2.28067 6.79577 1.03703 5.28604 1.03703C 3.77632 1.03703 2.54691 2.28067 2.54691 3.80788C 2.54691 5.33507 3.77632 6.5787 5.28604 6.5787ZM 9.89931 14L 6.8238 14L 6.8238 6.74074L 9.89931 6.74074L 9.89931 14ZM 7.84897 12.963L 8.87414 12.963L 8.87414 7.77777L 7.84897 7.77777L 7.84897 12.963ZM 10.9245 14L 14 14L 14 6.74074L 10.9245 6.74074L 10.9245 14ZM 11.9497 12.963L 12.9748 12.963L 12.9748 7.77777L 11.9497 7.77777L 11.9497 12.963Z"/>
<path id="path1_fill" fill-rule="evenodd" d="M 0 0L 14 0L 14 14L 0 14L 0 0Z"/>
</defs>
</svg>
