<svg width="1000" height="1000" viewBox="0 0 1000 1000" version="1.1" xmlns="http://www.w3.org/2000/svg" xmlns:xlink="http://www.w3.org/1999/xlink">
<title>user-pending</title>
<desc>Created using Figma</desc>
<g id="Canvas" transform="matrix(71.4286 0 0 71.4286 -12928.6 -17857.1)">
<rect x="181" y="250" width="14" height="14" fill="#E5E5E5"/>
<g id="user-pending">
<mask id="mask0_outline" mask-type="alpha">
<g id="Mask">
<use xlink:href="#path0_fill" transform="translate(181 250)" fill="#FFFFFF"/>
</g>
</mask>
<g id="Mask" mask="url(#mask0_outline)">
<use xlink:href="#path0_fill" transform="translate(181 250)"/>
</g>
<g id="&#226;&#134;&#170;&#240;&#159;&#142;&#168;Color" mask="url(#mask0_outline)">
<g id="Rectangle 3">
<use xlink:href="#path1_fill" transform="translate(181 250)" fill="#333333"/>
</g>
</g>
</g>
</g>
<defs>
<path id="path0_fill" fill-rule="evenodd" d="M 8.0532 6.38426C 8.66991 5.7037 9.05034 4.80035 9.05034 3.80788C 9.05034 1.70949 7.36041 0 5.28604 0C 3.21167 0 1.52174 1.70949 1.52174 3.80788C 1.52174 5.13658 2.20252 6.3073 3.22368 6.98785C 1.3135 7.78587 0 9.66956 0 11.9259L 1.02517 11.9259C 1.02517 9.50752 2.89531 7.61574 5.28604 7.61574C 5.73455 7.61574 6.15503 7.69676 6.5595 7.81828C 6.93993 7.2309 7.45252 6.7448 8.0532 6.38426ZM 2.54691 3.80786C 2.54691 2.28067 3.77632 1.03703 5.28604 1.03703C 6.79577 1.03703 8.02517 2.28067 8.02517 3.80786C 8.02517 5.33507 6.79577 6.5787 5.28604 6.5787C 3.77632 6.5787 2.54691 5.33507 2.54691 3.80786ZM 6.8238 10.3704C 6.8238 12.3715 8.43364 14 10.4119 14C 12.3902 14 14 12.3715 14 10.3704C 14 8.36922 12.3902 6.74074 10.4119 6.74074C 8.43364 6.74074 6.8238 8.36922 6.8238 10.3704ZM 10.4119 7.77777C 8.99828 7.77777 7.84897 8.94038 7.84897 10.3704C 7.84897 11.8003 8.99828 12.963 10.4119 12.963C 11.8255 12.963 12.9748 11.8003 12.9748 10.3704C 12.9748 8.94038 11.8255 7.77777 10.4119 7.77777ZM 9.89931 10.8889L 12.4622 10.8889L 12.4622 9.85185L 10.9245 9.85185L 10.9245 8.2963L 9.89931 8.2963L 9.89931 10.8889Z"/>
<path id="path1_fill" fill-rule="evenodd" d="M 0 0L 14 0L 14 14L 0 14L 0 0Z"/>
</defs>
</svg>
