<svg width="1001" height="1001" viewBox="0 0 1001 1001" version="1.1" xmlns="http://www.w3.org/2000/svg" xmlns:xlink="http://www.w3.org/1999/xlink">
<title>variable</title>
<desc>Created using Figma</desc>
<g id="Canvas" transform="matrix(71.5 0 0 71.5 -23237.5 -17875)">
<rect x="325" y="250" width="14" height="14" fill="#E5E5E5"/>
<g id="variable">
<mask id="mask0_outline" mask-type="alpha">
<g id="Mask">
<use xlink:href="#path0_fill" transform="translate(325 251)" fill="#FFFFFF"/>
</g>
</mask>
<g id="Mask" mask="url(#mask0_outline)">
<use xlink:href="#path0_fill" transform="translate(325 251)"/>
</g>
<g id="&#226;&#134;&#170;&#240;&#159;&#142;&#168;Color" mask="url(#mask0_outline)">
<g id="Rectangle 3">
<use xlink:href="#path1_fill" transform="translate(325 250)"/>
</g>
</g>
</g>
</g>
<defs>
<path id="path0_fill" fill-rule="evenodd" d="M 6.67188 0.775574C 6.24278 1.28693 5.89784 2.09659 5.63702 3.20029L 6.55409 3.20029L 6.33534 3.96733L 5.44351 3.96733L 4.70734 7.00142C 4.36238 8.42897 4.02585 9.46875 3.69772 10.1122C 3.3696 10.7514 2.98679 11.2287 2.54929 11.5355C 2.10757 11.8466 1.60696 12 1.03906 12C 0.681488 12 0.42067 11.9276 0.252411 11.7869C 0.084137 11.6463 0 11.4758 0 11.2841C 0 11.1051 0.0673065 10.9517 0.206131 10.8196C 0.344955 10.6875 0.525848 10.6236 0.757217 10.6236C 0.946518 10.6236 1.08954 10.6705 1.19051 10.7727C 1.29147 10.875 1.34195 10.9986 1.34195 11.152C 1.34195 11.2926 1.30829 11.3992 1.24519 11.4631C 1.1821 11.5312 1.15265 11.5781 1.15265 11.5994L 1.1821 11.6463C 1.21153 11.6676 1.23679 11.6761 1.27043 11.6761C 1.40085 11.6761 1.50601 11.6378 1.59015 11.5526C 1.81731 11.348 1.98137 11.1008 2.09074 10.8068C 2.16647 10.6065 2.30949 10.0739 2.52403 9.21307L 3.81129 3.96733L 2.93629 3.96733L 3.14243 3.20029C 3.45793 3.20454 3.6893 3.1662 3.82812 3.07671C 3.97116 2.99147 4.12259 2.79546 4.28665 2.48863C 4.74519 1.59801 5.23317 0.963074 5.7464 0.579544C 6.25961 0.191757 6.83173 0 7.46274 0C 7.86238 0 8.15685 0.0809631 8.33774 0.242905C 8.52284 0.404831 8.61539 0.613632 8.61539 0.873581C 8.61539 1.09943 8.55228 1.28267 8.43028 1.41478C 8.30829 1.54688 8.15685 1.61505 7.97597 1.61505C 7.80769 1.61505 7.67308 1.55966 7.56371 1.44887C 7.45012 1.34233 7.39543 1.21022 7.39543 1.05682C 7.39543 0.94603 7.43329 0.830963 7.5006 0.711655C 7.57211 0.588074 7.60577 0.502838 7.60577 0.46022C 7.60577 0.413345 7.58894 0.370743 7.55949 0.340912C 7.52585 0.311081 7.48798 0.294037 7.4375 0.294037C 7.18509 0.294037 6.93269 0.455963 6.67188 0.775574ZM 12.271 8.53552C 12.0565 8.24574 11.5727 6.9929 11.2151 5.6804C 11.5307 5.09233 11.7999 4.70882 12.0186 4.52983C 12.1785 4.40199 12.3468 4.33382 12.5234 4.33382C 12.5907 4.33382 12.7127 4.35938 12.8852 4.41052C 13.0619 4.46165 13.2176 4.48721 13.348 4.48721C 13.5331 4.48721 13.6887 4.41904 13.8149 4.28694C 13.9369 4.15057 14 3.98012 14 3.77132C 14 3.54971 13.9369 3.37074 13.8149 3.23865C 13.6887 3.10654 13.512 3.04262 13.2807 3.04262C 13.0745 3.04262 12.881 3.09375 12.6959 3.19603C 12.515 3.29829 12.2837 3.5199 12.0018 3.86079C 11.7915 4.11649 11.4802 4.55966 11.0679 5.19461C 10.9039 4.41052 10.622 3.69461 10.2224 3.04262L 7.54688 3.04262L 7.54688 4.16336C 7.62946 4.14621 7.81541 4.01244 7.99426 3.8838C 8.17072 3.75688 8.34023 3.63495 8.39664 3.63495C 8.61539 3.63495 8.79628 3.73296 8.9393 3.92899C 9.16647 4.23579 9.48198 5.16478 9.88582 6.72017C 9.57031 7.16336 8.96875 7.90483 8.85097 8.0412C 8.66167 8.25853 8.5018 8.40341 8.37561 8.46733C 8.27885 8.51848 8.16948 8.54829 8.04327 8.54829C 7.95493 8.54829 7.8035 8.4929 7.59315 8.39062C 7.45012 8.31819 7.31972 8.28409 7.20613 8.28409C 6.9958 8.28409 6.81911 8.35654 6.6803 8.50142C 6.54147 8.64632 6.46996 8.82954 6.46996 9.05115C 6.46996 9.25995 6.53305 9.43466 6.66347 9.5625C 6.78967 9.69461 6.96635 9.75853 7.1851 9.75853C 7.39124 9.75853 7.59315 9.71591 7.77405 9.62216C 7.95914 9.53267 8.19051 9.3324 8.47237 9.03409C 8.75 8.73579 9.51984 7.80682 10.012 7.15483C 10.2013 7.77699 10.5631 8.6804 10.7019 8.96165C 10.8407 9.24716 11.0006 9.44745 11.1773 9.57103C 11.354 9.69887 11.5811 9.75853 11.8462 9.75853C 12.107 9.75853 12.372 9.66478 12.6412 9.46449C 12.9946 9.21307 13.3564 8.77415 13.7266 8.15199L 13.4994 8.01562C 13.247 8.38211 13.0577 8.61221 12.9399 8.70596C 12.86 8.76137 12.7632 8.78694 12.6539 8.78694C 12.5234 8.78694 12.3972 8.70598 12.271 8.53552Z"/>
<path id="path1_fill" fill-rule="evenodd" d="M 0 0L 14 0L 14 14L 0 14L 0 0Z"/>
</defs>
</svg>
