<svg width="1000" height="1000" viewBox="0 0 1000 1000" version="1.1" xmlns="http://www.w3.org/2000/svg" xmlns:xlink="http://www.w3.org/1999/xlink">
<title>variable-group</title>
<desc>Created using Figma</desc>
<g id="Canvas" transform="matrix(71.4286 0 0 71.4286 -24928.6 -17857.1)">
<rect x="349" y="250" width="14" height="14" fill="#E5E5E5"/>
<g id="variable-group">
<mask id="mask0_outline" mask-type="alpha">
<g id="Mask">
<use xlink:href="#path0_fill" transform="translate(349 251)" fill="#FFFFFF"/>
</g>
</mask>
<g id="Mask" mask="url(#mask0_outline)">
<use xlink:href="#path0_fill" transform="translate(349 251)"/>
</g>
<g id="&#226;&#134;&#170;&#240;&#159;&#142;&#168;Color" mask="url(#mask0_outline)">
<g id="Rectangle 3">
<use xlink:href="#path1_fill" transform="translate(349 250)"/>
</g>
</g>
</g>
</g>
<defs>
<path id="path0_fill" fill-rule="evenodd" d="M 0 12L 0 0L 14 0L 14 12L 0 12ZM 1 11L 13 11L 13 3L 1 3L 1 11ZM 13 2L 1 2L 1 1L 13 1L 13 2ZM 4.67578 8.57812C 4.67578 8.70312 4.71484 8.80469 4.79297 8.88281C 4.87109 8.96094 4.98047 9 5.11719 9C 5.24219 9 5.36719 8.97266 5.48047 8.91797C 5.59375 8.86328 5.73828 8.74609 5.91016 8.57031C 6.08203 8.39062 6.55859 7.84375 6.85938 7.45703C 6.97656 7.82422 7.20312 8.35938 7.28516 8.52734C 7.37109 8.69531 7.47266 8.81641 7.58203 8.89062C 7.69141 8.96094 7.82812 9 7.99609 9C 8.15625 9 8.32031 8.94141 8.48438 8.82422C 8.70312 8.67578 8.92578 8.41406 9.15625 8.04688L 9.01562 7.96484C 8.85938 8.18359 8.74219 8.32031 8.66797 8.375C 8.62109 8.40625 8.5625 8.42578 8.49219 8.42578C 8.41406 8.42578 8.33594 8.375 8.25781 8.27344C 8.125 8.10156 7.82422 7.35938 7.60547 6.57812C 7.80078 6.23047 7.96484 6.00391 8.10156 5.89844C 8.19922 5.82031 8.30469 5.78125 8.41406 5.78125C 8.45312 5.78125 8.53125 5.79688 8.63672 5.82812C 8.74609 5.85547 8.83984 5.87109 8.92188 5.87109C 9.03516 5.87109 9.13281 5.83203 9.21094 5.75391C 9.28516 5.67188 9.32422 5.57031 9.32422 5.44531C 9.32422 5.31641 9.28516 5.21094 9.21094 5.13281C 9.13281 5.05469 9.02344 5.01562 8.87891 5.01562C 8.75391 5.01562 8.63281 5.04688 8.51953 5.10547C 8.40625 5.16797 8.26562 5.30078 8.08984 5.5C 7.96094 5.65234 7.76953 5.91406 7.51562 6.29297C 7.41406 5.82812 7.23828 5.40234 6.99219 5.01562L 5.33984 5.01562L 5.33984 5.67969C 5.39117 5.66982 5.50629 5.59015 5.61673 5.51372L 5.61697 5.51355C 5.72504 5.43878 5.82852 5.36719 5.86328 5.36719C 6 5.36719 6.10938 5.42578 6.19922 5.53906C 6.33984 5.72266 6.53516 6.27344 6.78125 7.19922C 6.58984 7.46094 6.21875 7.89844 6.14453 7.98047C 6.02734 8.10938 5.92969 8.19531 5.85156 8.23438C 5.78906 8.26562 5.72266 8.28125 5.64844 8.28125C 5.58984 8.28125 5.49609 8.25 5.36719 8.1875C 5.28125 8.14453 5.19922 8.125 5.12891 8.125C 5 8.125 4.89062 8.16797 4.80469 8.25391C 4.71875 8.33984 4.67578 8.44531 4.67578 8.57812ZM 2.91016 9.78125C 2.09766 9.00391 1.69141 8.04688 1.69141 6.91406C 1.69141 5.77344 2.09766 4.80078 2.91016 4L 3.66797 4C 2.87109 4.83203 2.47266 5.80078 2.47266 6.90625C 2.47266 8.00391 2.87109 8.96094 3.66406 9.78125L 2.91016 9.78125ZM 10.3242 4C 11.125 4.83203 11.5234 5.80078 11.5234 6.90625C 11.5234 8.00391 11.125 8.96094 10.3281 9.78125L 11.082 9.78125C 11.8984 9.00391 12.3086 8.04688 12.3086 6.91406C 12.3086 5.77344 11.8984 4.80078 11.0859 4L 10.3242 4Z"/>
<path id="path1_fill" fill-rule="evenodd" d="M 0 0L 14 0L 14 14L 0 14L 0 0Z"/>
</defs>
</svg>
