<svg width="1001" height="1001" viewBox="0 0 1001 1001" version="1.1" xmlns="http://www.w3.org/2000/svg" xmlns:xlink="http://www.w3.org/1999/xlink">
<title>view-list-tree</title>
<desc>Created using Figma</desc>
<g id="Canvas" transform="matrix(71.5 0 0 71.5 -35249.5 -17875)">
<rect x="493" y="250" width="14" height="14" fill="#E5E5E5"/>
<g id="view-list-tree">
<mask id="mask0_outline" mask-type="alpha">
<g id="Mask">
<use xlink:href="#path0_fill" transform="translate(493 251)" fill="#FFFFFF"/>
</g>
</mask>
<g id="Mask" mask="url(#mask0_outline)">
<use xlink:href="#path0_fill" transform="translate(493 251)"/>
</g>
<g id="&#226;&#134;&#170;&#240;&#159;&#142;&#168;Color" mask="url(#mask0_outline)">
<g id="Rectangle 3">
<use xlink:href="#path1_fill" transform="translate(493 250)"/>
</g>
</g>
</g>
</g>
<defs>
<path id="path0_fill" fill-rule="evenodd" d="M 0 0L 0 5L 3 5L 3 9L 5 9L 5 13L 14 13L 14 0L 0 0ZM 13 1L 13 4L 5 4L 5 1L 13 1ZM 1 1L 1 4L 4 4L 4 1L 1 1ZM 4 8L 4 5L 7 5L 7 8L 4 8ZM 6 9L 6 12L 9 12L 9 9L 6 9ZM 13 12L 10 12L 10 9L 13 9L 13 12ZM 8 8L 13 8L 13 5L 8 5L 8 8Z"/>
<path id="path1_fill" fill-rule="evenodd" d="M 0 0L 14 0L 14 14L 0 14L 0 0Z"/>
</defs>
</svg>
