<svg width="1001" height="1001" viewBox="0 0 1001 1001" version="1.1" xmlns="http://www.w3.org/2000/svg" xmlns:xlink="http://www.w3.org/1999/xlink">
<title>view-full-screen</title>
<desc>Created using Figma</desc>
<g id="Canvas" transform="matrix(71.5 0 0 71.5 -28385.5 -17875)">
<rect x="397" y="250" width="14" height="14" fill="#E5E5E5"/>
<g id="view-full-screen">
<mask id="mask0_outline" mask-type="alpha">
<g id="Mask">
<use xlink:href="#path0_fill" transform="translate(397 250)" fill="#FFFFFF"/>
</g>
</mask>
<g id="Mask" mask="url(#mask0_outline)">
<use xlink:href="#path0_fill" transform="translate(397 250)"/>
</g>
<g id="&#226;&#134;&#170;&#240;&#159;&#142;&#168;Color" mask="url(#mask0_outline)">
<g id="Rectangle 3">
<use xlink:href="#path1_fill" transform="translate(397 250)"/>
</g>
</g>
</g>
</g>
<defs>
<path id="path0_fill" fill-rule="evenodd" d="M 1 1L 4 1L 4 0L 0 0L 0 4L 1 4L 1 1ZM 13 4L 14 4L 14 0L 10 0L 10 1L 13 1L 13 4ZM 13 10L 14 10L 14 14L 10 14L 10 13L 13 13L 13 10ZM 1 13L 4 13L 4 14L 0 14L 0 10L 1 10L 1 13Z"/>
<path id="path1_fill" fill-rule="evenodd" d="M 0 0L 14 0L 14 14L 0 14L 0 0Z"/>
</defs>
</svg>
