<svg width="1001" height="1001" viewBox="0 0 1001 1001" version="1.1" xmlns="http://www.w3.org/2000/svg" xmlns:xlink="http://www.w3.org/1999/xlink">
<title>vs-code</title>
<desc>Created using Figma</desc>
<g id="Canvas" transform="matrix(71.5 0 0 71.5 -83297.5 -2431)">
<rect x="1165" y="34" width="14" height="14" fill="#E5E5E5"/>
<g id="vs-code">
<use xlink:href="#path0_fill" transform="translate(1165 34)"/>
</g>
</g>
<defs>
<path id="path0_fill" d="M 14 1.456L 14 12.544L 10.5 14L 0 10.4647L 10.5 12.0242L 10.5 0L 14 1.456ZM 0.875 7.9296L 2.8448 5.98255L 0.875 4.03585L 1.673 3.7695L 3.6092 5.2276L 6.825 2.0489L 8.75 2.86685L 8.75 9.0986L 6.82465 9.9169L 3.60885 6.73855L 1.673 8.1963L 0.875 7.9296ZM 4.6123 5.98255L 6.82465 7.64855L 6.82465 4.31655L 4.6123 5.98255Z"/>
</defs>
</svg>
