<svg width="1000" height="1000" viewBox="0 0 1000 1000" version="1.1" xmlns="http://www.w3.org/2000/svg" xmlns:xlink="http://www.w3.org/1999/xlink">
<title>vsIDE</title>
<desc>Created using Figma</desc>
<g id="Canvas" transform="matrix(71.4286 0 0 71.4286 -86642.9 -2428.57)">
<g id="vsIDE">
<g id="BrandVisualStudioIDE2017RTW_40x">
<g id="Vector">
<use xlink:href="#path0_fill" transform="translate(1213 34)" fill="#333333"/>
</g>
</g>
</g>
</g>
<defs>
<path id="path0_fill" d="M 10.5001 0L 10.5001 12.0243L 9.12765e-12 10.4647L 10.5001 14L 14 12.544L 14 1.456L 10.5001 0ZM 3.60807 6.7354L 6.82376 9.91655L 8.74891 9.09755L 8.74891 2.86055L 6.82376 2.04155L 3.60807 5.22305L 1.67173 3.76355L 0.874016 4.0306L 0.874016 7.92785L 1.67173 8.1949L 3.60807 6.7354ZM 6.82376 4.31165L 6.82376 7.64715L 4.61125 5.9794L 6.82376 4.31165ZM 1.67173 4.81985L 2.84361 5.97905L 1.67173 7.1386L 1.67173 4.81985Z"/>
</defs>
</svg>
