<svg width="1001" height="1001" viewBox="0 0 1001 1001" version="1.1" xmlns="http://www.w3.org/2000/svg" xmlns:xlink="http://www.w3.org/1999/xlink">
<title>vsts-alt-1</title>
<desc>Created using Figma</desc>
<g id="Canvas" transform="matrix(71.5 0 0 71.5 -78149.5 -2431)">
<rect x="1093" y="34" width="14" height="14" fill="#E5E5E5"/>
<g id="vsts-alt-1">
<mask id="mask0_outline" mask-type="alpha">
<g id="Mask">
<use xlink:href="#path0_fill" transform="translate(1093 34)" fill="#FFFFFF"/>
</g>
</mask>
<g id="Mask" mask="url(#mask0_outline)">
<use xlink:href="#path0_fill" transform="translate(1093 34)"/>
</g>
<g id="&#226;&#134;&#170;&#240;&#159;&#142;&#168;Color" mask="url(#mask0_outline)">
<g id="Rectangle 3">
<use xlink:href="#path1_fill" transform="translate(1093 34)"/>
</g>
</g>
</g>
</g>
<defs>
<path id="path0_fill" fill-rule="evenodd" d="M 14 1.45703L 14 12.543L 10.5 14L 0 10.4648L 10.5 12.0234L 10.5 0L 14 1.45703ZM 1.75 4.8125L 6.78125 3.82422L 6.78125 8.09375L 1.75 7.4375L 1.75 4.8125ZM 0.875 7.1875L 1.75 7.4375L 3.85547 9.91797L 3.85547 8.92188L 6.82422 9.91406L 8.75 8.32422L 8.75 3.47266L 6.78125 3.82422L 4.37891 2.03906L 4.37891 2.85547L 1.67188 3.91406L 0.875 4.95703L 0.875 7.1875Z"/>
<path id="path1_fill" fill-rule="evenodd" d="M 0 0L 14 0L 14 14L 0 14L 0 0Z"/>
</defs>
</svg>
