<svg width="1001" height="1001" viewBox="0 0 1001 1001" version="1.1" xmlns="http://www.w3.org/2000/svg" xmlns:xlink="http://www.w3.org/1999/xlink">
<title>vsts-alt-2</title>
<desc>Created using Figma</desc>
<g id="Canvas" transform="matrix(71.5 0 0 71.5 -79865.5 -2431)">
<rect x="1117" y="34" width="14" height="14" fill="#E5E5E5"/>
<g id="vsts-alt-2">
<mask id="mask0_outline" mask-type="alpha">
<g id="Mask">
<use xlink:href="#path0_fill" transform="translate(1117 34)" fill="#FFFFFF"/>
</g>
</mask>
<g id="Mask" mask="url(#mask0_outline)">
<use xlink:href="#path0_fill" transform="translate(1117 34)"/>
</g>
<g id="&#226;&#134;&#170;&#240;&#159;&#142;&#168;Color" mask="url(#mask0_outline)">
<g id="Rectangle 3">
<use xlink:href="#path1_fill" transform="translate(1117 34)"/>
</g>
</g>
</g>
</g>
<defs>
<path id="path0_fill" fill-rule="evenodd" d="M 10.5 0L 10.5 12.0234L 0 10.4648L 10.5 14L 14 12.543L 14 1.45703L 10.5 0ZM 13.6562 1.55078L 11.1719 2.98438L 13.0469 1.29688L 13.6562 1.55078ZM 10.8438 2.28125L 12.7539 1.17578L 12.1406 0.917969L 10.8438 2.28125ZM 10.7188 0.328125L 11.8594 0.804688L 10.7188 1.46094L 10.7188 0.328125ZM 11.8242 1.01562L 10.7188 1.64844L 10.7188 2.17188L 11.8242 1.01562ZM 10.7188 2.54297L 12.6797 1.40625L 10.7188 3.16797L 10.7188 2.54297ZM 13.2617 1.96484L 10.7188 3.43359L 10.7188 4.07031L 13.2617 1.96484ZM 10.7188 4.36328L 13.3086 2.87109L 10.7188 5.02344L 10.7188 4.36328ZM 13.4453 3.73047L 10.7188 5.29297L 10.7188 5.95312L 13.4453 3.73047ZM 10.7188 6.22266L 13.457 4.65234L 10.7188 6.91016L 10.7188 6.22266ZM 13.168 5.75L 10.7188 7.15234L 10.7188 7.82031L 13.168 5.75ZM 10.7188 8.08203L 13.4805 6.5L 10.7188 8.71484L 10.7188 8.08203ZM 13.332 7.51562L 10.7188 9.01172L 10.7188 9.62109L 13.332 7.51562ZM 10.7188 9.94141L 13.5391 8.32812L 10.7188 10.5664L 10.7188 9.94141ZM 13.2578 9.41797L 10.7188 10.8711L 10.7188 11.5078L 13.2578 9.41797ZM 10.7188 11.8008L 13.3398 10.3008L 10.7188 12.1562L 10.7188 11.8008ZM 7.85938 12.6133L 9.66016 12.1211L 8.83984 12L 7.85938 12.6133ZM 8.39453 11.9336L 6.89453 12.332L 7.6875 11.8281L 8.39453 11.9336ZM 5.95312 12.0586L 7.28906 11.7695L 6.61328 11.668L 5.95312 12.0586ZM 6.07031 11.5859L 5 11.7422L 5.38672 11.4844L 6.07031 11.5859ZM 4.72266 11.3867L 4.35156 11.332L 4.14453 11.4453L 4.72266 11.3867ZM 3.72656 11.4883L 2.40234 11.043L 4.08203 11.293L 3.72656 11.4883ZM 5.03906 11.5195L 4.10156 11.6133L 4.62891 11.793L 5.03906 11.5195ZM 4.98438 11.9102L 6.17188 11.7383L 5.55078 12.1055L 4.98438 11.9102ZM 7.16797 11.9609L 5.92969 12.2305L 6.46484 12.4102L 7.16797 11.9609ZM 6.80469 12.5234L 8.34375 12.1172L 7.37891 12.7188L 6.80469 12.5234ZM 9.46875 12.3438L 7.69922 12.8242L 8.29688 13.0273L 9.46875 12.3438ZM 8.50391 13.0977L 10.0664 12.1797L 10.5742 12.2578L 9.10156 13.3008L 8.50391 13.0977ZM 12.9727 11.4336L 9.46484 13.4219L 10.1641 13.6562L 12.9727 11.4336ZM 13.7812 12.3984L 10.4922 13.7656L 10.4805 13.7617L 13.7812 11.9062L 13.7812 12.3984ZM 10.6523 13.4766L 13.7812 11.7188L 13.7812 11.0039L 10.6523 13.4766ZM 13.7812 10.7891L 9.54297 13.1875L 13.7812 10.1914L 13.7812 10.7891ZM 11.1445 11.3672L 13.7812 9.85938L 13.7812 9.20312L 11.1445 11.3672ZM 13.7812 8.92969L 11.1289 10.4492L 13.7812 8.34375L 13.7812 8.92969ZM 11.0586 9.55859L 13.7812 8L 13.7812 7.36719L 11.0586 9.55859ZM 13.7812 7.07031L 11.1602 8.57031L 13.7812 6.47266L 13.7812 7.07031ZM 11.2305 7.60156L 13.7812 6.14062L 13.7812 5.44922L 11.2305 7.60156ZM 13.7812 5.21094L 11.3516 6.60156L 13.7812 4.60156L 13.7812 5.21094ZM 11.25 5.73047L 13.7812 4.28125L 13.7812 3.67188L 11.25 5.73047ZM 13.7812 3.35156L 11.2227 4.81641L 13.7812 2.69141L 13.7812 3.35156ZM 11.1445 3.92969L 13.7812 2.41016L 13.7812 1.75L 11.1445 3.92969ZM 7 8.16797L 7 3.79297L 8.75 3.47266L 8.75 8.32422L 6.82422 9.91406L 3.79297 8.92188L 3.79297 9.91797L 1.75 7.33594L 7 8.16797ZM 0.875 7.1875L 1.75 7.33594L 1.75 4.80469L 7 3.79297L 4.37891 2.03906L 4.37891 3.05078L 1.71875 3.82422L 0.875 4.95703L 0.875 7.1875Z"/>
<path id="path1_fill" fill-rule="evenodd" d="M 0 0L 14 0L 14 14L 0 14L 0 0Z"/>
</defs>
</svg>
