<svg width="1000" height="1000" viewBox="0 0 1000 1000" version="1.1" xmlns="http://www.w3.org/2000/svg" xmlns:xlink="http://www.w3.org/1999/xlink">
<title>watch-eye</title>
<desc>Created using Figma</desc>
<g id="Canvas" transform="matrix(71.4286 0 0 71.4286 -42071.4 -17857.1)">
<rect x="589" y="250" width="14" height="14" fill="#E5E5E5"/>
<g id="watch-eye">
<mask id="mask0_outline" mask-type="alpha">
<g id="Mask">
<use xlink:href="#path0_fill" transform="translate(589 252)" fill="#FFFFFF"/>
</g>
</mask>
<g id="Mask" mask="url(#mask0_outline)">
<use xlink:href="#path0_fill" transform="translate(589 252)"/>
</g>
<g id="&#226;&#134;&#170;&#240;&#159;&#142;&#168;Color" mask="url(#mask0_outline)">
<g id="Rectangle 3">
<use xlink:href="#path1_fill" transform="translate(589 250)" fill="#333333"/>
</g>
</g>
</g>
</g>
<defs>
<path id="path0_fill" fill-rule="evenodd" d="M 7 0C 8.85828 0 10.6063 0.644012 11.9252 1.81126C 13.2638 2.99866 14 4.58051 14 6.27103L 12.9921 6.27103C 12.9921 3.38104 10.3032 1.03041 7 1.03041C 3.69684 1.03041 1.00787 3.38104 1.00787 6.27103L 0 6.27103C 0 4.58051 0.736206 2.99866 2.0748 1.81126C 3.39371 0.644012 5.14172 0 7 0ZM 7 3.54204C 8.47244 3.54204 9.66931 4.76566 9.66931 6.27101C 9.66931 7.77638 8.47244 9 7 9C 5.52756 9 4.33072 7.77638 4.33072 6.27101C 4.33072 4.76566 5.52756 3.54204 7 3.54204ZM 0.0747986 5.39758L 0.0708618 5.38551L 0.0708618 5.41771L 0.0747986 5.39758ZM 8.66144 6.27101C 8.66144 7.20885 7.91733 7.96959 7 7.96959C 6.0827 7.96959 5.33859 7.20885 5.33859 6.27101C 5.33859 5.33318 6.0827 4.57245 7 4.57245C 7.91733 4.57245 8.66144 5.33318 8.66144 6.27101Z"/>
<path id="path1_fill" fill-rule="evenodd" d="M 0 0L 14 0L 14 14L 0 14L 0 0Z"/>
</defs>
</svg>
