<svg width="1000" height="1000" viewBox="0 0 1000 1000" version="1.1" xmlns="http://www.w3.org/2000/svg" xmlns:xlink="http://www.w3.org/1999/xlink">
<title>watch-eye-off</title>
<desc>Created using Figma</desc>
<g id="Canvas" transform="matrix(71.4286 0 0 71.4286 -45500 -17857.1)">
<rect x="637" y="250" width="14" height="14" fill="#E5E5E5"/>
<g id="watch-eye-off">
<mask id="mask0_outline" mask-type="alpha">
<g id="Mask">
<use xlink:href="#path0_fill" transform="translate(637 250)" fill="#FFFFFF"/>
</g>
</mask>
<g id="Mask" mask="url(#mask0_outline)">
<use xlink:href="#path0_fill" transform="translate(637 250)"/>
</g>
<g id="&#226;&#134;&#170;&#240;&#159;&#142;&#168;Color" mask="url(#mask0_outline)">
<g id="Rectangle 3">
<use xlink:href="#path1_fill" transform="translate(637 250)" fill="#333333"/>
</g>
</g>
</g>
</g>
<defs>
<path id="path0_fill" d="M 9.51969 7.35252C 9.51969 5.93966 8.38976 4.79095 7 4.79095C 6.7126 4.79095 6.44488 4.85099 6.18898 4.93904L 4.08661 2.80172C 4.94882 2.38147 5.94095 2.22137 7 2.22137C 10.3032 2.22137 12.9921 4.43873 12.9921 7.51262L 14 7.51262C 14 3.4141 10.8583 1.19674 7 1.19674C 5.65748 1.19674 4.40945 1.50092 3.34252 2.08528L 1.31102 0L 0.598426 0.712438L 2.4685 2.69366C 0.960629 3.83836 0 5.46336 0 7.51262L 1.00787 7.51262C 1.00787 5.46336 1.85827 4.37069 3.18504 3.4141L 5.29528 5.5194C 4.79528 5.98768 4.48032 6.62808 4.48032 7.37254C 4.48032 8.78541 5.61024 9.92611 7 9.92611C 7.73228 9.92611 8.38189 9.59791 8.84252 9.0936L 12.6929 13L 13.4055 12.2756L 9.37402 8.17703C 9.46063 7.91687 9.51969 7.6447 9.51969 7.35252Z"/>
<path id="path1_fill" fill-rule="evenodd" d="M 0 0L 14 0L 14 14L 0 14L 0 0Z"/>
</defs>
</svg>
