<svg width="1001" height="1001" viewBox="0 0 1001 1001" version="1.1" xmlns="http://www.w3.org/2000/svg" xmlns:xlink="http://www.w3.org/1999/xlink">
<title>web-components</title>
<desc>Created using Figma</desc>
<g id="Canvas" transform="matrix(83.4167 0 0 83.4167 -47213.8 -22939.6)">
<g id="web-components">
<use xlink:href="#path0_fill" transform="translate(566 275)"/>
</g>
</g>
<defs>
<path id="path0_fill" d="M 6 6L 10.5 6L 10.5 11.25L 0.75 11.25L 0.75 1.5L 6 1.5L 6 6ZM 1.5 2.25L 1.5 6L 5.25 6L 5.25 2.25L 1.5 2.25ZM 5.25 10.5L 5.25 6.75L 1.5 6.75L 1.5 10.5L 5.25 10.5ZM 9.75 10.5L 9.75 6.75L 6 6.75L 6 10.5L 9.75 10.5ZM 7.5 0L 12 0L 12 4.5L 7.5 4.5L 7.5 0ZM 11.25 3.75L 11.25 0.75L 8.25 0.75L 8.25 3.75L 11.25 3.75Z"/>
</defs>
</svg>
