<svg width="1001" height="1001" viewBox="0 0 1001 1001" version="1.1" xmlns="http://www.w3.org/2000/svg" xmlns:xlink="http://www.w3.org/1999/xlink">
<title>windows</title>
<desc>Created using Figma</desc>
<g id="Canvas" transform="matrix(71.5 0 0 71.5 -81581.5 -2431)">
<rect x="1141" y="34" width="14" height="14" fill="#E5E5E5"/>
<g id="windows">
<mask id="mask0_outline" mask-type="alpha">
<g id="Mask">
<use xlink:href="#path0_fill" transform="translate(1141 34)" fill="#FFFFFF"/>
</g>
</mask>
<g id="Mask" mask="url(#mask0_outline)">
<use xlink:href="#path0_fill" transform="translate(1141 34)"/>
</g>
<g id="&#226;&#134;&#170;&#240;&#159;&#142;&#168;Color" mask="url(#mask0_outline)">
<g id="Rectangle 3">
<use xlink:href="#path1_fill" transform="translate(1141 34)"/>
</g>
</g>
</g>
</g>
<defs>
<path id="path0_fill" fill-rule="evenodd" d="M 6.125 6.125L 6.125 0.976562L 13.125 0L 13.125 6.125L 6.125 6.125ZM 5.25 6.125L 0 6.125L 0 1.83203L 5.25 1.09766L 5.25 6.125ZM 6.125 12.1484L 13.125 13.125L 13.125 7L 6.125 7L 6.125 12.1484ZM 5.25 12.0234L 0 11.293L 0 7L 5.25 7L 5.25 12.0234Z"/>
<path id="path1_fill" fill-rule="evenodd" d="M 0 0L 14 0L 14 14L 0 14L 0 0Z"/>
</defs>
</svg>
