<svg width="1001" height="1001" viewBox="0 0 1001 1001" version="1.1" xmlns="http://www.w3.org/2000/svg" xmlns:xlink="http://www.w3.org/1999/xlink">
<title>work-item</title>
<desc>Created using Figma</desc>
<g id="Canvas" transform="matrix(71.5 0 0 71.5 -42113.5 -17875)">
<rect x="589" y="250" width="14" height="14" fill="#E5E5E5"/>
<g id="work-item">
<mask id="mask0_outline" mask-type="alpha">
<g id="Mask">
<use xlink:href="#path0_fill" transform="translate(590 250)" fill="#FFFFFF"/>
</g>
</mask>
<g id="Mask" mask="url(#mask0_outline)">
<use xlink:href="#path0_fill" transform="translate(590 250)"/>
</g>
<g id="&#226;&#134;&#170;&#240;&#159;&#142;&#168;Color" mask="url(#mask0_outline)">
<g id="Rectangle 3">
<use xlink:href="#path1_fill" transform="translate(589 250)"/>
</g>
</g>
</g>
</g>
<defs>
<path id="path0_fill" fill-rule="evenodd" d="M 10.5217 5L 9.46948 5L 9.46948 3L 8.4173 3L 8.4173 5L 2.10434 5L 2.10434 3L 1.05215 3L 1.05215 13L 9.46948 13L 9.46948 11L 10.5217 11L 10.5217 14L 0 14L 0 2L 3.15649 2C 3.15649 0.898438 4.10181 0 5.26083 0C 6.41986 0 7.36517 0.898438 7.36517 2L 10.5217 2L 10.5217 5ZM 6.31299 11.707L 2.78659 8.35547L 3.53052 7.64844L 6.31299 10.293L 12.2561 4.64453L 13 5.35156L 6.31299 11.707ZM 6.31299 3L 7.36517 3L 7.36517 4L 3.15649 4L 3.15649 3L 4.20865 3L 4.20865 2C 4.20865 1.44922 4.6813 1 5.26083 1C 5.84033 1 6.31299 1.44922 6.31299 2L 6.31299 3Z"/>
<path id="path1_fill" fill-rule="evenodd" d="M 0 0L 14 0L 14 14L 0 14L 0 0Z"/>
</defs>
</svg>
