<svg width="1001" height="1001" viewBox="0 0 1001 1001" version="1.1" xmlns="http://www.w3.org/2000/svg" xmlns:xlink="http://www.w3.org/1999/xlink">
<title>world</title>
<desc>Created using Figma</desc>
<g id="Canvas" transform="matrix(71.5 0 0 71.5 -95309.5 -12727)">
<g id="world">
<use xlink:href="#path0_fill" transform="translate(1333 178)"/>
</g>
</g>
<defs>
<path id="path0_fill" d="M 3.39062 6.03613C 3.44987 6.03613 3.51595 6.04753 3.58887 6.07031C 3.66178 6.08854 3.7347 6.11133 3.80762 6.13867C 3.88509 6.16602 3.95801 6.19564 4.02637 6.22754C 4.09928 6.25944 4.16536 6.28678 4.22461 6.30957C 4.18815 6.31413 4.14941 6.31869 4.1084 6.32324C 4.07194 6.3278 4.03548 6.33008 3.99902 6.33008C 3.92155 6.33008 3.85091 6.31869 3.78711 6.2959C 3.72331 6.26855 3.66178 6.23893 3.60254 6.20703C 3.54785 6.17513 3.49316 6.14779 3.43848 6.125C 3.38835 6.09766 3.34049 6.08398 3.29492 6.08398C 3.24935 6.08398 3.20833 6.0931 3.17188 6.11133C 3.13542 6.12956 3.09896 6.15006 3.0625 6.17285C 3.0625 6.15462 3.04655 6.14551 3.01465 6.14551C 3.04655 6.11361 3.10579 6.08854 3.19238 6.07031C 3.27897 6.04753 3.34505 6.03613 3.39062 6.03613ZM 4.31348 6.34375C 4.50033 6.34375 4.67122 6.37565 4.82617 6.43945C 4.76237 6.46224 4.69857 6.48275 4.63477 6.50098C 4.57096 6.51465 4.50488 6.52148 4.43652 6.52148C 4.34538 6.52148 4.26335 6.51237 4.19043 6.49414C 4.21322 6.45768 4.236 6.4349 4.25879 6.42578C 4.28158 6.41211 4.2998 6.38477 4.31348 6.34375ZM 7 0C 7.64258 0 8.26009 0.0843099 8.85254 0.25293C 9.44954 0.421549 10.0055 0.658529 10.5205 0.963867C 11.04 1.26465 11.514 1.62923 11.9424 2.05762C 12.3708 2.486 12.7354 2.95996 13.0361 3.47949C 13.3415 3.99447 13.5785 4.55046 13.7471 5.14746C 13.9157 5.73991 14 6.35742 14 7C 14 7.64258 13.9157 8.26237 13.7471 8.85938C 13.5785 9.45182 13.3415 10.0078 13.0361 10.5273C 12.7354 11.0423 12.3708 11.514 11.9424 11.9424C 11.514 12.3708 11.04 12.7376 10.5205 13.043C 10.0055 13.3438 9.44954 13.5785 8.85254 13.7471C 8.26009 13.9157 7.64258 14 7 14C 6.35742 14 5.73763 13.9157 5.14062 13.7471C 4.54818 13.5785 3.99219 13.3438 3.47266 13.043C 2.95768 12.7376 2.486 12.3708 2.05762 11.9424C 1.62923 11.514 1.26237 11.0423 0.957031 10.5273C 0.65625 10.0078 0.421549 9.45182 0.25293 8.85938C 0.0843099 8.26237 0 7.64258 0 7C 0 6.35742 0.0843099 5.73991 0.25293 5.14746C 0.421549 4.55046 0.65625 3.99447 0.957031 3.47949C 1.26237 2.95996 1.62923 2.486 2.05762 2.05762C 2.486 1.62923 2.95768 1.26465 3.47266 0.963867C 3.99219 0.658529 4.54818 0.421549 5.14062 0.25293C 5.73763 0.0843099 6.35742 0 7 0ZM 12.209 3.79395C 12.1452 3.69368 12.0814 3.59798 12.0176 3.50684C 11.9538 3.41113 11.8877 3.31771 11.8193 3.22656C 11.8102 3.26758 11.7965 3.2972 11.7783 3.31543C 11.7646 3.33366 11.7578 3.37467 11.7578 3.43848C 11.7578 3.47949 11.7738 3.52051 11.8057 3.56152C 11.8421 3.59798 11.8831 3.63216 11.9287 3.66406C 11.9788 3.69596 12.029 3.72331 12.0791 3.74609C 12.1292 3.76888 12.1725 3.78483 12.209 3.79395ZM 11.7373 3.12402C 11.7373 3.16048 11.7305 3.18555 11.7168 3.19922L 11.7578 3.19922C 11.776 3.19922 11.7897 3.2015 11.7988 3.20605L 11.7373 3.12402ZM 7 13.125C 7.51953 13.125 8.02767 13.0589 8.52441 12.9268C 9.02116 12.7946 9.49056 12.6077 9.93262 12.3662C 10.3792 12.1201 10.7894 11.8239 11.1631 11.4775C 11.5413 11.1266 11.8717 10.7347 12.1543 10.3018C 12.0951 10.165 12.0381 10.026 11.9834 9.88477C 11.9287 9.74349 11.9014 9.59766 11.9014 9.44727C 11.9014 9.2832 11.9082 9.15104 11.9219 9.05078C 11.9401 8.94596 11.9561 8.8571 11.9697 8.78418C 11.9834 8.71126 11.9925 8.64518 11.9971 8.58594C 12.0062 8.52214 11.9993 8.4515 11.9766 8.37402C 11.9538 8.29655 11.9128 8.20312 11.8535 8.09375C 11.7988 7.98438 11.7168 7.8431 11.6074 7.66992C 11.612 7.63802 11.6188 7.59473 11.6279 7.54004C 11.6416 7.48535 11.6507 7.42839 11.6553 7.36914C 11.6598 7.3099 11.6598 7.25521 11.6553 7.20508C 11.6553 7.15039 11.6462 7.1071 11.6279 7.0752C 11.5094 7.06152 11.3841 7.03646 11.252 7C 11.1243 6.96354 11.0127 6.90885 10.917 6.83594L 10.958 6.80176C 10.8988 6.81543 10.8395 6.83594 10.7803 6.86328C 10.721 6.88607 10.6618 6.90885 10.6025 6.93164C 10.5479 6.95443 10.4909 6.97494 10.4316 6.99316C 10.3724 7.00684 10.3109 7.01367 10.2471 7.01367L 10.1377 7L 10.1582 6.95215C 10.0944 6.97038 10.0238 6.99316 9.94629 7.02051C 9.87337 7.04785 9.80501 7.06152 9.74121 7.06152C 9.69564 7.06152 9.62956 7.04557 9.54297 7.01367C 9.45638 6.98177 9.36751 6.94303 9.27637 6.89746C 9.18978 6.85189 9.1123 6.80176 9.04395 6.74707C 8.98014 6.69238 8.94824 6.63997 8.94824 6.58984L 8.96191 6.56934C 8.93913 6.54199 8.9095 6.51693 8.87305 6.49414C 8.83659 6.47135 8.80013 6.44857 8.76367 6.42578C 8.73177 6.40299 8.70443 6.37793 8.68164 6.35059C 8.65885 6.32324 8.64746 6.29134 8.64746 6.25488L 8.72266 6.19336L 8.56543 6.17285L 8.51074 5.96777C 8.51986 5.99056 8.54036 5.99967 8.57227 5.99512C 8.60872 5.99056 8.63379 5.98145 8.64746 5.96777L 8.40137 5.83789L 8.57227 5.40039C 8.50846 5.16341 8.49251 4.98112 8.52441 4.85352C 8.56087 4.72591 8.6224 4.62109 8.70898 4.53906C 8.79557 4.45247 8.89583 4.37044 9.00977 4.29297C 9.12825 4.21094 9.23991 4.09928 9.34473 3.95801L 9.32422 3.87598L 9.77539 3.3291L 9.87793 3.31543C 10.0055 3.31543 10.1491 3.31087 10.3086 3.30176C 10.4681 3.28809 10.6299 3.27214 10.7939 3.25391C 10.958 3.23112 11.1198 3.20833 11.2793 3.18555C 11.4388 3.1582 11.5846 3.12858 11.7168 3.09668C 11.571 2.9235 11.416 2.75944 11.252 2.60449C 11.0924 2.44954 10.9238 2.30143 10.7461 2.16016C 10.696 2.17839 10.6322 2.20573 10.5547 2.24219C 10.4818 2.27409 10.4111 2.3151 10.3428 2.36523C 10.2744 2.41081 10.2152 2.46322 10.165 2.52246C 10.1195 2.58171 10.0967 2.64323 10.0967 2.70703L 10.1377 2.83691C 10.0557 2.96908 9.96452 3.05339 9.86426 3.08984C 9.764 3.12174 9.65918 3.13997 9.5498 3.14453C 9.44499 3.14453 9.33561 3.14225 9.22168 3.1377C 9.1123 3.13314 9.00521 3.15365 8.90039 3.19922L 8.79102 2.9668L 8.89355 2.57031L 8.77734 2.39941L 9.95996 2.03027C 9.90983 1.90267 9.82552 1.80697 9.70703 1.74316C 9.5931 1.67936 9.47005 1.64746 9.33789 1.64746L 9.33789 1.5791L 9.7207 1.51758C 9.29688 1.30794 8.85482 1.14844 8.39453 1.03906C 7.9388 0.929688 7.47396 0.875 7 0.875C 6.60352 0.875 6.21159 0.913737 5.82422 0.991211C 5.43685 1.06868 5.06087 1.18262 4.69629 1.33301C 4.33626 1.47884 3.98991 1.65885 3.65723 1.87305C 3.32454 2.08724 3.01693 2.33333 2.73438 2.61133C 2.85286 2.61133 2.94401 2.64323 3.00781 2.70703C 3.07617 2.76628 3.13542 2.83236 3.18555 2.90527C 3.24023 2.97363 3.2972 3.03971 3.35645 3.10352C 3.41569 3.16276 3.49544 3.19238 3.5957 3.19238L 3.70508 3.11035L 3.69141 2.95996L 3.91699 2.63867L 3.73926 2.13281C 3.76204 2.11914 3.79622 2.09635 3.8418 2.06445C 3.89193 2.03255 3.93066 2.0166 3.95801 2.0166C 4.09473 2.0166 4.19954 2.02344 4.27246 2.03711C 4.34994 2.05078 4.41374 2.07812 4.46387 2.11914C 4.514 2.1556 4.56185 2.20801 4.60742 2.27637C 4.65299 2.34017 4.7168 2.42448 4.79883 2.5293L 5.04492 2.33789C 5.09049 2.35612 5.16341 2.38802 5.26367 2.43359C 5.36849 2.47461 5.47103 2.52474 5.57129 2.58398C 5.67155 2.63867 5.76042 2.69792 5.83789 2.76172C 5.91536 2.82552 5.9541 2.88477 5.9541 2.93945C 5.9541 3.00781 5.92676 3.0625 5.87207 3.10352C 5.82194 3.14453 5.75814 3.17871 5.68066 3.20605C 5.60319 3.2334 5.5166 3.25618 5.4209 3.27441C 5.32975 3.28809 5.24544 3.30404 5.16797 3.32227C 5.09049 3.34049 5.02441 3.36556 4.96973 3.39746C 4.91504 3.4248 4.8877 3.46126 4.8877 3.50684L 5.28418 3.63672C 5.19303 3.71419 5.09277 3.78711 4.9834 3.85547C 4.87858 3.91927 4.77148 3.97624 4.66211 4.02637L 4.68945 4.14258L 4.06055 4.38867L 4.06055 4.58008L 4.0127 4.60059L 4.04688 4.36133L 4.01953 4.35449C 3.98763 4.35449 3.96712 4.36133 3.95801 4.375C 3.95345 4.38867 3.95345 4.40462 3.95801 4.42285C 3.96257 4.44108 3.96712 4.45931 3.97168 4.47754C 3.98079 4.49577 3.98307 4.50944 3.97852 4.51855L 3.88965 4.4707L 3.90332 4.49805C 3.90332 4.51172 3.91016 4.53223 3.92383 4.55957C 3.94206 4.58691 3.96029 4.61426 3.97852 4.6416C 4.0013 4.66439 4.01953 4.68717 4.0332 4.70996C 4.05143 4.72819 4.06055 4.7373 4.06055 4.7373C 4.06055 4.75098 4.04915 4.76465 4.02637 4.77832C 4.00814 4.79199 3.98763 4.80339 3.96484 4.8125C 3.94206 4.81706 3.92383 4.82161 3.91016 4.82617C 3.89648 4.83073 3.89648 4.83301 3.91016 4.83301C 3.97396 4.83301 3.98535 4.83756 3.94434 4.84668C 3.90788 4.85579 3.85319 4.87858 3.78027 4.91504C 3.70736 4.9515 3.63444 5.00619 3.56152 5.0791C 3.49316 5.14746 3.45898 5.24544 3.45898 5.37305C 3.45898 5.45052 3.46126 5.52572 3.46582 5.59863C 3.47493 5.67155 3.47266 5.74674 3.45898 5.82422C 3.39518 5.65104 3.29948 5.51888 3.17188 5.42773C 3.04427 5.33659 2.88932 5.29102 2.70703 5.29102L 2.41309 5.31836L 2.55664 5.41406C 2.47917 5.40495 2.39714 5.39583 2.31055 5.38672C 2.22852 5.3776 2.14648 5.3776 2.06445 5.38672C 1.98242 5.39128 1.90267 5.40951 1.8252 5.44141C 1.75228 5.46875 1.6862 5.51432 1.62695 5.57812L 1.58594 5.88574C 1.58594 6.03158 1.61784 6.15234 1.68164 6.24805C 1.75 6.33919 1.86165 6.38477 2.0166 6.38477C 2.15332 6.38477 2.28776 6.36426 2.41992 6.32324C 2.55208 6.27767 2.68197 6.22982 2.80957 6.17969C 2.76855 6.27995 2.72298 6.37793 2.67285 6.47363C 2.62272 6.56478 2.58626 6.66276 2.56348 6.76758L 2.65234 6.80859C 2.76172 6.73568 2.86198 6.72428 2.95312 6.77441C 3.04427 6.82454 3.13314 6.89746 3.21973 6.99316C 3.30632 7.08887 3.39518 7.18913 3.48633 7.29395C 3.57747 7.39421 3.67546 7.46484 3.78027 7.50586L 3.54785 7.62891L 3.00098 7.32129C 3.00553 7.3304 3.01009 7.35091 3.01465 7.38281C 3.02376 7.41471 3.02148 7.42155 3.00781 7.40332L 2.76172 6.98633C 2.61589 6.98177 2.45866 6.95898 2.29004 6.91797C 2.12598 6.8724 1.96191 6.81771 1.79785 6.75391C 1.63379 6.68555 1.47428 6.61035 1.31934 6.52832C 1.16895 6.44173 1.03678 6.35514 0.922852 6.26855L 0.875 7C 0.875 7.55599 0.950195 8.09831 1.10059 8.62695C 1.25098 9.1556 1.46289 9.65234 1.73633 10.1172C 2.01432 10.582 2.34928 11.0081 2.74121 11.3955C 3.13314 11.7783 3.57292 12.1019 4.06055 12.3662C 4.03776 12.2705 4.03548 12.1748 4.05371 12.0791C 4.07194 11.9834 4.09473 11.8877 4.12207 11.792C 4.15397 11.6963 4.18359 11.6006 4.21094 11.5049C 4.24284 11.4046 4.25879 11.3066 4.25879 11.2109C 4.25879 11.0651 4.236 10.9124 4.19043 10.7529C 4.14486 10.5889 4.08789 10.4271 4.01953 10.2676C 3.95573 10.1035 3.88737 9.94173 3.81445 9.78223C 3.74154 9.62272 3.67773 9.47233 3.62305 9.33105C 3.57292 9.18522 3.53874 9.05306 3.52051 8.93457C 3.50228 8.81152 3.51595 8.70443 3.56152 8.61328L 3.45898 8.56543C 3.48633 8.50163 3.52279 8.4401 3.56836 8.38086C 3.61849 8.32161 3.66634 8.26237 3.71191 8.20312C 3.75749 8.13932 3.79622 8.07552 3.82812 8.01172C 3.86003 7.94792 3.87598 7.87956 3.87598 7.80664C 3.87598 7.76107 3.86458 7.71322 3.8418 7.66309C 3.82357 7.6084 3.8099 7.56055 3.80078 7.51953L 3.94434 7.55371C 4.02181 7.37598 4.12663 7.25521 4.25879 7.19141C 4.39551 7.12305 4.56185 7.08887 4.75781 7.08887C 4.7806 7.08887 4.82845 7.10026 4.90137 7.12305C 4.97428 7.14128 5.05176 7.16406 5.13379 7.19141C 5.21582 7.21875 5.29329 7.24609 5.36621 7.27344C 5.44369 7.29622 5.49837 7.31217 5.53027 7.32129C 5.53027 7.35319 5.5485 7.37598 5.58496 7.38965C 5.62598 7.39876 5.64648 7.41244 5.64648 7.43066L 5.63281 7.48535C 5.64648 7.48991 5.67839 7.50814 5.72852 7.54004C 5.7832 7.56738 5.83789 7.59928 5.89258 7.63574C 5.95182 7.6722 6.00423 7.70866 6.0498 7.74512C 6.09994 7.78158 6.13184 7.80664 6.14551 7.82031C 6.22754 7.82031 6.33919 7.84766 6.48047 7.90234C 6.6263 7.95703 6.78125 8.02767 6.94531 8.11426C 7.10938 8.19629 7.27572 8.29427 7.44434 8.4082C 7.61751 8.51758 7.77246 8.63151 7.90918 8.75C 8.0459 8.86393 8.15755 8.97786 8.24414 9.0918C 8.33529 9.20117 8.38086 9.29915 8.38086 9.38574L 8.14844 9.63184C 8.16667 9.86426 8.14844 10.0443 8.09375 10.1719C 8.04362 10.2949 7.96615 10.3952 7.86133 10.4727C 7.76107 10.5501 7.6403 10.6185 7.49902 10.6777C 7.3623 10.737 7.21647 10.8145 7.06152 10.9102C 7.06152 11.0013 7.03874 11.1016 6.99316 11.2109C 6.94759 11.3158 6.88835 11.416 6.81543 11.5117C 6.74707 11.6029 6.66504 11.6803 6.56934 11.7441C 6.47819 11.8079 6.38477 11.8398 6.28906 11.8398L 6.00195 11.6211C 6.01107 11.6302 6.00879 11.6484 5.99512 11.6758C 5.986 11.6986 5.97689 11.7008 5.96777 11.6826C 6.01335 11.7692 6.02474 11.8695 6.00195 11.9834C 5.97917 12.0973 5.94043 12.2135 5.88574 12.332C 5.83105 12.4505 5.76953 12.5645 5.70117 12.6738C 5.63281 12.7786 5.57129 12.8652 5.5166 12.9336C 5.7627 12.9974 6.00879 13.0452 6.25488 13.0771C 6.50098 13.109 6.74935 13.125 7 13.125Z"/>
</defs>
</svg>
